<svg width="100%" height="100%" viewBox="0 0 741 143" version="1.1" xmlns="http://www.w3.org/2000/svg" xmlns:xlink="http://www.w3.org/1999/xlink" xml:space="preserve" style="fill-rule:evenodd;clip-rule:evenodd;stroke-linejoin:round;stroke-miterlimit:2;">
    <style>
        html {
            --text-color: hsl(0, 0%, 100%);
        }
    </style>
    <path d="M449.407,130.681c-6.871,0 -13.457,-1.105 -19.528,-3.122c4.116,-9.318 14.873,-17.121 19.528,-20.175c4.669,3.054 15.426,10.864 19.536,20.175c-6.072,2.017 -12.658,3.122 -19.536,3.122Zm248.57,-1.092c-16.07,0 -28.323,-5.246 -36.754,-15.742c-8.435,-10.491 -12.65,-24.502 -12.65,-42.032c0,-11.551 2.191,-21.712 6.573,-30.477c4.383,-8.765 10.528,-15.538 18.424,-20.318c7.903,-4.779 16.904,-7.169 26.997,-7.169c12.352,0 21.942,3.414 28.783,10.255c6.841,6.841 10.46,16.636 10.857,29.385c0,8.101 -0.466,14.278 -1.396,18.524l-68.525,-0c0.268,13.147 3.322,23.736 9.163,31.776c5.847,8.032 14.146,12.048 24.905,12.048c5.306,0 10.855,-0.962 16.629,-2.886c5.779,-1.925 10.261,-4.216 13.445,-6.872l3.787,8.765c-3.848,3.985 -9.56,7.436 -17.132,10.361c-7.568,2.916 -15.271,4.382 -23.106,4.382Zm-406.977,-56.774c-0,-11.025 2.16,-20.986 6.475,-29.883c4.314,-8.901 10.689,-15.971 19.124,-21.216c8.43,-5.245 18.555,-7.865 30.379,-7.865c5.706,0 10.621,0.528 14.737,1.588c4.121,1.062 9.031,2.527 14.742,4.383l-0.794,30.677l-12.949,-0l-4.383,-20.316c-0.8,-3.719 -5.847,-5.581 -15.139,-5.581c-9.298,-0 -16.636,3.755 -22.011,11.26c-5.383,7.5 -8.071,18.157 -8.071,31.969c0,15.674 3.024,27.592 9.063,35.761c6.047,8.163 13.912,12.247 23.607,12.247c5.581,0 10.857,-0.863 15.835,-2.588c4.985,-1.726 9.268,-3.786 12.85,-6.177l3.786,7.97c-3.587,3.718 -8.863,7.07 -15.835,10.063c-6.976,2.986 -14.046,4.482 -21.217,4.482c-10.887,0 -20.086,-2.458 -27.591,-7.375c-7.505,-4.91 -13.147,-11.651 -16.934,-20.218c-3.781,-8.566 -5.674,-18.293 -5.674,-29.181Zm237.651,-40.64l-14.344,-3.588l-0,-10.758l28.485,-3.581l0.603,-0l4.183,3.581l-0,8.369l-0.199,4.779c4.78,-4.246 11.087,-8.101 18.92,-11.552c7.834,-3.451 15.339,-5.177 22.515,-5.177c8.362,-0 14.836,1.589 19.417,4.78c4.587,3.184 7.803,8.069 9.665,14.643c1.856,6.573 2.787,15.438 2.787,26.593l-0,55.774l13.948,1.396l-0,9.963l-47.214,0l0,-9.763l12.354,-1.596l-0,-55.972c-0,-7.841 -0.535,-13.98 -1.596,-18.43c-1.061,-4.445 -3.055,-7.766 -5.978,-9.957c-2.924,-2.192 -7.17,-3.29 -12.751,-3.29c-4.778,-0 -9.893,1.198 -15.337,3.588c-5.445,2.39 -10.292,5.176 -14.538,8.367l0,75.495l13.544,1.795l-0,9.763l-47.015,0l-0,-9.763l12.551,-1.795l0,-83.664Zm-134.235,52.087c17.139,2.694 33.445,8.938 47.698,18.269c-5.972,4.196 -15.581,12.085 -19.982,21.837c-16.09,-8.039 -27.108,-22.949 -27.716,-40.106Zm82.273,40.106c-4.401,-9.752 -14.009,-17.635 -19.981,-21.837c14.252,-9.331 30.559,-15.575 47.697,-18.269c-0.607,17.157 -11.626,32.067 -27.716,40.106Zm-27.282,-52.757c3.967,2.545 12.404,8.516 17.362,16.028c-6.045,2.886 -11.856,6.232 -17.362,10.018c-5.499,-3.786 -11.309,-7.132 -17.356,-10.018c4.96,-7.518 13.402,-13.483 17.356,-16.028Zm-46.99,-15.395c7.102,1.646 23.129,6.493 30.522,17.871c-3.129,2.925 -6.208,6.357 -8.596,10.168c-7.885,-3.147 -16.104,-5.542 -24.532,-7.132c-0.728,-8.41 1.265,-16.574 2.606,-20.907Zm96.594,20.907c-8.429,1.59 -16.648,3.985 -24.526,7.132c-2.396,-3.811 -5.474,-7.243 -8.603,-10.168c7.393,-11.383 23.427,-16.225 30.529,-17.871c1.333,4.333 3.327,12.497 2.6,20.907Zm-66.513,-15.686c4.967,-8.132 12.968,-14.568 16.916,-17.443c3.948,2.868 11.937,9.286 16.916,17.443c-2.54,2.111 -4.88,4.526 -6.848,7.287c-4.246,-3.197 -7.585,-5.089 -7.902,-5.269c-1.334,-0.746 -3.005,-0.746 -4.339,-0c-0.317,0.18 -3.656,2.072 -7.902,5.269c-1.967,-2.761 -4.302,-5.176 -6.841,-7.287Zm285.797,0.019c0.398,-2.788 0.596,-5.643 0.596,-8.567c-0.13,-8.628 -1.956,-15.438 -5.475,-20.416c-3.52,-4.978 -9.062,-7.467 -16.636,-7.467c-7.704,0 -13.843,2.787 -18.423,8.367c-4.582,5.575 -7.207,14.935 -7.871,28.083l47.809,-0Zm-297.324,-33.334c4.407,1.731 13.284,5.704 20.224,11.893c-4.594,3.656 -10.95,9.467 -15.537,16.661c-5.718,-3.358 -11.683,-5.55 -16.4,-6.934c2.44,-9.317 8.615,-17.79 11.713,-21.62Zm56.898,0c3.098,3.817 9.268,12.272 11.706,21.62c-4.723,1.378 -10.689,3.57 -16.411,6.928c-4.587,-7.182 -10.932,-12.992 -15.526,-16.649c6.922,-6.17 15.824,-10.161 20.231,-11.899Zm-28.455,-16.313c3.494,2.302 10.373,7.255 15.376,13.532c-4.6,2.483 -9.702,5.785 -14.098,9.938c-0.832,-0.248 -1.726,-0.248 -2.556,0c-4.396,-4.159 -9.499,-7.461 -14.098,-9.938c4.997,-6.257 11.887,-11.223 15.376,-13.532Z" style="fill:var(--text-color);"/>
    <path d="M237.484,28.498c-0,-15.728 -12.77,-28.498 -28.498,-28.498l-180.488,0c-15.728,0 -28.498,12.77 -28.498,28.498l-0,85.494c-0,15.729 12.77,28.498 28.498,28.498l180.488,0c15.728,0 28.498,-12.769 28.498,-28.498l-0,-85.494Z" style="fill:#ebebeb;"/>
    <clipPath id="_clip1">
        <path d="M237.484,28.498c-0,-15.728 -12.77,-28.498 -28.498,-28.498l-180.488,0c-15.728,0 -28.498,12.77 -28.498,28.498l-0,85.494c-0,15.729 12.77,28.498 28.498,28.498l180.488,0c15.728,0 28.498,-12.769 28.498,-28.498l-0,-85.494Z"/>
    </clipPath>
    <g clip-path="url(#_clip1)">
        <g>
            <g>
                <rect x="-0" y="47.497" width="47.497" height="47.497" style="fill:#0065ef;"/>
                <rect x="47.497" y="47.497" width="47.497" height="47.497" style="fill:#0065ef;fill-opacity:0.9;"/>
                <rect x="94.993" y="47.497" width="47.497" height="47.497" style="fill:#0065ef;fill-opacity:0.8;"/>
                <rect x="142.49" y="47.497" width="47.497" height="47.497" style="fill:#0065ef;fill-opacity:0.7;"/>
                <rect x="189.987" y="47.497" width="47.497" height="47.497" style="fill:#0065ef;fill-opacity:0.6;"/>
            </g>
            <g>
                <rect x="0" y="94.993" width="47.497" height="47.497" style="fill:#00b6ef;"/>
                <rect x="47.497" y="94.993" width="47.497" height="47.497" style="fill:#00b6ef;fill-opacity:0.9;"/>
                <rect x="94.993" y="94.993" width="47.497" height="47.497" style="fill:#00b6ef;fill-opacity:0.8;"/>
                <rect x="142.49" y="94.993" width="47.497" height="47.497" style="fill:#00b6ef;fill-opacity:0.7;"/>
                <rect x="189.987" y="94.993" width="47.497" height="47.497" style="fill:#00b6ef;fill-opacity:0.6;"/>
            </g>
            <g>
                <rect x="-0" y="0" width="47.497" height="47.497" style="fill:#0008ef;"/>
                <rect x="47.497" y="0" width="47.497" height="47.497" style="fill:#0008ef;fill-opacity:0.9;"/>
                <rect x="94.993" y="0" width="47.497" height="47.497" style="fill:#0008ef;fill-opacity:0.8;"/>
                <rect x="142.49" y="0" width="47.497" height="47.497" style="fill:#0008ef;fill-opacity:0.7;"/>
                <rect x="189.987" y="0" width="47.497" height="47.497" style="fill:#0008ef;fill-opacity:0.6;"/>
            </g>
        </g>
    </g>
</svg>
