<svg width="100%" height="100%" viewBox="0 0 481 108" version="1.1" xmlns="http://www.w3.org/2000/svg" xmlns:xlink="http://www.w3.org/1999/xlink" xml:space="preserve" xmlns:serif="http://www.serif.com/" style="fill-rule:evenodd;clip-rule:evenodd;stroke-linejoin:round;stroke-miterlimit:2;">
    <style>
        :root {
            --text-color: hsl(0, 0%, 0%);
        }
    </style>
    <path d="M262.805,98.011c-5.153,-0 -10.093,-0.829 -14.646,-2.342c3.087,-6.988 11.155,-12.84 14.646,-15.131c3.502,2.291 11.57,8.148 14.652,15.131c-4.554,1.513 -9.493,2.342 -14.652,2.342Zm186.428,-0.819c-12.053,-0 -21.243,-3.935 -27.566,-11.807c-6.326,-7.868 -9.487,-18.376 -9.487,-31.524c-0,-8.663 1.643,-16.284 4.929,-22.857c3.288,-6.574 7.897,-11.654 13.818,-15.239c5.928,-3.584 12.678,-5.377 20.248,-5.377c9.264,0 16.457,2.561 21.587,7.692c5.131,5.13 7.846,12.477 8.143,22.038c0,6.076 -0.349,10.709 -1.047,13.893l-51.394,0c0.202,9.861 2.492,17.802 6.873,23.832c4.385,6.024 10.609,9.036 18.679,9.036c3.979,0 8.141,-0.721 12.471,-2.164c4.335,-1.444 7.696,-3.162 10.084,-5.154l2.84,6.574c-2.886,2.988 -7.17,5.577 -12.849,7.77c-5.676,2.187 -11.453,3.287 -17.329,3.287Zm-305.233,-42.581c0,-8.268 1.62,-15.739 4.856,-22.412c3.236,-6.676 8.017,-11.978 14.343,-15.912c6.323,-3.934 13.917,-5.899 22.785,-5.899c4.279,0 7.965,0.396 11.052,1.191c3.091,0.797 6.774,1.896 11.057,3.288l-0.596,23.007l-9.711,0l-3.288,-15.237c-0.6,-2.789 -4.385,-4.185 -11.354,-4.185c-6.973,-0 -12.477,2.816 -16.508,8.445c-4.037,5.625 -6.053,13.617 -6.053,23.976c-0,11.756 2.268,20.694 6.797,26.821c4.535,6.122 10.434,9.185 17.705,9.185c4.186,0 8.143,-0.647 11.876,-1.941c3.739,-1.294 6.951,-2.839 9.638,-4.632l2.839,5.977c-2.69,2.788 -6.647,5.302 -11.876,7.547c-5.232,2.24 -10.534,3.362 -15.913,3.362c-8.165,-0 -15.064,-1.844 -20.693,-5.531c-5.629,-3.683 -9.86,-8.739 -12.7,-15.164c-2.836,-6.424 -4.256,-13.72 -4.256,-21.886Zm178.238,-30.48l-10.758,-2.691l0,-8.068l21.364,-2.686l0.452,0l3.138,2.686l-0,6.277l-0.15,3.584c3.585,-3.185 8.316,-6.076 14.19,-8.664c5.876,-2.588 11.505,-3.883 16.887,-3.883c6.271,0 11.127,1.192 14.562,3.585c3.441,2.388 5.853,6.052 7.249,10.982c1.392,4.93 2.09,11.579 2.09,19.945l0,41.831l10.461,1.047l0,7.472l-35.41,-0l-0,-7.322l9.265,-1.197l0,-41.979c0,-5.881 -0.401,-10.485 -1.197,-13.823c-0.795,-3.334 -2.291,-5.824 -4.483,-7.468c-2.193,-1.644 -5.378,-2.467 -9.563,-2.467c-3.584,-0 -7.42,0.898 -11.503,2.691c-4.084,1.792 -7.719,3.882 -10.904,6.275l0,56.621l10.158,1.347l0,7.322l-35.261,-0l0,-7.322l9.413,-1.347l0,-62.748Zm-100.676,39.066c12.854,2.02 25.084,6.703 35.774,13.701c-4.479,3.147 -11.686,9.064 -14.987,16.378c-12.067,-6.029 -20.331,-17.212 -20.787,-30.079Zm61.705,30.079c-3.301,-7.314 -10.507,-13.226 -14.986,-16.378c10.689,-6.998 22.919,-11.681 35.773,-13.701c-0.455,12.867 -8.72,24.05 -20.787,30.079Zm-20.462,-39.568c2.976,1.909 9.303,6.387 13.022,12.021c-4.534,2.165 -8.892,4.674 -13.022,7.514c-4.124,-2.84 -8.481,-5.349 -13.017,-7.514c3.72,-5.638 10.052,-10.112 13.017,-12.021Zm-35.242,-11.546c5.326,1.235 17.347,4.87 22.891,13.403c-2.346,2.194 -4.656,4.768 -6.447,7.626c-5.913,-2.36 -12.078,-4.156 -18.399,-5.349c-0.546,-6.307 0.949,-12.43 1.955,-15.68Zm72.445,15.68c-6.321,1.193 -12.486,2.989 -18.394,5.349c-1.797,-2.858 -4.106,-5.432 -6.452,-7.626c5.544,-8.537 17.57,-12.168 22.896,-13.403c1,3.25 2.496,9.373 1.95,15.68Zm-49.884,-11.764c3.725,-6.099 9.726,-10.926 12.687,-13.082c2.961,2.151 8.952,6.964 12.687,13.082c-1.905,1.583 -3.66,3.394 -5.136,5.465c-3.185,-2.398 -5.689,-3.817 -5.927,-3.952c-1,-0.559 -2.254,-0.559 -3.254,0c-0.238,0.135 -2.742,1.554 -5.927,3.952c-1.475,-2.071 -3.226,-3.882 -5.13,-5.465Zm214.347,0.014c0.299,-2.091 0.447,-4.232 0.447,-6.425c-0.097,-6.471 -1.467,-11.579 -4.106,-15.312c-2.64,-3.734 -6.796,-5.6 -12.477,-5.6c-5.778,-0 -10.382,2.09 -13.817,6.275c-3.437,4.181 -5.405,11.201 -5.903,21.062l35.856,0Zm-222.993,-25c3.306,1.298 9.963,4.278 15.168,8.919c-3.445,2.742 -8.212,7.101 -11.652,12.496c-4.289,-2.518 -8.763,-4.162 -12.3,-5.2c1.83,-6.988 6.461,-13.343 8.784,-16.215Zm42.674,-0c2.323,2.862 6.951,9.204 8.779,16.215c-3.542,1.033 -8.016,2.677 -12.308,5.196c-3.44,-5.387 -8.199,-9.744 -11.644,-12.487c5.191,-4.628 11.868,-7.621 15.173,-8.924Zm-21.341,-12.235c2.62,1.726 7.779,5.441 11.532,10.149c-3.45,1.862 -7.277,4.339 -10.574,7.453c-0.624,-0.186 -1.294,-0.186 -1.917,0c-3.297,-3.119 -7.124,-5.595 -10.573,-7.453c3.747,-4.693 8.915,-8.417 11.532,-10.149Z" style="fill:var(--text-color);"/>
    <path d="M0,21.383l0,64.484c-0,5.671 2.253,11.11 6.263,15.12c4.01,4.01 9.449,6.263 15.12,6.263l64.484,-0c5.671,0 11.11,-2.253 15.12,-6.263c4.01,-4.01 6.263,-9.449 6.263,-15.12l0,-64.484c0,-5.671 -2.253,-11.11 -6.263,-15.12c-4.01,-4.01 -9.449,-6.263 -15.12,-6.263l-64.484,0c-5.671,-0 -11.11,2.253 -15.12,6.263c-4.01,4.01 -6.263,9.449 -6.263,15.12Z" style="fill:#fff;"/>
    <clipPath id="_clip1">
        <path d="M0,21.383l0,64.484c-0,5.671 2.253,11.11 6.263,15.12c4.01,4.01 9.449,6.263 15.12,6.263l64.484,-0c5.671,0 11.11,-2.253 15.12,-6.263c4.01,-4.01 6.263,-9.449 6.263,-15.12l0,-64.484c0,-5.671 -2.253,-11.11 -6.263,-15.12c-4.01,-4.01 -9.449,-6.263 -15.12,-6.263l-64.484,0c-5.671,-0 -11.11,2.253 -15.12,6.263c-4.01,4.01 -6.263,9.449 -6.263,15.12Z"/>
    </clipPath>
    <g clip-path="url(#_clip1)">
        <g>
            <g>
                <rect x="0" y="35.75" width="35.75" height="35.75" style="fill:#0065ef;" shape-rendering="crispEdges"/>
                <rect x="35.75" y="35.75" width="35.75" height="35.75" style="fill:#0065ef;fill-opacity:0.9;" shape-rendering="crispEdges"/>
                <rect x="71.5" y="35.75" width="35.75" height="35.75" style="fill:#0065ef;fill-opacity:0.8;" shape-rendering="crispEdges"/>
            </g>
            <g>
                <rect x="0" y="71.5" width="35.75" height="35.75" style="fill:#00b6ef;" shape-rendering="crispEdges"/>
                <rect x="35.75" y="71.5" width="35.75" height="35.75" style="fill:#00b6ef;fill-opacity:0.9;" shape-rendering="crispEdges"/>
                <rect x="71.5" y="71.5" width="35.75" height="35.75" style="fill:#00b6ef;fill-opacity:0.8;" shape-rendering="crispEdges"/>
            </g>
            <g>
                <rect x="0" y="0" width="35.75" height="35.75" style="fill:#0008ef;" shape-rendering="crispEdges"/>
                <rect x="35.75" y="0" width="35.75" height="35.75" style="fill:#0008ef;fill-opacity:0.9;" shape-rendering="crispEdges"/>
                <rect x="71.5" y="0" width="35.75" height="35.75" style="fill:#0008ef;fill-opacity:0.8;" shape-rendering="crispEdges"/>
            </g>
        </g>
    </g>
</svg>
