<svg viewBox="0 0 100 27" fill="none" xmlns="http://www.w3.org/2000/svg">
<g clip-path="url(#clip0_3303_9085)">
<path d="M94.9461 23.5385V12.021C94.9461 11.2028 94.6303 10.5734 93.9986 10.1958C93.3669 9.8182 92.6088 9.62939 91.6612 9.62939C91.219 9.62939 90.7768 9.69233 90.3346 9.75526C89.8924 9.8182 89.5766 9.88114 89.2607 10.007V23.5385H84.207V8.05596C85.0914 7.74128 86.2285 7.42659 87.5551 7.23778C88.8817 6.98603 90.3346 6.9231 91.8507 6.9231C94.5039 6.9231 96.5254 7.36366 97.9784 8.18184C99.3681 9.00002 100.063 10.3217 100.063 12.021V23.6014H94.9461V23.5385Z" fill="#0097DB"/>
<path d="M50.0317 23.5384V7.11182C51.7374 7.11182 53.443 7.17475 55.0854 7.4265V23.6013H50.0317V23.5384Z" fill="#0097DB"/>
<path d="M55.3381 2.70627C55.3381 3.2727 55.0854 3.83913 54.5168 4.21676C53.9483 4.65731 53.3166 4.84613 52.4954 4.84613C51.7373 4.84613 51.0424 4.65731 50.537 4.21676C49.9685 3.7762 49.7158 3.2727 49.7158 2.70627C49.7158 2.13983 49.9685 1.5734 50.537 1.19578C51.1056 0.755217 51.7373 0.566406 52.4954 0.566406C53.2534 0.566406 53.9483 0.755217 54.5168 1.19578C55.0854 1.63634 55.3381 2.13983 55.3381 2.70627Z" fill="#0097DB"/>
<path d="M46.8729 10.1328C46.178 9.94402 45.42 9.81815 44.6619 9.75521C43.8407 9.75521 43.209 9.81815 42.7036 10.0699V23.6014H37.6499V8.05591C38.5975 7.67829 39.6714 7.3636 40.9348 7.17479C42.1982 6.98598 43.7143 6.86011 45.5463 6.86011C45.9253 6.86011 46.3675 6.86011 46.8097 6.86011C47.2519 6.86011 47.631 6.92304 47.8836 6.92304L46.8729 10.1328Z" fill="#0097DB"/>
<path d="M11.2445 15.1049C11.2445 14.2867 11.1813 13.5944 11.055 12.9021C10.9286 12.2098 10.6759 11.6434 10.3601 11.1399C10.0442 10.6364 9.66519 10.2587 9.15982 9.94406C8.65445 9.69231 8.08591 9.5035 7.32786 9.5035C6.38029 9.5035 5.62224 9.62937 5.0537 9.88112V20.5804C5.24321 20.7063 5.55906 20.7692 5.87492 20.8322C6.19078 20.8951 6.5698 20.8951 7.07517 20.8951C8.52811 20.8951 9.53885 20.3916 10.2337 19.3217C10.9286 18.3147 11.2445 16.8671 11.2445 15.1049ZM16.4245 14.8531C16.4245 17.6224 15.6033 19.8252 13.9608 21.3357C12.3184 22.9091 9.91788 23.6643 6.75932 23.6643C5.18004 23.6643 3.79027 23.5385 2.65319 23.3496C1.51611 23.0979 0.631712 22.8462 0 22.4685V0H5.0537V7.55245C5.49589 7.36364 6.00126 7.23776 6.63298 7.11189C7.26469 6.98601 7.95957 6.92308 8.84397 6.92308C9.98105 6.92308 10.9918 7.11189 11.9394 7.48951C12.8869 7.86713 13.7081 8.43357 14.3399 9.12587C15.0347 9.81818 15.5401 10.6364 15.9191 11.6434C16.235 12.5874 16.4245 13.6573 16.4245 14.8531Z" fill="#0097DB"/>
<path d="M29.6907 9.94402C29.438 9.81815 29.1853 9.75521 28.8695 9.69227C28.5536 9.62934 28.1746 9.5664 27.6692 9.5664C26.2163 9.5664 25.1424 10.0699 24.4475 11.0769C23.7526 12.0839 23.3736 13.5944 23.3736 15.5454C23.3736 19.2587 24.7633 21.1468 27.5429 21.1468C27.9219 21.1468 28.3641 21.0839 28.7431 21.0209C29.1222 20.958 29.438 20.8321 29.6907 20.7063V9.94402ZM34.8076 23.5384C34.8076 23.5384 26.848 23.6643 26.0899 23.6643C24.9529 23.6643 23.8789 23.4755 22.8682 23.0979C21.9206 22.7202 21.0362 22.2167 20.3414 21.5244C19.6465 20.8321 19.0779 20.014 18.6989 19.0699C18.3199 18.1258 18.1304 16.993 18.1304 15.7972C18.1304 14.4755 18.3199 13.2167 18.7621 12.1468C19.1411 11.0769 19.7728 10.1328 20.594 9.31465C21.4153 8.55941 22.426 7.93004 23.6894 7.48948C24.8897 7.04892 26.3426 6.86011 27.9851 6.86011C29.438 6.86011 30.7646 6.98598 31.9649 7.17479C33.1651 7.42654 34.1127 7.55242 34.8076 7.93004V23.5384Z" fill="#0097DB"/>
<path d="M69.9938 26.9999C76.5636 26.874 81.8068 21.4614 81.6173 14.9789C81.5541 12.7132 80.8593 10.6363 79.7222 8.87402C77.448 8.87402 75.1107 9.50339 74.2895 9.75514C75.8687 11.0139 76.8795 12.9649 76.9426 15.1048C77.0058 18.1258 75.1739 20.7062 72.5838 21.8391C72.3311 21.2097 72.2048 20.9579 71.9521 20.3286C69.3621 21.8391 65.635 23.4754 61.3394 23.6642C63.5503 25.8041 66.5826 27.0628 69.9938 26.9999Z" fill="#0097DB"/>
<path d="M69.4254 3.46163C62.8556 3.5875 57.6123 9.00009 57.8019 15.4826C57.865 17.7483 58.5599 19.8253 59.697 21.5875C61.9712 21.5875 64.3085 20.9581 65.1297 20.7064C63.5504 19.4476 62.5397 17.4966 62.4765 15.3567C62.4134 12.3358 64.2453 9.75533 66.8353 8.62246C67.088 9.25183 67.2144 9.50358 67.4671 10.133C70.0571 8.62246 73.7842 6.9861 78.0798 6.79729C75.8688 4.72037 72.7734 3.39869 69.4254 3.46163Z" fill="#0097DB"/>
</g>
<defs>
<clipPath id="clip0_3303_9085">
<rect width="100" height="27" fill="white"/>
</clipPath>
</defs>
</svg>
