<?xml version="1.0" encoding="UTF-8" standalone="no"?>
<!DOCTYPE svg PUBLIC "-//W3C//DTD SVG 1.1//EN" "http://www.w3.org/Graphics/SVG/1.1/DTD/svg11.dtd">
<svg width="100%" height="100%" viewBox="0 0 131 49" version="1.1" xmlns="http://www.w3.org/2000/svg" xmlns:xlink="http://www.w3.org/1999/xlink" xml:space="preserve" xmlns:serif="http://www.serif.com/" style="fill-rule:evenodd;clip-rule:evenodd;stroke-linejoin:round;stroke-miterlimit:2;">
    <g id="Symbols">
        <g id="Nav">
            <g id="Group-6">
                <g id="Group-18">
                    <path id="Paylike" d="M74.9,19.377c0,1.518 -0.517,2.685 -1.553,3.502c-1.036,0.817 -2.517,1.225 -4.445,1.225l-1.764,0l0,5.896l-1.743,0l0,-14.991l3.886,-0c3.746,-0 5.619,1.456 5.619,4.368Zm-7.762,3.23l1.569,-0c1.545,-0 2.663,-0.25 3.353,-0.749c0.69,-0.499 1.036,-1.298 1.036,-2.399c-0,-0.991 -0.325,-1.73 -0.974,-2.215c-0.65,-0.485 -1.662,-0.728 -3.036,-0.728l-1.948,0l0,6.091Zm17.555,7.393l-0.339,-1.6l-0.082,0c-0.56,0.704 -1.119,1.181 -1.676,1.431c-0.557,0.249 -1.253,0.374 -2.087,0.374c-1.114,0 -1.987,-0.287 -2.62,-0.861c-0.632,-0.574 -0.948,-1.391 -0.948,-2.451c-0,-2.269 1.815,-3.459 5.445,-3.568l1.907,-0.062l-0,-0.697c-0,-0.882 -0.19,-1.533 -0.569,-1.953c-0.38,-0.421 -0.986,-0.631 -1.82,-0.631c-0.937,-0 -1.996,0.287 -3.179,0.861l-0.523,-1.302c0.554,-0.301 1.161,-0.537 1.82,-0.708c0.66,-0.17 1.321,-0.256 1.984,-0.256c1.34,0 2.333,0.298 2.979,0.892c0.646,0.595 0.969,1.549 0.969,2.861l0,7.67l-1.261,0Zm-3.845,-1.2c1.059,0 1.891,-0.29 2.496,-0.871c0.605,-0.581 0.908,-1.395 0.908,-2.441l-0,-1.015l-1.702,0.072c-1.354,0.048 -2.33,0.258 -2.928,0.631c-0.598,0.372 -0.897,0.951 -0.897,1.738c0,0.615 0.186,1.083 0.559,1.404c0.372,0.322 0.894,0.482 1.564,0.482Zm6.829,-10.038l1.825,-0l2.461,6.408c0.54,1.463 0.875,2.519 1.005,3.169l0.082,-0c0.089,-0.349 0.275,-0.945 0.559,-1.789c0.283,-0.845 1.211,-3.441 2.784,-7.788l1.825,-0l-4.83,12.797c-0.478,1.264 -1.037,2.161 -1.676,2.691c-0.639,0.53 -1.424,0.795 -2.354,0.795c-0.519,-0 -1.032,-0.058 -1.538,-0.174l0,-1.364c0.376,0.082 0.797,0.123 1.262,0.123c1.168,-0 2.002,-0.656 2.501,-1.969l0.626,-1.599l-4.532,-11.3Zm14.068,11.238l-1.702,0l-0,-15.955l1.702,-0l0,15.955Zm5.312,0l-1.703,0l0,-11.238l1.703,-0l-0,11.238Zm-1.846,-14.284c-0,-0.389 0.096,-0.675 0.287,-0.856c0.191,-0.181 0.431,-0.272 0.718,-0.272c0.273,0 0.509,0.093 0.707,0.277c0.199,0.185 0.298,0.468 0.298,0.851c-0,0.383 -0.099,0.669 -0.298,0.857c-0.198,0.187 -0.434,0.281 -0.707,0.281c-0.287,0 -0.527,-0.094 -0.718,-0.281c-0.191,-0.188 -0.287,-0.474 -0.287,-0.857Zm7.137,8.532c0.294,-0.417 0.741,-0.964 1.343,-1.641l3.63,-3.845l2.02,-0l-4.553,4.788l4.871,6.45l-2.061,0l-3.969,-5.312l-1.281,1.108l-0,4.204l-1.682,0l0,-15.955l1.682,-0l-0,8.459c-0,0.376 -0.028,0.957 -0.082,1.744l0.082,-0Zm14.089,5.957c-1.662,0 -2.972,-0.506 -3.933,-1.517c-0.96,-1.012 -1.441,-2.417 -1.441,-4.215c0,-1.811 0.447,-3.25 1.339,-4.317c0.892,-1.066 2.09,-1.599 3.594,-1.599c1.408,-0 2.522,0.463 3.342,1.389c0.821,0.926 1.231,2.148 1.231,3.666l-0,1.076l-7.742,0c0.034,1.32 0.368,2.321 1,3.005c0.632,0.683 1.523,1.025 2.671,1.025c1.21,0 2.406,-0.253 3.589,-0.759l-0,1.518c-0.602,0.26 -1.171,0.446 -1.707,0.559c-0.537,0.113 -1.185,0.169 -1.943,0.169Zm-0.462,-10.223c-0.902,-0 -1.622,0.294 -2.158,0.882c-0.537,0.588 -0.853,1.401 -0.949,2.44l5.876,0c-0,-1.073 -0.24,-1.895 -0.718,-2.466c-0.479,-0.571 -1.162,-0.856 -2.051,-0.856Z" style="fill:#001b22;"/>
                    <path id="Path-2" d="M47.479,27.464l-21.159,21.226l-25.532,-25.542l12.204,-20.264c1.709,-2.839 5.28,-3.585 7.98,-1.663l24.496,17.444l2.011,8.799Z" style="fill:#418a4c;"/>
                    <path id="Path-3" d="M3.933,23.109l-3.067,-0l22.464,-20.143l11.794,8.147l-31.191,11.996Z" style="fill:#010000;fill-opacity:0.2;"/>
                    <path id="Combined-Shape" d="M0.827,23.148l25.513,25.542l23.409,-23.419c1.172,-1.173 1.425,-3.281 0.571,-4.699l-10.652,-17.688c-1.71,-2.839 -5.278,-3.59 -7.991,-1.662l-30.85,21.926Z" style="fill:url(#_Linear1);"/>
                </g>
            </g>
        </g>
    </g>
    <defs>
        <linearGradient id="_Linear1" x1="0" y1="0" x2="1" y2="0" gradientUnits="userSpaceOnUse" gradientTransform="matrix(23.5272,-64.2138,64.2138,23.5272,12.1588,53.1929)"><stop offset="0" style="stop-color:#1c6839;stop-opacity:1"/><stop offset="0.72" style="stop-color:#5fa55c;stop-opacity:1"/><stop offset="1" style="stop-color:#6caf69;stop-opacity:1"/></linearGradient>
    </defs>
</svg>
