<?xml version="1.0" encoding="UTF-8" standalone="no"?>
<!DOCTYPE svg PUBLIC "-//W3C//DTD SVG 1.1//EN" "http://www.w3.org/Graphics/SVG/1.1/DTD/svg11.dtd">
<svg width="100%" height="100%" viewBox="0 0 270 113" version="1.1" xmlns="http://www.w3.org/2000/svg" xmlns:xlink="http://www.w3.org/1999/xlink" xml:space="preserve" xmlns:serif="http://www.serif.com/" style="fill-rule:evenodd;clip-rule:evenodd;stroke-linejoin:round;stroke-miterlimit:2;">
    <path d="M270,58.05c0,-19.2 -9.3,-34.35 -27.075,-34.35c-17.85,0 -28.65,15.15 -28.65,34.2c-0,22.575 12.75,33.975 31.05,33.975c8.925,0 15.675,-2.025 20.775,-4.875l-0,-15c-5.1,2.55 -10.95,4.125 -18.375,4.125c-7.275,0 -13.725,-2.55 -14.55,-11.4l36.675,0c-0,-0.975 0.15,-4.875 0.15,-6.675Zm-37.05,-7.125c0,-8.475 5.175,-12 9.9,-12c4.575,0 9.45,3.525 9.45,12l-19.35,0Zm-47.625,-27.225c-7.35,0 -12.075,3.45 -14.7,5.85l-0.975,-4.65l-16.5,-0l-0,87.45l18.75,-3.975l0.075,-21.225c2.7,1.95 6.675,4.725 13.275,4.725c13.425,-0 25.65,-10.8 25.65,-34.575c-0.075,-21.75 -12.45,-33.6 -25.575,-33.6Zm-4.5,51.675c-4.425,0 -7.05,-1.575 -8.85,-3.525l-0.075,-27.825c1.95,-2.175 4.65,-3.675 8.925,-3.675c6.825,0 11.55,7.65 11.55,17.475c-0,10.05 -4.65,17.55 -11.55,17.55Zm-53.475,-56.1l18.825,-4.05l-0,-15.225l-18.825,3.975l-0,15.3Zm-0,5.7l18.825,-0l-0,65.625l-18.825,0l-0,-65.625Zm-20.175,5.55l-1.2,-5.55l-16.2,0l-0,65.625l18.75,0l-0,-44.475c4.425,-5.775 11.925,-4.725 14.25,-3.9l-0,-17.25c-2.4,-0.9 -11.175,-2.55 -15.6,5.55Zm-37.5,-21.825l-18.3,3.9l-0.075,60.075c-0,11.1 8.325,19.275 19.425,19.275c6.15,-0 10.65,-1.125 13.125,-2.475l-0,-15.225c-2.4,0.975 -14.25,4.425 -14.25,-6.675l-0,-26.625l14.25,-0l-0,-15.975l-14.25,-0l0.075,-16.275Zm-50.7,35.325c-0,-2.925 2.4,-4.05 6.375,-4.05c5.7,-0 12.9,1.725 18.6,4.8l-0,-17.625c-6.225,-2.475 -12.375,-3.45 -18.6,-3.45c-15.225,-0 -25.35,7.95 -25.35,21.225c-0,20.7 28.5,17.4 28.5,26.325c-0,3.45 -3,4.575 -7.2,4.575c-6.225,-0 -14.175,-2.55 -20.475,-6l-0,17.85c6.975,3 14.025,4.275 20.475,4.275c15.6,-0 26.325,-7.725 26.325,-21.15c-0.075,-22.35 -28.65,-18.375 -28.65,-26.775Z" style="fill:#635bff;"/>
</svg>
