<?xml version="1.0" encoding="UTF-8" standalone="no"?>
<!DOCTYPE svg PUBLIC "-//W3C//DTD SVG 1.1//EN" "http://www.w3.org/Graphics/SVG/1.1/DTD/svg11.dtd">
<svg width="100%" height="100%" viewBox="0 0 1760 1937" version="1.1" xmlns="http://www.w3.org/2000/svg" xmlns:xlink="http://www.w3.org/1999/xlink" xml:space="preserve" xmlns:serif="http://www.serif.com/" style="fill-rule:evenodd;clip-rule:evenodd;stroke-linejoin:round;stroke-miterlimit:2;">
    <path d="M1556.34,1932.21l-1191.03,-0c-47.325,-0 -85.691,-38.366 -85.691,-85.691l0,-993.409c0,-376.222 304.988,-681.206 681.21,-681.206c376.219,-0 681.206,304.984 681.206,681.206l0,993.409c0,47.325 -38.366,85.691 -85.691,85.691" style="fill:#f8d00b;fill-rule:nonzero;"/>
    <path d="M404.613,1442.98l0,-589.868c0,-306.691 249.513,-556.207 556.207,-556.207c306.693,0 556.209,249.516 556.209,556.207l0,589.868l-1112.42,0Z" style="fill:#f0be1a;fill-rule:nonzero;"/>
    <path d="M960.821,176.59c-180.707,0 -350.594,70.372 -478.372,198.147c-127.778,127.778 -198.147,297.666 -198.147,478.372l-0,993.409c-0,44.666 36.337,81.003 81.003,81.003l1191.03,0c44.666,0 81.003,-36.337 81.003,-81.003l0,-993.409c0,-180.706 -70.368,-350.594 -198.147,-478.372c-127.778,-127.775 -297.668,-198.147 -478.371,-198.147m595.515,1760.31l-1191.03,0c-49.838,0 -90.378,-40.54 -90.378,-90.378l-0,-993.409c-0,-183.209 71.344,-355.453 200.894,-485c129.546,-129.547 301.79,-200.894 485,-200.894c183.209,0 355.453,71.347 485,200.894c129.55,129.547 200.893,301.791 200.893,485l0,993.409c0,49.838 -40.54,90.378 -90.378,90.378" style="fill:#3f100e;fill-rule:nonzero;"/>
    <path d="M409.301,1438.29l1103.04,-0l-0,-585.181c-0,-304.107 -247.413,-551.519 -551.522,-551.519c-304.11,-0 -551.519,247.412 -551.519,551.519l-0,585.181Zm1107.73,9.375l-1112.42,-0c-2.59,-0 -4.687,-2.1 -4.687,-4.688l-0,-589.868c-0,-309.278 251.616,-560.894 560.894,-560.894c309.278,-0 560.897,251.616 560.897,560.894l-0,589.868c-0,2.588 -2.1,4.688 -4.688,4.688" style="fill:#3f100e;fill-rule:nonzero;"/>
    <path d="M1280.41,1136.39l196.053,-110.784c-0,-0 26.347,37.021 92.769,29.596l50.809,71.404c10.044,14.118 29.634,17.418 43.753,7.375c14.119,-10.047 17.419,-29.638 7.372,-43.757l-58.334,-81.981l77.1,24.597c24.587,7.847 50.425,-7.906 54.715,-33.356c4.113,-24.422 -13.484,-47.157 -38.153,-49.3l-87.256,-7.582l115.141,-62.021c20.415,-10.997 26.571,-37.4 13.128,-56.294c-12.344,-17.35 -36.416,-21.406 -53.763,-9.06l-86.712,61.7l65.293,-122.8c10.238,-19.256 2.432,-43.168 -17.2,-52.668c-18.437,-8.925 -40.634,-1.828 -50.478,16.134l-56.375,102.884c14.8,-34.94 9.522,-72.24 2.347,-97.659c-5.097,-18.053 -23.122,-29.187 -41.609,-26.016c-19.116,3.272 -32.413,20.819 -30.397,40.11l8.291,79.428c-35.297,43.706 -21.563,100.328 -21.563,100.328l-253.444,109.359l68.513,110.363Z" style="fill:#fafbfc;fill-rule:nonzero;"/>
    <path d="M1211.9,1030.72c-1.816,-0 -3.544,-1.059 -4.306,-2.831c-1.025,-2.378 0.071,-5.135 2.443,-6.163l249.95,-107.85c-2.462,-13.734 -7.934,-60.412 22.053,-98.944l-8.093,-77.531c-2.26,-21.675 12.79,-41.537 34.272,-45.215c20.981,-3.597 41.168,9.021 46.909,29.362c7.175,25.422 12.603,62.934 -1.634,98.563c6.521,11.728 32.606,67.609 -28.004,120.568c-1.956,1.707 -4.915,1.5 -6.618,-0.447c-1.7,-1.946 -1.5,-4.909 0.447,-6.612c25.987,-22.709 38.071,-48.247 35.909,-75.9c-1.606,-20.556 -10.766,-34.5 -10.856,-34.638c-0.878,-1.312 -1.032,-2.975 -0.416,-4.428c14.303,-33.772 9.063,-70.062 2.15,-94.559c-4.437,-15.713 -20.066,-25.463 -36.303,-22.669c-16.628,2.847 -28.281,18.225 -26.528,35.003l8.29,79.432c0.129,1.231 -0.237,2.465 -1.015,3.431c-33.369,41.315 -20.785,95.737 -20.653,96.281c0.531,2.216 -0.607,4.5 -2.7,5.403l-253.441,109.36c-0.609,0.259 -1.237,0.384 -1.856,0.384" style="fill:#3f100e;fill-rule:nonzero;"/>
    <path d="M1645.68,1144.49c-2.016,0 -4.044,-0.169 -6.069,-0.509c-9.497,-1.603 -17.806,-6.806 -23.391,-14.653l-49.225,-69.178c-55.462,5.315 -83.296,-19.344 -91.634,-28.535l-192.644,108.86c-2.259,1.268 -5.115,0.478 -6.387,-1.775c-1.278,-2.254 -0.481,-5.113 1.772,-6.385l196.053,-110.787c2.094,-1.178 4.737,-0.591 6.125,1.362c1.019,1.406 25.856,34.66 88.428,27.656c1.712,-0.193 3.356,0.56 4.341,1.944l50.812,71.4c4.131,5.813 10.278,9.66 17.309,10.847c7.032,1.175 14.094,-0.441 19.904,-4.572c5.809,-4.134 9.662,-10.281 10.843,-17.312c1.185,-7.028 -0.437,-14.097 -4.572,-19.907l-58.334,-81.984c-1.169,-1.641 -1.156,-3.85 0.031,-5.478c1.191,-1.631 3.297,-2.316 5.213,-1.703l77.1,24.597c10.422,3.328 21.759,1.968 31.103,-3.728c9.344,-5.694 15.744,-15.15 17.562,-25.941c1.772,-10.506 -0.843,-20.931 -7.365,-29.356c-6.519,-8.425 -15.953,-13.575 -26.569,-14.497l-87.256,-7.581c-2.063,-0.179 -3.766,-1.691 -4.185,-3.719c-0.418,-2.031 0.544,-4.094 2.369,-5.078l115.141,-62.022c8.547,-4.603 14.715,-12.666 16.919,-22.122c2.206,-9.456 0.24,-19.416 -5.388,-27.325c-10.828,-15.216 -32.012,-18.781 -47.228,-7.959l-86.709,61.703c-1.769,1.259 -4.179,1.14 -5.81,-0.3c-1.637,-1.435 -2.072,-3.8 -1.047,-5.722l65.294,-122.8c4.35,-8.178 5.163,-17.535 2.284,-26.338c-2.875,-8.806 -9.05,-15.878 -17.387,-19.912c-16.203,-7.844 -35.675,-1.622 -44.325,14.169l-56.375,102.884c-1.244,2.272 -4.1,3.1 -6.366,1.856c-2.268,-1.244 -3.103,-4.09 -1.856,-6.362l56.375,-102.882c11.056,-20.171 35.938,-28.125 56.631,-18.103c10.65,5.153 18.538,14.188 22.213,25.438c3.675,11.25 2.64,23.2 -2.916,33.65l-55.975,105.269l70.535,-50.188c19.428,-13.822 46.471,-9.272 60.303,10.163c7.184,10.096 9.69,22.815 6.878,34.887c-2.819,12.075 -10.691,22.372 -21.606,28.25l-101.329,54.581l71.629,6.225c13.059,1.132 25.15,7.728 33.171,18.097c8.022,10.366 11.375,23.725 9.197,36.65c-2.272,13.475 -10.265,25.278 -21.928,32.391c-11.669,7.115 -25.815,8.806 -38.834,4.656l-63.703,-20.325l50.184,70.525c5.584,7.847 7.778,17.4 6.175,26.9c-1.597,9.5 -6.8,17.806 -14.653,23.391c-6.172,4.393 -13.4,6.687 -20.828,6.687" style="fill:#3f100e;fill-rule:nonzero;"/>
    <path d="M688.082,976.862l-425.791,-185.544l-27.781,83.359l477.203,295.675l-23.631,-193.49Z" style="fill:#fafbfc;fill-rule:nonzero;"/>
    <path d="M240.128,872.646l465.747,288.575l-22.122,-181.131l-418.634,-182.425l-24.991,74.981Zm471.584,302.394c-0.856,-0 -1.712,-0.238 -2.468,-0.704l-477.203,-295.675c-1.847,-1.14 -2.663,-3.406 -1.979,-5.465l27.782,-83.36c0.415,-1.246 1.337,-2.262 2.54,-2.8c1.203,-0.534 2.575,-0.54 3.778,-0.012l425.791,185.541c1.522,0.662 2.581,2.081 2.781,3.728l23.632,193.49c0.218,1.788 -0.61,3.547 -2.129,4.516c-0.768,0.494 -1.65,0.741 -2.525,0.741" style="fill:#3f100e;fill-rule:nonzero;"/>
    <path d="M660.077,502.655l-559.543,578.181c-22.678,23.435 -60.535,22.494 -82.022,-2.031c-20.519,-23.422 -17.881,-59.106 5.853,-79.262l614.166,-521.485l21.546,24.597Z" style="fill:#f37027;fill-rule:nonzero;"/>
    <path d="M675.761,520.56l-53.263,-60.8l77.334,-67.747l53.263,60.8l-77.334,67.747Z" style="fill:#f47a53;"/>
    <path d="M638.047,484.621l-610.65,518.497c-10.513,8.928 -16.863,21.418 -17.878,35.178c-1.016,13.756 3.431,27.044 12.518,37.419c9.519,10.865 22.716,17.046 37.157,17.406c14.453,0.375 27.928,-5.166 37.968,-15.544l556.544,-575.081l-15.659,-17.875Zm-577.603,617.89c-0.494,0 -0.988,-0.006 -1.485,-0.018c-16.84,-0.419 -32.868,-7.925 -43.972,-20.6c-10.759,-12.278 -16.021,-28.007 -14.818,-44.288c1.203,-16.281 8.715,-31.069 21.162,-41.634l614.166,-521.485c1.95,-1.656 4.869,-1.443 6.559,0.485l21.547,24.597c1.606,1.834 1.538,4.593 -0.156,6.347l-559.544,578.181c-11.372,11.753 -27.137,18.415 -43.459,18.415" style="fill:#3f100e;fill-rule:nonzero;"/>
    <path d="M629.113,460.196l47.087,53.75l70.282,-61.569l-47.091,-53.75l-70.278,61.569Zm46.653,65.053c-0.103,0 -0.206,-0.003 -0.309,-0.012c-1.241,-0.078 -2.397,-0.653 -3.219,-1.588l-53.266,-60.8c-1.706,-1.947 -1.509,-4.909 0.438,-6.615l77.331,-67.747c0.931,-0.819 2.162,-1.256 3.397,-1.15c1.24,0.078 2.397,0.653 3.215,1.587l53.269,60.8c1.706,1.947 1.51,4.91 -0.437,6.616l-77.332,67.747c-0.856,0.753 -1.956,1.162 -3.087,1.162" style="fill:#3f100e;fill-rule:nonzero;"/>
    <path d="M362.167,802.502c-17.297,5.129 -35.791,-2.787 -44.022,-18.837l-40.094,-78.169c-11.819,-23.05 -1.506,-51.287 22.387,-61.294c23.954,-10.031 51.366,2.516 59.432,27.2l27.281,83.507c6.556,20.068 -4.741,41.593 -24.984,47.593" style="fill:#fafbfc;fill-rule:nonzero;"/>
    <path d="M253.651,823.95l-42.522,-58.362c-16.153,-22.166 -8.16,-53.56 16.625,-65.303c21.353,-10.116 46.881,-1.454 57.665,19.571l32.953,64.254c8.16,15.909 4.163,35.353 -9.609,46.756c-16.931,14.012 -42.169,10.847 -55.112,-6.916" style="fill:#fafbfc;fill-rule:nonzero;"/>
    <path d="M204.612,867.551l-51.388,-52.675c-15.793,-16.191 -14.093,-42.488 3.65,-56.51c16.969,-13.409 41.685,-10.021 54.425,7.457l43.335,59.478c11.972,16.428 6.284,39.675 -11.919,48.722c-12.759,6.343 -28.153,3.728 -38.103,-6.472" style="fill:#fafbfc;fill-rule:nonzero;"/>
    <path d="M187.165,905.977c17.547,-10.953 20.481,-35.316 6.037,-50.122l-28.1,-28.803c-15.231,-15.612 -40.3,-15.725 -55.665,-0.244l-0.003,0c-18.653,18.794 -13.594,50.31 10.009,62.316l35.863,18.247c10.131,5.153 22.218,4.625 31.859,-1.394" style="fill:#fafbfc;fill-rule:nonzero;"/>
    <path d="M317.624,645.4c-5.197,-0 -10.397,1.04 -15.375,3.125c-10.34,4.331 -18.15,12.512 -21.993,23.04c-3.844,10.528 -3.147,21.816 1.965,31.791l40.091,78.172c7.2,14.034 23.39,20.956 38.522,16.481c8.565,-2.541 15.572,-8.294 19.722,-16.206c4.153,-7.91 4.912,-16.944 2.137,-25.438l-27.281,-83.506c-3.488,-10.681 -11.035,-19.138 -21.25,-23.813c-5.31,-2.428 -10.919,-3.646 -16.538,-3.646m33.897,163.34c-15.494,0 -30.184,-8.575 -37.547,-22.934l-40.093,-78.172c-6.229,-12.144 -7.113,-26.463 -2.432,-39.284c4.682,-12.822 14.588,-23.2 27.175,-28.472c12.619,-5.285 26.997,-5.05 39.438,0.643c12.44,5.694 22.012,16.419 26.262,29.425l27.282,83.507c3.565,10.922 2.59,22.537 -2.75,32.706c-5.338,10.172 -14.344,17.572 -25.357,20.837c-3.972,1.179 -8.003,1.744 -11.978,1.744" style="fill:#3f100e;fill-rule:nonzero;"/>
    <path d="M257.439,821.19c5.491,7.534 13.607,12.322 22.857,13.481c9.24,1.153 18.296,-1.472 25.478,-7.415c12.175,-10.082 15.64,-26.944 8.428,-41.007l-32.953,-64.253c-9.688,-18.887 -32.307,-26.559 -51.488,-17.475c-10.547,4.997 -18.25,14.353 -21.131,25.663c-2.878,11.315 -0.588,23.212 6.287,32.643l42.522,58.363Zm27.15,23.128c-1.809,0 -3.631,-0.112 -5.462,-0.344c-11.841,-1.487 -22.235,-7.615 -29.266,-17.262l-42.522,-58.363c-8.525,-11.697 -11.362,-26.45 -7.793,-40.475c3.571,-14.028 13.121,-25.628 26.203,-31.825c23.784,-11.268 51.828,-1.75 63.84,21.669l32.953,64.253c9.238,18.006 4.797,39.6 -10.79,52.503c-7.775,6.438 -17.263,9.844 -27.163,9.844" style="fill:#3f100e;fill-rule:nonzero;"/>
    <path d="M180.408,754.837c-7.468,0 -14.656,2.488 -20.628,7.206c-7.418,5.863 -12.022,14.635 -12.631,24.069c-0.606,9.431 2.828,18.722 9.431,25.491l51.388,52.675c8.559,8.775 21.684,11.006 32.662,5.547c7.435,-3.697 12.832,-10.441 14.807,-18.51c1.975,-8.065 0.3,-16.544 -4.591,-23.253l-43.338,-59.478c-5.403,-7.416 -13.381,-12.184 -22.471,-13.428c-1.55,-0.213 -3.094,-0.319 -4.629,-0.319m47.666,127.328c-9.866,0 -19.569,-3.909 -26.819,-11.34l-51.387,-52.679c-8.453,-8.662 -12.853,-20.559 -12.072,-32.64c0.778,-12.078 6.675,-23.313 16.172,-30.816c9.215,-7.284 20.703,-10.415 32.34,-8.825c11.638,1.597 21.86,7.703 28.779,17.197l43.337,59.478c6.519,8.947 8.75,20.247 6.119,31c-2.631,10.756 -9.828,19.753 -19.744,24.681c-5.337,2.654 -11.056,3.944 -16.725,3.944" style="fill:#3f100e;fill-rule:nonzero;"/>
    <path d="M137.145,819.957c-9.225,0 -17.878,3.603 -24.381,10.153c-7.825,7.881 -11.303,18.691 -9.541,29.66c1.759,10.962 8.447,20.14 18.344,25.175l35.865,18.25c8.616,4.384 19.054,3.928 27.25,-1.194c7.154,-4.466 11.835,-11.828 12.844,-20.2c1.01,-8.372 -1.79,-16.638 -7.681,-22.672l-28.097,-28.806c-6.484,-6.644 -15.166,-10.325 -24.45,-10.366l-0.153,0Zm32.834,95.597c-5.762,-0 -11.537,-1.325 -16.8,-4.003l-35.862,-18.25c-12.6,-6.41 -21.113,-18.091 -23.353,-32.047c-2.241,-13.956 2.184,-27.716 12.143,-37.747c8.325,-8.387 19.513,-12.881 31.232,-12.925c11.815,0.053 22.868,4.738 31.118,13.197l28.1,28.803c7.879,8.075 11.625,19.134 10.275,30.338c-1.346,11.206 -7.612,21.059 -17.184,27.034l-2.481,-3.978l2.481,3.978c-5.959,3.719 -12.806,5.6 -19.669,5.6" style="fill:#3f100e;fill-rule:nonzero;"/>
    <path d="M406.237,855.911c3.337,30.179 -20.6,56.422 -50.956,55.863l-72.594,-1.334c-18.838,-0.344 -34.31,-14.988 -35.691,-33.779c-1.181,-16.128 8.397,-31.112 23.538,-36.8l67.965,-25.537c30.741,-11.55 64.128,8.95 67.738,41.587" style="fill:#fafbfc;fill-rule:nonzero;"/>
    <path d="M356.263,815.764c-5.419,-0 -10.866,0.975 -16.116,2.947l-67.962,25.537c-13.103,4.922 -21.538,18.11 -20.513,32.069c1.21,16.478 14.581,29.134 31.1,29.438l72.594,1.334c13.153,0.216 25.722,-5.181 34.566,-14.881c8.843,-9.694 13.087,-22.735 11.646,-35.782c-1.562,-14.106 -9.39,-26.459 -21.487,-33.884c-7.316,-4.494 -15.538,-6.778 -23.828,-6.778m-0.06,100.709c-0.334,0 -0.671,-0.003 -1.009,-0.012l-72.591,-1.335c-21.393,-0.39 -38.712,-16.781 -40.281,-38.121c-1.328,-18.079 9.597,-35.157 26.566,-41.532l67.962,-25.537c16.019,-6.019 33.563,-4.338 48.147,4.619c14.578,8.95 24.019,23.837 25.897,40.84c1.741,15.725 -3.375,31.444 -14.034,43.131c-10.435,11.441 -25.203,17.944 -40.657,17.947" style="fill:#3f100e;fill-rule:nonzero;"/>
    <path d="M706.122,432.167l7.547,8.613c30.366,34.662 83.082,38.143 117.744,7.778l41.344,-36.222c69.325,-60.731 76.29,-166.166 15.556,-235.491l-7.547,-8.612l-166.865,146.187c-34.663,30.369 -38.144,83.085 -7.779,117.747" style="fill:#fafbfc;fill-rule:nonzero;"/>
    <path d="M880.331,174.847l-163.344,143.1c-15.822,13.863 -25.297,33.057 -26.685,54.044c-1.384,20.991 5.485,41.266 19.347,57.088l7.544,8.612c28.616,32.663 78.466,35.953 111.131,7.341l41.344,-36.222c32.588,-28.547 52.106,-68.078 54.963,-111.306c2.853,-43.228 -11.294,-84.982 -39.844,-117.569l-4.456,-5.088Zm-103.844,299.038c-24.535,-0 -48.947,-10.156 -66.344,-30.016l-7.547,-8.612c-15.509,-17.706 -23.2,-40.394 -21.647,-63.881c1.55,-23.491 12.157,-44.969 29.863,-60.482l166.865,-146.187c0.935,-0.819 2.15,-1.231 3.4,-1.15c1.241,0.081 2.397,0.653 3.216,1.587l7.547,8.613c30.197,34.472 45.166,78.637 42.144,124.365c-3.019,45.729 -23.666,87.541 -58.138,117.741l-41.344,36.222c-16.69,14.622 -37.396,21.797 -58.015,21.8" style="fill:#3f100e;fill-rule:nonzero;"/>
    <path d="M731.774,298.763c0,-0 15.038,32.75 53.703,27.125c38.669,-5.625 65.381,-15.857 72.413,10c7.031,25.856 1.281,62.059 26.653,62.94c-0,0 95.028,-111.956 -3.775,-230.597l-148.994,130.532Z" style="fill:#3f100e;fill-rule:nonzero;"/>
    <path d="M1201.06,725.307l0,-74.616l-469.344,0l0,74.616c0,24.306 -19.703,44.012 -44.009,44.012c-24.309,0 -44.012,19.703 -44.012,44.01l-0,535.375c-0,52.062 42.206,94.272 94.271,94.272l456.844,-0c52.066,-0 94.272,-42.21 94.272,-94.272l0,-535.375c0,-24.307 -19.706,-44.01 -44.012,-44.01c-24.307,0 -44.01,-19.706 -44.01,-44.012" style="fill:#fafbfc;fill-rule:nonzero;"/>
    <path d="M736.405,655.379l-0,69.928c-0,26.853 -21.847,48.7 -48.697,48.7c-21.684,0 -39.325,17.641 -39.325,39.322l0,535.375c0,49.397 40.188,89.584 89.584,89.584l456.844,0c49.397,0 89.585,-40.187 89.585,-89.584l-0,-535.375c-0,-21.681 -17.644,-39.322 -39.325,-39.322c-26.854,0 -48.697,-21.847 -48.697,-48.7l-0,-69.928l-459.969,-0Zm458.406,792.284l-456.844,0c-54.565,0 -98.959,-44.393 -98.959,-98.959l0,-535.375c0,-26.85 21.847,-48.697 48.7,-48.697c21.681,0 39.322,-17.641 39.322,-39.325l-0,-74.616c-0,-2.59 2.097,-4.687 4.687,-4.687l469.344,-0c2.588,-0 4.688,2.097 4.688,4.687l-0,74.616c-0,21.684 17.637,39.325 39.322,39.325c26.853,0 48.7,21.847 48.7,48.697l-0,535.375c-0,54.566 -44.394,98.959 -98.96,98.959" style="fill:#3f100e;fill-rule:nonzero;"/>
    <path d="M683.768,1205.15c-2.59,0 -4.687,-2.1 -4.687,-4.687l-0,-102.644c-0,-2.588 2.097,-4.688 4.687,-4.688c2.591,0 4.688,2.1 4.688,4.688l-0,102.644c-0,2.587 -2.097,4.687 -4.688,4.687" style="fill:#3f100e;fill-rule:nonzero;"/>
    <path d="M737.966,1407.59c-32.469,0 -58.884,-26.415 -58.884,-58.887l-0,-101.838c-0,-2.587 2.096,-4.687 4.687,-4.687c2.588,-0 4.688,2.1 4.688,4.687l-0,101.838c-0,27.303 22.209,49.512 49.509,49.512c2.591,0 4.687,2.1 4.687,4.688c0,2.587 -2.096,4.687 -4.687,4.687" style="fill:#3f100e;fill-rule:nonzero;"/>
    <path d="M1249.01,1353.39c-2.587,-0 -4.687,-2.1 -4.687,-4.688l-0,-521.215c-0,-7.231 -5.363,-13.3 -12.75,-14.431c-8.741,-1.338 -17.216,-3.982 -25.181,-7.854c-2.329,-1.131 -3.297,-3.937 -2.166,-6.265c1.128,-2.325 3.937,-3.294 6.262,-2.166c7.122,3.46 14.694,5.822 22.507,7.016c11.997,1.84 20.703,11.806 20.703,23.7l-0,521.215c-0,2.588 -2.1,4.688 -4.688,4.688" style="fill:#3f100e;fill-rule:nonzero;"/>
    <path d="M1182.95,786.612c-1.269,0 -2.538,-0.516 -3.463,-1.528c-14.959,-16.394 -23.193,-37.622 -23.193,-59.775c-0,-2.591 2.1,-4.688 4.687,-4.688c2.588,0 4.688,2.097 4.688,4.688c-0,19.809 7.365,38.794 20.743,53.456c1.744,1.913 1.61,4.878 -0.303,6.622c-0.897,0.822 -2.031,1.225 -3.159,1.225" style="fill:#3f100e;fill-rule:nonzero;"/>
    <path d="M1207.17,680.219l-481.56,-0c-11.412,-0 -20.665,-9.253 -20.665,-20.669l-0,-76.775c-0,-11.413 9.253,-20.666 20.665,-20.666l481.56,0c11.412,0 20.669,9.253 20.669,20.666l-0,76.775c-0,11.416 -9.257,20.669 -20.669,20.669" style="fill:#fafbfc;fill-rule:nonzero;"/>
    <path d="M725.609,566.796c-8.812,-0 -15.981,7.168 -15.981,15.981l0,76.775c0,8.809 7.169,15.978 15.981,15.978l481.56,-0c8.812,-0 15.981,-7.169 15.981,-15.978l-0,-76.775c-0,-8.813 -7.169,-15.981 -15.981,-15.981l-481.56,-0Zm481.56,118.109l-481.56,-0c-13.981,-0 -25.356,-11.372 -25.356,-25.353l0,-76.775c0,-13.981 11.375,-25.356 25.356,-25.356l481.56,-0c13.981,-0 25.356,11.375 25.356,25.356l-0,76.775c-0,13.981 -11.375,25.353 -25.356,25.353" style="fill:#3f100e;fill-rule:nonzero;"/>
    <path d="M743.879,975.495l-0,341.584c-0,14.203 11.512,25.716 25.712,25.716l393.597,-0c14.2,-0 25.713,-11.513 25.713,-25.716l-0,-341.584l-445.022,-0Z" style="fill:#3f100e;fill-rule:nonzero;"/>
    <path d="M748.566,980.182l0,336.897c0,11.594 9.431,21.028 21.025,21.028l393.597,0c11.594,0 21.025,-9.434 21.025,-21.028l0,-336.897l-435.647,0Zm414.622,367.3l-393.597,0c-16.762,0 -30.4,-13.641 -30.4,-30.403l0,-341.584c0,-2.591 2.097,-4.688 4.688,-4.688l445.022,0c2.587,0 4.687,2.097 4.687,4.688l0,341.584c0,16.762 -13.637,30.403 -30.4,30.403" style="fill:#3f100e;fill-rule:nonzero;"/>
    <path d="M1227.84,596.324l-261.447,0c-2.59,0 -4.687,-2.097 -4.687,-4.687c-0,-2.591 2.097,-4.688 4.687,-4.688l261.447,0c2.588,0 4.688,2.097 4.688,4.688c-0,2.59 -2.1,4.687 -4.688,4.687" style="fill:#3f100e;fill-rule:nonzero;"/>
    <path d="M966.39,865.821c-0,128.131 -44.556,232.003 -99.519,232.003c-54.962,-0 -99.519,-103.872 -99.519,-232.003c0,-128.132 44.557,-232.004 99.519,-232.004c54.963,0 99.519,103.872 99.519,232.004" style="fill:#fff;fill-rule:nonzero;"/>
    <path d="M827.686,795.845l50.538,30.506c6.275,-30.403 9.793,-64.484 9.793,-100.484c0,-31.875 -2.762,-62.25 -7.753,-89.897c-4.381,-1.375 -8.847,-2.153 -13.39,-2.153c-54.963,0 -99.522,103.872 -99.522,232.003c-0,31.878 2.762,62.253 7.753,89.9c4.384,1.375 8.85,2.15 13.394,2.15c24.559,0 47.025,-20.778 64.381,-55.153l-25.194,-106.872Z" style="fill:#2b55a6;fill-rule:nonzero;"/>
    <path d="M866.872,638.506c-24.59,-0 -48.05,23.125 -66.062,65.112c-18.553,43.247 -28.769,100.853 -28.769,162.203c-0,61.35 10.216,118.953 28.769,162.203c18.012,41.988 41.472,65.11 66.062,65.11c24.591,-0 48.05,-23.122 66.063,-65.11c18.55,-43.25 28.768,-100.853 28.768,-162.203c0,-61.35 -10.218,-118.953 -28.768,-162.203c-18.013,-41.987 -41.472,-65.112 -66.063,-65.112m0,464.003c-58.434,-0 -104.206,-103.966 -104.206,-236.688c-0,-132.722 45.772,-236.69 104.206,-236.69c58.435,-0 104.206,103.968 104.206,236.69c0,132.722 -45.771,236.688 -104.206,236.688" style="fill:#3f100e;fill-rule:nonzero;"/>
    <path d="M1165.43,865.821c-0,128.131 -44.557,232.003 -99.519,232.003c-54.963,-0 -99.516,-103.872 -99.516,-232.003c0,-128.132 44.553,-232.004 99.516,-232.004c54.962,0 99.519,103.872 99.519,232.004" style="fill:#fff;fill-rule:nonzero;"/>
    <path d="M1026.72,795.845l50.541,30.506c6.275,-30.403 9.794,-64.484 9.794,-100.484c-0,-31.875 -2.763,-62.25 -7.753,-89.897c-4.385,-1.375 -8.85,-2.153 -13.394,-2.153c-54.963,0 -99.519,103.872 -99.519,232.003c0,31.878 2.763,62.253 7.753,89.9c4.381,1.375 8.847,2.15 13.394,2.15c24.556,0 47.025,-20.778 64.381,-55.153l-25.197,-106.872Z" style="fill:#2b55a6;fill-rule:nonzero;"/>
    <path d="M1065.91,638.506c-24.591,-0 -48.05,23.125 -66.063,65.112c-18.55,43.25 -28.768,100.853 -28.768,162.203c-0,61.35 10.218,118.953 28.768,162.203c18.013,41.988 41.472,65.11 66.063,65.11c24.59,-0 48.05,-23.122 66.062,-65.11c18.55,-43.25 28.769,-100.853 28.769,-162.203c0,-61.35 -10.219,-118.953 -28.769,-162.203c-18.012,-41.987 -41.472,-65.112 -66.062,-65.112m-0,464.003c-58.431,-0 -104.206,-103.966 -104.206,-236.688c-0,-132.722 45.775,-236.69 104.206,-236.69c58.431,-0 104.206,103.968 104.206,236.69c0,132.722 -45.775,236.688 -104.206,236.688" style="fill:#3f100e;fill-rule:nonzero;"/>
    <path d="M964.016,1258.2l-3.097,-0c-90.934,-0 -127.016,-74.772 -139.353,-112.066c-2.731,4.709 -6.422,8.319 -11.497,9.369c-10.803,2.225 -19.012,-9.297 -19.912,-10.619c-1.944,-2.85 -1.21,-6.741 1.643,-8.684c2.853,-1.947 6.738,-1.207 8.685,1.64c1.884,2.719 5.443,5.769 7.059,5.419c0.047,-0.009 4.838,-1.231 8.475,-20.019c0.569,-2.94 3.144,-5.059 6.134,-5.059l0.057,-0c3.015,0.028 5.581,2.206 6.1,5.178c0.056,0.306 5.647,31.35 24.968,61.831c25.46,40.15 61.672,60.51 107.641,60.51l3.097,-0c110.141,-0 132.397,-121.116 132.609,-122.338c0.516,-2.975 3.078,-5.153 6.097,-5.184l0.06,-0c2.99,-0 5.568,2.122 6.137,5.062c3.634,18.788 8.422,20.01 8.472,20.019c1.547,0.347 5.172,-2.703 7.075,-5.437c1.959,-2.835 5.847,-3.55 8.684,-1.594c2.835,1.95 3.566,5.812 1.628,8.656c-0.906,1.322 -9.121,12.834 -19.915,10.619c-5.075,-1.05 -8.763,-4.66 -11.494,-9.369c-12.334,37.294 -48.416,112.066 -139.353,112.066" style="fill:#fafbfc;fill-rule:nonzero;"/>
    <path d="M934.63,1090.79l-52.222,-51.115c-4.296,-4.206 -1.993,-12.056 3.719,-12.672l80.263,-8.625l-31.76,72.412Z" style="fill:#3f100e;fill-rule:nonzero;"/>
    <path d="M958.848,1023.9l-72.219,7.759c-0.95,0.103 -1.391,0.981 -1.569,1.497c-0.303,0.878 -0.322,2.234 0.628,3.165l47.375,46.369l25.785,-58.79Zm-24.219,71.575c-1.212,-0 -2.394,-0.472 -3.278,-1.338l-52.222,-51.116c-3.359,-3.29 -4.509,-8.368 -2.925,-12.937c1.494,-4.313 5.106,-7.281 9.422,-7.744l80.262,-8.625c1.682,-0.172 3.297,0.544 4.285,1.891c0.987,1.347 1.181,3.119 0.512,4.65l-31.762,72.412c-0.619,1.413 -1.888,2.428 -3.4,2.719c-0.297,0.059 -0.597,0.088 -0.894,0.088" style="fill:#3f100e;fill-rule:nonzero;"/>
    <path d="M998.196,241.356c-0,0 8.128,-99.284 -30.013,-162.247c-14.872,-24.559 -6.412,-56.612 18.159,-71.462c34.544,-20.872 78.913,3.381 79.666,43.734c1.109,59.144 -10.622,136.535 -67.812,189.975" style="fill:#3f100e;fill-rule:nonzero;"/>
    <path d="M986.843,335.008c-0,0 56.237,-36.409 74.144,-82.568c6.981,-18.007 27.531,-26.65 45.528,-19.647c25.297,9.837 30.578,43.434 9.387,60.397c-31.065,24.859 -77.115,50.365 -129.059,41.818" style="fill:#3f100e;fill-rule:nonzero;"/>
    <path d="M920.833,408.939c0,-0 62.313,13.912 105.654,-4.747c16.9,-7.278 36.503,0.919 43.762,17.828c10.206,23.769 -9.103,49.8 -34.784,46.722c-37.647,-4.513 -85.747,-18.785 -114.632,-59.803" style="fill:#3f100e;fill-rule:nonzero;"/>
    <path d="M521.86,1259.91c-35.825,-0 -64.968,29.147 -64.968,64.972c-0,35.825 29.143,64.968 64.968,64.968c35.825,0 64.972,-29.143 64.972,-64.968c0,-35.825 -29.147,-64.972 -64.972,-64.972m0,139.315c-40.993,0 -74.343,-33.35 -74.343,-74.343c-0,-40.994 33.35,-74.347 74.343,-74.347c40.994,-0 74.347,33.353 74.347,74.347c0,40.993 -33.353,74.343 -74.347,74.343" style="fill:#3f100e;fill-rule:nonzero;"/>
    <path d="M1486.1,1334.49c-41.603,-0 -75.325,-33.725 -75.325,-75.325c0,41.6 -33.725,75.325 -75.328,75.325c41.603,-0 75.328,33.725 75.328,75.325c0,-41.6 33.722,-75.325 75.325,-75.325" style="fill:#fafbfc;fill-rule:nonzero;"/>
    <path d="M1386.03,1220.07c-17.613,0 -31.888,-14.275 -31.888,-31.884c0,17.609 -14.275,31.884 -31.884,31.884c17.609,0 31.884,14.275 31.884,31.888c0,-17.613 14.275,-31.888 31.888,-31.888" style="fill:#fafbfc;fill-rule:nonzero;"/>
    <path d="M1144.82,500.876c-14.29,-0 -25.881,-11.588 -25.881,-25.881c0,14.293 -11.587,25.881 -25.881,25.881c14.294,-0 25.881,11.587 25.881,25.881c0,-14.294 11.591,-25.881 25.881,-25.881" style="fill:#fafbfc;fill-rule:nonzero;"/>
    <path d="M1108.4,369.112c-11.791,-0 -21.35,-9.56 -21.35,-21.35c-0,11.79 -9.56,21.35 -21.35,21.35c11.79,-0 21.35,9.559 21.35,21.35c-0,-11.791 9.559,-21.35 21.35,-21.35" style="fill:#fafbfc;fill-rule:nonzero;"/>
    <path d="M1498.85,1158.58c-26.519,0 -48.019,-21.5 -48.019,-48.019c-0,26.519 -21.5,48.019 -48.022,48.019c26.522,0 48.022,21.5 48.022,48.022c-0,-26.522 21.5,-48.022 48.019,-48.022" style="fill:#fafbfc;fill-rule:nonzero;"/>
    <path d="M1354.14,693.422c-26.519,0 -48.019,-21.5 -48.019,-48.022c0,26.522 -21.5,48.022 -48.021,48.022c26.521,0 48.021,21.5 48.021,48.022c0,-26.522 21.5,-48.022 48.019,-48.022" style="fill:#fafbfc;fill-rule:nonzero;"/>
    <path d="M615.853,814.9c-37.231,0 -67.416,-30.181 -67.416,-67.415c0,37.234 -30.181,67.415 -67.415,67.415c37.234,0 67.415,30.185 67.415,67.416c0,-37.231 30.185,-67.416 67.416,-67.416" style="fill:#fafbfc;fill-rule:nonzero;"/>
    <path d="M940.211,485.523c-22.775,-0 -41.235,-18.46 -41.235,-41.235c0,22.775 -18.462,41.235 -41.237,41.235c22.775,-0 41.237,18.462 41.237,41.234c0,-22.772 18.46,-41.234 41.235,-41.234" style="fill:#fafbfc;fill-rule:nonzero;"/>
    <path d="M589.275,1149.14c-37.231,-0 -67.415,-30.181 -67.415,-67.416c-0,37.235 -30.182,67.416 -67.416,67.416c37.234,-0 67.416,30.181 67.416,67.412c-0,-37.231 30.184,-67.412 67.415,-67.412" style="fill:#fafbfc;fill-rule:nonzero;"/>
    <path d="M1421.92,837.726c-26.197,-0 -47.435,-21.235 -47.435,-47.431c0,26.196 -21.234,47.431 -47.428,47.431c26.194,-0 47.428,21.234 47.428,47.431c0,-26.197 21.238,-47.431 47.435,-47.431" style="fill:#fafbfc;fill-rule:nonzero;"/>
    <path d="M542.75,725.308c-17.61,0 -31.888,-14.275 -31.888,-31.887c0,17.612 -14.275,31.887 -31.884,31.887c17.609,0 31.884,14.275 31.884,31.888c0,-17.613 14.278,-31.888 31.888,-31.888" style="fill:#fafbfc;fill-rule:nonzero;"/>
    <path d="M660.077,680.219c-26.521,-0 -48.021,-21.5 -48.021,-48.022c-0,26.522 -21.5,48.022 -48.019,48.022c26.519,-0 48.019,21.5 48.019,48.022c-0,-26.522 21.5,-48.022 48.021,-48.022" style="fill:#fafbfc;fill-rule:nonzero;"/>
    <path d="M1127.48,434.594l18.269,-40.059l40.555,18.496l-3.896,8.542l-29.447,-13.429l-3.018,6.618l27.93,12.738l-3.895,8.542l-27.931,-12.738l-3.563,7.814l29.854,13.615l-3.895,8.542l-40.963,-18.681Z" style="fill:#3f100e;fill-rule:nonzero;"/>
    <path d="M1229.66,453.234c-0.497,-0.783 -1.192,-1.751 -2.087,-2.905c-0.894,-1.154 -1.958,-2.381 -3.19,-3.68c-1.231,-1.299 -2.63,-2.613 -4.195,-3.942c-1.565,-1.328 -3.256,-2.553 -5.075,-3.674c-1.454,-0.897 -2.724,-1.617 -3.807,-2.159c-1.083,-0.543 -2.02,-0.957 -2.81,-1.243c-0.79,-0.287 -1.448,-0.46 -1.975,-0.522c-0.527,-0.061 -0.961,-0.059 -1.302,0.007c-0.342,0.065 -0.606,0.178 -0.793,0.339c-0.187,0.161 -0.331,0.323 -0.432,0.487c-0.336,0.545 -0.358,1.191 -0.065,1.936c0.294,0.746 0.815,1.569 1.564,2.47c0.75,0.901 1.665,1.88 2.746,2.935c1.081,1.056 2.233,2.168 3.458,3.337c1.224,1.168 2.477,2.393 3.758,3.672c1.282,1.28 2.482,2.59 3.599,3.932c1.118,1.342 2.111,2.713 2.979,4.114c0.868,1.401 1.517,2.811 1.947,4.23c0.429,1.42 0.581,2.843 0.454,4.271c-0.128,1.427 -0.623,2.841 -1.486,4.241c-1.11,1.8 -2.381,3.15 -3.814,4.048c-1.432,0.899 -2.955,1.466 -4.568,1.701c-1.613,0.235 -3.285,0.189 -5.016,-0.137c-1.731,-0.327 -3.454,-0.819 -5.17,-1.475c-1.716,-0.657 -3.389,-1.424 -5.017,-2.303c-1.629,-0.879 -3.153,-1.756 -4.571,-2.63c-3.71,-2.287 -6.954,-4.708 -9.734,-7.262c-2.779,-2.555 -5.098,-5.032 -6.956,-7.432l5.516,-8.947c1.639,2.918 3.814,5.752 6.523,8.501c2.709,2.75 5.882,5.246 9.519,7.488c2.146,1.323 3.966,2.288 5.461,2.896c1.494,0.608 2.733,0.97 3.715,1.087c0.983,0.116 1.739,0.049 2.27,-0.201c0.531,-0.25 0.914,-0.566 1.149,-0.948c0.37,-0.6 0.42,-1.291 0.149,-2.073c-0.271,-0.782 -0.776,-1.632 -1.514,-2.552c-0.738,-0.919 -1.648,-1.907 -2.728,-2.962c-1.081,-1.055 -2.24,-2.158 -3.475,-3.309c-1.236,-1.151 -2.498,-2.35 -3.787,-3.596c-1.29,-1.247 -2.501,-2.527 -3.636,-3.842c-1.135,-1.314 -2.147,-2.654 -3.037,-4.018c-0.891,-1.365 -1.559,-2.743 -2.006,-4.135c-0.447,-1.392 -0.615,-2.789 -0.504,-4.189c0.11,-1.4 0.597,-2.8 1.46,-4.2c1.02,-1.655 2.191,-2.903 3.513,-3.744c1.322,-0.842 2.739,-1.38 4.251,-1.614c1.513,-0.235 3.082,-0.215 4.707,0.059c1.625,0.275 3.246,0.709 4.862,1.304c1.616,0.595 3.194,1.292 4.734,2.091c1.54,0.799 2.974,1.607 4.301,2.426c1.455,0.897 2.906,1.891 4.353,2.984c1.446,1.093 2.834,2.231 4.163,3.414c1.328,1.183 2.581,2.376 3.759,3.579c1.179,1.203 2.241,2.36 3.187,3.471l-5.347,8.674Z" style="fill:#3f100e;fill-rule:nonzero;"/>
    <path d="M1265.97,477.098l-21.402,26.991l-9.315,-7.386l21.402,-26.991l-14.638,-11.607l5.953,-7.507l38.616,30.62l-5.953,7.507l-14.663,-11.627Z" style="fill:#3f100e;fill-rule:nonzero;"/>
    <path d="M1318.57,544.212c-2.019,1.968 -4.029,3.494 -6.03,4.579c-2,1.085 -3.973,1.792 -5.919,2.122c-1.945,0.33 -3.871,0.328 -5.778,-0.006c-1.907,-0.334 -3.776,-0.951 -5.607,-1.851c-1.832,-0.9 -3.634,-2.037 -5.406,-3.412c-1.773,-1.374 -3.501,-2.926 -5.186,-4.655l-19.503,-20.009l31.529,-30.731l19.458,19.964c1.685,1.729 3.192,3.496 4.521,5.304c1.329,1.807 2.423,3.641 3.283,5.503c0.86,1.861 1.44,3.75 1.74,5.664c0.3,1.915 0.257,3.845 -0.131,5.788c-0.387,1.944 -1.145,3.898 -2.273,5.863c-1.128,1.964 -2.694,3.923 -4.698,5.877Zm-8.365,-8.583c1.515,-1.476 2.64,-2.953 3.377,-4.432c0.736,-1.478 1.046,-3.004 0.931,-4.576c-0.116,-1.573 -0.673,-3.23 -1.67,-4.973c-0.997,-1.742 -2.473,-3.616 -4.426,-5.62l-10.311,-10.578l-17.806,17.356l10.31,10.578c1.954,2.004 3.788,3.527 5.505,4.569c1.716,1.041 3.366,1.633 4.951,1.774c1.584,0.141 3.125,-0.137 4.622,-0.836c1.497,-0.698 3.003,-1.785 4.517,-3.262Z" style="fill:#3f100e;fill-rule:nonzero;"/>
    <path d="M1322.16,584.209l6.557,-4.374c5.363,3.304 10.077,6.136 14.142,8.495c4.066,2.36 7.568,4.222 10.507,5.587c2.939,1.364 5.364,2.218 7.275,2.561c1.911,0.343 3.409,0.153 4.493,-0.57c0.302,-0.202 0.623,-0.461 0.964,-0.778c0.34,-0.318 0.636,-0.721 0.888,-1.209c0.251,-0.489 0.43,-1.077 0.537,-1.765c0.106,-0.687 0.057,-1.502 -0.148,-2.444c-0.204,-0.942 -0.581,-2.026 -1.129,-3.252c-0.549,-1.226 -1.345,-2.621 -2.388,-4.185c-0.961,-1.439 -2.056,-2.879 -3.286,-4.318c-1.229,-1.439 -2.523,-2.811 -3.88,-4.114c-1.358,-1.302 -2.75,-2.505 -4.179,-3.606c-1.428,-1.102 -2.841,-2.046 -4.24,-2.834l8.717,-5.815c2.489,1.883 5.021,4.129 7.596,6.738c2.575,2.609 4.972,5.575 7.189,8.898c2.074,3.11 3.654,6.075 4.74,8.895c1.085,2.819 1.674,5.425 1.767,7.815c0.092,2.391 -0.304,4.53 -1.189,6.417c-0.885,1.888 -2.261,3.454 -4.127,4.699c-1.03,0.687 -2.068,1.219 -3.114,1.596c-1.046,0.377 -2.185,0.565 -3.417,0.566c-1.232,0 -2.602,-0.196 -4.11,-0.59c-1.508,-0.393 -3.237,-1.012 -5.187,-1.855c-1.949,-0.844 -4.167,-1.926 -6.653,-3.246c-2.486,-1.321 -5.317,-2.899 -8.494,-4.734l13.872,20.791l-7.917,5.282l-25.786,-38.651Z" style="fill:#3f100e;fill-rule:nonzero;"/>
    <path d="M1394.86,666.01c-3.134,1.566 -6.275,2.389 -9.423,2.47c-3.148,0.081 -6.145,-0.469 -8.992,-1.65c-2.847,-1.18 -5.469,-2.938 -7.866,-5.274c-2.398,-2.337 -4.408,-5.129 -6.032,-8.377c-1.089,-2.179 -1.91,-4.371 -2.464,-6.578c-0.553,-2.207 -0.842,-4.386 -0.866,-6.535c-0.023,-2.15 0.221,-4.23 0.732,-6.241c0.512,-2.011 1.284,-3.895 2.316,-5.653c1.032,-1.757 2.329,-3.367 3.891,-4.828c1.562,-1.462 3.394,-2.718 5.496,-3.768c2.083,-1.041 4.183,-1.75 6.299,-2.127c2.116,-0.377 4.187,-0.451 6.212,-0.221c2.025,0.229 3.996,0.743 5.911,1.541c1.915,0.798 3.726,1.852 5.431,3.161c1.705,1.309 3.274,2.847 4.706,4.615c1.433,1.768 2.694,3.741 3.783,5.919c1.623,3.249 2.649,6.533 3.079,9.853c0.429,3.32 0.261,6.472 -0.503,9.457c-0.765,2.986 -2.125,5.713 -4.079,8.182c-1.954,2.47 -4.498,4.487 -7.631,6.054Zm-5.315,-10.634c1.987,-0.994 3.573,-2.216 4.758,-3.668c1.185,-1.452 2.014,-3.019 2.487,-4.7c0.473,-1.681 0.6,-3.41 0.381,-5.187c-0.22,-1.777 -0.745,-3.497 -1.576,-5.16c-0.831,-1.662 -1.896,-3.124 -3.195,-4.385c-1.299,-1.261 -2.763,-2.207 -4.391,-2.838c-1.629,-0.631 -3.382,-0.913 -5.259,-0.847c-1.878,0.067 -3.81,0.597 -5.797,1.59c-1.988,0.993 -3.571,2.221 -4.751,3.682c-1.18,1.462 -2.002,3.031 -2.466,4.707c-0.464,1.677 -0.586,3.415 -0.366,5.216c0.219,1.801 0.744,3.533 1.575,5.195c0.831,1.663 1.896,3.113 3.195,4.35c1.299,1.237 2.758,2.174 4.378,2.809c1.619,0.636 3.365,0.916 5.237,0.84c1.873,-0.076 3.802,-0.611 5.79,-1.604Z" style="fill:#3f100e;fill-rule:nonzero;"/>
    <path d="M1380.68,691.218l32.966,-12.477l-7.632,-9.754l8.241,-3.119l7.602,9.766l4.185,11.058l-41.177,15.584l-4.185,-11.058Z" style="fill:#3f100e;fill-rule:nonzero;"/>
    <path d="M1421.89,741.933c-0.087,2.303 -0.308,4.31 -0.665,6.021c-0.357,1.712 -0.868,3.178 -1.534,4.398c-0.667,1.219 -1.506,2.209 -2.518,2.969c-1.012,0.76 -2.208,1.327 -3.59,1.7c-2.042,0.551 -4.01,0.496 -5.903,-0.165c-1.893,-0.662 -3.668,-1.887 -5.323,-3.675c-1.656,-1.787 -3.179,-4.109 -4.569,-6.964c-1.391,-2.855 -2.601,-6.191 -3.631,-10.006c-1.03,-3.815 -1.662,-7.302 -1.894,-10.458c-0.233,-3.157 -0.084,-5.924 0.447,-8.302c0.53,-2.379 1.447,-4.33 2.751,-5.855c1.303,-1.524 2.975,-2.562 5.017,-3.113c1.382,-0.373 2.701,-0.486 3.958,-0.339c1.257,0.148 2.48,0.581 3.67,1.3c1.19,0.718 2.369,1.727 3.539,3.027c1.169,1.3 2.371,2.922 3.604,4.868c0.209,-1.848 0.493,-3.419 0.853,-4.71c0.359,-1.292 0.814,-2.372 1.365,-3.24c0.552,-0.868 1.214,-1.55 1.987,-2.047c0.773,-0.496 1.675,-0.884 2.707,-1.162c1.588,-0.429 3.18,-0.372 4.775,0.171c1.596,0.543 3.127,1.562 4.593,3.058c1.466,1.496 2.83,3.474 4.091,5.932c1.261,2.459 2.351,5.389 3.27,8.792c0.991,3.671 1.552,6.917 1.683,9.736c0.13,2.819 -0.08,5.216 -0.631,7.19c-0.552,1.974 -1.387,3.55 -2.508,4.726c-1.121,1.177 -2.434,1.968 -3.939,2.375c-1.031,0.278 -2.007,0.392 -2.928,0.342c-0.921,-0.05 -1.838,-0.311 -2.751,-0.784c-0.913,-0.472 -1.851,-1.182 -2.815,-2.127c-0.963,-0.946 -2,-2.165 -3.111,-3.658Zm7.448,-4.865c0.763,-0.206 1.337,-0.621 1.722,-1.245c0.385,-0.624 0.62,-1.412 0.706,-2.365c0.086,-0.952 0.037,-2.034 -0.146,-3.246c-0.184,-1.212 -0.462,-2.508 -0.835,-3.89c-0.373,-1.382 -0.784,-2.637 -1.233,-3.767c-0.448,-1.129 -0.948,-2.078 -1.499,-2.848c-0.55,-0.769 -1.148,-1.321 -1.791,-1.657c-0.644,-0.335 -1.347,-0.399 -2.11,-0.193c-0.764,0.206 -1.351,0.652 -1.763,1.339c-0.412,0.686 -0.7,1.527 -0.862,2.523c-0.163,0.995 -0.219,2.1 -0.168,3.314c0.052,1.214 0.172,2.46 0.362,3.736c0.423,0.992 0.916,2.021 1.48,3.085c0.564,1.065 1.175,2.017 1.834,2.858c0.658,0.84 1.349,1.494 2.073,1.962c0.724,0.469 1.467,0.6 2.23,0.394Zm-15.227,-6.244c-1.13,-2.461 -2.133,-4.458 -3.012,-5.991c-0.879,-1.533 -1.687,-2.704 -2.425,-3.511c-0.738,-0.808 -1.429,-1.318 -2.073,-1.531c-0.644,-0.214 -1.285,-0.234 -1.925,-0.062c-0.247,0.067 -0.539,0.196 -0.875,0.386c-0.336,0.19 -0.664,0.489 -0.986,0.897c-0.321,0.407 -0.606,0.949 -0.855,1.625c-0.249,0.676 -0.407,1.526 -0.473,2.551c-0.067,1.024 -0.018,2.25 0.146,3.677c0.164,1.427 0.508,3.11 1.031,5.049c0.524,1.939 1.07,3.572 1.639,4.901c0.569,1.329 1.14,2.42 1.713,3.272c0.573,0.852 1.137,1.507 1.692,1.966c0.556,0.458 1.075,0.783 1.558,0.973c0.483,0.191 0.922,0.282 1.319,0.275c0.396,-0.007 0.718,-0.045 0.965,-0.111c0.64,-0.173 1.184,-0.514 1.633,-1.022c0.449,-0.509 0.788,-1.303 1.016,-2.382c0.229,-1.08 0.337,-2.503 0.325,-4.27c-0.013,-1.767 -0.15,-3.997 -0.413,-6.692Z" style="fill:#3f100e;fill-rule:nonzero;"/>
    <g transform="matrix(3.125,0,0,3.125,-726.679,-572.179)">
        <g transform="matrix(79,0,0,79,343.891,720.333)">
            <path d="M0.3,-0.161l0,0.124c-0.015,0.013 -0.035,0.024 -0.06,0.033c-0.024,0.008 -0.055,0.013 -0.09,0.013c-0.036,-0 -0.067,-0.008 -0.092,-0.024c-0.029,-0.017 -0.043,-0.042 -0.043,-0.074l0,-0.496c0,-0.03 0.074,-0.045 0.22,-0.045l0.287,0c0.009,0.017 0.016,0.037 0.021,0.058c0.005,0.021 0.007,0.04 0.007,0.057c-0,0.075 -0.033,0.112 -0.098,0.112l-0.169,0c-0.013,0 -0.019,0.005 -0.019,0.016l0,0.003c0,0.002 0,0.003 0.001,0.004l0.216,0c0.017,0.028 0.025,0.06 0.025,0.096c-0,0.044 -0.01,0.079 -0.03,0.103l-0.239,0c-0.003,0.003 -0.004,0.006 -0.004,0.009c-0,0.005 0.004,0.008 0.012,0.009c0.008,0.001 0.017,0.002 0.027,0.002c0.01,-0 0.02,0 0.028,0Z" style="fill:#3f100e;fill-rule:nonzero;"/>
        </g>
        <g transform="matrix(79,0,0,79,387.981,720.333)">
            <path d="M0.289,-0.347c0.001,0.001 0.005,0.001 0.011,0.001c0.006,0 0.011,-0.002 0.014,-0.007c0.003,-0.005 0.005,-0.013 0.005,-0.024l-0,-0.018c-0,-0.011 -0.002,-0.02 -0.004,-0.025c-0.003,-0.005 -0.008,-0.007 -0.014,-0.007c-0.006,-0 -0.011,0 -0.013,0.002c0,0.001 0.001,0.004 0.001,0.008l-0,0.07Zm0.252,0.111l0.084,0.087c-0.006,0.05 -0.022,0.089 -0.048,0.117c-0.026,0.027 -0.063,0.041 -0.109,0.041c-0.035,-0 -0.065,-0.009 -0.091,-0.025c-0.032,-0.021 -0.057,-0.054 -0.073,-0.1l-0.018,-0.048c-0.014,0 -0.031,-0.002 -0.052,-0.005c-0.002,0.003 -0.004,0.006 -0.004,0.011c0,0.009 0.014,0.014 0.04,0.015l0.028,0.071l-0,0.041c-0.038,0.027 -0.086,0.04 -0.144,0.04c-0.042,-0 -0.076,-0.009 -0.101,-0.026c-0.025,-0.017 -0.037,-0.042 -0.037,-0.075l-0,-0.464c-0,-0.014 0.013,-0.028 0.039,-0.042c0.027,-0.013 0.061,-0.024 0.104,-0.033c0.042,-0.008 0.085,-0.012 0.128,-0.012c0.097,-0 0.174,0.02 0.229,0.06c0.058,0.042 0.087,0.101 0.087,0.177c-0,0.044 -0.013,0.081 -0.037,0.112c-0.025,0.031 -0.056,0.053 -0.093,0.065c-0,0.01 0.006,0.016 0.018,0.016c0.013,-0 0.029,-0.008 0.05,-0.023Z" style="fill:#3f100e;fill-rule:nonzero;"/>
        </g>
        <g transform="matrix(79,0,0,79,437.549,720.333)">
            <path d="M0.235,-0.63l0.282,0c0.01,0.016 0.017,0.033 0.021,0.051c0.005,0.019 0.007,0.035 0.007,0.05c-0,0.033 -0.007,0.057 -0.019,0.074c-0.013,0.017 -0.031,0.025 -0.054,0.025l-0.197,-0c-0.012,-0 -0.018,0.005 -0.018,0.014l-0,0.004c-0,0.002 0,0.003 0.001,0.004l0.233,-0c0.006,0.01 0.011,0.023 0.015,0.038c0.004,0.016 0.006,0.031 0.006,0.044c0,0.039 -0.007,0.069 -0.021,0.091l-0.106,0c-0.05,0 -0.083,0.002 -0.101,0.006c-0.017,0.003 -0.028,0.007 -0.033,0.009c-0.004,0.003 -0.006,0.007 -0.006,0.012c0,0.004 0.002,0.008 0.007,0.01c0.017,-0.005 0.035,-0.009 0.053,-0.011c0.025,-0.003 0.051,-0.004 0.08,-0.004l0.137,0c0.02,0.028 0.03,0.062 0.03,0.101c-0,0.022 -0.003,0.043 -0.009,0.064c-0.005,0.02 -0.013,0.036 -0.024,0.048l-0.366,0c-0.041,0 -0.073,-0.009 -0.097,-0.029c-0.027,-0.021 -0.04,-0.051 -0.04,-0.092l-0,-0.464c-0,-0.016 0.018,-0.027 0.053,-0.034c0.036,-0.007 0.091,-0.011 0.166,-0.011Z" style="fill:#3f100e;fill-rule:nonzero;"/>
        </g>
        <g transform="matrix(79,0,0,79,481.794,720.333)">
            <path d="M0.235,-0.63l0.282,0c0.01,0.016 0.017,0.033 0.021,0.051c0.005,0.019 0.007,0.035 0.007,0.05c-0,0.033 -0.007,0.057 -0.019,0.074c-0.013,0.017 -0.031,0.025 -0.054,0.025l-0.197,-0c-0.012,-0 -0.018,0.005 -0.018,0.014l-0,0.004c-0,0.002 0,0.003 0.001,0.004l0.233,-0c0.006,0.01 0.011,0.023 0.015,0.038c0.004,0.016 0.006,0.031 0.006,0.044c0,0.039 -0.007,0.069 -0.021,0.091l-0.106,0c-0.05,0 -0.083,0.002 -0.101,0.006c-0.017,0.003 -0.028,0.007 -0.033,0.009c-0.004,0.003 -0.006,0.007 -0.006,0.012c0,0.004 0.002,0.008 0.007,0.01c0.017,-0.005 0.035,-0.009 0.053,-0.011c0.025,-0.003 0.051,-0.004 0.08,-0.004l0.137,0c0.02,0.028 0.03,0.062 0.03,0.101c-0,0.022 -0.003,0.043 -0.009,0.064c-0.005,0.02 -0.013,0.036 -0.024,0.048l-0.366,0c-0.041,0 -0.073,-0.009 -0.097,-0.029c-0.027,-0.021 -0.04,-0.051 -0.04,-0.092l-0,-0.464c-0,-0.016 0.018,-0.027 0.053,-0.034c0.036,-0.007 0.091,-0.011 0.166,-0.011Z" style="fill:#3f100e;fill-rule:nonzero;"/>
        </g>
        <g transform="matrix(79,0,0,79,543.204,720.333)">
            <path d="M0.612,-0.518l-0,0.486c-0.037,0.027 -0.083,0.041 -0.14,0.041c-0.044,-0 -0.079,-0.009 -0.105,-0.027c-0.027,-0.018 -0.04,-0.045 -0.04,-0.079l-0,-0.097l0.034,0c0.014,0 0.022,-0.002 0.025,-0.005c0.004,-0.003 0.006,-0.009 0.006,-0.017l-0.154,0c0,0.008 0.002,0.014 0.005,0.017c0.003,0.003 0.01,0.005 0.021,0.005l0.037,0l-0,0.162c-0.025,0.016 -0.049,0.027 -0.072,0.032c-0.022,0.006 -0.045,0.009 -0.068,0.009c-0.044,-0 -0.079,-0.009 -0.105,-0.027c-0.027,-0.018 -0.04,-0.045 -0.04,-0.079l-0,-0.486c0.017,-0.018 0.037,-0.032 0.062,-0.041c0.025,-0.01 0.051,-0.015 0.078,-0.015c0.04,0 0.073,0.01 0.1,0.03c0.03,0.022 0.045,0.052 0.045,0.091l-0,0.087l0.062,0c-0,-0.008 -0.002,-0.014 -0.005,-0.017c-0.003,-0.003 -0.008,-0.005 -0.015,-0.005l-0.016,0l-0,-0.13c0.017,-0.018 0.038,-0.032 0.062,-0.041c0.025,-0.01 0.051,-0.015 0.078,-0.015c0.04,0 0.073,0.01 0.1,0.03c0.03,0.022 0.045,0.052 0.045,0.091Z" style="fill:#3f100e;fill-rule:nonzero;"/>
        </g>
        <g transform="matrix(79,0,0,79,592.772,720.333)">
            <path d="M0.319,-0.321c0.002,0.003 0.007,0.004 0.012,0.004c0.006,0 0.01,-0.001 0.014,-0.003c-0.008,-0.05 -0.014,-0.079 -0.017,-0.088c-0.003,-0.01 -0.009,-0.014 -0.016,-0.014c-0.003,-0 -0.007,0.001 -0.012,0.003l0.019,0.098Zm-0.097,0.147c-0.003,0.004 -0.005,0.008 -0.005,0.012c0,0.01 0.009,0.018 0.027,0.024c0.018,0.006 0.039,0.01 0.065,0.012c0.004,0.047 0.008,0.074 0.013,0.08c-0.006,0.012 -0.023,0.024 -0.051,0.036c-0.028,0.013 -0.06,0.019 -0.095,0.019c-0.046,-0 -0.086,-0.01 -0.119,-0.03c-0.034,-0.02 -0.05,-0.046 -0.05,-0.078c-0,-0.008 0.001,-0.016 0.002,-0.022l0.104,-0.465c0.026,-0.017 0.057,-0.03 0.094,-0.039c0.036,-0.009 0.073,-0.014 0.112,-0.014c0.056,-0 0.104,0.009 0.144,0.028c0.045,0.022 0.073,0.053 0.082,0.093l0.112,0.461c-0.034,0.044 -0.089,0.066 -0.166,0.066c-0.037,-0 -0.068,-0.007 -0.094,-0.02c-0.026,-0.014 -0.041,-0.033 -0.045,-0.057l-0.011,-0.06c0.02,-0 0.039,-0.004 0.057,-0.011c0.018,-0.007 0.027,-0.015 0.027,-0.023c0,-0.005 -0.002,-0.009 -0.006,-0.012c-0.012,0.008 -0.028,0.015 -0.045,0.02c-0.018,0.004 -0.035,0.007 -0.05,0.007c-0.044,-0 -0.078,-0.009 -0.102,-0.027Z" style="fill:#3f100e;fill-rule:nonzero;"/>
        </g>
        <g transform="matrix(79,0,0,79,644.615,720.333)">
            <path d="M0.016,-0.09l-0,-0.49c-0,-0.017 0.013,-0.031 0.04,-0.042c0.028,-0.011 0.06,-0.017 0.096,-0.017c0.021,0 0.041,0.003 0.059,0.008c0.019,0.005 0.033,0.011 0.042,0.019c0.014,0.017 0.026,0.034 0.037,0.052c0.011,0.018 0.036,0.059 0.075,0.123c0.003,-0 0.007,-0.001 0.01,-0.003c0.002,-0.003 0.004,-0.006 0.004,-0.011c-0,-0.005 -0.004,-0.014 -0.012,-0.028l-0.053,-0.09l-0,-0.027c0.017,-0.014 0.037,-0.024 0.061,-0.032c0.023,-0.007 0.048,-0.011 0.073,-0.011c0.042,-0 0.075,0.007 0.1,0.022c0.03,0.018 0.045,0.046 0.045,0.084l-0,0.463c-0,0.028 -0.014,0.048 -0.04,0.061c-0.023,0.011 -0.053,0.017 -0.092,0.017c-0.021,-0 -0.041,-0.002 -0.061,-0.007c-0.02,-0.005 -0.036,-0.01 -0.047,-0.018c-0.024,-0.029 -0.047,-0.062 -0.069,-0.099l-0.05,-0.083c-0.01,0.001 -0.014,0.006 -0.014,0.015c-0,0.005 0.004,0.016 0.014,0.032l0.061,0.098l-0,0.026c-0.038,0.025 -0.08,0.037 -0.128,0.037c-0.047,-0 -0.084,-0.009 -0.111,-0.026c-0.027,-0.017 -0.04,-0.042 -0.04,-0.073Z" style="fill:#3f100e;fill-rule:nonzero;"/>
        </g>
        <g transform="matrix(79,0,0,79,693.065,720.333)">
            <path d="M0.311,-0.337c0,-0.032 -0.001,-0.055 -0.004,-0.067c-0.003,-0.012 -0.009,-0.018 -0.016,-0.018c-0.005,-0 -0.01,0.001 -0.014,0.005c0.001,0.005 0.002,0.013 0.003,0.023c0.002,0.01 0.002,0.031 0.002,0.062l0,0.032c0,0.022 -0,0.038 -0.001,0.049c-0.001,0.01 -0.002,0.018 -0.003,0.025c-0,0.004 -0,0.008 -0.001,0.012c0.004,0.003 0.009,0.005 0.014,0.005c0.007,0 0.013,-0.006 0.016,-0.018c0.003,-0.013 0.004,-0.035 0.004,-0.067l0,-0.043Zm-0.182,0.337c-0.036,0 -0.064,-0.009 -0.084,-0.028c-0.02,-0.02 -0.029,-0.048 -0.029,-0.087l-0,-0.44c-0,-0.024 0.024,-0.045 0.074,-0.062c0.05,-0.018 0.105,-0.026 0.166,-0.026c0.108,-0 0.192,0.026 0.253,0.078c0.065,0.056 0.097,0.14 0.097,0.251c0,0.099 -0.031,0.177 -0.094,0.232c-0.063,0.055 -0.15,0.082 -0.26,0.082l-0.123,0Z" style="fill:#3f100e;fill-rule:nonzero;"/>
        </g>
        <g transform="matrix(65,0,0,65,342.318,774.93)">
            <path d="M0.301,-0.542l-0,0.505c-0.015,0.013 -0.035,0.024 -0.06,0.033c-0.025,0.008 -0.056,0.013 -0.092,0.013c-0.035,-0 -0.066,-0.008 -0.091,-0.024c-0.028,-0.017 -0.042,-0.042 -0.042,-0.073l-0,-0.505c0.015,-0.013 0.035,-0.024 0.06,-0.032c0.025,-0.009 0.055,-0.014 0.091,-0.014c0.035,0 0.066,0.008 0.092,0.024c0.028,0.018 0.042,0.042 0.042,0.073Z" style="fill:#3f100e;fill-rule:nonzero;"/>
        </g>
        <g transform="matrix(65,0,0,65,363.202,774.93)">
            <path d="M0.129,0c-0.036,0 -0.064,-0.009 -0.084,-0.028c-0.02,-0.02 -0.029,-0.048 -0.029,-0.087l-0,-0.478c0.017,-0.014 0.038,-0.026 0.063,-0.034c0.025,-0.008 0.051,-0.012 0.077,-0.012c0.04,0 0.073,0.01 0.1,0.03c0.03,0.022 0.045,0.052 0.045,0.091l-0,0.268c-0.018,0.001 -0.036,0.006 -0.054,0.015c-0.018,0.009 -0.026,0.017 -0.026,0.027c-0,0.005 0.003,0.01 0.009,0.014c0.032,-0.027 0.08,-0.041 0.144,-0.041l0.115,0c0.022,0.038 0.032,0.076 0.032,0.116c0,0.019 -0.003,0.041 -0.01,0.065c-0.007,0.024 -0.016,0.042 -0.027,0.054l-0.355,0Z" style="fill:#3f100e;fill-rule:nonzero;"/>
        </g>
        <g transform="matrix(65,0,0,65,397.416,774.93)">
            <path d="M0.129,0c-0.036,0 -0.064,-0.009 -0.084,-0.028c-0.02,-0.02 -0.029,-0.048 -0.029,-0.087l-0,-0.478c0.017,-0.014 0.038,-0.026 0.063,-0.034c0.025,-0.008 0.051,-0.012 0.077,-0.012c0.04,0 0.073,0.01 0.1,0.03c0.03,0.022 0.045,0.052 0.045,0.091l-0,0.268c-0.018,0.001 -0.036,0.006 -0.054,0.015c-0.018,0.009 -0.026,0.017 -0.026,0.027c-0,0.005 0.003,0.01 0.009,0.014c0.032,-0.027 0.08,-0.041 0.144,-0.041l0.115,0c0.022,0.038 0.032,0.076 0.032,0.116c0,0.019 -0.003,0.041 -0.01,0.065c-0.007,0.024 -0.016,0.042 -0.027,0.054l-0.355,0Z" style="fill:#3f100e;fill-rule:nonzero;"/>
        </g>
        <g transform="matrix(65,0,0,65,430.36,774.93)">
            <path d="M0.439,-0.639c0.04,0 0.073,0.011 0.102,0.032c0.029,0.021 0.043,0.051 0.043,0.09l-0,0.272c-0,0.083 -0.025,0.146 -0.076,0.191c-0.05,0.045 -0.12,0.067 -0.209,0.067c-0.089,0 -0.158,-0.022 -0.208,-0.066c-0.05,-0.044 -0.075,-0.108 -0.075,-0.192l-0,-0.348c0.038,-0.031 0.082,-0.046 0.133,-0.046c0.042,-0 0.076,0.011 0.101,0.033c0.024,0.023 0.037,0.056 0.037,0.102l-0,0.284c0.003,0.003 0.007,0.004 0.012,0.004c0.005,0 0.008,-0.001 0.01,-0.003c0.002,-0.003 0.003,-0.008 0.003,-0.014l0,-0.272c0,-0.02 -0,-0.037 -0.002,-0.049c-0.002,-0.012 -0.006,-0.024 -0.012,-0.036c0.039,-0.032 0.086,-0.049 0.141,-0.049Z" style="fill:#3f100e;fill-rule:nonzero;"/>
        </g>
        <g transform="matrix(65,0,0,65,469.652,774.93)">
            <path d="M0.278,-0.178c0.011,-0.002 0.016,-0.007 0.016,-0.016c0,-0.009 -0.002,-0.019 -0.008,-0.03c-0.006,-0.012 -0.014,-0.022 -0.025,-0.032c-0.029,-0.026 -0.068,-0.039 -0.118,-0.039c-0.024,-0 -0.047,0.004 -0.068,0.012c-0.023,-0.012 -0.041,-0.03 -0.054,-0.054c-0.013,-0.025 -0.02,-0.052 -0.02,-0.08c-0,-0.075 0.031,-0.133 0.094,-0.174c0.053,-0.035 0.12,-0.052 0.198,-0.052c0.059,-0 0.108,0.006 0.148,0.019c0.04,0.012 0.073,0.028 0.099,0.048c0.007,0.021 0.011,0.044 0.011,0.067c-0,0.023 -0.003,0.044 -0.009,0.063c-0.007,0.019 -0.016,0.034 -0.027,0.045c-0.011,-0.008 -0.031,-0.016 -0.06,-0.025c-0.029,-0.008 -0.056,-0.012 -0.08,-0.012c-0.023,-0 -0.039,0.001 -0.047,0.004c-0.008,0.003 -0.012,0.007 -0.012,0.014c-0,0.003 0,0.005 0.001,0.008c0.012,-0.003 0.026,-0.005 0.044,-0.005c0.064,0 0.116,0.015 0.156,0.045c0.047,0.036 0.07,0.09 0.07,0.162c0,0.063 -0.025,0.115 -0.076,0.157c-0.056,0.044 -0.13,0.067 -0.223,0.067c-0.052,-0 -0.096,-0.004 -0.134,-0.012c-0.038,-0.007 -0.075,-0.021 -0.111,-0.04c-0.024,-0.036 -0.036,-0.072 -0.036,-0.108c-0,-0.037 0.012,-0.067 0.037,-0.091c0.025,-0.024 0.056,-0.036 0.093,-0.036c0.037,-0 0.067,0.007 0.09,0.022c0.023,0.015 0.04,0.039 0.051,0.073Z" style="fill:#3f100e;fill-rule:nonzero;"/>
        </g>
        <g transform="matrix(65,0,0,65,506.627,774.93)">
            <path d="M0.438,-0.38l-0.001,0.343c-0.014,0.013 -0.034,0.024 -0.06,0.033c-0.025,0.008 -0.055,0.013 -0.091,0.013c-0.036,-0 -0.066,-0.008 -0.091,-0.024c-0.028,-0.017 -0.043,-0.042 -0.043,-0.073l0,-0.315l-0.113,0c-0.024,-0.033 -0.036,-0.07 -0.036,-0.11c0,-0.027 0.005,-0.05 0.013,-0.07c0.009,-0.02 0.02,-0.036 0.032,-0.047l0.505,0c0.01,0.015 0.017,0.033 0.024,0.053c0.006,0.021 0.009,0.042 0.009,0.062c-0,0.039 -0.009,0.067 -0.025,0.085c-0.017,0.018 -0.04,0.027 -0.069,0.027l-0.143,0c-0.001,0.002 -0.001,0.005 -0.001,0.007c-0,0.006 0.003,0.01 0.01,0.012c0.007,0.002 0.022,0.004 0.046,0.004l0.033,-0Z" style="fill:#3f100e;fill-rule:nonzero;"/>
        </g>
        <g transform="matrix(65,0,0,65,544.936,774.93)">
            <path d="M0.289,-0.347c0.001,0.001 0.005,0.001 0.011,0.001c0.006,0 0.011,-0.002 0.014,-0.007c0.003,-0.005 0.005,-0.013 0.005,-0.024l-0,-0.018c-0,-0.011 -0.002,-0.02 -0.004,-0.025c-0.003,-0.005 -0.008,-0.007 -0.014,-0.007c-0.006,-0 -0.011,0 -0.013,0.002c0,0.001 0.001,0.004 0.001,0.008l-0,0.07Zm0.252,0.111l0.084,0.087c-0.006,0.05 -0.022,0.089 -0.048,0.117c-0.026,0.027 -0.063,0.041 -0.109,0.041c-0.035,-0 -0.065,-0.009 -0.091,-0.025c-0.032,-0.021 -0.057,-0.054 -0.073,-0.1l-0.018,-0.048c-0.014,0 -0.031,-0.002 -0.052,-0.005c-0.002,0.003 -0.004,0.006 -0.004,0.011c0,0.009 0.014,0.014 0.04,0.015l0.028,0.071l-0,0.041c-0.038,0.027 -0.086,0.04 -0.144,0.04c-0.042,-0 -0.076,-0.009 -0.101,-0.026c-0.025,-0.017 -0.037,-0.042 -0.037,-0.075l-0,-0.464c-0,-0.014 0.013,-0.028 0.039,-0.042c0.027,-0.013 0.061,-0.024 0.104,-0.033c0.042,-0.008 0.085,-0.012 0.128,-0.012c0.097,-0 0.174,0.02 0.229,0.06c0.058,0.042 0.087,0.101 0.087,0.177c-0,0.044 -0.013,0.081 -0.037,0.112c-0.025,0.031 -0.056,0.053 -0.093,0.065c-0,0.01 0.006,0.016 0.018,0.016c0.013,-0 0.029,-0.008 0.05,-0.023Z" style="fill:#3f100e;fill-rule:nonzero;"/>
        </g>
        <g transform="matrix(65,0,0,65,586.037,774.93)">
            <path d="M0.319,-0.321c0.002,0.003 0.007,0.004 0.012,0.004c0.006,0 0.01,-0.001 0.014,-0.003c-0.008,-0.05 -0.014,-0.079 -0.017,-0.088c-0.003,-0.01 -0.009,-0.014 -0.016,-0.014c-0.003,-0 -0.007,0.001 -0.012,0.003l0.019,0.098Zm-0.097,0.147c-0.003,0.004 -0.005,0.008 -0.005,0.012c0,0.01 0.009,0.018 0.027,0.024c0.018,0.006 0.039,0.01 0.065,0.012c0.004,0.047 0.008,0.074 0.013,0.08c-0.006,0.012 -0.023,0.024 -0.051,0.036c-0.028,0.013 -0.06,0.019 -0.095,0.019c-0.046,-0 -0.086,-0.01 -0.119,-0.03c-0.034,-0.02 -0.05,-0.046 -0.05,-0.078c-0,-0.008 0.001,-0.016 0.002,-0.022l0.104,-0.465c0.026,-0.017 0.057,-0.03 0.094,-0.039c0.036,-0.009 0.073,-0.014 0.112,-0.014c0.056,-0 0.104,0.009 0.144,0.028c0.045,0.022 0.073,0.053 0.082,0.093l0.112,0.461c-0.034,0.044 -0.089,0.066 -0.166,0.066c-0.037,-0 -0.068,-0.007 -0.094,-0.02c-0.026,-0.014 -0.041,-0.033 -0.045,-0.057l-0.011,-0.06c0.02,-0 0.039,-0.004 0.057,-0.011c0.018,-0.007 0.027,-0.015 0.027,-0.023c0,-0.005 -0.002,-0.009 -0.006,-0.012c-0.012,0.008 -0.028,0.015 -0.045,0.02c-0.018,0.004 -0.035,0.007 -0.05,0.007c-0.044,-0 -0.078,-0.009 -0.102,-0.027Z" style="fill:#3f100e;fill-rule:nonzero;"/>
        </g>
        <g transform="matrix(65,0,0,65,623.773,774.93)">
            <path d="M0.438,-0.38l-0.001,0.343c-0.014,0.013 -0.034,0.024 -0.06,0.033c-0.025,0.008 -0.055,0.013 -0.091,0.013c-0.036,-0 -0.066,-0.008 -0.091,-0.024c-0.028,-0.017 -0.043,-0.042 -0.043,-0.073l0,-0.315l-0.113,0c-0.024,-0.033 -0.036,-0.07 -0.036,-0.11c0,-0.027 0.005,-0.05 0.013,-0.07c0.009,-0.02 0.02,-0.036 0.032,-0.047l0.505,0c0.01,0.015 0.017,0.033 0.024,0.053c0.006,0.021 0.009,0.042 0.009,0.062c-0,0.039 -0.009,0.067 -0.025,0.085c-0.017,0.018 -0.04,0.027 -0.069,0.027l-0.143,0c-0.001,0.002 -0.001,0.005 -0.001,0.007c-0,0.006 0.003,0.01 0.01,0.012c0.007,0.002 0.022,0.004 0.046,0.004l0.033,-0Z" style="fill:#3f100e;fill-rule:nonzero;"/>
        </g>
        <g transform="matrix(65,0,0,65,660.653,774.93)">
            <path d="M0.351,-0.337c0,-0.032 -0.001,-0.055 -0.004,-0.067c-0.003,-0.012 -0.009,-0.018 -0.016,-0.018c-0.005,-0 -0.01,0.001 -0.014,0.005c0.001,0.005 0.002,0.013 0.003,0.023c0.002,0.01 0.002,0.031 0.002,0.062l0,0.032c0,0.022 -0,0.038 -0.001,0.049c-0.001,0.01 -0.002,0.018 -0.003,0.025c0,0.004 -0,0.008 -0.001,0.012c0.004,0.003 0.009,0.005 0.014,0.005c0.007,0 0.013,-0.006 0.016,-0.018c0.003,-0.013 0.004,-0.035 0.004,-0.067l0,-0.043Zm-0.019,0.353c-0.058,-0 -0.112,-0.012 -0.16,-0.036c-0.048,-0.024 -0.087,-0.061 -0.117,-0.11c-0.029,-0.049 -0.044,-0.111 -0.044,-0.185c-0,-0.107 0.032,-0.191 0.096,-0.251c0.058,-0.053 0.131,-0.08 0.222,-0.08c0.098,0 0.175,0.031 0.232,0.092c0.057,0.06 0.086,0.14 0.086,0.239c-0,0.11 -0.031,0.194 -0.092,0.252c-0.055,0.052 -0.13,0.079 -0.223,0.079Z" style="fill:#3f100e;fill-rule:nonzero;"/>
        </g>
        <g transform="matrix(65,0,0,65,703.405,774.93)">
            <path d="M0.289,-0.347c0.001,0.001 0.005,0.001 0.011,0.001c0.006,0 0.011,-0.002 0.014,-0.007c0.003,-0.005 0.005,-0.013 0.005,-0.024l-0,-0.018c-0,-0.011 -0.002,-0.02 -0.004,-0.025c-0.003,-0.005 -0.008,-0.007 -0.014,-0.007c-0.006,-0 -0.011,0 -0.013,0.002c0,0.001 0.001,0.004 0.001,0.008l-0,0.07Zm0.252,0.111l0.084,0.087c-0.006,0.05 -0.022,0.089 -0.048,0.117c-0.026,0.027 -0.063,0.041 -0.109,0.041c-0.035,-0 -0.065,-0.009 -0.091,-0.025c-0.032,-0.021 -0.057,-0.054 -0.073,-0.1l-0.018,-0.048c-0.014,0 -0.031,-0.002 -0.052,-0.005c-0.002,0.003 -0.004,0.006 -0.004,0.011c0,0.009 0.014,0.014 0.04,0.015l0.028,0.071l-0,0.041c-0.038,0.027 -0.086,0.04 -0.144,0.04c-0.042,-0 -0.076,-0.009 -0.101,-0.026c-0.025,-0.017 -0.037,-0.042 -0.037,-0.075l-0,-0.464c-0,-0.014 0.013,-0.028 0.039,-0.042c0.027,-0.013 0.061,-0.024 0.104,-0.033c0.042,-0.008 0.085,-0.012 0.128,-0.012c0.097,-0 0.174,0.02 0.229,0.06c0.058,0.042 0.087,0.101 0.087,0.177c-0,0.044 -0.013,0.081 -0.037,0.112c-0.025,0.031 -0.056,0.053 -0.093,0.065c-0,0.01 0.006,0.016 0.018,0.016c0.013,-0 0.029,-0.008 0.05,-0.023Z" style="fill:#3f100e;fill-rule:nonzero;"/>
        </g>
    </g>
    <path d="M507.264,1353.81l-15.043,0l-0,-55.713l37.709,0c4.055,0 7.495,0.419 10.32,1.257c2.825,0.838 5.122,2.028 6.893,3.568c1.771,1.541 3.055,3.4 3.852,5.576c0.798,2.176 1.196,4.602 1.196,7.278c0,2.352 -0.331,4.406 -0.993,6.163c-0.662,1.758 -1.555,3.265 -2.676,4.522c-1.122,1.257 -2.426,2.318 -3.913,3.183c-1.487,0.865 -3.055,1.581 -4.704,2.149l18.247,22.017l-17.598,0l-16.868,-20.517l-16.422,-0l-0,20.517Zm29.722,-38.115c-0,-1.081 -0.142,-2 -0.426,-2.757c-0.284,-0.757 -0.777,-1.372 -1.48,-1.845c-0.703,-0.473 -1.642,-0.818 -2.818,-1.034c-1.176,-0.216 -2.643,-0.325 -4.4,-0.325l-20.598,0l-0,11.922l20.598,-0c1.757,-0 3.224,-0.109 4.4,-0.325c1.176,-0.216 2.115,-0.561 2.818,-1.034c0.703,-0.473 1.196,-1.088 1.48,-1.845c0.284,-0.757 0.426,-1.676 0.426,-2.757Z" style="fill:#3f100e;fill-rule:nonzero;"/>
</svg>
