<svg width="3000" height="3000" viewBox="0 0 3000 3000" fill="none" xmlns="http://www.w3.org/2000/svg">
<path d="M1607.41 1882.9L1555.98 2414.4C1555.6 2418.61 1553.94 2422.61 1551.23 2425.86L1549.91 2427.46L1438.42 2560.9C1435.19 2564.76 1431.19 2567.91 1426.68 2570.15C1422.17 2572.39 1417.24 2573.67 1412.21 2573.9C1407.17 2574.14 1402.15 2573.32 1397.45 2571.51C1392.75 2569.7 1388.47 2566.93 1384.9 2563.38C1381.32 2559.83 1378.53 2555.57 1376.68 2550.88C1374.84 2546.2 1373.99 2541.18 1374.19 2536.14C1374.39 2531.11 1375.63 2526.17 1377.84 2521.64C1380.05 2517.11 1383.18 2513.09 1387.02 2509.84L1514.49 2401.93L1565.09 1878.94C1568.76 1851.15 1608.9 1854.45 1607.41 1882.9Z" fill="#FFFAF4"/>
<path d="M1410.49 2578.12C1402.18 2578.08 1394.09 2575.5 1387.3 2570.73C1380.5 2565.95 1375.33 2559.21 1372.48 2551.42C1369.62 2543.62 1369.22 2535.14 1371.33 2527.1C1373.44 2519.07 1377.95 2511.88 1384.27 2506.49L1510.34 2399.73L1560.8 1878.49C1561.09 1875.15 1562.05 1871.9 1563.61 1868.94C1565.18 1865.97 1567.31 1863.35 1569.9 1861.22C1572.48 1859.08 1575.47 1857.49 1578.68 1856.52C1581.89 1855.55 1585.25 1855.22 1588.59 1855.57C1591.94 1855.81 1595.2 1856.72 1598.19 1858.24C1601.18 1859.77 1603.84 1861.89 1605.99 1864.46C1608.15 1867.04 1609.76 1870.02 1610.74 1873.23C1611.72 1876.44 1612.04 1879.82 1611.68 1883.16V1883.36L1560.11 2414.83C1559.64 2419.87 1557.64 2424.65 1554.38 2428.53L1553.06 2430.1L1441.6 2563.56C1437.8 2568.12 1433.04 2571.78 1427.66 2574.29C1422.28 2576.81 1416.42 2578.11 1410.49 2578.12V2578.12ZM1586.12 1864.02C1581.85 1863.89 1577.7 1865.44 1574.54 1868.33C1571.39 1871.22 1569.49 1875.22 1569.25 1879.49L1518.76 2402.22C1518.66 2403.34 1518.13 2404.36 1517.27 2405.09L1389.8 2512.96C1386.23 2515.98 1383.37 2519.75 1381.4 2523.99C1379.44 2528.23 1378.42 2532.84 1378.42 2537.52C1378.42 2542.19 1379.44 2546.81 1381.4 2551.05C1383.37 2555.29 1386.23 2559.05 1389.8 2562.07C1396.33 2567.53 1404.76 2570.17 1413.24 2569.41C1421.72 2568.65 1429.55 2564.56 1435.01 2558.03L1547.79 2423C1549.95 2420.44 1551.27 2417.3 1551.6 2413.97L1603.03 1882.59C1603.3 1880.36 1603.11 1878.1 1602.48 1875.94C1601.85 1873.79 1600.78 1871.79 1599.35 1870.06C1597.92 1868.33 1596.15 1866.91 1594.15 1865.89C1592.15 1864.86 1589.97 1864.26 1587.73 1864.11L1586.12 1864.02Z" fill="#431426"/>
<path d="M1555.98 2414.4C1555.98 2414.4 1607.81 2434.22 1620.91 2499.67C1629.28 2543.34 1635.21 2587.45 1638.67 2631.78L1593.72 2634.3L1580.94 2570.01L1553.23 2636.85C1553.23 2636.85 1339.31 2653.36 1322.78 2638.2C1306.25 2623.04 1326.91 2560.64 1387.02 2509.75C1387.02 2509.75 1366.36 2534.02 1395.62 2541.13C1436.7 2551.1 1555.98 2414.4 1555.98 2414.4Z" fill="#FF89A4"/>
<path d="M1387.59 2648.86C1353.38 2648.86 1326.02 2646.97 1319.89 2641.32C1315.19 2637.03 1312.84 2629.86 1313.01 2620.87C1313.53 2594.33 1335.93 2547.2 1384.24 2506.26C1385.06 2505.55 1386.12 2505.19 1387.2 2505.23C1388.29 2505.28 1389.31 2505.73 1390.07 2506.5C1390.84 2507.26 1391.28 2508.29 1391.32 2509.37C1391.36 2510.45 1390.99 2511.51 1390.29 2512.33C1388.08 2514.97 1382.75 2523.05 1384.56 2528.84C1385.73 2532.45 1389.77 2535.11 1396.53 2536.77C1397.82 2537.07 1399.14 2537.21 1400.46 2537.2C1435.13 2537.2 1521.2 2447.46 1552.66 2411.42C1553.24 2410.75 1554 2410.28 1554.86 2410.06C1555.72 2409.85 1556.62 2409.9 1557.44 2410.21C1559.65 2411.07 1611.62 2431.68 1625.03 2498.69C1633.4 2542.55 1639.36 2586.84 1642.88 2631.35C1642.95 2632.51 1642.56 2633.64 1641.8 2634.5C1641.06 2635.34 1640.04 2635.85 1638.93 2635.94L1593.97 2638.43C1592.94 2638.49 1591.92 2638.17 1591.1 2637.54C1590.28 2636.91 1589.72 2636 1589.5 2634.99L1579.51 2584.53L1557.21 2638.29C1556.92 2639.03 1556.42 2639.67 1555.78 2640.13C1555.13 2640.6 1554.37 2640.87 1553.57 2640.92C1530.51 2642.87 1448.31 2648.86 1387.59 2648.86ZM1375.64 2525.88C1340.66 2560.27 1322.04 2598.46 1321.61 2621.04C1321.46 2627.6 1322.9 2632.5 1325.67 2634.99C1335.45 2643.93 1448.16 2640.49 1550.25 2632.7L1576.96 2568.32C1577.32 2567.47 1577.94 2566.76 1578.73 2566.29C1579.53 2565.81 1580.45 2565.6 1581.37 2565.68C1582.28 2565.77 1583.14 2566.16 1583.83 2566.78C1584.51 2567.4 1584.97 2568.22 1585.15 2569.12L1597.18 2629.81L1634.06 2627.74C1630.53 2585.06 1624.74 2542.59 1616.7 2500.53C1605.92 2446.75 1567.61 2424.71 1557.13 2419.61C1537.59 2441.76 1435.18 2555.14 1394.58 2545.25C1384.7 2542.85 1378.6 2538.26 1376.45 2531.61C1375.86 2529.76 1375.59 2527.83 1375.64 2525.88V2525.88Z" fill="#431426"/>
<path d="M1471.14 2438.5L1425.99 2476.69C1425.99 2476.69 1461.54 2462.76 1492.92 2479.87C1524.29 2496.97 1552.26 2552.87 1578.45 2523.05C1601.71 2496.6 1541.83 2450.3 1518.08 2443.17C1502.83 2438.86 1486.94 2437.28 1471.14 2438.5V2438.5Z" fill="#FF89A4"/>
<path d="M1562.17 2535.94C1547.85 2535.94 1534.49 2522.56 1520.25 2508.41C1510.68 2498.89 1500.8 2489.06 1490.86 2483.65C1461.69 2467.72 1427.82 2480.58 1427.56 2480.78C1426.62 2481.14 1425.58 2481.16 1424.62 2480.82C1423.67 2480.49 1422.86 2479.83 1422.34 2478.96C1421.83 2478.09 1421.63 2477.07 1421.8 2476.07C1421.96 2475.07 1422.47 2474.17 1423.24 2473.51L1468.37 2435.34C1469.02 2434.77 1469.83 2434.42 1470.69 2434.34C1487.08 2433.01 1503.58 2434.65 1519.39 2439.18C1538.53 2444.91 1579.22 2474.17 1586.81 2500.73C1588.26 2505.01 1588.56 2509.6 1587.68 2514.04C1586.79 2518.47 1584.75 2522.6 1581.77 2526C1579.52 2528.9 1576.69 2531.29 1573.46 2533.02C1570.22 2534.75 1566.66 2535.79 1563 2536.05L1562.17 2535.94ZM1457.51 2467C1470.58 2466.83 1483.49 2469.96 1495.04 2476.09C1506.04 2482.1 1516.39 2492.39 1526.36 2502.33C1539.51 2515.37 1552 2527.72 1562.69 2527.34C1565.17 2527.11 1567.58 2526.35 1569.75 2525.12C1571.93 2523.89 1573.81 2522.22 1575.3 2520.21C1577.32 2517.9 1578.69 2515.08 1579.26 2512.06C1579.83 2509.03 1579.58 2505.91 1578.53 2503.02C1571.91 2479.92 1533.58 2452.36 1516.9 2447.35C1502.61 2443.32 1487.74 2441.76 1472.92 2442.73L1442.86 2468.18C1447.71 2467.42 1452.6 2467.03 1457.51 2467V2467Z" fill="#431426"/>
<path d="M1554.92 2514.16C1552.28 2514.17 1549.7 2513.39 1547.5 2511.93C1545.3 2510.46 1543.58 2508.38 1542.57 2505.94C1541.55 2503.5 1541.28 2500.82 1541.8 2498.23C1542.31 2495.63 1543.58 2493.25 1545.44 2491.38C1547.31 2489.51 1549.69 2488.24 1552.28 2487.72C1554.87 2487.2 1557.56 2487.46 1560 2488.47C1562.44 2489.48 1564.53 2491.2 1565.99 2493.39C1567.46 2495.59 1568.25 2498.17 1568.25 2500.81C1568.25 2504.35 1566.84 2507.74 1564.35 2510.24C1561.85 2512.75 1558.46 2514.16 1554.92 2514.16ZM1554.92 2496.09C1553.98 2496.08 1553.06 2496.35 1552.27 2496.87C1551.48 2497.4 1550.87 2498.14 1550.51 2499.01C1550.14 2499.88 1550.05 2500.84 1550.23 2501.76C1550.41 2502.69 1550.86 2503.54 1551.53 2504.2C1552.2 2504.87 1553.05 2505.33 1553.97 2505.51C1554.9 2505.69 1555.86 2505.59 1556.73 2505.23C1557.6 2504.87 1558.34 2504.25 1558.86 2503.47C1559.38 2502.68 1559.66 2501.76 1559.65 2500.81C1559.65 2499.56 1559.15 2498.36 1558.27 2497.47C1557.38 2496.58 1556.18 2496.09 1554.92 2496.09V2496.09Z" fill="#431426"/>
<path d="M1958.92 2170.25C1996.17 2165.15 2030.78 2152.26 2065.36 2139.22C2080.09 2133.49 2094.47 2127.56 2109.06 2121.17L2287.44 2157.13C2292.72 2158.2 2298.16 2158.16 2303.41 2157C2308.67 2155.85 2313.63 2153.61 2317.97 2150.43C2322.31 2147.25 2325.94 2143.2 2328.62 2138.54C2331.31 2133.87 2332.99 2128.7 2333.56 2123.35C2334.13 2118 2333.58 2112.59 2331.94 2107.46C2330.3 2102.34 2327.6 2097.61 2324.03 2093.59C2320.46 2089.57 2316.09 2086.33 2311.19 2084.1C2306.3 2081.86 2300.99 2080.67 2295.61 2080.6L2108.74 2077.91C2104.95 2077.37 2101.08 2078 2097.65 2079.71C2058.86 2096.73 2018.37 2113.04 1977.31 2123.55C1964.25 2126.42 1949.58 2130.34 1937.2 2127.88C1931.81 2125.33 1926.87 2121.92 1922.59 2117.76C1899.12 2095.93 1878.95 2066.48 1860.7 2039.14C1841.82 2010.49 1823.74 1980.15 1807.18 1950.06C1792.85 1925.71 1757.18 1944.76 1769.78 1970.29C1796.15 2017.71 1823.77 2063.52 1856.46 2106.96C1867.75 2122.21 1880.38 2136.42 1894.19 2149.42C1903.16 2157.16 1911.16 2163.75 1923.5 2168.13C1934.99 2172.12 1947.46 2171.54 1958.92 2170.25Z" fill="#FFFAF4"/>
<path d="M1944.02 2175.5C1936.53 2175.62 1929.08 2174.51 1921.96 2172.2C1909.01 2167.56 1900.73 2160.91 1891.21 2152.66C1877.17 2139.52 1864.34 2125.13 1852.88 2109.68C1824.4 2071.83 1797.58 2029.46 1765.86 1972.47C1758.01 1956.62 1765.86 1943.41 1776.18 1937.8C1779.1 1936.19 1782.31 1935.18 1785.62 1934.82C1788.94 1934.46 1792.29 1934.76 1795.49 1935.71C1798.69 1936.65 1801.67 1938.22 1804.25 1940.33C1806.84 1942.43 1808.98 1945.03 1810.56 1947.97C1827.75 1979.14 1845.71 2009.03 1863.97 2036.79C1883.36 2065.82 1902.68 2093.64 1925.2 2114.61C1928.98 2118.29 1933.31 2121.36 1938.03 2123.72C1948.29 2125.64 1960.32 2122.92 1971.96 2120.31L1976.23 2119.37C2019.03 2108.39 2060.52 2091.26 2095.48 2075.9C2099.59 2073.86 2104.21 2073.06 2108.77 2073.61L2295.55 2076.3C2301.56 2076.34 2307.49 2077.64 2312.97 2080.11C2318.44 2082.59 2323.33 2086.18 2327.33 2090.66C2331.33 2095.14 2334.35 2100.41 2336.19 2106.13C2338.02 2111.85 2338.64 2117.89 2338 2123.86C2337.36 2129.83 2335.48 2135.6 2332.47 2140.8C2329.46 2146 2325.4 2150.51 2320.54 2154.04C2315.68 2157.57 2310.14 2160.05 2304.27 2161.31C2298.39 2162.56 2292.32 2162.58 2286.44 2161.34L2109.37 2125.64C2095.39 2131.77 2081.44 2137.53 2066.77 2143.23C2034.42 2155.44 1997.8 2169.25 1959.35 2174.52C1954.26 2175.13 1949.14 2175.46 1944.02 2175.5V2175.5ZM1788.7 1943.07C1785.69 1943.07 1782.73 1943.83 1780.1 1945.28C1778.09 1946.3 1776.31 1947.72 1774.87 1949.46C1773.42 1951.19 1772.35 1953.21 1771.72 1955.37C1771.09 1957.54 1770.9 1959.81 1771.18 1962.05C1771.46 1964.29 1772.19 1966.45 1773.34 1968.4C1804.86 2024.9 1831.39 2066.9 1859.58 2104.38C1870.72 2119.42 1883.18 2133.43 1896.83 2146.24C1905.86 2154.06 1913.22 2159.97 1924.71 2164.09C1935.6 2167.82 1947.29 2167.22 1958.29 2165.98C1995.77 2160.85 2031.87 2147.22 2063.76 2135.18C2078.71 2129.45 2092.95 2123.52 2107.22 2117.25C2108.03 2116.88 2108.93 2116.78 2109.8 2116.96L2288.42 2152.92C2297.35 2154.72 2306.63 2152.9 2314.22 2147.86C2321.82 2142.82 2327.1 2134.97 2328.91 2126.04C2329.9 2121.1 2329.79 2116 2328.59 2111.1C2327.39 2106.2 2325.13 2101.63 2321.97 2097.7C2318.81 2093.78 2314.82 2090.6 2310.29 2088.38C2305.76 2086.17 2300.8 2084.98 2295.76 2084.9L2108.83 2082.2C2105.92 2081.8 2102.95 2082.18 2100.23 2083.29C2100.04 2083.44 2099.83 2083.55 2099.6 2083.64C2064.27 2099.17 2022.24 2116.53 1978.57 2127.7L1974.22 2128.68C1962.16 2131.4 1948.43 2134.41 1936.43 2132.12L1935.8 2131.94C1929.88 2129.18 1924.46 2125.46 1919.75 2120.94C1896.52 2099.31 1876.77 2071.03 1857.18 2041.52C1838.78 2013.47 1820.7 1983.41 1803.45 1952.12C1802.07 1949.4 1799.96 1947.11 1797.35 1945.51C1794.75 1943.91 1791.75 1943.07 1788.7 1943.07Z" fill="#431426"/>
<path d="M2097.65 2079.71C2097.65 2079.71 2074.1 2042.69 2124.76 1916.56L2167.54 1928.43L2163.24 1982.87L2210.74 1945.62C2210.74 1945.62 2281.89 1961.89 2333.12 2005.79C2384.35 2049.68 2417.3 2102.15 2410.79 2123.26C2404.29 2144.38 2337.85 2176.27 2250.34 2149.65C2250.34 2149.65 2287.96 2153.12 2286.76 2126.73C2285.76 2104.29 2210.6 2079.37 2097.65 2079.71Z" fill="#FF89A4"/>
<path d="M2315.96 2164.01C2293.29 2163.9 2270.77 2160.46 2249.11 2153.78C2248.09 2153.47 2247.22 2152.79 2246.67 2151.88C2246.12 2150.97 2245.93 2149.89 2246.13 2148.84C2246.33 2147.79 2246.92 2146.86 2247.77 2146.22C2248.62 2145.58 2249.68 2145.28 2250.74 2145.38C2250.91 2145.38 2269.62 2146.96 2278.25 2138.68C2279.79 2137.16 2280.97 2135.32 2281.7 2133.29C2282.43 2131.25 2282.69 2129.08 2282.46 2126.93C2281.66 2108.91 2211.89 2083.95 2099.95 2083.95H2097.65C2096.86 2083.95 2096.08 2083.72 2095.41 2083.31C2094.73 2082.9 2094.18 2082.31 2093.81 2081.6C2092.9 2079.82 2071.98 2036.53 2120.78 1914.9C2121.17 1913.92 2121.91 1913.12 2122.85 1912.65C2123.8 1912.18 2124.89 1912.07 2125.91 1912.35L2168.68 1924.21C2169.65 1924.48 2170.48 1925.08 2171.05 1925.9C2171.62 1926.72 2171.89 1927.72 2171.81 1928.71L2168.31 1973.41L2208.19 1942.21C2208.7 1941.81 2209.28 1941.54 2209.91 1941.4C2210.53 1941.26 2211.18 1941.26 2211.8 1941.41C2214.67 1942.06 2284.58 1958.4 2336.04 2002.46C2387.5 2046.53 2422.43 2100.34 2415.01 2124.52C2409.3 2142.72 2370.45 2164.01 2315.96 2164.01ZM2273.61 2151.14C2350.34 2166.9 2402.03 2137.19 2406.67 2122C2412.17 2104.15 2382.14 2053.24 2330.34 2009C2285.18 1970.32 2223.47 1953.24 2211.75 1950.26L2165.9 1986.28C2165.24 1986.79 2164.45 1987.1 2163.61 1987.17C2162.78 1987.24 2161.94 1987.07 2161.2 1986.68C2160.47 1986.28 2159.87 1985.68 2159.47 1984.95C2159.07 1984.21 2158.9 1983.38 2158.97 1982.55L2162.98 1931.61L2127.31 1921.72C2088.14 2021 2097.37 2065.21 2100.61 2075.41C2204.64 2075.41 2289.71 2098.33 2291.06 2126.56C2291.34 2129.94 2290.87 2133.34 2289.68 2136.51C2288.49 2139.69 2286.61 2142.56 2284.18 2144.92C2281.13 2147.71 2277.53 2149.83 2273.61 2151.14V2151.14Z" fill="#431426"/>
<path d="M2148.45 2129.11L2200.6 2139.62C2200.6 2139.62 2175.9 2128.16 2169.83 2095.01C2163.75 2061.86 2188.14 2008.42 2150.89 2006.9C2117.77 2005.59 2119.37 2076.76 2128.22 2098.33C2137.08 2119.91 2148.45 2129.11 2148.45 2129.11Z" fill="#FF89A4"/>
<path d="M2200.6 2143.92H2199.77L2147.62 2133.41C2146.94 2133.29 2146.31 2132.99 2145.78 2132.55C2145.27 2132.15 2133.32 2122.43 2124.12 2100.06C2116.99 2082.64 2114.27 2035.45 2129.22 2014.1C2131.41 2010.9 2134.28 2008.23 2137.62 2006.28C2140.97 2004.32 2144.7 2003.13 2148.56 2002.79C2152.42 2002.46 2156.31 2002.98 2159.94 2004.33C2163.57 2005.67 2166.86 2007.81 2169.57 2010.58C2178.59 2020.98 2176.73 2039.08 2174.78 2058.25C2173.49 2070.86 2172.14 2083.9 2174.06 2094.33C2179.62 2124.67 2201.51 2135.39 2202.43 2135.84C2203.33 2136.25 2204.06 2136.95 2204.5 2137.83C2204.95 2138.71 2205.07 2139.72 2204.85 2140.68C2204.64 2141.64 2204.1 2142.5 2203.32 2143.1C2202.54 2143.71 2201.58 2144.03 2200.6 2144.01V2143.92ZM2150.43 2125.13L2183.46 2131.8C2174.1 2121.81 2167.9 2109.29 2165.61 2095.79C2163.46 2084.15 2164.87 2070.49 2166.21 2057.28C2167.9 2040.78 2169.65 2023.7 2163.09 2016.11C2161.46 2014.48 2159.51 2013.2 2157.35 2012.38C2155.2 2011.55 2152.9 2011.18 2150.6 2011.29C2147.74 2011.18 2144.9 2011.83 2142.37 2013.2C2139.85 2014.56 2137.75 2016.57 2136.27 2019.03C2123.35 2037.48 2125.9 2081.72 2132.09 2096.82C2136.16 2107.43 2142.4 2117.08 2150.43 2125.13V2125.13Z" fill="#431426"/>
<path d="M2148.49 2050.09C2148.04 2050.11 2147.59 2050.11 2147.14 2050.09C2144.62 2049.83 2142.23 2048.83 2140.28 2047.22C2138.33 2045.6 2136.9 2043.44 2136.18 2041.01C2135.45 2038.58 2135.47 2035.99 2136.22 2033.57C2136.98 2031.15 2138.43 2029.01 2140.41 2027.42C2141.71 2026.36 2143.21 2025.57 2144.82 2025.09C2146.43 2024.61 2148.12 2024.46 2149.8 2024.63C2151.47 2024.81 2153.09 2025.31 2154.56 2026.12C2156.04 2026.92 2157.34 2028.01 2158.4 2029.31C2159.92 2031.19 2160.88 2033.45 2161.17 2035.85C2161.45 2038.25 2161.05 2040.68 2160.02 2042.86C2158.98 2045.03 2157.34 2046.88 2155.3 2048.17C2153.26 2049.46 2150.9 2050.14 2148.49 2050.14V2050.09ZM2145.82 2034.04C2144.95 2034.74 2144.4 2035.75 2144.27 2036.86C2144.15 2037.96 2144.47 2039.07 2145.16 2039.94C2145.88 2040.81 2146.91 2041.36 2148.03 2041.49C2149.14 2041.58 2150.24 2041.25 2151.12 2040.57C2151.99 2039.86 2152.53 2038.83 2152.64 2037.71C2152.73 2036.88 2152.58 2036.04 2152.19 2035.3C2151.81 2034.56 2151.21 2033.96 2150.48 2033.56C2149.74 2033.16 2148.91 2032.99 2148.08 2033.07C2147.25 2033.15 2146.46 2033.48 2145.82 2034.01V2034.04Z" fill="#431426"/>
<path d="M1920.18 415.016C1914.34 417.051 1909.5 421.23 1906.63 426.706C1903.76 432.182 1903.08 438.544 1904.72 444.503C1906.37 450.461 1910.22 455.571 1915.5 458.794C1920.77 462.018 1927.08 463.115 1933.13 461.863C1941.33 460.172 2137.45 423.01 2217.91 719.418C2275.52 931.1 2098.31 1091.7 2096.45 1093.3C2091.62 1097.59 2088.69 1103.62 2088.31 1110.07C2087.93 1116.52 2090.12 1122.85 2094.41 1127.68C2098.7 1132.51 2104.74 1135.44 2111.18 1135.82C2117.63 1136.2 2123.97 1134.01 2128.8 1129.72C2130.86 1127.86 2180.06 1083.73 2221.54 1009.98C2277.04 911.388 2292.06 806.549 2264.95 706.667C2216.93 529.74 2127.59 459.399 2061.12 431.606C1987.51 400.776 1925.39 413.784 1922.79 414.415C1921.91 414.571 1921.04 414.772 1920.18 415.016V415.016Z" fill="#FFFAF4"/>
<path d="M2112.76 1140.26C2112.18 1140.26 2111.61 1140.26 2111.04 1140.26C2105.34 1139.97 2099.85 1137.99 2095.29 1134.57C2090.72 1131.15 2087.28 1126.44 2085.4 1121.06C2083.53 1115.67 2083.31 1109.84 2084.76 1104.32C2086.22 1098.81 2089.3 1093.85 2093.59 1090.09C2095.36 1088.51 2270.57 929.637 2213.93 720.475C2134.5 427.965 1942.3 464.324 1934.14 466.015C1927.03 467.464 1919.64 466.166 1913.46 462.382C1907.27 458.598 1902.75 452.61 1900.81 445.624C1898.86 438.639 1899.64 431.176 1902.98 424.74C1906.32 418.305 1911.98 413.375 1918.81 410.945C1919.84 410.595 1920.89 410.308 1921.96 410.086C1924.63 409.513 1988.03 396.247 2062.87 427.592C2130.23 455.815 2220.72 526.93 2269.17 705.519C2296.56 806.461 2281.43 912.474 2225.36 1012.1C2183.47 1086.59 2133.67 1131.06 2131.72 1132.92C2126.52 1137.62 2119.77 1140.23 2112.76 1140.26V1140.26ZM1961.21 455.471C2021.21 455.471 2158.17 482.777 2222.18 718.527C2280.37 932.846 2101.21 1095.13 2099.38 1096.74C2097.34 1098.47 2095.67 1100.59 2094.46 1102.97C2093.26 1105.35 2092.54 1107.96 2092.36 1110.62C2092.17 1113.29 2092.52 1115.96 2093.38 1118.49C2094.24 1121.02 2095.6 1123.35 2097.37 1125.35C2099.15 1127.34 2101.31 1128.97 2103.72 1130.12C2106.13 1131.27 2108.74 1131.93 2111.41 1132.05C2114.08 1132.18 2116.75 1131.77 2119.26 1130.86C2121.77 1129.94 2124.07 1128.53 2126.02 1126.71C2128.08 1124.9 2176.71 1081.29 2217.88 1008.12C2272.84 910.497 2287.71 806.719 2260.86 708.012C2213.3 532.775 2125.11 463.236 2059.52 435.815C1987.14 405.501 1926.32 418.252 1923.77 418.796C1923 418.968 1922.26 419.169 1921.53 419.398C1916.63 421.014 1912.54 424.455 1910.12 429.006C1907.69 433.557 1907.11 438.869 1908.5 443.837C1909.88 448.806 1913.13 453.049 1917.56 455.685C1922 458.321 1927.28 459.147 1932.3 457.992C1941.83 456.151 1951.51 455.23 1961.21 455.242V455.471Z" fill="#431426"/>
<path d="M1913.31 385.647C1913.31 385.647 1865.23 344.903 1790.67 358.026C1705.58 373.011 1686.98 406.391 1693.03 427.937C1693.03 427.937 1624.12 467.678 1661.11 503.665C1661.11 503.665 1638.19 521.945 1652.11 545.44C1663.89 565.497 1688.44 554.036 1688.44 554.036C1688.44 554.036 1680.33 581.542 1704.52 589.593C1724.37 596.212 1748.41 564.666 1760.42 524.352C1772.42 484.038 1829.64 506.244 1818.92 527.504C1808.21 548.764 1773.45 561.887 1776.18 587.674C1778.9 613.461 1817.66 636.382 1833.65 595.381C1849.64 554.38 1847.58 542.317 1870.7 537.847C1893.82 533.378 1920.64 530.914 1927.06 498.049C1927.06 498.049 1949.98 517.361 1963.1 508.422C1989.23 490.571 1956.63 460.716 1954.34 441.261C1952.04 421.806 1969.21 392.323 1956.48 376.793C1943.76 361.264 1913.31 385.647 1913.31 385.647Z" fill="#FFFAF4"/>
<path d="M1807.46 622.087C1806.26 622.081 1805.07 622.005 1803.88 621.858C1787.98 619.709 1773.62 604.667 1771.9 588.106C1770.01 570.169 1783.37 558.279 1796.12 546.789C1803.91 539.827 1811.24 533.237 1815.08 525.644C1815.81 524.18 1816.08 522.533 1815.86 520.914C1815.64 519.296 1814.94 517.78 1813.85 516.561C1809.09 510.172 1796.66 504.585 1784.54 506.733C1777.61 507.937 1768.52 512.206 1764.48 525.615C1754.91 557.706 1738.7 582.92 1722.11 591.515C1719.26 593.17 1716.1 594.215 1712.83 594.585C1709.56 594.955 1706.25 594.642 1703.11 593.664C1685.23 587.705 1681.85 572.003 1682.85 560.399C1672.11 562.978 1657.07 562.204 1648.33 547.534C1637.44 529.025 1646.52 512.063 1654.95 503.381C1651.61 499.824 1649.09 495.582 1647.56 490.95C1646.03 486.318 1645.53 481.408 1646.09 476.563C1649.16 452.151 1678.78 431.665 1688.1 425.791C1686.73 416.709 1688.77 407.444 1693.83 399.775C1703.25 384.79 1727.55 364.647 1789.81 353.702C1856.37 341.983 1901.87 371.667 1913.25 380.148C1921.64 374.131 1946.85 358.229 1959.72 373.959C1968.77 385.047 1965.19 400.835 1961.7 416.135C1959.63 425.218 1957.69 433.785 1958.49 440.661C1959.12 446.105 1962.79 453.039 1966.65 460.374C1975.42 476.935 1986.31 497.622 1965.42 511.948C1953.96 519.828 1937.92 511.117 1929.55 505.358C1920.95 532.864 1896.46 537.42 1876.46 541.116C1874.77 541.431 1873.08 541.718 1871.41 542.062C1855.91 544.927 1853.85 551.001 1846.17 573.207C1843.96 579.625 1841.19 587.533 1837.58 596.931C1829.24 618.534 1815.66 622.087 1807.46 622.087ZM1789.87 497.679C1802.05 497.679 1814.51 503.009 1820.76 511.432C1822.82 513.918 1824.12 516.955 1824.48 520.168C1824.84 523.381 1824.25 526.629 1822.79 529.512C1818.23 538.566 1809.93 545.987 1801.87 553.179C1790.13 563.723 1778.95 573.665 1780.47 587.189C1781.79 599.739 1793.05 611.715 1805.05 613.32C1815.51 614.695 1824.22 607.79 1829.7 593.808C1833.28 584.639 1835.88 577.075 1838.29 570.399C1846.08 547.849 1849.75 537.535 1870.01 533.609L1875.14 532.664C1896.94 528.624 1917.57 524.813 1922.96 497.192C1923.11 496.449 1923.46 495.758 1923.96 495.19C1924.46 494.622 1925.1 494.196 1925.82 493.955C1926.53 493.713 1927.29 493.657 1928.03 493.792C1928.77 493.927 1929.46 494.25 1930.04 494.728C1935.34 499.198 1952.44 510.63 1960.87 504.842C1974.48 495.559 1969.46 483.382 1959.38 464.471C1955.11 456.391 1951.1 448.799 1950.26 441.75C1949.29 433.412 1951.5 423.699 1953.65 414.301C1956.51 401.035 1959.78 387.311 1953.36 379.489C1943.65 367.598 1916.45 388.772 1916.11 389.001C1915.34 389.642 1914.37 389.994 1913.37 389.994C1912.37 389.994 1911.41 389.642 1910.64 389.001C1910.18 388.629 1863.1 349.748 1791.53 362.355C1729.24 373.3 1708.44 393.471 1701.33 404.531C1699.09 407.743 1697.56 411.403 1696.86 415.261C1696.15 419.118 1696.29 423.081 1697.27 426.88C1697.52 427.796 1697.47 428.771 1697.11 429.653C1696.75 430.534 1696.11 431.272 1695.29 431.751C1694.89 431.98 1657.81 453.67 1654.8 477.823C1653.77 486.018 1656.84 493.496 1664.2 500.745C1664.62 501.17 1664.94 501.679 1665.15 502.237C1665.36 502.796 1665.45 503.392 1665.41 503.986C1665.37 504.581 1665.21 505.161 1664.93 505.689C1664.65 506.217 1664.27 506.68 1663.8 507.049C1663.03 507.708 1644.09 523.38 1655.83 543.294C1665.46 559.683 1685.8 550.6 1686.66 550.228C1687.41 549.882 1688.24 549.758 1689.06 549.869C1689.88 549.981 1690.65 550.324 1691.28 550.858C1691.89 551.404 1692.35 552.113 1692.58 552.903C1692.81 553.694 1692.82 554.534 1692.59 555.328C1692.31 556.273 1686 578.966 1705.92 585.613C1707.97 586.213 1710.13 586.381 1712.25 586.104C1714.37 585.828 1716.41 585.115 1718.24 584.009C1732.56 576.559 1747.55 552.692 1756.32 523.208C1760.41 509.455 1769.93 500.602 1783.08 498.281C1785.32 497.878 1787.59 497.677 1789.87 497.679Z" fill="#431426"/>
<path d="M1690.13 582.291C1689.35 582.293 1688.57 582.078 1687.9 581.668C1687.23 581.259 1686.68 580.671 1686.32 579.97C1680.02 567.822 1684.15 553.467 1684.32 552.865C1684.48 552.324 1684.74 551.819 1685.1 551.379C1685.45 550.94 1685.89 550.575 1686.39 550.305C1686.88 550.035 1687.43 549.865 1687.99 549.805C1688.55 549.746 1689.12 549.797 1689.66 549.957C1690.2 550.117 1690.71 550.382 1691.15 550.737C1691.59 551.092 1691.95 551.531 1692.22 552.027C1692.49 552.523 1692.66 553.067 1692.72 553.629C1692.78 554.191 1692.73 554.759 1692.57 555.301C1692.57 555.301 1689.28 566.962 1693.95 576.016C1694.2 576.513 1694.36 577.055 1694.41 577.612C1694.45 578.17 1694.39 578.731 1694.22 579.263C1694.05 579.796 1693.78 580.289 1693.41 580.716C1693.05 581.142 1692.61 581.492 1692.11 581.747C1691.51 582.095 1690.83 582.283 1690.13 582.291V582.291Z" fill="#431426"/>
<path d="M1713.08 444.442C1706.88 444.746 1700.76 443.015 1695.63 439.514C1691.96 436.87 1689.48 432.886 1688.73 428.425C1688.6 427.285 1688.92 426.139 1689.63 425.239C1690.34 424.339 1691.38 423.759 1692.52 423.626C1693.66 423.493 1694.81 423.818 1695.71 424.53C1696.61 425.242 1697.19 426.282 1697.32 427.422C1697.86 429.607 1699.19 431.515 1701.05 432.78C1705.32 435.875 1712.51 436.62 1722.05 435.015C1733.8 432.981 1743.2 427.537 1753.14 421.806C1765.54 414.615 1778.55 407.165 1795.72 407.48C1796.86 407.48 1797.95 407.933 1798.75 408.739C1799.56 409.545 1800.01 410.638 1800.01 411.778C1800.01 412.918 1799.56 414.011 1798.75 414.817C1797.95 415.623 1796.86 416.076 1795.72 416.076H1795.23C1780.5 416.076 1769.44 422.523 1757.49 429.371C1747.35 435.273 1736.84 441.347 1723.54 443.697C1720.08 444.24 1716.58 444.49 1713.08 444.442Z" fill="#431426"/>
<path d="M1673.46 512.349C1663.06 512.349 1658.53 507.335 1657.76 506.361C1657.09 505.477 1656.79 504.369 1656.91 503.268C1657.04 502.167 1657.59 501.157 1658.44 500.451C1659.3 499.744 1660.39 499.396 1661.5 499.477C1662.6 499.558 1663.64 500.064 1664.38 500.888C1664.75 501.261 1675.15 511.318 1706.87 490.487C1719.53 482.077 1731.5 472.668 1742.66 462.351C1753.89 452.323 1762 445.16 1774.17 441.95C1775.26 441.709 1776.4 441.897 1777.34 442.476C1778.29 443.055 1778.98 443.98 1779.26 445.056C1779.55 446.132 1779.4 447.275 1778.86 448.246C1778.31 449.216 1777.41 449.938 1776.35 450.26C1766.26 452.867 1759.16 459.199 1748.47 468.769C1736.99 479.363 1724.68 489.021 1711.65 497.65C1694.23 509.054 1681.91 512.349 1673.46 512.349Z" fill="#431426"/>
<path d="M1688.44 558.393C1687.4 558.39 1686.39 558.008 1685.61 557.319C1684.83 556.629 1684.32 555.679 1684.19 554.644C1684.06 553.61 1684.3 552.563 1684.89 551.697C1685.47 550.832 1686.34 550.208 1687.35 549.941C1687.58 549.941 1699.9 546.273 1714.34 528.451L1721.56 519.426C1735.89 501.604 1752.08 481.404 1767.81 466.391C1768.64 465.604 1769.74 465.179 1770.89 465.208C1772.03 465.238 1773.11 465.72 1773.9 466.548C1774.68 467.377 1775.11 468.483 1775.08 469.625C1775.05 470.767 1774.57 471.85 1773.74 472.637C1758.44 487.221 1742.42 507.191 1728.27 524.813C1725.8 527.907 1723.37 530.944 1721.02 533.838C1704.54 554.21 1690.1 558.106 1689.5 558.25C1689.16 558.339 1688.8 558.388 1688.44 558.393V558.393Z" fill="#431426"/>
<path d="M1927.09 502.321C1926.8 502.351 1926.5 502.351 1926.2 502.321C1925.65 502.209 1925.12 501.987 1924.65 501.669C1924.18 501.351 1923.78 500.943 1923.47 500.468C1923.16 499.993 1922.95 499.462 1922.85 498.904C1922.75 498.347 1922.76 497.775 1922.88 497.221C1923.88 492.379 1926.29 478.339 1925.11 471.749C1924.92 470.61 1925.18 469.438 1925.85 468.492C1926.51 467.547 1927.53 466.904 1928.67 466.707C1929.81 466.509 1930.98 466.772 1931.92 467.439C1932.87 468.105 1933.51 469.12 1933.71 470.26C1935.34 479.686 1931.79 497.049 1931.39 498.912C1931.18 499.892 1930.64 500.769 1929.85 501.392C1929.07 502.014 1928.09 502.343 1927.09 502.321Z" fill="#431426"/>
<path d="M1921.33 396.966C1920.28 396.965 1919.26 396.589 1918.46 395.906L1910.44 388.886C1909.58 388.126 1909.06 387.057 1908.99 385.912C1908.92 384.768 1909.31 383.642 1910.07 382.783C1910.83 381.925 1911.9 381.403 1913.04 381.333C1914.19 381.263 1915.31 381.651 1916.17 382.411L1924.19 389.431C1925.04 390.181 1925.56 391.238 1925.64 392.371C1925.71 393.504 1925.34 394.62 1924.59 395.476C1924.19 395.943 1923.68 396.317 1923.12 396.574C1922.56 396.83 1921.95 396.964 1921.33 396.966V396.966Z" fill="#431426"/>
<path d="M1884.43 701.197L1723.11 827.41L1611.91 841.736L1543.15 749.075L1585.18 656.041L1690.13 578.078C1691.63 580.877 1693.66 583.35 1696.12 585.353C1698.58 587.355 1701.42 588.847 1704.46 589.74C1723.14 595.986 1745.55 568.308 1758.15 531.375L1884.43 701.197Z" fill="#FF89A4"/>
<path d="M1611.91 846.035C1611.25 846.037 1610.59 845.883 1609.99 845.584C1609.39 845.286 1608.88 844.851 1608.48 844.316L1539.71 751.654C1539.25 751.043 1538.96 750.317 1538.88 749.555C1538.8 748.792 1538.93 748.022 1539.25 747.328L1581.31 654.208C1581.59 653.529 1582.06 652.943 1582.66 652.518L1687.61 574.555C1688.11 574.183 1688.69 573.924 1689.29 573.795C1689.9 573.667 1690.53 573.672 1691.14 573.81C1691.75 573.953 1692.31 574.223 1692.81 574.604C1693.3 574.984 1693.71 575.466 1694 576.016C1695.25 578.329 1696.94 580.369 1698.99 582.013C1701.04 583.657 1703.4 584.872 1705.92 585.586C1720.65 590.514 1741.85 566.045 1754.17 529.915C1754.42 529.169 1754.87 528.507 1755.48 528C1756.08 527.493 1756.81 527.161 1757.58 527.04C1758.36 526.918 1759.16 527.013 1759.88 527.313C1760.61 527.613 1761.24 528.106 1761.71 528.74L1887.78 698.648C1888.44 699.547 1888.73 700.669 1888.58 701.776C1888.43 702.883 1887.85 703.888 1886.98 704.579L1725.78 830.82C1725.17 831.307 1724.43 831.615 1723.66 831.709L1612.46 846.035H1611.91ZM1548.08 748.617L1613.98 837.21L1721.51 823.371L1878.58 700.453L1759.65 540.315C1747.07 572.377 1725.26 601.115 1703.29 593.781C1697.72 592.096 1692.78 588.771 1689.13 584.239L1588.85 658.735L1548.08 748.617Z" fill="#431426"/>
<path d="M1691.65 765.466C1691.65 765.466 1760.02 749.421 1764.26 691.945C1768.1 640.084 1728.36 610.83 1728.36 610.83C1728.36 610.83 1682.51 641.144 1674.98 678.421C1667.44 715.697 1691.65 765.466 1691.65 765.466Z" fill="#A1EB9D"/>
<path d="M1691.65 769.761C1690.85 769.756 1690.06 769.529 1689.38 769.104C1688.7 768.679 1688.14 768.074 1687.78 767.354C1686.78 765.263 1663.09 715.78 1670.76 677.558C1678.44 639.336 1723.97 608.535 1725.98 607.332C1726.72 606.851 1727.58 606.607 1728.46 606.633C1729.34 606.658 1730.2 606.952 1730.91 607.475C1732.6 608.707 1772.51 638.735 1768.53 692.343C1764.11 752.283 1693.37 769.704 1692.65 769.704C1692.32 769.765 1691.99 769.785 1691.65 769.761V769.761ZM1728.15 616.243C1718.58 623.148 1685.18 649.164 1679.19 679.277C1673.2 709.391 1689.02 748.874 1694.06 760.363C1707.47 756.266 1756.52 738.129 1759.96 691.598C1763.05 649.938 1736.35 623.348 1728.15 616.243Z" fill="#431426"/>
<path d="M1664.41 797.696C1663.53 797.704 1662.67 797.443 1661.94 796.948C1661.22 796.452 1660.66 795.747 1660.35 794.926C1660.04 794.105 1659.98 793.209 1660.2 792.357C1660.41 791.505 1660.88 790.738 1661.54 790.161C1726.09 734.461 1725.09 635.439 1725.06 634.407C1725.05 633.843 1725.15 633.282 1725.36 632.756C1725.56 632.23 1725.87 631.75 1726.26 631.343C1726.65 630.936 1727.12 630.61 1727.64 630.383C1728.15 630.157 1728.71 630.035 1729.27 630.023V630.023C1730.4 630.031 1731.48 630.478 1732.28 631.27C1733.09 632.062 1733.55 633.136 1733.57 634.264C1733.57 638.476 1734.72 738.3 1667.1 796.665C1666.34 797.301 1665.39 797.664 1664.41 797.696Z" fill="#431426"/>
<path d="M666.104 1765.57C645.378 1727.14 637.098 1683.22 642.409 1639.88C649.458 1579.36 680.689 1524.03 730.371 1484.12C779.593 1444.34 842.001 1424.57 905.15 1428.77C967.727 1432.98 1023.77 1460.28 1062.97 1505.64C1144.11 1599.59 1127.06 1742.82 1024.86 1825.05C922.685 1907.14 773.493 1897.52 692.293 1803.54C682.223 1791.86 673.443 1779.13 666.104 1765.57V1765.57ZM1031.19 1574.46C1025.78 1564.52 1019.31 1555.18 1011.91 1546.61C997.286 1529.88 979.469 1516.24 959.503 1506.49C939.536 1496.74 917.823 1491.07 895.638 1489.82C850.111 1486.73 805.093 1500.93 769.568 1529.56C734.466 1557.18 711.722 1597.57 706.304 1641.91C703.662 1663.47 705.587 1685.34 711.955 1706.1C718.324 1726.86 728.991 1746.05 743.265 1762.42C802.804 1831.33 911.482 1838.98 985.52 1779.61C1050.22 1727.64 1067.44 1641.37 1031.19 1574.46Z" fill="#FFEAB9"/>
<path d="M866.752 1885C799.62 1885 734.092 1858.35 689.108 1806.23C678.816 1794.41 669.842 1781.51 662.347 1767.75V1767.75C641.143 1728.51 632.652 1683.66 638.05 1639.39C645.241 1577.73 677.017 1521.4 727.588 1480.77C777.619 1440.34 841.048 1420.25 905.232 1424.5C968.954 1428.77 1026.03 1456.59 1066 1502.83C1085.04 1524.81 1099.41 1550.42 1108.25 1578.12C1117.08 1605.82 1120.2 1635.03 1117.4 1663.97C1111.67 1727.95 1079.64 1786.32 1027.41 1828.29C981.86 1864.91 925.193 1884.91 866.752 1885V1885ZM669.882 1763.51C677.115 1776.82 685.761 1789.3 695.669 1800.76C775.38 1892.99 921.879 1902.42 1022.3 1821.73C1072.7 1781.25 1103.53 1724.97 1109.15 1663.34C1111.82 1635.55 1108.82 1607.51 1100.33 1580.92C1091.85 1554.32 1078.05 1529.73 1059.78 1508.62C1021.33 1464.12 966.347 1437.36 905.06 1433.24C843.002 1429.12 781.676 1448.56 733.318 1487.67C684.61 1526.87 653.837 1581.17 646.932 1640.56C641.726 1683.04 649.835 1726.09 670.14 1763.77L669.882 1763.51ZM871.709 1823.82C822.14 1823.82 773.546 1803.97 740.08 1765.26C725.43 1748.43 714.48 1728.71 707.94 1707.37C701.4 1686.04 699.416 1663.57 702.116 1641.42C707.672 1595.96 730.992 1554.54 766.985 1526.21C803.325 1496.94 849.359 1482.42 895.92 1485.55C918.673 1486.82 940.942 1492.63 961.417 1502.63C981.892 1512.64 1000.16 1526.64 1015.14 1543.8C1022.76 1552.61 1029.4 1562.22 1034.94 1572.46C1072.79 1642.25 1053.16 1730.73 988.295 1782.88C955.225 1809.4 914.098 1823.84 871.709 1823.82V1823.82ZM883.428 1493.72C843.023 1493.68 803.823 1507.47 772.343 1532.8C738.128 1559.72 715.951 1599.07 710.655 1642.28C708.092 1663.25 709.967 1684.52 716.157 1704.71C722.347 1724.9 732.713 1743.57 746.584 1759.5C804.634 1826.69 910.647 1833.99 982.908 1776.03C1044.54 1726.49 1063.13 1642.54 1027.41 1576.41C1022.14 1566.74 1015.85 1557.66 1008.64 1549.33C994.384 1533.05 977.019 1519.78 957.564 1510.29C938.11 1500.81 916.956 1495.31 895.347 1494.12C891.364 1493.86 887.324 1493.72 883.428 1493.72V1493.72Z" fill="#431426"/>
<path d="M2097.6 921.1C2172.92 1287.3 2100.6 1681.21 1923.45 1907.68C1923.45 1907.68 1786.26 1996.5 1637.36 2027.16C1473.64 2060.83 1327.28 2030.29 1327.28 2030.29C1075.14 1892.1 853.287 1558.7 777.96 1192.49L2097.6 921.1Z" fill="#FFEAB9"/>
<path d="M1475.67 2047.19C1388.71 2047.19 1327.37 2034.7 1326.42 2034.5C1326 2034.41 1325.6 2034.27 1325.22 2034.07C1070.01 1894.19 848.388 1556.35 773.749 1193.35C773.636 1192.8 773.633 1192.23 773.741 1191.68C773.848 1191.12 774.063 1190.59 774.375 1190.12C774.686 1189.65 775.087 1189.25 775.555 1188.93C776.023 1188.62 776.548 1188.39 777.101 1188.28L2096.74 916.773C2097.85 916.553 2099.01 916.781 2099.96 917.409C2100.91 918.036 2101.57 919.012 2101.81 920.126C2176.3 1283.09 2106.14 1680.99 1926.83 1910.23C1926.53 1910.61 1926.17 1910.93 1925.77 1911.18C1924.39 1912.07 1786.2 2000.83 1638.22 2031.26C1584.71 2042.01 1530.25 2047.35 1475.67 2047.19V2047.19ZM1328.77 2026.22C1339.29 2028.28 1480.91 2054.87 1636.47 2022.95C1777.95 1993.87 1910.47 1910.83 1920.5 1904.47C2097.34 1677.92 2166.91 1285.38 2094.24 926.171L783.032 1195.85C857.987 1554.6 1076.89 1887.83 1328.77 2026.22V2026.22Z" fill="#431426"/>
<path d="M1471.16 1219.37C1835.56 1144.43 2116.01 1010.92 2097.55 921.162C2079.09 831.402 1768.72 819.383 1404.32 894.317C1039.92 969.25 759.476 1102.76 777.933 1192.52C796.391 1282.28 1106.76 1294.3 1471.16 1219.37Z" fill="#FFEAB9"/>
<path d="M1041.42 1272.84C1025.37 1272.84 1009.79 1272.55 994.684 1271.98C861.594 1266.82 783.116 1238.91 773.746 1193.38C764.377 1147.86 825.32 1091.21 945.66 1033.96C1064.25 977.49 1226.82 926.403 1403.41 890.072C1579.99 853.741 1749.58 836.549 1880.87 841.649C2013.96 846.807 2092.44 874.714 2101.81 920.243C2111.18 965.771 2050.23 1022.39 1929.89 1079.66C1811.27 1136.14 1648.73 1187.22 1472.14 1223.53C1315.79 1255.67 1165.02 1272.84 1041.42 1272.84ZM1834.11 849.386C1711.08 849.386 1560.94 866.577 1405.21 898.495C1229.32 934.683 1067.43 985.541 949.442 1041.76C834.833 1096.34 773.804 1150.98 782.17 1191.67C790.536 1232.35 868.127 1258.51 995.027 1263.3C1125.62 1268.37 1294.41 1251.2 1470.34 1215.05C1646.26 1178.89 1808.12 1128 1926.11 1071.78C2040.72 1017.2 2101.75 962.562 2093.38 921.876C2085.02 881.19 2007.43 855.03 1880.52 850.245C1865.54 849.672 1850.04 849.386 1834.11 849.386Z" fill="#431426"/>
<path d="M1025.8 1233.84C962.766 1233.84 911.192 1228.65 876.294 1217.97C845.836 1208.62 828.616 1195.3 825.121 1178.37C815.723 1132.52 908.212 1082.27 987.321 1048.17C1097.46 1000.72 1247.63 956.199 1410.2 922.762C1572.23 889.439 1727.32 871.188 1847.09 871.188H1848.26C1934.48 871.188 2039.26 880.987 2048.83 926.83C2052.3 943.764 2041.72 962.817 2017.31 983.447C1937.95 1050.69 1715.43 1130.66 1463.66 1182.44C1299.92 1215.99 1142.96 1233.81 1025.8 1233.84ZM1847.17 879.697C1727.98 879.697 1573.52 897.977 1412 931.271C1085.03 998.432 820.021 1110.83 833.545 1176.62C836.41 1190.26 851.567 1201.4 878.815 1209.77C977.006 1239.86 1211.18 1225.44 1461.86 1173.93C1712.54 1122.41 1933.3 1043.19 2011.67 976.943C2033.44 958.52 2043.18 942.245 2040.32 928.607C2033.96 897.719 1963.99 879.898 1848.35 879.898L1847.17 879.697Z" fill="#431426"/>
<path d="M2021.95 969.266L2014.48 980.097C1937.4 1045.37 1722.57 1124.7 1462.75 1178.14C1202.93 1231.58 974.084 1243.41 877.555 1213.87C877.555 1213.87 1045.17 1150.55 1101.47 1121.52C1157.77 1092.5 1139.15 1087.6 1233.1 1078.8C1327.05 1070.01 1356.02 1071.01 1414.81 1046.66C1473.61 1022.3 1476.96 999.437 1553.78 1008.29C1630.59 1017.14 1675.09 1031.67 1735.32 1014.02C1795.54 996.371 1858.38 952.676 1902.24 964.309C1946.11 975.942 2021.95 969.266 2021.95 969.266Z" fill="#BE6956"/>
<path d="M1025.8 1233.84C962.768 1233.84 911.194 1228.65 876.295 1217.97C875.436 1217.71 874.68 1217.19 874.134 1216.48C873.589 1215.77 873.282 1214.91 873.258 1214.01C873.237 1213.11 873.502 1212.22 874.017 1211.47C874.531 1210.72 875.269 1210.16 876.123 1209.86C877.785 1209.23 1044.17 1146.28 1099.61 1117.71C1113.59 1110.52 1122.96 1104.76 1130.53 1100.15C1153.65 1085.97 1161.44 1081.21 1232.81 1074.5C1247.51 1073.13 1260.61 1072.01 1272.47 1070.98C1335.5 1065.48 1364.16 1062.99 1413.3 1042.7C1426.9 1036.9 1440.12 1030.25 1452.89 1022.79C1480.2 1007.54 1498.25 997.459 1554.26 1003.91C1572.2 1005.97 1588.02 1008.29 1603.35 1010.55C1652.94 1017.8 1688.79 1023.07 1734.11 1009.78C1754.69 1003.76 1775.77 994.565 1796.18 985.654C1835.8 968.463 1873.22 952.045 1903.33 960.01C1946 971.328 2020.81 964.939 2021.55 964.881C2022.37 964.812 2023.18 964.975 2023.91 965.352C2024.63 965.729 2025.23 966.305 2025.64 967.011C2026.05 967.717 2026.25 968.525 2026.21 969.34C2026.18 970.155 2025.92 970.944 2025.45 971.615L2018 982.416C2017.78 982.726 2017.52 983.006 2017.23 983.247C1937.86 1050.49 1715.35 1130.46 1463.58 1182.24C1299.92 1215.99 1142.96 1233.84 1025.8 1233.84ZM891.395 1213.21C996.004 1238.62 1221.44 1223.35 1461.86 1173.93C1711.88 1122.5 1932.47 1043.47 2011.24 977.173L2013.27 974.308C1991.73 975.683 1936.74 977.975 1901.16 968.577C1873.91 961.386 1837.84 977.173 1799.61 993.791C1778.98 1002.79 1757.64 1012.1 1736.58 1018.29C1689.45 1032.1 1650.94 1026.45 1602.14 1019.29C1586.9 1017.06 1571.14 1014.76 1553.43 1012.7C1500.14 1006.57 1484.01 1015.57 1457.25 1030.55C1444.14 1038.14 1430.57 1044.9 1416.62 1050.78C1366.36 1071.58 1337.2 1074.1 1273.36 1079.66C1261.5 1080.69 1248.43 1081.84 1233.76 1083.22C1164.36 1089.72 1157.6 1093.87 1135.14 1107.63C1127.49 1112.3 1117.95 1118.14 1103.62 1125.51C1056.37 1149.55 931.222 1197.97 891.395 1213.21V1213.21Z" fill="#431426"/>
<path d="M1369.37 1151.35C1368.39 1151.35 1367.44 1151.01 1366.68 1150.41C1366.24 1150.05 1365.87 1149.61 1365.61 1149.12C1365.34 1148.62 1365.17 1148.07 1365.11 1147.51C1365.05 1146.95 1365.1 1146.38 1365.26 1145.84C1365.42 1145.3 1365.69 1144.8 1366.05 1144.36C1381.17 1125.71 1411.06 1114.7 1450.14 1113.39C1458.28 1113.12 1466.42 1113.37 1474.52 1114.13C1489.28 1115.28 1498.16 1115.99 1528.33 1102.27C1539.66 1097.06 1550.26 1090.38 1559.85 1082.41C1575.29 1070.32 1586.44 1061.56 1621.71 1071.84C1656.26 1081.93 1692.42 1067.6 1721.48 1056.11C1742.19 1047.92 1758.58 1041.41 1770.19 1045.22C1770.72 1045.4 1771.22 1045.68 1771.65 1046.05C1772.07 1046.42 1772.42 1046.87 1772.68 1047.37C1772.93 1047.88 1773.08 1048.42 1773.13 1048.99C1773.17 1049.55 1773.1 1050.12 1772.92 1050.65C1772.75 1051.19 1772.46 1051.69 1772.1 1052.11C1771.73 1052.54 1771.28 1052.89 1770.77 1053.15C1770.27 1053.4 1769.72 1053.55 1769.16 1053.59C1768.59 1053.64 1768.03 1053.57 1767.49 1053.39C1758.9 1050.52 1743.11 1056.83 1724.74 1064.11C1694.49 1076.08 1656.81 1091.01 1619.42 1080.09C1588.39 1071.07 1580.16 1077.49 1565.27 1089.18C1555.14 1097.55 1543.98 1104.58 1532.06 1110.09C1499.88 1124.73 1489.59 1123.93 1474.01 1122.7C1466.24 1121.97 1458.43 1121.73 1450.63 1121.98C1414.04 1123.21 1386.42 1133.1 1372.89 1149.78C1372.47 1150.29 1371.93 1150.7 1371.32 1150.98C1370.7 1151.25 1370.04 1151.38 1369.37 1151.35V1151.35Z" fill="#431426"/>
<path d="M1087.21 1194.36C1086.38 1194.37 1085.57 1194.14 1084.87 1193.69C1084.17 1193.25 1083.62 1192.61 1083.27 1191.86C1082.93 1191.11 1082.81 1190.27 1082.94 1189.45C1083.06 1188.64 1083.42 1187.87 1083.97 1187.25C1086.83 1184.05 1089.1 1181.07 1091.39 1178.2C1101.7 1165.11 1109.18 1155.65 1135.11 1160.32C1140.91 1161.39 1146.65 1162.76 1152.3 1164.42C1163.31 1167.57 1165 1168.06 1182.02 1156.45C1195.54 1147.26 1197.6 1146.17 1203.85 1147.54C1207.09 1148.23 1212.44 1149.43 1230.18 1146.2C1230.74 1146.1 1231.32 1146.11 1231.88 1146.23C1232.44 1146.36 1232.97 1146.59 1233.44 1146.92C1233.91 1147.25 1234.31 1147.66 1234.62 1148.15C1234.93 1148.63 1235.14 1149.17 1235.24 1149.73C1235.34 1150.3 1235.32 1150.88 1235.2 1151.44C1235.08 1152 1234.84 1152.53 1234.52 1153C1234.19 1153.46 1233.77 1153.87 1233.29 1154.17C1232.8 1154.48 1232.26 1154.69 1231.7 1154.79C1212.36 1158.32 1205.91 1156.88 1201.99 1156.05C1199.41 1155.48 1199.12 1155.39 1186.86 1163.67C1167.29 1177 1163.05 1176.54 1149.92 1172.81C1144.6 1171.22 1139.2 1169.92 1133.74 1168.92C1112.88 1165.16 1108.29 1170.95 1098.26 1183.67C1096.03 1186.54 1093.51 1189.69 1090.56 1193.04C1090.13 1193.5 1089.61 1193.85 1089.03 1194.08C1088.45 1194.31 1087.83 1194.4 1087.21 1194.36V1194.36Z" fill="#431426"/>
<path d="M1103.82 755.579L1233.73 719.248L1308.57 777.613L1329.23 877.953L1193.31 923.309L1124.28 879.872L1103.82 755.579Z" fill="#FFFAF4"/>
<path d="M1193.3 927.606C1192.49 927.604 1191.7 927.376 1191.01 926.947L1121.99 883.51C1121.48 883.193 1121.05 882.774 1120.71 882.281C1120.38 881.788 1120.15 881.231 1120.04 880.645L1099.58 756.323C1099.41 755.277 1099.64 754.206 1100.21 753.314C1100.78 752.421 1101.66 751.769 1102.67 751.481L1232.58 715.15C1233.23 714.968 1233.92 714.941 1234.58 715.071C1235.24 715.2 1235.86 715.482 1236.39 715.895L1311.21 774.288C1312.01 774.914 1312.57 775.808 1312.78 776.809L1333.44 877.092C1333.65 878.126 1333.47 879.2 1332.94 880.112C1332.42 881.025 1331.57 881.714 1330.57 882.049L1194.65 927.377C1194.21 927.522 1193.76 927.599 1193.3 927.606V927.606ZM1128.2 877.264L1193.9 918.581L1324.3 875.086L1304.73 780.047L1232.81 723.946L1108.69 758.672L1128.2 877.264Z" fill="#431426"/>
<path d="M1124.28 884.171C1123.24 884.185 1122.23 883.822 1121.44 883.149C1120.65 882.476 1120.13 881.538 1119.97 880.51C1119.82 879.482 1120.04 878.432 1120.6 877.557C1121.16 876.681 1122.02 876.038 1123.02 875.747L1257.17 835.291L1229.58 720.252C1229.4 719.69 1229.34 719.097 1229.4 718.512C1229.47 717.926 1229.65 717.359 1229.94 716.846C1230.23 716.334 1230.62 715.886 1231.09 715.532C1231.56 715.177 1232.1 714.923 1232.67 714.785C1233.25 714.647 1233.84 714.629 1234.42 714.731C1235 714.833 1235.55 715.053 1236.05 715.377C1236.54 715.702 1236.96 716.124 1237.28 716.617C1237.6 717.111 1237.82 717.665 1237.92 718.246L1266.57 837.21C1266.84 838.269 1266.69 839.392 1266.16 840.346C1265.62 841.3 1264.75 842.013 1263.7 842.339L1125.68 883.971C1125.23 884.127 1124.76 884.196 1124.28 884.171Z" fill="#431426"/>
<path d="M1329.23 882.392C1328.45 882.403 1327.68 882.195 1327.02 881.79L1260.12 842.05C1259.63 841.766 1259.2 841.388 1258.86 840.938C1258.52 840.488 1258.27 839.976 1258.13 839.429C1257.99 838.883 1257.96 838.314 1258.04 837.756C1258.12 837.198 1258.31 836.66 1258.6 836.176C1259.18 835.195 1260.13 834.485 1261.24 834.201C1262.34 833.916 1263.52 834.08 1264.5 834.657L1331.43 874.255C1332.24 874.735 1332.87 875.466 1333.22 876.338C1333.58 877.21 1333.63 878.173 1333.39 879.08C1333.14 879.988 1332.6 880.789 1331.85 881.361C1331.11 881.934 1330.2 882.245 1329.25 882.249L1329.23 882.392Z" fill="#431426"/>
<path opacity="0.1" d="M1217.46 751.393H1205.85V762.997H1217.46V751.393Z" fill="#431426"/>
<path opacity="0.1" d="M1141.99 768.619H1130.38V780.223H1141.99V768.619Z" fill="#431426"/>
<path opacity="0.1" d="M1164.28 835.604H1152.67V847.208H1164.28V835.604Z" fill="#431426"/>
<path opacity="0.1" d="M1190.09 793.744H1178.49V805.348H1190.09V793.744Z" fill="#431426"/>
<path opacity="0.1" d="M1238.61 815.463H1227V827.067H1238.61V815.463Z" fill="#431426"/>
<path opacity="0.1" d="M1141.99 805.289H1130.38V816.893H1141.99V805.289Z" fill="#431426"/>
<path opacity="0.1" d="M1184.31 754.32H1172.7V765.924H1184.31V754.32Z" fill="#431426"/>
<path opacity="0.1" d="M1205.85 829.818H1194.25V841.423H1205.85V829.818Z" fill="#431426"/>
<path opacity="0.1" d="M1272.67 768.619L1264.47 760.414L1256.26 768.619L1264.47 776.825L1272.67 768.619Z" fill="#431426"/>
<path opacity="0.1" d="M1304.6 791.362L1296.39 783.156L1288.19 791.362L1296.39 799.567L1304.6 791.362Z" fill="#431426"/>
<path opacity="0.1" d="M1283.56 811.104L1275.36 802.898L1267.15 811.104L1275.36 819.309L1283.56 811.104Z" fill="#431426"/>
<path opacity="0.1" d="M1312.38 841.424L1304.18 833.219L1295.97 841.424L1304.18 849.629L1312.38 841.424Z" fill="#431426"/>
<path opacity="0.1" d="M1192.47 879.887L1184.27 871.682L1176.06 879.887L1184.27 888.092L1192.47 879.887Z" fill="#431426"/>
<path opacity="0.1" d="M1268.64 864.258L1260.43 856.053L1252.23 864.258L1260.43 872.464L1268.64 864.258Z" fill="#431426"/>
<path opacity="0.1" d="M1226.99 897.715L1218.79 889.51L1210.58 897.715L1218.79 905.92L1226.99 897.715Z" fill="#431426"/>
<path opacity="0.1" d="M1295.87 877.967L1287.67 869.762L1279.46 877.967L1287.67 886.172L1295.87 877.967Z" fill="#431426"/>
<path opacity="0.1" d="M1238.59 874.078L1230.38 865.873L1222.17 874.078L1230.38 882.284L1238.59 874.078Z" fill="#431426"/>
<path d="M1231.95 1052.47L1332.09 962.076L1425.1 981.044L1489.94 1060.1L1386.76 1162.81L1305.62 1154.65L1231.95 1052.47Z" fill="#FFFAF4"/>
<path d="M1386.77 1167.11H1386.34L1305.19 1158.94C1304.59 1158.89 1304 1158.7 1303.47 1158.4C1302.94 1158.1 1302.48 1157.69 1302.13 1157.19L1228.49 1054.99C1227.86 1054.13 1227.57 1053.07 1227.68 1052.01C1227.79 1050.95 1228.29 1049.97 1229.09 1049.26L1329.37 958.892C1329.87 958.436 1330.46 958.104 1331.11 957.924C1331.76 957.745 1332.44 957.723 1333.1 957.861L1425.99 976.943C1426.96 977.14 1427.83 977.666 1428.45 978.433L1493.29 1057.48C1493.97 1058.3 1494.31 1059.35 1494.26 1060.41C1494.2 1061.46 1493.76 1062.47 1493.01 1063.22L1389.86 1165.93C1389.02 1166.71 1387.91 1167.14 1386.77 1167.11ZM1307.97 1150.58L1385.16 1158.34L1484.15 1059.81L1422.75 984.937L1333.36 966.714L1237.72 1053.07L1307.97 1150.58Z" fill="#431426"/>
<path d="M1305.65 1158.94C1304.79 1158.93 1303.96 1158.66 1303.27 1158.17C1302.57 1157.68 1302.03 1156.99 1301.72 1156.19C1301.42 1155.4 1301.35 1154.53 1301.54 1153.7C1301.73 1152.87 1302.16 1152.11 1302.78 1151.52L1404.87 1055.54L1328.91 964.825C1328.25 963.944 1327.95 962.843 1328.08 961.748C1328.21 960.654 1328.75 959.65 1329.59 958.944C1330.44 958.238 1331.52 957.883 1332.62 957.954C1333.72 958.025 1334.75 958.515 1335.5 959.324L1414.07 1053.13C1414.77 1053.97 1415.13 1055.05 1415.07 1056.15C1415.01 1057.25 1414.52 1058.28 1413.72 1059.03L1308.51 1157.77C1307.74 1158.51 1306.72 1158.93 1305.65 1158.94V1158.94Z" fill="#431426"/>
<path d="M1489.97 1064.4H1489.71L1410.43 1060.18C1409.87 1060.15 1409.31 1060.01 1408.8 1059.77C1408.3 1059.53 1407.84 1059.18 1407.46 1058.76C1407.08 1058.34 1406.79 1057.85 1406.6 1057.32C1406.41 1056.79 1406.33 1056.22 1406.36 1055.66C1406.39 1055.09 1406.53 1054.54 1406.78 1054.03C1407.02 1053.52 1407.36 1053.06 1407.78 1052.68C1408.2 1052.31 1408.7 1052.02 1409.23 1051.83C1409.76 1051.64 1410.33 1051.56 1410.89 1051.59L1490.17 1055.77C1491.31 1055.8 1492.39 1056.28 1493.18 1057.1C1493.97 1057.93 1494.4 1059.03 1494.37 1060.17C1494.34 1061.31 1493.86 1062.39 1493.04 1063.18C1492.21 1063.97 1491.11 1064.39 1489.97 1064.37V1064.4Z" fill="#431426"/>
<path opacity="0.1" d="M1331.82 998.226L1321.43 1003.39L1326.6 1013.78L1336.99 1008.62L1331.82 998.226Z" fill="#431426"/>
<path opacity="0.1" d="M1271.9 1047.26L1261.51 1052.43L1266.68 1062.82L1277.07 1057.66L1271.9 1047.26Z" fill="#431426"/>
<path opacity="0.1" d="M1321.69 1097.31L1311.29 1102.47L1316.46 1112.86L1326.85 1107.7L1321.69 1097.31Z" fill="#431426"/>
<path opacity="0.1" d="M1326.17 1048.33L1315.78 1053.5L1320.95 1063.89L1331.34 1058.72L1326.17 1048.33Z" fill="#431426"/>
<path opacity="0.1" d="M1379.29 1046.18L1368.9 1051.35L1374.07 1061.74L1384.46 1056.57L1379.29 1046.18Z" fill="#431426"/>
<path opacity="0.1" d="M1288.22 1080.11L1277.83 1085.28L1283 1095.67L1293.39 1090.5L1288.22 1080.11Z" fill="#431426"/>
<path opacity="0.1" d="M1303.44 1015.61L1293.05 1020.78L1298.22 1031.17L1308.61 1026L1303.44 1015.61Z" fill="#431426"/>
<path opacity="0.1" d="M1356.37 1073.6L1345.97 1078.77L1351.14 1089.16L1361.53 1083.99L1356.37 1073.6Z" fill="#431426"/>
<path opacity="0.1" d="M1388.89 989.012L1377.89 985.318L1374.2 996.319L1385.2 1000.01L1388.89 989.012Z" fill="#431426"/>
<path opacity="0.1" d="M1427.55 995.155L1416.55 991.461L1412.86 1002.46L1423.86 1006.16L1427.55 995.155Z" fill="#431426"/>
<path opacity="0.1" d="M1417.49 1022.21L1406.49 1018.52L1402.8 1029.52L1413.8 1033.21L1417.49 1022.21Z" fill="#431426"/>
<path opacity="0.1" d="M1456.83 1036.48L1445.83 1032.79L1442.14 1043.79L1453.14 1047.48L1456.83 1036.48Z" fill="#431426"/>
<path opacity="0.1" d="M1366.6 1124.34L1355.6 1120.64L1351.91 1131.64L1362.91 1135.34L1366.6 1124.34Z" fill="#431426"/>
<path opacity="0.1" d="M1427.84 1076.49L1416.84 1072.79L1413.15 1083.8L1424.15 1087.49L1427.84 1076.49Z" fill="#431426"/>
<path opacity="0.1" d="M1405.45 1124.92L1394.45 1121.23L1390.75 1132.23L1401.75 1135.92L1405.45 1124.92Z" fill="#431426"/>
<path opacity="0.1" d="M1458.32 1076.58L1447.31 1072.89L1443.62 1083.89L1454.62 1087.58L1458.32 1076.58Z" fill="#431426"/>
<path opacity="0.1" d="M1405.3 1098.59L1394.3 1094.9L1390.61 1105.9L1401.61 1109.59L1405.3 1098.59Z" fill="#431426"/>
<path opacity="0.1" d="M1012.31 1460.53C1011.85 1460.53 1011.39 1460.45 1010.96 1460.31C1009.88 1459.95 1008.99 1459.17 1008.48 1458.16C1007.97 1457.14 1007.88 1455.97 1008.24 1454.89L1038.24 1363.75C1038.59 1362.66 1039.37 1361.77 1040.38 1361.25C1041.4 1360.74 1042.58 1360.65 1043.67 1361.01C1044.75 1361.37 1045.65 1362.14 1046.16 1363.16C1046.67 1364.18 1046.76 1365.36 1046.4 1366.44L1016.4 1457.5C1016.13 1458.37 1015.59 1459.14 1014.85 1459.68C1014.11 1460.23 1013.22 1460.53 1012.31 1460.53V1460.53Z" fill="#431426"/>
<path opacity="0.1" d="M1042.31 1504.84C1041.92 1504.83 1041.53 1504.78 1041.16 1504.66C1040.08 1504.33 1039.18 1503.59 1038.64 1502.6C1038.11 1501.61 1037.98 1500.45 1038.29 1499.36L1061.22 1418.13C1061.37 1417.59 1061.63 1417.08 1061.97 1416.64C1062.32 1416.19 1062.76 1415.82 1063.25 1415.55C1063.74 1415.27 1064.28 1415.09 1064.84 1415.02C1065.4 1414.96 1065.97 1415 1066.52 1415.15C1067.06 1415.31 1067.57 1415.56 1068.01 1415.91C1068.46 1416.26 1068.83 1416.69 1069.1 1417.19C1069.38 1417.68 1069.56 1418.22 1069.63 1418.78C1069.69 1419.34 1069.65 1419.91 1069.5 1420.45L1046.57 1501.68C1046.31 1502.61 1045.75 1503.41 1044.98 1503.98C1044.2 1504.55 1043.26 1504.85 1042.31 1504.84Z" fill="#431426"/>
<path opacity="0.1" d="M1915.2 1844.82C1914.5 1844.83 1913.81 1844.66 1913.2 1844.33C1912.21 1843.8 1911.47 1842.9 1911.14 1841.83C1910.81 1840.76 1910.91 1839.6 1911.42 1838.6C1935.2 1793.85 1949.5 1740.07 1949.64 1739.52C1949.96 1738.46 1950.68 1737.56 1951.66 1737.02C1952.63 1736.47 1953.77 1736.33 1954.84 1736.61C1955.92 1736.89 1956.85 1737.58 1957.42 1738.53C1958 1739.48 1958.19 1740.62 1957.95 1741.7C1957.95 1742.25 1943.25 1797 1919.01 1842.64C1918.63 1843.31 1918.07 1843.87 1917.4 1844.25C1916.73 1844.63 1915.97 1844.83 1915.2 1844.82V1844.82Z" fill="#431426"/>
<path opacity="0.1" d="M1873.76 1864.02C1873.02 1864.02 1872.29 1863.82 1871.64 1863.45C1870.99 1863.08 1870.46 1862.55 1870.08 1861.91C1869.7 1861.27 1869.49 1860.54 1869.48 1859.79C1869.47 1859.05 1869.65 1858.31 1870.01 1857.66C1882.69 1834.28 1892.59 1809.5 1899.52 1783.82C1899.62 1783.24 1899.84 1782.69 1900.16 1782.2C1900.48 1781.7 1900.9 1781.28 1901.39 1780.96C1901.88 1780.63 1902.44 1780.41 1903.02 1780.31C1903.6 1780.21 1904.19 1780.23 1904.76 1780.36C1905.34 1780.5 1905.87 1780.76 1906.35 1781.11C1906.82 1781.46 1907.21 1781.91 1907.5 1782.42C1907.79 1782.94 1907.97 1783.5 1908.03 1784.09C1908.09 1784.68 1908.04 1785.27 1907.86 1785.83C1900.84 1812.27 1890.66 1837.78 1877.54 1861.79C1877.17 1862.47 1876.63 1863.03 1875.96 1863.42C1875.29 1863.82 1874.54 1864.02 1873.76 1864.02V1864.02Z" fill="#431426"/>
<path d="M1355.59 2005.36C1357.8 2005.36 1359.6 2003.57 1359.6 2001.35C1359.6 1999.14 1357.8 1997.34 1355.59 1997.34C1353.37 1997.34 1351.58 1999.14 1351.58 2001.35C1351.58 2003.57 1353.37 2005.36 1355.59 2005.36Z" fill="#431426"/>
<path d="M1121.65 1818.43C1123.86 1818.43 1125.66 1816.64 1125.66 1814.42C1125.66 1812.21 1123.86 1810.41 1121.65 1810.41C1119.43 1810.41 1117.63 1812.21 1117.63 1814.42C1117.63 1816.64 1119.43 1818.43 1121.65 1818.43Z" fill="#431426"/>
<path d="M1141.58 1876.14C1143.8 1876.14 1145.6 1874.34 1145.6 1872.12C1145.6 1869.91 1143.8 1868.11 1141.58 1868.11C1139.37 1868.11 1137.57 1869.91 1137.57 1872.12C1137.57 1874.34 1139.37 1876.14 1141.58 1876.14Z" fill="#431426"/>
<path d="M1303.59 1981.72C1305.8 1981.72 1307.6 1979.93 1307.6 1977.71C1307.6 1975.5 1305.8 1973.7 1303.59 1973.7C1301.37 1973.7 1299.58 1975.5 1299.58 1977.71C1299.58 1979.93 1301.37 1981.72 1303.59 1981.72Z" fill="#431426"/>
<path d="M1437.57 1945.05C1439.78 1945.05 1441.58 1943.25 1441.58 1941.04C1441.58 1938.82 1439.78 1937.03 1437.57 1937.03C1435.35 1937.03 1433.55 1938.82 1433.55 1941.04C1433.55 1943.25 1435.35 1945.05 1437.57 1945.05Z" fill="#431426"/>
<path d="M1009.67 1511.86C1011.89 1511.86 1013.68 1510.06 1013.68 1507.85C1013.68 1505.63 1011.89 1503.83 1009.67 1503.83C1007.46 1503.83 1005.66 1505.63 1005.66 1507.85C1005.66 1510.06 1007.46 1511.86 1009.67 1511.86Z" fill="#431426"/>
<path d="M1120.99 1423.86C1123.2 1423.86 1125 1422.07 1125 1419.85C1125 1417.64 1123.2 1415.84 1120.99 1415.84C1118.77 1415.84 1116.97 1417.64 1116.97 1419.85C1116.97 1422.07 1118.77 1423.86 1120.99 1423.86Z" fill="#431426"/>
<path d="M1335.59 1175.45C1337.81 1175.45 1339.6 1173.65 1339.6 1171.44C1339.6 1169.22 1337.81 1167.43 1335.59 1167.43C1333.38 1167.43 1331.58 1169.22 1331.58 1171.44C1331.58 1173.65 1333.38 1175.45 1335.59 1175.45Z" fill="#431426"/>
<path d="M906.064 1411.05C906.064 1411.05 898.729 1400.42 855.607 1419.65C806.182 1441.57 800.509 1273.52 867.068 1269.85C893.142 1268.48 888.414 1297.96 917.725 1296.87L906.064 1411.05Z" fill="#FFEAB9"/>
<path d="M846.985 1425.87C841.241 1425.79 835.753 1423.48 831.685 1419.42C812.459 1401.49 807.56 1345.59 821.771 1306.53C830.997 1281.12 846.956 1266.42 866.726 1265.47C881.654 1264.7 888.187 1272.78 893.975 1279.8C899.762 1286.82 904.461 1292.86 917.441 1292.38C918.581 1292.34 919.691 1292.75 920.526 1293.53C921.362 1294.3 921.855 1295.38 921.896 1296.52C921.938 1297.66 921.525 1298.77 920.749 1299.6C919.972 1300.44 918.896 1300.93 917.756 1300.97C900.565 1301.6 893.201 1292.52 887.299 1285.21C881.941 1278.6 877.7 1273.38 867.242 1273.95C846.613 1275.07 835.553 1293.81 829.994 1309.37C817.015 1345.04 820.883 1397.36 837.673 1413.03C839.76 1415.16 842.48 1416.55 845.424 1417C848.368 1417.45 851.379 1416.93 854.005 1415.53C896.983 1396.44 907.556 1405.3 909.762 1408.48C910.386 1409.38 910.638 1410.5 910.464 1411.59C910.291 1412.68 909.706 1413.66 908.831 1414.32C907.955 1414.99 906.856 1415.3 905.76 1415.18C904.665 1415.07 903.656 1414.53 902.943 1413.69C902.284 1413.2 893.459 1407.42 857.5 1423.38C854.211 1424.94 850.627 1425.79 846.985 1425.87V1425.87Z" fill="#431426"/>
<path d="M857.301 1363.03H857.129C854.78 1363.03 799.08 1362.2 738.623 1325.79C683.497 1292.64 613.413 1222.64 592.497 1076.88C576.48 965.627 622.553 865.832 725.816 788.327C773.917 752.702 827.317 724.856 884.062 705.809C887.121 704.868 890.336 704.539 893.522 704.841C896.708 705.142 899.804 706.069 902.632 707.567C905.46 709.065 907.965 711.105 910.005 713.571C912.045 716.037 913.579 718.881 914.52 721.94C915.46 724.999 915.789 728.214 915.488 731.4C915.186 734.586 914.26 737.681 912.762 740.51C911.264 743.338 909.224 745.843 906.757 747.883C904.291 749.923 901.447 751.457 898.388 752.397V752.397C846.637 769.989 797.916 795.475 753.952 827.953C665.274 894.971 627.138 976.343 640.633 1069.86C675.015 1308.51 850.167 1314.1 857.588 1314.21C864.047 1314.25 870.226 1316.85 874.767 1321.45C879.307 1326.04 881.837 1332.25 881.799 1338.71C881.761 1345.17 879.158 1351.35 874.564 1355.89C869.97 1360.43 863.76 1362.96 857.301 1362.92V1363.03Z" fill="#FFFAF4"/>
<path d="M857.297 1367.33H857.125C854.69 1367.33 797.815 1366.44 736.385 1329.54C680.484 1295.9 609.398 1224.9 588.167 1077.54C571.892 964.655 618.567 863.455 723.147 784.948C771.654 749.063 825.499 721.024 882.712 701.856C889.939 699.757 897.702 700.585 904.324 704.162C910.946 707.74 915.894 713.779 918.099 720.975C920.305 728.171 919.591 735.946 916.111 742.619C912.631 749.293 906.665 754.329 899.502 756.639C848.291 774.146 800.079 799.426 756.556 831.594C669.224 897.494 631.632 977.72 644.812 1069.41C678.679 1304.36 850.306 1309.94 857.612 1310.09C865.211 1310.14 872.479 1313.2 877.818 1318.61C883.156 1324.02 886.128 1331.33 886.078 1338.92C886.029 1346.52 882.963 1353.79 877.555 1359.13C872.146 1364.47 864.839 1367.44 857.24 1367.39L857.297 1367.33ZM891.078 709.105C889.135 709.117 887.203 709.416 885.348 709.994C829.07 728.871 776.113 756.486 728.419 791.824C626.503 868.326 580.975 966.603 596.762 1076.31C617.535 1220.35 686.616 1289.51 740.94 1322.15C800.365 1357.91 854.976 1358.71 857.268 1358.74L857.412 1363.04V1358.74C862.731 1358.77 867.845 1356.68 871.627 1352.94C875.41 1349.2 877.552 1344.11 877.583 1338.8C877.613 1333.48 875.529 1328.36 871.789 1324.58C868.05 1320.8 862.96 1318.65 857.641 1318.62C850.048 1318.62 671.401 1312.89 636.474 1070.61C622.779 975.428 661.459 892.652 751.484 824.66C795.783 791.842 844.904 766.093 897.095 748.33C901.685 746.917 905.615 743.904 908.171 739.839C910.727 735.774 911.74 730.926 911.026 726.178C910.311 721.429 907.917 717.094 904.277 713.961C900.638 710.828 895.995 709.105 891.193 709.105H891.078Z" fill="#431426"/>
<path d="M858.501 1301.58C884.689 1392.92 847.04 1384.41 842.513 1374.21L922.911 1399.74L929.959 1306.91L858.501 1301.58Z" fill="#FFEAB9"/>
<path d="M853.232 1384.58C850.245 1384.61 847.305 1383.83 844.73 1382.32C842.155 1380.8 840.043 1378.61 838.619 1375.99C838.364 1375.47 838.215 1374.91 838.182 1374.33C838.149 1373.76 838.231 1373.18 838.425 1372.64C838.619 1372.09 838.919 1371.6 839.309 1371.17C839.699 1370.75 840.171 1370.41 840.695 1370.17C841.22 1369.93 841.787 1369.8 842.363 1369.79C842.939 1369.77 843.512 1369.87 844.048 1370.08C844.584 1370.29 845.072 1370.61 845.483 1371.01C845.895 1371.42 846.22 1371.9 846.441 1372.43C847.426 1373.86 848.841 1374.94 850.48 1375.5C852.119 1376.07 853.896 1376.1 855.553 1375.58C863.776 1372.55 868.389 1351.66 854.378 1302.75C854.117 1301.67 854.283 1300.54 854.839 1299.58C855.396 1298.62 856.301 1297.92 857.365 1297.61C858.43 1297.3 859.571 1297.42 860.552 1297.93C861.533 1298.45 862.278 1299.32 862.63 1300.37C881.082 1364.73 867.988 1380.17 858.533 1383.64C856.838 1384.27 855.042 1384.59 853.232 1384.58Z" fill="#431426"/>
<path d="M921.365 774.714C921.365 774.714 928.155 791.132 958.613 799.069C976.549 803.71 997.093 792.822 1038.98 817.721C1080.87 842.62 1114.25 819.985 1108.58 797.922C1102.91 775.86 1084.25 783.768 1065 774.17C1045.74 764.571 1043.14 743.369 1043.14 743.369C1048.5 733.837 1056.33 725.925 1065.8 720.46C1075.27 714.995 1086.04 712.18 1096.97 712.31C1135.51 712.31 1156.11 743.369 1171.9 726.149C1207.17 687.611 1120.33 661.337 1120.33 661.337C1147.63 653.343 1179.12 661.796 1185.74 646.237C1192.36 630.679 1185.88 616.267 1151.7 604.95C1117.52 593.632 1077.58 606.64 1077.58 606.64C1101.21 582.171 1150.98 594.778 1156.23 567.616C1161.47 540.453 1120.33 535.21 1090.56 536.986C1060.79 538.763 1029.24 562.372 1029.24 562.372C1029.24 562.372 1060.76 512.46 1038.87 504.581C989.901 486.931 953.054 593.89 944.315 609.677C935.576 625.465 911.594 631.739 892.741 648.214C881.005 658.047 872.466 671.155 868.215 685.864C868.215 685.864 858.101 674.546 841.138 683.6C824.176 692.654 823.575 706.235 831.511 716.435C839.448 726.636 868.129 732.423 872.255 746.434C876.381 760.445 865.464 804.14 893.2 806.404C920.935 808.667 921.365 774.714 921.365 774.714Z" fill="#FFFAF4"/>
<path d="M1074.66 832.967C1061.26 832.624 1048.21 828.664 1036.89 821.506C1008.7 804.745 990.762 804.802 976.235 804.831C969.997 805.115 963.749 804.605 957.64 803.312C940.162 798.785 929.904 791.479 924.116 785.634C922.602 792.686 919.056 799.14 913.916 804.2C911.056 806.737 907.689 808.637 904.038 809.773C900.388 810.909 896.537 811.256 892.742 810.791C868.789 808.842 868.875 781.651 868.961 763.658C869.239 758.329 868.922 752.985 868.015 747.727C866.153 741.395 855.981 736.266 847.042 731.796C839.249 727.871 831.914 724.203 827.988 719.161C825.658 716.387 823.969 713.133 823.043 709.632C822.117 706.13 821.976 702.466 822.63 698.904C823.776 693.603 827.53 686.01 838.991 679.907C850.452 673.804 859.764 675.667 865.809 678.904C870.897 665.815 879.135 654.183 889.791 645.037C897.737 638.511 906.285 632.754 915.32 627.846C926.409 621.399 936.007 615.841 940.534 607.789C941.766 605.555 943.743 601.056 946.265 595.383C960.849 562.175 994.973 484.413 1040.33 500.831C1042.54 501.586 1044.54 502.844 1046.18 504.504C1047.82 506.165 1049.06 508.183 1049.79 510.4C1053.48 521.088 1047.24 537.677 1041.19 549.826C1053.54 542.72 1072.02 534.067 1090.21 533.007C1101.67 532.319 1140.47 531.431 1155.23 548.279C1157.67 551.029 1159.41 554.327 1160.3 557.892C1161.2 561.458 1161.23 565.187 1160.38 568.765C1157 586.128 1138.78 589.796 1121.16 593.377C1115.57 594.495 1109.9 595.641 1104.48 597.188C1120.75 595.09 1137.28 596.447 1152.99 601.171C1174.39 608.276 1186.89 616.815 1191.18 627.302C1192.5 630.739 1193.03 634.429 1192.74 638.098C1192.44 641.768 1191.32 645.324 1189.46 648.504C1183.73 659.765 1169.41 660.567 1152.99 661.512C1147.66 661.828 1141.93 662.143 1136.14 662.859C1152.9 669.793 1178.69 683.145 1183.73 701.511C1186.31 710.909 1183.42 720.278 1175.14 729.361C1164.54 740.965 1151.87 735.091 1138.46 728.587C1127 723.115 1113.91 716.926 1097.06 716.926C1087.15 716.821 1077.39 719.304 1068.74 724.128C1060.09 728.952 1052.84 735.951 1047.72 744.432C1048.64 748.816 1052.71 763.486 1067.03 770.62C1072.84 773.282 1079.01 775.077 1085.34 775.949C1096.8 778.012 1108.46 780.161 1112.85 797.181C1115.43 807.266 1111.19 817.925 1101.79 824.973C1093.83 830.47 1084.32 833.271 1074.66 832.967V832.967ZM978.183 796.149C992.71 796.149 1012.37 796.837 1041.22 814.028C1066.03 828.813 1086.55 825.289 1096.57 817.782C1103.25 812.796 1106.2 805.776 1104.45 798.986C1101.59 787.324 1094.8 786.092 1083.74 784.087C1076.6 783.079 1069.65 781.033 1063.11 778.012C1042.05 767.468 1039.04 744.862 1038.9 743.916C1038.81 743.08 1038.96 742.236 1039.33 741.481C1044.99 731.19 1053.36 722.637 1063.52 716.74C1073.68 710.844 1085.26 707.828 1097 708.015C1115.8 708.015 1130.38 714.949 1142.1 720.507C1155.83 727.04 1162.7 729.877 1168.75 723.373C1174.79 716.868 1177.34 710.021 1175.45 703.574C1170.3 684.835 1132.96 669.793 1119.01 665.581C1118.12 665.321 1117.33 664.778 1116.77 664.034C1116.22 663.29 1115.91 662.385 1115.91 661.455C1115.91 660.525 1116.22 659.62 1116.77 658.876C1117.33 658.132 1118.12 657.589 1119.01 657.329C1129.95 654.537 1141.18 652.999 1152.47 652.745C1166.34 651.942 1178.26 651.255 1181.79 644.407C1183.06 642.324 1183.85 639.98 1184.1 637.55C1184.35 635.12 1184.05 632.665 1183.22 630.367C1179.95 622.459 1168.89 615.296 1150.24 609.136C1117.89 598.42 1079.18 610.712 1078.78 610.855C1077.87 611.15 1076.88 611.132 1075.98 610.803C1075.08 610.474 1074.32 609.854 1073.81 609.04C1073.3 608.226 1073.08 607.266 1073.18 606.313C1073.29 605.36 1073.7 604.467 1074.37 603.778C1086.29 591.429 1103.88 587.876 1119.41 584.753C1138.15 580.942 1149.75 578.077 1151.9 566.931C1152.48 564.636 1152.49 562.236 1151.94 559.936C1151.38 557.635 1150.28 555.503 1148.72 553.723C1139.04 542.691 1112.39 540.113 1090.7 541.373C1062.59 543.035 1032.02 565.699 1031.71 565.928C1030.9 566.533 1029.91 566.837 1028.91 566.787C1027.9 566.737 1026.95 566.337 1026.21 565.655C1025.47 564.974 1024.99 564.054 1024.86 563.057C1024.73 562.06 1024.95 561.048 1025.49 560.198C1031.22 550.972 1045.54 524.555 1041.56 512.979C1041.25 511.98 1040.71 511.072 1039.97 510.333C1039.23 509.594 1038.32 509.047 1037.32 508.739C999.558 495.157 967.639 567.734 954.001 598.735C951.307 604.867 949.359 609.308 947.926 611.858C942.196 622.087 931.222 628.505 919.503 635.324C910.941 639.952 902.842 645.392 895.321 651.57C884.337 660.848 876.293 673.124 872.17 686.898C872 687.67 871.62 688.379 871.073 688.949C870.526 689.519 869.832 689.927 869.068 690.128C868.304 690.33 867.5 690.317 866.743 690.09C865.986 689.864 865.306 689.434 864.778 688.847C864.462 688.531 856.554 680.251 842.916 687.529C836.154 691.139 832 695.694 830.939 700.709C830.557 703.049 830.692 705.444 831.336 707.726C831.979 710.009 833.115 712.122 834.664 713.917C837.529 717.413 844.205 720.822 850.767 724.146C861.826 729.676 873.23 735.406 876.153 745.32C877.363 751.372 877.796 757.553 877.442 763.715C877.442 784.803 878.473 800.963 893.315 802.252C895.934 802.616 898.601 802.416 901.136 801.665C903.671 800.914 906.016 799.629 908.014 797.897C916.61 790.161 916.953 774.975 916.953 774.775C916.986 773.796 917.351 772.857 917.987 772.112C918.623 771.367 919.493 770.86 920.454 770.673C921.416 770.487 922.412 770.632 923.281 771.086C924.149 771.54 924.837 772.274 925.234 773.17C925.234 773.457 932.082 787.869 959.617 795.003C965.014 796.115 970.53 796.539 976.034 796.264L978.183 796.149Z" fill="#431426"/>
<path d="M1007.98 609.249C1007.7 609.278 1007.42 609.278 1007.15 609.249C1006.03 609.034 1005.05 608.386 1004.41 607.446C1003.77 606.506 1003.53 605.352 1003.74 604.235C1008.44 579.566 1025.31 560.397 1026.03 559.595C1026.41 559.174 1026.86 558.83 1027.37 558.585C1027.88 558.34 1028.43 558.197 1029 558.165C1029.56 558.133 1030.12 558.213 1030.66 558.399C1031.19 558.585 1031.68 558.875 1032.1 559.251C1032.53 559.627 1032.87 560.083 1033.11 560.592C1033.36 561.101 1033.5 561.653 1033.53 562.217C1033.57 562.781 1033.49 563.346 1033.3 563.879C1033.11 564.413 1032.82 564.904 1032.45 565.325C1032.45 565.497 1016.43 583.577 1012.19 605.84C1011.98 606.803 1011.45 607.666 1010.68 608.286C1009.92 608.906 1008.96 609.246 1007.98 609.249V609.249Z" fill="#431426"/>
<path d="M1047 634.72C1045.96 634.738 1044.95 634.393 1044.14 633.745C1043.26 633.014 1042.71 631.967 1042.6 630.831C1042.48 629.695 1042.82 628.56 1043.54 627.671C1058.67 609.219 1081.39 597.615 1082.33 597.128C1083.35 596.637 1084.52 596.563 1085.59 596.921C1086.66 597.28 1087.55 598.043 1088.06 599.048C1088.56 600.06 1088.65 601.228 1088.29 602.301C1087.94 603.373 1087.18 604.263 1086.17 604.778C1085.94 604.778 1064.08 616.096 1050.13 633.115C1049.75 633.59 1049.28 633.979 1048.74 634.256C1048.2 634.533 1047.61 634.691 1047 634.72Z" fill="#431426"/>
<path d="M1065.72 680.254C1064.7 680.267 1063.71 679.919 1062.93 679.274C1062.15 678.628 1061.62 677.726 1061.44 676.727C1061.25 675.728 1061.43 674.696 1061.94 673.816C1062.44 672.935 1063.24 672.262 1064.2 671.916C1082.2 665.293 1100.77 660.334 1119.67 657.103C1120.81 656.928 1121.97 657.213 1122.9 657.896C1123.83 658.578 1124.45 659.602 1124.63 660.742C1124.8 661.882 1124.52 663.044 1123.83 663.974C1123.15 664.903 1122.13 665.524 1120.99 665.699C1102.68 668.87 1084.69 673.664 1067.24 680.025C1066.75 680.185 1066.23 680.263 1065.72 680.254V680.254Z" fill="#431426"/>
<path d="M1043.25 747.727C1042.32 747.724 1041.42 747.425 1040.68 746.873C1039.94 746.321 1039.39 745.546 1039.12 744.661C1039.12 744.317 1028.81 710.766 1007.61 709.161C1006.47 709.074 1005.41 708.537 1004.66 707.669C1003.92 706.801 1003.55 705.674 1003.64 704.534C1003.73 703.394 1004.26 702.335 1005.13 701.591C1006 700.847 1007.13 700.478 1008.26 700.565C1035.34 702.657 1046.86 740.679 1047.35 742.226C1047.51 742.764 1047.56 743.329 1047.51 743.888C1047.45 744.448 1047.29 744.99 1047.02 745.486C1046.75 745.981 1046.39 746.419 1045.96 746.774C1045.52 747.129 1045.02 747.394 1044.48 747.555C1044.08 747.668 1043.67 747.726 1043.25 747.727V747.727Z" fill="#431426"/>
<path d="M868.102 701.196C867.209 701.203 866.337 700.931 865.607 700.417C864.877 699.903 864.327 699.173 864.033 698.33C862.288 693.715 862.288 688.62 864.033 684.004C864.512 682.987 865.37 682.198 866.424 681.807C867.478 681.415 868.643 681.451 869.67 681.909C870.697 682.366 871.504 683.207 871.918 684.253C872.332 685.298 872.32 686.464 871.884 687.5C871.024 690.084 871.074 692.885 872.027 695.437C872.383 696.516 872.301 697.692 871.797 698.711C871.293 699.729 870.408 700.509 869.334 700.881C868.94 701.042 868.525 701.148 868.102 701.196V701.196Z" fill="#431426"/>
<path d="M1456.53 1481.74C1469.51 1540.25 1504.75 1574.23 1540.37 1566.32C1545.12 1565.29 1549.67 1563.51 1553.86 1561.05C1580.19 1545.75 1591.77 1504.75 1580.54 1454.21C1569.31 1403.66 1541.48 1371.43 1511.17 1368.74C1506.33 1368.28 1501.45 1368.59 1496.7 1369.65C1461.09 1377.56 1443.55 1423.26 1456.53 1481.74Z" fill="#FFFAF4"/>
<path d="M1530.17 1571.76C1514.98 1571.76 1499.94 1564.94 1486.93 1551.99C1470.8 1535.92 1458.83 1511.88 1452.32 1482.68C1445.82 1453.4 1446.59 1426.64 1454.36 1405.32C1462.12 1384.01 1476.91 1369.71 1495.76 1365.52C1500.94 1364.35 1506.28 1364.01 1511.57 1364.52C1544.7 1367.39 1573.41 1402.31 1584.75 1453.34C1596.1 1504.37 1584.75 1548.13 1556.1 1564.83C1551.51 1567.49 1546.53 1569.42 1541.34 1570.56C1537.67 1571.36 1533.93 1571.76 1530.17 1571.76V1571.76ZM1506.85 1372.83C1503.74 1372.83 1500.65 1373.18 1497.62 1373.86C1481.75 1377.39 1469.23 1389.59 1462.41 1408.25C1455.27 1427.79 1454.67 1453.57 1460.72 1480.85C1466.76 1508.13 1478.25 1531.25 1493.01 1545.92C1507.05 1559.93 1523.55 1565.69 1539.42 1562.16C1543.75 1561.22 1547.89 1559.6 1551.72 1557.38C1577.19 1542.57 1586.87 1502.45 1576.36 1455.18C1565.84 1407.9 1540.11 1375.64 1510.77 1373.06C1509.47 1372.91 1508.16 1372.84 1506.85 1372.83V1372.83Z" fill="#431426"/>
<path d="M1489.4 1493.32H1532.58L1502.23 1522.17C1515.93 1545.38 1534.35 1559.42 1553.81 1561.11C1580.14 1545.81 1591.71 1504.81 1580.48 1454.26C1569.25 1403.72 1541.43 1371.49 1511.11 1368.79C1484.78 1384.09 1473.24 1425.09 1484.47 1475.58C1485.81 1481.57 1487.46 1487.49 1489.4 1493.32V1493.32Z" fill="#431426"/>
<path d="M1496.7 1373.95C1495.72 1373.96 1494.77 1373.63 1494.01 1373.02C1493.24 1372.41 1492.71 1371.56 1492.49 1370.6L1485.96 1341.15C1485.84 1340.6 1485.82 1340.03 1485.92 1339.47C1486.02 1338.91 1486.23 1338.38 1486.53 1337.91C1487.14 1336.94 1488.11 1336.27 1489.22 1336.02C1490.34 1335.77 1491.5 1335.98 1492.46 1336.59C1493.43 1337.2 1494.11 1338.17 1494.35 1339.28L1500.89 1368.74C1501.01 1369.29 1501.02 1369.86 1500.92 1370.42C1500.82 1370.97 1500.62 1371.5 1500.32 1371.98C1500.01 1372.46 1499.62 1372.87 1499.15 1373.19C1498.69 1373.52 1498.17 1373.75 1497.62 1373.87L1496.7 1373.95Z" fill="#431426"/>
<path d="M1524.95 1373.92C1524.47 1373.93 1524 1373.85 1523.55 1373.69C1523.01 1373.51 1522.52 1373.22 1522.1 1372.85C1521.68 1372.47 1521.33 1372.02 1521.09 1371.51C1520.84 1371 1520.7 1370.45 1520.67 1369.88C1520.64 1369.32 1520.72 1368.75 1520.91 1368.22L1530.82 1339.71C1531.01 1339.18 1531.3 1338.69 1531.68 1338.27C1532.06 1337.85 1532.52 1337.51 1533.03 1337.26C1533.53 1337.02 1534.09 1336.88 1534.65 1336.85C1535.22 1336.82 1535.78 1336.9 1536.31 1337.09C1536.84 1337.28 1537.33 1337.57 1537.75 1337.95C1538.17 1338.32 1538.52 1338.78 1538.76 1339.29C1539 1339.8 1539.14 1340.35 1539.17 1340.92C1539.2 1341.48 1539.12 1342.04 1538.93 1342.58L1529.13 1371.06C1528.83 1371.92 1528.26 1372.66 1527.51 1373.17C1526.76 1373.69 1525.86 1373.95 1524.95 1373.92V1373.92Z" fill="#431426"/>
<path d="M1549.74 1388.62C1548.91 1388.63 1548.1 1388.39 1547.41 1387.94C1546.71 1387.49 1546.16 1386.86 1545.82 1386.1C1545.47 1385.35 1545.36 1384.51 1545.48 1383.7C1545.6 1382.88 1545.96 1382.11 1546.5 1381.49L1566.33 1358.77C1566.71 1358.34 1567.16 1358 1567.67 1357.75C1568.18 1357.5 1568.74 1357.35 1569.3 1357.32C1569.87 1357.28 1570.44 1357.36 1570.97 1357.55C1571.51 1357.73 1572.01 1358.02 1572.43 1358.4C1572.86 1358.77 1573.2 1359.23 1573.45 1359.74C1573.7 1360.25 1573.85 1360.8 1573.88 1361.37C1573.92 1361.94 1573.84 1362.51 1573.65 1363.04C1573.47 1363.58 1573.18 1364.07 1572.8 1364.5L1552.98 1387.25C1552.56 1387.69 1552.06 1388.04 1551.5 1388.28C1550.94 1388.51 1550.34 1388.63 1549.74 1388.62V1388.62Z" fill="#431426"/>
<path d="M1469.22 1389.37C1468.65 1389.37 1468.09 1389.26 1467.56 1389.04C1467.03 1388.81 1466.56 1388.49 1466.16 1388.08L1445.1 1366.45C1444.68 1366.05 1444.35 1365.57 1444.13 1365.04C1443.9 1364.51 1443.79 1363.94 1443.78 1363.36C1443.78 1362.79 1443.9 1362.21 1444.12 1361.68C1444.35 1361.15 1444.67 1360.67 1445.09 1360.27C1445.5 1359.87 1445.99 1359.55 1446.53 1359.35C1447.06 1359.14 1447.64 1359.04 1448.21 1359.06C1448.79 1359.07 1449.35 1359.21 1449.88 1359.45C1450.4 1359.69 1450.87 1360.03 1451.26 1360.46L1472.29 1382.06C1473.09 1382.87 1473.55 1383.96 1473.55 1385.1C1473.55 1386.24 1473.09 1387.33 1472.29 1388.14C1471.89 1388.54 1471.41 1388.85 1470.88 1389.06C1470.36 1389.27 1469.79 1389.38 1469.22 1389.37V1389.37Z" fill="#431426"/>
<path d="M1453.01 1413.15C1452.41 1413.15 1451.81 1413.02 1451.26 1412.77L1423.67 1400.6C1422.62 1400.14 1421.8 1399.28 1421.39 1398.22C1420.98 1397.15 1421 1395.97 1421.46 1394.92C1421.92 1393.88 1422.78 1393.06 1423.84 1392.64C1424.91 1392.23 1426.09 1392.26 1427.14 1392.72L1454.73 1404.92C1455.62 1405.32 1456.36 1406.02 1456.8 1406.89C1457.25 1407.76 1457.39 1408.77 1457.18 1409.73C1456.98 1410.69 1456.46 1411.55 1455.7 1412.17C1454.94 1412.8 1453.99 1413.14 1453.01 1413.15V1413.15Z" fill="#431426"/>
<path d="M1651.74 1436.15C1664.75 1494.69 1699.96 1528.64 1735.61 1520.73C1740.35 1519.7 1744.9 1517.93 1749.1 1515.49C1775.43 1500.16 1787.01 1459.19 1775.78 1408.62C1764.54 1358.05 1736.72 1325.84 1706.38 1323.15C1701.54 1322.7 1696.66 1323.01 1691.91 1324.06C1656.3 1331.97 1638.76 1377.67 1651.74 1436.15Z" fill="#FFFAF4"/>
<path d="M1725.06 1526.21C1690.68 1526.21 1659.65 1491.51 1647.56 1437.1C1634.15 1376.73 1652 1328.53 1690.99 1319.88C1696.17 1318.71 1701.5 1318.37 1706.78 1318.88C1739.9 1321.74 1768.64 1356.67 1779.96 1407.7C1791.27 1458.73 1779.96 1502.48 1751.3 1519.19C1746.72 1521.85 1741.76 1523.79 1736.58 1524.92C1732.8 1525.77 1728.93 1526.2 1725.06 1526.21ZM1655.95 1435.38C1668.07 1489.82 1701.19 1524.2 1734.66 1516.69C1738.97 1515.75 1743.11 1514.14 1746.92 1511.91C1772.42 1497.1 1782.08 1456.98 1771.59 1409.71C1761.1 1362.43 1735.43 1330.02 1706.01 1327.45C1701.61 1327.02 1697.17 1327.3 1692.85 1328.28C1659.36 1335.7 1643.74 1380.68 1655.95 1435.38Z" fill="#431426"/>
<path d="M1684.6 1447.73H1727.78L1697.47 1476.58C1711.13 1499.79 1729.59 1513.83 1749.04 1515.55C1775.37 1500.22 1786.95 1459.25 1775.72 1408.68C1764.48 1358.11 1736.66 1325.9 1706.32 1323.21C1680.02 1338.51 1668.47 1379.51 1679.67 1430.02C1681.09 1436.17 1682.73 1442.08 1684.6 1447.73Z" fill="#431426"/>
<path d="M1691.91 1328.37C1690.93 1328.37 1689.98 1328.04 1689.22 1327.43C1688.46 1326.82 1687.93 1325.97 1687.72 1325.02L1681.16 1295.56C1681.04 1295.01 1681.03 1294.44 1681.13 1293.88C1681.22 1293.33 1681.43 1292.8 1681.73 1292.32C1682.04 1291.84 1682.43 1291.43 1682.89 1291.11C1683.36 1290.78 1683.88 1290.55 1684.43 1290.43C1684.98 1290.31 1685.55 1290.3 1686.11 1290.4C1686.66 1290.49 1687.19 1290.7 1687.67 1291C1688.15 1291.31 1688.56 1291.7 1688.88 1292.16C1689.21 1292.63 1689.44 1293.15 1689.56 1293.7L1696.12 1323.15C1696.36 1324.27 1696.15 1325.43 1695.54 1326.39C1694.93 1327.35 1693.96 1328.03 1692.85 1328.28L1691.91 1328.37Z" fill="#431426"/>
<path d="M1720.19 1328.34C1719.7 1328.35 1719.22 1328.27 1718.76 1328.11C1717.68 1327.73 1716.8 1326.95 1716.3 1325.92C1715.81 1324.89 1715.74 1323.71 1716.12 1322.64L1726.03 1294.13C1726.22 1293.59 1726.51 1293.1 1726.89 1292.68C1727.27 1292.26 1727.73 1291.92 1728.24 1291.67C1728.75 1291.43 1729.3 1291.29 1729.87 1291.25C1730.43 1291.22 1731 1291.3 1731.53 1291.49C1732.07 1291.68 1732.56 1291.97 1732.98 1292.35C1733.4 1292.73 1733.75 1293.19 1733.99 1293.7C1734.24 1294.21 1734.38 1294.76 1734.41 1295.33C1734.44 1295.89 1734.36 1296.46 1734.17 1296.99L1724.23 1325.5C1723.93 1326.34 1723.39 1327.06 1722.66 1327.57C1721.94 1328.08 1721.07 1328.35 1720.19 1328.34Z" fill="#431426"/>
<path d="M1744.94 1343.04C1743.89 1343.06 1742.87 1342.68 1742.08 1341.98C1741.65 1341.61 1741.3 1341.16 1741.05 1340.65C1740.79 1340.15 1740.64 1339.59 1740.6 1339.03C1740.56 1338.47 1740.63 1337.9 1740.81 1337.36C1740.99 1336.83 1741.28 1336.33 1741.65 1335.9L1761.5 1313.18C1761.88 1312.76 1762.34 1312.41 1762.85 1312.16C1763.36 1311.91 1763.91 1311.77 1764.48 1311.73C1765.05 1311.7 1765.61 1311.78 1766.15 1311.96C1766.69 1312.15 1767.18 1312.43 1767.61 1312.81C1768.03 1313.19 1768.38 1313.64 1768.63 1314.15C1768.88 1314.66 1769.02 1315.22 1769.06 1315.78C1769.09 1316.35 1769.02 1316.92 1768.83 1317.46C1768.65 1317.99 1768.36 1318.49 1767.98 1318.91L1748.12 1341.66C1747.72 1342.1 1747.23 1342.45 1746.68 1342.69C1746.13 1342.93 1745.54 1343.05 1744.94 1343.04V1343.04Z" fill="#431426"/>
<path d="M1664.46 1343.7C1663.88 1343.7 1663.31 1343.58 1662.78 1343.36C1662.25 1343.14 1661.77 1342.82 1661.36 1342.41L1640.31 1320.77C1639.55 1319.95 1639.15 1318.86 1639.19 1317.75C1639.22 1316.63 1639.69 1315.58 1640.49 1314.8C1641.29 1314.02 1642.36 1313.58 1643.47 1313.58C1644.59 1313.58 1645.66 1314.01 1646.47 1314.79L1667.53 1336.39C1667.93 1336.79 1668.25 1337.26 1668.46 1337.78C1668.68 1338.3 1668.79 1338.86 1668.79 1339.43C1668.79 1339.99 1668.68 1340.55 1668.46 1341.07C1668.25 1341.59 1667.93 1342.07 1667.53 1342.46C1667.12 1342.87 1666.64 1343.18 1666.12 1343.39C1665.59 1343.61 1665.03 1343.71 1664.46 1343.7V1343.7Z" fill="#431426"/>
<path d="M1648.21 1367.56C1647.62 1367.56 1647.04 1367.44 1646.5 1367.22L1618.87 1355.16C1617.83 1354.69 1617.01 1353.83 1616.6 1352.77C1616.19 1351.7 1616.22 1350.51 1616.68 1349.47C1617.15 1348.42 1618.01 1347.61 1619.07 1347.19C1620.14 1346.78 1621.33 1346.81 1622.37 1347.28L1649.96 1359.48C1650.86 1359.88 1651.6 1360.58 1652.04 1361.46C1652.49 1362.33 1652.62 1363.34 1652.42 1364.3C1652.21 1365.26 1651.68 1366.13 1650.92 1366.75C1650.15 1367.37 1649.2 1367.71 1648.21 1367.71V1367.56Z" fill="#431426"/>
<path d="M1603.92 1577.72C1602.91 1577.72 1601.94 1577.37 1601.16 1576.72C1600.39 1576.08 1599.86 1575.19 1599.68 1574.2C1599.68 1573.8 1592.74 1534.09 1628.62 1520.85C1657.27 1510.25 1679.53 1534.26 1687.21 1548.44C1687.52 1548.94 1687.73 1549.49 1687.82 1550.08C1687.91 1550.66 1687.88 1551.25 1687.74 1551.82C1687.59 1552.39 1687.32 1552.92 1686.96 1553.38C1686.6 1553.85 1686.15 1554.23 1685.63 1554.51C1685.11 1554.79 1684.54 1554.96 1683.96 1555.02C1683.37 1555.07 1682.78 1555 1682.22 1554.82C1681.67 1554.63 1681.15 1554.33 1680.71 1553.94C1680.27 1553.55 1679.92 1553.07 1679.67 1552.54C1678.84 1551.05 1660.51 1518.16 1631.6 1528.93C1602.69 1539.7 1607.9 1571.31 1608.16 1572.65C1608.26 1573.21 1608.25 1573.78 1608.14 1574.34C1608.02 1574.89 1607.79 1575.41 1607.47 1575.88C1607.15 1576.35 1606.73 1576.74 1606.26 1577.05C1605.78 1577.36 1605.25 1577.57 1604.69 1577.67C1604.44 1577.71 1604.18 1577.73 1603.92 1577.72V1577.72Z" fill="#431426"/>
<path d="M1755.2 1741.3C1752.57 1773.36 1739.24 1801.47 1704.92 1812.3C1666.95 1824.42 1639.02 1802.24 1618.96 1770.64C1587.76 1721.21 1575.98 1648.81 1575.98 1648.81C1583.6 1651.4 1591.41 1653.39 1599.33 1654.77C1619.28 1658.8 1639.84 1658.8 1659.79 1654.77C1680.38 1650.48 1698.95 1639.42 1712.51 1623.34C1717.79 1617.08 1722.3 1610.21 1725.95 1602.88C1725.95 1602.88 1760.3 1679.64 1755.2 1741.3Z" fill="#BE6956"/>
<path d="M1684.09 1820.01C1658.3 1820.01 1635.23 1804.25 1615.32 1772.93C1584.03 1723.34 1572.34 1652.59 1571.85 1649.5C1571.72 1648.76 1571.79 1647.99 1572.05 1647.28C1572.32 1646.57 1572.76 1645.95 1573.34 1645.47C1573.92 1644.99 1574.62 1644.67 1575.37 1644.55C1576.12 1644.42 1576.88 1644.5 1577.59 1644.77C1584.99 1647.25 1592.56 1649.16 1600.25 1650.5C1619.64 1654.37 1639.6 1654.37 1658.99 1650.5C1678.58 1646.41 1696.25 1635.9 1709.18 1620.62C1714.23 1614.6 1718.56 1608.01 1722.08 1600.99C1722.43 1600.25 1722.99 1599.63 1723.7 1599.21C1724.4 1598.79 1725.21 1598.58 1726.03 1598.61C1726.84 1598.64 1727.63 1598.89 1728.3 1599.34C1728.98 1599.79 1729.51 1600.42 1729.84 1601.16C1731.28 1604.34 1764.54 1679.64 1759.38 1741.56C1756.17 1780.87 1738.24 1806.03 1706.15 1816.26C1699.03 1818.65 1691.59 1819.91 1684.09 1820.01V1820.01ZM1581.74 1655.06C1585.49 1674.2 1597.93 1729.07 1622.71 1768.35C1645.63 1804.62 1672.85 1818 1703.63 1808.2C1732.08 1799.09 1748.01 1776.49 1750.9 1740.96C1754.91 1692.59 1733.88 1633.94 1725.46 1612.77C1722.6 1617.46 1719.38 1621.93 1715.83 1626.12C1701.7 1642.86 1682.38 1654.39 1660.93 1658.87C1640.41 1662.98 1619.28 1662.98 1598.76 1658.87C1591.74 1657.72 1585.89 1656.23 1581.74 1655.06Z" fill="#431426"/>
<path d="M1755.2 1741.3C1752.56 1773.36 1739.24 1801.47 1704.92 1812.3C1666.95 1824.42 1639.02 1802.24 1618.96 1770.64C1618.96 1770.64 1642.97 1715.28 1685.95 1746.57C1686.06 1746.57 1717.87 1697.12 1755.2 1741.3Z" fill="#FF89A4"/>
<path d="M1684.09 1820.01C1658.3 1820.01 1635.23 1804.25 1615.32 1772.93C1614.95 1772.34 1614.73 1771.66 1614.68 1770.96C1614.63 1770.26 1614.75 1769.56 1615.04 1768.92C1615.52 1767.74 1627.7 1740.27 1650.85 1733.96C1661.85 1731.1 1673.28 1733.22 1684.92 1740.67C1690.22 1733.88 1703.17 1719.87 1720.62 1718.72C1733.83 1717.86 1746.41 1724.45 1758.35 1738.52C1758.72 1738.95 1759 1739.44 1759.17 1739.98C1759.34 1740.52 1759.41 1741.08 1759.36 1741.64C1756.26 1780.98 1738.3 1806.14 1706.24 1816.45C1699.08 1818.78 1691.61 1819.98 1684.09 1820.01V1820.01ZM1623.92 1770.32C1646.55 1805.11 1673.34 1817.83 1703.54 1808.2C1731.53 1799.26 1747.38 1777.23 1750.67 1742.73C1741.05 1731.84 1731.16 1726.69 1721.25 1727.29C1703.03 1728.46 1689.73 1748.69 1689.59 1748.89C1689.27 1749.39 1688.85 1749.82 1688.36 1750.14C1687.86 1750.47 1687.31 1750.69 1686.72 1750.78C1686.15 1750.9 1685.56 1750.89 1685 1750.76C1684.43 1750.63 1683.89 1750.39 1683.43 1750.04C1672.8 1742.3 1662.6 1739.69 1653.11 1742.27C1637.27 1746.63 1627.04 1764.31 1624 1770.32H1623.92Z" fill="#431426"/>
<path d="M1676.58 1778.67C1676.29 1778.69 1675.99 1778.69 1675.69 1778.67C1675.13 1778.54 1674.61 1778.31 1674.14 1777.99C1673.67 1777.66 1673.27 1777.24 1672.96 1776.76C1672.66 1776.28 1672.45 1775.74 1672.35 1775.18C1672.26 1774.61 1672.27 1774.04 1672.4 1773.48C1674.34 1763.39 1677.69 1753.63 1682.37 1744.48C1682.94 1743.51 1683.86 1742.81 1684.95 1742.51C1686.03 1742.21 1687.19 1742.35 1688.17 1742.9C1689.15 1743.45 1689.88 1744.36 1690.2 1745.44C1690.52 1746.51 1690.4 1747.67 1689.88 1748.67C1685.65 1757.06 1682.61 1766 1680.82 1775.23C1680.63 1776.21 1680.1 1777.09 1679.32 1777.71C1678.55 1778.34 1677.58 1778.68 1676.58 1778.67V1778.67Z" fill="#431426"/>
<path d="M1641.11 1699.44C1633.58 1701.34 1625.6 1700.18 1618.93 1696.2C1612.26 1692.23 1607.44 1685.77 1605.52 1678.24L1599.56 1654.77C1619.51 1658.8 1640.07 1658.8 1660.02 1654.77L1661.6 1661.05L1662.28 1663.91C1664.17 1671.43 1663 1679.39 1659.03 1686.05C1655.06 1692.71 1648.62 1697.52 1641.11 1699.44V1699.44Z" fill="#FFFAF4"/>
<path d="M1697.24 1682.13C1693.51 1683.08 1689.64 1683.29 1685.84 1682.74C1682.03 1682.2 1678.37 1680.91 1675.07 1678.95C1671.76 1676.99 1668.88 1674.39 1666.58 1671.32C1664.27 1668.24 1662.6 1664.74 1661.65 1661.02V1661.02L1660.08 1654.74C1680.56 1650.41 1699.02 1639.35 1712.51 1623.34L1718.38 1646.52C1720.29 1654.04 1719.14 1662.02 1715.18 1668.7C1711.21 1675.38 1704.76 1680.21 1697.24 1682.13Z" fill="#FFFAF4"/>
<path d="M1633.86 1704.71C1626.39 1704.68 1619.15 1702.18 1613.27 1697.59C1607.38 1693 1603.18 1686.59 1601.34 1679.35L1595.41 1655.89C1595.23 1655.19 1595.23 1654.46 1595.41 1653.76C1595.59 1653.07 1595.94 1652.43 1596.44 1651.9C1596.92 1651.37 1597.54 1650.97 1598.23 1650.74C1598.92 1650.52 1599.65 1650.47 1600.36 1650.62C1619.74 1654.48 1639.69 1654.48 1659.07 1650.62C1660.16 1650.37 1661.3 1650.56 1662.25 1651.14C1663.21 1651.73 1663.89 1652.66 1664.17 1653.74L1665.72 1659.78V1660.13L1666.44 1662.99C1668.61 1671.63 1667.27 1680.78 1662.7 1688.44C1658.14 1696.09 1650.72 1701.61 1642.08 1703.79V1703.79C1639.39 1704.44 1636.63 1704.75 1633.86 1704.71V1704.71ZM1605.35 1660.16L1609.68 1677.35C1611.31 1683.77 1615.43 1689.28 1621.12 1692.67C1626.82 1696.06 1633.62 1697.05 1640.05 1695.43C1643.24 1694.61 1646.24 1693.17 1648.87 1691.19C1651.5 1689.21 1653.72 1686.73 1655.4 1683.9C1657.07 1681.06 1658.17 1677.92 1658.63 1674.66C1659.09 1671.39 1658.9 1668.07 1658.07 1664.88L1657.41 1662.28V1661.96L1656.84 1659.7C1639.81 1662.67 1622.42 1662.81 1605.35 1660.1V1660.16Z" fill="#431426"/>
<path d="M1690.05 1687.35C1682.63 1687.34 1675.41 1684.88 1669.53 1680.35C1663.65 1675.82 1659.43 1669.48 1657.53 1662.31V1661.96L1655.92 1655.72C1655.79 1655.16 1655.76 1654.58 1655.85 1654.02C1655.94 1653.45 1656.14 1652.91 1656.44 1652.42C1656.75 1651.93 1657.14 1651.51 1657.61 1651.17C1658.07 1650.84 1658.6 1650.6 1659.16 1650.48C1678.76 1646.39 1696.42 1635.87 1709.36 1620.59C1709.86 1619.98 1710.53 1619.51 1711.29 1619.26C1712.04 1619.01 1712.85 1618.97 1713.63 1619.16C1714.4 1619.33 1715.11 1619.72 1715.67 1620.27C1716.24 1620.82 1716.64 1621.52 1716.84 1622.28L1722.57 1645.46C1724.75 1654.11 1723.4 1663.27 1718.83 1670.94C1714.26 1678.6 1706.83 1684.13 1698.18 1686.32C1695.52 1686.99 1692.79 1687.33 1690.05 1687.35V1687.35ZM1665.72 1659.64V1659.96C1667.38 1666.37 1671.5 1671.86 1677.19 1675.24C1682.88 1678.61 1689.68 1679.6 1696.09 1677.98C1702.52 1676.34 1708.03 1672.22 1711.42 1666.52C1714.81 1660.82 1715.8 1654.01 1714.17 1647.58L1710.28 1632.14C1697.83 1644.64 1682.24 1653.55 1665.15 1657.92L1665.72 1659.64Z" fill="#431426"/>
<path d="M1509.31 1687.83C1508.17 1687.86 1507.06 1687.44 1506.23 1686.66C1505.41 1685.87 1504.93 1684.79 1504.9 1683.65C1504.86 1682.51 1505.29 1681.41 1506.07 1680.58C1506.86 1679.75 1507.94 1679.27 1509.08 1679.24C1536.67 1677.75 1556.24 1669.35 1567.21 1654.28C1583.17 1632.36 1575.81 1603.17 1575.67 1602.88C1575.52 1602.34 1575.48 1601.77 1575.55 1601.21C1575.63 1600.65 1575.81 1600.11 1576.09 1599.63C1576.38 1599.14 1576.75 1598.71 1577.2 1598.37C1577.65 1598.03 1578.16 1597.78 1578.7 1597.64C1579.8 1597.35 1580.98 1597.5 1581.96 1598.07C1582.95 1598.64 1583.67 1599.58 1583.98 1600.67C1584.32 1602.02 1592.57 1634 1574.23 1659.27C1561.66 1676.46 1539.85 1686.2 1509.57 1687.92L1509.31 1687.83Z" fill="#431426"/>
<path d="M1768.44 1620.67C1758.4 1620.82 1748.47 1618.47 1739.56 1613.83C1711.97 1599.24 1705.18 1566.89 1705.01 1565.55C1704.87 1564.99 1704.86 1564.41 1704.96 1563.84C1705.06 1563.27 1705.27 1562.73 1705.58 1562.25C1705.89 1561.76 1706.3 1561.35 1706.77 1561.02C1707.25 1560.7 1707.78 1560.47 1708.35 1560.36C1708.91 1560.25 1709.49 1560.25 1710.05 1560.36C1710.62 1560.48 1711.15 1560.71 1711.63 1561.03C1712.1 1561.36 1712.5 1561.78 1712.81 1562.26C1713.12 1562.75 1713.33 1563.29 1713.43 1563.86V1563.86C1713.43 1564.14 1719.68 1593.63 1743.63 1606.26C1760.16 1614.86 1781.42 1613.88 1806.84 1603.08C1807.36 1602.83 1807.93 1602.7 1808.5 1602.68C1809.08 1602.65 1809.66 1602.75 1810.2 1602.96C1810.74 1603.16 1811.23 1603.48 1811.65 1603.88C1812.06 1604.28 1812.4 1604.76 1812.62 1605.29C1812.85 1605.82 1812.96 1606.4 1812.96 1606.98C1812.96 1607.55 1812.84 1608.13 1812.62 1608.66C1812.39 1609.19 1812.06 1609.67 1811.64 1610.07C1811.22 1610.47 1810.73 1610.78 1810.19 1610.99C1797.06 1616.97 1782.86 1620.27 1768.44 1620.67V1620.67Z" fill="#431426"/>
<path d="M1755.72 1596.24C1759.06 1596.24 1761.77 1593.53 1761.77 1590.19C1761.77 1586.85 1759.06 1584.14 1755.72 1584.14C1752.38 1584.14 1749.67 1586.85 1749.67 1590.19C1749.67 1593.53 1752.38 1596.24 1755.72 1596.24Z" fill="#431426"/>
<path d="M1743.22 1570.73C1746.56 1570.73 1749.27 1568.03 1749.27 1564.69C1749.27 1561.35 1746.56 1558.64 1743.22 1558.64C1739.88 1558.64 1737.18 1561.35 1737.18 1564.69C1737.18 1568.03 1739.88 1570.73 1743.22 1570.73Z" fill="#431426"/>
<path d="M1780.05 1585.55C1783.39 1585.55 1786.09 1582.84 1786.09 1579.5C1786.09 1576.16 1783.39 1573.46 1780.05 1573.46C1776.71 1573.46 1774 1576.16 1774 1579.5C1774 1582.84 1776.71 1585.55 1780.05 1585.55Z" fill="#431426"/>
<path d="M1552.29 1650.93C1555.63 1650.93 1558.33 1648.22 1558.33 1644.89C1558.33 1641.55 1555.63 1638.84 1552.29 1638.84C1548.95 1638.84 1546.24 1641.55 1546.24 1644.89C1546.24 1648.22 1548.95 1650.93 1552.29 1650.93Z" fill="#431426"/>
<path d="M1524.61 1657.12C1527.95 1657.12 1530.66 1654.41 1530.66 1651.07C1530.66 1647.73 1527.95 1645.03 1524.61 1645.03C1521.27 1645.03 1518.57 1647.73 1518.57 1651.07C1518.57 1654.41 1521.27 1657.12 1524.61 1657.12Z" fill="#431426"/>
<path d="M1547.56 1624.77C1550.9 1624.77 1553.61 1622.07 1553.61 1618.73C1553.61 1615.39 1550.9 1612.68 1547.56 1612.68C1544.22 1612.68 1541.51 1615.39 1541.51 1618.73C1541.51 1622.07 1544.22 1624.77 1547.56 1624.77Z" fill="#431426"/>
<path d="M1561.77 1092.07C1560.88 1092.08 1560.01 1091.81 1559.28 1091.29C1558.55 1090.78 1558 1090.05 1557.7 1089.21C1523.86 988.665 1529.62 913.08 1540.51 867.38C1552.26 817.553 1572.03 791.91 1572.77 790.821C1573.1 790.331 1573.53 789.915 1574.03 789.597C1574.52 789.279 1575.08 789.067 1575.66 788.974C1576.25 788.881 1576.84 788.909 1577.41 789.056C1577.98 789.203 1578.52 789.466 1578.98 789.828C1579.45 790.191 1579.83 790.646 1580.12 791.164C1580.4 791.682 1580.57 792.253 1580.62 792.841C1580.67 793.428 1580.6 794.02 1580.42 794.58C1580.23 795.139 1579.93 795.654 1579.54 796.093C1578.76 797.096 1502.69 898.439 1565.95 1086.45C1566.14 1086.99 1566.21 1087.55 1566.18 1088.12C1566.14 1088.68 1566 1089.23 1565.74 1089.74C1565.49 1090.25 1565.15 1090.7 1564.72 1091.07C1564.29 1091.44 1563.8 1091.72 1563.26 1091.9C1562.78 1092.05 1562.27 1092.11 1561.77 1092.07Z" fill="#431426"/>
</svg>
