<svg xmlns="http://www.w3.org/2000/svg" width="3000" height="3000" fill="none"><path fill="#9CC" d="m1740.5 2466 .1.4.3.3.4.2c6.9 4 14.1 7.6 21.5 10.6l.6.2c18 7.7 36.6 14.3 55.4 20 3.3 1 10.7 10.6 14.2 11.5 38.6 11 61.6 29.5 111.9 29.2 117.4-.7 154.8-43 154.8-43v-.4c1-11.7 1.5-23.5 1.3-35.2v-4.9c-1.5-36.5-12.8-92.4-64.8-118.6a105.4 105.4 0 0 0-84.3-3.6l-17-15.3c-28.1-25.3-91.4-93.1-120.4-92-60.9 2.8-63.3 66-63.3 66s-2.7 15.6-5.4 57.8l-.3 4.6-.3 4.2-.4 7.4-.5 7.1v2.4c-.3 3.9-.5-4.2-.7-.4 0 1.6-.2 3-.3 4.7l-.3 4.6-.3 4.5-.2 4.5c0 1.5 0 3-.3 4.4v2.2l-.2 5.3c0 1 0 1.9-.2 2.8v.5c0 1.3 0 2.7-.2 4.1l-.4 8c0 1 0 2.3-.2 3.4-.2 1 0 2.7 0 4v8.5l-.1 4.6v2.4c-.6 7.7-.8 15.4-.4 23Z"/><path fill="#431426" d="M1943.6 2543.1c-38 0-62.8-8-89-16.6-8.3-2.7-17-5.5-26.2-8.1-3.7-1-5.7-5.3-8.2-10.7l-3-5.7a533.3 533.3 0 0 1-55.3-20l-.6-.2a175 175 0 0 1-23-11.4l-.6-.6-.4-.5c-.5-.7-.8-1.4-1-2.2-.6-8-.8-16-.5-24v-2.5c0-1.5 0-3 .2-4.7l.2-5V2423.5l.1-3.4c0-2.6.3-5.3.4-8v-.3l.2-3.9v-.4l2-33c-.1-1.3.2-2.4.8-3.4 0-1.2 0-2.3.3-3.4l1.2-18.6v-.5a652 652 0 0 1 5.3-57.6c.3-5.1 5.7-67.3 67.8-69.8 25.3-.9 70.6 42.7 103.7 74.5 7.7 7.4 14.4 13.8 19.8 18.6l15 13.4a109.2 109.2 0 0 1 85.3 4.8c55.4 28 66 88.8 67.3 122.5a340.3 340.3 0 0 1-1.1 40.7v.7c-.1.8-.5 1.6-1 2.3-1.6 1.8-40.2 43.8-158.3 44.5h-1.4Zm-112-33.1a801 801 0 0 1 25.9 8c25.8 8.4 50.3 16.4 87.6 16.2 103.7-.6 144-34.4 150.5-40.6.4-4.3 1.4-19.5 1.1-33.4v-4.6c-1.5-39.2-13.6-90.4-62.3-115-41-20.6-80-3.7-80.4-3.5a4.4 4.4 0 0 1-4.8-.8l-17-15.3c-5.5-5-12-11.3-20-18.8-28-27.1-75-72-96.5-72h-.6c-56 2.2-59 59-59.1 61.5v.6s-2.7 16-5.4 57.2v.4l-1.1 18.3-.3 4.6v2.3c0 1.2-.4 2.4-1 3.4l-1.3 23.6-.2 3V2408.5c0 1.2 0 2.4-.2 3.6v.4l-.4 8v10.8l-.2 4.9-.1 4.6v2.5c-.3 8 0 17.2.2 20.7a194 194 0 0 0 19.8 9.5l.8.3c17.5 7.6 35.4 14.1 53.6 19.7 3.5 1 5.5 5.2 7.9 10.4 1 2 2 4 3.3 6l.1.1Z"/><path fill="#431426" d="M1886.4 2411c-.5 0-1 0-1.4-.2a4.5 4.5 0 0 1-3.2-3.9c0-.6 0-1.2.2-1.7 19.2-60.3 66.5-76 68.5-76.6a4.5 4.5 0 0 1 5.3 6.3c-.2.6-.6 1-1 1.4-.5.4-1 .7-1.6.9-.6.2-45 15-62.6 70.7a4.5 4.5 0 0 1-4.2 3.2Z"/><path fill="#FFD073" d="M1819 2497.8c-51.6-14.5-76.3-29-78.4-31.3-2-2.3 1.6-61.5 5.2-117.3l5.4-57.8s84 44.2 67.7 206.4Z"/><path fill="#431426" d="M1818.5 2500.9a4 4 0 0 1-1.2-.2c-48.9-13.7-76.7-27.3-80-31.2-2.1-2.4-3.6-4 4-120.5v-.2l5.4-57.7c0-.8.3-1.5.7-2.1a4.5 4.5 0 0 1 3.8-2c.8 0 1.5.2 2.2.6 3.7 2 91.2 53.2 69.6 209.5a4.7 4.7 0 0 1-2 3.1c-.8.5-1.6.7-2.5.7Zm-73.8-37c4.1 2.7 25.3 13.7 70 26.7 15-122.4-40.8-176.6-59.7-191a1569 1569 0 0 1-5 50h.3c-4.4 68.3-6.3 106.7-5.6 114.4Z"/><path fill="#FFFAF4" d="M2101 2455.1c.3 17.6-1.2 40.5-1.2 40.5s-37.3 42.3-154.8 43c-50.3.3-76.8-13.6-115.5-24.5a233.6 233.6 0 0 1-88.9-47.6c-.8-1-.6-25.8 0-43 17.6 7.5 148.1 86.7 257 68.3 60.4-10.3 89-27 103.4-36.7Z"/><path fill="#431426" d="M1962.4 2543.5c-5.7 0-11.5 0-17.6-.4-124.1-5.4-207-73-207.6-73.6-1.8-2.2-2.2-17.7-1-46.2 0-.7.3-1.4.7-2 .3-.7.8-1.2 1.4-1.6a4.5 4.5 0 0 1 4.2-.3c2.5 1 6.8 3.2 12.7 6.3 36.7 19.1 148.6 77.4 241.8 61.6 64.3-10.9 92.3-29.8 101.5-36a4.5 4.5 0 0 1 4.6-.2 4.6 4.6 0 0 1 2.4 4c.3 17.5-1.1 40.5-1.1 40.8 0 .9-.4 1.8-1 2.5-1.5 1.9-36.4 45.1-141 45.1Zm-217.5-79.3c8.5 6.5 87.7 65 200.3 69.9 104 4.5 144-33.7 150.3-40.3.2-4.4 1-17.7 1-30.4-14 8.6-43.4 23.5-98 32.8-96.3 16.3-210-43-247.5-62.5l-6-3c-.4 14.3-.5 29-.1 33.5ZM1889.4 2322a4.5 4.5 0 0 1-3.9-2.3 4.5 4.5 0 0 1 .3-5c7.4-9.5 45-56.5 65.4-53.1a13.7 13.7 0 0 1 10.8 10.2 20.6 20.6 0 0 1-1.9 17.8c-13.5 22.3-67.7 32-70 32.3h-.7Zm59.2-51.7c-10 0-31.5 20.8-47.8 40 18.1-4.4 44.2-13.2 51.4-25.4a11.8 11.8 0 0 0 1.1-10.2c-1.2-3.8-3-4.1-3.6-4.3h-1.1Z"/><path fill="#431426" d="M1829.2 2332.7c-10.5 0-19.5-1.8-24.1-6.5a13.9 13.9 0 0 1-2.6-14.6 20.5 20.5 0 0 1 12-13.2c24-10 73.4 14.8 75.3 15.8a4.5 4.5 0 0 1-.8 8.4c-7.6 2.2-37.3 10-59.8 10Zm-.5-27.7c-3.6 0-7.1.5-10.5 1.8a11.7 11.7 0 0 0-7 7.5c-1.2 3.9 0 5.1.5 5.7 6.7 7 37.5 3 63-3-13.4-5.6-32.2-12-46-12ZM1968.9 2523.7a237.4 237.4 0 0 1-28.1-1.6 4.6 4.6 0 0 1 .9-9l10.6.9c8.2.6 16.5.7 24.8.4 1.2 0 2.4.4 3.3 1.2a4.5 4.5 0 0 1-2.9 7.8c-2.8.2-5.7.3-8.6.3Zm44.2-4.4c-1.1 0-2.3-.3-3.3-1a4.6 4.6 0 0 1-.6-6.4c.8-1 1.9-1.6 3-1.7a215 215 0 0 0 34-9.8 4.5 4.5 0 0 1 3.2 8.4 219.6 219.6 0 0 1-35.4 10.3l-.9.2Zm-107.6-2.3a422.7 422.7 0 0 1-36.4-8.3 4.5 4.5 0 0 1-1-8.2c1-.6 2.3-.8 3.4-.5 11.5 3.2 23.2 6 34.8 8.1a4.6 4.6 0 0 1 4.1 5 4.5 4.5 0 0 1-4.9 4v-.1Zm-69.6-19.4c-.5 0-1 0-1.5-.3-11.4-4.2-22.7-9-33.7-14a4.5 4.5 0 1 1 3.8-8.2 435 435 0 0 0 33 13.8 4.5 4.5 0 0 1 1.4 7.7c-.8.7-1.8 1-2.9 1Zm244.3-4.3a4.5 4.5 0 0 1-2.3-8.3c7.1-4.2 13.8-9 20-14.3a4.5 4.5 0 0 1 6 .6 4.5 4.5 0 0 1 0 6 145 145 0 0 1-21.4 15.4c-.7.4-1.4.6-2.3.7Zm-309.7-26.1c-.8 0-1.6-.2-2.3-.6-10.7-6-21-12.6-31-20a4.4 4.4 0 0 1-1.7-3 4.5 4.5 0 0 1 2.3-4.4 4.6 4.6 0 0 1 5 .3 291 291 0 0 0 29.9 19.3 4.5 4.5 0 0 1-2.3 8.4Z"/><path fill="#9CC" d="M1287.3 2512.7s24.3 33.1 129.4 37.6c105.1 4.5 146.4-40.2 146.4-40.2 0-12-.3-30-1.2-41.8-7.3-99.8-45-195.7-45-195.7s-18.9-56.4-63.8-56.4c-42.4-.3-64 54.5-64 54.5l-15 33.9-12.8 28.7-2.8 6s-38.6 21.9-56.3 57c-12.9 25.7-16.3 55-16.7 76.9-.1 13.2.5 26.4 1.8 39.5Z"/><path fill="#431426" d="M1431.4 2555.1c-4.8 0-9.7 0-14.8-.3-106-4.5-131.8-38-132.9-39.5-.4-.6-.7-1.4-.8-2.1-1.4-13.4-2-26.8-2-40.2.4-21 3.7-51.8 17.3-78.9 16.4-32.6 49.7-53.8 56.8-58l30.1-67.3c.8-2.2 22-57.3 65-57.3 52.8 0 70 55.3 71.3 59.8 2 5 38 99.6 45.2 196.7 1 12.7 1.3 30.9 1.2 42.2 0 1-.5 2.2-1.2 3-1.8 1.8-40.1 41.9-135.2 41.9Zm-139.7-44.3c4.8 5 33.7 31.1 125.3 35 91.5 3.8 134.2-30.8 141.6-37.6 0-11-.3-28-1.1-39.6-7.2-98-44.3-193.3-44.7-194.3l-.1-.4c-.6-2.2-15-53.4-62.8-53.4-36.8 0-56.3 51.2-56.5 51.7l-30.9 68.9c-.4.8-1 1.6-1.9 2-.3.3-37.7 21.7-54.5 55a178.7 178.7 0 0 0-16.2 75c0 12.6.6 25.2 1.8 37.7Z"/><path fill="#431426" d="M1533.6 2400.7a4.5 4.5 0 0 1-3.9-2.1c-62.7-97-168.6-55.6-169.5-55.2-.5.3-1.2.4-1.8.4a4.5 4.5 0 0 1-3.1-7.8c.4-.4 1-.8 1.5-1 1.2-.4 113.8-44.6 180.5 58.7.5.7.7 1.5.8 2.3a4.5 4.5 0 0 1-2.2 4c-.7.4-1.5.7-2.3.7Z"/><path fill="#FFFAF4" d="M1287.3 2512.7s24.3 33 129.4 37.6c105.1 4.5 146.4-40.2 146.4-40.2 0-12-.3-30-1.2-41.8 0 0-49 43.4-151.7 36.1-101-7.2-124-30.6-124.7-31.3-.2 13.2.4 26.4 1.8 39.6Z"/><path fill="#431426" d="M1431.4 2555.1c-4.8 0-9.7 0-14.8-.3-106-4.5-131.8-38-132.9-39.4-.4-.7-.7-1.5-.8-2.2-1.4-13.4-2-26.8-2-40.2a4.6 4.6 0 0 1 3-4 4.5 4.5 0 0 1 4.9 1c.2.2 23.2 22.9 121.8 30 99.3 7 147.9-34.7 148.3-35.1a4.5 4.5 0 0 1 6.7.7c.5.7.8 1.5.9 2.3.9 12.7 1.3 30.9 1.1 42.2 0 1-.4 2.2-1.2 3-1.6 1.9-40 42-135 42Zm-139.7-44.3c4.8 5 33.7 31.1 125.3 35 91.5 3.8 134.2-30.8 141.6-37.6 0-8.6-.1-20.8-.6-31.3-17 11.7-65.3 38-148 32-73.7-5.3-106.6-19-120-27 .3 13.2 1.3 25 1.7 28.9ZM1428.5 2334a4.5 4.5 0 0 1-3.6-7.2c7.3-9.5 45-56.5 65.4-53a13.6 13.6 0 0 1 10.8 10.1 20.3 20.3 0 0 1-2 17.8c-13.2 22.3-67.5 31.9-69.9 32.3h-.7Zm59.3-51.5c-10 0-31.5 20.8-47.8 40 18.1-4.4 44.2-13.2 51.4-25.4a11.7 11.7 0 0 0 1.2-10.3c-1.3-3.8-3-4-3.8-4.2h-1Z"/><path fill="#431426" d="M1429.6 2334h-.8c-2.3-.3-56.6-10-70-32.2a20.4 20.4 0 0 1-1.8-17.8 13.7 13.7 0 0 1 10.8-10.2c20.4-3.5 58 43.6 65.4 53a4.6 4.6 0 0 1 .3 5.1 4.6 4.6 0 0 1-3.9 2.2Zm-59.3-51.5h-1c-.8 0-2.5.5-3.8 4.3a12 12 0 0 0 1.2 10.3c7.2 12.2 33.4 21 51.3 25.3-16.3-19.1-37.7-39.9-47.7-39.9ZM1426.5 2533.8a4.5 4.5 0 0 1 0-9c11.8 0 23.7-.8 35.4-2.3a4.6 4.6 0 0 1 1.2 9 288.6 288.6 0 0 1-36.6 2.3Zm-36.2-2.5h-.6a362.7 362.7 0 0 1-36-6.7 4.7 4.7 0 0 1-2.7-2 4.7 4.7 0 0 1-.6-3.4 4.6 4.6 0 0 1 3.7-3.4h1.7c11.6 2.8 23.3 5 35.1 6.5a4.5 4.5 0 1 1-.6 9Zm107.7-6.9a4.5 4.5 0 0 1-1.2-8.8c11.5-3 22.6-7 33.5-11.7a4.5 4.5 0 0 1 3.6 8.3 250.4 250.4 0 0 1-35.9 12.3Zm-177.8-9.4c-.5 0-1 0-1.4-.3-20.8-6.5-34-12.5-34.6-12.7a4.6 4.6 0 0 1-2.4-2.5 4.6 4.6 0 0 1 1.1-5 4.6 4.6 0 0 1 3.3-1.2c.6 0 1.2.1 1.7.4 0 0 13.3 6 33.5 12.5a4.6 4.6 0 0 1 3 5 4.5 4.5 0 0 1-4.4 3.8h.2Z"/><path fill="#FFEAB9" d="M1448 2270a26 26 0 0 0 31-19.6l104.4-430.7a25.7 25.7 0 1 0-49.8-12l-104.4 430.7a26 26 0 0 0 18.7 31.6Z"/><path fill="#431426" d="M1453.8 2275.2a29.7 29.7 0 0 1-25.5-14.7c-4.2-7-5.4-15.3-3.5-23.3l104.5-430.5a30.5 30.5 0 0 1 36.5-23 29.3 29.3 0 0 1 18.6 14c4.1 7 5.3 15.3 3.4 23.2l-104.4 430.6a30.7 30.7 0 0 1-29.6 23.7Zm-4.8-9.6a21.5 21.5 0 0 0 25.6-16.2l104.4-430.7a22.1 22.1 0 0 0-7.9-22.6 20.5 20.5 0 0 0-23.6-.7c-4.8 3-8.2 7.9-9.5 13.4l-104.4 430.6a22 22 0 0 0 8 22.7c2.2 1.7 4.7 2.9 7.4 3.5Z"/><path fill="#FFEAB9" d="M1820.4 2280a25.8 25.8 0 0 1-23.8-16.1 25.6 25.6 0 0 1 .4-19.6c24-56 88.3-213.2 94.2-267.4 7-64.8-66.7-188.8-95.6-231a25.5 25.5 0 1 1 42.1-29c11.8 17.1 114.7 170.3 104.4 265.5-8 73-94.5 273.7-98.2 282.2a25.6 25.6 0 0 1-23.5 15.5Z"/><path fill="#431426" d="M1820.4 2284.6a30.1 30.1 0 0 1-27.6-42.2c24.1-55.8 88.1-212.4 94-266 6.9-63.5-66.3-186.2-95-228.1a30.2 30.2 0 0 1 49.7-34c11.9 17.2 115.6 171.5 105.1 268.5-8 73.7-94.8 275-98.5 283.5a30.2 30.2 0 0 1-27.7 18.3Zm-3.8-574.3a21.2 21.2 0 0 0-21 22.5c.2 3.8 1.5 7.5 3.7 10.7 29.3 42.6 103.6 167.9 96.3 234-6 54.8-70.3 212.6-94.6 268.8a21 21 0 0 0 38.7 16.7c3.7-8.5 90-208.6 97.8-280.9 10.2-93.6-91.9-245.5-103.6-262.5a21 21 0 0 0-17.3-9.3Z"/><path fill="#FFEAB9" d="M2399.4 591.3c-57.9-61.5-222.8-233.2-437.4-78.7-207.4 149.5-188.2 313-512.3 345.2-388 38.6-816.7-166.3-850 140.3-30.1 277.4 860.7 715 1242.3 472.7 381.6-242.4 557.4-879.5 557.4-879.5Z"/><path fill="#431426" d="M1556.6 1546c-226 0-492.3-91.8-691.4-215.6-85-53-154.7-110.3-201.5-165.8-50.9-60.5-74-116.6-68.5-167C605.6 902.2 653.5 849 746 830c82.6-16.8 195-4.7 313.8 8.2 121.3 13.2 259 28.2 389.4 15 210.8-21 273.2-95.5 352.3-190 40.2-48.1 85.9-102.3 157.8-154.3 219.8-158.3 388 20.5 443.3 79.3a4.5 4.5 0 0 1 1 4.3c-.4 1.6-45.2 161.9-135.9 349.7-83.7 173.6-225.3 407-423.3 532.6-78.4 49.8-178.4 71.3-287.8 71.3Zm-714-715.4c-132.3 0-223.9 34.1-238.4 168-10.1 93 89.2 214.2 265.8 324 149.5 93.1 332.7 164.6 502.6 196.1 136 25.3 327.6 36.9 467-51.6 196.2-124.6 336.8-356.3 420.1-528.8a2351.9 2351.9 0 0 0 134.6-345.8c-55.7-59.1-218.7-228.3-429.6-76.2-71 51.2-116.3 105.1-156.2 152.7-77.3 92.3-144 172-358.3 193.2-131.5 13.1-269.5-1.8-391.4-15-78.8-8.6-152.3-16.6-216.2-16.6Z"/><path fill="#BE6956" d="M2498 887.8s199.4-235.9 0-343c0 0-115.8-184.4-388 64.3-272.3 248.7-338.4 349.4-610.8 400.9-272.5 51.4-935-347.3-1007.8 0 0 0-180.4 364.5 413.7 381.6C1466.6 1407.7 2498 887.8 2498 887.8Z"/><path fill="#431426" d="M949.4 1397.2c-15.3 0-30-.3-44.5-1C686 1385 546 1329.3 489 1230.6c-58.4-101-6.4-213.2-2-222.2 11.1-52.6 36.8-91.4 76-115.4 112.4-68.4 321.8-10.5 524.3 45.4 160 44.1 311.3 85.9 411 67 227.8-43 310.8-121 492.7-292 34-32 72.6-68.2 115.8-107.7 106.3-97.1 201.7-140.7 283.4-129.5a161.8 161.8 0 0 1 110.9 65.2c49 26.7 78.2 63.5 87.3 109.5 21 110.6-82.5 234.6-87 239.9-.3.4-.8.8-1.3 1-2.6 1.4-262 134.7-586.5 262.8-190.6 75.2-366.2 134-521.8 174.6-173 45-321.4 68-442.5 68ZM699.5 871c-51.7 0-96.7 8.6-131.6 29.8-37.8 23-61.4 59-72.1 110.2l-.4 1c-.6 1.2-56.6 113.8 1.5 214.3 55.5 95.7 192.9 149.9 408.4 160.8 289 14.6 706-123 1005-240.9a7256.6 7256.6 0 0 0 584.8-262c8.3-10 103.8-129.4 84.3-231.5-8.3-43.6-36.4-78.5-83.6-103.9-.7-.3-1.3-.9-1.7-1.5a154.7 154.7 0 0 0-105.4-62.1c-78.9-10.7-171.6 32.2-275.8 127.3a10908 10908 0 0 0-115.7 107.6c-183.3 172.3-266.9 250.9-497.4 294.4-101.8 19.2-253.9-22.8-415-67.3C948.8 909.5 809.2 871 699.6 871v.1Z"/><path fill="#431426" d="M533 1113a5 5 0 0 1-1.4-.2c-56.3-17.2-45.1-100-44.7-103.4 0-.6.2-1 .5-1.5 1.4-2.6 34.3-62.8 96.7-74.7a4.5 4.5 0 0 1 1.7 8.9c-54.6 10.4-86.2 62.6-90 69.2-1 8.4-7.7 78.7 38.4 92.8a4.5 4.5 0 0 1 1.7 7.7c-.9.7-1.9 1-3 1v.2Z"/><path fill="#431426" d="M491.4 1014.5a4.5 4.5 0 0 1-1.4-8.8c2.2-.7 53.7-16.7 95.8-8.5a4.5 4.5 0 0 1-1.8 8.9c-39.8-7.8-90.8 8-91.3 8.2l-1.3.2ZM2515 667a4 4 0 0 1-1 0 4.5 4.5 0 0 1-3.4-5.4c14.3-62.5-10.9-105.6-15.6-113-10.9-3.9-87.3-29.3-141.8-2.1a4.5 4.5 0 0 1-4-8.1c62.2-31 146.8 1 150.5 2.3.8.3 1.5.8 2 1.5 1.4 2 34.4 48.8 17.9 121.4a4.5 4.5 0 0 1-4.5 3.4Z"/><path fill="#431426" d="M2469.7 628.1a4.5 4.5 0 0 1-3.2-7.7c30.5-30.9 29-61.7 27.7-71.4-14-1-70.5-2.6-108.4 30.9a4.5 4.5 0 0 1-5 .7 4.7 4.7 0 0 1-2.3-2.6 4.5 4.5 0 0 1 1.3-4.9c46.3-41 115.7-33 118.6-32.8a4.5 4.5 0 0 1 3.9 3.4c.4 1.7 10.4 42.8-29.5 83-.8.9-2 1.4-3.1 1.4Z"/><path fill="#FFEAB9" d="M1591.8 1036.2c263.3-63.5 526.8-488 745-378.3 360 180.8 232 687.6-332.2 1001-564 313.5-1167 122.3-1316.5-206.3-130.6-287.4 180.3-499 371-453.2 151.4 36.3 331.5 85.4 532.7 36.8Z"/><path fill="#431426" d="M1408.6 1822.8c-113.6 0-224.7-17-326.3-50.5-189.7-62.6-334.9-178.4-398.2-317.9-53-116.4-39-232.9 39.5-327.9 83.3-101 228-157.6 336.5-131.5l24.5 6c148.5 35.8 316.7 76.5 506.2 30.8l1 4.4-1-4.4c109.6-26.5 220.1-116.8 327-204.1 150.1-122.8 292-238.8 421.1-173.9 129.2 65 201.4 175.1 204.3 310.8 2.3 114-43.5 238.1-132.5 358.6-94.6 128-234.2 245.5-403.8 339.7-155.3 86.3-319.6 138.5-488 154.6a1150 1150 0 0 1-110.3 5.3ZM1004 997.7c-95.8 0-205.4 52-273.5 134.5-76 92.3-89.7 205.4-38.2 318.5 62.3 137.1 205.5 251.2 392.8 313.1 287.8 95 622.2 55.3 917.4-108.7 168.4-93.6 307-210.2 400.8-337.2 88-119 133.1-241 130.8-353.1-2.7-132.1-73.5-239.7-199.2-302.9-124-62.3-263.6 51.9-411.5 172.8-107.6 88-218.9 179-330.5 205.9-191.6 46.2-361 5.2-510.4-31l-24.5-6a232 232 0 0 0-54-6Z"/><path fill="#431426" d="M2120.4 516.5c-15.9 0-28.3-9.2-28.3-21 0-12 12.4-21.2 28.3-21.2a4.5 4.5 0 0 1 3.2 7.8c-.8.8-2 1.3-3.2 1.3-10.4 0-19.3 5.5-19.3 12 0 6.6 9 12 19.3 12 10.4 0 19.4-5.4 19.4-12a4.5 4.5 0 0 1 4.5-4.5 4.5 4.5 0 0 1 4.5 4.5c0 11.9-12.5 21-28.4 21ZM1737.1 885.4c-3.6 0-7.1-1.2-9.9-3.6a16 16 0 0 1-4.6-14c.8-5.5 3.3-10.7 7-14.8a4.5 4.5 0 0 1 6.8 6 19 19 0 0 0-4.8 9.9 7.2 7.2 0 0 0 1.7 6.2c3 2.6 10 1.2 15.5-5a19 19 0 0 0 4.9-9.8 7.2 7.2 0 0 0-1.7-6 4.6 4.6 0 0 1-1.3-5 4.7 4.7 0 0 1 2.3-2.5 4.5 4.5 0 0 1 3.5-.2l1.5.9a15.7 15.7 0 0 1 4.6 14 27.9 27.9 0 0 1-7 14.8 25.5 25.5 0 0 1-18.5 9.1ZM1330.5 969.9c-4.3 0-8.5-.9-12.5-2.4a4.5 4.5 0 0 1 3.2-8.5c4.5 1.8 9.4 2.2 14.1 1.2a9.9 9.9 0 0 0 7.1-5.3c2.2-5.8-3.9-13.7-13.3-17.2s-19.1-1.6-21.3 4.2a4.5 4.5 0 0 1-2.3 2.5 4.5 4.5 0 0 1-5-.8 4.5 4.5 0 0 1-1.4-3.1c0-.6 0-1.2.3-1.8 4-10.7 18.4-14.8 32.9-9.4s22.6 18 18.6 28.7a18.4 18.4 0 0 1-13.4 11 30 30 0 0 1-7 .9ZM956.4 882.8c-3 0-6-.5-8.8-1.6a4.5 4.5 0 0 1 3.2-8.5c2.7 1 5.6 1.4 8.4.8a5 5 0 0 0 3.7-2.6 5.2 5.2 0 0 0-1-4.3c-1.8-2.3-4.2-4-7-5-2.6-1-5.5-1.3-8.3-.7a5 5 0 0 0-3.7 2.5 4.5 4.5 0 0 1-8.3.3 4.5 4.5 0 0 1-.1-3.4 13.7 13.7 0 0 1 9.9-8.2 24.8 24.8 0 0 1 24.8 9.3 12.9 12.9 0 0 1-7.8 20.8c-1.6.4-3.3.6-5 .6ZM1190.3 902.6c-2.7 0-5.3-.5-7.7-1.5a13.1 13.1 0 0 1-8.4-9c-1.8-7.8 4.8-15.8 15-18a4.5 4.5 0 1 1 2 8.8c-5.4 1.2-8.8 4.9-8.3 7.3.4 1.6 2.2 2.4 3 2.7 2.5.9 5.3 1 7.8.4 2.6-.5 5-1.8 7-3.7.4-.5.8-1 1-1.7.3-.6.4-1.3.4-2-.2-.6-.2-1.2-.2-1.8.1-.6.3-1.2.6-1.7a4.4 4.4 0 0 1 3-2.1 4.5 4.5 0 0 1 5.4 3.6 13 13 0 0 1-3.6 11.8 22.1 22.1 0 0 1-17 6.9ZM1569 962.8c-8 0-14.5-4-16-10.5-1.8-7.9 4.9-15.8 15-18a4.5 4.5 0 1 1 2 8.8c-5.4 1.2-9 4.9-8.3 7.3.8 2.5 5.3 4.3 10.7 3 2.6-.5 5-1.8 6.9-3.7a4.5 4.5 0 0 0 1.5-3.6c-.2-.6-.2-1.2-.2-1.8a4.4 4.4 0 0 1 3.5-3.8 4.5 4.5 0 0 1 5.5 3.6 13 13 0 0 1-3.6 11.7 22.3 22.3 0 0 1-17 7ZM1917.7 610.3c-2.7 0-5.3-.4-7.7-1.4a12.4 12.4 0 0 1-4.7-20.8c3-3.2 7-5.5 11.5-6.4a4.5 4.5 0 0 1 2 8.8c-2.6.5-5 1.8-6.9 3.7a4.7 4.7 0 0 0-1.5 3.7c.4 1.5 2.2 2.4 3 2.7 2.6.8 5.3 1 7.9.3 2.6-.5 5-1.8 6.8-3.7a4.6 4.6 0 0 0 1.5-3.7 4.6 4.6 0 0 1 5.1-5.4 4.5 4.5 0 0 1 3 1.8c.3.5.6 1 .7 1.6a13 13 0 0 1-3.6 11.8 22.3 22.3 0 0 1-11.5 6.4c-1.9.4-3.7.6-5.6.6ZM1875.9 783.7a20.1 20.1 0 0 1-15.5-8.9 4.5 4.5 0 0 1 7.2-5.3c3.4 4.5 8.1 6.2 10.1 4.7a4.6 4.6 0 0 0 1.3-3.8c-.2-2.6-1.2-5.2-2.8-7.3a13.8 13.8 0 0 0-6-4.8 4.8 4.8 0 0 0-4 .2 4.5 4.5 0 0 1-3.4 1 4.6 4.6 0 0 1-3-1.8 4.6 4.6 0 0 1-.2-5.2c.3-.5.8-1 1.3-1.3a13 13 0 0 1 12.2-1.4 23.5 23.5 0 0 1 15 20.3 13 13 0 0 1-4.9 11.3 12 12 0 0 1-7.3 2.3ZM2418.7 1043c-20.7 0-36.8-11.8-36.8-26.8s16.1-26.8 36.8-26.8a4.5 4.5 0 0 1 4.5 4.5 4.5 4.5 0 0 1-4.5 4.5c-15 0-27.8 8.1-27.8 17.8 0 9.6 12.7 17.7 27.8 17.7 15 0 27.7-8.1 27.7-17.7 0-1.2.5-2.4 1.3-3.2a4.6 4.6 0 0 1 6.4 0c.9.8 1.3 2 1.3 3.2 0 15-16.1 26.8-36.7 26.8ZM2220.6 985l-2.6-.1A23.7 23.7 0 0 1 2200 971c-4-8.1-5.3-17.2-4-26.1a4.6 4.6 0 1 1 9 1.1c-1 7.1 0 14.4 3 20.9a13.4 13.4 0 0 0 24 3 38.7 38.7 0 0 0 5-40.2 15 15 0 0 0-11-9 4.6 4.6 0 0 1 1.2-9 23.8 23.8 0 0 1 18 13.7 47.7 47.7 0 0 1-6.7 50.6 24.5 24.5 0 0 1-18 9ZM1900.4 1541.7a18 18 0 0 1-12.2-4.4 19.5 19.5 0 0 1-5.8-17.6c1-7 4.2-13.7 9-19a4.6 4.6 0 0 1 3.2-1.6 4.5 4.5 0 0 1 3.3 1.2 4.7 4.7 0 0 1 1.5 3.1 4.5 4.5 0 0 1-1.2 3.3c-3.6 3.9-6 8.8-6.9 14.1a9.4 9.4 0 0 0 2.8 9.8 9.5 9.5 0 0 0 10 1.6c5.1-1.4 9.8-4.4 13.3-8.4 7.4-8.4 9.3-19.3 4.1-24a4.5 4.5 0 0 1 6-6.7c9 8.2 7.7 24.3-3.4 36.7a36 36 0 0 1-18 11.2c-1.8.5-3.8.7-5.7.7ZM1351 1655.8c-5.7 0-11.3-1-16.6-3a4.6 4.6 0 0 1-3-4 4.5 4.5 0 0 1 4.4-4.8l1.8.3c13.5 5.1 27.6 2 30.9-6.5a14.3 14.3 0 0 0-2.7-13.3 37 37 0 0 0-36.4-13.7 14.5 14.5 0 0 0-10.7 8.2 4.5 4.5 0 0 1-6 3.3c-.6-.2-1.1-.5-1.6-1-.5-.4-.8-1-1-1.6a4.5 4.5 0 0 1 .1-3.7 23.1 23.1 0 0 1 17-13.8 46.2 46.2 0 0 1 46 17.3 23.2 23.2 0 0 1 3.7 21.5c-3.6 9.4-13.7 14.8-26 14.8ZM845.2 1538.2c-4 0-7.7-.8-11.4-2.2a4.5 4.5 0 0 1-.2-8.3c1-.5 2.3-.5 3.4-.1 4 1.5 8.2 2 12.3 1a8.4 8.4 0 0 0 6-4.4c1.9-4.8-3.5-11.7-11.5-14.6-8-3-16.5-1.4-18.3 3.4a4.5 4.5 0 1 1-8.5-3.2c3.7-9.8 16.9-13.6 30-8.7 13 5 20.5 16.5 16.8 26.3a16.9 16.9 0 0 1-12.2 10c-2.1.5-4.3.8-6.4.8ZM1161.2 1564.8c-3.3 0-6.7-.5-9.8-1.8a15 15 0 0 1-5.8-25.6c4-4.1 9.1-7 14.8-8.2a4.5 4.5 0 0 1 4.9 1.7c.3.5.6 1 .7 1.7.2.6.2 1.2 0 1.8a4.4 4.4 0 0 1-2 3c-.5.3-1 .5-1.7.6-3.8.8-7.3 2.7-10 5.5a6.3 6.3 0 0 0 2.5 11.2 21.3 21.3 0 0 0 21.6-5 7.6 7.6 0 0 0 2.3-6.4c-.2-.6-.2-1.2-.1-1.8a4.5 4.5 0 0 1 5.3-3.9 4.6 4.6 0 0 1 3.6 3.7 16.1 16.1 0 0 1-4.5 14.5c-4 4.2-9.1 7-14.7 8.2-2.3.5-4.7.8-7 .8ZM1673.2 1646.3c-10 0-18.2-5-20-13a16.2 16.2 0 0 1 4.4-14.5c4-4.1 9.1-7 14.8-8.2a4.5 4.5 0 0 1 5.4 3.5 4.5 4.5 0 0 1-3.5 5.4c-3.8.7-7.3 2.7-10 5.4a7.5 7.5 0 0 0-2.4 6.4c1 4 7.9 7.2 16.4 5.3 8.5-2 13.4-7.8 12.4-11.8a4.5 4.5 0 0 1 3.4-5.5c.6-.1 1.2-.2 1.8 0 .6 0 1.2.2 1.8.5a4.5 4.5 0 0 1 2 3c2.3 9.7-6.2 19.7-19.2 22.6-2.4.6-4.8.8-7.3.8ZM2144.5 1169.8c-10 0-18.2-5-20-12.9-2.3-9.8 6.2-19.7 19.2-22.7a4.5 4.5 0 0 1 5.5 5.2c-.1.6-.3 1.1-.7 1.6-.3.5-.7 1-1.2 1.3-.5.4-1 .6-1.6.7-8.5 2-13.4 7.8-12.5 11.9 1 4 8 7.2 16.4 5.3 8.5-2 13.4-7.8 12.5-11.9-.2-.5-.2-1.1 0-1.7a4.5 4.5 0 0 1 1.8-3 4.5 4.5 0 0 1 6.3 1.1l.7 1.6c2.2 9.8-6.3 19.7-19.3 22.7a33 33 0 0 1-7.1.8ZM2088.1 1404.2c-2.1 0-4.2-.4-6.3-1.1-5.3-2-10-5.6-13.4-10.2a4.6 4.6 0 0 1-.2-5 4.5 4.5 0 0 1 2.8-2.1c.6-.2 1.2-.2 1.7-.1a4.5 4.5 0 0 1 3 1.8c2.3 3.2 5.4 5.6 9 7a6.3 6.3 0 0 0 6.7-.5 6.2 6.2 0 0 0 2.4-6.2c-.3-4-1.7-7.7-4-10.8-5.3-7-12.6-9-16-6.6a4.5 4.5 0 1 1-5.3-7.3c8-6 20.5-2.2 28.5 8.6 3.4 4.5 5.5 10 5.8 15.8a16.2 16.2 0 0 1-6 14 14.7 14.7 0 0 1-8.7 2.7ZM1956 1042.1c-.8 0-1.6-.2-2.3-.6a16.2 16.2 0 0 1-7.4-13.3 28.6 28.6 0 0 1 4.2-16.4c6.8-11.4 19-16.4 27.5-11.3a16 16 0 0 1 7.4 13.3c.3 5.7-1.2 11.4-4.2 16.3a4.6 4.6 0 0 1-2.8 2.3c-.6.2-1.2.2-1.8.1-.7 0-1.3-.2-1.8-.5a4.6 4.6 0 0 1-2.1-3v-1.8c.1-.7.4-1.2.7-1.7 2.1-3.4 3.2-7.2 3-11.1a7.7 7.7 0 0 0-3-6c-3.6-2.2-10.6.6-15 8.1-2 3.4-3.1 7.2-3 11.2 0 1.1.2 2.3.8 3.3.5 1 1.3 2 2.2 2.7a4.5 4.5 0 0 1 2 5 4.5 4.5 0 0 1-4.3 3.4h-.1ZM911.4 1194.7c-7.8 0-14.4-3.5-17-9.7-3.9-9 2.7-20.4 15-25.6a4.5 4.5 0 1 1 3.6 8.3c-8 3.4-11.8 10-10.2 13.8 1.6 3.8 9 5.7 17 2.3 3.6-1.4 6.8-3.9 9-7a7.7 7.7 0 0 0 1.2-6.7 4.6 4.6 0 0 1 .8-5.2 4.5 4.5 0 0 1 3.3-1.4 4.4 4.4 0 0 1 3.3 1.5l1 1.6a16.1 16.1 0 0 1-2 15 30.3 30.3 0 0 1-25 13ZM1223.5 1425.9c-2.5 0-5-.3-7.5-.8a21.7 21.7 0 0 1-14.7-34.8 43.7 43.7 0 0 1 19.8-16.1 4.5 4.5 0 0 1 3.6-.1 4.6 4.6 0 0 1 2.5 2.4 4.5 4.5 0 0 1-2.5 6c-6.4 2.5-11.9 7-15.7 12.6a12.7 12.7 0 0 0 2.4 18.8c2 1.4 4.2 2.2 6.6 2.3a37 37 0 0 0 35.8-15 14.6 14.6 0 0 0 2.1-13.4 4.5 4.5 0 0 1 8.3-3.5 23 23 0 0 1-2.8 21.7 43.4 43.4 0 0 1-19.9 16 46.2 46.2 0 0 1-18 3.9ZM1237.8 1736.7c-7.8 0-14.3-3.5-17-9.7-3.8-9 2.7-20.4 15-25.5.6-.3 1.2-.4 1.9-.5a4.5 4.5 0 0 1 4.3 6.3 4.5 4.5 0 0 1-2.6 2.5c-8 3.3-11.7 10-10.1 13.7 1.6 3.8 9 5.8 17 2.4 3.6-1.5 6.7-4 9-7.2a7.5 7.5 0 0 0 1.1-6.6 4.6 4.6 0 0 1-.1-3.5c.2-.6.5-1.1 1-1.5a4.5 4.5 0 0 1 5-1 4.6 4.6 0 0 1 2.4 2.5 16 16 0 0 1-1.8 15 30.8 30.8 0 0 1-25 13ZM1027.7 1346.6c-4.3 0-8.5-1-12.4-2.8a4.5 4.5 0 0 1 3.7-8.3 20 20 0 0 0 11.4 1.8 7.6 7.6 0 0 0 5.7-3.6c1.7-3.8-1.9-10.5-9.8-14a19.7 19.7 0 0 0-11.3-1.8 7.6 7.6 0 0 0-5.7 3.7 4.5 4.5 0 0 1-6 2.2 4.5 4.5 0 0 1-2.2-6 16.1 16.1 0 0 1 12.3-8.8c5.7-.9 11.5 0 16.6 2.4 12 5.5 18.4 17 14.3 26a16.1 16.1 0 0 1-12.3 8.8c-1.4.3-2.9.4-4.3.4ZM1333.4 1186.2a16.4 16.4 0 0 1-12.8-6.9 30.2 30.2 0 0 1-1.6-32.2 15 15 0 0 1 26.1-1.4 28.6 28.6 0 0 1 5.5 16 4.5 4.5 0 0 1-4.3 4.7c-.6 0-1.2 0-1.7-.3a4.3 4.3 0 0 1-2.6-2.3c-.2-.5-.4-1.1-.4-1.7-.1-3.9-1.4-7.7-3.6-10.8a7.3 7.3 0 0 0-5.9-3.5 7.6 7.6 0 0 0-5.4 4 21.1 21.1 0 0 0 1 22 7.5 7.5 0 0 0 6 3.4 4.5 4.5 0 0 1 3.2 1.2 4.4 4.4 0 0 1 1.5 3 4.5 4.5 0 0 1-4.3 4.8h-.7ZM2280.2 796.3a16.4 16.4 0 0 1-12.8-7 28.6 28.6 0 0 1-5.5-15.8c-.6-13.3 6.7-24 16.6-24.6 10-.5 18.3 9.5 19 22.8a4.5 4.5 0 0 1-9 .5c-.5-8.7-5.4-14.4-9.6-14.2-4 .1-8.4 6.4-8 15a20 20 0 0 0 3.7 10.9 7.6 7.6 0 0 0 5.8 3.4 4.5 4.5 0 0 1 3.6 7.5c-.8.9-2 1.4-3.1 1.5h-.7ZM2218 1457c-20.6 0-36.8-11.8-36.8-26.9 0-15 16.2-26.8 36.8-26.8a4.5 4.5 0 1 1 0 9c-15 0-27.7 8.2-27.7 17.8 0 9.7 12.7 17.8 27.7 17.8s27.8-8.1 27.8-17.8a4.5 4.5 0 0 1 9 0c0 15-16.2 26.9-36.8 26.9ZM1940.2 1313c-20.6 0-36.8-11.8-36.8-26.9 0-15 16.2-26.8 36.8-26.8a4.5 4.5 0 1 1 0 9c-15 0-27.8 8.2-27.8 17.8 0 9.7 12.7 17.8 27.8 17.8 15 0 27.8-8.2 27.8-17.8a4.5 4.5 0 0 1 4.5-4.5 4.5 4.5 0 0 1 4.5 4.5c0 15-16.2 26.8-36.8 26.8Z" opacity=".1"/><path fill="#431426" d="M2093.8 1467.3a5 5 0 1 0 0-10 5 5 0 0 0 0 10ZM1986.7 1467.3a5 5 0 1 0 0-10 5 5 0 0 0 0 10ZM1667.6 1565.3a5 5 0 1 0 0-10 5 5 0 0 0 0 10ZM1530.2 1343.8a5 5 0 1 0 0-10 5 5 0 0 0 0 10ZM1344.8 1436.5a5 5 0 1 0 0-10 5 5 0 0 0 0 10ZM1223.5 1135.8a5 5 0 1 0 0-10 5 5 0 0 0 0 10ZM1735.5 982.1a5 5 0 1 0 0-9.9 5 5 0 0 0 0 10ZM1797.5 972.5a5 5 0 1 0 0-9.9 5 5 0 0 0 0 10ZM1836.2 940.7a5 5 0 1 0 0-9.9 5 5 0 0 0 0 10ZM1968.3 900.8a5 5 0 1 0 0-9.9 5 5 0 0 0 0 10ZM2319.6 867a5 5 0 1 0 0-10 5 5 0 0 0 0 10ZM2467.8 998.4a5 5 0 1 0 0-10 5 5 0 0 0 0 10ZM2446.2 1112.6a5 5 0 1 0 0-10 5 5 0 0 0 0 10ZM2426.8 1212.3a5 5 0 1 0 0-10 5 5 0 0 0 0 10ZM2510.4 1082.1a5 5 0 1 0 0-10 5 5 0 0 0 0 10Z"/><path fill="#FFEAB9" d="M2298.1 1029.4s7.8 11.2-27 47c-40.2 41.2 125 109 153.2 44.1 11-25.4-20.1-31.6-8.2-60.4l-118-30.7Z"/><path fill="#431426" d="M2371.7 1151.9h-.8c-44-.3-97.8-25.9-108.6-51.6a23.5 23.5 0 0 1 5.4-27c29.3-30.2 26.7-41 26.5-41.8a4.5 4.5 0 0 1 1.8-5.8 4.5 4.5 0 0 1 5.9 1.2c2.3 3.3 7.2 17-27.6 52.8a14.7 14.7 0 0 0-3.6 17.2c9.4 22.5 60 45.8 100.4 46 17.5 0 40.3-4 49-24 4.5-10.3.9-16.5-3.7-24.1-5.1-8.6-11.4-19.3-4.5-36.2a4.5 4.5 0 0 1 8.4 3.5c-5.3 12.7-1 19.8 3.8 28 5 8.3 10.6 18 4.3 32.5-8.3 18.7-28.4 29.3-56.7 29.3Z"/><path fill="#FFFAF4" d="M2259 1429.7a25.5 25.5 0 0 1-18.8-42.8c56.8-62.7 87.6-135.5 91.5-216.6 3-61.2-11.5-104.5-11.6-105a25.6 25.6 0 0 1 48.4-16.5c.7 2 17.3 51.2 14.4 121.6a393.8 393.8 0 0 1-104.8 250.9 25.5 25.5 0 0 1-19 8.4Z"/><path fill="#431426" d="M2259 1434.2a30.1 30.1 0 0 1-22.2-50.3c56.2-62 86.6-133.8 90.3-213.8 3-60-11.2-102.9-11.3-103.3a30.1 30.1 0 0 1 57-19.5c.7 2.1 17.6 52 14.6 123.3a398.5 398.5 0 0 1-106 253.7 30 30 0 0 1-22.3 9.9Zm85.3-398.3a21 21 0 0 0-20 27.8c0 .5 14.8 44.6 11.9 106.7-4 82.1-35.1 156-92.7 219.4a21 21 0 0 0 8.4 34.2 21 21 0 0 0 22.9-5.7c80.8-89 101-184 103.7-248a351 351 0 0 0-14.2-120 21 21 0 0 0-20-14.4Z"/><path fill="#FFEAB9" d="M2390.8 1102.4c-90.6-42-87.9-1.6-78 4.8l-8.6-85.6 92.6 5.7-6 75Z"/><path fill="#431426" d="M2312.7 1111.7c-.8 0-1.7-.2-2.4-.7a17.4 17.4 0 0 1-4.8-22c5.2-9.2 23.3-20.3 87.2 9.3a4.5 4.5 0 0 1-3.8 8.2c-48.6-22.5-71-21.1-75.3-13a8.5 8.5 0 0 0 1.8 10 4.5 4.5 0 0 1 1.8 5 4.5 4.5 0 0 1-4.3 3.2h-.2Z"/><path fill="#FFD073" d="m2081.6 1333.6 329.4 112.6s20 22.8-.5 83c-19.2 56.3-50.4 66-50.4 66l-329.4-112.6-96.1-103.4 7.7-22.6 139.3-23Z"/><path fill="#FFD073" d="m1903 1342.7-7.9 23 39.5 13.5 7.9-23-39.5-13.5Z"/><path fill="#431426" d="M2292.5 1576.6c-.5 0-1 0-1.5-.2l-259.5-88.9a4.5 4.5 0 0 1-2.8-5.7c.2-.8.7-1.4 1.3-2 .2-.2 27-23.4 41.8-66.4 15.6-45.7 7.7-77.7 7.6-78a4.7 4.7 0 0 1 1.4-4.4 4.5 4.5 0 0 1 4.5-1l259.6 88.7c.7.3 1.4.7 2 1.2.4.6.8 1.3 1 2 .4 1.4 8.7 34.8-7.8 83.1a168.8 168.8 0 0 1-44.5 70.4c-.9.8-2 1.2-3 1.2Zm-251.1-95 249.9 85.4a167.4 167.4 0 0 0 40-64.8 156.4 156.4 0 0 0 8-75.7l-249.8-85.4a169 169 0 0 1-9.3 75.3 177.5 177.5 0 0 1-38.8 65.1Z"/><path fill="#431426" d="M2360.1 1599.8c-.5 0-1-.1-1.4-.3l-329.5-112.6c-.7-.2-1.3-.6-1.9-1.2l-96-103.5a4.5 4.5 0 0 1-1-4.5l7.7-22.6a4.5 4.5 0 0 1 3.6-3l139.3-23c.7-.1 1.4 0 2.2.2l329.4 112.6c.8.2 1.4.7 2 1.3.8 1 21.5 25.4.3 87.3-19.7 57.7-52 68.4-53.3 68.8l-1.4.5Zm-326.9-121 326.8 111.6c5.8-2.5 30.3-15.9 46.2-62.6 17.4-51 5.1-73.3 2-77.7l-327-111.8-135.5 22.4-6 17.4 93.5 100.6Z"/><path fill="#431426" d="M1934.6 1383.7c-.5 0-1 0-1.5-.2l-39.5-13.5c-1.1-.4-2-1.3-2.6-2.3-.5-1.1-.6-2.3-.2-3.5l7.8-23a4.5 4.5 0 0 1 4-3c.6 0 1.2 0 1.8.2l39.5 13.7a4.5 4.5 0 0 1 2.8 5.7l-7.8 23c-.4 1.1-1.3 2-2.3 2.6-.7.2-1.3.3-2 .3Zm-33.8-20.8 31 10.6 4.9-14.5-31-10.6-5 14.5Z"/><path fill="#FFFAF4" d="M2215.5 1381.2s-20.4-6.7-37.3-4.5c-17 2.3-26.6 7.3-45.8 2.5-5.9-1.5-18.4-9-49.7-22.7-41.6-18-62.5 28.3-15.8 49 33.8 15 44 14.6 41.7 25-2.3 10.5-17.8 71.4-17.8 71.4l-36.7-9.4s-1.6 76.2 35.5 83.2c0 0 2.3 50.2 47.5 32.2 0 0 9 45.5 58.7 10.4 0 0 32.5 46.5 73.3-22.5s50.8-119 32.4-152.3c0 0 28-1 25.6-21.3-4-35.5-35.8-18.1-51.2-30.5-15.9-12.7-30.9-42.5-49.5-35a17.8 17.8 0 0 0-10.9 24.5Z"/><path fill="#431426" d="M2223.3 1638a39.7 39.7 0 0 1-28.3-13.7c-16.9 11-31.3 14.4-42.8 9.8a33.5 33.5 0 0 1-18-20.3c-12.5 4-23 3.2-31.5-2.2-12.8-8.3-16.3-25-17.2-32.3-37-11.1-36-83.7-35.9-86.9a4.6 4.6 0 0 1 2-3.6 4.6 4.6 0 0 1 4-.6l31.6 10.2c3.7-14.8 15.3-60.3 17.2-68.8.8-3.4.3-4.3-17.7-11.3-5.7-2.2-12.8-5-21.5-8.6-17.2-7.3-27.8-19.5-29.3-33.4a26 26 0 0 1 10.9-24.4c9.8-6.8 23.6-6.6 38 .6 29.6 14.7 43.3 21 48.8 22.3 13.2 3.3 21.3 1.7 31.6-.4 3.9-.8 7.9-1.5 12.5-2.2 10.7-1 21.5 0 32 2.6a22 22 0 0 1 1.4-9.8 23.5 23.5 0 0 1 13.8-12.6c16-6.3 28.8 8.5 40.2 21.5 4.2 5.1 8.8 9.9 13.8 14.3 4.3 3.4 10.9 3.6 17.9 3.8 13.2.3 31.3.8 35 29.5a19.8 19.8 0 0 1-4.4 16c-5 5.2-11.7 8.6-18.9 9.7 15.5 35.1 3.8 84.6-35.4 150.9-15.3 25.9-31.6 39.4-48.4 40h-1.4Zm-27.5-24.3h.8a4.3 4.3 0 0 1 3 1.9s10 14 24.8 13.4c13.3-.5 27.4-12.9 40.9-35.6 39.1-66 50-115.8 32.4-147.8a4.5 4.5 0 0 1 0-4.4 4.5 4.5 0 0 1 3.7-2.3c3.7-.1 14.3-1.8 19-7.3a10.9 10.9 0 0 0 2.3-9c-2.6-21.1-12.5-21.4-26.3-21.8-8.1-.2-16.5-.4-23.2-5.7-5.4-4.7-10.5-9.9-15-15.4-12-14-20.8-22.8-30.1-19a14.4 14.4 0 0 0-8.8 7.5c-1.2 3.6-1.1 7.4.3 10.9.3.8.5 1.7.3 2.6-.1.8-.5 1.6-1 2.3a4.5 4.5 0 0 1-4.8 1.2c-.2 0-19.6-6.2-35.4-4.1-4.3.5-8.2 1.3-12 2a71.2 71.2 0 0 1-35.5.3c-6.3-1.6-19.6-7.6-50.6-23-11.4-5.6-21.9-6-28.9-1.2a16.9 16.9 0 0 0-7 16c1.1 10.6 9.8 20 23.8 26 8.6 3.6 15.6 6.3 21.3 8.5 17.7 7 25.8 10 23.2 21.7-2.3 10.4-17.8 71.1-18.5 73.7-.1.6-.4 1.2-.8 1.6a4.4 4.4 0 0 1-3.1 1.8c-.6 0-1.2 0-1.8-.2l-30.1-9.7c.5 17.6 4.6 67.4 31.8 72.5a4.5 4.5 0 0 1 3.6 4.2c0 .2 1.2 20.7 13.5 28.6 6.8 4.4 16.2 4.3 27.8-.4.6-.2 1.3-.3 1.9-.2.6 0 1.3.2 1.9.5a4.4 4.4 0 0 1 2.2 3s3 14.4 14.1 18.7c9 3.7 22.2-.2 37.6-11.1.8-.5 1.8-.7 2.7-.6Z"/><path fill="#431426" d="M2237.7 1396.8c-1 0-1.8-.3-2.6-.8-6.6-4.3-13.7-7.9-21-10.6-.6-.2-1.2-.5-1.6-.9-.4-.4-.8-.9-1-1.4a4.5 4.5 0 0 1-.3-3.5 4.5 4.5 0 0 1 4-3c.7 0 1.3 0 1.8.3 8.2 2.9 16 6.8 23.3 11.6a4.5 4.5 0 0 1 1.8 5.1 4.5 4.5 0 0 1-4.4 3.2ZM2091.3 1580.2h-2a4.5 4.5 0 0 1 .7-9c1.8 0 43.9 2.8 63.2-46.2a4.7 4.7 0 0 1 2.4-2.5l1.7-.3c.6 0 1.2 0 1.8.3a4.4 4.4 0 0 1 2.5 2.4 4.4 4.4 0 0 1 0 3.4c-19.3 49-60.5 52-70.3 52ZM2088.4 1515.3l-1.2-.2c-.6-.2-1.1-.4-1.6-.8a4.6 4.6 0 0 1-1.6-4.8l1.8-6.5a4.6 4.6 0 0 1 2.1-3 4.5 4.5 0 0 1 3.6-.4c.6.1 1.1.4 1.6.8a4.4 4.4 0 0 1 1.7 3.1c0 .6 0 1.3-.3 1.8l-1.7 6.6a4.6 4.6 0 0 1-4.4 3.3ZM2137 1612.4c-1.1.2-2.3-.2-3.3-1-1-.7-1.5-1.8-1.6-3-.2-1.2.2-2.4 1-3.3.7-1 1.8-1.6 3-1.7.4 0 23.5-6.2 46.7-51.8a4.5 4.5 0 0 1 8.3.6c.4 1.2.3 2.4-.2 3.5-25.6 50.2-51.8 56.3-52.9 56.5a5 5 0 0 1-1 .2ZM2195.8 1622.8a4.7 4.7 0 0 1-3.4-1.5c-.4-.5-.7-1-.9-1.6a4.5 4.5 0 0 1 .3-3.4c.2-.6.6-1 1-1.4 11.3-11 20.3-24 26.9-38.2a4.5 4.5 0 0 1 6-2.2 4.6 4.6 0 0 1 2.2 6c-7 15.5-16.9 29.4-29 41.2-1 .7-2 1-3 1Z"/><path fill="#FFEAB9" d="M1081 1586.9s-12.1-6.4-43.6 32.7c-36.2 45-123.5-111.4-62.5-147.1 24-14.1 33.9 16.1 61 .8l45 113.6Z"/><path fill="#431426" d="M1022 1632c-2.4 0-5-.3-7.3-1-26.9-7.5-58.8-58-64.5-101.8-3.7-28.5 4.3-50 22.4-60.7 13.7-8 23.8-3.6 32.8.3 8.9 4 16.4 7.2 28.4.4a4.5 4.5 0 0 1 4.4 7.9c-15.9 9-27.3 4-36.5 0-8.3-3.7-14.8-6.5-24.5-.8-19 11.1-20.3 34.3-18 51.7 5 40.1 34.4 87.7 57.9 94.3a14.7 14.7 0 0 0 16.7-5.6c31.4-39.2 45.6-35.8 49.2-33.9 1 .6 1.8 1.5 2.2 2.6a4.5 4.5 0 0 1-6 5.5c-.9-.1-12-1.4-38.4 31.4a23.6 23.6 0 0 1-18.7 9.8Z"/><path fill="#FFFAF4" d="M942.3 1576.3a499 499 0 0 1-350.6-142.1 25.6 25.6 0 1 1 35.7-36.8A442.4 442.4 0 0 0 882 1521.2a410 410 0 0 0 126.9-1.7 25.6 25.6 0 0 1 11 50c-1.7.4-31.4 6.8-77.6 6.8Z"/><path fill="#431426" d="M942.3 1580.9a503.5 503.5 0 0 1-353.6-143.4 30.1 30.1 0 1 1 42-43.3 438 438 0 0 0 252 122.5 408.9 408.9 0 0 0 125.4-1.6 30.1 30.1 0 0 1 12.9 58.8c-1.3.3-31.8 7-78.7 7Zm-332.6-186.1h-.4a21 21 0 0 0-20.2 25.4c.9 4.1 3 7.8 5.9 10.7a494.7 494.7 0 0 0 347.3 141c46 0 75.3-6.4 76.7-6.7a21.1 21.1 0 0 0-9-41.2c-.6 0-54.6 11.5-128.5 1.7-98.4-13-185-55-257.2-125a21 21 0 0 0-14.6-6Z"/><path fill="#FFEAB9" d="M983.2 1509.3c68.5 72.6 29.3 82.8 20 75.5l87.4-15-38.2-90-69.2 29.5Z"/><path fill="#431426" d="M1010 1591.3c-3.5 0-6.8-1-9.5-3a4.5 4.5 0 0 1 5.6-7 8.5 8.5 0 0 0 10-1.5c6.2-6.8.5-28.5-36.1-67.4a4.5 4.5 0 0 1-1.2-3.3 4.5 4.5 0 0 1 7.8-3c48.1 51.2 43.4 72 36.3 79.8a17.2 17.2 0 0 1-13 5.4Z"/><path fill="#FFFAF4" d="M693.2 1382.8s44.4 19.3 30.4 40.7c-14 21.3-42.6 17.6-51.2 37.5-8.5 19.8-16.7 56.7-38.5 52.5-21.7-4.2-21.8-30.8-21.8-30.8l-37.4 8.8 108-260.4s34.7-27.8 52.2-.2c17.6 27.6-29.3 44.3-29.8 62.8-.4 18.5 8.7 69.9-11.9 89Z"/><path fill="#431426" d="M637.4 1518.3c-1.4 0-2.8 0-4.2-.3-16.9-3.2-23.4-18.6-25-29.7l-32.3 7.7a4.4 4.4 0 0 1-4.5-1.5 4.5 4.5 0 0 1-.8-4.7l108-260.5c.3-.7.8-1.3 1.4-1.8.8-.6 20.3-16 38.9-13a29 29 0 0 1 20 14c12.7 20-3 34.9-15.4 47-6.7 6.3-13.6 13-13.7 18.3 0 3.8.2 9 .6 15.3 1.3 22 3.2 54.2-9.9 72.3 9 4.7 25.6 14.8 29.5 28a19.6 19.6 0 0 1-2.6 16.7c-7.6 11.7-19.1 16.5-29.3 20.8-9.6 4-18 7.6-21.5 16-1.6 3.6-3 7.8-4.8 12.3-7.2 19.3-16 43.1-34.4 43.1Zm-25.2-40.1c1 0 2 .3 2.8 1a4.6 4.6 0 0 1 1.7 3.5c0 .9.5 23 18 26.4 14 2.6 22-19.5 28.5-37.1 1.7-4.7 3.3-9 5-12.8 5-11.7 15.9-16.3 26.3-20.7 9.4-4 19.1-8.1 25.3-17.5a10.3 10.3 0 0 0 1.5-9c-3.3-11.2-22.8-21.8-30-25a4.5 4.5 0 0 1-1.2-7.4c14.6-13.7 12.5-47.4 11.1-69.8-.3-6.4-.7-12-.6-16.1.3-9 8.2-16.6 16.5-24.7 13.8-13.2 22.2-22.8 14-35.5a19.8 19.8 0 0 0-13.7-9.9c-12.8-2.1-27.3 7.8-31 10.4l-104 251.1 28.7-6.8 1-.1Z"/><path fill="#F57162" d="m694.4 1209.2-136 320.5s-24 18.4-82.7-6.5c-54.7-23.2-62.2-55-62.2-55l136-320.5 110-88.4 22 9.3 12.9 140.6Z"/><path fill="#F57162" d="m698.1 1030.4-22.3-9.5-16.3 38.5 22.3 9.4 16.3-38.4Z"/><path fill="#431426" d="M572.6 1469.5c-23.4-.4-46.4-5.4-67.8-14.8a167.6 167.6 0 0 1-67-49.5 4.5 4.5 0 0 1-.5-4.4l107-252.6a4.5 4.5 0 0 1 6-2.3c.7.3 1.4.8 1.9 1.4a163 163 0 0 0 63.2 46.5c44.4 18.8 76.9 13.3 77.2 13.2a4.4 4.4 0 0 1 4.3 1.7 4.5 4.5 0 0 1 .7 4.5l-107.1 252.6c-.3.7-.8 1.3-1.4 1.8-.5.4-1.2.8-2 .9-4.8.7-9.6 1-14.5 1Zm-126-67.6c16.9 19.3 38 34.6 61.7 44.5a156 156 0 0 0 75 13.5l103-243.3c-12.8.7-40 0-74.4-14.6a177.2 177.2 0 0 1-62.1-43.6L446.6 1402Z"/><path fill="#431426" d="M530.5 1540.8c-13.7 0-32.3-3-56.5-13.4-56.2-23.8-64.6-56.7-64.9-58-.2-1-.1-2 .3-2.9L545.3 1146c.3-.7.7-1.2 1.3-1.7l110-88.4a4.4 4.4 0 0 1 4.7-.6l21.9 9.3a4.4 4.4 0 0 1 2.7 3.7l13 140.6c0 .8 0 1.5-.4 2.2l-135.9 320.4c-.3.8-.8 1.4-1.4 1.9-.6.4-10.2 7.4-30.7 7.4Zm-112.2-72.3c2.2 6 13.7 31.3 59.2 50.6 49 20.8 72.6 10.3 77.4 7.6l134.9-318.2-12.6-136.7-17-7.2-107 86-134.9 318Z"/><path fill="#431426" d="M681.9 1073.4c-.7 0-1.3-.2-1.8-.4l-22.4-9.5a4.5 4.5 0 0 1-2.4-6l16.3-38.5a4.4 4.4 0 0 1 2.6-2.4 4.5 4.5 0 0 1 3.5 0l22.3 9.5a4.7 4.7 0 0 1 2.5 2.5 4.5 4.5 0 0 1 0 3.6l-16.4 38.4a4.5 4.5 0 0 1-4.2 2.8Zm-16.5-16.4 14 6 12.8-30-14-6-12.8 30ZM666.3 1403.6a4.5 4.5 0 0 1-4.5-3.8 4.5 4.5 0 0 1 3.1-5c9.4-3 18-8.1 25-15.1a4.5 4.5 0 0 1 6.7 6 69 69 0 0 1-30.3 17.9Z"/><path fill="#FFFAF4" d="M533.8 1182.5s-55.1-8.5-47.6 43c0 0-51.2 3-34.7 58.4 0 0-29.5 1.3-19 42.2 0 0-43.6 26.3 1.3 57.5 62.3 43.3 60.5-8.3 60.5-8.3s36.9-.3 24.6-34.1c0 0 55.7-10.1 22.6-47.8 0 0 31.3 12.4 39.2-9.8 11.4-32.5-21.1-38.3-30.5-51-25.6-34.4-16.4-50.1-16.4-50.1Z"/><path fill="#431426" d="M474 1405.3c-11.1 0-25.5-6-42.8-18.1-15-10.5-22.6-21.9-22.2-33.8.5-14.6 12.7-25.2 18.4-29.4-3-14.5-1.8-25.8 4.1-33.8a27 27 0 0 1 14.4-9.8c-4-16.7-2.4-30.4 5-40.9a47.3 47.3 0 0 1 30.3-17.9c-1.2-13.9 2.2-24.8 9.9-32.4 15.3-15.3 42.1-11.3 43.3-11.2a4.5 4.5 0 0 1 3.3 6.7c-.2.4-6.7 14.7 16.1 45.1 3.2 3.5 6.9 6.4 11 8.8 12.4 8.4 29.5 19.8 20.1 46.4a22.8 22.8 0 0 1-12.3 13.7 36.7 36.7 0 0 1-20.2 2 25.6 25.6 0 0 1 3 21.4c-4.7 13.5-22 19.9-30.6 22.2 2.3 9 1.4 16.9-2.8 23-6 8.6-17.1 11.2-23.2 12-.7 6.3-3.2 17.8-13.1 23.2-3.6 1.9-7.6 2.8-11.7 2.8Zm51.5-218.8c-8 0-20.3 1.4-28 9-6.3 6.3-8.6 16.2-6.7 29.2a4.5 4.5 0 0 1-4.2 5.2c-.2 0-19 1.4-28.3 14.8-6.3 9-7.1 21.8-2.4 37.8a4.6 4.6 0 0 1-2.1 5.3c-.6.3-1.3.5-2 .6a18.4 18.4 0 0 0-13 7.1c-4.5 6.3-5.2 16.2-1.8 29.3a4.6 4.6 0 0 1-2 5c-.2 0-16.4 10.1-16.9 23.8-.2 8.7 6 17.5 18.4 26.1 26.2 18 38.9 18 45 14.8 8.7-4.8 8.5-19.1 8.5-19.3a4.5 4.5 0 0 1 2.7-4.3c.5-.2 1.1-.3 1.7-.3 0 0 14.5-.3 20.2-8.6 3-4.5 3.2-11 .2-19.5a4.5 4.5 0 0 1 3.4-6c6.8-1.2 25-6.8 28.7-17.4 2.2-6-.7-13.9-8.6-22.9a4.5 4.5 0 0 1 2-7.3c1-.3 2-.3 3 .1 0 0 15.6 6 25.7 1.4a13.7 13.7 0 0 0 7.5-8.5c7-20-4.4-27.7-16.6-35.8-5-3-9.4-6.6-13.2-11-18.4-24.6-19.9-40.5-18.7-48.7h-2.5Z"/><path fill="#431426" d="M541.5 1297.9c-.8 0-1.6-.3-2.3-.7-45.5-27.8-56.9-68.8-57.2-70.6a4.5 4.5 0 0 1 6.6-5c1 .6 1.8 1.6 2.1 2.7 0 .5 11.1 39.4 53.3 65.2a4.5 4.5 0 0 1 .4 7.5c-.8.6-1.8.9-2.8.9ZM519 1345.6l-1.2-.1a104.3 104.3 0 0 1-70.5-60 4.5 4.5 0 0 1 4.4-6.5c.6 0 1.2.3 1.8.6a4.5 4.5 0 0 1 2.2 2.9 97 97 0 0 0 64.3 54.4 4.5 4.5 0 0 1 3.3 5.4 4.5 4.5 0 0 1-4.4 3.3ZM494.3 1379.7a4 4 0 0 1-1-.2c-61.8-15-65.2-51.6-65.3-53.2a4.5 4.5 0 0 1 7.5-3.8c.9.8 1.4 2 1.5 3.1 0 1.4 3.5 31.7 58.5 45.2a4.6 4.6 0 0 1 3.8 3.3 4.6 4.6 0 0 1-5 5.7v-.1Z"/><path fill="#F57162" d="M802 847.4s73.4-136 146.6-103.8c54.4 23.8-95.2 47.6-146.7 103.8Z"/><path fill="#431426" d="M802 852c-1 0-2-.4-2.7-.9a4.5 4.5 0 0 1-1.4-5.8c3-5.8 77.1-140.9 152.7-105.8 3.5 1.6 14 6.5 14 15.2-.2 12-19.9 21.1-57.5 37-35 15.1-78.9 33.7-101.8 58.8a4.6 4.6 0 0 1-3.4 1.4Zm123-109.2c-42.1 0-83 51-104.1 82.5 24.4-17 56-30.5 82.7-41.8 23-9.9 51.8-22 52-28.9 0-.5-.5-3-8.9-7a51.2 51.2 0 0 0-21.7-4.8Z"/><path fill="#F57162" d="M1138.3 668.3s78-1.6 124.8 31.6c46.6 33.2 66.8 70.2 92.4 55 35.5-21-9.6-63-74.3-82.5-55.7-16.8-143-4.1-143-4.1Z"/><path fill="#431426" d="M1342.2 762.3c-16.1 0-28.6-11.9-44.5-27.1a332 332 0 0 0-37.2-31.7c-45-32-121.4-30.8-122.2-30.8a4.5 4.5 0 1 1-.6-9c3.6-.5 88.3-11 144.6 4.2 40.7 10.9 89.3 43.7 90.9 69.6.4 6.7-2 15.8-16 21.5-4.8 2-9.9 3.2-15 3.3ZM1195.5 669c23.3 4.4 49.5 12.4 70.2 27a330 330 0 0 1 38.2 32.8c20 19.1 31.1 29.6 49.9 22 10.8-4.4 10.5-10.5 10.4-12.5-1.3-19.6-43.7-50.6-84.4-61.5-25.1-6.8-57.2-8.2-84.3-7.7v-.1Z"/><path fill="#FFFAF4" d="M1860.8 1161.8c8.7 62.9-12.9 102.8-45.8 107.4a46.5 46.5 0 0 1-35.3-10.3c-18-14-32.4-41.4-37.8-80.7-5.4-39.2 1-69.5 14.6-87.9a46.4 46.4 0 0 1 31.2-19.4c32.9-4.5 64.5 28.3 73.1 91Z"/><path fill="#431426" d="M1809 1274.1a52 52 0 0 1-32-11.6c-20.3-15.6-34.3-45.3-39.6-83.6-5.3-38.3.2-70.7 15.5-91.3a50.7 50.7 0 0 1 34.2-21c18-2.5 35.7 5.2 49.7 21.7 14.4 17 24.3 42.2 28.5 73 8.6 62-11.4 107.2-49.6 112.4-2.2.3-4.4.5-6.7.4Zm-15.4-199a39.2 39.2 0 0 0-21.2 6.2c-4.8 3-9 7-12.3 11.7-13.8 18.7-18.7 48.7-13.7 84.7 4.9 35.9 17.8 63.5 36 77.7a42.1 42.1 0 0 0 32 9.3c32.4-4.4 49.6-46.5 42-102.3-4-29-13.2-52.7-26.5-68.4a48 48 0 0 0-36.3-19Z"/><path fill="#431426" d="M1823.7 1167c7.4 53.6-11 87.7-39.1 91.6-1.6.2-3.3.3-4.9.3-18-14-32.4-41.4-37.8-80.7-5.4-39.2 1-69.5 14.5-87.9 1.6-.4 3.2-.8 4.8-1 19.4-2.7 38.3 9.8 50.5 35.3l-34 27.5 41.8-5.8c2 6.8 3.3 13.7 4.2 20.7ZM1831.6 1043.7a4.5 4.5 0 0 1-4-2.3c-6.1-11-14.1-17.8-23.5-20.1-15.6-4-30.4 5-30.6 5.2a4.5 4.5 0 0 1-6-1.6 4.5 4.5 0 0 1 1.2-6c.8-.5 18.1-11.3 37.5-6.4a47.2 47.2 0 0 1 29.9 26 4.4 4.4 0 0 1-1 3.4c-.3.5-.7.8-1.3 1.1-.6.4-1.4.6-2.2.7Z"/><path fill="#FFFAF4" d="M1574 1266.6c8.6 62.8-13 102.8-45.8 107.3a46.5 46.5 0 0 1-35.3-10.2c-18-14-32.4-41.5-37.9-80.7-5.4-39.3 1-69.6 14.7-88a46.4 46.4 0 0 1 31.3-19.3c32.7-4.6 64.4 28 73 90.9Z"/><path fill="#431426" d="M1522 1378.8a52 52 0 0 1-31.9-11.7c-20.2-15.6-34.2-45.3-39.5-83.6-5.3-38.3.2-70.7 15.4-91.3a51 51 0 0 1 34.3-21c18-2.5 35.7 5.2 49.7 21.7 14.4 17 24.2 42.2 28.5 73 4.2 30.8 1.5 57.8-7.8 78-9 19.8-23.9 32-42 34.4a50 50 0 0 1-6.6.5Zm-15.3-199a39 39 0 0 0-21.2 6.2c-4.9 3-9 7-12.3 11.7-13.8 18.7-18.7 48.8-13.8 84.6 5 36 17.8 63.6 36.2 77.8a42.1 42.1 0 0 0 32 9.3c14.8-2 27.2-12.4 34.9-29.2 8.5-18.7 11-44 7-73s-13.2-52.7-26.5-68.4a48.2 48.2 0 0 0-36.2-19Z"/><path fill="#431426" d="M1537 1271.7c7.3 53.7-11.2 87.8-39.2 91.6-1.6.3-3.3.4-5 .4-18-14-32.3-41.5-37.8-80.7-5.4-39.3 1-69.6 14.7-88a41 41 0 0 1 4.7-1c19.4-2.6 38.2 9.8 50.5 35.4l-34 27.4 41.8-5.7c1.9 6.8 3.3 13.6 4.2 20.6ZM1430 1167.6a4.5 4.5 0 0 1-4.4-4.5c0-.9.2-21.3 14.6-35 9-8.6 21-12.6 36.3-11.9a4.5 4.5 0 0 1 4.3 4.7 4.5 4.5 0 0 1-4.7 4.3c-12.6-.5-22.6 2.6-29.6 9.3a44.3 44.3 0 0 0-11.9 28.6 4.6 4.6 0 0 1-4.5 4.5ZM1673 1332c-.7 0-1.5-.1-2.2-.5-2.8-1.7-27.6-16.4-31.2-32.4a16.5 16.5 0 0 1 2.6-13.2c13.2-19 55-3.5 59.7-1.7a4.5 4.5 0 0 1 2.3 5.8c-.4 1-1.2 2-2.3 2.4-1 .5-2.2.6-3.3.2-10.3-4-41.2-12.8-49-1.6a7.3 7.3 0 0 0-1.1 6c2.3 10.4 20.1 22.7 26.8 26.6a4.6 4.6 0 0 1 2.1 5 4.5 4.5 0 0 1-4.4 3.4Z"/><path fill="#BE6956" d="m1819.8 1414.7-2.3 2.5c-36.2 38-106.5 54.7-155.6 46-5.2-.9-10.4-2.2-15.4-3.8-41.3-13.6-64.3-47.7-38.2-64.5 23-14.9 31.8 16 77.5 4.2 74.6-19.2 64-66.2 107.2-67.3 37.3-.8 61 44.4 26.8 82.9Z"/><path fill="#431426" d="M1689 1470c-9.3 0-18.7-.8-27.8-2.3-5.5-1-10.9-2.3-16.2-4-28.3-9.4-49.7-28.8-52-47.2-1.4-10.2 3.2-19.2 12.8-25.4 13-8.3 22.5-4.3 32.7 0 11 4.5 23.4 9.7 46.1 3.8 39-10 53.9-28 66-42.4 10.9-13.2 20.4-24.6 42.3-25a46 46 0 0 1 43.4 26.8c9.3 20 4.4 43.8-13.1 63.5l-2.5 2.7c-31.6 33.2-86.4 49.4-131.7 49.4Zm-68-74.7c-3.7 0-7.3 1.3-10.3 3.4-6.7 4.3-9.7 10-8.8 16.6 1.6 12.8 18 30.5 46 39.8 4.8 1.6 9.8 2.8 14.8 3.6 46 8.2 115.1-6.3 151.5-44.6l2.2-2.4c15-17 19.5-37 11.8-53.7a37 37 0 0 0-35.1-21.7c-17.9.4-25.3 9.4-35.7 21.8a119.6 119.6 0 0 1-70.6 45.4 73.1 73.1 0 0 1-51.8-4.2 38.2 38.2 0 0 0-14-4Z"/><path fill="#FF89A4" d="M1817.5 1417.2c-36.2 38-106.5 54.7-155.6 46 .4-15 13.6-30.1 24.8-36.5 26.1-15.4 39.5-4.3 39.5-4.3a55.8 55.8 0 0 1 47.2-32.2c32.8-2.2 44 27 44 27Z"/><path fill="#431426" d="M1689 1470c-9.3 0-18.7-.8-27.8-2.3-1.1-.2-2-.8-2.8-1.6-.6-.9-1-2-1-3 .4-16.3 13.9-32.6 27.1-40.3 19.7-11.6 33.1-9.3 39.8-6.6a59.8 59.8 0 0 1 48.9-30.5c35.7-2.4 48.4 29.6 48.5 29.9.4.8.4 1.6.3 2.5-.2.8-.6 1.6-1.2 2.2-31.7 33.4-86.5 49.6-131.8 49.6Zm-22.1-10.6c44.9 6.5 109.4-7.5 145.1-43.1a39.4 39.4 0 0 0-38.3-21.6 50.8 50.8 0 0 0-43.4 29.4c-.2.7-.6 1.3-1.2 1.7a4.4 4.4 0 0 1-4 1c-.6-.1-1.3-.5-1.8-1-.5-.2-11.6-8.6-34.3 4.8a48.4 48.4 0 0 0-22.1 28.8Z"/><path fill="#431426" d="M1718.6 1449a4 4 0 0 1-.8 0c-.6-.1-1.2-.3-1.7-.6-.5-.4-.9-.8-1.2-1.3a4.6 4.6 0 0 1-.8-3.4 77 77 0 0 1 8.2-23.5c.3-.5.7-1 1.2-1.3a4.4 4.4 0 0 1 3.3-1 4.7 4.7 0 0 1 3 1.8c.4.5.6 1 .8 1.7a4.4 4.4 0 0 1-.6 3.4 69.5 69.5 0 0 0-7 20.6 4.6 4.6 0 0 1-4.4 3.6Z"/><path fill="#F57162" d="M1241.4 1171.8c-24.1 0-51.4-12-73-24.7-41-23.7-83.4-61.2-119.3-105.4-101-124.6-147.1-165-147.5-165.3a22.6 22.6 0 0 1 29.5-34.3c2 1.7 49 42.5 153.2 171.2 71.3 87.9 145 117.6 160.6 113 .4-3.6.5-18.8-21.5-55.2-12-19.9-23.3-38.3-33.3-54.6-50-80.9-75-121.5-60-153.7 11-24.1 39.7-28.5 49.1-30 88.9-13.6 195.7 81.7 289.8 165.6 34 30.3 66 58.9 92.4 77.8 34.5 24.6 44 21.5 44.1 21.4 5.5-3.8 7-17.1 4.2-36.5-3.6-24.7-13.8-56.6-23.7-87.4-11.7-36.6-23.8-74.5-27-106.4-4.7-44 8.2-72.7 38.4-85 40.5-16.6 102.4 14.4 200.2 66.4 83.4 44.4 187.2 99.6 233.3 79 7.7-3.4 18.5-10.7 24.5-35 11.8-47.6.5-87.2-34.6-121-61.4-59.3-176.6-78.3-201-71.4a22.6 22.6 0 0 1-12.3-43.4c37.5-10.8 168.9 9.2 244.7 82.3 46.3 44.7 62.6 101.5 47.1 164.3-8 32.2-24.8 54.2-50 65.5a102.4 102.4 0 0 1-42.2 8.2c-64.3 0-148.7-45-230.8-88.6-38.5-20.5-74.8-39.8-105.2-52.2-39.1-16-52.7-14-56.7-12.3-25.4 10.4-2.2 82.9 14.7 135.8 23.7 74.2 46.1 144.2 2.2 174.8-43.9 30.6-105.9-25.5-192.3-102.6-82.5-73.5-185.1-165-253-154.7a36.6 36.6 0 0 0-15 4.5c-.2 1.8-.1 9.5 10.7 31.2a1193 1193 0 0 0 46.8 79.6c10.1 16.4 21.5 35 33.6 55 42.7 71 28.8 101.9 9.6 115.3-9 6-19.6 9-30.3 8.8Z"/><path fill="#431426" d="M1241.4 1176.3c-20.9 0-46.2-8.5-75.3-25.3-41.5-24-84.3-61.8-120.6-106.5C945.3 920.9 899 880 898.5 879.7a27.1 27.1 0 0 1 35.3-41c2 1.7 49.3 42.7 153.8 171.6 66.3 81.5 133.9 111.2 152.6 111.9-.5-6.3-4-21-20.8-49-12-19.8-23.3-38.2-33.3-54.4-50.8-82.3-76.3-123.6-60.2-158 12-26.4 42.5-31 52.6-32.6 91-13.9 198.5 82 293.4 166.8 33.9 30 65.8 58.7 92 77.4 25.8 18.4 36.8 20.5 39.7 20.7 2.1-2.7 4.5-11.7 1.6-31.4-3.6-24.4-13.7-56-23.5-86.7-11.8-36.9-24-75-27.4-107.3-5-46.3 9-76.5 41.2-89.7 42.3-17.3 105.1 14 204 66.6 82.6 44 185.3 98.6 229.4 79 6.8-3 16.5-9.7 22-32.1 11.3-45.9.4-84-33.4-116.7-60.4-58-172.8-77-196.6-70a27.1 27.1 0 1 1-14.9-52.1c38.2-11.2 172.2 9 249 83.2 47.6 46 64.3 104.2 48.4 168.6-8.3 33.7-26 56.7-52.6 68.6-13.8 6-28.8 8.9-43.8 8.6-65.4 0-150.5-45.1-233-89a1279.7 1279.7 0 0 0-104.7-52.1c-39.6-16.2-51.2-13-53.3-12.3-21.6 8.8 2.7 84.9 17.3 130.3 24.2 75.8 47.1 147.5.5 179.9-46.6 32.3-110-24.4-198-103-81.7-72.9-183.4-163.6-249.2-153.5-3.8.5-7.5 1.4-11 2.7.4 3.3 2.4 11 10 26.4a1177 1177 0 0 0 46.7 79.4c10 16.3 21.4 34.7 33.6 55 44.5 73.9 29 106.8 8.3 121.3a55.8 55.8 0 0 1-32.8 9.5ZM916.2 841.2a18 18 0 0 0-11.8 31.7c.4.4 47.2 41.3 148.1 166 35.6 43.8 77.5 80.8 118.1 104.3 27.1 15.7 51.7 24 70.7 24a47 47 0 0 0 27.6-7.9c25.3-17.7 21.5-55.5-10.8-109.2-12-20.3-23.6-38.7-33.6-55-20.5-33.3-36.8-59.5-47-80-10.7-21.4-11.6-30.3-11.2-33.7.2-1.2.9-2.3 1.9-3 1.8-1.3 6.3-3.7 17-5.3 69.9-10.7 173.4 81.6 256.6 155.8 84.9 75.7 146.2 130.4 186.6 102.3 41.2-28.7 19.3-97.2-4-169.7-18.3-57.6-41.3-129.5-12-141.5 7-2.8 23-3 60.3 12.3 30.6 12.5 67 31.9 105.5 52.4 81.3 43.3 165.6 88 228.9 88 13.8.3 27.5-2.4 40.2-7.8 23.9-10.6 39.9-31.6 47.5-62.4 15-61.1-.8-116.5-46-160-74.5-72-203.5-91.7-240.3-81.3a18.1 18.1 0 0 0 10 34.8c25-7.2 142.7 12 205.3 72.5 36.3 35 48.1 76 35.9 125.2-6.5 26.3-18.6 34.4-27.1 38.2a63 63 0 0 1-25.8 4.7c-53.8 0-140.1-45.9-211.6-84-96.6-51.3-157.7-82-196.4-66.2-28 11.5-40 38.5-35.6 80.4 3.3 31.4 15.4 69 27 105.3 10 31 20.3 63.1 24 88.2 2.2 15.1 3 34.6-6 40.9l-1.1.5c-2.7 1-14.3 2.3-48.2-22-26.6-19-58.8-47.7-92.8-78-93.3-83.4-199.3-178-286-164.6-8.8 1.3-35.6 5.5-45.8 27.3-13.9 30.2 10.8 70 59.8 149.5 10 16.4 21.5 34.7 33.4 54.6 22 36.6 22.8 53 22 58.3a4.5 4.5 0 0 1-3.2 3.7c-19.9 5.8-96.3-29.5-165.3-114.6C977 887.6 930.3 847 928.3 845.4a18 18 0 0 0-12-4.2Z"/></svg>