<svg xmlns="http://www.w3.org/2000/svg" width="3000" height="3000" fill="none"><path fill="#FFFAF4" d="M1948.7 2545c-3.9 94.2-227.9 165.5-404.2 167.6-182.1 2.2-414.8-68.3-421-167.6-5.3-86.9 186.6-163.8 235.4-185.3 8.6-6.6 32.8-50.8 43.1-91 9.3-35.4 250.7-42.4 268 .8 13 32.7 25.4 90.4 36.5 99.7 85.6 34.2 245.4 100.5 242.2 175.8Z"/><path fill="#FFFAF4" d="M1536.1 2381.6c74.8 0 135.3-58.8 135.3-131.4 0-72.7-60.5-131.5-135.3-131.5-74.7 0-135.3 58.8-135.3 131.5 0 72.6 60.6 131.4 135.3 131.4Z"/><path fill="#FFFAF4" d="M1536.1 2242c57 0 103.1-44.8 103.1-100 0-55.4-46.1-100.2-103-100.2-57 0-103.2 44.8-103.2 100.1s46.2 100.2 103.1 100.2Z"/><path fill="#431426" d="M1536.2 2717.2a826 826 0 0 1-269.8-46.2c-92.1-33.6-144.5-78.3-147.4-126-5.2-84.6 163.6-157.6 227.1-185l10.4-4.6c7.3-6.3 30.4-47.3 41-87.2a133.6 133.6 0 0 1 32.8-107.1 104 104 0 0 1-1.9-19.3c0-57.8 48.3-104.7 107.8-104.7s107.8 47 107.8 104.7c0 6.5-.6 13-1.8 19.3a133.6 133.6 0 0 1 32.5 107.6c4.8 12.3 9.6 28 14.1 43.1 6.8 22.3 14.4 47.4 20.3 53.2 74.7 29.9 247.6 99.3 244.3 180-2 45.3-51.8 88.8-140.5 122.5a825 825 0 0 1-268.3 49.6h-8.4Zm0-670.8c-54.3 0-98.5 42.9-98.5 95.5a94 94 0 0 0 2 19.7 4.7 4.7 0 0 1-1 4 123.7 123.7 0 0 0-32 102.3v1.8c-10.4 40-35 85.9-44.8 93.4l-1 .5-11 4.8c-56 24.2-226.4 98-221.6 176 2.7 43.8 53 85.6 141.5 117.9a817.1 817.1 0 0 0 274.8 45.5c88.2-1 187.3-19.4 265.1-49 85-32.3 132.8-72.9 134.5-114.2 3.1-74.5-166.7-142.4-239.2-171.4-.5-.1-.9-.4-1.3-.7-7.5-6.2-13.9-26-23.6-58a582.5 582.5 0 0 0-14.3-43.5c-.3-.8-.4-1.6-.3-2.4a124.1 124.1 0 0 0-31.8-103c-.5-.5-.8-1.2-1-1.9-.2-.7-.2-1.4 0-2.1 1.3-6.5 2-13.1 2-19.8-.1-52.6-44.3-95.4-98.6-95.4h.1Z"/><path fill="#FFFAF4" d="m1931.9 1788-14-152c49.5-5.2 142.9-25.3 212-103.5 91.8-103.8 121.4-278.8 59.8-353.3-22.5-27.3-67-53.8-115.4-51.6a143.5 143.5 0 0 0-78.6 29.5l-83.1-124.9a282.9 282.9 0 0 1 155.5-57.3c102.6-4.7 186 50.4 230 103.5 57.7 69.9 79.7 171.3 62 285.6-15.6 101.3-61.2 200.8-125.1 273-101.4 114.8-233.5 143.9-303.1 151Z"/><path fill="#431426" d="M1931.9 1792.6a4.6 4.6 0 0 1-4.8-4.1l-13.8-152.1a4.7 4.7 0 0 1 4-5c48.9-5 140.9-25 209-101.9 90.5-102.3 120-274.3 59.7-347.3a143.5 143.5 0 0 0-111.6-50 138.9 138.9 0 0 0-76 28.7 4.7 4.7 0 0 1-3.6.8 4.6 4.6 0 0 1-3-2l-83.2-124.8a4.6 4.6 0 0 1 1-6.2 287 287 0 0 1 158-58.2c104.3-4.8 189.2 51.1 233.8 105.2 58.5 70.8 81 173.5 63.2 289.2-15.8 102-61.9 202.4-126.3 275.4-102.5 115.9-235.8 145.3-306.1 152.5l-.3-.2ZM1923 1640l13 143c70.1-8 197.3-38 295.7-149 63.4-71.6 108.6-170.3 124-270.7 17.5-113-4.1-213.1-61-282-43.2-52.3-125.3-106.4-226.2-101.8-65.8 3.1-117 30.4-149.4 53.8l78 117.3a147 147 0 0 1 77.2-27.8c50-2.2 95.8 25.2 119.1 53.3 62.9 76 33.2 254-60 359.4-68.2 77-159.2 98.6-210.4 104.5Z"/><path fill="#FFFAF4" d="M1548.6 2107.4c-78.1.4-244.3-10.6-354.1-128.2-5.4-5.7-10-11.5-11.7-13.5-74.8-90.5-91.8-189.7-99-247.5-31.9-251.8 15.1-539.3-50.2-851.3-15-71.8-48.8-136-12.6-163.9 55-42.4 167.8-86.2 516.2-89 230.2-2 405.3-2.5 526.6 79 34 22.8-4.9 97.1-14.4 156a3610 3610 0 0 0-39.3 797c3 50.5.7 137.5-46.5 226-117.6 220.7-397.5 234.8-415 235.4Z"/><path fill="#F57162" d="M1389.2 529.3c-6.7-4.5-306.4-275.2-529.7-45.8-250.4 257-7.7 509-7.7 509l537.4-463.2Z"/><path fill="#431426" d="M851.6 997.1a4.6 4.6 0 0 1-3.3-1.4c-.6-.6-62.6-65.6-92.4-161.1a323.4 323.4 0 0 1-9.2-165.4c14-66.8 51-130.4 109.4-189 49.5-49.5 106.8-79.1 170.2-88 51.4-7.2 107.2-.9 165.7 18.9 65.6 22.2 135.7 62 197.2 112.3l2.6 2.1a4.7 4.7 0 0 1 1.7 5.6c-.3.6-.7 1.2-1.3 1.7L854.6 996c-.8.7-1.9 1.1-3 1.1Zm216.9-598.8c-69.2 0-140.8 23.4-205.9 88.5-103.8 103.9-136.8 219.8-98 344.9A445.3 445.3 0 0 0 852 986.3l530-456.7c-49.6-40.4-177-131.3-313.5-131.3Z"/><path fill="#FFD073" d="m879 968.3 477.3-411.5S1076.5 303.6 878.5 523c-197.8 219.4.3 445.4.3 445.4Z"/><path fill="#431426" d="M879 973c-1.3 0-2.5-.5-3.3-1.3a412.7 412.7 0 0 1-75.5-142.3c-23-77.6-28.5-194.3 75.1-309.3 82.1-91 191.9-114.2 317.4-67a581.6 581.6 0 0 1 166.8 100.4 4.6 4.6 0 0 1 0 7L882.2 971.9c-1 .8-2.1 1.2-3.3 1.1Zm191.2-535c-72 0-135 29.5-187.9 88.3-80.8 89.6-105.4 190.6-73.2 300.1A413.7 413.7 0 0 0 879.6 962l469.7-405a576.2 576.2 0 0 0-159.8-95 338 338 0 0 0-119.3-23.9Z"/><path fill="#F57162" d="M881.1 892.4c12.7 5 26.7-2.3 38.3-9.6 53.4-33.5 104.2-71 152-112.3l-3.4-6.6c-54.7-13-111.1-17-167-11.9-17.8 1.6-37.5 5.4-47.5 20.1-7.5 11-7.5 25.2-6.2 38.4 2 19.2 6.6 38.1 13.4 56.2 4 10.4 9.8 21.5 20.4 25.7Z"/><path fill="#431426" d="M889.8 898.6c-3.6 0-7.2-.6-10.5-2-12.6-4.8-18.8-17.7-23-28.3-7-18.5-11.6-37.7-13.7-57.3-1.3-12.6-1.7-28.8 7-41.5 11.2-16.4 33-20.5 50.8-22a519 519 0 0 1 168.6 11.9 4.5 4.5 0 0 1 3 2.4l3.5 6.6a4.6 4.6 0 0 1-1.1 5.6c-48 41.4-99 79-152.6 112.7-9.9 6.1-21 12-32 12Zm-7.2-10.4c10.5 4.1 22.7-2 34.1-9.2 52.3-32.8 102-69.4 148.8-109.5l-.8-1.5a510.3 510.3 0 0 0-163.5-11.3c-16.7 1.6-35 5-44 18.1-7 10.2-6.6 24.2-5.4 35.3 2 18.8 6.5 37.3 13.2 55 3.4 8.8 8.5 19.4 17.6 23v.1Z"/><path fill="#F57162" d="M845.7 704.9c7.4 11.8 23.2 14.2 37 15.4 63.9 5 128 5.4 192 .8l1.2-7.5a524.3 524.3 0 0 0-128.9-111c-15.4-9.5-33.8-18.3-50.9-12.4-12.7 4.4-21.4 16-28.2 27.6-10 16.9-17.7 35-23 53.9-3.1 10.9-5.2 23.5.8 33.2Z"/><path fill="#431426" d="M984.1 729c-33.8 0-68-1.4-101.8-4.1-15.4-1.3-32.2-4.3-40.5-17.6-7.2-11.6-4.5-25.8-1.4-37a233.2 233.2 0 0 1 23.6-55c6.5-11 16-24.6 30.7-29.5 19.2-6.6 39.4 3.4 54.9 12.8 49.1 30 93 67.8 130 112a4.6 4.6 0 0 1 1 3.7l-1.2 7.5a4.6 4.6 0 0 1-4.3 3.9c-30.2 2.2-60.6 3.2-91 3.2Zm-134.4-26.6c6.1 9.8 19.6 12.2 33.4 13.3 62.4 5 125.1 5.3 187.6 1l.3-1.8a517.6 517.6 0 0 0-126.2-108.4c-14.6-8.9-31.6-17.3-47-12-11.9 4.1-20 15.8-25.8 25.6a222 222 0 0 0-22.6 52.7c-2.6 9.3-5 21 .4 29.6h-.1Z"/><path fill="#F57162" d="M959.5 524.4c-3 13.3 6.4 25.8 15.6 36 42.5 47.4 88.5 91.3 137.8 131.6l6.1-4.5c5-55.8.6-112-13.2-166.3-4.3-17.2-11.2-36-27.7-43.5-12.3-5.5-27-3.3-40 .3-19.3 5-38 12.5-55.4 22.2-10 5.7-20.6 13.2-23.2 24.2Z"/><path fill="#431426" d="M1112.9 696.6c-1 0-2.1-.4-3-1a1245.3 1245.3 0 0 1-138.2-132c-10.3-11.5-20.3-25.2-16.7-40.3 3.1-13.1 15.4-21.4 25.5-27 17.8-10 36.7-17.7 56.3-22.9 12.7-3.4 29-6.4 43.2 0 18.4 8.4 26 29.3 30.3 46.5a499.7 499.7 0 0 1 13.5 168.1 4.6 4.6 0 0 1-2 3.4l-6.1 4.5c-.9.5-1.9.7-2.8.7ZM1061 478.9c-7.4.2-14.8 1.3-21.9 3.4-18.9 5-37.1 12.4-54.2 22-8.5 4.8-18.7 11.5-21 21.1-2.6 11 5.5 21.8 14.5 32 41.6 46.2 86.6 89.3 134.6 128.8l1.6-1.2c4.7-54.6.2-109.7-13.3-162.8-4-16.2-10.3-33.7-25.1-40.4-4.8-2-10-3-15.2-3Z"/><path fill="#F57162" d="M1151.4 693.2c42.1-25.2 82-57 114.5-97.2 10.3-12.8 20.6-28.5 18.4-46.5-1.6-13.3-9.8-24.6-18.3-33.9-12.3-13.6-29.8-17.9-48-23.7-9.9-3-23.2 0-32.2 3.7-11 4.3-14.3 22.2-17.5 35.4-14.6 60.8-16.4 96.2-23 159.3l6.1 3Z"/><path fill="#431426" d="M1151.4 697.8c-.7 0-1.4-.1-2-.4l-6.2-3.1a4.6 4.6 0 0 1-2.5-4.6l2.8-28.2c4.6-46.6 7.9-80.3 20.2-131.7l.7-3.1c3.1-13.7 7.2-30.8 19.6-35.6 10.8-4.3 39.5-4.5 70.6 13.3 19.2 11 32.3 28 34.2 44.4 2.4 20-9.2 37.2-19.5 50a432.4 432.4 0 0 1-115.6 98.2c-.7.5-1.5.8-2.3.8Zm-1.1-10.3.9.5a422.8 422.8 0 0 0 111-94.9c9.8-12 19.5-26.6 17.6-43-1.2-10.2-9.7-26.1-29.7-37.6-29-16.6-55-15.7-62.6-12.7-7.5 3-11.3 17.6-14 29.2l-.7 3c-12.3 50.8-15.4 84.3-20 130.5l-2.5 25ZM779 833.7a2.7 2.7 0 0 0-4.5 2.7 2.7 2.7 0 0 0 4.5-2.7ZM760.1 799a2.7 2.7 0 0 0-4.5 2.7 2.7 2.7 0 0 0 4.5-2.8ZM782.6 759.9a2.7 2.7 0 0 0-4.6 2.8 2.7 2.7 0 0 0 4.6-2.8ZM759.8 733.7a2.7 2.7 0 1 0-4.6 2.8 2.7 2.7 0 0 0 4.6-2.8ZM841.4 967.6a2.7 2.7 0 0 0-4.5 2.7 2.7 2.7 0 0 0 4.5-2.7Z"/><path fill="#431426" d="M992.6 798.1c-1 0-2-.3-2.7-.9a7.6 7.6 0 0 1-3.3-7.5c1.5-8 19-14.7 33.4-18.9.5-.2 1.1-.2 1.8-.2a4.6 4.6 0 0 1 3.9 3.3 4.6 4.6 0 0 1-3 5.7 91.7 91.7 0 0 0-26.3 11.2 4.6 4.6 0 0 1-1.3 6.6c-.8.4-1.6.7-2.5.6v.1ZM910.7 794c-1 0-2-.4-2.7-1a7.5 7.5 0 0 1-3.3-7.5c1.5-8 19-14.7 33.3-18.9a4.6 4.6 0 1 1 2.6 8.9 92.5 92.5 0 0 0-26.1 11.1 4.6 4.6 0 0 1-3.8 7.3ZM898.6 851.4c-1 0-2-.3-2.7-.9a7.6 7.6 0 0 1-3.3-7.5c1.5-8 19-14.7 33.4-18.9a4.6 4.6 0 0 1 5.7 3.1 4.6 4.6 0 0 1-3.1 5.8 92.5 92.5 0 0 0-26.2 11.1 4.6 4.6 0 0 1-1.7 6.8c-.6.4-1.4.5-2.1.5ZM1026.5 703.2c-.6 0-1.2-.1-1.8-.4a92.9 92.9 0 0 0-27.3-7.7 4.7 4.7 0 0 1-7 3.7 4.5 4.5 0 0 1-2-2.8 7.6 7.6 0 0 1 2-7.9c6.2-5.3 24 .4 37.9 6.2a4.6 4.6 0 0 1 2.7 5.2c-.2 1-.8 2-1.6 2.6-.8.7-1.8 1-3 1ZM965.3 648.6c-.6 0-1.2-.1-1.8-.4-11.1-4.6-23-7.9-27.4-7.7a4.6 4.6 0 0 1-3.4 4.2 4.5 4.5 0 0 1-5.6-3.3 7.5 7.5 0 0 1 2.1-7.9c6.2-5.3 24 .4 37.9 6.2a4.6 4.6 0 0 1 2.5 6.2 4.6 4.6 0 0 1-4.3 2.7ZM903 685.8c-.7 0-1.3-.1-1.9-.3a93.5 93.5 0 0 0-27.4-7.7 4.7 4.7 0 0 1-5.2 4.3 4.5 4.5 0 0 1-3.8-3.4 7.5 7.5 0 0 1 2.1-7.9c6.2-5.4 24 .4 37.9 6.2a4.6 4.6 0 0 1-1.8 8.9ZM1092 641.8a4.7 4.7 0 0 1-4-2.4 92 92 0 0 0-16.2-23.5 4.5 4.5 0 0 1-5.3 1 4.5 4.5 0 0 1-2.2-6.2 7.6 7.6 0 0 1 6.7-4.6c8.1 0 18.2 15.6 25.1 29a4.6 4.6 0 0 1-2 6.1c-.6.4-1.3.6-2 .6ZM1061.8 536.2a4.7 4.7 0 0 1-4-2.4 92.4 92.4 0 0 0-16.2-23.5 4.6 4.6 0 0 1-5.3 1 4.6 4.6 0 0 1-2.4-2.6l-.3-1.8c0-.6.2-1.2.5-1.8a7.6 7.6 0 0 1 6.7-4.7c8.2 0 18.2 15.7 25.1 29a4.6 4.6 0 0 1-2 6.2c-.6.4-1.3.6-2 .6ZM1050 596.6a4.6 4.6 0 0 1-4-2.5 92 92 0 0 0-16.2-23.5 4.6 4.6 0 0 1-8-3.4l.5-1.7a7.6 7.6 0 0 1 6.6-4.6c8.2 0 18.2 15.6 25.1 28.9a4.6 4.6 0 0 1-2 6.2c-.6.3-1.2.5-2 .6ZM1169 663.6c-1.1 0-2.1-.4-3-1a4.6 4.6 0 0 1-.7-6.5c7.4-9.4 13.8-20 14.8-24.3a4.7 4.7 0 0 1-3-4.4 4.6 4.6 0 0 1 4.6-4.5 7.6 7.6 0 0 1 7 4.2c3.5 7.4-6.9 23-16.1 34.7a4.7 4.7 0 0 1-3.7 1.8ZM1207 628a4.7 4.7 0 0 1-3.6-7.5c7.5-9.4 13.8-20 14.8-24.2a4.7 4.7 0 0 1-3-4.5 4.6 4.6 0 0 1 4.7-4.5 7.6 7.6 0 0 1 7 4.2c3.4 7.4-7 23-16.2 34.8a4.7 4.7 0 0 1-3.7 1.8ZM1206.5 554.5c-1 0-2-.4-2.9-1a4.6 4.6 0 0 1-.7-6.5c7.4-9.5 13.8-20 14.8-24.3-1-.4-2-1-2.5-2s-.7-2-.5-3.2a4.6 4.6 0 0 1 4.6-3.8 7.6 7.6 0 0 1 7 4.3c3.4 7.3-6.9 23-16.2 34.7a4.7 4.7 0 0 1-3.6 1.8Z" opacity=".1"/><path fill="#FFFAF4" d="M1129.3 751.2c-1 31.4-8.2 138.4-8.2 138.4l-69.8 79.7a1532 1532 0 0 0-17.8-102.4c-15-71.8-46-132.7-12.6-163.9 31.7-29.6 108.4-47.4 108.4-47.4v39s.5 41.4 0 56.6Z"/><path fill="#431426" d="M1545.2 2112c-107.3 0-254.3-22.8-354.2-129.7-5-5.3-9.4-10.7-11.3-13l-.5-.7c-72.6-87.6-92-184.5-100.1-249.8-13.2-104-13-213.4-12.6-329.2.4-166.5.8-338.8-37.5-521.8a946 946 0 0 0-12-49.2c-13.6-50.8-24.2-90.8.4-118.5 20.3-22.8 71.4-39.2 110.9-49a4.7 4.7 0 0 1 5.3 2.6c.3.6.4 1.3.4 2v97.6a4.6 4.6 0 0 1-4.6 4.6 4.6 4.6 0 0 1-4.6-4.6v-91.8c-51.5 13.2-86.2 28.6-100.4 44.6-21.3 24-11.2 62 1.5 110 4.2 15.9 8.6 32.3 12.3 49.8 38.5 184 38 356.7 37.6 523.7-.3 115.5-.5 224.6 12.5 328 8.1 64.2 27.1 159.4 98 245.2l.6.6c2 2.5 6.2 7.5 11 12.6 98.7 105.7 245.2 127.3 350.8 126.8 11.8-.4 293.5-12.6 411-233 35-66 51-143.2 45.9-223.5a3624.5 3624.5 0 0 1 39.3-798.1c3.5-19 8.3-37.6 14.3-55.9 12.3-40.4 24-78.7 1.8-95.7-101.2-78.2-333-82.8-523.7-78a2771 2771 0 0 0-267 17.7 4.6 4.6 0 0 1-2.9-8.7c.5-.3 1.1-.5 1.7-.6 77-9.4 164.6-15.2 268-17.8 192.2-4.7 426.1 0 529.6 80.1 27.2 21 14.7 62.2 1.5 105.8a434 434 0 0 0-14.1 54.6c-42.5 263.1-55.7 530-39.4 796 5.2 82.1-11 161.1-47 228.6-120 225-406.8 237.4-418.9 237.8h-3.6Z"/><path fill="#F57162" d="M1953.7 1626.2c3.1 50.3-1.3 125.6-40.7 199.5-103.4 194-352.7 208.2-371.8 209a412 412 0 0 1-410.7-409.4c-1-217.3-5.5-526.1-31.6-679.7-.3-1.1-.5-2.2-.6-3.4-1-41.1 224-93.7 434.7-90 290.5 5.2 388 50.2 431.9 89.9 1.5 1.4 3 2.9 4.3 4.5a58 58 0 0 1 1.4 2.6 8 8 0 0 0 1.9 7.9l1.2.9a3690.5 3690.5 0 0 0-20 668.2Z"/><path fill="#431426" d="M1541.4 2039.3a417.2 417.2 0 0 1-415.4-414c-1-218-5.5-525.5-31.5-678.7-.4-1.3-.6-2.8-.7-4.2a22.5 22.5 0 0 1 7.8-16.2c38.4-38.7 235.3-81.5 431.5-78.6 166 2.5 290.5 19.4 370 50.3 57.4 22.4 71.7 45 74.8 51.4.4.9.6 1.8.5 2.8a3778.5 3778.5 0 0 0-20 673.8c3 50.8-1.4 127.1-41.3 202-43.8 82.1-117.8 142.4-220 179.1a570.4 570.4 0 0 1-155.7 32.3Zm-26.9-1182.6c-185 0-371.2 40.5-406.5 76a14.1 14.1 0 0 0-5 9.4c0 .7.1 1.4.3 2l.2.7c26.1 153.7 30.6 462 31.7 680.6a407.9 407.9 0 0 0 406 404.8c52-3.4 103.5-14.1 152.6-31.8 100-35.9 172.5-94.7 215-174.7 39-73 43.4-147.5 40-197.1a3791.4 3791.4 0 0 1 20-674.1c-3-5.7-17-25.5-69.3-45.8-54-21-161.3-46.7-366.7-49.7-6-.2-12.1-.3-18.3-.3ZM1516.2 808c-94.4-.1-188.6-8-281.7-23.7-86.5-14.9-147.8-33.8-164-50.5a14.9 14.9 0 0 1-5-10.8c.5-11 22.3-23.1 61.2-34.2a4.6 4.6 0 0 1 2.5 8.9c-50.8 14.5-54.4 25.7-54.4 25.8.3 1.5 1.1 2.9 2.3 3.9 29.4 30.2 247.4 74.2 460.7 71.2 223-3 436.3-55 465.9-87.2 1.4-1.2 2.3-3 2.5-4.8-1.3-4.7-28.4-22.8-103.2-38-60.5-12.3-167.6-25.6-334-19-144.7 5.9-261.7 15.5-347.6 28.8a4.7 4.7 0 0 1-4.5-7.4c.8-1 1.9-1.6 3.1-1.8 86.2-13.3 203.5-23 348.7-28.9 169.6-6.8 278.3 7 339.6 19.8 62.1 13 106.2 31.8 107.2 45.8a15.8 15.8 0 0 1-5 11.6c-31.4 34.1-243.6 87-472.6 90.2-7.2.2-14.4.3-21.7.3Z"/><path fill="#431426" d="M1540.5 1061.1c-283.6 0-389.2-46.2-427.9-84.9-18.4-18.6-18.8-33.4-18.8-33.8a4.6 4.6 0 0 1 4.6-4.7 4.6 4.6 0 0 1 4.6 4.7c0 1.5 8.6 109.6 437.5 109.6 420.6 0 428.7-99.3 428.7-100.3a4.7 4.7 0 0 1 4.7-4.6 4.6 4.6 0 0 1 4.5 4.6c0 1.4-.4 13.6-16.3 29.5-30 29.7-124.4 79.9-421.6 79.9Z"/><path fill="#BE6956" d="M1855 336.7c-4.2 9.3-178.2 638.8-178.2 638.8l-132.1-1 186-663.2 124.2 25.4Z"/><path fill="#431426" d="m1676.8 980.1-132.1-1a4.5 4.5 0 0 1-3.7-1.8 4.6 4.6 0 0 1-.7-4l186-663.2a4.6 4.6 0 0 1 5.4-3.3l124.2 25.4a4.6 4.6 0 0 1 3.3 6.3c-4.3 11-118.2 422.2-177.9 638.2a4.7 4.7 0 0 1-4.5 3.4Zm-126-10.1 122.5.8c20.7-74.7 158.3-572.5 175.6-630.6L1734 316.7 1550.8 970Z"/><path fill="#BE6956" d="M1855.1 336.3c3.2-15.7-22-34-56.3-40.9-34.2-6.8-64.5.4-67.6 16.1-3.2 15.7 22 34 56.2 41 34.3 6.8 64.6-.4 67.7-16.2Z"/><path fill="#431426" d="M1855.1 336.3c3.2-15.7-22-34-56.3-40.9-34.2-6.8-64.5.4-67.6 16.1-3.2 15.7 22 34 56.2 41 34.3 6.8 64.6-.4 67.7-16.2Z" opacity=".1"/><path fill="#431426" d="M1812.5 359.6c-8.8 0-17.5-1-26.1-2.7-37.3-7.5-63.6-27.7-60-46.4 3.8-18.6 36-27.1 73.2-19.7 37.3 7.5 63.7 27.8 60 46.2-2 9.5-11 16.7-25.7 20.1-7 1.7-14.2 2.5-21.4 2.5Zm-38.9-62.2c-21.5 0-36.4 6.5-38 15-2.3 11.3 18.8 28.7 52.6 35.4a105 105 0 0 0 43.6.5c10.8-2.6 17.5-7.3 18.7-13 2.3-11.3-18.8-28.6-52.7-35.4-8-1.6-16-2.5-24.2-2.5Z"/><path fill="#431426" d="M1703.5 534.8a4.7 4.7 0 0 1-4.3-6.1l46.7-143.3a4.6 4.6 0 0 1 5.8-2.8 4.6 4.6 0 0 1 3 5.7L1708 531.5a4.6 4.6 0 0 1-4.4 3.3ZM1728.7 662.9a4.6 4.6 0 0 1-4.5-5.8l33-131.2a4.7 4.7 0 0 1 2-2.8 4.6 4.6 0 0 1 6.4 1.6 4.7 4.7 0 0 1 .5 3.5l-32.9 131.1a4.7 4.7 0 0 1-4.5 3.6ZM1642.1 803.5l-1.3-.2a4.7 4.7 0 0 1-3.1-5.8l60-195.2a4.6 4.6 0 0 1 4-3.2 4.7 4.7 0 0 1 4.5 2.4 4.6 4.6 0 0 1 .3 3.5l-60 195.2a4.6 4.6 0 0 1-4.4 3.3ZM1655.8 915.2c-.5 0-1 0-1.5-.2a4.5 4.5 0 0 1-2.7-2.3c-.3-.5-.5-1-.5-1.7 0-.6 0-1.2.2-1.8l36.7-111.8a4.6 4.6 0 0 1 8.5-.7c.5 1.1.6 2.4.3 3.6L1660.2 912c-.3 1-.9 1.8-1.7 2.4-.8.5-1.8.8-2.7.8Z" opacity=".1"/><path fill="#BE6956" d="M2104.4 442.9c-6.2 7.5-314.1 545.4-314.1 545.4h-139.8l345.7-598 108.2 52.6Z"/><path fill="#431426" d="M1790.3 993h-139.8a4.7 4.7 0 0 1-4-2.4 4.6 4.6 0 0 1 0-4.6l345.7-598a4.6 4.6 0 0 1 6.1-2l108.1 52.6a4.6 4.6 0 0 1 2.5 5.1c-.1.7-.4 1.3-.9 1.8-6.6 9.3-208 360.3-313.7 545.1a4.7 4.7 0 0 1-4 2.3Zm-131.8-9.3h129.1c35.3-61.6 279.8-488.3 310.2-539l-99.8-48.4-339.5 587.4Z"/><path fill="#BE6956" d="M2104.5 442.4c6.6-13.7-12.3-36.5-42.2-50.9-29.9-14.3-59.4-14.8-66-1-6.6 13.6 12.2 36.4 42.1 50.8 29.9 14.3 59.5 14.8 66 1.1Z"/><path fill="#431426" d="M2104.5 442.4c6.6-13.7-12.3-36.5-42.2-50.9-29.9-14.3-59.4-14.8-66-1-6.6 13.6 12.2 36.4 42.1 50.8 29.9 14.3 59.5 14.8 66 1.1Z" opacity=".1"/><path fill="#431426" d="M2081.3 457h-1.1a120 120 0 0 1-80-38.4c-9.3-11-12-21.8-8-30.1 4-8.4 14-12.9 28.5-12.6 15.2.8 30 4.7 43.6 11.5 32.7 15.8 52.2 40.8 44.3 57.1-3.8 8.1-13.5 12.6-27.3 12.6Zm-61.6-71.9c-9.9 0-16.8 2.7-19 7.4-2.3 4.7 0 12.3 6.7 20.2 19 20.5 45 33 73 35.1 10.4.2 17.7-2.5 20-7.3 4.7-9.8-10.5-30.6-40-44.7-12.4-6.3-26-10-39.9-10.7h-.8Z"/><path fill="#431426" d="M2060 435.5c-3.4 0-6.8-.4-10.1-1.4-7.9-2.2-12.4-6.8-12.4-12.5a4.6 4.6 0 0 1 9.3 0c0 .9 1.7 2.5 5.6 3.7 7.3 2 14.6.5 15.4-1 .2-.3 0-1.9-2.5-4.6-32.3-37-67.1-24.9-67.5-24.7a4.6 4.6 0 0 1-3-8.7c1.6-.6 41.2-14.4 77.6 27.4 6.7 7.6 5 13 3.3 15.6-2.8 4.4-9.4 6.2-15.7 6.2Z"/><path fill="#431426" d="M1919.6 589.8a4.6 4.6 0 0 1-4.5-3.6c-.2-1.2 0-2.5.7-3.5l76.7-120.7a4.6 4.6 0 0 1 7.8 5l-76.8 120.6a4.6 4.6 0 0 1-3.9 2.2ZM1912.8 713.4a4.5 4.5 0 0 1-4.4-3.2c-.4-1.2-.3-2.4.3-3.5l61.1-112.9a4.7 4.7 0 0 1 2.8-2.4 4.6 4.6 0 0 1 6 3.2 4.6 4.6 0 0 1-.6 3.6l-61.2 113a4.6 4.6 0 0 1-4 2.2ZM1800 822.3c-1 0-1.8-.2-2.5-.6a4.6 4.6 0 0 1-1.5-6.4L1897 650a4.8 4.8 0 0 1 3-2.2 4.6 4.6 0 0 1 5 7l-101.1 165.4a4.7 4.7 0 0 1-4 2.1ZM1786.2 928.2a5 5 0 0 1-2.5-.7 4.6 4.6 0 0 1-1.4-6.3l59.8-94.3a4.7 4.7 0 0 1 6.4-1.4 4.7 4.7 0 0 1 2 2.9c.2.6.2 1.2.1 1.8-.1.6-.3 1.2-.7 1.7l-59.8 94.2a4.6 4.6 0 0 1-4 2.1Z" opacity=".1"/><path fill="#431426" d="M1642.1 979.9a4.9 4.9 0 0 1-2.8-1 4.7 4.7 0 0 1-1.8-3c0-.6 0-1.2.2-1.8l161.9-616.6c-10.5-4.4-37.4-17-43.1-32.4a16.7 16.7 0 0 1 .7-14c3.4-6.5 12.7-8.8 26-6.6 12.3 2 32.7 9.2 34.4 20.2.5 2.7 0 7.9-7.6 11.9a4.6 4.6 0 1 1-4.3-8.2c2.2-1.1 2.8-2 2.8-2.2 0-1.5-5.8-7.2-19.6-11-13.3-3.8-22.2-2.3-23.5 0a7.3 7.3 0 0 0-.3 6.5c4.6 12.3 31.7 24.6 41.7 28.5a4.7 4.7 0 0 1 2.8 5.5l-163 620.6a4.6 4.6 0 0 1-4.5 3.6Z"/><path fill="#F57162" d="M1877.4 974.6c-28 14-37 7.4-71.5-6.1-34.6-13.6-87.7-19.6-133-14.2-45.4 5.5-64.5 3.1-113.2-12.3s-87.4 12.3-121 12.3c-28.9 0-27.5-8.6-82.5-12-54.9-3.4-108.6 26-108.6 26l27.4 24 565.7 17.4 36.7-35Z"/><path fill="#431426" d="M1850.7 987c-10.7 0-20.8-4-36-10.1a426 426 0 0 0-10.5-4.2c-34.5-13.5-87-19-130.8-13.8-45.7 5.4-65 3.3-115-12.5-29.7-9.4-56.2-2-79.5 4.7-14 4-27.3 7.8-40.2 7.8-10.1 0-20.2-1.3-29.9-4.2-10.4-2.7-23.3-6.2-52.8-7.9-53-3.2-105.6 25.4-106.1 25.6a4.6 4.6 0 0 1-3.6.6 4.6 4.6 0 0 1-2.4-7.5c.4-.5 1-.9 1.5-1.1 2.3-1.3 55.4-30.2 111.1-26.8 18.5.7 36.8 3.4 54.6 8.1 9 2.7 18.2 4 27.6 4 11.6 0 24.3-3.7 37.7-7.5 24.6-7 52.4-15 84.7-4.7 48.4 15.4 67.1 17.4 111.2 12.2 45.2-5.4 99.5.4 135.3 14.4l10.6 4.2c26.2 10.6 34 13.8 57.2 2.2a4.7 4.7 0 0 1 5 .6 4.6 4.6 0 0 1-.9 7.7 63.6 63.6 0 0 1-28.8 8.3Z"/><path fill="#431426" d="M1811.8 1202.3a30.3 30.3 0 1 1 0-60.5 30.3 30.3 0 0 1 0 60.5Zm0-51.3a21 21 0 1 0 19.5 13 21.2 21.2 0 0 0-19.5-13.1v.1ZM1215 1489.7a23.3 23.3 0 1 1 0-46.7 23.3 23.3 0 0 1 0 46.7Zm0-37.5a14 14 0 0 0-13.8 17 14.1 14.1 0 1 0 13.9-17ZM1745.2 1771a23.4 23.4 0 1 1 0-46.7 23.4 23.4 0 0 1 0 46.7Zm0-37.4a14.1 14.1 0 1 0 0 28.2 14.1 14.1 0 0 0 0-28.2ZM1674 1169.6a23.4 23.4 0 1 1 0-46.7 23.4 23.4 0 0 1 0 46.7Zm0-37.4a14 14 0 0 0-10 24 14 14 0 0 0 15.4 3.1 14.2 14.2 0 0 0 4.6-23 14 14 0 0 0-10-4.1ZM1924.5 1095.2a23.4 23.4 0 1 1 0-46.8 23.4 23.4 0 0 1 0 46.8Zm0-37.5a14 14 0 1 0 13 8.7 14 14 0 0 0-13-8.8v.1ZM1536.1 1906.7a23.4 23.4 0 1 1 0-46.8 23.4 23.4 0 0 1 0 46.8Zm0-37.5a14.1 14.1 0 1 0 0 28.2 14.1 14.1 0 0 0 0-28.2ZM1626.1 1733.6a17.6 17.6 0 0 1-16.3-11 17.7 17.7 0 1 1 16.3 11Zm0-26.2a8.4 8.4 0 0 0-8.3 10.1 8.6 8.6 0 0 0 6.7 6.7 8.5 8.5 0 1 0 1.6-16.8ZM1726.4 1943.6a17.7 17.7 0 1 1 0-35.4 17.7 17.7 0 0 1 0 35.4Zm0-26.2a8.5 8.5 0 1 0 0 17 8.5 8.5 0 0 0 0-17ZM1905.8 1650a17.7 17.7 0 1 1 0-35.5 17.7 17.7 0 0 1 0 35.5Zm0-26.2a8.5 8.5 0 0 0-8.3 10.2 8.5 8.5 0 0 0 11.5 6.1 8.5 8.5 0 0 0-3.2-16.3Z" opacity=".1"/><path fill="#431426" d="M1171 1159.2a4.7 4.7 0 0 1-4-7l44-75.4a4.6 4.6 0 0 1 8.3 1.2c.4 1.2.3 2.4-.3 3.5l-44 75.3a4.7 4.7 0 0 1-4 2.4ZM1171 1216.2a4.6 4.6 0 0 1-3.8-7.3l44-65a4.6 4.6 0 1 1 7.7 5l-44 65.3a4.7 4.7 0 0 1-3.9 2ZM1764 1836c-1 0-2-.3-2.7-.8a4.7 4.7 0 0 1-1.7-2.2 4.7 4.7 0 0 1 1.2-5 276.4 276.4 0 0 0 72.3-100.6 4.6 4.6 0 0 1 6-2.8 4.6 4.6 0 0 1 2.7 5.9c-.8 2.3-20 55.1-74.8 104.3-.8.7-2 1.2-3 1.2ZM1772.5 1888a4.6 4.6 0 0 1-2.5-8.6c44.6-28.5 80.5-93 80.9-93.6a4.6 4.6 0 0 1 8 4.5c-1.4 2.7-37.4 67.1-83.9 96.9-.7.5-1.6.7-2.5.7ZM1541.8 2435.3h-9.2c-133.3-2.8-176-70.4-177.7-73.3a4.6 4.6 0 0 1 7.9-4.8c.4.7 42.2 66.2 170 69 131.4 2.8 169.3-58.8 169.7-59.4.6-1 1.6-1.9 2.8-2.2a4.6 4.6 0 0 1 5.7 3.3c.3 1.2 0 2.5-.5 3.5-1.5 2.6-38.8 64-168.7 64ZM1896.4 1912.8a3.7 3.7 0 1 0 0-7.5 3.7 3.7 0 0 0 0 7.5ZM1717.1 2013.4a3.7 3.7 0 1 0 0-7.4 3.7 3.7 0 0 0 0 7.4ZM1567.6 2010a3.7 3.7 0 1 0 0-7.5 3.7 3.7 0 0 0 0 7.4ZM1645.5 1988.8a3.7 3.7 0 1 0 0-7.5 3.7 3.7 0 0 0 0 7.5ZM1600.4 2300.7a3.7 3.7 0 1 0 0-7.5 3.7 3.7 0 0 0 0 7.5ZM1733.3 2412.4a3.7 3.7 0 1 0 0-7.5 3.7 3.7 0 0 0 0 7.5ZM1704.2 2521.5a3.7 3.7 0 1 0 0-7.5 3.7 3.7 0 0 0 0 7.5ZM1803.8 2496.6a3.7 3.7 0 1 0 0-7.5 3.7 3.7 0 0 0 0 7.5Z"/><path fill="#FFEAB9" d="M1889.5 1698.3c-31.5-5.7-68.5-22.7-111.6-51.1a26.2 26.2 0 0 1 28.8-43.8c59.1 39 104.9 53.3 125.6 39.3 28-18.8 23.6-91.1 17.2-123.2a26 26 0 0 1 11-26.8 26.1 26.1 0 0 1 40.3 16.5c2.7 13.6 24.8 133.8-39.2 177-19.7 13.2-43.6 17.3-72.1 12.1Z"/><path fill="#431426" d="M1912.2 1705.1a133 133 0 0 1-23.5-2.2c-32.3-5.9-69.3-22.9-113.4-51.9a31 31 0 0 1-9.2-43 30.8 30.8 0 0 1 43-8.4c56.7 37.3 101.7 52 120.6 39.3 23.5-15.8 23-80 15.2-118.5a30.8 30.8 0 0 1 60.4-12.2c2.8 14 25.3 137-41.2 181.7a90.9 90.9 0 0 1-51.9 15.2Zm-119.9-101.3a21.6 21.6 0 0 0-12 39.5c42.4 28 79.4 45 110 50.5 27.3 5 49.8 1.2 68.6-11.5 61.6-41.5 40-159 37.3-172.2a21.5 21.5 0 1 0-42.3 8.5c5.3 26.3 13.2 106.2-19 128-22.8 15.4-69.2 1.3-130.8-39.3a21.5 21.5 0 0 0-11.8-3.5ZM2116 1477.8a4.7 4.7 0 0 1-4.2-2.6l-75.5-157.8a4.6 4.6 0 0 1 2.2-6.2 4.6 4.6 0 0 1 6.2 2.2l75.5 157.8a4.7 4.7 0 0 1-2.2 6.2c-.6.3-1.3.4-2 .4ZM2063 1503.3a4.6 4.6 0 0 1-4.2-2.7l-75.9-158.5a4.6 4.6 0 1 1 8.4-4l75.9 158.6a4.7 4.7 0 0 1-2 6c-.7.4-1.4.6-2.2.6Z"/><path fill="#431426" d="M2007.9 1524.7c-.9 0-1.7-.3-2.5-.7a4.7 4.7 0 0 1-1.7-2l-73.6-153.7c-.2-.6-.4-1.2-.4-1.8a4.7 4.7 0 0 1 1.2-3.3 4.6 4.6 0 0 1 3.2-1.5 4.7 4.7 0 0 1 3.3 1.2c.4.4.8.9 1 1.4l73.7 153.8a4.5 4.5 0 0 1-.3 4.4 4.6 4.6 0 0 1-4 2.2Z"/><path fill="#FFD073" d="M1254.8 2085.3c13.6-64.7 74.1-101.1 110-97.3 36 4 105.7 34 180.3-41.7 79.5-80.5 53.9-206.3 22.5-266.9-27-52-88.9-118.3-201.4-106.9-105.6 10.8-126 83.8-145.6 114.3-19.5 30.4-85.9 54.6-144.7 24.6-45-22.9-107.8-81.7-271.8 13-185.3 106.9-48.6 370-48.6 370s119.3 271.6 318.8 194.4c176.4-68.3 170.2-154 180.5-203.5Z"/><path fill="#431426" d="M1254.8 2085.3c13.6-64.7 74.1-101.1 110-97.3 36 4 105.7 34 180.3-41.7 79.5-80.5 53.9-206.3 22.5-266.9-27-52-88.9-118.3-201.4-106.9-105.6 10.8-126 83.8-145.6 114.3-19.5 30.4-85.9 54.6-144.7 24.6-45-22.9-107.8-81.7-271.8 13-185.3 106.9-48.6 370-48.6 370s119.3 271.6 318.8 194.4c176.4-68.3 170.2-154 180.5-203.5Z" opacity=".1"/><path fill="#431426" d="M1004 2307.2c-58.6 0-115.4-28.1-167.3-83.2-54.7-58.1-85.2-126.7-85.5-127.4-.3-.7-34.5-67.1-45.5-146.2-14.7-105.6 18.5-185 96-229.8 148.5-85.6 216.2-47 261-21.5 5.4 3 10.5 5.9 15.3 8.3 57 29 120.3 5.7 138.8-23 2.9-4.7 5.8-10.2 9.2-16.6 19.1-36 48-90.5 139.7-99.8 128-13 186.7 72.1 206 109.3 33.8 65.6 55.7 192.2-23.4 272.3-64.6 65.6-125.3 54-165.3 46.2-7.1-1.4-13.3-2.6-18.7-3.1-33.8-3.7-91.8 30.8-105 93.5-1.1 5.3-2 11-3.1 17.2-8.2 51-20.6 128-180.4 189.8-22.9 9.1-47.2 13.8-71.8 14Zm-42.4-630c-38.5 0-88.3 12.6-155.2 51.3-75 43-105.8 117.4-91.6 220.3a502.2 502.2 0 0 0 44.8 143.7c.3.6 30.3 68.3 84 125.2 71.2 75.7 148.2 98.1 229 66.9 154.8-59.9 166.7-133.8 174.6-182.7l3-17.6c14.3-67.7 77.8-104.9 115.1-100.8 5.8.6 12.3 1.9 19.4 3.2 38.2 7.3 95.8 18.5 157.1-43.7 75.6-76.5 54.4-198.3 21.5-261.5-18.4-35.5-74.3-116.8-196.8-104.3-86.7 8.8-114.2 60.6-132.4 95-3.3 6.2-6.5 12.2-9.6 17-20.3 31.7-89.1 57.8-150.8 26.5a391 391 0 0 1-15.6-8.7c-23-13-52.2-29.8-96.5-29.8Z"/><path fill="#FFD073" d="M1225.6 2024.1c14.8-61.9 75.5-98 110.8-95 35.3 2.8 103.8 29.8 179.3-44 80.4-78.4 35.2-233.4 35.2-233.4s-92.4-132.4-204-119c-104.6 12.6-126.5 82.7-146.5 112.2s-86.2 54-143.7 26.8c-44.1-20.9-105-75.5-269.2 18.5-185.7 106-56.4 354.1-56.4 354.1s112 256.3 311 178.2c176.4-69.3 172-151 183.5-198.4Z"/><path fill="#431426" d="M968.4 2241.6c-56.3 0-110.5-25.5-159.5-75.9a458.6 458.6 0 0 1-81.8-119.6c-1.5-3.4-33-65.2-41.9-138.5-12.3-100.5 22.5-177 100.1-221.4 148.7-85 214.8-49.6 258.7-26.2a354 354 0 0 0 14.9 7.7c55.8 26.3 119 2.6 138-25.3 3-4.4 6-9.8 9.5-16 19.7-34.7 49.5-87.2 140.3-98.1 113-13.6 204.4 115.4 208.3 120.9.3.4.5.8.6 1.3 1.9 6.5 45 158.6-36.4 238.1-65.5 64-125 54.2-164.5 47.7-7-1.1-13.1-2.1-18.5-2.6-33.6-2.8-91.7 31.6-106.2 91.6l-4.4-1 4.5 1c-1.3 5-2.3 10.6-3.4 16.4-9.2 48.8-23.2 122.5-182.6 185-24 9.7-49.7 14.7-75.7 14.9Zm-19.5-600c-38.7 0-89.4 12.8-158.9 52.4-75.1 43-107.2 114.3-95.4 212 8.9 73.6 40.7 135.3 41 136l.2.3a446 446 0 0 0 80 117c47.5 48.7 98.4 73.2 152 73.2 25-.3 49.8-5.2 73-14.7 154.7-60.6 168-131.3 177-178.1 1-6 2.2-11.6 3.4-16.8 15.6-64.7 79-101.7 115.9-98.6 5.7.5 12.3 1.6 19.2 2.7 37.5 6.2 94.4 15.4 156.5-45.2 74.7-73 37.4-216.5 34.2-228.1-7-9.8-95.5-128.9-199.2-116.4-86.2 10.3-114.5 60.4-133.3 93.5-3.5 6.2-6.7 11.9-10 16.6-20.7 30.6-89.3 56.9-149.5 28.4-4.9-2.3-10-5-15.4-7.8-21.8-11.6-49.3-26.3-90.7-26.3Z"/><path fill="#BE6956" d="m1272.2 1840.2-45.8-95.9c-4.3-8.9-1.7-18.9 5.6-22l696.4-302.7c7-3 16 1.3 20 9.8l23 48c4.1 8.6 2 18.3-5 21.8L1293 1849.6c-7.2 3.7-16.6-.6-20.8-9.4Z"/><path fill="#431426" d="M1287.4 1855.5c-2 0-4-.3-5.9-1a23.8 23.8 0 0 1-13.5-12.3l-45.8-95.7a23.7 23.7 0 0 1-1.2-18.5 17 17 0 0 1 9.2-10l696.4-302.6c9.4-4 20.8 1.2 26 12l23 48.1c5.2 11 2.1 23.1-7 27.8L1295 1853.7c-2.4 1.2-5 1.8-7.7 1.8Zm645.8-432.2c-1 0-2.1.2-3 .6l-696.3 302.6a8 8 0 0 0-4.3 4.8c-1.1 3.7-.8 7.6 1 11l45.7 95.9a14.2 14.2 0 0 0 8.2 7.8 8 8 0 0 0 6.4-.4l673.4-350.4c4.7-2.4 6-9.4 3.1-15.7l-23-48a13.4 13.4 0 0 0-11.2-8.2Z"/><path fill="#BE6956" d="M1179.1 1909.9c-40 19-86.2 5.2-103.6-30.8-17.3-36 1-81 40.9-100.2 39.9-19 86.2-5.2 103.5 30.8 17.4 36-.9 81-40.8 100.2Z"/><path fill="#431426" d="M1142 1923c-30 0-57.8-15.5-70.6-42.2a73.5 73.5 0 0 1-1.2-60.2 90.6 90.6 0 0 1 107.8-51.5 73.6 73.6 0 0 1 46.2 38.6c18.5 38.4-1 86-43.1 106.3a90.7 90.7 0 0 1-39.2 9Zm11.6-148.2a81.4 81.4 0 0 0-35.4 8.2c-17.8 8.3-32 23-39.5 41.2a64.5 64.5 0 0 0 .8 52.7c16.3 33.9 60 46.8 97.5 28.8 37.5-18 54.9-60.1 38.7-94a64.8 64.8 0 0 0-40.5-33.8c-7-2-14.3-3.1-21.6-3v-.1Z"/><path fill="#BE6956" d="m996 1972.7-48.1-93.2a20.4 20.4 0 0 1 9.2-27.7l4.6-2.2a20.4 20.4 0 0 1 27.3 9.6l45.4 94.5a20.5 20.5 0 0 1-9.6 27.4l-1.8.8a20.5 20.5 0 0 1-27-9.2Z"/><path fill="#431426" d="M1014 1988.4a25 25 0 0 1-22.2-13.6l-48-93.2a25.2 25.2 0 0 1 11.4-34.1l4.7-2.2a25.1 25.1 0 0 1 33.4 11.8l45.3 94.5a25.1 25.1 0 0 1-11.8 33.5l-1.8.8a25.2 25.2 0 0 1-11 2.5Zm-14-17.9a15.8 15.8 0 0 0 21 7.1l1.8-.9a15.9 15.9 0 0 0 7.4-21.1L985 1861a16 16 0 0 0-15.2-9c-2 .1-4 .6-6 1.5l-4.6 2.2a16 16 0 0 0-7.2 21.6l48 93.1Z"/><path fill="#FFD073" d="m2155.9 1396.6-30.7-63a24.2 24.2 0 0 0-20.5-14.5h-27c-2.8 0-5.7.7-8.3 2.3l-165.5 98.5c-8.7 5.2-11.3 17.9-6.1 29.1l27.7 58.2c5.5 11.4 17.3 17.3 26.9 13.4l176.2-70.8c2.5-1 4.8-2.6 6.5-4.7l19-22.7c5.5-6.6 6.1-16.8 1.8-25.8Z"/><path fill="#431426" d="M1946.4 1526.4a28.9 28.9 0 0 1-24.9-17.3l-27.7-58.2c-6.5-13.5-3-28.5 7.8-35l165.5-98.6c3.3-1.9 7-3 10.7-3h26.9a28.6 28.6 0 0 1 24.6 17.1l30.8 63a29.1 29.1 0 0 1-2.3 30.9l-19 22.7a21 21 0 0 1-8.2 6.2l-176.2 70.8c-2.6 1-5.3 1.4-8 1.4Zm158.2-202.7h-26.9c-2.1 0-4.2.5-6 1.6l-165.5 98.6c-6.7 4-8.5 14.1-4.2 23.2l27.8 58.1c4.4 9.2 13.5 14.1 20.9 11.2l176.3-70.9c1.8-.7 3.3-1.8 4.6-3.3l18.9-22.8c4.2-5 4.7-13.4 1-20.7l-30.7-63a19.7 19.7 0 0 0-16.3-12ZM2008.2 1542.5a11.3 11.3 0 0 1-15-5.3 11.1 11.1 0 0 1 5.3-15l16.8-8a11.2 11.2 0 0 1 15 5.3 11.2 11.2 0 0 1-5.3 15l-16.8 8ZM2060.8 1515.5a11.2 11.2 0 0 1-15-5.2 11 11 0 0 1 1.8-12.3c1-1.1 2.2-2 3.5-2.7l16.8-8a11 11 0 0 1 12.3 1.8 11.1 11.1 0 0 1 .9 15.9c-1 1-2.2 2-3.6 2.5l-16.7 8ZM2114 1490.1a11.2 11.2 0 0 1-15-5.3 11.2 11.2 0 0 1 5.3-15l16.7-8a11.2 11.2 0 0 1 15 5.3 11.2 11.2 0 0 1-5.3 15l-16.8 8ZM1930.8 1380.4a11.1 11.1 0 0 1-15-5.3 11.2 11.2 0 0 1 5.3-15l16.7-8a11.1 11.1 0 0 1 15 5.4 11.2 11.2 0 0 1-5.3 15l-16.7 8ZM1983.6 1354.2a11.2 11.2 0 1 1-9.7-20.2l16.8-8a11.2 11.2 0 0 1 15 5.2 11.2 11.2 0 0 1-5.4 15l-16.7 8ZM2037 1329.5a11.2 11.2 0 0 1-14.9-5.2 11.2 11.2 0 0 1 5.3-15l16.7-8a11.2 11.2 0 0 1 15 5.3 11.3 11.3 0 0 1-5.3 15l-16.7 8Z"/><path fill="#431426" d="M974.5 1886.5a4.6 4.6 0 0 1-4.1-6.7c.4-1 1.2-1.7 2.2-2.1l1113.8-521.8a4.6 4.6 0 0 1 4 8.3L976.5 1886a5 5 0 0 1-2 .5ZM1007.1 1954.6a4.6 4.6 0 0 1-2-8.8l1107.6-534.7c1.2-.6 2.4-.6 3.6-.3a4.7 4.7 0 0 1 2.8 6 4.6 4.6 0 0 1-2.3 2.6L1009 1954.2c-.6.3-1.3.4-2 .4ZM991 1921a4.6 4.6 0 0 1-2-8.9l1109.3-528.6a4.6 4.6 0 0 1 6.1 2.2 4.6 4.6 0 0 1-2.2 6.1L993 1920.5c-.6.3-1.3.4-2 .4Z"/><path fill="#431426" d="m2092.6 1349.3-.5.3a7.8 7.8 0 0 0-3.7 10.5l26.4 55a7.8 7.8 0 0 0 10.4 3.8l.6-.3a7.8 7.8 0 0 0 3.6-10.4L2103 1353a7.8 7.8 0 0 0-10.4-3.7Z"/><path fill="#FFFAF4" d="M1082.8 1380.6s-5 10.2-45-.5c-45.7-12.3-27.7 134.2 30.3 128.2 22.8-2.4 14.7-27.2 40-30.3l-25.3-97.4Z"/><path fill="#431426" d="M1064.7 1513c-16 0-30.8-10.5-41.5-30-18-32.7-21.3-81.3-6.7-100a20.5 20.5 0 0 1 22.6-7.4c31.9 8.6 39.1 3 39.8 2.5a4.6 4.6 0 0 1 6.2-1.7 4.6 4.6 0 0 1 1.8 6.2c-1.5 3-9.7 12.8-50.2 2a11.2 11.2 0 0 0-13 4c-12.3 15.7-8.4 61 7.6 90 6.9 12.3 18.8 27 36.3 25 8.8-.8 11.5-5.5 15.3-12 4.2-7.3 9.5-16.4 24.9-18.2a4.8 4.8 0 0 1 3.4 1 4.7 4.7 0 0 1 1.7 3c.1.7 0 1.3-.1 1.9a4.7 4.7 0 0 1-4 3.4c-10.7 1.3-14 6.7-18 13.7-4 6.9-8.8 15.2-22.2 16.6h-3.9Z"/><path fill="#FFEAB9" d="M907.2 1847.8a26.1 26.1 0 0 1-20.5-17c-55.2-154-3-260 50.5-322 35.9-41 80-73.9 129.4-96.7a26.2 26.2 0 0 1 20.3 48.3 340 340 0 0 0-111.3 84c-63.5 74.4-77 164.8-39.6 268.7a26.2 26.2 0 0 1-28.8 34.7Z"/><path fill="#431426" d="M911.3 1852.8a30.8 30.8 0 0 1-29-20.4c-56-156.2-3-263.8 51.4-326.5 36.4-41.5 81-74.8 131.1-97.9a30.8 30.8 0 0 1 23.8 56.8c-41.8 19.8-79 48-109.4 82.8-62.4 73-75.5 161.9-38.8 264a30.8 30.8 0 0 1-29 41.3v-.1Zm165.4-438c-2.9 0-5.7.6-8.3 1.7a382.3 382.3 0 0 0-127.7 95.5c-52.7 60.9-104 165.4-49.6 317.3a21.5 21.5 0 0 0 16.8 14 21.6 21.6 0 0 0 23.8-28.5c-38-105.6-24.3-197.5 40.4-273.3 31.4-35.8 69.8-64.9 113-85.3a21.6 21.6 0 0 0-8.4-41.4Z"/><path fill="#FFFAF4" d="M1058 1482.3c10.2-81.7-20.8-77-23.4-67.6l65.3-32.7 18.5 78.5-60.3 21.8Z"/><path fill="#431426" d="M1058 1487h-.5a4.5 4.5 0 0 1-3-1.8 4.6 4.6 0 0 1-1-3.4c6.2-50.3-3.6-66-10.4-67.3a3.7 3.7 0 0 0-4 1.5 4.7 4.7 0 0 1-2.2 2.9 4.6 4.6 0 0 1-5.2-.4 4.6 4.6 0 0 1-1.8-3.2c0-.6 0-1.2.2-1.8a12.6 12.6 0 0 1 14.8-8c8 1.5 25.8 12.2 17.8 77.4a4.6 4.6 0 0 1-4.6 4Z"/><path fill="#FFFAF4" d="M967.3 1796.4s31.7 26.4 58 7.8c26.3-18.6 28.7-24.4 37-27.8 8.1-3.3 33.8 1.9 19.6 34-13.7 30.7-31 42.3-31 42.3s8.3 5 31.1 6.1c31 1.5 60.8 1.7 59.8 23-.3 7-6.1 22-22 23.9-49.2 5.8-93.9-12.9-93.9-12.9 14.3 12 30.3 22 47.5 29.3 30.2 13.4 67 18.5 50.1 47.8-22.8 39.6-130.8-49-142.8-40.6-12 8.5 15.7 45.6 29.3 57 13.5 11.4 41 36 28.2 55-13 19.1-76.1 3.1-99.6-91.3 0 0-.5 27.4 5 42.6 5.5 15.3 13.3 37.7-6 47.2-19.3 9.4-49.3-7.6-46.6-65.5 2.7-58 1.5-68-5.8-79.5-7.2-11.5-16.7-29.5-11-49.8 0 0-52.4 27.8-49.3-15.7 3-43.5 53.8-17.4 73-33.2 19.3-15.8 32.3-57.1 58-49 25.5 8.3 11.4 49.3 11.4 49.3Z"/><path fill="#431426" d="M1021.7 2052.8c-2.5 0-5-.2-7.4-.6-20.9-3.7-48-22.6-66.9-63l.6 1.6c5.2 14.5 15 41.5-8.4 52.9a30 30 0 0 1-29.8-2.4c-16.4-10.8-25-35.4-23.4-67.5 2.7-57.7 1.4-66.5-5-76.7l-1.2-1.9c-6.2-9.7-15.1-23.7-13.9-40.8-9.7 3.7-25.7 7.8-36.3.8-7.3-4.9-10.5-13.8-9.7-26.5 2.3-31.4 27-31.5 47-31.5 11.2 0 21.8 0 27.6-4.9 5.8-4.9 11.7-13 17.2-20.9 11.7-16.5 24.9-35.3 45-28.8a24.3 24.3 0 0 1 15 12.6c6.6 13.3 2.5 32 .4 39.5 7.5 5.2 30.8 19.3 49.9 5.7a306.8 306.8 0 0 0 25.1-19.5c3.8-3.6 8-6.6 12.8-8.8a24 24 0 0 1 24.4 5.6c5.2 5.3 9.6 15.6 1.3 34.3-6.2 14.5-15 27.8-26.3 38.9 7.4 1.8 14.9 2.8 22.4 3l4.8.3c29.8 1.4 60.5 2.8 59.4 27.7-.4 9.3-7.2 28.7-25.6 30.8-22 2.3-44.2.5-65.6-5.2a212 212 0 0 0 20 10.2c5.8 2.5 11.8 4.8 17.7 7 17.4 6.5 33.8 12.6 38.3 25 2.4 6.6 1.2 13.9-3.7 22.3-17.1 29.8-70.3 0-109.1-21.7-13.7-7.6-30.6-17.1-35.3-17.1a3 3 0 0 0-.6 2.1c-.5 11.2 18.7 37.4 30.5 47.3 11.1 9.2 45 37.7 29 61.2-3.7 5.8-11.2 9-20.2 9Zm-83.1-107.7a4.6 4.6 0 0 1 4.5 3.5c15.6 63 49 90.2 72.8 94.4 8.5 1.5 15.5-.3 18.4-4.5 7.5-11-1.7-27.5-27.3-49-10.5-8.7-34.6-38-33.9-54.7a11.8 11.8 0 0 1 5-9.5c6-4.5 17.6 1.6 44.9 16.8 33.4 18.8 84 47 96.5 25.2 3.4-6 4.4-10.7 3.1-14.5-3-8.5-17.5-13.9-32.9-19.6-6-2.2-12.1-4.5-18.1-7.2a190.5 190.5 0 0 1-48.8-30 4.6 4.6 0 0 1 5-7.6c.5.2 44.5 20.7 92 15.1 12.6-1.5 17.2-16.7 17.4-22.1.7-14.6-18.7-16.5-50.6-18l-4.8-.2c-23.3-1-32.4-6.1-33.4-6.8a4.5 4.5 0 0 1-2.2-3.9 4.7 4.7 0 0 1 2-3.9s16.6-11.4 29.5-40.3c3.4-7.7 6.3-18.2.5-24.1a15 15 0 0 0-14.2-3.6 39.7 39.7 0 0 0-10.4 7.3 323.3 323.3 0 0 1-25.8 20c-28.8 20.4-62-6.8-63.5-8a4.6 4.6 0 0 1-1.4-5c0-.2 7.6-22.5 1-35.6a15.5 15.5 0 0 0-9.4-8c-12.8-4-22 7.4-34.7 25.4-5.8 8.4-11.9 17-18.9 22.8-8.5 7-21.3 7-33.7 7-22.3 0-36 1.1-37.6 22.9-.7 9.2 1.2 15.2 5.5 18 9.2 6.2 28.5-1.3 35.1-4.7a4.6 4.6 0 0 1 6.6 5.3c-4.8 17.3 4 31.1 11.1 42.3l1.2 1.9c8.3 13 9.3 24.6 6.5 82-1.3 28.8 5.7 50.4 19.3 59.3a20.4 20.4 0 0 0 20.7 1.9c14.7-7.2 10.1-23.7 3.7-41.4-5.7-15.9-5.3-43.1-5.3-44.3a4.7 4.7 0 0 1 4-4.5l.6-.1Z"/><path fill="#431426" d="M872.3 1851.3a4.5 4.5 0 0 1-4.6-4.2c0-1.8-.2-18.5 32.5-37 .5-.3 1-.4 1.7-.5a4.6 4.6 0 0 1 3.4 1 4.5 4.5 0 0 1 1.7 3 4.6 4.6 0 0 1-2.3 4.6c-27.5 15.4-27.7 28.4-27.7 28.6a4.7 4.7 0 0 1-4.5 4.7l-.2-.2ZM1055.4 1859h-1.1c-1.2-.3-28.4-7-40-17.5-.5-.4-1-.9-1.2-1.5a4.6 4.6 0 0 1-.3-3.6 4.7 4.7 0 0 1 2.4-2.7 4.7 4.7 0 0 1 3.7-.1c.6.2 1 .6 1.5 1 8.2 7.4 28.7 13.7 36 15.4a4.6 4.6 0 0 1 3 1.8 4.7 4.7 0 0 1 .5 5.1 4.7 4.7 0 0 1-2.8 2.2c-.6.2-1.2.2-1.8.2l.1-.3ZM1025.8 1897.2c-.4 0-1 0-1.4-.2a65.1 65.1 0 0 1-19-10 4.7 4.7 0 0 1-.6-6.5 4.7 4.7 0 0 1 3.1-1.7 4.8 4.8 0 0 1 3.4 1 57.6 57.6 0 0 0 16 8.4 4.6 4.6 0 0 1-1.5 9ZM938.6 1954.4a4.6 4.6 0 0 1-4.6-4l-1.2-10.7a4.7 4.7 0 0 1 9.2-1.1l1.3 10.6a4.6 4.6 0 0 1-4 5.2h-.7ZM891.4 2058.4c-.7 0-1.4-.1-2-.5-30.7-15.7-29.4-60.1-29.4-62a4.7 4.7 0 0 1 4.8-4.5 4.6 4.6 0 0 1 4.5 4.8c0 .4-1.1 40.5 24.2 53.5a4.6 4.6 0 0 1-2 8.7ZM874.2 2081.3c-1 0-1.8-.3-2.6-.8a76.5 76.5 0 0 1-30.6-46.8 4.7 4.7 0 0 1 9.2-1.6c0 .3 4.8 26 26.7 40.8a4.6 4.6 0 0 1 1.8 5.1 4.6 4.6 0 0 1-4.4 3.3h-.1ZM1015.8 1749.1a4.5 4.5 0 0 1-4-2.3 4.5 4.5 0 0 1-.5-3.5l.8-1.6c.8-1 19.6-25.2 45.9-23.7a4.6 4.6 0 1 1-.5 9.2c-21.6-1.2-37.9 19.9-38 20.1-.5.6-1 1-1.6 1.4-.7.3-1.4.4-2 .4ZM1018.3 1712a4.6 4.6 0 0 1-4.6-5.2c.2-.9.5-1.7 1.1-2.3.9-1 21.3-24 52.4-14.7a4.6 4.6 0 0 1 2.9 2.2l.6 1.8c0 .6 0 1.2-.2 1.8a4.7 4.7 0 0 1-4.1 3.3c-.7 0-1.3 0-1.9-.2a42.4 42.4 0 0 0-42.8 11.8 4.8 4.8 0 0 1-3.4 1.6ZM1307.1 1965.9a3.7 3.7 0 1 0 0-7.5 3.7 3.7 0 0 0 0 7.5ZM1240 2098.7a3.7 3.7 0 1 0 0-7.4 3.7 3.7 0 0 0 0 7.4ZM1230.2 2065.6a3.7 3.7 0 1 0 0-7.4 3.7 3.7 0 0 0 0 7.4ZM1125.6 2245.8a3.7 3.7 0 1 0 0-7.4 3.7 3.7 0 0 0 0 7.4ZM1082.4 2250.2a3.7 3.7 0 1 0 0-7.5 3.7 3.7 0 0 0 0 7.5Z"/><path fill="#FFFAF4" d="M1801.5 1623c-23.8 13-31.5 38.5-54.5 32-9.8-2.8-2.6-22.8-2.2-23.9-46.8 14.3-75.7-9.2-102.4-51.7-38.4-61 11.7-62.4 11.7-62.4.2-35.4 43.6-32.5 43.6-32.5 7.8-29.8 38.5-22.2 38.5-22.2 11.8-30.8 49.2-19.9 78.7 24 24.6 36.7 36.2 69.2 11 95.3.8-.3 15.3.2 18.5 8.5 6.4 17.5-24.8 23.2-43 33Z"/><path fill="#431426" d="M1754.2 1660.7c-2.8 0-5.7-.4-8.4-1.2a10.7 10.7 0 0 1-6.8-5.6c-2-5.2-2.3-10.9-.8-16.3-49.6 11.2-78.2-21.7-99.7-55.8-14.7-23.3-18.8-41.5-12-54 5.5-10.6 17-13.9 23.2-15 .5-8 4.2-15.5 10.2-20.9 10.8-9.7 27.1-10.6 34.5-10.4 7.3-21.1 26.8-25.2 38.9-24.2a28.3 28.3 0 0 1 22.6-17c19.4-2 43.4 14.5 62.8 43.4 20.3 30.4 37.6 65 16.2 94.4 5.5 1.4 11.5 4.5 13.7 10.4 6.4 17.2-13.6 25.3-29.6 31.8-5.4 2.2-10.9 4.4-15.4 6.8a90.6 90.6 0 0 0-20.8 16.9c-8.4 8.5-16.6 16.7-28.6 16.7Zm-9.4-34.2a4.6 4.6 0 0 1 4.4 6.2c-2.6 7.4-3.4 14.3-2 17a1.6 1.6 0 0 0 1.1 1c11.2 3 17.3-2.4 28.1-13.2a99.7 99.7 0 0 1 22.9-18.5c4.9-2.6 10.6-5 16.2-7.2 16.7-6.8 27.5-11.9 24.4-20-1.7-4.6-11-5.7-13.3-5.6a4.6 4.6 0 0 1-4-7.8c20-20.7 16.5-47.5-11.6-89.5-17.1-25.6-38.4-41-54.1-39.3-7.5.8-13 5.7-16.4 14.4a4.7 4.7 0 0 1-5.2 2.9c-1-.2-26.6-4.5-33 20.6a4.7 4.7 0 0 1-5.1 3.4c-.2 0-20.2-2-31.3 7.9a23 23 0 0 0-7.3 18.3 4.6 4.6 0 0 1-4.5 4.6s-14.4.6-19.6 10.5c-5 9.2-.9 24.6 11.8 44.7 29.9 47.3 58 61.8 97 49.8l1.5-.2Z"/><path fill="#431426" d="M1680.5 1577.3a4.5 4.5 0 0 1-3.5-1.6c-25.1-28.7-27.5-57.1-27.7-58.3 0-.6 0-1.3.2-1.8a4.8 4.8 0 0 1 2.3-2.7 4.6 4.6 0 0 1 6.3 2 100.8 100.8 0 0 0 25.8 54.6 4.6 4.6 0 0 1 .7 5 4.6 4.6 0 0 1-4.2 2.8h.1ZM1725.1 1551.5c-1.2 0-2.4-.4-3.3-1.2-23.8-24.2-28.5-61.8-28.7-63.4a4.6 4.6 0 0 1 4.1-5.1c1.2-.2 2.5.2 3.4 1 1 .7 1.6 1.8 1.8 3 0 .4 4.5 36 26 58a4.6 4.6 0 0 1 0 6.5c-.8.9-2 1.3-3.3 1.3ZM1772.3 1522.2a4.5 4.5 0 0 1-4.5-3.5c-10.3-39.3-33.6-52.3-33.9-52.3a4.6 4.6 0 0 1-1.9-6.2c.6-1 1.6-1.8 2.7-2.2 1.2-.3 2.4-.2 3.5.3 1 .6 27 14.7 38.4 58.2a4.6 4.6 0 0 1-3.3 5.6 4 4 0 0 1-1 .1ZM1744.8 1635.7a4.6 4.6 0 0 1-5.2-4c-.1-1.3.2-2.5 1-3.5s1.9-1.5 3-1.7c20.3-6 38.6-17 53.3-32.2a4.7 4.7 0 0 1 6.4 0 4.6 4.6 0 0 1 .3 6.4 128.4 128.4 0 0 1-58.8 35Z"/><path fill="#FFFAF4" d="M1593.5 1210.6a75.5 75.5 0 0 1-10.3 36.5 64.4 64.4 0 0 0-48.6 20c-18.5-8-31.4-31.8-30.4-59.6 1.2-33.5 22.2-60 46.9-59.2 24.7 1 43.6 28.8 42.4 62.3Z"/><path fill="#431426" d="M1534.4 1271.7c-.6 0-1.2-.2-1.8-.4-20.5-8.8-34.2-35.1-33.1-64 .3-16.2 5.7-32 15.5-45a44.5 44.5 0 0 1 36-18.5 44 44 0 0 1 34.7 21 77.5 77.5 0 0 1 12.4 46.1c-.4 13.7-4.2 27-11.1 38.7-.4.7-1 1.3-1.7 1.7-.8.4-1.5.6-2.4.5a59.8 59.8 0 0 0-45.3 18.5 4.5 4.5 0 0 1-3.2 1.4Zm15.4-118.8a35.5 35.5 0 0 0-27.4 15 68.4 68.4 0 0 0-13.7 39.8c-.8 23.7 9.3 45.3 24.9 53.8a68.8 68.8 0 0 1 47-19 71.5 71.5 0 0 0 8.4-32 68 68 0 0 0-10.8-40.7c-7.2-10.5-17-16.5-27.4-16.8h-1Z"/><path fill="#FFFAF4" d="M1405.2 1207c0 25.9-11.9 48-28.6 56.7a65.1 65.1 0 0 0-51.8-19.7 75.7 75.7 0 0 1-9.2-37c0-33.6 20-60.8 44.8-60.8 24.6 0 44.8 27.3 44.8 60.9Z"/><path fill="#431426" d="M1376.6 1268.3a4.5 4.5 0 0 1-3.3-1.3 60.5 60.5 0 0 0-48.2-18.5 4.5 4.5 0 0 1-4.3-2.3 80 80 0 0 1-9.8-39.2c0-36 22.2-65.4 49.3-65.4 27.2 0 49.3 29.4 49.3 65.4 0 27-12.3 50.8-31 60.8-.7.3-1.3.5-2 .5Zm-48-29c18-.3 35.5 6.4 48.7 18.7 14-9.2 23.3-29.1 23.3-50.9 0-31-18-56.2-40-56.2s-40.1 25.2-40.1 56.2a72 72 0 0 0 7.1 32.2h1ZM1576.4 1219.4a75.9 75.9 0 0 1-6.6 29.5 58 58 0 0 0-33.9 14.7c-9.8-7.8-16.3-25.6-15.6-46.1 1-27.3 14.3-49 29.7-48.5 9.3.4 17.1 8.5 21.8 20.8l-19.4 14.8 23.2.8c.7 4.6 1 9.3.8 14Z"/><path fill="#431426" d="M1386.7 1215.5c0 20.1-6.6 37.5-16.3 45.5a59 59 0 0 0-35-15.6 78 78 0 0 1-5.7-30c0-27.7 12.7-50.3 28.5-50.3 9.4 0 17.7 8 23 20.3l-19.3 15.8h23.7c.8 4.7 1.2 9.5 1.1 14.3ZM1665.1 1335.6a4.6 4.6 0 0 1-4.6-4.6c0-2.7-.7-65.7-52.7-77a72.3 72.3 0 0 0-87.4 42.8 4.6 4.6 0 0 1-5.8 2.5 4.6 4.6 0 0 1-2.9-5.5c.2-.7 24-64.7 98-48.8 59.3 12.7 60 85.2 60 86 0 1.2-.5 2.3-1.3 3.2-1 .8-2 1.3-3.3 1.3v.1Z"/><path fill="#431426" d="M1246.3 1332.6a4.7 4.7 0 0 1-4.5-4.7c0-.7.6-73.2 59.9-85.9 73.9-15.8 97.8 48.1 98 48.8.3.5.5 1.2.5 1.8a4.7 4.7 0 0 1-3.1 4.4c-.6.2-1.3.3-1.9.2a4.6 4.6 0 0 1-3.3-1.7 72.3 72.3 0 0 0-88.3-44.5c-51.9 11.2-52.6 74.2-52.6 77 0 1.3-.5 2.4-1.4 3.2-.9.9-2 1.4-3.3 1.4ZM1437.2 1241.7a4.6 4.6 0 0 1-3.4-1.5c-1-1.1-26.7-28.5-14-47a13.6 13.6 0 0 1 10.7-6.1c15-1 34.9 20.7 37 23.2a4.7 4.7 0 0 1-.4 6.5 4.6 4.6 0 0 1-6.5-.4c-7.3-8-21.6-20.6-29.6-20.1a4.4 4.4 0 0 0-3.7 2.1c-7 10.2 7 29 13 35.4.7.7 1.1 1.5 1.3 2.4a4.6 4.6 0 0 1-4.6 5.4h.2ZM1630.6 1138.8a4.6 4.6 0 0 1-4-2.3c-18.7-31.5-38-48.3-55.8-48.6-18.7-.3-30.4 17.4-30.5 17.6a4.6 4.6 0 0 1-2.9 2.2 4.5 4.5 0 0 1-3.6-.6c-.5-.3-1-.8-1.3-1.3-.4-.5-.6-1.1-.7-1.7a4.7 4.7 0 0 1 .8-3.6c.5-1 14.6-22.3 38.4-21.9 21.5.4 42.8 18.3 63.6 53.2a4.7 4.7 0 0 1 .5 3.5 4.7 4.7 0 0 1-2.1 2.8c-.7.4-1.5.7-2.4.7ZM1293.2 1132.6a4.6 4.6 0 0 1-4-7c21.6-34.4 43.2-51.9 64.7-51.9 23.8 0 37.5 21.8 38 22.7a4.6 4.6 0 0 1-1.5 6.3 4.6 4.6 0 0 1-6.3-1.4c-.2-.4-11.7-18.3-30.3-18.3-17.7 0-37.3 16.4-56.7 47.5a4.6 4.6 0 0 1-4 2.1Z"/><path fill="#BE6956" d="M1542.6 1402.5c0 15.3-2.4 30.6-7.3 45.1-13.9 41.2-46.2 70-83.8 70-37.5 0-69.9-28.9-83.8-70a141.1 141.1 0 0 1-7.2-45.1c0-52.8 28-97.3 66.4-110.9 15.7-5.6 33-5.7 48.8-.1 38.5 13.2 66.9 57.9 66.9 111Z"/><path fill="#431426" d="M1451.5 1522.2c-38.5 0-73.1-28.7-88.1-73.2-5-15-7.6-30.7-7.5-46.5 0-53.3 28.5-100.7 69.4-115.2 16.8-6 35.1-6 52-.2 41.1 14.3 69.9 61.8 69.9 115.4a145 145 0 0 1-7.5 46.6c-15 44.4-49.6 73.1-88.2 73.1Zm0-230.4c-7.8 0-15.7 1.4-23 4-37.4 13.3-63.4 57.1-63.4 106.6 0 14.8 2.3 29.6 7 43.6 13.8 40.7 44.9 67 79.4 67 34.6 0 65.8-26.3 79.4-67 4.7-14 7-28.7 7-43.5 0-49.8-26.2-93.7-63.7-106.7-7.3-2.6-15-4-22.7-4Z"/><path fill="#FF89A4" d="M1465.4 1336.1a28.4 28.4 0 0 1 6.3 18.2c0 16-12.3 28.5-26.1 25.3-8.5-2-15.4-10.3-16.9-20.4a29 29 0 0 1 6.7-23.9 17.4 17.4 0 0 0 2.7-18.3l-11.2-25.4c15.7-5.6 33-5.7 48.8-.1l-12.6 25.8a17.6 17.6 0 0 0 2.3 18.8ZM1535.3 1447.5c-13.9 41.2-46.2 70-83.8 70-37.5 0-69.9-28.8-83.8-70 0 0 14-32.2 40.3-38.1 26.3-6 43.1 16.3 43.1 16.3s10.8-16.4 36.2-16.8c33.8-.6 48 38.6 48 38.6Z"/><path fill="#431426" d="M1450 1384.7a24 24 0 0 1-5.3-.7c-10.4-2.4-18.5-12.1-20.4-24.2a34 34 0 0 1 7.8-27.7 12.8 12.8 0 0 0 2-13.3l-11.3-25.5a4.6 4.6 0 0 1 2.7-6.2c16.7-6 35-6 51.8-.1a4.5 4.5 0 0 1 2.8 2.5 4.6 4.6 0 0 1 0 3.8l-13 26a13 13 0 0 0 1.8 13.8c5 6 7.6 13.5 7.4 21.2a31.9 31.9 0 0 1-11.4 25 23.7 23.7 0 0 1-14.8 5.4Zm-16.8-90.4 9.2 20.8a22 22 0 0 1-3.6 23.4 24.3 24.3 0 0 0-5.4 20c1.2 8.2 6.7 15 13.3 16.6a14.5 14.5 0 0 0 12.6-3 22.7 22.7 0 0 0 7.9-17.8 24 24 0 0 0-5.3-15.2 22.1 22.1 0 0 1-3-23.8l10.3-21.1a69 69 0 0 0-36 .1ZM1451.5 1522.2c-38.5 0-73.1-28.7-88.1-73.2-.4-1-.3-2.3.1-3.3.7-1.4 15.5-34.4 43.6-40.8 21.6-5 37.3 7 44 13.9a51.2 51.2 0 0 1 36.3-14.5c36.5-.7 51.6 40 52.3 41.7.4 1 .4 2 0 3-15 44.5-49.6 73.2-88.2 73.2Zm-78.7-74.4c14 39.7 44.7 65.2 78.7 65.2s65-25.6 78.9-65.3c-3-6.8-16.4-34.6-42.9-34.2-22.7.4-32.3 14.7-32.4 14.8a4.7 4.7 0 0 1-5.8 1.6c-.7-.3-1.3-.8-1.7-1.4-.7-.8-15.4-19.9-38.4-14.6-20.5 4.6-33.3 27.6-36.4 33.9Z"/><path fill="#431426" d="M1431.8 1461c-.5 0-1 0-1.6-.3-1.2-.4-2-1.3-2.6-2.4a4.6 4.6 0 0 1-.1-3.5 107.2 107.2 0 0 1 20.4-32.1 4.6 4.6 0 0 1 3.3-1.7 4.6 4.6 0 0 1 3.5 1.3 4.7 4.7 0 0 1 1.4 3.4 4.7 4.7 0 0 1-1.5 3.3c-7.8 8.6-14 18.4-18.5 29a4.6 4.6 0 0 1-4.3 3ZM948 1281.6a4.5 4.5 0 0 1-4.1-2.7l-33.3-70.4a4.7 4.7 0 0 1 1.4-5.6L966 1160a4.6 4.6 0 0 1 7 1.7l33.3 70.4a4.7 4.7 0 0 1-.3 5.5 4.6 4.6 0 0 1-3.5 1.7 4.7 4.7 0 0 1-4.5-3.2l-30.8-65.2-46.7 37 31.7 67a4.6 4.6 0 0 1-2.2 6.2c-.7.3-1.4.4-2 .4Z"/><path fill="#431426" d="M947.6 1296.5c4.9-8.5 3.7-18.3-2.6-21.9-6.4-3.6-15.5.2-20.3 8.7-4.9 8.4-3.7 18.2 2.6 21.9 6.4 3.6 15.5-.3 20.3-8.7ZM1002 1255c5-8.4 3.7-18.2-2.6-21.8-6.4-3.7-15.4.2-20.3 8.6-4.9 8.5-3.7 18.3 2.7 22 6.3 3.6 15.4-.3 20.3-8.8Z"/><path fill="#431426" d="M932.5 1311.2a15 15 0 0 1-7.4-2 16.6 16.6 0 0 1-7.8-12.5 26.6 26.6 0 0 1 15.2-26.5 16.4 16.4 0 0 1 14.8.5 16.4 16.4 0 0 1 7.8 12.6c.5 5.4-.7 10.9-3.5 15.5a23 23 0 0 1-19 12.4Zm7.1-33.3c-1.2 0-2.4.3-3.6.8a17.6 17.6 0 0 0-9.7 16.8 7.5 7.5 0 0 0 3.3 5.7c4 2.3 10.4-.9 14-7 1.7-3 2.5-6.4 2.2-9.8a7.5 7.5 0 0 0-3.2-5.7c-1-.5-2-.8-3-.8ZM987 1269.8c-2.6 0-5.2-.7-7.5-2a16.6 16.6 0 0 1-7.9-12.6 26.7 26.7 0 0 1 15.4-26.4 16.4 16.4 0 0 1 14.9.4c8.5 5 10.4 17.6 4.3 28.2a25.4 25.4 0 0 1-11.8 10.8c-2.3 1-4.8 1.6-7.4 1.6Zm7.1-33.3a10 10 0 0 0-3.6.8 17.5 17.5 0 0 0-9.7 16.8 6.5 6.5 0 0 0 9.8 5.6c3.2-1.4 5.8-3.9 7.4-6.9 3.6-6.2 3.1-13.3-1-15.6-.8-.5-1.8-.8-2.9-.8ZM741.6 1461a4.6 4.6 0 0 1-4.6-4.6v-77.8a4.6 4.6 0 0 1 2.6-4.1 4.6 4.6 0 0 1 5 .6s8.2 6.4 17.1 5c5.5-1 10.4-4.8 14.5-11.3a4.6 4.6 0 1 1 7.8 5c-5.6 8.8-12.6 14-20.8 15.4a30 30 0 0 1-17-2.5v69.8a4.6 4.6 0 0 1-4.6 4.5Z"/><path fill="#431426" d="M733 1474c8-5.5 11-14.9 6.8-20.9-4.1-6-14-6.3-22-.8-8 5.6-11.1 15-7 21 4.2 6 14.1 6.3 22.1.8Z"/><path fill="#431426" d="M721 1482.6h-.8a16.3 16.3 0 0 1-13.2-6.8c-5.6-8-2-20.3 8-27.3 10.1-7 23-6.2 28.5 2a16.4 16.4 0 0 1 1.7 14.7 26.8 26.8 0 0 1-24.2 17.4Zm8.6-29.7c-3.3 0-6.5 1.2-9.2 3-5.8 4.1-8.5 10.8-5.8 14.6a7.5 7.5 0 0 0 6 2.7 17.5 17.5 0 0 0 15.9-11 6.5 6.5 0 0 0-6.8-9.3ZM676.6 1173.1c4.8-5.4 3-15.1-4.4-21.6-7.2-6.5-17-7.4-22-2-4.8 5.5-2.9 15.2 4.4 21.7 7.3 6.5 17 7.4 22 2Z"/><path fill="#431426" d="M667.8 1181.4a25 25 0 0 1-16.3-6.7c-9.3-8.2-11.3-20.8-4.7-28.1a16.4 16.4 0 0 1 13.9-5 26.6 26.6 0 0 1 22.7 20.3 16.4 16.4 0 0 1-3.4 14.4 16 16 0 0 1-12.2 5Zm-8.8-30.8a7 7 0 0 0-5.3 2c-3.1 3.5-1.3 10.4 4 15.1 5.2 4.7 12.2 5.8 15.3 2.3a7.4 7.4 0 0 0 1.3-6.4 17.5 17.5 0 0 0-14.5-13h-.8Z"/><path fill="#431426" d="M681 1183.8a65.7 65.7 0 0 1-21.2-3.9 4.6 4.6 0 0 1-.2-8.5 4.6 4.6 0 0 1 3.6 0c.2 0 18.7 7 29.7.5 4.4-2.7 7-7.3 7.8-14 .9-6.9-1.8-22.6-5.8-41.4-14.7 2.8-30-.2-42.5-8.5a52 52 0 0 1-22-50.8c2-20.2 19.3-33.6 36-46.6l5.5-4.2c-6.2-39.7-5.5-71.2 13.7-75.7a12.3 12.3 0 0 1 11.6 4.1c7.1 7 12.8 23.8 8.3 43.8-2.7 12.6-12.5 22.5-23.7 31.7 1.5 9.2 3.3 18.4 5.2 27.9 2-.3 4-.4 6-.3 16 .5 33.2 11.6 33 41.3a35.9 35.9 0 0 1-22.2 34.5c4.4 20.8 7.2 37 6.1 45.3-1.2 9.7-5.4 16.7-12.3 20.8-5.1 2.9-10.9 4.2-16.7 4Zm-7.5-167-1.4 1.1c-15.2 11.8-30.8 24-32.5 40-1.9 18.2 4.5 33.2 18 42.3 10.4 7 23 9.5 35.3 7.1l-4.7-20.8-8.3-37.2c-8.6 3.3-15.4 9.7-15.7 16.5-.7 11.9 6 12.5 6.2 12.5.6 0 1.2.2 1.7.5a4.6 4.6 0 0 1 2.6 4.5 4.6 4.6 0 0 1-5 4.3c-5.5-.4-15.7-5.6-14.7-22.3.7-11.7 11-21 23-25.1-1.7-8-3.2-15.9-4.6-23.5l.1.1Zm15.4 30.4 8.3 37.3 4.5 20 .6-.3a26.6 26.6 0 0 0 14.5-25c0-20-8.7-31.6-24-32-1.5-.2-2.6-.2-4 0h.1Zm-1-107.5h-.2c-12 2.8-12 28.2-7.5 59.8 8.1-7 14.4-14.4 16.3-22.9 4-17.8-1.3-30.8-5.8-35.3-.7-.9-1.8-1.5-2.9-1.7l.1.1Z"/></svg>
