<svg xmlns="http://www.w3.org/2000/svg" width="3000" height="3000" fill="none"><path fill="#FFEAB9" d="M1614.4 2416.8a25.2 25.2 0 0 1-25-25.1V1969a25.1 25.1 0 0 1 50.2 0v422.6a25.1 25.1 0 0 1-25.2 25.1Z"/><path fill="#431426" d="M1614.4 2421.2a29.5 29.5 0 0 1-29.5-29.5V1969a29.5 29.5 0 1 1 59 0v422.6a29.6 29.6 0 0 1-29.5 29.5Zm0-472.7a20.7 20.7 0 0 0-20.6 20.6v422.6a20.7 20.7 0 0 0 41.3 0V1969a20.5 20.5 0 0 0-12.7-19c-2.6-1.1-5.2-1.7-8-1.7Z"/><path fill="#FFEAB9" d="m1214.2 2410.7-3.3-1.2a25.1 25.1 0 0 1-12.7-33.2c81.7-183.2 132.4-419.5 133-421.8a25.1 25.1 0 1 1 49.1 10.5c-2.1 9.8-52.2 243.8-136.2 431.8a25.1 25.1 0 0 1-30 14Z"/><path fill="#431426" d="M1221 2416.2a29.4 29.4 0 0 1-27.5-19 29.6 29.6 0 0 1 .6-22.7c81.3-182.2 132-418.5 132.6-421a29.4 29.4 0 0 1 35-22.7 29.6 29.6 0 0 1 22.8 35c-2.1 10-52.4 244.3-136.5 432.8a29.8 29.8 0 0 1-27 17.6Zm-5.7-9.7a20.7 20.7 0 0 0 24.7-11.5c83.7-187.6 133.7-421.1 135.9-431a20.7 20.7 0 0 0-40.5-8.5c-.5 2.4-51.5 239.6-133.2 422.7a20.6 20.6 0 0 0 13.2 28.3Z"/><path fill="#9CC" d="m1302.8 2615-.1.4-.3.3-.3.2c-6.6 4.2-13.5 8-20.7 11.3l-.6.2a523.4 523.4 0 0 1-53.5 21.8l-9.9 3.3a493.2 493.2 0 0 1-133.7 25c-115.2 4-153.6-36-153.6-36v-.3c-1.5-11.5-2.4-23-2.7-34.5v-4.8c0-35.8 9-91.1 58.8-119a103.5 103.5 0 0 1 82.5-6.9l36.1-31.2 24-20.7 23.6-20.5s40.2-36.6 68.5-36.7c60 0 63 44.8 63 44.8s4.2 36 8.5 77.1l.5 4.6.4 4 .8 7.4.7 6.9c0 .8.2 1.5.3 2.3l1.1 11.4.5 4.5.5 4.6.4 4.4.4 4.4c0 1.4.3 3 .5 4.3l.2 2.2.5 5.1.2 2.8v.4l.4 4 .7 7.8c0 1.2.2 2.3.3 3.4.1 1 .3 2.6.3 4v3.3c0 1.2.1 2.3.3 3.3v1.6l.4 4.5.1 2.5c.8 7.5 1 15 1 22.5Z"/><path fill="#431426" d="M1067.4 2682.2c-103.1 0-138.9-36-140.4-37.6-.6-.6-1-1.3-1.2-2.2v-.6a350.3 350.3 0 0 1-2.6-35v-4.7c0-33.3 7.8-93.3 61-123a107.3 107.3 0 0 1 83.7-8l81.7-71c1.6-1.5 41.7-37.7 71.4-37.8h.2c63.2 0 67.2 48.5 67.2 49 0 .4 4.2 35.9 8.5 76.5v.5l1.9 18.2.5 4.7.2 2.3 1.2 11.4 3.2 32.3v.3l.3 3.8v.3l.7 7.8.3 3.3c0 1.5.3 3 .3 4 0 .6 0 1.2.2 1.7v1.8l.4 5 .3 4.4.2 2.4c.6 7.8.8 15.8.4 23.6a5.4 5.4 0 0 1-1.4 2.8l-.3.4-.7.5h-.2c-6.8 4.5-14 8.4-21.4 11.8l-.5.3a520.3 520.3 0 0 1-54 22l-1.3.4-8.7 3a491.5 491.5 0 0 1-151.1 25.4Zm-133-42.8c6.6 5.7 47.5 37.3 149.3 33.7a484 484 0 0 0 140.9-27.6l1.2-.4c18-6.2 35.8-13.4 53-21.6l.8-.4c6.5-3 12.9-6.4 19-10.1 0-3.4 0-12.5-.6-20.3l-.2-2.4-.3-4.4-.4-5V2577.9c0-1.5-.2-2.7-.4-4l-.3-3.6-.7-7.7v-.2l-.3-3.6v-.8l-.3-2.6-.3-2.8-2.6-26.6-1.2-11.3-.2-2.2c0-1.7-.3-3.2-.5-4.7l-1.9-17.8v-.4c-4.3-40.7-8.4-76.7-8.4-77 0-2-3.8-41-58.5-41h-.1c-26.3 0-65.2 35.2-65.6 35.5l-84.3 72.5a4.4 4.4 0 0 1-4.5.8 99.7 99.7 0 0 0-78.7 6.7c-46.7 26-56.5 76.8-56.5 115v4.8c.4 13.5 2 28.4 2.5 32.6h.1Z"/><path fill="#431426" d="M1135.8 2550c-.9 0-1.8-.2-2.5-.7a4.4 4.4 0 0 1-1.6-2.2c-19.6-53.9-63.8-66.7-64.3-66.8a4.5 4.5 0 0 1-2.9-5.4 4.5 4.5 0 0 1 5.2-3.2c2 .6 49.1 14 70.3 72.4a4.4 4.4 0 0 1-2.6 5.7c-.5.2-1 .3-1.6.3Z"/><path fill="#FFD073" d="M1227 2649.3c50-16.3 73.7-31.5 75.6-33.9 1.9-2.3-4.5-72-10.3-126.5 0 0-79.5 38-65.2 160.4Z"/><path fill="#431426" d="M1227.4 2652.3a4.4 4.4 0 0 1-3.6-2c-.4-.4-.6-1-.8-1.6-18.5-115.2 66.3-163.2 67.2-163.7a4.5 4.5 0 0 1 3.4-.3 4.5 4.5 0 0 1 3 3.8c3 28.7 6.2 59.7 8.1 83 3.8 43.8 2.8 45 1.4 46.8-3.3 3.9-29.9 18.3-77.1 33.8-.5.2-1 .2-1.6.2Zm61.2-156c-17.9 12.4-69.7 56.5-57.6 145.7 42.8-14.3 63-25.8 67.5-28.9.4-9.2-3.9-60.1-9.9-116.8Z"/><path fill="#FFFAF4" d="M927.4 2602c.4 17.2 2.7 39.6 2.7 39.6s38.4 40 153.7 36a493 493 0 0 0 133.3-25c50-16.2 83.6-34.8 85.4-37.2.8-1 .2-18.2-1.2-35-17 8-163.7 67-271.3 53.2-59.2-7.4-88-22.7-102.6-31.7Z"/><path fill="#431426" d="M1067.3 2682.3c-103 0-138.8-36-140.4-37.6a4.5 4.5 0 0 1-1.2-2.6c0-.3-2.4-22.8-2.7-40a4.4 4.4 0 0 1 2.2-4c.7-.4 1.5-.6 2.3-.6.8 0 1.5.2 2.2.6 9.3 5.7 37.4 23 101 31.2 102.3 13 245-41.7 268.8-53a4.5 4.5 0 0 1 6.3 3.7c3 34.9 1 37.3.3 38.2-3 3.5-37.3 22.3-87.5 38.7a492.6 492.6 0 0 1-151.3 25.4Zm-133-42.8c6.9 5.9 47.9 37.2 149.3 33.6a482 482 0 0 0 132.2-24.7 414.1 414.1 0 0 0 82.8-35.4c0-3.7-.2-13.8-1.1-26-36.2 15.4-169.8 63.5-268 51-53.7-6.9-83.2-20.3-97.4-28.2.6 12.4 1.8 25.2 2.3 29.7Z"/><path fill="#431426" d="M964 2663.1c-1.1 0-2.2-.4-3-1.3-1-.8-1.4-2-1.4-3V2619a4.4 4.4 0 1 1 8.9 0v39.6a4.4 4.4 0 0 1-4.4 4.4ZM1007.6 2675.8a4.4 4.4 0 0 1-4.4-4.4v-41.2a4.4 4.4 0 1 1 8.8 0v41.2a4.5 4.5 0 0 1-1.3 3.1 4.6 4.6 0 0 1-3 1.3ZM1055.9 2679a4.4 4.4 0 0 1-4.5-4.4v-36.8a4.4 4.4 0 0 1 7.6-3.1c.8.8 1.3 2 1.3 3.1v36.8a4.4 4.4 0 0 1-1.3 3.1 4.4 4.4 0 0 1-3.1 1.3ZM1107.3 2675.8a4.4 4.4 0 0 1-4.4-4.4v-38.2a4.4 4.4 0 0 1 4.4-4.4 4.4 4.4 0 0 1 4.5 4.4v38.1a4.4 4.4 0 0 1-1.3 3.2 4.5 4.5 0 0 1-3.2 1.3ZM1156.3 2669.3a4.4 4.4 0 0 1-4.5-4.5v-39.3a4.4 4.4 0 0 1 4.5-4.5 4.4 4.4 0 0 1 4.4 4.5v39.3a4.4 4.4 0 0 1-4.4 4.5ZM1199 2659.4a4.4 4.4 0 0 1-4.3-4.5v-39.5c0-1.1.4-2.3 1.3-3a4.4 4.4 0 0 1 7.5 3v39.6c0 1.2-.5 2.3-1.3 3-.9 1-2 1.4-3.1 1.4ZM1237.8 2648.8a4.4 4.4 0 0 1-4.4-4.4v-37.8a4.4 4.4 0 1 1 8.8 0v37.7a4.5 4.5 0 0 1-1.2 3.2l-1.5 1c-.5.2-1.1.3-1.7.3ZM1275.8 2631.8a4.4 4.4 0 0 1-4.4-4.1l-2.5-35.7a4.5 4.5 0 0 1 4.2-4.8c1.1 0 2.3.4 3.2 1.1.9.8 1.4 1.9 1.5 3l2.5 35.8a4.5 4.5 0 0 1-4.2 4.7h-.3Z"/><path fill="#9CC" d="M1255.5 2370s-12.9 52.5-36.3 93.2c-28.3 49.1-92.5 62.8-92.5 62.8a98.6 98.6 0 0 0-33.4-37c-7.7-5.4-16-9.8-24.9-13 0 0 31.3-26.9 42.3-55.2 13-33.2-.7-75.4-.7-75.4s32.3 15 59.8 20.5l5.6 1c4.8.7 10 1.2 15.3 1.5 27.3 1.6 64.8 1.6 64.8 1.6Z"/><path fill="#431426" d="M1126.8 2530.4a4.4 4.4 0 0 1-4-2.6 94.8 94.8 0 0 0-31.9-35.1 99.6 99.6 0 0 0-23.6-12.4 4.5 4.5 0 0 1-1.5-7.6c.3-.3 30.6-26.6 41-53.5 12.3-31.4-.6-72-.7-72.4a4.4 4.4 0 0 1 3.6-5.8c.8 0 1.7 0 2.5.4.3 0 32 14.8 58.7 20.1a162.1 162.1 0 0 0 20.2 2.4 1378 1378 0 0 0 64.5 1.6c.7 0 1.3.2 2 .5a4.3 4.3 0 0 1 2.3 3c.2.7.1 1.3 0 2a418 418 0 0 1-36.8 94.6c-29 50.2-92.7 64.3-95.4 65l-.9-.2Zm-50-55.8a119 119 0 0 1 28.3 17.8c9.6 8 17.7 17.7 24 28.5 13.1-3.6 63-19.3 86.3-59.9a403 403 0 0 0 34.4-86.6c-11.6 0-38.6-.3-59.2-1.5-5.8-.4-11-.9-15.6-1.6-2-.2-3.9-.6-6-1-17.8-4-35.3-9.7-52.2-17 3.4 14.8 8 44-1.8 69.2-8.5 22-28.5 42.9-38.2 52Z"/><path fill="#FFD073" d="M1196 2368.6c-.5 21.8-7.1 43-19 61.1-21 30.8-72.2 68-72.2 68l-11.3-8.7-2.8-2s47.5-41 65.6-70a99 99 0 0 0 13.6-51.1l5.6 1c5 .7 15 1.4 20.4 1.7Z"/><path fill="#431426" d="M1104.8 2502.1c-1 0-1.9-.3-2.6-1l-14.1-10.6a4.4 4.4 0 0 1-.2-7c.4-.3 47.2-40.8 64.7-69a93.9 93.9 0 0 0 13-48.6 4.6 4.6 0 0 1 1.6-3.5 4.5 4.5 0 0 1 3.7-.9c1.8.4 3.7.8 5.4 1 4.5.7 14.4 1.4 20 1.7a4.5 4.5 0 0 1 4.1 4.4c-.4 22.7-7.3 44.8-19.8 63.7-21 31-71 67.5-73.2 69-.8.5-1.6.8-2.6.8Zm-7-15.4 7.1 5.4c10.7-8 51-39 68.5-65a113 113 0 0 0 18-54.4c-5.4-.4-12.5-1-16.3-1.5h-.8c-.6 17-5.5 33.5-14.2 48-15.3 24.6-50.3 56.8-62.4 67.5Z"/><path fill="#9CC" d="M1778.8 2655.5s-23.9 32.5-127 36.9c-103.3 4.4-143.7-39.4-143.7-39.4 0-11.8.3-29.6 1.2-41.1 7-98 44-192 44-192l125.6-2.2 14.7 33.3 12.6 28.2 2.7 5.9s38 21.4 55.2 55.8a178 178 0 0 1 16.4 75.5c.2 13-.4 26-1.7 39Z"/><path fill="#431426" d="M1637.4 2697.1c-93.3 0-130.9-39.3-132.5-41.1a4.3 4.3 0 0 1-1.2-3c0-11.1.3-29 1.2-41.3 7-97.5 44-192.3 44.3-193.3.3-.8.8-1.6 1.6-2 .7-.6 1.5-.9 2.5-1l125.5-2a4.6 4.6 0 0 1 4.1 2.6l29.5 66.1c7 4.2 39.7 25 55.8 57a184.1 184.1 0 0 1 16.9 77.4c.1 13.2-.5 26.3-1.9 39.4 0 .8-.4 1.5-.8 2.2-1 1.4-26.3 34.3-130.4 38.7l-14.6.3Zm-124.8-46c7.3 6.7 48.8 40.7 139 36.9 90.3-3.8 118.3-29.6 123-34.4 1.2-12.2 1.7-24.6 1.7-37-.4-19.7-3.4-48.4-16-73.5-16.5-32.8-53.2-53.8-53.5-54a4.3 4.3 0 0 1-1.8-2l-28.9-64.8-119.6 2c-5.9 16.2-36.4 101-42.7 187.9-1 11.4-1.2 28-1.2 39Z"/><path fill="#431426" d="M1537.2 2545.5a4.4 4.4 0 0 1-3.7-6.8c65.5-101.3 176-58 177.1-57.6a4.4 4.4 0 0 1 2.6 2.4c.2.5.4 1.1.4 1.7l-.3 1.8-1 1.4a4.5 4.5 0 0 1-3.2 1.3c-.7 0-1.3-.1-1.8-.4-4.2-1.7-104.9-41-166.4 54.2a4.5 4.5 0 0 1-3.7 2Z"/><path fill="#9CC" d="m1709 2485.2-3.3-1.1c-13.3-4.6-64.8-19.8-115.7 7-6.8 3.5-25 17.3-25 17.3l-35.5-130.4c51.2 14.2 154.5-3.8 179.4-13.3v120.5Z"/><path fill="#431426" d="M1565 2512.9a4.9 4.9 0 0 1-3.3-1.4c-.5-.5-.9-1.1-1.1-1.8l-35.5-130.4a4.5 4.5 0 0 1 1.2-4.3 4.3 4.3 0 0 1 4.3-1.1c50 13.8 152.4-4 176.6-13.2a4.5 4.5 0 0 1 5.5 2c.3.7.5 1.4.5 2v120.6a4.5 4.5 0 0 1-2 3.7 4.3 4.3 0 0 1-4 .4l-3-1c-14.3-4.8-64.1-18.7-112.3 6.6-8.4 5.3-16.5 11-24.4 17-.7.6-1.6.9-2.5.9Zm-29.2-128.8 31.8 116.9c6.5-5 13.3-9.6 20.3-13.9 47.9-25 95.8-14.8 116.6-8v-108.3c-30.2 9-117 24-168.7 13.3Z"/><path fill="#FFFAF4" d="M1778.8 2655.5s-23.9 32.5-127 36.9c-103.3 4.4-143.7-39.4-143.7-39.4 0-11.8.3-29.6 1.2-41.1 0 0 48 42.6 148.8 35.4 99.2-7 121.8-30 122.4-30.7.2 13-.4 26-1.7 38.9Z"/><path fill="#431426" d="M1637.4 2697.1c-93.3 0-130.9-39.3-132.5-41.1a4.3 4.3 0 0 1-1.2-3c0-11.1.3-29 1.2-41.3a4.5 4.5 0 0 1 4.4-4.2c1 0 2.1.4 3 1.2.4.4 48.1 41.3 145.6 34.3 96.7-6.9 119.3-29.1 119.5-29.3a4.4 4.4 0 0 1 6.8.5c.5.7.8 1.5.8 2.4.2 13.2-.5 26.3-1.8 39.4-.1.8-.4 1.5-.8 2.2-1 1.4-26.4 34.3-130.4 38.7l-14.6.2Zm-124.8-46c7.3 6.7 48.8 40.7 139 36.9 90.3-3.8 118.3-29.6 123-34.4.4-3.8 1.4-15.4 1.7-28.3-13.1 7.8-45.5 21.3-117.7 26.5-81.2 5.9-128.6-20-145.3-31.4-.7 10.3-.7 22.3-.7 30.7Z"/><path fill="#431426" d="M1533.3 2674.9a4.4 4.4 0 0 1-4.4-4.4v-43.8c0-1.1.4-2.3 1.3-3.1a4.4 4.4 0 0 1 6.2 0c.9.8 1.3 2 1.3 3.1v43.7c0 1.2-.4 2.3-1.3 3.2-.8.8-2 1.3-3.1 1.3ZM1573.2 2687.4a4.4 4.4 0 0 1-4.4-4.4v-42a4.4 4.4 0 0 1 8.9 0v42c0 1.1-.5 2.3-1.4 3.1-.8.8-1.9 1.3-3 1.3ZM1619.3 2694.5a4.4 4.4 0 0 1-4.5-4.4v-41.4a4.4 4.4 0 0 1 9 0v41.4c0 1.1-.5 2.3-1.4 3.1-.8.8-2 1.3-3.1 1.3ZM1672.8 2694.5a4.4 4.4 0 0 1-4.4-4.4v-42.2a4.4 4.4 0 1 1 8.9 0v42.3a4.4 4.4 0 0 1-4.5 4.3ZM1717.8 2687.4a4.4 4.4 0 0 1-4.5-4.4v-42c0-1.2.5-2.3 1.3-3.2a4.4 4.4 0 0 1 7.6 3.1v42a4.4 4.4 0 0 1-4.4 4.4v.1ZM1757.6 2674.8a4.4 4.4 0 0 1-4.4-4.5V2629a4.4 4.4 0 0 1 8.9 0v41.3a4.4 4.4 0 0 1-4.5 4.5Z"/><path fill="#FFD073" d="M1604.4 2382.4s.6 62 18.7 96.6l26.3-3.3s-13.2-28.3-16-55.8c-1.7-16.1-1.4-40-1.4-40l-27.6 2.5Z"/><path fill="#431426" d="M1623 2483.4c-.7 0-1.5-.2-2.2-.6-.7-.5-1.3-1-1.7-1.8-18.3-35.1-19-96-19.1-98.5a4.5 4.5 0 0 1 4-4.5l27.7-2.5a4.3 4.3 0 0 1 3.4 1.2c.4.4.8.9 1 1.5.3.5.4 1.2.4 1.8 0 .2-.3 23.8 1.3 39.5a199.6 199.6 0 0 0 15.6 54.4c.3.6.5 1.3.4 2 0 .7-.2 1.4-.5 2a4.6 4.6 0 0 1-3.3 2.3l-26.4 3.2h-.5Zm-14-97c.5 13.8 3.1 59.3 16.6 87.8l17.4-2.1c-7-16.5-11.7-33.9-14-51.7a398.4 398.4 0 0 1-1.4-35.6l-18.6 1.6Z"/><path fill="#FFEAB9" d="M791 1643.3a25 25 0 0 1-21.6-12.3c-40.8-68.4-49-129.6-24.1-182 48.2-102 203.9-126.4 210.6-127.4a25.2 25.2 0 0 1 7.5 49.9c-2 .3-136.2 21.8-172.7 99.2-17.2 36.4-9.8 81.7 21.9 134.8a25.1 25.1 0 0 1-21.6 37.8Z"/><path fill="#431426" d="M791 1647.8a29.8 29.8 0 0 1-25.4-14.4c-41.6-69.8-49.8-132.5-24.3-186.2 49.2-104 207.2-128.8 214-129.8a29.5 29.5 0 0 1 8.8 58.4c-1.3.2-133.9 21.5-169.4 96.8-16.4 35-9.1 78.9 21.8 130.7a29.5 29.5 0 0 1-25.4 44.6Zm168.6-322-3 .1c-6.4 1-160 25.2-207.2 125-24.1 51-16 110.8 24 177.9a20.8 20.8 0 0 0 20.7 9.8 20.8 20.8 0 0 0 17.1-15.4 20.7 20.7 0 0 0-2.3-15.6c-32.5-54.5-40-101.3-22.1-139 37.3-79.4 174.5-101.4 175.9-101.6a20.7 20.7 0 0 0-3-41.2Z"/><path fill="#FFFAF4" d="M1783.9 2129.4s-96.2 68-335.6 68c-251.5 0-338-68-338-68l.4-66.9h675.6l-2.4 66.9Z"/><path fill="#431426" d="M1448.3 2201.8c-250.2 0-337.2-66.1-340.8-69a4.5 4.5 0 0 1-1.7-3.5l.4-66.8a4.5 4.5 0 0 1 4.5-4.4h675.6c.6 0 1.2.1 1.7.3a4.4 4.4 0 0 1 2.4 2.5l.3 1.8-2.4 66.8a4.4 4.4 0 0 1-1.8 3.5c-4 2.8-100.1 68.8-338.2 68.8Zm-333.6-74.7c13.3 9 105.6 65.8 333.6 65.8 217.5 0 317-57 331.3-66l2-60h-666.5l-.4 60.2Z"/><path fill="#FFFAF4" d="M1964.7 1780.5c-102.3 0-198-46.5-269.6-131-69.7-82.4-108.1-191.5-108.1-307.3 0-115.8 38.4-224.8 108.1-307.1 71.5-84.5 167.3-131 269.6-131 102.3 0 198 46.5 269.6 131 69.7 82.3 108.1 191.4 108.1 307 0 115.8-38.4 224.9-108.1 307.4-71.6 84.5-167.2 131-269.6 131Zm0-787.7c-159.4 0-289 156.8-289 349.5 0 192.8 129.6 349.6 289 349.6s289-156.8 289-349.6c0-192.7-129.4-349.5-289-349.5Z"/><path fill="#431426" d="M1964.7 1785c-103.6 0-200.6-47.1-273-132.6-70.4-83.2-109.1-193.3-109.1-310 0-116.8 38.7-226.9 109.1-310 72.4-85.7 169.4-132.7 273-132.7s200.6 47.1 273 132.6c70.4 83.2 109.3 193.3 109.3 310 0 116.8-38.8 226.9-109.3 310-72.4 85.6-169.3 132.7-273 132.7Zm0-876.4c-101 0-195.5 46-266.2 129.5-69 81.6-107 189.6-107 304.3 0 114.7 38 222.7 107 304.4 70.7 83.5 165.2 129.5 266.2 129.5s195.5-46 266.2-129.5c69-81.6 107-189.7 107-304.4 0-114.7-38-222.7-107-304.3-70.6-83.5-165.2-129.5-266.2-129.5Zm0 787.7c-161.8 0-293.5-158.8-293.5-354s131.7-354 293.5-354 293.5 158.9 293.5 354c0 195.2-131.6 354-293.5 354Zm0-699c-157 0-284.6 154.8-284.6 345 0 190.3 127.7 345.2 284.6 345.2 157 0 284.6-154.9 284.6-345.2 0-190.3-127.6-345-284.6-345Z"/><path fill="#FFD073" d="M1786.3 2083.2s186-221.2 214.6-679.2c11-174 0-697.6 0-697.6s-210 76-552.5 79.8c-338.5 3.7-552.6-79.8-552.6-79.8s-10.8 523.5 0 697.6c28.8 458 215 679.2 215 679.2s124 66.9 335.5 66.9c199.5 0 340-66.9 340-66.9Z"/><path fill="#FFFAF4" d="M2001 706.4s-12.6 4.6-36.5 11.5l-.7 59.4c2.5 148.4 7 491.7-1.2 624.3a1614.1 1614.1 0 0 1-43.9 289.7 1280.2 1280.2 0 0 1-69.4 205c-38 86.3-70.2 151.1-87.3 164.5-26.9 21-153.9 62.7-315.8 62.7-171.4 0-287.2-43-310.7-62-16.3-13.3-49.3-77.9-87.8-165.3a1279 1279 0 0 1-69.5-204.9c-23.4-95-38-192-43.8-289.8-8.3-131-3.9-467.5-1.3-618.7l-.8-64.2a569.2 569.2 0 0 1-36.2-12.2s-11 523.5 0 697.5c28.5 458 214.7 679.3 214.7 679.3s124 66.9 335.5 66.9c199.6 0 340-66.9 340-66.9s186-221.2 214.6-679.2c10.9-174 0-697.6 0-697.6Z"/><path fill="#431426" d="M1446.2 2154.5c-210.2 0-336.4-66.7-337.6-67.4-.5-.3-1-.6-1.3-1-.5-.6-47.5-57.1-97.2-169-45.9-103-103.6-275.6-118.5-512.9-10.8-172.2 0-692.7 0-697.9a4.4 4.4 0 0 1 6-4s12.7 4.9 36 12a4.5 4.5 0 0 1 3.2 4.3l.7 63.6v.6c-2.3 141.9-7 486.2 1.3 618.5 5.8 97.4 20.4 194.2 43.8 289a1275.6 1275.6 0 0 0 69 204.2c41.4 93.7 72.2 151.8 86.6 163.5 20.2 16.3 130.6 61 308 61 166.6 0 289.7-43.5 313.2-61.7 14.5-11.4 42.7-64.6 86-162.8a1273 1273 0 0 0 69-204.3 1611 1611 0 0 0 43.8-289c8.4-133.4 3.6-480.7 1.2-623.9l.7-59.5a4.4 4.4 0 0 1 3.2-4.2c23.5-6.8 36-11.3 36.2-11.4a4.4 4.4 0 0 1 5.9 4.1c0 5.2 10.8 525.7 0 698-14.8 237.2-72.6 409.8-118.4 512.8-49.8 111.9-96.8 168.5-97.3 169-.4.4-.9.8-1.5 1-1.4.8-143.7 67.4-342 67.4Zm-332.7-74.8c10.7 5.5 133.2 66 332.7 66 188.1 0 325-60.5 337.3-66.1 5.7-7 49.3-62.5 95.5-166.4 45.5-102.4 102.8-273.8 117.5-509.5 10.1-161.8 1.3-632 0-691.1a802 802 0 0 1-27.7 8.6l-.7 56.1c2.5 143.2 7.2 490.8-1.2 624.6-5.8 98-20.5 195.2-44 290.5a1287.7 1287.7 0 0 1-69.6 205.7c-44.5 101-72.7 153.7-88.7 166.3-29.2 22.8-160.7 63.6-318.5 63.6-166.5 0-286.3-41-313.5-63-20-16.2-59.4-99.7-89-166.9-29-66.4-52.4-135.3-69.7-205.6a1616 1616 0 0 1-44-290.6c-8.4-132.5-3.7-476.3-1.3-618.6v-.4l-.7-61a663 663 0 0 1-27.6-9.1c-1.2 59.7-10 529.3 0 691 14.8 235.7 72 407.1 117.5 509.4 46.6 104.3 90.4 159.9 95.7 166.5Z"/><path fill="#431426" d="M1446.2 2154.5c-210.2 0-336.4-66.7-337.6-67.4-.5-.3-1-.6-1.3-1-.5-.6-47.5-57.1-97.2-169-45.9-103-103.6-275.6-118.5-512.9-10.8-172.2 0-692.7 0-697.9a4.5 4.5 0 0 1 6-4c2.2.8 217.2 83.3 550.8 79.5 337.9-3.7 549-78.8 551-79.6a4.5 4.5 0 0 1 4 .5 4.5 4.5 0 0 1 2 3.6c0 5.2 10.7 525.7 0 698-14.8 237.2-72.6 409.8-118.5 512.9-49.7 111.8-96.7 168.4-97.2 168.9l-1.5 1.1c-1.4.7-143.7 67.3-342 67.3Zm-332.7-74.8c10.7 5.5 133.2 66 332.7 66 188.1 0 325-60.5 337.3-66.1 5.6-7 49.3-62.5 95.5-166.4 45.5-102.4 102.8-273.8 117.5-509.5 10.1-161.8 1.3-632.1 0-691.2-36.3 12.1-239.9 74.8-548 78.2-304.7 3.3-511.3-64.8-548.3-78-1.2 59.6-10 529.3 0 691 14.8 235.7 72 407.1 117.5 509.5 46.6 104.3 90.5 159.9 95.8 166.5Z"/><path fill="#431426" d="M1702.3 1926.3a4.4 4.4 0 0 1-4.3-5.4c.1-.5.4-1 .7-1.6l53-76a4.5 4.5 0 0 1 6.1-1 4.6 4.6 0 0 1 1.9 2.8v1.8c-.2.5-.4 1-.8 1.5l-53 76a4.5 4.5 0 0 1-3.6 1.9ZM1707 1976a4.5 4.5 0 0 1-4-2.4c-.3-.7-.5-1.5-.5-2.3 0-.8.4-1.6.8-2.3l43.8-62a4.4 4.4 0 1 1 7.2 5l-43.7 62.3a4.4 4.4 0 0 1-3.6 1.7ZM980 1283.6a4.4 4.4 0 0 1-3.2-7.3l45.3-51a4.3 4.3 0 0 1 3-1.5 4.5 4.5 0 0 1 3.3 1 4.5 4.5 0 0 1 1.4 3.1c0 .6 0 1.2-.2 1.8l-.9 1.5-45.3 51c-.4.4-1 .8-1.5 1-.6.3-1.2.4-1.8.4ZM984.3 1326.8a4.4 4.4 0 0 1-3.3-7.3l43.4-50.5a4.5 4.5 0 1 1 6.7 6l-43.4 50.4a4.5 4.5 0 0 1-3.4 1.4Z"/><path fill="#FFFAF4" d="M2039 689.3s43.1 65.2 0 84.7c-43 19.6-93.8-36.5-93.8-36.5s-10.5 65.2-52.2 64c-41.7-1.4-47-41.7-47-41.7s-48.2 125.2-104.3 113.5c-56-11.7-66-61.3-66-61.3s-24.6 25-48.7 26c-16.7.7-34-19.2-40-30 0 0-51.3 70.5-94.5 51-43.2-19.6-44.2-47-44.2-47s-57.5 53.5-99.3 35.2c-41.7-18.3-30-53.5-30-53.5s-24.7 48.3-61.2 50.9c0 0 35.2 53.7 7.8 90.8-27.4 37-94 40.9-94 40.9s61.4 95.2-7.7 155.2c-69.2 60-148.7 32.7-148.7 32.7s0 65.7-45.7 64.1c-45.6-1.6-59.7-23.9-59.7-23.9s-96.5 28.9-123.9-40.3c-27.4-69.3 0-98.1 0-98.1s-139.5-6.3-126.5-122.4c13-116 75.7-84.8 75.7-84.8s-22.2-56.1 39.1-73c0 0-60-100.5-10.4-160.4a130.9 130.9 0 0 1 118.6-47S866.8 410.2 1018.1 392c151.3-18.2 173.4 44.3 173.4 44.3s23.5-56.1 58.7-62.6a87 87 0 0 1 61.3 11.8s47-93.9 147.4-75.6c100.4 18.3 110.8 67.8 110.8 67.8s121.3-86 193-26c71.8 60 34 89.9 34 89.9s84.7-36.5 144.8 34c60 70.3 23.2 83.4 23.2 83.4s96.5-2.6 104.3 75.6c5.5 54.4-30 54.8-30 54.8Z"/><path fill="#431426" d="M971.3 1232.6h-1.8c-38.4-1.3-56-16.8-61.5-23.2-16.8 4.2-100.4 21.5-126.3-43.7-21-53-10.8-83.4-3.8-96-19.5-2.1-71-11-101.2-46.5-18-21.2-25.4-48.1-21.8-80.1 5.2-46.1 18.7-75.4 40.3-87.2 10.2-5.4 22-6.8 33.1-4a61.7 61.7 0 0 1 3.8-40.5 58 58 0 0 1 35.5-28.2c-11.6-21.4-52.5-106-7.3-160.7a136.6 136.6 0 0 1 117.3-49.1c-1-28 3-56 11.6-82.8 14.1-41.6 47.8-93.3 128.3-103 121.1-14.7 161.6 21.9 173.6 39 8.2-16.2 29-51.9 58.2-57.3 20.7-3.7 42-.2 60.5 10 10.9-18.4 59.8-90.2 149.8-73.9 82.7 15 106.1 51 112.3 65.3 23.8-15.7 127.4-78 193.6-22.6 30.4 25.5 45.7 49 45.4 70.2 0 5.1-1.1 10.1-3.1 14.8 26.9-7.2 89.6-16 136.8 39.4 27.6 32.5 39.3 57.7 34.6 75.2-.7 2.5-1.8 5-3.2 7.2 26.6 2.3 91 14.4 97.5 79.2 2.1 21.5-1.6 37.7-11 48.2-4.4 4.9-10 8.4-16.3 10.2 7 12 21.2 40.8 14.8 63.1a34.6 34.6 0 0 1-20.2 22.5c-37 16.8-78-17.2-93-31.6-4.5 18.1-18.5 59.4-53.6 59.4h-1.4a50.5 50.5 0 0 1-47.5-33c-13 29.8-50.8 105.5-96.1 105.5a41 41 0 0 1-8.4-.9 89.2 89.2 0 0 1-67.3-57.5c-9 7.7-27.5 21.6-46.4 22.4-17.2.7-32.9-16.1-40.5-26.8-11.1 14-44.3 51.1-78 51.1-6.1 0-12.2-1.3-17.8-3.8-31.2-14.2-41.6-32.5-45-42.8-13.1 10.8-46 35.3-77.6 35.3-7.2 0-14.3-1.4-20.9-4.2-24.7-10.9-32.1-27.6-33.7-40.4-9.8 13.7-26.8 32.5-48.6 37.1 8.6 15.5 28 58 4.2 90-23.2 31.4-71.9 40-90.2 42 12.3 22.6 48.7 102-12.2 154.9-59.6 51.7-127.6 40-147.3 35-.9 11.5-4.5 36.9-19.8 51.7a39.5 39.5 0 0 1-28.4 11Zm-61.5-32.5c.8 0 1.5.2 2.2.5.6.4 1.2.9 1.6 1.5 0 .2 14 20.3 56.4 21.8a31 31 0 0 0 23.6-8.7c17.1-16.4 17.4-50.7 17.4-51 0-.7.1-1.4.5-2a4.5 4.5 0 0 1 5.3-2.2c.8.3 78 25.7 144.4-31.8 65.4-56.8 7.6-148.6 7-149.5a4.4 4.4 0 0 1 3.4-6.8c.7 0 64.8-4.3 90.6-39.2 25.2-34-7.6-85.2-8-85.7-.4-.6-.6-1.4-.7-2.1a4.4 4.4 0 0 1 2-4c.6-.4 1.4-.7 2.1-.7 33.7-2.4 57.5-48 57.7-48.5a4.5 4.5 0 0 1 5.6-2 4.4 4.4 0 0 1 2.5 5.4c-.4 1.3-9.8 31.7 27.6 48 38.6 16.9 94-33.8 94.6-34.4a4.5 4.5 0 0 1 4.7-.8 4.4 4.4 0 0 1 2.7 3.9c0 1 2 25 41.6 43 39.7 18.1 88.5-48.7 89-49.4a4.3 4.3 0 0 1 3.8-1.8 4.4 4.4 0 0 1 3.6 2.3c6.5 11.5 22.3 28.3 36 27.7 22-.9 45.4-24.5 45.7-24.7a4.5 4.5 0 0 1 6.4.1c.5.6.9 1.3 1 2.1a78.8 78.8 0 0 0 62.7 57.8c51.7 10.9 98.8-109.5 99.3-110.7a4.4 4.4 0 0 1 7.2-1.6c.7.7 1.2 1.7 1.3 2.6.2 1.5 5.3 36.8 42.7 38 37.3 1 47.5-59.7 47.6-60.2a4.4 4.4 0 0 1 3.1-3.8 4.4 4.4 0 0 1 4.5 1.3c.5.5 49.2 53.5 88.7 35.5a25.8 25.8 0 0 0 15.2-16.9c7-24.4-16.8-61-17-61.4a4.4 4.4 0 0 1 1.3-6.3c.7-.4 1.5-.6 2.3-.6a25 25 0 0 0 17-8.6c7.6-8.6 10.5-22.5 8.6-41.4-7.3-73.3-98.9-71.7-99.8-71.7a4.4 4.4 0 0 1-1.6-8.6 13.7 13.7 0 0 0 7.4-9.5c2.1-8.2.6-27.7-32.8-66.9-57-67-136.2-34-139.5-32.6a4.4 4.4 0 0 1-4.5-7.5 26.5 26.5 0 0 0 8.2-20c0-12.6-7.2-33.8-42.2-63.1-68.3-57-186.5 25.5-187.6 26.3a4.5 4.5 0 0 1-7-2.7c0-.4-11.5-47-107.3-64.4-95.7-17.4-142.1 72.4-142.6 73.3a4.4 4.4 0 0 1-4.7 2.4c-.7-.1-1.3-.4-1.8-.7a83.2 83.2 0 0 0-58-11c-32.4 5.8-55 59.4-55.3 59.9a4.6 4.6 0 0 1-4.3 2.7 4.5 4.5 0 0 1-4-3c-.2-.5-23.6-58.9-168.7-41.3-60.8 7.3-101.5 39.9-120.8 96.8a230 230 0 0 0-11 84.9 4.5 4.5 0 0 1-3.2 4.6c-.6.2-1.3.3-2 .1-.7 0-67.2-11.8-114.4 45.4-47.3 57.3 10.2 154.4 10.8 155.4a4.4 4.4 0 0 1-2.7 6.5C758 795 746 803.4 740 815.4c-9.6 19.4-1 41.6-1 41.8a4.5 4.5 0 0 1-1 5 4.4 4.4 0 0 1-5 .6 38.6 38.6 0 0 0-33.7 1c-18.5 10.2-30.8 38-35.6 80.3-3.3 29.6 3.3 54.1 19.7 73.3 34.6 40.6 102 44.2 102.6 44.4.8 0 1.6.3 2.3.8a4.4 4.4 0 0 1 .7 6.7c-.3.2-25 28 .9 93.3 25.5 64.7 117.5 38 118.5 37.7l1.4-.2Z"/><path fill="#431426" d="M955.3 576.3a4.4 4.4 0 0 1-4.4-3.9c-.2-1.7-4.7-41.6 21.5-67.3 17.7-17.4 45.2-23.6 81.4-18.5a4.5 4.5 0 0 1 3.7 3.4c.1.5.2 1.1 0 1.7a4.4 4.4 0 0 1-3.2 3.7c-.6.2-1.2.2-1.8.1-33.3-4.7-58.2.7-73.8 16-23.1 22.7-19 59.6-18.9 60a4.4 4.4 0 0 1-3.8 4.9h-.7ZM825 972.4c-.7 0-1.3-.2-1.9-.4-27.4-12.2-42.1-27-43.7-44.1-2.4-26.3 27.4-47.1 28.7-48a4.4 4.4 0 0 1 5 7.3c-.3.2-26.8 18.8-24.9 39.9 1.3 13.7 14.3 26 38.5 36.8a4.4 4.4 0 0 1-1.8 8.5ZM952.5 1062.5c-15.6 0-35.4-6-40.6-28.2a44.4 44.4 0 0 1 6-36.7c15.8-22.6 51-27 52.4-27.1a4.5 4.5 0 0 1 5 3.9 4.5 4.5 0 0 1-4 5c-.2 0-32.7 4-46.3 23.4a35.5 35.5 0 0 0-4.6 29.5c6.3 27.1 40.3 20.7 41.8 20.4a4.4 4.4 0 0 1 3.3.6 4.3 4.3 0 0 1 1.9 2.9 4.4 4.4 0 0 1-3.5 5.2c-3.7.7-7.5 1-11.4 1ZM1130 938.1c-20.2 0-36.3-16.8-37-17.7-.8-.8-1.2-2-1.2-3.1a4.4 4.4 0 0 1 7.6-3c0 .2 15.2 15.7 32 14.8 9-.4 16.8-5.3 23.9-14.4 18-23.7 1.3-39 .5-39.7a4.5 4.5 0 0 1 6-6.6c.2.2 23.8 21.4.5 51.7-8.6 11.3-18.9 17.3-30.4 17.9l-1.8.1ZM1197.9 635a4.4 4.4 0 0 1-3.4-1.6c-.7-.9-17.6-21.5-14.6-42a33.1 33.1 0 0 1 15.5-23.2c34.2-22.8 59.1 5.8 59.3 6a4.5 4.5 0 0 1-.4 6.2 4.4 4.4 0 0 1-3.3 1c-1.1 0-2.2-.6-3-1.5-.8-1-20.1-22.8-47.6-4.4a24.2 24.2 0 0 0-11.7 17c-2.5 16.6 12.5 35 12.6 35.2a4.4 4.4 0 0 1 .6 4.7 4.4 4.4 0 0 1-4 2.5v.1ZM964.5 749.8a4.4 4.4 0 0 1-4.1-2.8c-.4-1-9.6-23.6-.5-40.7 4.4-8.4 12.3-13.8 23.6-16.2 16.5-3.4 29.2-2.2 37.6 3.5 4.4 2.7 7.5 7 8.7 12a4.5 4.5 0 0 1-8.9 1.6c0-.6-3.6-15-35.7-8.4-8.6 1.8-14.4 5.6-17.5 11.6-7.1 13.3.8 33 .8 33.3a4.5 4.5 0 0 1-2.4 5.9l-1.6.2ZM1516.1 448.5l-1.1-.1a4.4 4.4 0 0 1-3.2-5.5 31 31 0 0 0-3.3-22c-4.5-7.1-12.8-11.8-24.5-14.2-36.6-7-58.8 38.8-59.1 39.3a4.4 4.4 0 0 1-8-3.8c1-2.1 25.4-52.6 68.7-44.3 14.3 2.8 24.6 8.9 30.4 18.3 5.1 8.8 6.7 19.1 4.4 29a4.4 4.4 0 0 1-4.3 3.3ZM1786 657.2a4.4 4.4 0 0 1-3-7.5c.5-.4 38.2-40 22.8-70.6-8.1-16.3-17.7-25.4-28.8-26.9-17.2-2.4-32.9 14.4-33 14.6a4.4 4.4 0 0 1-6.6-6c.8-.8 18.9-20.4 40.8-17.3 14 2 26 12.6 35.4 31.7 18.2 36.3-22.5 78.9-24.2 80.7a4.4 4.4 0 0 1-3.3 1.3ZM1966.2 701.7c-2 0-4.2-.4-6.2-1-11.4-3.8-16.2-17.2-16.4-17.8a4.4 4.4 0 1 1 8.4-3s3.6 10 10.9 12.4c3.9 1.3 8.5.2 13.7-3.3a15.8 15.8 0 0 0 7.8-11.3c1.1-8.9-6-18.9-8.6-22a4.4 4.4 0 0 1 6.6-6c.5.7 12.6 14.5 10.8 29.1a24.5 24.5 0 0 1-11.7 17.5 27.6 27.6 0 0 1-15.3 5.4ZM1540.4 732.9h-1.4c-23.3-.8-43.5-22.5-44.3-23.5a4.4 4.4 0 0 1-1.1-5 4.4 4.4 0 0 1 7.6-.9c.2.2 18.7 20 38.3 20.7a27.7 27.7 0 0 0 20.7-8.3c8.4-7.8 15.6-16.9 21.2-27 5-8.4 8.5-14.5 21.9-11.6a101 101 0 0 1 21.5 9.1c11.8 6 26.3 13.3 33.8 10.4a8.3 8.3 0 0 0 4.8-5.5c8-21 1-30 .8-30.3-.8-.9-1.1-2-1-3.2 0-1.2.6-2.3 1.5-3a4.4 4.4 0 0 1 6.2.4c.4.5 10.7 12.8.8 39.2a17.2 17.2 0 0 1-10 10.7c-11 4.3-26.3-3.3-41-10.8a99.3 99.3 0 0 0-19.3-8.3c-7-1.6-7.6-.7-12.3 7.5-6 10.7-13.8 20.5-22.8 28.9a36.5 36.5 0 0 1-26 10.5ZM1504.4 576.3a4.4 4.4 0 0 1-4.5-4.4c0-.2-.5-6.8-12-13a5.5 5.5 0 0 0-5.2-.7c-5 2.2-8.6 11.7-9.5 14.8a4.4 4.4 0 0 1-5.4 3 4.4 4.4 0 0 1-3.1-5.3c.4-1.7 4.7-16.5 14.5-20.7a14.3 14.3 0 0 1 13 1c16.2 8.8 16.6 19.6 16.6 20.8 0 .6 0 1.2-.3 1.7a4.3 4.3 0 0 1-2.4 2.5c-.5.2-1.1.3-1.7.3Z"/><path fill="#431426" d="M1544.5 1955.3h-.7c-.6 0-1.1-.3-1.6-.5a4.4 4.4 0 0 1-2-4.5c42-263.3 15-1011.7 14.7-1019.2 0-.6 0-1.2.3-1.7a4.5 4.5 0 0 1 2.3-2.5 4.4 4.4 0 0 1 6.3 3.9c.2 7.5 27.3 756.8-14.8 1020.9a4.5 4.5 0 0 1-4.5 3.6ZM1326 1955.3a4.4 4.4 0 0 1-4.4-3.6c-42.9-245-15.1-1013.3-14.8-1021a4.5 4.5 0 0 1 4.6-4.3 4.5 4.5 0 0 1 3.1 1.4 4.5 4.5 0 0 1 1.2 3.2c-.3 7.7-28 775 14.8 1019.1a4.4 4.4 0 0 1-4.5 5.2ZM1140.8 1926.3a4.4 4.4 0 0 1-4.2-3c-87-239-65.6-730.1-65.4-737.8a4.5 4.5 0 0 1 4.6-4.3 4.5 4.5 0 0 1 4.3 4.6c-.2 7.5-21.5 496.9 64.9 734.4a4.4 4.4 0 0 1-2.7 5.7l-1.5.4ZM1750.7 1913.9c-.6 0-1.1-.2-1.6-.4a4.4 4.4 0 0 1-2.5-2.3c-.2-.5-.3-1.1-.3-1.7 0-.6 0-1.2.3-1.7 89.4-225.1 63-973.6 62.7-981.3 0-.5 0-1.1.3-1.7a4.5 4.5 0 0 1 2.3-2.5 4.4 4.4 0 0 1 6.3 4c.2 7.4 26.7 758-63.4 984.8a4.5 4.5 0 0 1-4.1 2.8Z" opacity=".1"/><path fill="#FFFAF4" d="M1641 2033.8a28.8 28.8 0 1 1 0-57.5 28.8 28.8 0 0 1 0 57.5Zm0-48.7a19.9 19.9 0 1 0 0 39.7 19.9 19.9 0 0 0 0-39.7ZM1367.6 1809.3a20.3 20.3 0 1 1 0-40.6 20.3 20.3 0 0 1 0 40.6Zm0-31.7a11.3 11.3 0 0 0-10.6 7 11.4 11.4 0 1 0 10.6-7ZM1728.8 1386.9a20.3 20.3 0 1 1 0-40.7 20.3 20.3 0 0 1 0 40.7Zm0-31.7a11.3 11.3 0 0 0-10.6 7 11.3 11.3 0 0 0 2.5 12.5 11.4 11.4 0 1 0 8.1-19.5ZM1179.9 1593a25.5 25.5 0 1 1 0-51 25.5 25.5 0 0 1 0 51Zm0-42.2a16.7 16.7 0 0 0-16.4 20 16.7 16.7 0 1 0 16.4-20ZM1211.8 1997.6a15.2 15.2 0 1 1 0-30.5 15.2 15.2 0 0 1 0 30.5Zm0-21.6a6.4 6.4 0 1 0 0 12.8 6.4 6.4 0 0 0 0-12.8ZM1650 1212a15.2 15.2 0 0 1-3-30.3 15.3 15.3 0 1 1 3 30.2Zm0-21.7a6.4 6.4 0 1 0 6.4 6.4 6.4 6.4 0 0 0-6.3-6.3v-.1ZM1877.2 995.2a15.9 15.9 0 1 1 0-31.8 15.9 15.9 0 0 1 0 31.8Zm0-22.8a7 7 0 1 0 0 13.9 7 7 0 0 0 0-14ZM1657.8 928.2a22.4 22.4 0 1 1 0-44.7 22.4 22.4 0 0 1 0 44.7Zm0-35.8a13.5 13.5 0 1 0 0 27 13.5 13.5 0 0 0 0-27ZM1878.8 1243.3a25.5 25.5 0 1 1 0-51 25.5 25.5 0 0 1 0 51Zm0-42a16.6 16.6 0 1 0 0 33.1 16.6 16.6 0 0 0 0-33.2ZM1404.5 1014.5a25.6 25.6 0 1 1 0-51.1 25.6 25.6 0 0 1 0 51.1Zm0-42.1a16.6 16.6 0 1 0 0 33.2 16.6 16.6 0 0 0 0-33.2ZM1441.9 2078.4a18.9 18.9 0 1 1 0-37.7 18.9 18.9 0 0 1 0 37.7Zm0-28.9a10 10 0 0 0-7.1 17.1 10 10 0 1 0 7-17ZM1456.5 1623a25.5 25.5 0 1 1-.1-50.9 25.5 25.5 0 0 1 0 51Zm0-42a16.6 16.6 0 0 0-16.4 19.8 16.6 16.6 0 1 0 16.4-19.9Z" opacity=".3"/><path fill="#431426" d="M1741.2 2037.6a5 5 0 1 0 0-10 5 5 0 0 0 0 10ZM1621.7 2042.6a5 5 0 1 0 0-10 5 5 0 0 0 0 10ZM1707.3 2074a5 5 0 1 0 0-10 5 5 0 0 0 0 10ZM1814 1950.4a5 5 0 1 0 0-9.9 5 5 0 0 0 0 10ZM1963.3 1762a3.5 3.5 0 1 0 0-7 3.5 3.5 0 0 0 0 7ZM1993.8 1721.2a3.8 3.8 0 1 0 0-7.6 3.8 3.8 0 0 0 0 7.6ZM2000.8 1773.7a5 5 0 1 0 0-10 5 5 0 0 0 0 10ZM1342.4 886.3a5 5 0 1 0 0-10 5 5 0 0 0 0 10ZM1314 846.3a5 5 0 1 0 0-10 5 5 0 0 0 0 10Z"/><path fill="#431426" d="M1199.5 902.7a5 5 0 1 0 0-10 5 5 0 0 0 0 10ZM1744.3 630.7a5 5 0 1 0 0-9.9 5 5 0 0 0 0 10ZM1415.6 537a5 5 0 1 0 0-9.9 5 5 0 0 0 0 10ZM1037.2 721.7a5 5 0 1 0 0-10 5 5 0 0 0 0 10ZM850.3 914a5 5 0 1 0 0-9.9 5 5 0 0 0 0 10ZM906.3 1097.3a5 5 0 1 0 0-10 5 5 0 0 0 0 10ZM1109 869.5a5 5 0 1 0 0-10 5 5 0 0 0 0 10ZM1256.9 756.2a5 5 0 1 0 0-9.9 5 5 0 0 0 0 10ZM1401 605.3a5 5 0 1 0 0-10 5 5 0 0 0 0 10ZM1621.6 502a5 5 0 1 0 0-9.9 5 5 0 0 0 0 10ZM1806.7 533.4a5 5 0 1 0 0-10 5 5 0 0 0 0 10ZM1873.5 665.3a5 5 0 1 0 0-10 5 5 0 0 0 0 10ZM1751.6 706.7a5 5 0 1 0 0-10 5 5 0 0 0 0 10ZM1544.7 770.8a5 5 0 1 0 0-10 5 5 0 0 0 0 10Z" opacity=".1"/><path fill="#9CC" d="M1127.8 1315c-6.3-7.1-90.8 5-149 83.7-58 78.8-131.4 323.1-131.4 323.1S672.2 1843 674 1850.1c1.8 7.1 123-34.5 136.2-24.8 13.3 9.8 17.8 115 26.6 113.3 8.9-1.8 16.9-195.8 25.2-202 8.4-6.2 227.5-177.3 264-272 36.3-94.8 8.9-141.7 1.8-149.7Z"/><path fill="#431426" d="M836.5 1943a6 6 0 0 1-3.3-1c-4.8-3.4-6.9-15.6-11.7-49.7-3.1-22.1-8.3-59.3-13.9-63.4-6.6-4.1-55.6 8.7-82 15.6-38.9 10.1-49.2 12.4-53.5 9.9a5 5 0 0 1-2.4-3.2c-1-4.1-1.9-7.4 87.7-71.5 39-27.9 78.6-55.4 86.2-60.6 6.8-22.4 75.5-246.9 131.7-323 50.6-68.6 119.6-86.3 141.8-87.3 9.6-.4 12.6 1.6 14 3.2.3.4 40 46.8-1.2 154.1-36.8 96.1-253 264.6-264.9 273.7-3.3 6.9-7.4 56.2-10.8 96-8 96.5-10.2 105.8-16.6 107.1a6 6 0 0 1-1 .1Zm-34-123.6c3.6-.3 7.2.5 10.4 2.4 8 5.9 11.8 30.1 17.4 69.3 1.7 11.8 3.8 26.8 5.9 36 3.2-18.1 6.7-59.9 9.4-92 6.8-81.4 9.1-98.5 13.9-102 2.2-1.7 226.1-175.6 262.3-270.1 32.3-84.3 13.4-132.8 3-144.8-8-3.3-85.7 6.7-142.3 83.2-57 77.3-130 319.4-130.8 321.8-.3 1-1 1.8-1.8 2.3-55.7 38.6-141.6 99.6-165.6 120a658 658 0 0 0 39.2-9.6c41.2-10.8 65.7-16.5 79-16.5Z"/><path fill="#431426" d="M1097.5 1477.3c-6 0-11.8-1.3-17.2-3.9-19-9-26.6-31.6-29.2-41.2-20.9 3.3-36-.3-45.3-10.6-16.6-18.5-6.8-51.1-6.4-52.5a4.4 4.4 0 1 1 8.4 2.6c0 .3-8.6 29.2 4.6 44 7.6 8.5 21.5 10.9 41.4 7.1a4.4 4.4 0 0 1 3.3.7c.5.3.9.8 1.2 1.3.3.5.5 1 .6 1.7 0 .3 5.7 29.5 25.4 39 10.7 5.2 24 3.6 39.6-4.7a4.5 4.5 0 0 1 6.6 3.4 4.6 4.6 0 0 1-1 3.3 65.1 65.1 0 0 1-32 9.8ZM1066.8 1382a15.4 15.4 0 0 1-15-18.4 15.3 15.3 0 1 1 15 18.4Zm0-22a6.6 6.6 0 0 0-6 4.1 6.5 6.5 0 1 0 6-4ZM1110.5 1353.4c-.9 0-1.8-.3-2.5-.8a4.5 4.5 0 0 1-1.9-4.6c.2-.9.7-1.7 1.3-2.3a50.8 50.8 0 0 0 16.4-32.7 4.4 4.4 0 0 1 2.5-2.3 4.5 4.5 0 0 1 3.4.2 4.4 4.4 0 0 1 2.3 2.4c.2.6.3 1.2.2 1.8a58.4 58.4 0 0 1-20 38c-.6.2-1.1.3-1.7.3Z"/><path fill="#FFFAF4" d="M827.6 1572.4s16.8-11 32.7-13.3c16-2.2 26 0 42.2-9.2 5-2.8 14.5-12.9 39.5-33 33.3-26.6 63.8 10 26.6 40.6-27 22-36.4 24.2-31.7 33.1 4.8 9 31.1 55.4 31.1 55.4l26.6-21.7s27.7 77.7-4.3 93.3c0 0 10.5 46.2-35 41.1 0 0 3.1 43.5-50.8 24 0 0-17.7 50.3-72.1-2-54.4-52.4-75.8-95.4-67.4-130 0 0-25.7 5.8-28.6-13-5.2-33.2 28-25.4 38.8-40.5 11.3-15.5 17.5-46.3 36.2-44.3a16.7 16.7 0 0 1 16.2 19.5Z"/><path fill="#431426" d="M876.1 1808.8c-13.7 0-29.5-8.4-46.7-25.1-52-50.3-75-92.3-69.9-128.2-6.7.8-13.5-.6-19.4-4a18.8 18.8 0 0 1-8-13.6c-3.9-27.1 12.5-32.1 24.5-35.8 6.2-1.8 12.1-3.6 15.1-7.8a107 107 0 0 0 8.9-16.4c7-14.8 15.1-31.4 31.3-29.5a22 22 0 0 1 15.8 8 21 21 0 0 1 3.8 8.4 88.5 88.5 0 0 1 40.1-11.3c9.8-.7 17.6-1.3 28.6-7.5 4.7-2.6 15.5-11.8 38.8-32.5 11.3-10.1 23.9-13.8 34.5-10a24.6 24.6 0 0 1 16 19.5c2.2 13-4.4 26.8-18.3 37.8-6.9 5.5-12.7 9.8-17.3 13.3-14.5 10.7-14.8 11.6-13.2 14.3 3.7 7.1 21.7 38.8 28.4 50.8l22.7-18.5a4.6 4.6 0 0 1 4-.8c.7.2 1.3.6 1.8 1 .5.5.9 1.1 1.1 1.8 1.2 3.2 27 77-3.5 97.1 1 6.9 1.9 23-7.7 33.8-6.3 7-15.6 10.3-28 9.8a31.9 31.9 0 0 1-11.4 22.9c-9.3 7-23.2 7.7-41.3 1.9A37 37 0 0 1 883 1808a32 32 0 0 1-7 .8Zm-111-162.9a4.5 4.5 0 0 1 4.3 5.5c-8 33.4 14.2 75.7 66.1 126 17.8 17.2 33.7 24.8 46 22 13.3-3 18.9-18.1 19-18.3a4.4 4.4 0 0 1 5.6-2.6c16.7 5.9 29.4 6.3 36.7.7 8.9-6.7 8.1-20.2 8.1-20.3a4.4 4.4 0 0 1 5-4.7c11.6 1.3 20-1 25-6.5 9.3-10.3 5.2-29 5.2-29.3a4.4 4.4 0 0 1 2.3-5c21.3-10.3 11.5-58 4.1-81.8l-21.7 17.8a4.3 4.3 0 0 1-3.6.9 4.5 4.5 0 0 1-3-2.2c-1-1.9-26.4-46.6-31.1-55.5-5.4-10 1.7-15.2 15.7-25.6 4.6-3.4 10.3-7.7 17.1-13.1 11.1-8.9 16.7-19.7 15.1-29.4a15.8 15.8 0 0 0-10.2-12.6c-7.5-2.7-16.9.4-25.7 8.3-24.4 21.7-35 30.5-40.3 33.5a67.2 67.2 0 0 1-32.3 8.6c-3.7.3-7.3.5-11.5 1.1a90.4 90.4 0 0 0-31 12.6 4.4 4.4 0 0 1-6.7-4.3c.4-3.5-.5-7-2.5-10a13.6 13.6 0 0 0-9.7-4.5c-9.2-1-14.7 9.1-22.3 24.7-2.8 6.2-6 12.1-9.8 17.7-4.8 6.6-12.4 8.9-19.7 11.1-12.3 3.8-21.2 6.4-18.4 26a10.2 10.2 0 0 0 4.3 7.5c5.6 3.8 15.6 2.7 19 2 .2-.2.5-.2.8-.3Z"/><path fill="#431426" d="M810.2 1592.3a4.4 4.4 0 0 1-4.4-5c.1-.8.5-1.6 1-2.3 5.4-6.2 11.6-11.7 18.3-16.4a4.5 4.5 0 0 1 6.8 4.5 4.4 4.4 0 0 1-1.8 2.8c-6.1 4.3-11.6 9.3-16.5 14.8a4.3 4.3 0 0 1-3.4 1.6ZM972.6 1724.4c-16.2 0-39.7-5.5-59.6-31.8-.4-.5-.7-1-.9-1.6-.1-.6-.2-1.2-.1-1.8a4.4 4.4 0 0 1 8-2c30 39.8 68.5 26.2 68.8 26.1.6-.3 1.2-.4 1.8-.4a4.4 4.4 0 0 1 3.4 1.3 4.4 4.4 0 0 1 .7 5.2 4.5 4.5 0 0 1-2.9 2.2c-6.2 2-12.7 3-19.2 2.8ZM975.3 1662.6a4.4 4.4 0 0 1-3.8-2.1l-8.9-14.8a4.4 4.4 0 0 1 3.2-6.7 4.5 4.5 0 0 1 4.4 2.2l8.9 14.8a4.4 4.4 0 0 1-3.8 6.6ZM955 1763c-3.9 0-28.2-1.6-61.6-38.2a4.4 4.4 0 0 1-1.5-3.3 4.4 4.4 0 0 1 4.9-4.4 4.6 4.6 0 0 1 3.1 1.8c32.5 35.7 55 35.3 55.3 35.3a4.4 4.4 0 1 1 .4 8.9h-.5ZM904.6 1787c-.7 0-1.3 0-2-.4-14-7.6-26.4-17.8-36.6-30a4.4 4.4 0 1 1 6.7-5.8c9.5 11.3 21 20.7 33.9 27.9a4.4 4.4 0 0 1 .8 7.4c-.8.6-1.8 1-2.8 1ZM1508 1240.8c-8.4-27.7-14.3-51.2-.6-104.4 13.4-51.9 53.7-88.6 92.5-75.2 33.8 11.8 2.8 66.2 2.8 66.2l-42.8 17.1 28 18.8s-3.5 40.7-3.6 77.3c0 12.5-5.7 35.2-32.5 36.7-25 1.5-38.4-18.6-43.8-36.5ZM1663.1 1037.9a4.4 4.4 0 0 1-4.4-4 63 63 0 0 0-47.9-51.8 64.3 64.3 0 0 0-31.8-.9 4.4 4.4 0 0 1-1.8-8.7c11.9-2.7 24.3-2.3 36 1 49.8 14.4 54.3 59.1 54.4 59.6 0 .6 0 1.2-.2 1.7a4.4 4.4 0 0 1-3.9 3l-.4.1ZM1399.9 1276.1c-.8 0-1.4-.1-2-.4-1.2-.7-27.8-14.5-30.4-33.4-1-8 2.1-15.6 9.5-22.5 22.4-20.7 57.5 8.7 59.2 10a4.4 4.4 0 0 1 .5 6.2 4.4 4.4 0 0 1-6.3.5c-.3-.3-30.6-25.6-47.3-10.2-5.2 4.9-7.4 9.7-6.8 14.8 1.7 11.8 19 23.3 25.6 26.6a4.4 4.4 0 0 1 2 5.9c-.4.7-1 1.4-1.7 1.8-.7.5-1.5.7-2.3.7ZM1258.9 1233.4c-8.4-27.7-14.4-51.2-.7-104.4 13.5-51.9 53.8-88.6 92.5-75.2 33.8 11.8 2.8 66.2 2.8 66.2l-42.8 17.2 28 18.7s-3.5 40.7-3.7 77.3c0 12.5-5.6 35.2-32.5 36.7-24.8 1.5-38-18.6-43.6-36.5ZM1277.4 1014a4.4 4.4 0 0 1-4.4-4.2c0-.7.1-1.4.4-2.1 5-11.2 12.6-21 22.3-28.5a73 73 0 0 1 80.2-8.2 4.5 4.5 0 0 1 2 2.8 4.4 4.4 0 0 1-1.6 4.7 4.5 4.5 0 0 1-3.4.8 63 63 0 0 0-71.8 7 64.7 64.7 0 0 0-19.6 25 4.4 4.4 0 0 1-4 2.6ZM1209.8 1447.4a4.4 4.4 0 0 1-2.6-8 110.3 110.3 0 0 0 44.8-125.7 4.5 4.5 0 0 1 .2-3.4 4.4 4.4 0 0 1 2.5-2.2 4.3 4.3 0 0 1 3.4.2 4.4 4.4 0 0 1 2.2 2.5c.3.8 28 82.7-48 135.8-.8.5-1.6.8-2.5.8Z"/><path fill="#FFFAF4" d="M1258 1375.6s30.9 17.2 95.4-13 212-109.6 217.7 8.9c5.8 118.5-124.8 120.7-220 56.4-60.1-40.7-93.2-52.3-93.2-52.3Z"/><path fill="#431426" d="M1476.4 1474.3c-40 0-86.5-14.8-127.8-42.8a534.7 534.7 0 0 0-87.4-49.8c-1.9-.6-3.7-1.3-5.5-2.2-1-.6-1.7-1.4-2-2.5a4.4 4.4 0 0 1 5.7-5.6c.3 0 1.8.7 4.6 1.8 10 3 39 8.2 87.5-14.7l14.2-6.8c54.6-26 137.1-65.6 181.5-39.1 17.4 10.4 27 30 28.3 58.5 2.6 53.1-21.6 78.1-42.3 89.8-15.8 9-35.4 13.4-56.8 13.4Zm-187.9-89.4c22.4 11.8 44.2 25 65 39.3 60.8 41 133 53 175.3 29.1 26.6-15 39.7-43.2 37.8-81.7-1.2-25.2-9.3-42.5-24-51.3-40.3-24-123.4 15.8-173.1 39.6l-14.3 6.8a173.3 173.3 0 0 1-66.7 18.2Z"/><path fill="#431426" d="M1505.4 1471.6c-1 0-2.2-.4-3-1.1a4.5 4.5 0 0 1-1.4-3l-12.3-153.9a4.5 4.5 0 0 1 4-4.8c1.2 0 2.4.3 3.3 1 .9.8 1.4 2 1.5 3.1l12.4 154a4.4 4.4 0 0 1-2.4 4.3c-.6.2-1.1.4-1.7.4h-.4ZM1429 1466.8a4.4 4.4 0 0 1-4.4-4l-10.4-128.9a4.4 4.4 0 0 1 4.1-4.8 4.5 4.5 0 0 1 4.8 4.1l10.4 128.9a4.5 4.5 0 0 1-4.1 4.8h-.4ZM1354.4 1428.2c-1.2 0-2.2-.4-3-1.1a4.4 4.4 0 0 1-1.5-3l-4.4-55.6a4.5 4.5 0 0 1 4-4.8 4.4 4.4 0 0 1 3.3 1 4.5 4.5 0 0 1 1.5 3.1l4.5 55.6a4.4 4.4 0 0 1-2.4 4.3c-.5.3-1.1.4-1.7.5h-.3Z"/><path fill="#FFD073" d="M1929.5 1260s-9.8 8.8 15.2 49.8c28.5 47-140.4 74.6-152.7 8-4.7-26.1 25.6-25.2 20.7-54.6l116.8-3.2Z"/><path fill="#431426" d="M1865.1 1361.8c-10.1 0-20.2-1-30-3.1-27-6-43.8-20.3-47.4-40-2.7-15 4.6-22.7 11-29.5 6.5-6.8 11.9-12.4 9.7-25.3v-1.7a4.7 4.7 0 0 1 2-2.8 4.4 4.4 0 0 1 3.4-.6 4.5 4.5 0 0 1 3.4 3.7c3 17.3-5.3 25.9-11.8 32.8-5.9 6.3-10.7 11.2-8.9 21.7 3.8 20.7 24.2 29.3 40.6 33 37.6 8.5 89.9-2.3 103.4-21.2a13.9 13.9 0 0 0 .4-16.7c-24.9-41-17.3-52.8-14.3-55.4a4.4 4.4 0 0 1 6.1 0c.8.9 1.3 2 1.3 3.1 0 1.2-.4 2.3-1.2 3.1-.4.8-5 10.4 15.7 44.6a22.5 22.5 0 0 1-.8 26.6c-12 16.7-48 27.7-82.6 27.7Z"/><path fill="#FFEAB9" d="M1755.2 1598.7a22.2 22.2 0 0 1-10.2-41.9c162.7-84 105.3-255.7 102.8-263a22.2 22.2 0 0 1 41.8-14.8c12 38.5 16.4 79 12.8 119.1-5.6 61-33.9 144.8-137 198a22 22 0 0 1-10.2 2.6Z"/><path fill="#431426" d="M1755.2 1603.1a26.6 26.6 0 0 1-12.2-50.2c159.3-82.2 103-250.5 100.4-257.6a26.4 26.4 0 0 1 7.3-28.7 26.8 26.8 0 0 1 37.7 2c2.3 2.6 4.1 5.7 5.3 9a312 312 0 0 1 13 121c-5.6 62-34.5 147.3-139.4 201.4-3.8 2-7.9 3-12.1 3.1Zm113.5-334.3a17.7 17.7 0 0 0-16.8 23.5c2.5 7.5 61.1 182.8-105 268.4a17.5 17.5 0 0 0-9.5 17.3 17.6 17.6 0 0 0 12.3 15.4 17.6 17.6 0 0 0 13.5-1.2c101.4-52.3 129.2-134.5 134.7-194.4a302 302 0 0 0-12.6-117.2 17.7 17.7 0 0 0-16.6-11.8Z"/><path fill="#FFD073" d="M1828 1314c90-38.8 86.3.8 76.4 6.8l15.5-85.7-95.8 5 4 74Z"/><path fill="#431426" d="M1904.5 1325.3a4.5 4.5 0 0 1-4.3-3.3 4.4 4.4 0 0 1 2-5 8.3 8.3 0 0 0 2-9.7c-4.3-8-26.2-10-74.4 10.8a4.5 4.5 0 0 1-5.6-2.3 4.5 4.5 0 0 1 2-5.8c63.5-27.4 81-16 85.8-6.8a17 17 0 0 1-5.3 21.4c-.6.4-1.4.7-2.2.7Z"/><path fill="#FFFAF4" d="M1748.7 1526s-13.6-14.8-28.5-21c-14.9-6.3-25-6.5-38.6-19.4-4-4-17.4-11.6-15.5-43.7 2.6-45.3-60.7-11.5-50.3 34.6 7.7 34 29.3 32.5 22.5 40l-19.5 21.6s-13-25.7-44.8-3.3c-31.9 22.4-46.1 68.4-19 91.6 0 0-21.6 42 23.6 48.5 0 0-13.8 41.4 43.2 35.9 0 0 4.8 53.2 70.4 15.8 65.6-37.3 97.1-73.6 97.5-109.3 0 0 19.8 10.2 31-5.5 10.8-15.2-20.7-31.5-27.6-48.8-7.1-17.7-5.5-49.2-24.1-51.8a16.8 16.8 0 0 0-20.3 14.8Z"/><path fill="#431426" d="M1652.4 1744.2a35 35 0 0 1-16.4-3.8 36.7 36.7 0 0 1-17.7-25c-19 1.1-32.3-3-39.5-12a32 32 0 0 1-5.4-25.1c-12-2.6-20.3-8.1-24.7-16.5-6.5-12.7-1.7-28 1-34.4a46 46 0 0 1-13.4-36.1 81.8 81.8 0 0 1 35-60.1c12.2-8.6 23.4-11.7 33.4-9.2a28.5 28.5 0 0 1 14.5 8.9l15.3-17c-.5-.6-1.3-1.2-2-1.7-5.6-4.6-16.2-13.1-21-34.9a53.3 53.3 0 0 1 20-53.4c10.2-7.8 21.3-10 29-6 5 2.7 10.8 9 10 24.1-1.5 26.6 7.6 34.5 12.5 38.7l1.7 1.5c9.2 9 16.5 11.3 25.9 14.4 3.5 1.2 7.2 2.4 11.3 4.1a88.4 88.4 0 0 1 24.8 16.9c1.3-2.8 3.3-5.3 5.7-7.3a22.1 22.1 0 0 1 17.3-3.8c16 2.3 19.7 20.5 23 36.5 1 6.1 2.5 12.2 4.6 18 2.3 6 8.3 12 14 18 10.3 10.7 22 22.7 13.1 35-8.4 11.9-21.4 11.9-30.5 9.3-3.8 36-36.5 71-99.4 106.9-16.3 9.4-30.3 14-42 14Zm-30.5-38a4.5 4.5 0 0 1 4.5 4c0 .2 1.6 16 13.9 22.4 11 5.8 28.3 2.3 49.9-10 62.7-35.7 94.8-71.2 95.3-105.5a4.5 4.5 0 0 1 6.5-3.9c.7.3 16.5 8.2 25.3-4.1 4.2-6-1.8-13-12.2-23.7a71.1 71.1 0 0 1-16-20.9c-2.2-6.3-4-13-5-19.6-3.4-17-6.4-28.1-15.6-29.5a13.7 13.7 0 0 0-10.5 2 15 15 0 0 0-4.8 8.9 4.4 4.4 0 0 1-7.7 2.5s-13-14.2-26.8-19.9c-3.8-1.5-7.4-2.7-10.8-3.9-9.5-3.2-18.6-6.2-29.2-16.4l-1.3-1.1c-5.6-4.9-17.4-14.8-15.6-46 .5-8.1-1.4-13.7-5.3-15.7-4.6-2.5-12.2-.5-19.5 5a44.2 44.2 0 0 0-16.8 44.6c4.2 18.8 12.9 25.7 18 29.9 3 2.4 5.6 4.5 6 8a8 8 0 0 1-2.5 6 5669 5669 0 0 0-19.4 21.6 4.5 4.5 0 0 1-4 1.4 4.5 4.5 0 0 1-3.3-2.4c-2.7-4.6-7.1-8-12.3-9.5-7.4-1.7-16.1.9-26 7.9a72.6 72.6 0 0 0-31.4 53.2 37.4 37.4 0 0 0 12.7 31.1 4.4 4.4 0 0 1 1.1 5.4c0 .2-8.7 17.3-2.3 29.6 3.5 6.7 11.1 10.9 22.7 12.5a4.4 4.4 0 0 1 3.6 6s-4.2 13 3 21.6c5.7 7.2 18 10.1 35.7 8.4l.2.1Z"/><path fill="#431426" d="M1761.6 1549.8a4.4 4.4 0 0 1-4-2.5 95 95 0 0 0-12.2-18.4c-.8-.9-1.2-2-1.2-3.2.1-1.2.6-2.3 1.5-3a4.4 4.4 0 0 1 6.3.3c5.3 6.2 10 13.1 13.6 20.4a4.6 4.6 0 0 1-1.8 5.8c-.7.4-1.4.6-2.2.6ZM1587.8 1639.6a68.4 68.4 0 0 1-35.5-9.7c-1-.7-1.6-1.7-1.8-2.9a4.5 4.5 0 0 1 3.5-5.1c1.2-.3 2.4 0 3.3.7 1.5 1 34.5 22.7 73.1-8.2a4.2 4.2 0 0 1 3.3-1 4.4 4.4 0 0 1 3 1.7 4.4 4.4 0 0 1 .9 3.3 4.6 4.6 0 0 1-1.6 3 75.7 75.7 0 0 1-48.2 18.2ZM1587.8 1573.4a4.3 4.3 0 0 1-3-1.3 4.4 4.4 0 0 1 0-6.2l30.9-31a4.5 4.5 0 0 1 7.2 1.5c.2.5.3 1 .3 1.7 0 .6 0 1.1-.3 1.7-.2.5-.6 1-1 1.4l-31 31a4.3 4.3 0 0 1-3 1.2ZM1586.5 1680c-3 .1-6.1-.2-9-1a4.4 4.4 0 0 1-.6-8c.9-.6 2-.8 3.1-.5.5 0 22.1 6 62.3-20.5 1-.6 2.2-.8 3.3-.6a4.5 4.5 0 0 1 3.5 5.2c-.3 1.2-1 2.2-2 2.8-29.3 19.2-49.8 22.6-60.6 22.6ZM1622 1715a4.5 4.5 0 0 1-1-8.8c14.3-3.7 27.7-10 39.7-18.6a4.5 4.5 0 0 1 6.9 4.4 4.4 4.4 0 0 1-1.8 2.9c-13 9.3-27.5 16.1-43 20l-.8.2Z"/></svg>