<svg xmlns="http://www.w3.org/2000/svg" width="3000" height="3000" fill="none"><path fill="#FFEAB9" d="M1892.8 2200.9a23.3 23.3 0 0 1-4.4-46.2 844.6 844.6 0 0 0 92-24.5c65.8-22 87-41.8 89-50 2.8-12 .5-47.6-84-120.2a970 970 0 0 0-104.9-77.3 23.4 23.4 0 0 1 24.8-39.7c38.5 24.6 75.3 51.8 110.2 81.3 77.8 66.8 110.2 121.4 99.2 167-7.8 32.1-46 58.6-120 83.3a873.7 873.7 0 0 1-97.3 25.8c-1.5.3-3 .5-4.6.5Z"/><path fill="#431426" d="M1892.8 2205a27.4 27.4 0 0 1-5.2-54.4c31-6.4 61.5-14.5 91.5-24.3 66.8-22.3 84.9-41.5 86.2-47 2.2-8.8 2.5-43-82.5-116.1a966 966 0 0 0-104.5-77 27.4 27.4 0 1 1 29-46.7c38.8 24.7 75.9 52 111 81.7 79 67.8 112 123.8 100.5 171-8.3 33.7-47.2 61.1-122.7 86.3a884.3 884.3 0 0 1-97.9 26 27 27 0 0 1-5.4.5Zm0-361.4a19.2 19.2 0 0 0-10.1 35.7A962 962 0 0 1 1988 1957c83 71.3 89 108.5 85.2 124.3-2.8 11.7-28.5 31.8-91.7 53a853.7 853.7 0 0 1-92.3 24.7 19.2 19.2 0 1 0 7.4 37.7 877 877 0 0 0 96.8-25.8c72.6-24.2 109.8-49.7 117.3-80.4 10.6-44-21.4-97.2-98-162.9a1002.6 1002.6 0 0 0-109.7-80.8c-3-2-6.6-3-10.2-3Z"/><path fill="#9CC" d="M1907.5 2332.6a96 96 0 0 1 22 73.6c-7.2 52.7-52 79-83 91.1h-.3l-3.9 1.5c-8.3 3.1-16.9 5.6-25.6 7.4h-.3s-47.6-19.6-83-120.7a410 410 0 0 1-16.3-61.7 498.3 498.3 0 0 1-7.2-124.7c.3-7.8 1.2-15.7 2.7-23.4v-.5l.2-.2.4-.2c8.1-3.3 16.5-6 25-8.2l2-.7 2.8-.8 3.7-1 7.2-2.1 11.2-3.2c17.4-5 37-10.4 55.4-15.4 37-10.2 52-14.8 69.5-18.8 15.8-3.6 29.8 15 27.6 23.3l-26.8 6c-2.3 7.2-4 9.3-5.1 16.5a40.7 40.7 0 0 0 9.2 30.2s67.1-15 74 5.5c5.3 15.3-27.4 29.5-27.4 29.5l-9.7 27.4-9.8 27.8-14.5 41.8Z"/><path fill="#431426" d="M1816.4 2510.5c-.5 0-1 0-1.6-.3-2-.8-49.7-21.5-85.4-123-7-20.4-12.6-41.2-16.5-62.3a506.6 506.6 0 0 1-8-73.6v-.4a496 496 0 0 1 .7-51.9 146.5 146.5 0 0 1 3.2-25l.6-1c.2-.3.5-.7 1-1l.5-.3.4-.3c8.4-3.4 17-6.3 25.9-8.7l1.3-.4.7-.2 2.7-.8 1.3-.3 2.5-.8 7.3-2 4.7-1.4 6.5-1.8c15.6-4.5 34.3-9.7 55.3-15.4h.5l29.2-8.2c17.5-4.9 28.1-7.9 40.2-10.6 8.5-2 17.5 1.1 24.7 8.6 6.1 6.3 9.2 14.2 7.8 19.7a4.2 4.2 0 0 1-3 3l-24.6 5.5-1.5 3.8a35.3 35.3 0 0 0 4 34.8c16.1-3.4 69.1-12.8 76.4 8.6 5.8 16.8-20.5 30.4-28 33.9l-33 93a99.5 99.5 0 0 1 21.3 75c-7.5 56.1-56.8 83.3-85.5 94.4h-.3l-2.8 1-1 .5c-8.6 3.2-17.4 5.7-26.4 7.6h-.4l-.7.3ZM1713.2 2251l.5 10.8c1.2 20.7 3.7 41.4 7.4 61.8 3.8 20.7 9.2 41.1 16 61 31.6 89.9 72.8 114.1 79.7 117.7 8.1-1.8 16.1-4.1 24-7l1-.4 2.8-1h.3c33.1-13 73.6-38.7 80.3-87.9 5.5-41.1-20.6-70-20.9-70.3a4.2 4.2 0 0 1-1-3.4c0-.2 0-.5.2-.8l34.3-96.9c.2-.5.5-1 .9-1.4a4 4 0 0 1 1.3-1c9.6-4.1 28.3-15.5 25.3-24.4-4-11.6-43-8.6-69.4-2.7a4.1 4.1 0 0 1-4-1.3c-.5-.6-13-14.7-10.1-33.4.5-4 1.6-8 3.2-11.6a114 114 0 0 0 2-5.7 4 4 0 0 1 1.2-1.7c.5-.5 1.1-.8 1.8-1l23.7-5.5c-1-3.7-3-7-5.7-9.7-2.4-2.5-8.9-8.2-17-6.3a866.9 866.9 0 0 0-39.8 10.6l-29.5 8.2h-.4c-21 5.7-39.5 11-54.9 15.3l-6.4 1.8-4.8 1.4-7.1 2-2.8.8-1 .3-2.8.9-.7.1-1.2.4a262 262 0 0 0-23.5 7.6c-1.2 7.1-2 14.3-2.4 21.5v.3a480 480 0 0 0-.7 50.5l-4 .5h4.2Zm134.7 250.3h-.3.3Zm-2.8-7.7h-.3.3Z"/><path fill="#FFFAF4" d="M1846.5 2497.4h-.3l-4 1.4c-8.3 3.2-16.8 5.6-25.6 7.5h-.2s-47.6-19.7-83.1-120.8a409 409 0 0 1-16.2-61.6c10-2.8 61.7-26.8 107.5-22.9 61 5.3 82.9 31.4 82.9 31.4a96 96 0 0 1 22 73.6c-7.3 52.9-52 79.4-83 91.4Z"/><path fill="#431426" d="M1816.4 2510.5c-.5 0-1 0-1.6-.3-2-.8-49.7-21.5-85.4-123-7-20.4-12.6-41.2-16.5-62.3a4.1 4.1 0 0 1 3-4.7l8.2-3c20-7.6 61.8-23.4 100.6-20 59 5.1 82.6 29.2 85.5 32.5l.2.2a99.2 99.2 0 0 1 23 76.8c-7.7 56-57 83.2-85.6 94.4h-.4l-2.7 1-1.1.4c-8.6 3.2-17.4 5.8-26.3 7.6h-.4l-.5.4ZM1722 2327c3.7 19.5 8.9 38.8 15.4 57.6 31.4 89.4 72.7 114 79.8 117.7 8-1.8 16-4.1 23.9-7l1-.4 2.8-1h.3c33-13 73.7-38.5 80.3-87.9a91.8 91.8 0 0 0-20.6-70l-.3-.4c-.2-.2-22-24.9-80.2-29.9-37-3.2-77.5 12.1-97 19.5l-5.4 1.8ZM1931.7 2267.2c-4 0-17-2.3-42.4-27.4a4 4 0 0 1-1-4.6 4 4 0 0 1 2.3-2.2 4 4 0 0 1 4.5 1c25.4 25 36.7 25 36.7 25a4 4 0 0 1 4.5 3.6 4.2 4.2 0 0 1-3.6 4.6h-1ZM1920.1 2301.2l-1.5-.3a156 156 0 0 1-44-30 4.1 4.1 0 0 1-1-4.4l1-1.4a4.2 4.2 0 0 1 2.9-1.2 4.3 4.3 0 0 1 2.9 1.1c12 11.7 26 21.3 41.3 28.3a4.1 4.1 0 0 1 2.4 4.6 4.1 4.1 0 0 1-4 3.3Z"/><path fill="#FFFAF4" d="M1709.2 2252.2c-2.8-48.8 2.3-74.4 3.7-76.9 1.4-2.5 58.7-18.5 107.8-32 0 0-.6 79.7-111.5 108.8Z"/><path fill="#431426" d="M1710.3 2255.6a4.1 4.1 0 0 1-4.1-4c-2.7-46.1.8-74 3.1-78.2 1.3-2.1 2.6-4.4 110.3-33.9h1.5a4.1 4.1 0 0 1 3.8 4.4c0 1-7.7 88.7-113.7 111.7a3 3 0 0 1-.9 0Zm6-77.3c-1.1 4.3-4.3 25.8-2.1 68 81.1-19.6 98.2-78.2 101.6-97.2-78.6 21.6-95.8 27.5-99.5 29.2Z"/><path fill="#FFFAF4" d="M1846.5 2497.4h-.3c-9.7 3.4-19.6 6.4-29.6 8.9h-.2s-47.6-19.7-83.1-120.8c-7-20-12.4-40.7-16.2-61.6a498 498 0 0 1-7.3-124.7 150.5 150.5 0 0 1 2.8-23.8v-.2l.2-.2.4-.2c8-3.2 16.4-6 25-8.2a636.1 636.1 0 0 0 1.9 75.5c1.9 24.4 5 48.7 9.4 72.8 7 36.6 17.7 73.9 34.3 104.3 27 48.8 50 68.6 62.7 78.2Z"/><path fill="#431426" d="M1816.4 2510.5c-.5 0-1 0-1.6-.3-2-.8-49.7-21.5-85.4-123-7-20.4-12.6-41.2-16.5-62.3a506.6 506.6 0 0 1-8-73.6v-.4a496 496 0 0 1 .7-51.9 146.5 146.5 0 0 1 3.2-25l.6-1c.2-.3.5-.7 1-1l.5-.3.4-.3c8.4-3.4 17-6.3 25.9-8.7a4 4 0 0 1 3.7.8c.5.4 1 1 1.2 1.6.3.6.4 1.2.3 1.9a621.7 621.7 0 0 0 2 74.9c1.8 24.3 5 48.4 9.4 72.3 7.8 41.8 19.2 76.5 33.8 103.1 28.5 52.2 53 70.7 61 76.9a4.1 4.1 0 0 1-.7 7l-.6.2c-9.7 3.5-19.7 6.5-29.8 9l-.8.1h-.3ZM1713.2 2251l.5 10.8c1.2 20.7 3.7 41.4 7.4 61.8 3.8 20.7 9.2 41.1 16 61 31.4 89.1 72.5 113.9 79.7 117.7a319 319 0 0 0 21.1-6.1c-11.6-9.6-33.2-30.5-57.4-74.7-15-27.5-26.6-63-34.6-105.5a690.7 690.7 0 0 1-9.5-74.1 707.3 707.3 0 0 1-2.2-69.4 206.5 206.5 0 0 0-17.8 6c-1.3 7-2 14.2-2.5 21.4v.2a480 480 0 0 0-.7 50.5l-4 .5h4ZM1889.5 2248.6l-2.4-.3a14.1 14.1 0 0 1-6.3-25 14.2 14.2 0 1 1 8.7 25.3Zm0-20.3a6 6 0 0 0-5.5 6.2 6 6 0 0 0 12 0 6 6 0 0 0-5.5-6.2h-1ZM1874 2279.4c-.8 0-1.7 0-2.5-.2a14.2 14.2 0 1 1 16.5-11.6 14.3 14.3 0 0 1-14 11.8Zm0-20.3a6 6 0 1 0 5.9 7 6 6 0 0 0-5-6.9h-1ZM1879.4 2208.5a4.2 4.2 0 0 1-4.6-3.7c-.1-1 .2-2.2.9-3 .7-.9 1.7-1.4 2.8-1.5l15.8-3.7a4.1 4.1 0 1 1 1.8 8l-15.8 3.7-1 .2Z"/><path fill="#FFEAB9" d="M1540.8 2359.9a23.3 23.3 0 0 1-10-44.4c121.4-57.8 189.3-143.4 201.7-254.6 5.5-50.8-.4-102.2-17.3-150.4a23.4 23.4 0 0 1 43.3-17.5c1.3 3.2 31 78.2 20.4 173.1-9.9 88.2-57.4 210.3-228 291.5a23.1 23.1 0 0 1-10.1 2.3Z"/><path fill="#431426" d="M1540.8 2364a27.5 27.5 0 0 1-20.3-45.8c2.4-2.7 5.3-4.9 8.6-6.4 120-57.2 187.2-141.7 199.4-251.3a341 341 0 0 0-17-148.5 27.4 27.4 0 0 1 50.9-20.5c1.3 3.2 31.3 79.2 20.6 175.1-10 89.2-58 212.7-230.3 294.8a27.3 27.3 0 0 1-11.9 2.6Zm196-481.5a19.4 19.4 0 0 0-19 17.2c-.3 3.2.1 6.3 1.3 9.2 17 49 23 101 17.5 152.5-12.6 112.5-81.2 199.4-204 258a19 19 0 0 0-11 18.3 19.3 19.3 0 0 0 20.2 18.2c2.5-.2 5-.8 7.3-1.9 168.9-80.3 216-201 225.7-288a384.1 384.1 0 0 0-20.1-171.2 19.2 19.2 0 0 0-17.8-12v-.3Z"/><path fill="#9CC" d="M1600.1 2481.7a96 96 0 0 1 42 64.3c8.3 52.4-27.1 90.5-53.4 111l-.2.2-3.3 2.5a173.4 173.4 0 0 1-22.5 14.5l-.2.1s-51.3-5.2-114.1-91.8a413.6 413.6 0 0 1-33.2-54.4 500 500 0 0 1-28.5-67.7l-.2-.4a483.1 483.1 0 0 1-13.7-49.4 152 152 0 0 1-4-23.8l.2-.3.3-.3c6.9-5.4 14-10.5 21.5-15l1.8-1.3 2.3-1.5 3.3-2.1c2-1.3 4.1-2.8 6.3-4l9.8-6.3c15.2-9.7 32.4-20.5 48.7-30.6 32.6-20.4 45.5-29 61.2-38 14.2-8 32.9 6 33 14.5l-24 13.4c-.1 7.5-1.1 10 0 17.3a40.1 40.1 0 0 0 17.3 26.2s60-33.6 72.6-16c9.4 13.2-17.8 36.1-17.8 36.1l-1.4 29.2-1.5 29.3-2.3 44.3Z"/><path fill="#431426" d="M1562.4 2678.4h-.3c-2.2-.2-53.8-6.3-117-93.5a412.1 412.1 0 0 1-33.6-54.8 505.6 505.6 0 0 1-28.8-68.2v-.4a479.3 479.3 0 0 1-14-50c-2-7.8-3.4-16-4-24.1v-.3c-.1-.1-.1-.3 0-.4 0-.9.3-1.7.8-2.3l.4-.6.3-.3c7-5.7 14.5-11 22.3-15.7l1.2-.8.6-.4 2.3-1.5 1-.7 2.3-1.4 6.3-4.1 4.1-2.8 5.7-3.6a6355 6355 0 0 1 48.7-30.6l.4-.3c10.3-6.3 18.5-11.6 25.6-16a805 805 0 0 1 35.5-21.7c7.6-4.3 17-4 26 1.1 7.8 4.3 13 11 13.2 16.7a4 4 0 0 1-2 3.8l-22 12.3c0 1.5-.2 2.8-.3 4.1a35.1 35.1 0 0 0 13.9 32.2c14.4-7.8 62.5-32 75.6-13.5 10.3 14.4-11 35-17.2 40.5l-5 98.5a99.7 99.7 0 0 1 42 65.9c8.7 55.9-30.7 96-55 114.9l-.3.2-2.3 1.8-1 .7a180 180 0 0 1-23 14.8l-.3.2c-.7.3-1.4.4-2.1.3ZM1390.5 2459a494.3 494.3 0 0 0 28.3 67.1 406.8 406.8 0 0 0 33 54c55.6 76.8 102.2 88.4 110 90 7.3-4.2 14.3-8.8 21-13.8l.9-.7 2.3-1.8.3-.2c28-22 59.5-58 51.8-107a92.7 92.7 0 0 0-40-61.4 4 4 0 0 1-1.4-1.3 4 4 0 0 1-.6-2.5l5-102.5a4.2 4.2 0 0 1 1.5-2.9c8-6.7 22.6-23 17.2-30.6-7.2-10-43.6 4-67.2 17.2a4.2 4.2 0 0 1-4.2 0 43.6 43.6 0 0 1-19.4-41.2c0-1.7.3-3.6.3-6 0-.7.3-1.3.6-2 .4-.6.9-1 1.5-1.4l21.1-12c-2-3.2-4.8-5.9-8.2-7.6-3-1.7-11-5.3-18-1.2-10.6 6-19.8 11.8-35.1 21.5l-26 16.5-.4.2a5625.5 5625.5 0 0 0-48.3 30.3l-5.7 3.7-4 2.7-6.3 4-2.3 1.6-1 .6-2.4 1.5-.5.4-1.1.7c-13.9 9-18.7 12.6-20.3 14 .9 7.2 2.1 14.3 3.8 21.3v.3c3.7 16.4 8.3 32.6 13.7 48.6l-3.7 1.7 3.8-1.8Zm200.7 201.3-.3.2.3-.2Zm-5-6.6-.2.2.3-.2Z"/><path fill="#FFFAF4" d="m1588.7 2657-.2.2-3.3 2.5a174.5 174.5 0 0 1-22.5 14.5l-.2.1s-51.3-5.2-114.1-91.8a413 413 0 0 1-33.2-54.4c8.7-5.5 51.4-43.3 96.4-52.7 60-12.4 88.5 6.4 88.5 6.4a96 96 0 0 1 42 64.2c8.3 52.4-27.2 90.6-53.4 111Z"/><path fill="#431426" d="M1562.4 2678.4h-.3c-2.2-.2-53.8-6.3-117-93.5a412.1 412.1 0 0 1-33.6-54.8 4 4 0 0 1 1.5-5.3l7.1-5.3c17-13 52.5-40 90.7-48 58-12 87.4 4.4 91.2 6.7h.2a99.4 99.4 0 0 1 43.9 67.2c8.8 56-30.7 96-54.9 114.9l-.3.3-2.4 1.7-1 .8c-7.2 5.5-14.9 10.4-23 14.8l-.3.2-1.8.3Zm-142-149.1a408.5 408.5 0 0 0 31.3 50.7c55.7 76.8 102.3 88.5 110 90 7.3-4.1 14.3-8.7 21-13.8l1-.7 2.3-1.7.2-.3c28-21.7 59.6-58 51.9-107-6.2-39.2-37-59.2-39.9-61.1l-.4-.3c-.3-.1-28-17.5-85.3-5.7-36.4 7.5-72.2 34.8-87.4 46.4a67.1 67.1 0 0 1-4.6 3.5ZM1599.4 2412.8c-7 0-20.2-2.5-43.3-14.8-1-.6-1.7-1.4-2-2.5a4.1 4.1 0 0 1 2.8-5.1c1-.3 2.1-.2 3.1.3 31.6 16.8 42.2 13.6 42.3 13.5a3.9 3.9 0 0 1 3.2 0l1.3.8a4.2 4.2 0 0 1-1.3 6.8c-2 .8-4 1-6.1 1ZM1602 2448.1h-.5a155.6 155.6 0 0 1-50.5-16 4.2 4.2 0 0 1-2-2.4 4.1 4.1 0 0 1 5.8-5 150 150 0 0 0 47.6 15.3 4.1 4.1 0 1 1-.4 8.2Z"/><path fill="#FFFAF4" d="M1387.1 2461.4c-16.6-45.8-19-71.9-18.3-74.6.6-2.6 51-34.5 94.1-61.5 0 0 22 76.4-75.8 136.1Z"/><path fill="#431426" d="M1387.9 2464.5c-.5 0-1 0-1.4-.3a4 4 0 0 1-2.5-2.4c-15.8-43.5-20.5-71.4-19.4-76 .6-2.4 1.2-4.9 96-64 .6-.3 1.2-.5 1.8-.5.6-.1 1.3 0 1.9.2a4 4 0 0 1 2.7 3c.2.8 18 87.1-77 139.5a4 4 0 0 1-2.1.5Zm-15.3-76c.3 4.6 3.4 26 17.5 65.9 72.2-42 71.8-103.1 69.7-122.3-69.3 43.2-84 53.8-87.2 56.5Z"/><path fill="#FFFAF4" d="m1588.7 2657-.2.2c-11.7 8.7-23.9 15.9-25.8 17l-.2.1s-51.3-5.2-114.1-91.8a413 413 0 0 1-33.2-54.4 499 499 0 0 1-28.5-67.7l-.2-.3a482.6 482.6 0 0 1-13.7-49.4 152.3 152.3 0 0 1-3.8-24.1l.3-.4c6.9-5.4 14-10.5 21.5-15a627 627 0 0 0 23.6 71.7 698 698 0 0 0 29.8 67c17.1 33.2 38.1 66 62.7 90.2 39.4 39 66.8 51.4 81.8 57Z"/><path fill="#431426" d="M1562.4 2678.4h-.3c-2.2-.2-53.8-6.3-117-93.5a412.1 412.1 0 0 1-33.6-54.8 505.6 505.6 0 0 1-28.8-68.2v-.4a479.3 479.3 0 0 1-14-49.9c-2-8-3.4-16-4-24.2v-.3c-.1-.1-.1-.3 0-.4 0-.9.3-1.7.8-2.3l.4-.6.3-.3c7-5.7 14.5-11 22.3-15.7a4.1 4.1 0 0 1 6.3 2.5 622.8 622.8 0 0 0 23.1 71.2c8.7 22.8 18.6 45 29.7 66.7 19.5 37.7 40.3 67.7 61.9 89 42.3 41.8 71.2 52.5 80.7 56a4.1 4.1 0 0 1 2.5 5.2c-.2.7-.6 1.3-1.2 1.8l-.4.3c-10.1 7.5-20.6 14-26 17.1l-.7.4c-.6.3-1.3.4-2 .4ZM1390.5 2459a494.3 494.3 0 0 0 28.3 67.1 406.8 406.8 0 0 0 33 54c55.4 76.4 101.9 88.3 110 89.9a344 344 0 0 0 18.5-12c-13.9-5.8-40.6-19.6-76.4-55-22.2-22-43.5-52.7-63.4-91.2a693.8 693.8 0 0 1-30.4-68.3 687 687 0 0 1-22-65.8c-10 6.7-13.8 9.6-15.3 10.8.9 7.1 2.2 14.2 3.8 21.2v.3a481 481 0 0 0 13.8 48.6l-3.8 1.7 4-1.3ZM1554.7 2406.9a14.2 14.2 0 1 1 14.1-16 14.2 14.2 0 0 1-14.1 16Zm0-20.3h-.8a6 6 0 1 0 6.8 5.3 6 6 0 0 0-6-5.3ZM1548.6 2441a14.3 14.3 0 0 1-10.6-23.8 14.3 14.3 0 0 1 21.6.4 14.3 14.3 0 0 1-9.3 23.3h-1.7Zm0-20.3h-.7a6 6 0 0 0-3 10.7 6 6 0 0 0 6.7.5 6 6 0 0 0 3-6 6 6 0 0 0-6-5.2ZM1536.4 2371a4.1 4.1 0 0 1-2-7.7l14.1-8a4.1 4.1 0 0 1 6 4.7c-.3 1-1 2-2 2.5l-14 8c-.7.3-1.3.5-2 .5Z"/><path fill="#FFEAB9" d="M2083 1218.7a23.4 23.4 0 0 1-11.9-43.4A282 282 0 0 0 2210.6 957a23.3 23.3 0 0 1 46.7 1.2c-.2 6.6-5.9 165-162.5 257.3a23.3 23.3 0 0 1-11.8 3.2Z"/><path fill="#431426" d="M2083 1222.8a27.5 27.5 0 0 1-26.6-34.1 27.4 27.4 0 0 1 12.7-16.8A278.3 278.3 0 0 0 2206.6 957a27.4 27.4 0 0 1 54.8 1.4c-.1 6.8-6 167.4-164.4 260.7-4.3 2.5-9.1 3.8-14 3.7Zm151-284.4a19.2 19.2 0 0 0-19.3 18.7c0 1.4-5 141.2-141.5 221.7a19.1 19.1 0 0 0 5 35.2 19.1 19.1 0 0 0 14.5-2c154.6-91.2 160.3-247.3 160.4-254a19.3 19.3 0 0 0-18.7-19.6h-.5Z"/><path fill="#FFFAF4" d="M2183.3 961s-34.5 8.4-25.5 33.2c9 24.9 57.6 7.1 73.1 13.1 15.6 6 65.7 31.5 65.9 6.7a45.4 45.4 0 0 0-20.9-37.4s48.5-23.9 56.9-59.4c8.4-35.5 15.9-75 25.6-97.7 9.7-22.7 54.2-85 19.3-102.7-43.4-21.7-59 76.4-59 76.4s-13-44.2-47.7-11c0 0-14.5-34.7-43-14.2 0 0 24.8-109-20.5-109.1-42.4 0-29 52.4-22.2 85 6.7 32.7 6.5 65-7 68.8-13.5 3.7-88-62.6-97 5.5-1.4 10 49.6 9.9 61.2 52.9 8.7 31.9 4.3 64.4 40.8 90Z"/><path fill="#431426" d="M2284.4 1028.8c-12.3 0-29.6-6.9-46.7-14.2a203 203 0 0 0-8.2-3.4c-4.5-1.8-13.7-1-23.4-.2-20.1 1.7-45.2 3.8-52.1-15.4a23.7 23.7 0 0 1 1-20 39.2 39.2 0 0 1 19.7-16c-23.6-19.5-27.6-42.6-31.5-65-1.3-7.4-2.6-15-4.6-22.4-7-26.2-30.2-35.2-45.3-41.2-9.9-3.9-17-6.7-16.1-13.3 2-16 8-26.5 17.4-31.3 17.9-9.4 44 4 63 14 7.3 3.6 17.2 8.7 19.7 8.2 9.3-2.6 11-30 4-64l-1-5c-5.6-25.7-12.3-57.5 1.4-74.4 5.7-7 14.4-10.6 25.8-10.6a25.2 25.2 0 0 1 20.6 9.8c17.1 21.5 9.7 74.1 5.8 95.4 5.7-2.7 12-3.2 18.1-1.6 10.2 2.8 16.9 11.7 20.2 17.3 10.1-8.3 19.6-11.4 28.3-9 7 2.2 13 7.1 16.6 13.6 4.5-19.7 15.6-56.9 36.3-67.6a27.7 27.7 0 0 1 26.2.6 26.3 26.3 0 0 1 14 16c6.5 21-10.4 52.4-22.8 75.3-3.7 6.7-6.8 12.4-8.6 16.7-7.3 17-13.3 43.6-19.6 71.7l-5.8 25.3c-7 29.8-39.8 51.3-53.3 59a48 48 0 0 1 17.4 37 13.7 13.7 0 0 1-6 12 19.2 19.2 0 0 1-10.5 2.7Zm-63.4-27c3.9 0 7.8.5 11.5 1.7l8.4 3.5c13.4 5.8 41.2 17.7 49.6 12.2 1-.6 2.2-1.8 2.2-5.3a41 41 0 0 0-18.8-33.7 4.2 4.2 0 0 1-2-3.7c0-.8.2-1.5.6-2 .4-.7 1-1.2 1.7-1.5.4-.3 46.8-23.5 54.7-56.7l5.7-25.3c6.4-28.5 12.4-55.4 20-73.1 2-4.6 5.2-10.5 9-17.4 11-20.4 27.7-51.2 22.1-69a18.1 18.1 0 0 0-9.7-11 19.5 19.5 0 0 0-18.8-.5c-24.3 12.4-34.3 73.4-34.4 74a4.1 4.1 0 0 1-3.8 3.5 4.1 4.1 0 0 1-4.2-3c0-.1-5.2-17-16.5-20-6.8-1.7-15 1.9-24.4 10.8a4.1 4.1 0 0 1-5.5.2c-.5-.4-.9-1-1.1-1.6 0 0-6.3-14.4-17.5-17.5-5.9-1.7-12.4 0-19.2 5a4.1 4.1 0 0 1-6.4-4.2c.1-.7 16.4-73.8-2.5-97.4a17.2 17.2 0 0 0-14.1-6.7c-9 0-15.3 2.4-19.4 7.5-11.2 13.7-4.6 44.8.2 67.5l1 5.1c6.8 32.4 7.7 68.6-9.8 73.5-5.1 1.4-12.3-2.1-25.6-9-17.5-9-41.4-21.3-55.6-14-6.7 3.6-11.1 11.9-12.9 24.8 3.5 2.1 7.1 3.8 11 5 15.7 6.2 42.1 16.5 50.3 46.7 2 7.8 3.4 15.6 4.7 23.2 4.2 23.7 8 46 34.4 64.5a4.1 4.1 0 0 1-1.4 7.3c-.2 0-16.4 4.2-22 14.5a15.7 15.7 0 0 0-.4 13.4c4.7 13.2 25.4 11.4 43.7 10 5.2-.8 10.5-1.2 15.1-1.2Z"/><path fill="#431426" d="M2286.7 879.1c-1.7 0-3.3-.1-5-.4a28.8 28.8 0 0 1-20.3-11.5 27.4 27.4 0 0 1-3.5-7 35.2 35.2 0 0 1-13.4 13.7 27.4 27.4 0 0 1-23.9.2 29.6 29.6 0 0 1-17.3-18.3c-11-31.7 19.8-87.4 21.2-89.8a4 4 0 0 1 4.1-2.4 4.2 4.2 0 0 1 3 1.7 4.1 4.1 0 0 1 0 4.7c-.2.6-30.3 55-20.5 83a21.4 21.4 0 0 0 12.6 13.5 19.2 19.2 0 0 0 17 .1c11.5-6 15.8-24.6 15.8-24.6a4.1 4.1 0 1 1 8 1.6s-2 11.1 3.7 19a20.9 20.9 0 0 0 14.8 8.1 18.6 18.6 0 0 0 16.4-4.7c18.8-17.4 15.3-71.8 15.2-72.3 0-.6 0-1.1.2-1.6a4 4 0 0 1 2.1-2.4 4 4 0 0 1 4.6.6 4 4 0 0 1 1.4 2.8c.1 2.4 3.8 58.9-17.9 79a26 26 0 0 1-18.3 7Z"/><path fill="#431426" d="M2258.6 858.2h-.7a4.1 4.1 0 0 1-2.7-1.6l-.6-1.5a4 4 0 0 1 0-1.6l12.4-72c0-.6.3-1.1.6-1.6a4 4 0 0 1 2.6-1.8 4.2 4.2 0 0 1 5 4.7l-12.4 71.8a4.1 4.1 0 0 1-4.2 3.6ZM2186.3 820.3c-4.7-.4-9.3-1.8-13.4-4.2a4.1 4.1 0 1 1 4.2-7.1c2.9 1.8 6.3 2.9 9.7 3a4.1 4.1 0 1 1 .8 8.3h-1.3ZM2205 970.7h-.4c-16.7-1.7-23-6-23.7-6.4a4.1 4.1 0 0 1 4.8-6.7c.1 0 5.4 3.5 19.8 5a4.1 4.1 0 0 1-.4 8.2ZM2268.1 983.5a4.1 4.1 0 0 1-1.3-8l7.8-2.8a4.1 4.1 0 0 1 2.7 7.8l-7.8 2.7c-.4.2-.9.3-1.4.3Z"/><path fill="#FFD073" d="m1652.8 412.2-109.3 23.5 211.9 987.8 109.3-23.5-211.9-987.8Z"/><path fill="#431426" d="M1755.4 1427.6a4 4 0 0 1-4-3.4l-212-987.8a4.1 4.1 0 0 1 3.2-4.9l109.3-23.2a4.1 4.1 0 0 1 5 3.1l211.8 987.8a4.1 4.1 0 0 1-3.1 5l-109.3 23.4h-1Zm-207-988.8 210.2 979.8 101.3-21.7L1649.6 417l-101.3 21.7Z"/><path fill="#FFD073" d="m1652.8 412.2-54.2-14.5-101.4 21.8 210.3 979.8 47.9 24.2-212-987.8 109.4-23.5Z"/><path fill="#431426" d="m1652.8 412.2-54.2-14.5-101.4 21.8 210.3 979.8 47.9 24.2-212-987.8 109.4-23.5Z" opacity=".1"/><path fill="#431426" d="M1755.4 1427.6a4 4 0 0 1-1.9-.4l-47.9-24.2a4 4 0 0 1-2.2-2.7l-210.2-979.9a4.1 4.1 0 0 1 3.2-4.9l101.4-21.7c.6-.2 1.3-.2 1.9 0l54.2 14.5a4.1 4.1 0 0 1 3 4c0 1-.4 1.8-1 2.5-.5.7-1.4 1.2-2.2 1.4l-105.4 22.6 211.1 983.8c.2.8.1 1.6-.2 2.3-.2.8-.7 1.4-1.3 1.9-.7.5-1.6.8-2.5.8Zm-44.3-31 38.4 19.4-210-979.5a4.1 4.1 0 0 1 3-4.8l92.8-20-36.9-9.7-96.4 20.6 209 974Z"/><path fill="#431426" d="M1543.5 439.8c-.4 0-.9 0-1.3-.2l-46.2-16.2c-1-.4-1.9-1.2-2.4-2.1a4.2 4.2 0 0 1 .7-4.6 4 4 0 0 1 4.4-1l46.2 16a4.1 4.1 0 0 1 1.3 7.2c-.7.6-1.7 1-2.7 1Z"/><path fill="#FFD073" d="m1137 543.3-93.2 62 559.8 841 93.1-62-559.8-841Z"/><path fill="#431426" d="M1603.6 1450.3h-.8c-.5 0-1-.3-1.5-.6s-.9-.7-1.2-1.1l-559.8-841a4.2 4.2 0 0 1-.6-3.1c.1-.5.3-1 .7-1.5a4 4 0 0 1 1-1.1l93.3-62a4.2 4.2 0 0 1 3.1-.5 4.1 4.1 0 0 1 2.6 1.7l559.8 841a4.2 4.2 0 0 1 .6 3c-.1.6-.3 1.1-.6 1.6a4 4 0 0 1-1.2 1l-93 62c-.8.5-1.6.7-2.4.6Zm-554-844 555.3 834.2 86.3-57.4L1135.9 549l-86.3 57.4Z"/><path fill="#FFD073" d="m1136.9 543.3-55.7 6.3-86.3 57.5 555.3 834.2 53.4 5-559.8-841 93.1-62Z"/><path fill="#431426" d="m1136.9 543.3-55.7 6.3-86.3 57.5 555.3 834.2 53.4 5-559.8-841 93.1-62Z" opacity=".1"/><path fill="#431426" d="M1603.6 1450.3h-.3l-53.5-4.9a4.1 4.1 0 0 1-3-1.8L991.4 609.5a4.3 4.3 0 0 1 1.2-5.9l86.3-57.5c.6-.3 1.2-.6 1.8-.6l55.7-6.4a4.1 4.1 0 0 1 4.4 5.4c-.3.8-.8 1.6-1.6 2.1l-89.6 59.8 557.6 837.5a4.1 4.1 0 0 1-1.3 5.8 4 4 0 0 1-2.1.6h-.2Zm-51-12.9 42.9 4-555.1-833.9a4 4 0 0 1-.6-3 4.2 4.2 0 0 1 1.7-2.7l79-52.5-38 4.4-82 54.6 552 829.1Z"/><path fill="#431426" d="M994.8 611.3a4.1 4.1 0 1 1 0-8.2l48.9-2a4.1 4.1 0 0 1 3 1.1 4.1 4.1 0 0 1-2.7 7.2l-49 1.9h-.2Z"/><path fill="#FFD073" d="m1325.7 479.3-108 28.7 259.4 976.4 108-28.7-259.4-976.4Z"/><path fill="#431426" d="M1477.2 1488.4a4 4 0 0 1-4-3L1213.7 509a4.2 4.2 0 0 1 3-5l108-28.8a4.1 4.1 0 0 1 5 3l259.5 976.3a4.1 4.1 0 0 1-3 5l-108 28.8-1 .1Zm-254.5-977.6 257.4 968.6 100.1-26.6-257.4-968.6-100.1 26.6Z"/><path fill="#FFD073" d="m1325.8 479.2-54.9-11.9-100.2 26.7 257.4 968.5 49 21.8-259.4-976.4 108-28.7Z"/><path fill="#431426" d="m1325.8 479.2-54.9-11.9-100.2 26.7 257.4 968.5 49 21.8-259.4-976.4 108-28.7Z" opacity=".1"/><path fill="#431426" d="M1477.2 1488.4c-.6 0-1.2-.1-1.7-.3l-49-21.9a4 4 0 0 1-2.3-2.7l-257.5-968.6a4.2 4.2 0 0 1 3-5l100.2-26.7h2l54.8 11.9a4.1 4.1 0 0 1 .2 8l-104.1 27.7 258.4 972.4c.2.6.2 1.2 0 1.9a4 4 0 0 1-.7 1.7 4.1 4.1 0 0 1-3.3 1.6Zm-45.6-28.9 39.4 17.5-257.3-968a4.2 4.2 0 0 1 3-5l91.5-24.4-37.2-8-95.1 25.3 255.7 962.6Z"/><path fill="#431426" d="m1217.7 512-1.2-.1-47-14a4 4 0 0 1-2.6-2 4.2 4.2 0 0 1-.4-3.2 4.1 4.1 0 0 1 3.7-3 4 4 0 0 1 1.7.3l47 14a4 4 0 0 1 2.2 1.7c.6.8.8 1.8.7 2.8a4.1 4.1 0 0 1-4.1 3.5Z"/><path fill="#FFD073" d="M1487.3 375.1 1378 398.6l212 987.8 109.3-23.5-212-987.8Z"/><path fill="#431426" d="M1590 1390.6c-1 0-2-.4-2.7-1a4.1 4.1 0 0 1-1.4-2.3l-212-987.8a4.1 4.1 0 0 1 1.8-4.3c.4-.3.9-.5 1.4-.6l109.4-23.4a4.2 4.2 0 0 1 4.9 3.1l212 987.8c.1 1 0 2.2-.7 3.1a4.2 4.2 0 0 1-2.6 1.8l-109.3 23.6h-.9Zm-207.1-988.8 210.2 979.7 101.4-21.7L1484.2 380l-101.3 21.8Z"/><path fill="#FFD073" d="m1487.3 375.2-54.1-14.6-101.4 21.8 210.2 979.9 48 24.1-212-987.8 109.3-23.4Z"/><path fill="#431426" d="m1487.3 375.2-54.1-14.6-101.4 21.8 210.2 979.9 48 24.1-212-987.8 109.3-23.4Z" opacity=".1"/><path fill="#431426" d="M1590 1390.6a4 4 0 0 1-2-.5l-47.8-24.2a4 4 0 0 1-2.2-2.8l-210.2-979.8a4.1 4.1 0 0 1 3.1-5l101.4-21.7h2l54.1 14.5a4.1 4.1 0 0 1-.2 8l-105.3 22.6 211 983.8a4.2 4.2 0 0 1-1.5 4.1c-.7.6-1.6 1-2.5 1Zm-44.4-31.1 38.4 19.4-210-979.4a4.1 4.1 0 0 1 1.7-4.3c.4-.3.9-.5 1.4-.6l92.7-20-36.7-9.7-96.4 20.7 209 973.9Z"/><path fill="#431426" d="M1378 402.8c-.5 0-1-.1-1.4-.3l-46.2-16.2a4 4 0 0 1-2.7-3.7 4.1 4.1 0 0 1 3.9-4.3c.5 0 1 0 1.6.2l46.2 16.3a4.1 4.1 0 0 1 2.7 4.5 4.1 4.1 0 0 1-4 3.5h-.1Z"/><path fill="#FFD073" d="m925.5 658.2-88.3 68.3 616.2 798 88.4-68.2-616.3-798Z"/><path fill="#431426" d="M1454.8 1534.2h-.6a4 4 0 0 1-1.5-.6 4 4 0 0 1-1.2-1L836 731.4a4.1 4.1 0 0 1 .7-5.8l88.7-68.1a4 4 0 0 1 3-.8c1.1 0 2.1.7 2.8 1.5l615.5 801.2a4.1 4.1 0 0 1-.7 5.8l-88.7 68c-.7.6-1.6 1-2.5 1ZM845 729.7l610.5 794.6 82.2-63.1-610.5-794.6-82.2 63.1Z"/><path fill="#FFD073" d="M927.9 660.8 872.7 671 790.5 734l610.6 794.7 53.7 1.2-615.6-801 88.7-68.2Z"/><path fill="#431426" d="M927.9 660.8 872.7 671 790.5 734l610.6 794.7 53.7 1.2-615.6-801 88.7-68.2Z" opacity=".1"/><path fill="#431426" d="m1454.8 1534.2-53.7-1.3c-.6 0-1.2-.2-1.8-.4a4 4 0 0 1-1.4-1.2L787.3 736.6a4 4 0 0 1-.8-3c0-1 .7-2 1.5-2.7l82.3-63.2c.5-.4 1.1-.6 1.8-.8l55.1-10.1a4.1 4.1 0 0 1 3.3 7.3l-85.4 65.7 613 797.7a4.1 4.1 0 0 1-3.3 6.7Zm-51.6-9.5 43 1L836 731.4a4.1 4.1 0 0 1 .8-5.7l75.1-57.7-37.3 7-78.2 59.8 606.9 790Z"/><path fill="#431426" d="M790.5 738.3a4.1 4.1 0 1 1-.4-8.3l48.7-5.2a4.1 4.1 0 1 1 .9 8.3l-48.8 5.2h-.4Z"/><path fill="#FFD073" d="m2099.6 597.4-105.3-37.6-339.9 951.4 105.3 37.6 340-951.4Z"/><path fill="#431426" d="m1759.7 1553-1.5-.3-105.3-37.6a4.1 4.1 0 0 1-2.5-5.3l340-951.3a4.1 4.1 0 0 1 5.3-2.5l105.3 37.6a4 4 0 0 1 2.5 5.2l-340 951.4a4 4 0 0 1-3.8 2.8Zm-100.1-44.3 97.6 34.9 337.1-943.7-97.6-34.8-337.1 943.6Z"/><path fill="#FFD073" d="m2099.6 597.5-38.4-40.9-97.7-34.9-337.2 943.8 28 45.7 340-951.4 105.3 37.7Z"/><path fill="#431426" d="m2099.6 597.5-38.4-40.9-97.7-34.9-337.2 943.8 28 45.7 340-951.4 105.3 37.7Z" opacity=".1"/><path fill="#431426" d="M1654.3 1515.3a4.2 4.2 0 0 1-3.5-2l-28-45.7a4.3 4.3 0 0 1-.4-3.5l337.3-943.8c.1-.5.4-1 .8-1.3a4.1 4.1 0 0 1 4.4-1.1l97.7 34.8a4 4 0 0 1 1.6 1l38.4 41a4.1 4.1 0 0 1-1.7 6.7 4 4 0 0 1-2.7 0L1996.7 565l-338.5 947.5a4.2 4.2 0 0 1-3.4 2.7h-.5ZM1631 1465l22.5 36.7 337-943.2a4.1 4.1 0 0 1 5.3-2.5l89.2 31.8-26-27.6L1966 527l-335.2 938Z"/><path fill="#431426" d="M1994.3 564a4 4 0 0 1-3.2-1.6l-30.8-38.1a4 4 0 0 1 .7-5.8 4.1 4.1 0 0 1 5.7.6l30.8 38.1a4 4 0 0 1-1 6.1c-.7.4-1.4.6-2.2.6Z"/><path fill="#FFD073" d="M1630 587.8 1521 613l228 984.3 109-25.3-228-984.2Z"/><path fill="#431426" d="M1748.9 1601.5a4.1 4.1 0 0 1-4-3.2l-228-984.3a4.1 4.1 0 0 1 3.2-4.9l109-25.2a4 4 0 0 1 4.2 1.6l.7 1.4 227.8 984.3a4.2 4.2 0 0 1-3 5l-109 25.2h-.9Zm-223-985.3 226.2 976.2 101-23.3-226.2-976.3-101 23.4Z"/><path fill="#FFD073" d="m1630 587.9-54.4-13.6-101 23.4 226 976.3 48.3 23.4-228-984.3 109-25.2Z"/><path fill="#431426" d="m1630 587.9-54.4-13.6-101 23.4 226 976.3 48.3 23.4-228-984.3 109-25.2Z" opacity=".1"/><path fill="#431426" d="M1748.9 1601.5c-.6 0-1.2-.2-1.8-.4l-48.3-23.4-1.4-1.1a4 4 0 0 1-.8-1.6l-226-976.4a4 4 0 0 1-.1-1.6c0-.5.3-1 .5-1.5a4.2 4.2 0 0 1 2.6-1.8l101-23.6h2L1631 584a4 4 0 0 1 3 4 4.1 4.1 0 0 1-3 4l-105 24.3 226.9 980.2a4 4 0 0 1-.8 3.4 4.2 4.2 0 0 1-3.2 1.6Zm-44.7-30.4 38.7 18.8L1517 614a4.2 4.2 0 0 1 3.2-4.9l92.3-21.4-36.9-9.2-96 22.2 224.7 970.4Z"/><path fill="#431426" d="M1521 617.3c-.5 0-.9-.1-1.3-.3l-46.5-15.4a4.2 4.2 0 0 1-2.6-2 4.1 4.1 0 0 1-.3-3.3c.2-.6.5-1 .9-1.5a4.2 4.2 0 0 1 3-1.3c.5 0 1.1 0 1.6.3l46.5 15.4a4.1 4.1 0 0 1-1.3 8Z"/><path fill="#FFD073" d="M1502.2 720.5 1396.4 757l329.1 955.2 105.7-36.4-329-955.2Z"/><path fill="#431426" d="M1725.5 1716.2a4.1 4.1 0 0 1-3.9-2.7l-329-955.2c-.3-1-.3-2.2.2-3.2s1.4-1.7 2.4-2l105.7-36.5a4.1 4.1 0 0 1 5.3 2.6l329 955.1a4.1 4.1 0 0 1-2.6 5.3L1727 1716l-1.4.2Zm-323.8-956.7 326.5 947.4 98-33.7-326.6-947.5-98 33.8Z"/><path fill="#FFD073" d="m1502.2 720.5-55.5-7.9-98.1 33.8 326.5 947.5 50.4 18.2-329-955.2 105.7-36.4Z"/><path fill="#431426" d="m1502.2 720.5-55.5-7.9-98.1 33.8 326.5 947.5 50.4 18.2-329-955.2 105.7-36.4Z" opacity=".1"/><path fill="#431426" d="M1725.5 1716.2c-.5 0-1 0-1.4-.2l-50.4-18.1a4 4 0 0 1-2.5-2.5l-326.6-947.5c-.3-1-.2-2.2.2-3.2.5-1 1.4-1.7 2.4-2l98.1-34c.6-.2 1.3-.3 2-.2l55.4 8a4.1 4.1 0 0 1 .8 7.9l-101.8 35 327.7 951.4a4.1 4.1 0 0 1-3.9 5.5Zm-47.2-25.5 40.5 14.6-326.2-947c-.3-1-.3-2.2.2-3.2s1.4-1.7 2.4-2l89.6-31-37.6-5.3-93.3 32.1 324.4 941.8Z"/><path fill="#431426" d="M1396.4 761h-.9l-47.8-10.5a4.1 4.1 0 0 1-3.1-5 4 4 0 0 1 4.9-3l47.8 10.5a4.1 4.1 0 0 1-.9 8.2v-.2Z"/><path fill="#FFD073" d="m1999 385.6-111.8-4-36.7 1009.6 111.8 4L1999 385.6Z"/><path fill="#431426" d="M1962.3 1399.3h-.1l-111.8-4a4 4 0 0 1-4-4.3l36.7-1009.6a4.2 4.2 0 0 1 4.3-3.9l111.6 4a4.2 4.2 0 0 1 2.9 1.3 4.1 4.1 0 0 1 1.1 3l-36.7 1009.7a4 4 0 0 1-4 3.8Zm-107.5-12.1 103.6 3.8 36.3-1001.4-103.5-3.8-36.4 1001.4Z"/><path fill="#FFD073" d="m1999 385.6-49-27.3-103.6-3.8L1810 1356l40.6 35.2 36.6-1009.6 111.8 4Z"/><path fill="#431426" d="m1999 385.6-49-27.3-103.6-3.8L1810 1356l40.6 35.2 36.6-1009.6 111.8 4Z" opacity=".1"/><path fill="#431426" d="M1850.6 1395.3c-1 0-2-.4-2.8-1l-40.5-35.2a4.1 4.1 0 0 1-1.4-3.3l36.3-1001.5a4 4 0 0 1 1.3-2.8 4.2 4.2 0 0 1 3-1.1L1950 354c.7 0 1.3.2 1.9.5l49 27.5c.7.4 1.4 1.1 1.7 2a4.2 4.2 0 0 1-1.4 4.9c-.7.5-1.6.8-2.5.8l-107.7-4-36.5 1005.6a4.1 4.1 0 0 1-2.4 3.6c-.5.2-1.1.3-1.6.3Zm-36.4-41.2 32.6 28.2 36.3-1001a4.2 4.2 0 0 1 4.3-3.8l94.6 3.3-33.1-18.5-98.6-3.4-36.1 995.2Z"/><path fill="#431426" d="M1887.2 385.7c-.8 0-1.6-.3-2.3-.7l-40.8-27c-.5-.4-.9-.7-1.2-1.2a4 4 0 0 1-.7-1.5 4 4 0 0 1 1.7-4.4 4 4 0 0 1 3.2-.5c.6.1 1 .3 1.5.7l40.9 27a4.1 4.1 0 0 1 .2 6.7c-.8.5-1.6.8-2.5.8Z"/><path fill="#FFD073" d="M1816.6 351.6 1705.9 366l131.3 1000.2 110.7-14.6-131.3-1000.1Z"/><path fill="#431426" d="M1844.8 1365a4 4 0 0 1-4-3.6l-136-1001a4.2 4.2 0 0 1 3.6-4.7l110.8-15a4.1 4.1 0 0 1 3 .7c1 .7 1.5 1.7 1.7 2.8l135.8 1001a4.1 4.1 0 0 1-3.5 4.7l-110.8 15h-.6ZM1713.7 363.3l134.8 993 102.6-14-134.8-993-102.6 14Z"/><path fill="#FFD073" d="m1819.8 344.7-53-18.6-102.7 14 134.8 993 46 27.8-136-1001.2 110.9-15Z"/><path fill="#431426" d="m1819.8 344.7-53-18.6-102.7 14 134.8 993 46 27.8-136-1001.2 110.9-15Z" opacity=".1"/><path fill="#431426" d="M1844.8 1365a4 4 0 0 1-2-.6l-46-27.8a4 4 0 0 1-2-3l-134.8-993a4.2 4.2 0 0 1 3.6-4.6l102.7-14c.7 0 1.3 0 2 .2l52.8 18.6a4.1 4.1 0 0 1-.8 8l-106.6 14.5 135.2 997a4.1 4.1 0 0 1-2.4 4.4c-.5.2-1 .3-1.7.3Zm-42-34.4 36.8 22.3-134.7-992.6a4.2 4.2 0 0 1 3.5-4.6l93.9-12.8-35.8-12.6-97.8 13.3 134 987Z"/><path fill="#431426" d="M1709 363.9c-.6 0-1.2-.1-1.7-.4l-44.8-19.7a4.1 4.1 0 0 1-2.2-5.4 4.1 4.1 0 0 1 5.5-2.1l44.8 19.8a4.1 4.1 0 0 1-1.6 8v-.2Z"/><path fill="#FFD073" d="m1794.4 623-109.9 20.7 186.9 992.8 110-20.7-187-992.8Z"/><path fill="#431426" d="M1871.4 1640.6a4.1 4.1 0 0 1-4-3.3l-187-992.9a4.1 4.1 0 0 1 1.9-4.2c.4-.3 1-.5 1.5-.6l109.9-20.6c1-.3 2.2 0 3 .6.5.3 1 .7 1.2 1.2l.6 1.5 186.8 992.8a4.1 4.1 0 0 1-3.4 4.8l-110 20.7h-.5Zm-182-993.6 185.3 984.7 101.8-19.2-185.3-984.7-101.9 19.2Z"/><path fill="#FFD073" d="m1794.5 623-53.8-15.9-102 19.2 185.4 984.9 47.3 25.3-186.9-992.8 110-20.7Z"/><path fill="#431426" d="m1794.5 623-53.8-15.9-102 19.2 185.4 984.9 47.3 25.3-186.9-992.8 110-20.7Z" opacity=".1"/><path fill="#431426" d="M1871.4 1640.6a4 4 0 0 1-2-.4l-47.2-25.4a4.2 4.2 0 0 1-2.1-2.9l-185.4-984.8a4.1 4.1 0 0 1 3.3-4.9l101.9-19.2h2l53.7 15.9a4.1 4.1 0 0 1 3 4.2 4 4 0 0 1-3.3 3.8l-106 20 186.3 988.9a4.2 4.2 0 0 1-2.3 4.5 4 4 0 0 1-1.8.3Zm-43.6-32.1 38 20.3-185.3-984.4a4.1 4.1 0 0 1 1.8-4.2 4 4 0 0 1 1.5-.6l93-17.5-36.3-10.8-97 18.2 184.3 979Z"/><path fill="#431426" d="M1684.5 647.8c-.5 0-1-.1-1.4-.3l-45.8-17.4a4.2 4.2 0 0 1-2.8-3.7 4.1 4.1 0 0 1 4.1-4.3c.6 0 1.1.1 1.6.4l45.8 17.3a4.1 4.1 0 0 1 2.5 4.6 4.1 4.1 0 0 1-4 3.4Z"/><path fill="#FFD073" d="m981.5 851.4-88.7 68.2 615.6 801 88.7-68.1-615.6-801Z"/><path fill="#431426" d="M1508.3 1724.8a4.1 4.1 0 0 1-3.2-1.5L889.5 922a4.1 4.1 0 0 1 .8-5.7l88.7-68.1a4.1 4.1 0 0 1 5.8.7l615.5 801.2a4.1 4.1 0 0 1-.8 5.8l-88.7 68.1a4 4 0 0 1-2.5.8ZM898.6 920.4 1509 1715l82.2-63.1-610.6-794.6-82.1 63.1Z"/><path fill="#FFD073" d="m981.5 851.5-55.2 10.2-82.2 63.1 610.6 794.7 53.6 1.3-615.5-801.2 88.7-68.1Z"/><path fill="#431426" d="m981.5 851.5-55.2 10.2-82.2 63.1 610.6 794.7 53.6 1.3-615.5-801.2 88.7-68.1Z" opacity=".1"/><path fill="#431426" d="m1508.3 1724.8-53.6-1.2a4.2 4.2 0 0 1-3.2-1.6L840.8 927.3a4.1 4.1 0 0 1 .8-5.7l82.3-63.1c.5-.4 1.1-.7 1.8-.8l55.1-10.2a4 4 0 0 1 4.8 5c-.3 1-.8 1.8-1.5 2.3l-85.5 65.7 613 797.7a4.1 4.1 0 0 1-3.3 6.6Zm-51.5-9.4 43 1-610.3-794.3a4.1 4.1 0 0 1 .8-5.7l75.1-57.7-37.3 7-78.2 59.9 606.9 789.8Z"/><path fill="#431426" d="M844.1 929a4.1 4.1 0 1 1-.4-8.3l48.7-5.2a4.1 4.1 0 0 1 .8 8.2l-48.7 5.3h-.4Z"/><path fill="#FFD073" d="m1169 733.1-101 48.1 434.8 912 101-48.2L1169 733.1Z"/><path fill="#431426" d="M1502.8 1697.3a4 4 0 0 1-3.7-2.4L1064.3 783a4.2 4.2 0 0 1-.1-3.1 4.1 4.1 0 0 1 2-2.4l101-48.2a4.1 4.1 0 0 1 4.5.6c.5.4.8.8 1 1.3l434.8 912a4.1 4.1 0 0 1-2 5.6l-100.9 48c-.5.4-1.2.5-1.8.5Zm-429.3-914.1 431.3 904.5 93.6-44.7-431.3-904.4-93.6 44.6Z"/><path fill="#FFD073" d="m1169 733.1-56-1.6-93.7 44.7 431.3 904.6 52.2 12.4-434.8-912 101-48.1Z"/><path fill="#431426" d="m1169 733.1-56-1.6-93.7 44.7 431.3 904.6 52.2 12.4-434.8-912 101-48.1Z" opacity=".1"/><path fill="#431426" d="M1502.8 1697.3h-1l-52-12.4a4.1 4.1 0 0 1-2.8-2.2l-431.4-904.8c-.4-1-.5-2-.1-3.1a4 4 0 0 1 2-2.4l93.7-44.6c.5-.3 1.2-.4 1.9-.4l56 1.6a4 4 0 0 1 4 3.3 4 4 0 0 1-2.3 4.5l-97.3 46.4 433 908.2a4.2 4.2 0 0 1-.5 4.4 4.2 4.2 0 0 1-3.2 1.5Zm-49.4-20 42 9.9-431-904.2a4.2 4.2 0 0 1-.2-3.1 4.1 4.1 0 0 1 2-2.4l85.6-40.8-38-1L1025 778l428.4 899.1Z"/><path fill="#431426" d="M1068 785.3h-.4l-48.7-5a4.1 4.1 0 0 1-3.7-4.6 4.1 4.1 0 0 1 4.6-3.7l48.7 5.1a4.1 4.1 0 0 1 3.9 4.3 4.1 4.1 0 0 1-4.3 3.9Z"/><path fill="#FFD073" d="M1347.8 817.9 1242 854.3l329 955.2 105.8-36.5-329-955.1Z"/><path fill="#431426" d="M1571.1 1813.6a4.1 4.1 0 0 1-3.9-2.8l-329-955.3c-.4-1-.4-2.2.1-3.1.5-1 1.3-1.8 2.4-2.1l105.7-36.5a4.2 4.2 0 0 1 5.3 2.6l329 955.3a4.2 4.2 0 0 1-1.1 4.4c-.4.4-.9.6-1.4.8l-105.7 36.4-1.4.3Zm-323.9-956.8 326.5 947.4 98-33.7L1345.2 823l-98 33.7Z"/><path fill="#FFD073" d="m1347.8 817.8-55.6-7.9-98 33.8 326.4 947.5 50.5 18.3-329-955.2 105.7-36.5Z"/><path fill="#431426" d="m1347.8 817.8-55.6-7.9-98 33.8 326.4 947.5 50.5 18.3-329-955.2 105.7-36.5Z" opacity=".1"/><path fill="#431426" d="M1571.1 1813.6c-.5 0-1-.1-1.4-.3l-50.5-18.2a4.2 4.2 0 0 1-2.4-2.5L1190.2 845a4.1 4.1 0 0 1 2.6-5.3l98.1-33.7c.6-.2 1.3-.3 2-.2l55.4 7.9c1 .1 1.8.6 2.4 1.3.7.6 1 1.5 1.2 2.4a4.2 4.2 0 0 1-2.8 4.3l-101.9 35 327.8 951.3a4.1 4.1 0 0 1-3.9 5.5ZM1524 1788l40.5 14.6-326.3-947a4.1 4.1 0 0 1 2.6-5.2l89.6-31-37.7-5.4-93.3 32.2L1524 1788Z"/><path fill="#431426" d="M1242 858.4h-.9l-47.8-10.5a4.2 4.2 0 0 1-2.6-1.9 4 4 0 0 1-.5-3 4 4 0 0 1 1.8-2.7 4 4 0 0 1 3-.5l47.9 10.5a4.1 4.1 0 0 1-.9 8.3v-.2Z"/><path fill="#F57162" d="m2021 830.4 243.3 756.3-108.3 245-584 188-231-136-243.3-756.2 224.4-72.2a249.2 249.2 0 1 0 474.5-152.7l224.4-72.2Z"/><path fill="#431426" d="M1572 2023.9c-.8 0-1.5-.2-2.2-.6l-230.9-136a4.2 4.2 0 0 1-1.8-2.3l-243.4-756.3a4 4 0 0 1 .3-3.1 4.3 4.3 0 0 1 2.5-2l224.4-72.3a4 4 0 0 1 4.4 1.3l.8 1.4a245.1 245.1 0 0 0 466.7-150.1 3.9 3.9 0 0 1 .2-3.2c.2-.5.6-.9 1-1.2.4-.4.9-.7 1.4-.8l224.4-72.2a4.2 4.2 0 0 1 4.4 1.3l.8 1.4 243.2 756.2c.4 1 .3 2-.1 3l-108.3 245a4.2 4.2 0 0 1-2.5 2.3l-584 188-1.4.2Zm-227.5-142.7 228 134.2 580.5-186.8 107-242-241.8-751-216.6 69.7a253.4 253.4 0 0 1-482.2 155.2l-216.7 69.6 241.8 751Z"/><path fill="#F57162" d="m1572 2019.7-118.8-11.4-227-143.6-243.9-758 115.4 20.8 243.3 756.3 231 136Z"/><path fill="#431426" d="m1572 2019.7-118.8-11.4-227-143.6-243.9-758 115.4 20.8 243.3 756.3 231 136Z" opacity=".1"/><path fill="#431426" d="M1572 2023.9h-.5l-118.8-11.5c-.6 0-1.2-.3-1.8-.6l-227-143.6a4.2 4.2 0 0 1-1.6-2.3l-244-758a4 4 0 0 1 2.6-5.1c.6-.3 1.3-.3 2-.2l115.3 20.7a4 4 0 0 1 3.2 2.8l242.9 754.8 229.7 135.3a4.2 4.2 0 0 1 1.9 4.6 4.2 4.2 0 0 1-4 3Zm-117.5-19.6 99.3 9.5-214.9-126.5a4.2 4.2 0 0 1-1.8-2.3l-242.6-753.9-106.2-19 241.5 749.9 224.7 142.3Z"/><path fill="#431426" d="M1341 1887.9a4 4 0 0 1-.7 0l-114.8-19.2a4.2 4.2 0 0 1-3.4-4.8 4.2 4.2 0 0 1 4.7-3.4l114.9 19.2c.5 0 1 .2 1.5.4a4.2 4.2 0 0 1 2 2.4 4.1 4.1 0 0 1-4.2 5.4ZM967.5 716.5h-.6a4.1 4.1 0 0 1-3.4-4.7l9.6-60.6a4.2 4.2 0 0 1 6.3-3 4.2 4.2 0 0 1 2 4.3l-9.7 60.6a4.1 4.1 0 0 1-4.2 3.4ZM868.5 795.4h-.1l-91.6-4.1a4.1 4.1 0 0 1-3.6-5.9 4.1 4.1 0 0 1 4-2.3l91.3 4.1a4.1 4.1 0 0 1-.1 8.2h.1Z"/><path fill="#431426" d="M782.7 803.6a4.1 4.1 0 0 1-2.8-7.2l9.7-8.6-8.3-8.8a4.1 4.1 0 1 1 6-5.6l11 11.8a4.2 4.2 0 0 1-.3 6l-12.7 11.3c-.8.7-1.7 1-2.6 1ZM974.3 674.4a4 4 0 0 1-3.5-1.8l-10.3-15.3a4.1 4.1 0 1 1 6.8-4.6l8.2 12 12.5-7.4a4.1 4.1 0 0 1 4.3 7l-15.9 9.5c-.6.4-1.4.6-2.1.6ZM934.8 734.2a4.2 4.2 0 0 1-3-1.2l-8.9-9.2a4.1 4.1 0 1 1 6-5.7l8.8 9.2a4.1 4.1 0 0 1-3 7ZM909 756a4 4 0 0 1-3-1.2l-9.4-9.5a4.1 4.1 0 0 1 5.8-5.8l9.4 9.5a4.1 4.1 0 0 1 0 5.8c-.7.7-1.8 1.2-2.9 1.2Z"/><path fill="#9CC" d="M1326.2 474.7s51.8 10 22.4 33.2c-36.6 28.9-129 7-129 7l106.6-40.2Z"/><path fill="#431426" d="M1287.1 527c-23-.4-46-3-68.6-8a4.1 4.1 0 1 1 1.9-8c.9.2 90.7 20.7 125.6-6.3 3.9-3 5.6-5.9 5.2-8.5-1.4-7.4-18.3-15-26.4-17.6a4.1 4.1 0 0 1-2.8-3.5c0-.6 0-1.1.2-1.6a4.2 4.2 0 0 1 2-2.4 4 4 0 0 1 3.1-.3c3 1 29.4 9.6 32 24 1 5.8-1.8 11.3-8.3 16.4-15.5 12.1-40 15.7-63.9 15.7Z"/><path fill="#9CC" d="M1326.2 474.7s-7.3 10-25.4 20.2c-16.7 9.4-42.9 18.7-81.3 20-13.3.6-23.8.8-31.7.9-14.1 0-20.1-.2-20.1-.2-6.4-57 21-98.8 82.6-94.9 35 2.2 65 22.6 75.9 54Z"/><path fill="#F57162" d="M1300.8 494.9c-16.7 9.4-42.9 18.7-81.3 20-13.3.6-23.8.8-31.7.9v-.2c-4-67.6 45-94 45-94s48.2 8.2 68 73.3Z"/><path fill="#431426" d="M1189.2 519.7a229 229 0 0 1-19.5-.5 4.2 4.2 0 0 1-3.5-3 75.8 75.8 0 0 1 12.8-69 84.3 84.3 0 0 1 71.5-30.6 86.5 86.5 0 0 1 79.6 56.8 4.2 4.2 0 0 1-.6 3.7c-1.1 1.6-29 39.2-109.7 42-13.1.5-23.1.6-30.6.6Zm-16-8.5c5.6.2 19.3.6 46.2-.3 67-2.4 95.8-30 102-37a78.5 78.5 0 0 0-71.3-49 76.4 76.4 0 0 0-64.6 27.4 67.5 67.5 0 0 0-12.2 58.9ZM1266.6 570.9a4.2 4.2 0 0 1-3.8-2.8l-5.5-14.8a4.1 4.1 0 0 1 2.4-5.3 4.1 4.1 0 0 1 5.3 2.4l5.5 14.8a4.1 4.1 0 0 1-2.4 5.3l-1.5.4ZM1308.8 556a4.1 4.1 0 0 1-3.8-2.7l-5-12.6a4.2 4.2 0 0 1 1-4.5 4.1 4.1 0 0 1 6.7 1.5l5 12.6a4.3 4.3 0 0 1 0 3.2 4.2 4.2 0 0 1-3.9 2.6Z"/><path fill="#431426" d="M1187.7 519.7c-1 0-2-.4-2.8-1.1a4 4 0 0 1-1.3-2.8c-4-69.4 46.7-97.6 47.3-97.9.8-.4 1.8-.6 2.7-.4 2.1.3 51 9.4 71.4 76.2a4 4 0 0 1-5.9 4.8c-1-.5-1.7-1.4-2-2.4-17.2-56.3-55.5-68.3-63.4-70.2-7.6 4.6-45.1 30.6-41.7 89.5a4.1 4.1 0 0 1-3.9 4.3h-.4Z"/><path fill="#431426" d="M1230.7 425a6.9 6.9 0 1 0 0-13.7 6.9 6.9 0 0 0 0 13.8ZM928 776.9a4.1 4.1 0 1 1-.8-8.3c17.8-3.5 17.4-14.5 17.4-14.6a4.1 4.1 0 1 1 8.2-.5c.4 6.4-4.2 19.3-24 23.2l-.8.2Z"/><path fill="#F57162" d="m1845.2 385.5 41 25.9L1998 413l-1 24.3-111.8-1.7-40.9-25.3 1-25Z"/><path fill="#431426" d="m1997 441.6-111.8-1.8c-.7 0-1.4-.2-2-.6l-41-25.2c-.6-.4-1-1-1.4-1.6-.4-.7-.5-1.4-.5-2.1l.9-25a4 4 0 0 1 2.2-3.5 4 4 0 0 1 4.1.2l39.9 25.3 110.7 1.6a4.2 4.2 0 0 1 3 1.3 4 4 0 0 1 1 3l-.8 24.4a4 4 0 0 1-4.2 4Zm-110.5-10 106.7 1.6.6-16.1-107.6-1.6c-.8 0-1.5-.2-2.2-.6l-34.8-22-.6 15.4 38 23.3ZM1921.2 481.2a4.1 4.1 0 0 1-4.2-4.1v-14a4.1 4.1 0 0 1 8.3 0v14a4.1 4.1 0 0 1-4.1 4ZM1956.6 481.2a4.1 4.1 0 0 1-4.1-4.1v-14a4.1 4.1 0 0 1 8.2 0v14a4.1 4.1 0 0 1-4 4ZM1292.1 593.8c-4.5 0-9-1.2-12.9-3.5a4.1 4.1 0 0 1 3-7.6c.5.1 1 .3 1.4.6 1.4.9 13.9 8 24-8a4.1 4.1 0 0 1 7.3 1.4c.3 1 .1 2-.4 3a28 28 0 0 1-17.4 13.5c-1.6.4-3.3.6-5 .6ZM1932 523.5c-1 0-2-.2-3-.6-5.7-2.5-6.8-11.5-2.7-21.4 4.3-10 11.5-15.3 17.3-12.9 5.8 2.5 6.9 11.5 2.8 21.4-3.6 8.3-9.3 13.5-14.4 13.5Zm2-18.7a16.4 16.4 0 0 0-1.6 10.3c3-2 5.2-4.8 6.4-8.2 1.7-3.2 2.2-6.9 1.6-10.4-3 2-5.2 4.9-6.4 8.2ZM1446.3 809.4a4.2 4.2 0 0 1-4-2.7l-5-15a4.2 4.2 0 0 1 .1-3.3 4 4 0 0 1 2.5-2.2 4.1 4.1 0 0 1 5.3 3l5 14.9.2 1.6c0 .6-.3 1-.5 1.6a4.2 4.2 0 0 1-2.5 2l-1.2.1ZM1482.8 794.5a4.1 4.1 0 0 1-3.8-2.6l-5.5-14.2a4.1 4.1 0 0 1 7.6-3l5.7 14.2a4.3 4.3 0 0 1 0 3.2l-1 1.4c-.4.3-.8.6-1.4.8-.5.2-1 .2-1.6.2ZM948.7 944.1a4.1 4.1 0 0 1-3.2-1.6l-7.9-10.2a4.1 4.1 0 0 1 .8-5.7 4.1 4.1 0 0 1 5.7.7l7.9 10.2a4.1 4.1 0 0 1-3.3 6.6ZM982.3 919.3a4.1 4.1 0 0 1-3.3-1.6l-8.8-11.5a4.1 4.1 0 1 1 6.5-5l8.9 11.5a4.1 4.1 0 0 1-3.3 6.6ZM1570 669.9c-.9 0-1.8-.4-2.6-1a4.1 4.1 0 0 1-1.4-2.5l-2.5-16a4.2 4.2 0 1 1 8.2-1.3l2.5 16a4.1 4.1 0 0 1-3.4 4.7h-.7ZM1612.3 661.8a4 4 0 0 1-4-3.5l-2.3-15.8a4.2 4.2 0 0 1 3.6-4.7 4.2 4.2 0 0 1 4.7 3.6l2.2 15.7a4.2 4.2 0 0 1-3.5 4.7h-.7Z"/><path fill="#9CC" d="m1029 913.5-84.2 73.8-48.3 5.7 20.4 26.6 47-7.4 96.5 7.4-12.5-81.6-18.8-24.5Z"/><path fill="#431426" d="M916.9 1023.7a4 4 0 0 1-3.2-1.6l-20.5-26.7a4.1 4.1 0 0 1 2.8-6.5l47-5.5 83.4-73a4.1 4.1 0 0 1 3.1-1 4.1 4.1 0 0 1 2.8 1.6l18.8 24.5c.4.6.7 1.2.8 1.9l12.4 81.6a4.1 4.1 0 0 1-2.6 4.5 4 4 0 0 1-1.7.2l-96-7.4-46.6 7.4h-.5Zm-12.8-27.4 14.6 18.9 44.6-7h1l91.2 7-11.3-75.5-15.6-20.3-81 71c-.6.6-1.4 1-2.2 1l-41.3 4.9Z"/><path fill="#F57162" d="m1482.8 856 7.3 17.5 22-8.7-7.3-17.2-22 8.4Z"/><path fill="#431426" d="M1490 877.6a4.1 4.1 0 0 1-3.8-2.5l-7.2-17.5a4 4 0 0 1 0-3.2 4 4 0 0 1 2.3-2.3l22-8.2a4.1 4.1 0 0 1 5.2 2.2l7.3 17.1a4.1 4.1 0 0 1-.8 4.6l-1.5 1-21.9 8.7c-.5.2-1 .2-1.5.1Zm-1.8-19.3 4.1 10 14.3-5.8-4.2-9.7-14.2 5.5Z"/><path fill="#F57162" d="m1490 873.5 9.8 83.7 58.5 49.6-5.6-76.2-40.7-65.8-22 8.7Z"/><path fill="#431426" d="M1558.3 1011c-1 0-2-.4-2.8-1l-58.5-49.6a4 4 0 0 1-1.4-2.8l-9.7-83.6c0-.9.1-1.8.6-2.6a4 4 0 0 1 2-1.7l22-8.8a4.1 4.1 0 0 1 5 1.7l40.6 65.8c.3.6.5 1.2.6 1.9l5.5 76.3a4 4 0 0 1-4 4.3Zm-54.6-55.9 49.8 42.2-4.8-65.4-38.3-62-15.9 6.3 9.2 79Z"/><path fill="#9CC" d="M1385.3 852.8h44.2l53.3 3.2 22-8.4L1534 813l24.3 70.4-53.5-35.7-22 8.4-29.8 65.2-16.6-48.4-44.9-1.9-6.3-18.1Z"/><path fill="#431426" d="M1453 925.3h-.2a4.1 4.1 0 0 1-3.7-2.8l-15.7-45.6-42-1.9a4.2 4.2 0 0 1-3.8-2.7l-6.3-18.1a4.2 4.2 0 0 1 2-5 4 4 0 0 1 2-.5h44.2l52.6 3.2 20.2-7.7 28.5-34a4 4 0 0 1 7 1.4l24.4 70.5a4.1 4.1 0 0 1-3.8 5.4c-.9 0-1.7-.2-2.4-.7l-51.8-34.5-18.3 7-29 63.6c-.4.7-1 1.3-1.6 1.8-.7.4-1.5.6-2.3.6Zm-58.5-58.4 42 1.8a4 4 0 0 1 3.7 2.8l13.3 38.6 23-50.4-47.3-2.7H1391l3.5 9.9Zm116.3-20.1 39.6 26.3-18-52-21.6 25.7Z"/><path fill="#431426" d="M1399.9 1978.7a4 4 0 0 1-3.8-2.7 4.1 4.1 0 0 1 1-4.5c30.7-27.7 51.9-41.8 73.1-48.7 27.5-8.8 61.2 0 93.9 8.5 31.2 8.2 63.6 16.5 88.4 8.8 29.8-9.2 59.1-40 87.5-69.7 28.3-29.8 57.8-60.7 88.7-71.1 29.9-10 69.8-3.3 108.5 3.2 38.6 6.4 78 13 106.2 3 25.9-9.4 57.4-38.5 87.8-66.6 32-29.6 65.1-60 93.5-69.6a4.1 4.1 0 0 1 5.3 2.5 4.1 4.1 0 0 1-2.5 5.3c-26.7 9-59.2 38.9-90.6 67.8-31.4 29-63.3 58.4-90.7 68.2-30.2 11-71 4-110.4-2.6-37.7-6.3-76.6-12.8-104.5-3.4-29 9.7-57.6 39.8-85.4 68.9-29 30.5-59.2 62-91 72-27 8.3-60.5-.4-93-8.8-31.5-8.2-64.2-16.7-89.2-8.6-20 6.5-40.3 20-70 47-.8.7-1.8 1-2.8 1ZM1306 1919.3a4.1 4.1 0 0 1-3.4-6.3c.5-.8 1.3-1.5 2.3-1.7 28-8.6 53.2-37.9 77.6-66.1 24.4-28.2 50-58 79.6-67.9 28.3-9.5 66.5-2.2 103.5 5 36.9 7 74.4 14.3 101 4.7 24.2-8.8 45.3-35.8 65.8-62 21.6-27.6 44-56.2 71-65.3 26.2-8.7 59.2.5 91.2 9.5 30.5 8.5 62 17.3 85.7 9.7 27.9-9 53.5-39.7 78.3-69.4 25.5-30.8 52.1-62.5 82.6-72.2 25-7.8 58.5-7 108.7 2.8a4 4 0 0 1 2.7 1.7 4 4 0 0 1 .7 3.1c-.1.6-.3 1-.7 1.5a4.1 4.1 0 0 1-4.4 1.7c-48.6-9.4-81-10.3-104.5-3-28.2 8.9-54 39.8-79 69.7-25.5 30.6-51.9 62.2-82 72-26 8.4-58.8-.8-90.6-9.7-30.8-8.6-62.6-17.5-86.3-9.6-24.7 8.3-46.3 35.9-67.2 62.6-20.8 26.6-43 55-69.5 64.6-28.6 10.4-67.6 2.8-105.3-4.4-35.9-6.9-73-14-99.3-5.2-27.3 9.2-52.1 37.8-75.9 65.5-25.1 29.1-51.1 59.2-81.4 68.6l-1.1.1ZM1194.2 1764.5a4 4 0 0 1-3-1.3 4.1 4.1 0 0 1 0-5.8c34.8-34.5 62-54.6 83.3-61.4 25.6-8.3 57.6 1.1 88.7 10.3 29.5 8.7 60 17.7 83.1 10.6 27.7-8.5 54.7-38.5 80.7-67.4 26-29 53.3-59.1 82.3-68.9 28-9.4 65.9-1.9 102.4 5.4 36.5 7.2 73.5 14.6 99.8 5 23.8-8.5 44.6-35.6 64.7-61.5 21.2-27.5 43.2-56 70-65 25.8-8.6 58.5.8 90.1 9.9 30.2 8.6 61.4 17.6 84.7 10 27.5-8.8 47.4-32.9 70.3-60.9l13.4-16a4.1 4.1 0 0 1 5.8-.5 4.1 4.1 0 0 1 .5 5.8l-13.3 16c-23.8 28.9-44.4 53.9-74 63.5-25.8 8.2-58.2-1-89.5-10-30.5-8.8-62-17.8-85.3-10-24.5 8.3-45.6 35.7-66.1 62.2-20.8 27-42.4 54.9-68.6 64.3-28.3 10.3-67 2.8-104.3-4.8-35.4-7-72.1-14.3-98-5.5-27 9-53.4 38.5-78.8 66.6-26.8 29.8-54.5 60.6-84.4 69.8-25.4 7.8-57.1-1.6-87.8-10.6-29.8-8.8-60.6-17.9-83.8-10.4-20.1 6.5-46.3 26-80 59.5-.8.7-1.8 1-3 1Z" opacity=".1"/><g fill="#431426" opacity=".1"><path d="M1851.2 1408.8a4 4 0 0 1-3.9-2.8c-.2-.5-.2-1-.2-1.6 0-.5.2-1 .4-1.6.3-.4.6-.9 1-1.2a720 720 0 0 0 43.9-43.2c31.6-32.8 64.2-66.6 100-78 72-23 172.6 2.8 176.9 3.8 1 .3 2 1 2.5 2a4.1 4.1 0 0 1-4.6 6c-1-.3-102.5-26.2-172.4-4-33.7 10.8-65.6 44-96.5 76a735.2 735.2 0 0 1-44.5 43.6 4 4 0 0 1-2.6 1Z"/><path d="M1765.6 1446.6c-22.4 0-46.7-4.9-70.4-9.6-9.1-1.8-18.6-3.7-27.7-5.3a4.1 4.1 0 0 1-3.4-3.2 4.3 4.3 0 0 1 .5-3.1 4 4 0 0 1 2.6-1.9c.5 0 1-.1 1.6 0 9.3 1.6 18.8 3.5 28 5.3 35.2 7 71.6 14.3 100 5 16-5.2 32.4-15.5 51.7-32.4a4.1 4.1 0 0 1 5.8.4c.8.8 1.1 1.9 1 3 0 1-.5 2.1-1.3 2.8-20.2 17.7-37.5 28.5-54.6 34-11 3.5-22.4 5.1-33.8 5Z"/><path d="M1140 1600.7a4.1 4.1 0 0 1-4.2-4.5c.1-1 .7-2 1.5-2.8 19.2-16 32-23.5 50.5-29.8 33.3-11.2 77.2-5.9 119.6-.7 42.4 5.1 86.2 10.4 118-1 29-10.4 55.3-39.3 80.7-67.3 26.6-29.3 54-59.5 85.8-70.2 24.2-8.2 52.5-5 76.8-.8a4.1 4.1 0 0 1 3.4 3.2 4.3 4.3 0 0 1-.5 3.2 4.2 4.2 0 0 1-2.6 1.8c-.5.1-1 .2-1.6 0-23.5-4-50.5-7-72.9.5-29.7 10-56.5 39.5-82.3 68-25.9 28.4-53 58.3-83.9 69.3-33.6 12.1-78.5 6.7-121.8 1.4-41.5-5-84.5-10.2-116 .4-17.7 6-29.3 13-47.8 28.4a4 4 0 0 1-2.8 1Z"/></g><path fill="#431426" d="M1281 1436.8c-22 0-45.8-5.7-69.1-11.2-33-7.8-67-15.8-93.3-7.3a90.3 90.3 0 0 0-29.9 15c-.9.7-2 1-3 .7a4.1 4.1 0 0 1-3.4-4.8c.2-1 .8-2 1.7-2.6a98.2 98.2 0 0 1 32-16.1c28.6-9.3 63.8-1 97.8 7 32.6 7.8 66.3 15.7 92.5 7.6 31.4-9.8 62.5-41.2 92.7-71.6 30.2-30.5 61.2-61.7 93.6-72.7 31.3-10.5 73-4.4 113.2 1.5 40.2 6 81.4 12 111.2 1.3 27-9.7 51.3-37.9 74.7-65.1 24.7-28.6 50-58.2 79.9-68.2 28.8-9.7 64.7-1.5 99.4 6.4 33.3 7.7 67.8 15.6 94.2 7 19.9-6.5 30.7-13.6 50.3-33.2a4.1 4.1 0 0 1 5.8 5.8c-20.4 20.4-32.5 28.3-53.5 35.2-28.7 9.3-64.2 1.2-98.7-6.7-33.6-7.7-68.3-15.7-94.9-6.8-27.7 9.4-52.4 38-76.2 65.9-23.9 27.8-49.1 57-78.2 67.5-31.7 11.4-74.1 5.2-115.3-.9-39.3-5.8-80-11.8-109.3-1.8-30.5 10.3-61 41-90.5 70.7-31 31.1-62.8 63.3-96 73.7-9 2.6-18.4 3.8-27.7 3.7Z" opacity=".1"/><g fill="#431426" opacity=".1"><path d="M1857.5 1081.3c-18.7 0-38.6-5.9-60.7-12.4l-4.3-1.3a4.1 4.1 0 0 1-.8-7.6 4.2 4.2 0 0 1 3.2-.2l4.3 1.2c29.9 8.9 55.7 16.5 78.5 9 27.2-8.7 56.6-40.1 85-70.5 29.3-31.4 59.6-63.9 89.2-73.1a4.1 4.1 0 0 1 4.8 5.8c-.5 1-1.3 1.7-2.3 2-27.5 8.6-57.1 40.3-85.7 71-29.1 31-59.2 63.3-88.4 72.7-7.4 2.3-15 3.5-22.8 3.4ZM1195 1309.5c-20.7 0-44.2-6.5-67-12.8-30.6-8.5-62-17.2-85-9.8a4.2 4.2 0 0 1-3.2-.1 4 4 0 0 1-.8-7 4 4 0 0 1 1.5-.7c25.3-8.3 58 .9 89.6 9.6 30.2 8.3 61.3 17 84 10 27.5-8.4 58.2-39.2 87.9-69 29.6-29.8 60.3-60.4 88.6-70a4.1 4.1 0 0 1 5.5 4.2 4.2 4.2 0 0 1-1.4 2.8c-.4.4-.9.7-1.4.8-26.5 9-56.5 39-85.4 68-30.5 30.5-62 62-91.3 71-7 2.1-14.3 3-21.5 3Z"/></g><g fill="#431426" opacity=".1"><path d="M1807.3 957.7a4.1 4.1 0 0 1-1.3-8c22.2-7.2 33.6-23.8 48-44.7a385.4 385.4 0 0 1 24-32.2 4 4 0 0 1 2.7-1.5 4 4 0 0 1 3 1 4.1 4.1 0 0 1 .5 5.8 386.5 386.5 0 0 0-23.5 31.5c-14.6 21.4-27.4 39.8-52 47.8a4 4 0 0 1-1.4.3ZM1109.2 1197.3c-17.2 0-31.7-7.5-45.9-14.7-18.3-9.4-35.6-18.3-58-11a4 4 0 0 1-3.3-.1 4 4 0 0 1-.8-7 4 4 0 0 1 1.5-.7c25.6-8.3 45.3 1.8 64.4 11.6 18.3 9.3 35.6 18.2 57.8 11.3 27.3-8.4 50.2-34 72.3-58.7 22.1-24.7 45.6-50.9 74.1-60.3a4.1 4.1 0 0 1 5.3 2.5 4.2 4.2 0 0 1-2.6 5.3c-26.4 8.9-48.9 34-70.5 58.2-23 25.5-46.7 52-76 61-6 1.8-12.2 2.7-18.3 2.6Z"/></g><path fill="#431426" d="M1482.2 1995.3a3.4 3.4 0 1 0 0-6.8 3.4 3.4 0 0 0 0 6.8Z"/><path fill="#431426" d="M1423 1945.2a3.4 3.4 0 1 0 0-6.8 3.4 3.4 0 0 0 0 6.8Z" opacity=".1"/><path fill="#431426" d="M1323.8 1918.6a3.4 3.4 0 1 0 0-6.8 3.4 3.4 0 0 0 0 6.8ZM1311.4 1835.8a3.4 3.4 0 1 0 0-6.8 3.4 3.4 0 0 0 0 6.8Z"/><path fill="#431426" d="M1257.3 1811a3.4 3.4 0 1 0 0-7 3.4 3.4 0 0 0 0 7Z" opacity=".1"/><path fill="#431426" d="M1255.7 1848.7a3.4 3.4 0 0 0 0-6.8 3.4 3.4 0 1 0 0 6.8ZM1116.2 1456a3.4 3.4 0 1 0 0-6.7 3.4 3.4 0 0 0 0 6.8Z"/><path fill="#431426" d="M1004 1124.4a3.4 3.4 0 1 0 0-6.9 3.4 3.4 0 0 0 0 6.9Z" opacity=".1"/><path fill="#431426" d="M1031.1 1200a3.4 3.4 0 0 0 0-6.9 3.4 3.4 0 0 0 0 6.9ZM1041.7 1132a3.4 3.4 0 1 0 0-6.7 3.4 3.4 0 0 0 0 6.8Z"/><path fill="#431426" d="M2261 1585.2a3.4 3.4 0 1 0 0-6.8 3.4 3.4 0 0 0 0 6.8Z" opacity=".1"/><path fill="#431426" d="M1549.6 1115.6a3.4 3.4 0 1 0 0-6.8 3.4 3.4 0 0 0 0 6.8ZM1584.9 1214a3.4 3.4 0 1 0 0-6.8 3.4 3.4 0 0 0 0 6.8ZM1521 1216.5a3.4 3.4 0 1 0 0-6.8 3.4 3.4 0 0 0 0 6.8Z"/><path fill="#431426" d="M1383.6 1127.3a3.4 3.4 0 1 0 0-6.9 3.4 3.4 0 0 0 0 6.9Z" opacity=".1"/><path fill="#431426" d="M1424 1158.2a3.4 3.4 0 1 0 0-6.9 3.4 3.4 0 0 0 0 6.9ZM1704 932.3a3.4 3.4 0 1 0 0-6.8 3.4 3.4 0 0 0 0 6.8Z"/><path fill="#431426" d="M1844.3 772.4a3.4 3.4 0 1 0 0-6.8 3.4 3.4 0 0 0 0 6.8Z" opacity=".1"/><path fill="#431426" d="M1852.1 830.4a3.4 3.4 0 1 0 0-6.8 3.4 3.4 0 0 0 0 6.8ZM1997.7 726.5a3.4 3.4 0 1 0 0-6.8 3.4 3.4 0 0 0 0 6.8Z"/><path fill="#431426" d="M2007.3 779.3a3.4 3.4 0 1 0 0-6.9 3.4 3.4 0 0 0 0 6.9Z" opacity=".1"/><path fill="#431426" d="M1275.4 766.7a3.4 3.4 0 1 0 0-6.8 3.4 3.4 0 0 0 0 6.8ZM1263.9 797.2a3.4 3.4 0 1 0 0-6.8 3.4 3.4 0 0 0 0 6.8Z"/><path fill="#431426" d="M1285.8 794.5a3.4 3.4 0 1 0 0-6.8 3.4 3.4 0 0 0 0 6.8Z" opacity=".1"/><path fill="#431426" d="M982.3 1088.3a3.4 3.4 0 1 0 0-6.8 3.4 3.4 0 0 0 0 6.8ZM1706.3 1600.8a3.4 3.4 0 1 0 0-6.9 3.4 3.4 0 0 0 0 6.8Z"/><path fill="#431426" d="M1748 1652.8a3.4 3.4 0 1 0-.1-6.9 3.4 3.4 0 0 0 0 6.9Z" opacity=".1"/><path fill="#431426" d="M1647.4 1704.8a3.4 3.4 0 1 0 0-6.8 3.4 3.4 0 0 0 0 6.8ZM1672.3 1774.3a3.4 3.4 0 1 0 0-6.7 3.4 3.4 0 0 0 0 6.8Z"/><path fill="#431426" d="M1731.6 1567.2a3.4 3.4 0 1 0 0-6.8 3.4 3.4 0 0 0 0 6.8Z" opacity=".1"/><path fill="#9CC" d="m1575 600.6 30.7-82.4-30.6 15.7-23.8-27-15.4 22.8-19-16.7-14 30.4-22.9-4.8 23 52.5 72 9.5Z"/><path fill="#431426" d="M1575 604.7h-.5l-72.1-9.5a4.1 4.1 0 0 1-3.3-2.5l-23-52.5c-.2-.7-.3-1.5-.2-2.2 0-.8.4-1.5.9-2a4.3 4.3 0 0 1 4-1.5l19.7 4.2 12.6-27.4a4.1 4.1 0 0 1 6.5-1.4l15.4 13.8 12.8-19a4 4 0 0 1 5.2-1.6 4 4 0 0 1 1.5 1.2l21.7 24.7 27.7-14.5a4.2 4.2 0 0 1 4.6.6 4.2 4.2 0 0 1 1.2 4.5L1579 602a4.1 4.1 0 0 1-4 2.8Zm-69.2-17.4 66.5 8.8 25.9-69.4-21.2 11a4.1 4.1 0 0 1-5-1l-20.2-23.1-12.5 18.4c-.3.5-.7.9-1.2 1.2a4.1 4.1 0 0 1-4.9-.4l-14.8-13-11.7 25.3a4.1 4.1 0 0 1-4.6 2.3l-15-3.1 18.7 43Z"/><path fill="#431426" d="M1512.2 579.3a4 4 0 0 1-4-3l-9.3-31.7a4.1 4.1 0 0 1 7.9-2.3l9.3 31.8a4.1 4.1 0 0 1-3.9 5.2ZM1535 574.5a4.1 4.1 0 0 1-3.7-2.6 4 4 0 0 1-.3-1.6l.9-40.7a4 4 0 0 1 1.2-2.9 4 4 0 0 1 3-1.1 4.1 4.1 0 0 1 4 4.2l-.9 40.7-.3 1.6a4.2 4.2 0 0 1-3.9 2.4ZM1558.9 576.5a4.3 4.3 0 0 1-3-1.3c-.4-.4-.7-.8-1-1.4a4 4 0 0 1 .2-3.2l16.2-38.4a4 4 0 0 1 3.8-2.7 4.1 4.1 0 0 1 4 2.6 4 4 0 0 1-.2 3.3l-16.3 38.4a4.2 4.2 0 0 1-3.7 2.7Z"/><path fill="#431426" d="M1718.4 1684.3a3.4 3.4 0 1 0 0-6.8 3.4 3.4 0 0 0 0 6.8ZM1711.6 1652.8a3.4 3.4 0 1 0 0-6.8 3.4 3.4 0 0 0 0 6.8ZM1698.5 1724.1a3.4 3.4 0 1 0 0-6.8 3.4 3.4 0 0 0 0 6.8Z" opacity=".1"/><path fill="#F57162" d="M1164 1473.9s-5.5 11.2-49.3-.8c-50.4-13.7-31.3 147.7 32.7 141.3 25.1-2.5 16.3-30 44.4-33.2L1164 1474Z"/><path fill="#431426" d="M1143.8 1618.7c-17.4 0-33.3-11.5-44.9-32.8-19.2-35.2-22.8-89.2-7-109.1a21.3 21.3 0 0 1 23.8-7.6c36.7 10 44.3 3 44.8 2.5a4.1 4.1 0 0 1 7.6 2.4c0 .5-.1 1-.4 1.5-1.6 3.4-10.3 13.4-54.2 1.5a13.4 13.4 0 0 0-15.2 4.8c-13.7 17.4-9.8 68 7.8 100 7.7 14.1 21 30.3 40.9 28.4 10.1-1 13.4-6.6 17.5-13.7 4.6-7.8 10.3-17.6 26.8-19.5a4.1 4.1 0 0 1 1 8.3c-12.5 1.4-16.2 7.9-20.7 15.4-4.4 7.6-9.5 16.3-23.8 17.8l-4 .1Z"/><path fill="#FFEAB9" d="M1068.3 1576.8a227 227 0 0 1-127-37.7 232.6 232.6 0 0 1-71.6-74.4 23.3 23.3 0 0 1 41-22.4c3 5.5 74.5 130.4 241.4 72.7a23.3 23.3 0 1 1 15.3 44.1 302.3 302.3 0 0 1-99 17.7Z"/><path fill="#431426" d="M1068.3 1580.9c-46 .4-91-13-129.3-38.4a237.4 237.4 0 0 1-73-76 27.4 27.4 0 0 1 48.3-26.3c2.8 5.2 72.7 127.3 236.4 70.8a27.4 27.4 0 0 1 18 51.8 307.6 307.6 0 0 1-100.4 18Zm-178.2-146.7a19 19 0 0 0-14.8 7.1 19.2 19.2 0 0 0-2 21.3 228.7 228.7 0 0 0 70.2 73c37 24.6 80.5 37.5 124.8 37 33.3-.3 66.3-6.2 97.6-17.4a19.2 19.2 0 0 0-12.5-36.3c-27.3 9.8-56 15-85.1 15.4a188 188 0 0 1-161.2-90 19.2 19.2 0 0 0-17-10Z"/><path fill="#F57162" d="M1132 1580.4c11.5-90.3-22.8-76.8-25.7-66.5l72.3-35.8 20.2 86.8-66.8 15.5Z"/><path fill="#431426" d="M1132 1584.5h-.6a4.1 4.1 0 0 1-3.5-4.6c6.2-48.4-1.2-67.5-9.5-69.1a7.9 7.9 0 0 0-8.2 4.3 4 4 0 0 1-2 2.5 4 4 0 0 1-1.5.5c-.5 0-1 0-1.6-.2a4 4 0 0 1-3-3.5c0-.5 0-1 .2-1.5a15.9 15.9 0 0 1 17.7-10.2c9.5 2 24.1 14.6 16 78.2a4 4 0 0 1-4 3.6Z"/><path fill="#FFFAF4" d="M910.5 1410.8s33.1-12.5 39.8 13c6.6 25.6-43.6 38.4-53 52.2-9.5 13.7-36.5 62.9-50.7 42.5-14.2-20.3-3.8-42.6-3.8-42.6s-53.5 7.6-80.5-17c-27-24.7-55.4-53-76.2-66.3-20.8-13.3-92.8-39.8-73.9-73.9 23.6-42.5 91.9 29.9 91.9 29.9s-14.2-44 33.1-36c0 0-7.5-37 27.5-36 0 0-82-76.2-44.5-101.8 35-24 53.4 27 66.2 57.7 12.8 30.8 31.3 57.5 44.5 52.9 13.3-4.6 37.4-101.3 83.4-50.1 6.8 7.5-35.5 36.2-20.9 78.2 10.8 31.3 32.8 55.7 17 97.3Z"/><path fill="#431426" d="M854.6 1527.5a13.7 13.7 0 0 1-11.4-6.6 47.6 47.6 0 0 1-6.4-40.2c-15.6 1.2-54.7 1.9-77.3-18.8l-19-17.7c-21.1-19.6-41-38.2-56.6-48.2-4-2.4-9.8-5.4-16.5-9-23.2-11.8-54.9-28.2-61.3-49.3a26.2 26.2 0 0 1 2.5-21 27.7 27.7 0 0 1 21.3-15.3c23.2-2.7 53.3 21.6 68.1 35.4a29.6 29.6 0 0 1 6.1-20.7c5.9-6.8 15.4-9.6 28.4-8.3a37 37 0 0 1 7-25.8c4-4.7 9.7-7.9 15.8-8.9-15.2-15.3-51-54.6-49-82a25.3 25.3 0 0 1 11.6-19.8c9.4-6.4 18.6-8.4 27.4-5.8 20.8 6.3 33.2 36.4 43.1 60.6l2 4.8c13.3 32 30.2 53.7 39.4 50.5 2.3-1 7.6-10.7 11.5-17.9 10.2-18.9 24.1-44.8 44.2-47.1 10.6-1.3 21.3 4.1 32 16 4.5 5 .2 11.4-5.7 20.1-9.3 13.5-23.2 34-14.3 59.6 2.5 7.3 5.7 14.3 8.8 21 9.5 20.8 19.2 42.2 10.7 71.6 6.9-1.4 17-2.3 25.3 2a23.8 23.8 0 0 1 12.1 16c5.1 19.8-16.8 32.2-34.4 42.2-8.5 4.8-16.4 9.3-19.2 13.3l-4.8 7.4c-13.4 21-27.6 41.6-40.9 41.9h-.5Zm-11.8-55.7c.6 0 1.3.2 1.8.4a4.2 4.2 0 0 1 2.3 3.3c0 .7 0 1.5-.4 2.2-.4.8-9.2 20.4 3.4 38.4 2 2.7 3.7 3 4.8 3 10-.1 26.3-25.7 34.2-38 1.9-3 3.6-5.7 5-7.6 3.8-5.5 12.2-10.3 21.9-15.8 16-9.1 34-19.3 30.5-33a15.6 15.6 0 0 0-8-10.8c-10.3-5.4-26.2.5-26.3.6a4.1 4.1 0 0 1-5.5-3c-.2-.8-.1-1.6.2-2.3 11.3-30.2 2-50.8-8-72.7-3.2-7-6.5-14.2-9.1-21.8-10.3-29.5 5.7-53 15.2-66.9 2.4-3.2 4.5-6.6 6-10.3-8.6-9.6-16.8-14-24.5-13-15.8 1.8-28.6 25.5-38 42.8-7 13.2-11 20.2-16 21.9-1.4.4-3 .7-4.4.7-16.2 0-33.6-28-45.2-55.9l-2-4.9c-8.8-21.4-20.9-50.7-38-55.7-6.2-2-12.8-.4-20.2 4.6a17.1 17.1 0 0 0-8 13.6c-2.2 30.2 52.4 81.3 53 81.8a4.1 4.1 0 0 1 1 4.6 4 4 0 0 1-4 2.6c-8.5-.3-14.8 2-18.7 6.6-7.6 9-4.6 24.3-4.5 24.4a4.2 4.2 0 0 1-1.1 3.7 4 4 0 0 1-1.7 1 4 4 0 0 1-2 .2c-12.7-2.1-21.6-.5-26.2 4.9-7.5 8.7-2.4 25.6-2.3 25.8a4.1 4.1 0 0 1-1.8 4.8 4 4 0 0 1-5.1-.8c-.5-.4-43-45.1-70.1-41.7a19.5 19.5 0 0 0-15.2 11 18 18 0 0 0-1.8 14.6c5.5 17.8 36.5 33.8 57.1 44.4 7 3.6 13 6.7 17.2 9.4 16.3 10.3 36.4 29.2 57.8 49 6.3 6 12.7 12 19 17.7 25.2 23 76.6 16 77.1 16l.6.2Z"/><path fill="#431426" d="M764 1406.1c-1.5 0-2.9-.1-4.3-.3-29.2-4.4-58-53.1-59.2-55.2a4.1 4.1 0 0 1 4.6-6c.5.1 1 .3 1.4.7.5.3.8.7 1 1.2.4.4 28 47.4 53.4 51.1a18.6 18.6 0 0 0 16.2-5.4 20.9 20.9 0 0 0 7.7-15c.2-9.7-7.7-17.7-7.8-17.8a4.2 4.2 0 0 1 2.9-7c1 0 2.1.3 2.9 1 0 .2 14.1 13.2 27.1 11.6a19.1 19.1 0 0 0 13.7-9.6 21.4 21.4 0 0 0 2.8-18.3c-7.8-28.8-63.1-56.6-63.8-57a4 4 0 0 1-2.1-5.6 4 4 0 0 1 2.5-2.1 4.1 4.1 0 0 1 3.3.4c2.4 1.2 59.3 29.8 68 62.2a29.5 29.5 0 0 1-3.9 24.9 27.5 27.5 0 0 1-19.8 13.3c-6.5.5-13-.8-18.8-3.7a27.3 27.3 0 0 1-9.3 28.7c-5 5-11.6 7.8-18.5 7.9Z"/><path fill="#431426" d="M788 1369a4 4 0 0 1-3-1.3l-50.8-52.3a4.2 4.2 0 0 1-1.2-3 4.1 4.1 0 0 1 5.8-3.7c.5.3 1 .6 1.3 1L791 1362a4.1 4.1 0 0 1-3 7ZM842.8 1480a4.1 4.1 0 0 1-4.5-3.7 4.1 4.1 0 0 1 3.7-4.5c.8 0 17.4-3.8 28.2-27 .5-.9 1.3-1.7 2.4-2a4.1 4.1 0 0 1 5.1 5.6c-12.7 27.2-33.3 31.3-34.2 31.5l-.7.1ZM819.2 1297.5a4.1 4.1 0 0 1-4.5-3.8 4.1 4.1 0 0 1 3.9-4.4c5-.8 10-6 11.4-8a4 4 0 0 1 2.7-1.5c.5-.1 1 0 1.6 0a4.1 4.1 0 0 1 2.3 6.5c-.3.4-7.4 9.7-16.8 11.1l-.6.1ZM1541 1372.4c-.8 0-1.7-.2-2.4-.7a4.1 4.1 0 0 1-1.5-2l-5.9-18.1a40.4 40.4 0 1 1 76.8-25.1l6 18a4.1 4.1 0 0 1-7.9 2.6l-6-18a32.1 32.1 0 1 0-61 20l5.9 18a4.2 4.2 0 0 1-2.8 5.2c-.4.1-.8.2-1.2.1ZM1776.8 1288.3a4 4 0 0 1-2.4-.8 4 4 0 0 1-1.6-2l-5.8-18a40.4 40.4 0 0 1 76.8-25.1l5.9 18a4.1 4.1 0 0 1-4.2 5.5 4 4 0 0 1-2.9-1.5 4 4 0 0 1-.7-1.4l-6-18a32.2 32.2 0 0 0-61 19.9l5.8 18a4.2 4.2 0 0 1-1.3 4.5 4 4 0 0 1-1.4.8h-1.2Z"/><path fill="#BE6956" d="m1852.3 1392.5 5.6 14a81.6 81.6 0 0 1-45.5 106.1l-59 23.7a81.6 81.6 0 0 1-106.1-45.4l-5.7-14a39.5 39.5 0 0 1 30.9-53.9l27.5-4.2 6.2-1c21-3.2 41.1-11.2 58.6-23.4l5.2-3.6h.1l22.7-15.9a39.6 39.6 0 0 1 59.4 17.8v-.2Z"/><path fill="#431426" d="M1723 1546.3a85.8 85.8 0 0 1-79.5-53.8l-5.6-14.1a43.1 43.1 0 0 1 6.6-43.8c6.8-8.5 16.6-14 27.4-15.7l27.2-4h.3l6.3-1c20.4-3.2 39.8-11 56.8-22.8l5.2-3.6.2-.2 22.6-16a43.7 43.7 0 0 1 65.7 19.7l5.6 14a85.7 85.7 0 0 1-47.6 111.4l-59.4 23.7c-10 4-20.8 6.2-31.7 6.2Zm-22.3-123.5h-.3l-27.3 4.2a35.4 35.4 0 0 0-27.6 48.3l5.6 14a77.4 77.4 0 0 0 100.7 43.2l59.1-23.7A77.5 77.5 0 0 0 1854 1408l-5.5-14a35.5 35.5 0 0 0-53.3-15.9l-22.6 15.9h-.2l-5.2 3.6a143.3 143.3 0 0 1-60.3 24.1l-6.2 1.1Z"/><path fill="#FFFAF4" d="m1770.9 1392.7 2 4.8a37.7 37.7 0 0 1-35.4 53.3 37.7 37.7 0 0 1-34.8-25.2l-2-4.8a71 71 0 0 1-.6-2l6.2-1c21-3.2 41.1-11.2 58.6-23.4l5.2-3.7.8 2Z"/><path fill="#FFFAF4" d="M1845.7 1381.6a37.8 37.8 0 0 1-72.9 16l-1.9-4.9-.7-2 22.6-16a39.6 39.6 0 0 1 52.9 6.9ZM1700.7 1420.8l2 4.8a37.8 37.8 0 0 1-63.8 38.7 39.6 39.6 0 0 1 33.6-41.3l27.5-4.2.7 2Z"/><path fill="#431426" d="M1737.8 1453.5a42 42 0 0 1-39-26.4l-1.9-4.8-.8-2.3a4 4 0 0 1-.2-1.8c.1-.6.3-1.1.6-1.6a4 4 0 0 1 2.8-1.9l6.2-1a135 135 0 0 0 56.8-22.7l5.2-3.6c.5-.4 1-.6 1.7-.7h1.7a4.1 4.1 0 0 1 2.8 2.2l1 2.3 2 4.8a42 42 0 0 1-38.8 57.7l-.1-.2Zm-32.1-31.4.8 2a33.7 33.7 0 1 0 62.6-25.2l-.8-2-1 .7a143.3 143.3 0 0 1-60.4 24.2l-1.2.3Z"/><path fill="#431426" d="M1808 1425.4a41.9 41.9 0 0 1-39-26.4l-2-4.8a24 24 0 0 1-.8-2.3 4.1 4.1 0 0 1 1.6-4.6l22.7-16a43.5 43.5 0 0 1 58.4 7.5c.6.8 1 1.6 1 2.5a41.7 41.7 0 0 1-41.8 44h-.1Zm-33-33.2 1.8 3.8a33.6 33.6 0 0 0 65-12.7 35.4 35.4 0 0 0-46.5-5l-20.3 13.9ZM1667.6 1481.6a42 42 0 0 1-31.8-14.5c-.6-.7-1-1.6-1-2.5a43.5 43.5 0 0 1 37.1-45.7l27.4-4.2a4.1 4.1 0 0 1 4.4 2.3l1 2.3 2 4.8a42 42 0 0 1-39.1 57.5Zm-24.7-18.9a33.8 33.8 0 0 0 55.8-35.6l-1.5-3.6-24.2 3.7a35.3 35.3 0 0 0-30 35.5h-.1Z"/><path fill="#FF89A4" d="M1666.4 1520.6a70 70 0 0 1 39-36.4c28.6-10.4 50.6-2.8 50.6-2.8s23.4-33 68.8-18.6c45.5 14.4 110.2 101.2 113 197.6 2.7 96.4-43.5 170.1-144 153.5-100.5-16.6-69.5-75.7-59.1-100.5 10.3-24.8 35.9-60.4 16.7-112.2-25-67.5-85-80.6-85-80.6Z"/><path fill="#431426" d="M1821.3 1820.4c-9.5 0-18.9-.9-28.2-2.5-36.2-5.9-59.6-18.2-69.6-36.4-12.7-23-1.2-49.8 5.6-65.9l1.7-3.9c1.7-4 3.8-8.4 6-13 11.7-24.2 26.2-54.3 10.7-96.1a124.5 124.5 0 0 0-82-78 4.1 4.1 0 0 1-2.9-5.5 73.4 73.4 0 0 1 41.4-38.9c16.1-6 33.7-7.3 50.5-3.6a65.7 65.7 0 0 1 71.5-17.8c45.3 14.4 112.9 100 115.8 201.4 1.7 59-14.6 106.5-46 133.8-19.9 17.6-45 26.4-74.5 26.4Zm-149-302.4a132 132 0 0 1 82.9 81.7c16.7 45.2.7 78.4-11 102.6-2.2 4.5-4.2 8.8-5.8 12.7l-1.7 4c-6.7 15.5-16.8 39-6 58.5 8.7 16 30.2 26.8 63.8 32.3 39.5 6.5 71.9-.8 96-22 29.4-25.6 44.7-70.9 43-127.4-2.7-96.3-68-180.4-110-193.7-42-13.4-63.2 15.8-64.2 17.2a4.1 4.1 0 0 1-4.7 1.5 79 79 0 0 0-47.8 2.7 66 66 0 0 0-34.5 29.9Z"/><path fill="#431426" d="M1829.3 1777.5a4 4 0 0 1-4.1-3.9c-.1-1 .3-2.1 1-3 .6-.7 59.8-69.5 26-169-33.7-99.4-96.6-116-97.3-116.1-1-.3-2-1-2.5-1.9a4.1 4.1 0 0 1 4.5-6.1c2.7.7 67.8 17.4 103.1 121.5 35.3 104-27 176.4-27.7 177a4 4 0 0 1-3 1.5Z"/></svg>
