<svg xmlns="http://www.w3.org/2000/svg" width="3000" height="3000" fill="none"><path fill="#FFEAB9" d="M1344.3 2387.3a24.3 24.3 0 0 1-24.3-24.4v-409.5a24.3 24.3 0 1 1 48.7 0v409.5a24.3 24.3 0 0 1-24.4 24.4Z"/><path fill="#431426" d="M1344.3 2391.5a28.6 28.6 0 0 1-28.6-28.6v-409.6a28.7 28.7 0 1 1 57.3 0v409.6a28.6 28.6 0 0 1-28.7 28.6Zm0-458.3a20 20 0 0 0-20 20V2363a20 20 0 1 0 40 0v-409.6a20 20 0 0 0-20-20Z"/><path fill="#FFEAB9" d="M2018 2267.4c-3 0-6.1-.6-9-1.7-176.7-70.1-234.4-232.2-236.7-239a24.3 24.3 0 0 1 46-16c.5 1.5 53.4 148.1 208.7 209.7a24.3 24.3 0 0 1-9 47Z"/><path fill="#431426" d="M2018 2271.7c-3.6 0-7.2-.7-10.6-2-178.4-70.8-236.8-234.7-239.2-241.6a28.6 28.6 0 1 1 54.1-18.8c.5 1.4 53.1 146.4 206.3 207.1a28.7 28.7 0 0 1-10.6 55.3Zm-222.8-273a20 20 0 0 0-19.9 17.1 20 20 0 0 0 .9 9.5c2.3 6.7 59.4 167 234.3 236.4a20 20 0 1 0 14.8-37.2c-157.1-62.4-210.7-210.8-211.2-212.3a20.2 20.2 0 0 0-18.8-13.5Z"/><path fill="#FF89A4" d="M1503.6 2618.6s-23.1 31.5-123.1 35.8c-100 4.2-139.3-38.2-139.3-38.2 0-11.5.3-28.5 1.2-39.9 6.9-95 42.7-186.1 42.7-186.1s-49.8-42.6 58.6-45.9c125.6-3.6 63 43.7 63 43.7l14.3 32.2 12.2 27.4 2.6 5.7s36.8 20.8 53.5 54.1a172.6 172.6 0 0 1 16 73.2c.1 12.7-.4 25.4-1.7 38Z"/><path fill="#431426" d="M1366.6 2659c-90.4 0-126.8-38.2-128.4-39.9a4 4 0 0 1-1.2-2.9c0-10.8.3-28 1.2-40 6.2-85.8 36.2-169.5 42-184.9-3.9-4.6-11.8-16-7.3-27.4 5.7-14.8 29-22.5 70.7-23.5 47.6-1.2 73.4 5.3 79 20 4.6 11.8-5.7 24-10.6 29l27.3 61.2c6.8 4 38.5 24.2 54 55.3 13 25.7 16.1 55 16.4 75 .1 12.8-.5 25.5-1.8 38.2 0 .7-.3 1.5-.8 2-1 1.4-25.5 33.3-126.4 37.6-4.8.2-9.5.2-14 .2Zm-121-44.7c7 6.5 47.3 39.5 134.8 35.8 87.4-3.7 114.5-28.7 119.1-33.3 1.2-11.9 1.7-23.8 1.7-35.8-.4-19.2-3.3-47-15.5-71.3-16-31.8-51.5-52.2-51.8-52.4a4.4 4.4 0 0 1-1.8-2l-29.2-65.1a4.3 4.3 0 0 1 1.1-5c4-3.4 13.6-14 10.6-21.6-2.3-6-14.6-16-70.8-14.6-49 1.3-60.5 11.9-63 18-3.7 9.3 7.2 20.1 7.3 20.3a4.3 4.3 0 0 1 1 4.7c-.4 1-35.7 91.7-42.5 184.8-.7 11-1 27-1 37.5Z"/><path fill="#431426" d="M1269.4 2512a4.3 4.3 0 0 1-3.7-2.2 4.3 4.3 0 0 1 .1-4.4c63.5-98.3 170.7-56.2 171.8-55.8.5.2 1 .5 1.4.9a4.3 4.3 0 0 1 1.4 3 4.4 4.4 0 0 1-1.2 3.2 4.4 4.4 0 0 1-3.2 1.2l-1.7-.3c-4-1.7-101.7-39.7-161.3 52.5a4.3 4.3 0 0 1-3.6 2Z"/><path fill="#FFFAF4" d="M1503.6 2618.6s-23.1 31.5-123.1 35.8c-100 4.2-139.3-38.2-139.3-38.2 0-11.5.3-28.5 1.2-39.9 0 0 46.6 41.4 144.3 34.4 96.1-6.9 118-29 118.6-29.8.2 12.6-.4 25.2-1.7 37.7Z"/><path fill="#431426" d="M1366.6 2659c-90.4 0-126.8-38.2-128.4-39.9a4 4 0 0 1-1.2-2.9c0-10.8.3-28 1.2-40a4.3 4.3 0 0 1 4.3-4c1 0 2 .3 2.8 1 .5.4 46.7 40.1 141.2 33.3 93.7-6.7 115.6-28.2 115.8-28.4.6-.7 1.4-1 2.2-1.3a4.4 4.4 0 0 1 4.5 1.8c.5.7.7 1.5.7 2.4.1 12.7-.5 25.5-1.8 38.2 0 .7-.3 1.4-.8 2-1 1.4-25.5 33.3-126.4 37.6l-14 .1Zm-121-44.7c7 6.5 47.3 39.5 134.8 35.8 87.4-3.7 114.5-28.7 119.1-33.3.4-3.7 1.4-15 1.6-27.4-12.6 7.6-44 20.6-114 25.8-78.7 5.7-124.6-19.4-140.8-30.5-.6 9.8-.8 21.5-.7 29.6ZM1395 2398.8a4.3 4.3 0 1 1-.6-8.6 13 13 0 0 0 8.8-4.4 4.4 4.4 0 0 1 6-1 4.3 4.3 0 0 1 1.2 5.6 21 21 0 0 1-14.7 8.2l-.7.2ZM1299.8 2403h-.8c-13.2-2.7-17.2-9.9-17.7-10.7a4.3 4.3 0 0 1 7.6-4c.2.3 2.9 4.4 11.7 6.2a4.3 4.3 0 0 1 3.9 4.7 4.3 4.3 0 0 1-4.7 3.9v-.2Z"/><path fill="#9CC" d="M1312.2 2464.2s-17-72.5-12.4-95.8c4.8-23.8 20.3-45.4 44.6-45.3 31.5 0 53.4 29.8 56.6 56.5 2 16.6 0 65.9 0 65.9-14.7-1-29.4-.7-44 1.2-16 2.5-31.3 8.4-44.8 17.5Z"/><path fill="#431426" d="m1312.2 2468.5-1.5-.3c-.7-.2-1.3-.6-1.8-1.2-.4-.5-.8-1.1-1-1.8-.6-3-17.1-73.7-12.3-97.6 4.5-22.5 20-48.7 48.7-48.7h.2c33.6 0 57.3 30.8 60.9 60.2 2 16.7 0 64.5 0 66.5a4.4 4.4 0 0 1-1.5 3 4.3 4.3 0 0 1-3.2 1c-14.3-1-28.7-.5-43 1.3-15.3 2.4-30 8.1-43 16.7-.7.6-1.6.9-2.5.9Zm32-141.1c-23.4 0-36.3 22.5-40 41.8-3.7 18.4 7 70.4 10.9 88a116.6 116.6 0 0 1 41.4-14.8c13.4-1.8 27-2.3 40.5-1.5a613 613 0 0 0-.2-60.8c-3-25.3-24-52.6-52.4-52.7h-.2Z"/><path fill="#431426" d="M1341 2454.8c-.6 0-1.1 0-1.7-.3-.5-.2-1-.6-1.4-1a4.4 4.4 0 0 1-1.2-3l3.3-127.5a4.4 4.4 0 0 1 3.8-4.2 4.2 4.2 0 0 1 4.7 3.3l31.3 121.3a4.2 4.2 0 0 1-2.2 5c-.6.2-1.3.4-2 .4-6 .2-12 1-17.9 2-5 .8-10.1 2-15 3.7-.5.2-1.1.3-1.7.3Zm6.8-101-2.3 90.8a150.5 150.5 0 0 1 24.7-4.2l-22.4-86.6Z"/><path fill="#FF89A4" d="M2290 2291.2c-39.6 69-109.4 162.6-173.4 159.3-14-.7-28.8-7.3-43.4-17.2-52.3-35.3-96-129.9-96-129.9s-20.8 18.7-38.8-4.3c-18-23 24-54.4 24-54.4s22.5 21.3 42 4a31.2 31.2 0 0 0 7.9-38.1l79.8-7s-14.3-99.5 42.5-136.2c46.2-29.8 127.4-25 174-.5 10 5 18.7 11.7 26 20 33 40.3-5 135.2-44.6 204.3Z"/><path fill="#431426" d="M2120 2455h-3.5c-13.7-.8-29-6.8-45.6-18-46.6-31.5-85.6-107.2-95.2-127a32 32 0 0 1-19 4.8 30.7 30.7 0 0 1-21.6-13 24.7 24.7 0 0 1-5.1-19c2.8-21 29-40.7 30-41.5.8-.6 1.8-.9 2.8-.9 1 .1 2 .5 2.8 1.2.8.8 19.8 18.3 36 3.9a26.8 26.8 0 0 0 7-33 4.3 4.3 0 0 1 1.3-5.6c.6-.4 1.3-.6 2-.7l75.4-6.6c-2.1-20.4-7.2-102.2 45-135.9 48.1-31 131.1-25.4 178.3-.7a87.2 87.2 0 0 1 27.3 21c41.3 50.4-23.4 172.9-44.2 209.2-22 38.4-98.5 161.7-173.8 161.7Zm-142.7-155.8h1a4.3 4.3 0 0 1 2.8 2.4c.4 1 43.8 93.9 94.5 128.2 15.2 10.2 29 15.8 41.2 16.4 71.6 3.7 147.8-119.4 169.4-157.2 41.5-72.4 75.1-162.9 45-199.5a79.1 79.1 0 0 0-24.6-18.8c-44.2-23.2-124.7-28.7-169.7.2-53.9 34.8-40.7 131-40.5 131.8l-.1 1.7a4.3 4.3 0 0 1-2.2 2.7 4 4 0 0 1-1.6.5l-74.1 6.5a35.4 35.4 0 0 1-11.2 37.6c-16 14.3-34.9 6.2-44.8-1.6-6.4 5.3-22.2 19.7-24 33.6a16 16 0 0 0 3.3 12.6c4.7 6 9.9 9.2 15.5 9.7 6.3.2 12.4-2 17.2-6 .8-.6 1.8-.9 2.8-.8h.1Z"/><path fill="#9CC" d="M2092.1 2203.6s-118.2 29.3-116.8-11.8c.7-18.5 21.1-3.6 47.3 2.1 23 4.8 46.2 8 69.5 9.7Z"/><path fill="#431426" d="M2018.2 2217.9c-16.3 0-31.1-2.3-39.5-9a20.3 20.3 0 0 1-7.7-17.3c.2-5.3 1.8-9 5-11.2 6-4.1 14.7-1.1 26.7 3 6.8 2.5 13.8 4.6 20.8 6.3 22.7 4.7 45.6 7.9 68.7 9.5a4.3 4.3 0 0 1 3.3 6.8c-.6.8-1.5 1.4-2.5 1.7-2.3.6-41.5 10.2-74.8 10.2Zm-35.2-30.8c-.7 0-1.5 0-2.1.4-.8.6-1.2 2.2-1.3 4.5a11.7 11.7 0 0 0 4.5 10.2c13.2 10.6 50.3 7.6 79 2.8a457 457 0 0 1-41.4-7c-7.4-1.7-14.7-3.8-21.8-6.4a71.4 71.4 0 0 0-16.9-4.5Z"/><path fill="#FFFAF4" d="M2290 2291.2c-39.6 69-109.4 162.6-173.4 159.3-14-.7-28.8-7.3-43.4-17.2-19.2-43.3 45.9-167 73.8-212 28-45 105-159 161.6-154.4 10 5 18.7 11.7 26 20 33 40.3-5 135.2-44.6 204.3Z"/><path fill="#431426" d="M2120 2455h-3.5c-13.7-.8-29-6.8-45.6-18-.6-.4-1.2-1-1.5-1.8-20.5-46.4 48.3-174.7 74-216.1 30.3-48.7 107-161.2 165.7-156.3a4 4 0 0 1 1.7.4 87.3 87.3 0 0 1 27.2 21c41.4 50.4-23.3 172.9-44.2 209.1-22 38.3-98.6 161.6-173.9 161.6Zm-43.2-24.4a82.7 82.7 0 0 0 40.1 15.6c71.6 3.7 147.8-119.4 169.4-157.1 41.6-72.5 75.1-162.9 45-199.5a77.9 77.9 0 0 0-23.8-18.4c-55.4-3.3-134 115.6-156.7 152.3-31.5 50.3-90.2 166.2-74.1 207h.1Z"/><path fill="#431426" d="M2105.8 2453.2a4.3 4.3 0 0 1-3.8-2.3c-16.3-31.6 9.9-105.2 77.8-219.3 91-153 152.6-149.3 155.2-149a4.3 4.3 0 0 1 3.9 4.7 4.3 4.3 0 0 1-4.7 4c-.8 0-59.7-2-147 144.9-82.5 138.7-87.8 191.2-77.6 210.9a4.4 4.4 0 0 1-1.8 5.7c-.6.3-1.3.4-2 .4ZM2101.6 2237.3a4.3 4.3 0 0 1-3.9-2.4 134.5 134.5 0 0 1-9.9-32.3 4.4 4.4 0 0 1 1.8-3 4.4 4.4 0 0 1 3.4-.6c.6.2 1.2.4 1.6.8a4.3 4.3 0 0 1 1.7 3c2 9.7 5 19.2 9 28.2a4.3 4.3 0 0 1 0 4.2 4.3 4.3 0 0 1-3.8 2ZM1977.4 2307.8a4.6 4.6 0 0 1-4-2.3c-.6-1.2-2.6-6.2-1.7-21.2 0-.6.2-1.2.5-1.7a4.3 4.3 0 0 1 4.1-2.4 4.4 4.4 0 0 1 3 1.5l.8 1.5c.2.5.3 1 .2 1.6a44.9 44.9 0 0 0 1.3 18.4 4.2 4.2 0 0 1-2.3 4.1c-.6.4-1.3.5-2 .5Z"/><path fill="#431426" d="M2311.2 2218c-.9 0-1.8-.3-2.5-.8l-62.2-43.5a4.2 4.2 0 0 1-1.8-2.8 4.3 4.3 0 0 1 6.7-4.3l62.3 43.6a4.3 4.3 0 0 1 1.6 4.8 4.3 4.3 0 0 1-4.1 3ZM2283.8 2272.2c-1 0-1.8-.3-2.6-.8l-69.6-49.6a4.3 4.3 0 0 1 1.7-7.8c1.2-.2 2.3 0 3.3.8l69.5 49.6a4.3 4.3 0 0 1 0 7c-.7.5-1.6.8-2.5.8h.2ZM2251.7 2326.3c-.9 0-1.7-.3-2.4-.7l-73.6-48.9a4.3 4.3 0 0 1-1.9-4.3c.1-.6.4-1.1.7-1.6a4.2 4.2 0 0 1 2.7-1.8 4.3 4.3 0 0 1 3.2.6l73.6 49a4.3 4.3 0 0 1 1.8 2.7c.2.5.2 1.1 0 1.7 0 .5-.3 1-.6 1.5-.4.6-1 1-1.5 1.3-.7.3-1.3.5-2 .5ZM2218 2375.8c-.8 0-1.6-.2-2.3-.7l-66-42.8c-1-.6-1.7-1.6-2-2.7a4.3 4.3 0 0 1 3.4-5.1c1-.3 2.3 0 3.2.6l66 43c.6.3 1 .6 1.3 1.1a4.3 4.3 0 0 1 0 4.8 4.3 4.3 0 0 1-3.5 1.8ZM2178 2416c-.7 0-1.4-.3-2-.6l-52.2-28.7a4.3 4.3 0 0 1-2-2.5 4.3 4.3 0 0 1 1.4-4.6 4.4 4.4 0 0 1 3.2-.9c.5 0 1 .3 1.6.5l52 28.7a4.3 4.3 0 0 1 2.1 4.8 4.3 4.3 0 0 1-4.1 3.2ZM2329.2 2164.4c-.8 0-1.7-.3-2.4-.7l-45.5-31.3a4.5 4.5 0 0 1-1.8-2.8v-1.7l.7-1.5a4.4 4.4 0 0 1 6-1.1l45.5 31.2a4.3 4.3 0 0 1 .1 7c-.8.6-1.7.8-2.6.8v.1Z"/><path fill="#FFEAB9" d="M1893.6 1262.8c-38.7 0-77.1-6.3-113.8-18.6a24.4 24.4 0 0 1 16.7-45.8c33.8 11 69.2 16.3 104.7 15.5 73-2 127.7-32.3 162.8-90a24.3 24.3 0 0 1 41.6 25.3c-44 72.3-114.6 111.6-204.7 113.6h-7.3Z"/><path fill="#431426" d="M1893.6 1267.2c-39.2-.1-78.1-6.5-115.3-19a28.6 28.6 0 0 1 19.7-53.7c33.3 10.7 68.1 15.9 103.1 15.3 71.4-2 125-31.6 159.2-88a28.6 28.6 0 1 1 49 29.7C2064.6 1225 1992.5 1265 1901 1267h-7.4Zm-105.4-66a20 20 0 0 0-7 39c38.6 12.8 79 19 119.6 18.2 88.5-2 158-40.5 201.1-111.4a20 20 0 0 0-14.1-30.3 20 20 0 0 0-20.3 9.4c-35.9 59.1-91.8 90.1-166.3 92.2-36 .8-72-4.6-106.2-15.8-2.2-.8-4.6-1.2-7-1.2h.2Z"/><path fill="#FFFAF4" d="M2043.5 1098.2a82.6 82.6 0 0 1-14.3-46.2c0-27.4 3-39.7-21.2-61.5-24.2-21.7-32.8-44.9-5.2-61.5 27.7-16.6 66 55.2 66 55.2s49.6-55.8 75.5-46.9c23 8 19.7 25.6 19.7 25.6s10.3-7.2 26.1 0c20.3 9.2 16.4 35.4 16.4 35.4s16.8-7.8 29.6 2.4c20 16 2.3 30.7 1.8 39.6-.6 8.9 36.1-6.5 50.8-15.3 17.6-10.6 32.6-20.6 43-7.4 12.9 16.5 8 37.3-38.3 52-54 17.2-74.5 32.3-86 45.3-11.4 13-42.9 48.7-76.8 48.2 0 0 14 17.7 4.5 26.4s-26.8 16.3-66.3-27.8c-39.6-44.2-52-28-53-46.1-1.5-24.5 27.8-17.4 27.8-17.4Z"/><path fill="#FFFAF4" d="M2043.5 1098.2c10 11 21.4 20.7 34 28.8l-34-28.8Z"/><path fill="#431426" d="M2119.5 1200.3h-1.4c-14.3-.7-31.5-12.4-52.5-35.8-21-23.3-34.1-29.3-41.8-32.7-6.9-3-11.8-5.2-12.4-16-.4-7.8 1.8-13.8 6.5-17.8 5-3.6 11.2-5.4 17.4-5a87.8 87.8 0 0 1-10.4-41v-8.6c.2-21 .3-31.6-19.8-49.7-17-15.2-25-29.5-23.7-42.5 1-10.1 7.4-18.8 19.2-25.8a21.9 21.9 0 0 1 17.8-2.2c21.6 6 43.4 40.4 51.2 53.8 13.2-14 52-52 76.2-43.7 15.4 5.3 21 15.3 22.4 23.2 8-2 16.4-1.2 23.8 2.5 16.4 7.4 19 24 19.2 33.3a31.5 31.5 0 0 1 27.6 5c17.2 14 10.3 28 6.1 36.5-.8 1.6-1.6 3.3-2.1 4.7 7.5-.9 28.4-10.3 37.8-14.6l6.4-2.9c2.9-1.2 5.7-2.8 9-4.4 12.8-6.7 28.6-15 39.2-1.6 6.6 8.4 8.6 17.2 6 25.8-4.3 13.6-19.9 24.7-46.4 32.9-55 17.2-73.9 32.5-84.1 44-11.5 12.8-39.9 44.9-72.4 49.2 4.5 8.1 7.3 18.8-.3 25.8-5 4.9-11.5 7.6-18.5 7.6Zm-84.7-98.8c-4-.3-8 .8-11.4 3.1a12 12 0 0 0-3.5 10.6c.3 5.8 1 6 7.2 8.6 8.4 3.7 22.4 10 44.8 35 19 21.2 34.7 32.2 46.6 32.9a18 18 0 0 0 13.7-5.4c5.3-5-2-16.8-5-20.6-.5-.6-.8-1.4-1-2.2a4.2 4.2 0 0 1 2.1-4c.7-.5 1.5-.8 2.3-.8h.4c31.5 0 61.7-33.8 73-46.5l.2-.3c11-12.3 31-28.8 88-46.5 29.5-9.1 38.4-19.9 40.7-27.3 1.8-5.7.3-11.8-4.5-18-5.8-7.2-14.6-3.3-28.5 4-3.2 1.6-6.4 3.3-9.5 4.7l-6.3 2.8c-28.4 12.9-42.1 18-47.8 14a6.2 6.2 0 0 1-2.7-5.7c.6-3.6 1.9-7 3.8-10 4.1-8.4 8-16.3-3.8-25.8-10.5-8.3-25-1.9-25.1-1.8a4.3 4.3 0 0 1-4.4-.5 4.3 4.3 0 0 1-1.6-4c.1-1 3.1-23.1-14-31-13.1-6-21.6-.5-21.9-.3a4.4 4.4 0 0 1-6.4-1.9c-.3-.8-.4-1.6-.3-2.4 0-.6 2.1-14.2-16.8-20.7-18.8-6.5-57.7 30.7-71 45.8a4.4 4.4 0 0 1-3.7 1.4 4.3 4.3 0 0 1-3.3-2.2c-7.1-13.5-30-49.6-48.9-54.8a13.5 13.5 0 0 0-11 1.2c-9.4 5.6-14.4 12-15.1 19.3-1 10 6.3 22.2 20.9 35.3 22.9 20.7 22.9 34 22.6 56.2v8.6a78.8 78.8 0 0 0 13.4 43.2 4.3 4.3 0 0 1-4.5 6.8 36 36 0 0 0-7.7-.8Z"/><path fill="#431426" d="M2077.4 1131.4c-.8 0-1.6-.2-2.3-.7a172.1 172.1 0 0 1-35.9-31.3 4.4 4.4 0 0 1 .1-3.6c.3-.5.7-1 1.2-1.4.5-.4 1-.7 1.6-.8.6-.2 1.2-.2 1.8 0a4.3 4.3 0 0 1 3 2 168.2 168.2 0 0 0 33 28 4.3 4.3 0 0 1 1.6 4.8c-.3.8-.8 1.6-1.6 2.2-.7.5-1.6.8-2.5.8ZM2105 1027.5c-5.7 0-11-2.3-15-6.3-16-15 12.4-53.7 18.3-61.4a4.3 4.3 0 0 1 6-.7 4.3 4.3 0 0 1 .8 6c-12.6 16.4-26.9 42.7-19.3 49.9a12.8 12.8 0 0 0 11.5 3.7c19.6-3.1 44.9-43 53-57.9a4.3 4.3 0 0 1 7.5 4c-1.2 2.5-31.5 58-59.1 62.4l-3.7.3Z"/><path fill="#431426" d="M2132.1 1068.7c-4.2.1-8.3-1.5-11.4-4.3-20.3-18.5 8.3-59.1 9.5-60.9a4.3 4.3 0 0 1 5.9-.8 4.3 4.3 0 0 1 1 5.8c-7 10-22.8 38.4-10.6 49.5a8.3 8.3 0 0 0 6.8 2c20-2 57.3-47 69.7-64.3a4.3 4.3 0 0 1 7.8 1.9 4.3 4.3 0 0 1-.9 3.2c-4.8 6.7-48.1 65-75.8 67.8h-2Z"/><path fill="#431426" d="M2176.6 1082.5c-4 .1-8-1-11.5-3.3-16.6-11.2-2-37.4-1.3-38.5.6-1 1.5-1.6 2.6-1.8 1-.3 2.2-.1 3.1.4a4.3 4.3 0 0 1 1.8 5.6c0 .2-11.3 20.6-1.4 27.2 13.7 9.2 47.3-18 65.4-37.2a4.2 4.2 0 0 1 3-1.9 4.4 4.4 0 0 1 3.4 1.1c.5.4.8 1 1 1.5.3.6.4 1.2.4 1.8a4.4 4.4 0 0 1-1.6 3.2c-4.4 5-39.8 42-64.9 42Z"/><path fill="#FFEAB9" d="M1270 362.6c-37.6-6.1-201.6 1.6-217.2 18-9.7 10.3-81.5 1683.7-51.3 1698.8 30.2 15 95.9 30 131 27.2 35-2.9 77.3-2.3 122.5.4 45.2 2.6 4.8 48 87.5 75 43 14 66.3-27.1 84.4-15 18.1 12 26.4 25.7 60 17.4 33.6-8.4 66.8-62.7 90.9-53.7 24.1 9 81.5 15.1 105.6 6 24.1-9 53.7-59.1 74.9-59.1 21.1 0 21.6 12.8 82-2.3 60.2-15 34.3-45.4 76.6-60.4 42.4-15.1 71.3 19.3 110.5-1.9 39.2-21 42.2-63.3 81.4-63.3s52.8 0 99.6-21.1c54.9-24.8 54.4-114.6 15-132.8-39.3-18.2-930.6-1429.6-953.3-1433.2Z"/><path fill="#431426" d="M1468.6 2191.1c-16.3 0-25.6-7-35.2-14.3-2.9-2.1-5.7-4.3-8.8-6.4-5.5-3.6-12.1-.4-23.3 5.7-14.3 7.8-34 18.4-60.2 10-48.4-15.9-56.5-38.4-62.5-54.8-4.4-12.3-6.9-19.1-23.9-20a887.6 887.6 0 0 0-121.9-.4c-36.9 3.1-103.1-12.5-133.2-27.6-2.6-1.3-4-4.3-5.2-11.1-13.4-76.3 6.2-647.7 15.2-889.9 7.2-192.4 15.7-393.3 23.4-551.2 12-248.5 15-251.5 16.7-253.3 18.2-19.2 186.2-25 221-19.4 4 .6 9 1.4 136.8 195.6 76.9 116.8 177.9 272.6 284.9 437.5 227.8 351.3 511.2 788.6 533 800.4 18.5 8.6 30.4 32.8 30.3 61.6 0 28.3-12.1 63.8-45.5 79-47.4 21.3-62 21.4-100.7 21.4h-.4c-20.4 0-29.9 12.2-41.9 27.6-9.4 12-20 25.8-37.8 35.3-22 11.8-41.1 7.3-59.6 2.8-16.7-4-32.5-7.6-51.6-.9a43.4 43.4 0 0 0-27.2 24.7c-6.9 12.7-14.7 27.1-49.9 35.9-43.6 10.9-56.9 7.5-68.7 4.6a52.6 52.6 0 0 0-14.3-2.2c-9.6 0-23.1 14.3-36.2 28-12.4 13-25.1 26.4-37.3 30.9-25.5 9.6-84 3.2-108.6-6-10.7-4-25.8 9.2-41.8 23.2-14.9 13-30.3 26.5-46.5 30.5a79.7 79.7 0 0 1-19 2.8Zm-49-30.8c3.5 0 6.9 1 9.7 2.9 3.4 2.2 6.4 4.5 9.3 6.7 12.6 9.6 21.8 16.5 47.3 10.1 14.3-3.5 28.8-16.3 43-28.6 17.9-15.8 34.9-30.6 50.4-24.8 23 8.6 79.2 14.9 102.6 6 10.2-3.8 22.3-16.5 34-28.6 15-15.8 29.1-30.7 42.4-30.7 5.5 0 11 .9 16.4 2.4 10.8 2.8 23 5.8 64.5-4.5 31.5-8 37.7-19.5 44.3-31.7 5.8-10.5 11.5-21.3 32-28.7 21.3-7.6 39-3.4 56.2.7 17.8 4.1 34.4 8 53.6-2.2 16.2-8.6 25.8-21 35.1-33 12.4-15.9 24-30.9 48.5-30.9h.3c38.6 0 51.7 0 97.4-20.7 29.7-13.5 40.4-45.6 40.5-71.1.1-25.6-9.9-46.7-25.4-53.9-20.7-9.5-225.9-324.3-536.6-803.5-195.9-302.2-398.5-614.7-416.5-629.5-40-6-195 2.3-212 16.4-5 23.1-24.2 411.5-40 843-18.7 511.5-23.3 828.5-12.5 849.8 29.4 14.3 93.7 29.3 128 26.3 31.5-2.8 71.9-2.6 123.1.4 22.6 1.3 27 13.2 31.5 25.8 5.8 15.6 12.7 35 57.1 49.4 22.6 7.4 39-1.5 53.4-9.3 7.8-4.1 15.2-8.2 22.4-8.2Z"/><path fill="#F57162" d="M1114.6 366.5 1075.2 2027s11.9 36.7 39 31.8c27.1-4.9 24.6-29.4 46.7-27 22 2.5 94 34.2 113.5 14.6 19.7-19.6-58.7-1678.8-74.7-1692.6-26.5-23-26.5 7.7-46.4 1-31.2-10.3-38.7 11.8-38.7 11.8Z"/><path fill="#431426" d="M1109.1 2063.6c-26.3 0-37.6-33.7-38-35.3a4 4 0 0 1-.3-1.4l39.3-1660.3c0-.5.1-.9.3-1.3 0-.3 9.4-26 44.3-14.3 6 2 9.3-.5 13.8-4 8.6-6.5 17.2-10.8 34 3.7 2.4 2 5.3 4.5 14 133.2 5.3 76.5 11.7 185.4 18.6 315 13.8 260.1 28 571.3 36.9 812.3 15.8 428 8.6 435.3 5.5 438.4-15.8 15.8-56.3 3.7-88.8-6-9.2-3-18.6-5.5-28.1-7.3-9-1-12.6 3.2-18 9.5a44.3 44.3 0 0 1-27.5 17.5c-2 .3-4 .4-6 .3Zm-29.7-37.2c1.7 4.6 12.8 32.1 34 28.3 11.9-2.1 17.2-8.6 22.6-14.5 5.7-6.9 12-14 25.4-12.5 10 1.7 20 4.2 29.6 7.3 26.9 8 67.4 20 80 8.6 7.3-20.8-2.7-359.4-24.8-845-20.7-452.8-42.5-820.8-49.8-842-12.5-10.5-16.5-7.4-22.7-3-5 4-11.4 8.7-21.7 5.2-24.4-8-31.8 5.2-33.3 8.6l-39.3 1659ZM1284.8 902.5a4.3 4.3 0 0 1-4.3-4l-7.8-172.2a4.3 4.3 0 0 1 8.6-.4l7.8 172.1a4.3 4.3 0 0 1-2.5 4.1c-.5.3-1 .4-1.6.4h-.3ZM1273.1 642.8a4.3 4.3 0 0 1-4.3-4.1L1257.4 385a4.3 4.3 0 0 1 8.6-.4l11.4 253.7a4.2 4.2 0 0 1-4 4.5h-.3ZM1334.5 2011.2c-1 0-2.1-.4-3-1.2a4.3 4.3 0 0 1-1.3-2.9l-13.8-309.1c0-1.2.3-2.3 1.1-3.1a4.3 4.3 0 0 1 7.5 2.7l13.9 309a4.2 4.2 0 0 1-1.2 3.2 4.2 4.2 0 0 1-3 1.4h-.2ZM1371.7 2015a4.3 4.3 0 0 1-4.3-4.7c0-.8.4-1.6.8-2.2 1.3-1.7 31.3-41.1 55-45.6 14.3-2.7 22.2 3.6 28 8.3 4.4 3.5 6.2 4.7 8.9 3.8 3.5-1.3 5.3-4.2 7.7-7.8 3.7-6 8.4-13.3 21.8-14.8 9.5-1 22.7 2.8 36.6 6.7 15.3 4.3 32.5 9.2 40.1 5.7a4.3 4.3 0 1 1 3.7 7.8c-10.4 5-27.7 0-46-5-12.6-3.6-25.6-7.3-33.4-6.5-9.3 1-12.2 5.6-15.5 10.8-2.7 4.3-5.8 9-12 11.3-7.5 2.6-12.7-1.5-17.2-5.2-5.2-4.2-10.5-8.6-21-6.5-17 3.2-41.6 31.5-49.7 42.3-.4.5-1 .9-1.6 1.2-.6.3-1.2.4-2 .3ZM1635.7 1955.1c-.5 0-1 0-1.4-.2a4.3 4.3 0 0 1-2.7-5.4c.6-1.7 14.6-41 96.7-26.6 43 7.6 46.5-1.8 50-11 2.8-7.6 6.4-17.1 26.8-16.2 1.2 0 2.2.6 3 1.4a4.3 4.3 0 0 1-.3 6.1c-.8.8-2 1.2-3.1 1.1-14.3-.7-15.8 3.6-18.4 10.7-5.4 14.3-13.1 24.6-59.5 16.4-74.1-13-87 20.5-87 20.9a4.3 4.3 0 0 1-4.1 2.8ZM1926.1 1875.7c-.9 0-1.8-.2-2.5-.8a4.3 4.3 0 0 1-1-6c.9-1.1 21-28.6 44.2-31 10.4-.6 20.8.7 30.8 3.8 6 1.6 11.8 3.1 14 1.8 4-3.6 7.9-7.4 11.4-11.5 13.4-14.3 33.5-35.7 50-39.4 10.7-2.4 23.8 2.3 37.8 7.3 15.8 5.7 32 11.4 41.5 5.1a4.4 4.4 0 0 1 3.3-.7 4.4 4.4 0 0 1 2.8 1.9c.3.5.5 1 .6 1.6v1.7a4.1 4.1 0 0 1-2 2.7c-13 8.6-31.5 2-49-4.2-12.3-4.4-24.9-9-33.2-7-13.8 3.1-33.7 24.2-45.5 36.9a95 95 0 0 1-13 12.7c-5.3 3.3-12.1 1.5-20.8-.7-9-2.9-18.4-4-27.8-3.6-19.3 2-37.8 27.3-38 27.5a4.4 4.4 0 0 1-3.6 2ZM2142.8 1856.6c-.7 0-1.4-.2-2-.5a4.3 4.3 0 0 1-.2-7.4c39-24.2 70-12.4 71.3-11.9a4.4 4.4 0 0 1 2.4 2.3 4.2 4.2 0 0 1 0 3.3c-.2.5-.5 1-1 1.4a4.3 4.3 0 0 1-3 1.3c-.5 0-1 0-1.6-.3-1.2-.5-28.6-10.6-63.7 11.2-.7.4-1.4.6-2.2.6ZM1869.7 1935c-1.2 0-2.3-.5-3-1.3a4.3 4.3 0 0 1 2.8-7.4c6.6-.2 8.2-2.1 12-6.7 5.5-7 12.4-12.8 20.1-17 19.7-11.5 41.2-2 50.4 2.2l3.4 1.4a4.3 4.3 0 0 1 4.8 3.8 4.4 4.4 0 0 1-3.9 4.8c-2 .5-3.8-.3-7.8-2-8.5-4-26.7-11.9-42.6-2.7-6.9 3.8-13 9-17.8 15-4.2 5.2-7.9 9.5-18.3 10l-.1-.2ZM1715.8 2011.2a4.3 4.3 0 0 1-4-2.8 4.3 4.3 0 0 1 1.1-4.7c21.3-19.3 44.4-18 54.4-17.4h3c1.1-.3 2.3-.2 3.2.2a4.3 4.3 0 0 1 2.2 5.5c-.4 1-1.2 1.8-2.1 2.3a13 13 0 0 1-6.8.5c-8.8-.5-29.3-1.7-48 15.2-.8.8-1.9 1.2-3 1.2ZM1578.6 2024c-2.7 0-5.3-.7-7.4-2.2l5.3-6.8s7.8 4 25.5-14.8c23.6-25.2 59.9-5.5 60.2-5.3a4.3 4.3 0 0 1-1 7.9 4.3 4.3 0 0 1-3.2-.4c-1.2-.7-30.8-16.6-49.8 3.6-13.8 14.7-23.6 18-29.6 18ZM1435.8 2098.6a4.3 4.3 0 0 1-.3-8.6c3.1-.1 5.6-4.3 9.5-11 5.1-9 12.2-21.6 27.3-28.3 16.2-7.2 31.5-1.5 45 3.6 8.9 3.3 17.1 6.4 24.3 5.1a4.4 4.4 0 0 1 5 3.6c.2 1.2 0 2.3-.7 3.3s-1.7 1.5-2.8 1.8c-9.4 1.6-18.8-2-28.9-5.8-12.5-4.7-25.5-9.5-38.4-3.7-12.9 5.7-18.3 15.7-23.4 24.6-4.3 7.7-8.6 15-16.4 15.4h-.2ZM2004.8 1955.1h-.8a4.3 4.3 0 0 1-2.7-1.8c-.7-1-.9-2-.7-3.2.2-1.2 5.7-28.6 27.1-29h11.5c10.7.2 15.6 0 19-3.2a4.2 4.2 0 0 1 3-1.3 4 4 0 0 1 1.7.4c.5.2 1 .5 1.4.9a4.4 4.4 0 0 1 1.2 3c0 .6 0 1.1-.3 1.7-.2.5-.5 1-1 1.4-6 6-13.6 6-25.1 5.7h-11.2c-14.3.2-18.8 21.8-18.9 22a4.3 4.3 0 0 1-4.2 3.4Z"/><path fill="#431426" d="M1164.2 1994.7a4.2 4.2 0 0 1-3-1.3c-11.1-11-6.6-21 1.6-38.9 6.2-13.7-3.2-37.2-7.3-45.3a4.3 4.3 0 0 1 .4-4.8 4.3 4.3 0 0 1 7.2.9c.7 1.3 16.7 32.5 7.5 52.8-8.8 19.3-9.8 22.9-3.4 29.2a4.3 4.3 0 0 1 0 6 4.2 4.2 0 0 1-3 1.4ZM1151.8 1730a4 4 0 0 1-1 0 4.3 4.3 0 0 1-3.2-5.2c2.3-9.7-2.4-16-8.3-23.9a74 74 0 0 1-9.6-15.7c-4.4-10.9-.3-17.2 4-23.6 4.4-6 7.4-12.8 8.8-20 2.5-13.2-2-23.2-6.3-32.9a69.1 69.1 0 0 1-6.6-19.7c-1.1-8.8 2.9-17.6 6.5-26 4.2-9.6 8.2-18.7 5.3-26.9a4.3 4.3 0 0 1 6-5.3c1 .5 1.7 1.4 2.1 2.4 4 11.5-1 23-5.5 33.2-3.4 7.8-6.7 15.1-5.8 21.6 1.2 6 3.1 11.7 6 17.2 4.6 10.3 9.8 22.1 6.8 37.9-1.5 8.3-5 16.2-10 23.1-4 6.1-6 9-3.2 15.6 2.3 5 5.2 9.6 8.6 13.9 6.3 8.6 13 17.4 9.7 31a4.3 4.3 0 0 1-4.3 3.3ZM1231.7 1838.2h-.4c-.6 0-1.1-.2-1.6-.4a4.3 4.3 0 0 1-2.3-4.2c.8-9.6-2-18.7-4.7-27.6-2.7-8.8-5-16.4-4.4-24.6.6-5.8 2-11.5 4-17a80.8 80.8 0 0 0 4.5-38.3 4.3 4.3 0 0 1 3.9-4.7 4.2 4.2 0 0 1 3.1 1 4.3 4.3 0 0 1 1.6 2.9c1.7 14.1 0 28.5-5 41.8-1.8 4.8-3 9.8-3.5 14.9-.4 6.6 1.8 13.9 4 21.5 3 9.2 6 19.6 5 30.8 0 1-.5 2-1.3 2.8-.8.7-1.9 1.1-3 1.1ZM1139.4 936.1a4.4 4.4 0 0 1-4.3-4c0-.6 0-1.2.2-1.7s.5-1 .9-1.4c6-7 4.3-10.5.8-17.5a38 38 0 0 1-5.3-22.4c.6-4.8 1.3-9.5 2.3-14.2 1.4-7 2-9.3-2-19.7a4.3 4.3 0 0 1 5.8-5.5c1 .5 1.9 1.4 2.3 2.4 4.6 12.4 4 16.2 2.3 24.5-1 4.5-1.6 9-2 13.4a30.3 30.3 0 0 0 4.2 17.7c3.7 7.3 7.9 15.7-2 27a4.4 4.4 0 0 1-3.2 1.4ZM1187.8 790.4c-.4 0-.8 0-1.2-.2a4.3 4.3 0 0 1-2.9-5.3c5.7-19.4 5-20.5-1.3-31a360 360 0 0 1-4.7-8c-12-21.5-5-34 6.4-54.8a4.3 4.3 0 0 1 7.9.9c.3 1 .2 2.3-.4 3.3-12 21.6-15.5 30-6.3 46.5l4.5 7.7c7.3 12.2 8.6 15.6 2.2 37.8a4.3 4.3 0 0 1-4.2 3ZM1144.5 558.1a4.3 4.3 0 0 1-4.3-3.8c-1.3-10.7-2.7-17.8-3.8-23.6-2.7-13.4-3.7-18.5 4.1-36.6 8.4-19.4 7-25 2.4-43.6l-2.6-10.8a4.4 4.4 0 0 1 .4-3.3 4.4 4.4 0 0 1 2.8-2 4.3 4.3 0 0 1 5.1 3.4l2.7 10.7c4.7 19 6.7 27-3 49-6.7 15.7-6.1 18.7-3.5 31.5 1 5.7 2.6 13.3 3.9 24.3a4.3 4.3 0 0 1-3.8 4.8h-.4Z"/><path fill="#431426" d="M2019 1768.8h-.8a4.3 4.3 0 0 1-3.4-5l24.7-137.5a4.3 4.3 0 1 1 8.5 1.6l-24.8 137.4a4.3 4.3 0 0 1-4.2 3.5ZM1973.3 1800.7h-1a4.3 4.3 0 0 1-3.3-5.2l31.6-144.8a4.4 4.4 0 0 1 1.8-2.7c.5-.3 1-.5 1.6-.6a4.3 4.3 0 0 1 4.4 1.9 4.3 4.3 0 0 1 .5 3.2l-31.5 144.9a4.2 4.2 0 0 1-4.1 3.3ZM1439.7 1547h-.7a4.2 4.2 0 0 1-3.5-5l24.8-137.5a4.3 4.3 0 0 1 7.8-1.8c.3.5.6 1 .7 1.6v1.7l-24.8 137.5a4.3 4.3 0 0 1-4.3 3.5ZM1394 1578.8h-1a4.2 4.2 0 0 1-3.2-5l31.5-145a4.2 4.2 0 0 1 5.2-3.8 4.3 4.3 0 0 1 3.3 3.8c.1.7 0 1.3-.2 1.8l-31.5 145a4.3 4.3 0 0 1-4.1 3.3ZM1633.3 1853.5h-.8a4.3 4.3 0 0 1-2.7-1.8c-.7-1-1-2.1-.7-3.2l24.7-137.5a4.4 4.4 0 0 1 5.1-3.5 4.3 4.3 0 0 1 3.5 5l-24.7 137.5c-.2 1-.8 1.9-1.6 2.5-.8.7-1.8 1-2.8 1ZM1587.6 1885.3h-1c-.5-.1-1-.3-1.5-.7a4.3 4.3 0 0 1-1.8-4.4l31.6-144.9a4.4 4.4 0 0 1 1.8-2.8 4.3 4.3 0 0 1 6 1.3 4.2 4.2 0 0 1 .5 3.3l-31.5 145c-.2.9-.7 1.7-1.5 2.3-.7.6-1.7 1-2.6 1ZM1766 1330.8h-.7a4.3 4.3 0 0 1-3.5-5l24.8-137.5a4.3 4.3 0 0 1 5-3.5 4.3 4.3 0 0 1 3.6 5l-24.8 137.5c-.2 1-.8 1.9-1.5 2.5-.8.7-1.8 1-2.8 1ZM1720.3 1362.6h-1a4.3 4.3 0 0 1-3.2-5.1l31.5-144.9a4.3 4.3 0 0 1 1.8-2.8 4.2 4.2 0 0 1 3.3-.6 4.3 4.3 0 0 1 3.3 5.2l-31.5 145a4.3 4.3 0 0 1-4.2 3.2ZM1436 869.2h-.7a4.2 4.2 0 0 1-2.8-1.7l-.7-1.6c0-.5-.1-1 0-1.6l24.8-137.5a4.3 4.3 0 0 1 1.7-2.9 4.3 4.3 0 0 1 4.9 0 4.3 4.3 0 0 1 1.8 4.4l-24.8 137.5c-.1 1-.7 1.8-1.4 2.5-.8.6-1.8 1-2.8 1ZM1390.3 901.1h-1a4.3 4.3 0 0 1-2.6-1.9 4.4 4.4 0 0 1-.6-3.2l31.5-144.9a4.3 4.3 0 0 1 5.1-3.3 4.3 4.3 0 0 1 3.3 5.1l-31.5 145a4.2 4.2 0 0 1-4.2 3.2Z" opacity=".1"/><path fill="#431426" d="M1195.5 2082.4a4 4 0 1 0 0-8 4 4 0 0 0 0 8ZM1056.7 1969.7a4 4 0 1 0 0-8 4 4 0 0 0 0 8ZM1011.6 2048.4a4 4 0 1 0 0-8 4 4 0 0 0 0 8ZM1051 2009.5a4 4 0 1 0 0-8 4 4 0 0 0 0 8ZM1297.7 2070a4 4 0 1 0 0-8 4 4 0 0 0 0 8ZM1221.2 2098a4 4 0 1 0 0-8.1 4 4 0 0 0 0 8ZM1133.3 1624.9a4 4 0 1 0 0-8.1 4 4 0 0 0 0 8ZM1153 1322.4a4 4 0 1 0 0-8 4 4 0 0 0 0 8ZM1056.3 1053.6a4 4 0 1 0 0-8 4 4 0 0 0 0 8ZM1192.2 837.5a4 4 0 1 0 0-8.1 4 4 0 0 0 0 8ZM1127.6 649.8a4 4 0 1 0 0-8 4 4 0 0 0 0 8ZM1180 468.4a4 4 0 1 0 0-8.1 4 4 0 0 0 0 8ZM1695 1297.7a4 4 0 1 0 0-8 4 4 0 0 0 0 8ZM1561.5 1610.5a4 4 0 1 0 0-8 4 4 0 0 0 0 8ZM1635 2005a4 4 0 1 0 0-8 4 4 0 0 0 0 8ZM1861.8 1980a4 4 0 1 0 0-8.1 4 4 0 0 0 0 8ZM2025.3 1859.2a4 4 0 1 0 0-8 4 4 0 0 0 0 8ZM1135.3 2096.3a4 4 0 1 0 0-8 4 4 0 0 0 0 8Z"/><path fill="#F57162" d="M1167 1304.1s-.7 12.7-46.8 19c-52.8 7 29.3 151.2 86.9 120 22.6-12.4 3.4-34.7 28.7-49l-68.8-90Z"/><path fill="#431426" d="M1189.7 1451.7a65 65 0 0 1-39.6-16.2c-32-25.5-56.8-75-50-100a21.8 21.8 0 0 1 19.6-16.7c38.7-5.2 43-14.8 43-15a4.3 4.3 0 0 1 4.5-4 4.4 4.4 0 0 1 3 1.5 4.3 4.3 0 0 1 1 3c-.2 3.9-4.5 16.8-50.5 23a13.5 13.5 0 0 0-12.4 10.5c-6 21.8 17.8 67.7 47 91 12.8 10.1 31.8 20 49.6 10.4 9.1-5 10-11.4 11-19.8 1.3-9.2 2.8-20.6 17.6-29a4.5 4.5 0 0 1 3.3-.4c.5.2 1 .4 1.5.8a4.4 4.4 0 0 1 1.6 2.8 4.3 4.3 0 0 1-1 3.2c-.3.5-.7.8-1.2 1.1-11 6.2-12 13.9-13.2 22.7-1.1 8.8-2.5 19.2-15.5 26.2-5.9 3.2-12.5 4.9-19.3 4.9Z"/><path fill="#FFEAB9" d="M942.9 1566.3a24.4 24.4 0 0 1-4.5-48.2c1.2-.3 127.2-26.1 216.6-166.5a24.3 24.3 0 0 1 41 26.1c-101.2 159.1-242.6 187.1-248.6 188.2-1.5.3-3 .4-4.5.4Z"/><path fill="#431426" d="M942.9 1570.6a28.6 28.6 0 0 1-5.3-56.9c1.2-.2 125.7-26.2 213.7-164.5a28.7 28.7 0 0 1 47.9-1.3 28.8 28.8 0 0 1 .4 32c-102.2 160.7-245.4 189-251.4 190.1-1.8.4-3.5.6-5.3.6Zm232.6-225.9a20 20 0 0 0-17 9.3c-90.2 141.9-218 168-219.3 168.3a20 20 0 1 0 7.4 39.5c5.9-1.1 145.6-28.7 245.8-186.2a19.9 19.9 0 0 0-4.4-26.4 20 20 0 0 0-12.5-4.4Z"/><path fill="#F57162" d="M1183 1414c-25.5-91.5-53-64.6-51.6-53.5l55.1-63.8 54.6 75.3-58.1 42Z"/><path fill="#431426" d="M1183 1418.3a4.3 4.3 0 0 1-4.1-3.1c-13.7-49-28.7-64.4-37.3-62.7a8.1 8.1 0 0 0-6.1 7.5 4.4 4.4 0 0 1-2.2 4.3c-.5.3-1 .4-1.5.5a4.4 4.4 0 0 1-4.4-2.1l-.5-1.6a16.5 16.5 0 0 1 13-17c9.8-2 29 4.3 47 68.8.3 1 .2 2.2-.3 3.2s-1.4 1.7-2.5 2c-.4.2-.7.2-1.1.2Z"/><path fill="#FFFAF4" d="M931 1491a82.9 82.9 0 0 0-41.4-25c-26.6-6.6-39.3-6.5-54.6-35.3-15.3-28.7-37.5-44.2-59.4-18.1-18.6 22 33.1 89.5 33.1 89.5s-2.5 27.8-59.6 37.7c-55.9 9.7-78.4-2.5-87.8 19.6-8.6 20.6 10.7 38.2 54.7 34 39.4-3.7 66.4-9.6 72-7.4 5.7 2.3-4.6 12.8-52.3 22.3-36 7-75.7-8.2-81.4 19.2-5 24.4 20 36 57.5 35 51.2-1.3 86-33 92-30.2 6.1 3-26.6 33.2-72.6 47.5-21.6 6.8-46 7.3-44.4 31 1.6 24.9 43.8 28.7 80.4 12.2 33.5-15.4 55.8-55.7 64.6-54 8.8 1.5-18.3 30.6-30.6 42.5-22.8 22.2-31.5 38.9-21.2 52.2 12.8 16.5 35.2 12.6 63.4-36.8 28.2-49.5 49.2-64.7 64.6-72.7 15.3-8.1 57.4-30 65.2-63 0 0 13.8 17.8 24.6 10.6 10.3-6.9 22.2-22.1-11.2-71-33.4-49-14.6-57.3-32.1-62.7-23.3-7.1-23.5 23-23.5 23Z"/><path fill="#431426" d="M796 1776.8a24.4 24.4 0 0 1-19.4-10.4c-14.5-18.5 4-40.7 21.6-57.9 10-9.6 19.3-20 27.7-31.2-3.1 2.9-7 7-10.3 10.5-12.4 13.3-29.3 31.3-49.5 40.5-26 11.9-54.3 13.3-70.5 3.6a25.4 25.4 0 0 1-13.1-20.7c-1.6-22.9 18-27.8 35.3-32.2 4-1 8.2-2 12.1-3.2a179.2 179.2 0 0 0 64.4-35.4l-3.1 1.7c-16.4 9-43.8 23.8-79.3 24.7-27.8.7-48.2-5.3-57.5-17a25.8 25.8 0 0 1-4.3-23.3c5.4-20.8 26.5-20.6 48.7-20.3 12 .5 24.1-.2 36-2.2 26.4-5.2 40.1-10.6 46.3-14-4.9.3-12.2 1.4-19.4 2.3-12.2 1.7-27.4 3.9-45.4 5.4-28 2.4-48.3-2.9-57-15a24.8 24.8 0 0 1-2-25c7-16.4 20-16.9 41.9-17.6a332 332 0 0 0 49.1-4.5c45-7.8 54-27 55.7-32.4-9.7-12.4-54-71.7-30.6-95.3 9.7-9.7 19.7-13.9 29.7-12.4 13 2 24.9 13 35.6 33.2 12.8 23.9 23 26.3 43.6 31.1l8.3 2a88.3 88.3 0 0 1 37.2 20 26.6 26.6 0 0 1 9.2-15.6c5-3.7 11.4-4.5 18.7-2.2 10.4 3.2 11.5 8.6 12.7 15.9 1.4 8.3 4 22.3 21.8 48.4 17.8 26.2 24.9 45.4 22.1 59.6a26.8 26.8 0 0 1-12.2 17.5c-8.6 5.7-18.2.4-25-5.9-12 30.6-49.9 50.5-64.8 58.4-15 7.8-35.7 23-63 71.2-17.5 30.5-34.1 46.5-49.5 47.7H796Zm35.3-112.1h1.3a6.1 6.1 0 0 1 5 4.2c2.6 8.8-19.8 32.4-33.4 45.7-28.7 27.8-26.6 39-20.8 46.4a15.7 15.7 0 0 0 13.7 7c7-.4 21.7-6.8 42.6-43.3 28.6-50 50.4-66 66.3-74.5h.2c15.2-8 55.5-29.2 62.9-60.1a4.2 4.2 0 0 1 5.6-3c.8.2 1.4.7 2 1.4 2.8 3.8 12.6 13.7 18.7 9.7a18 18 0 0 0 8.6-12c2.2-11.7-4.8-29.5-20.9-53.1-18.9-27.7-21.5-42.8-23.1-51.8-1.2-6.8-1.3-7.4-6.7-9.1a12 12 0 0 0-11.1.8c-5.5 4-6.8 14.3-6.8 18a4.3 4.3 0 0 1-7.7 2.7 79.2 79.2 0 0 0-39-23.6l-8.3-2c-21.5-5-34.6-8.1-49.1-35.4-9.2-17.4-19.4-27.3-29.3-28.7-7.2-1-14.7 2.3-22.3 10-16.5 16.6 17.8 67.3 32.5 85.4.7.9 1 2 .9 3.1 0 1.3-3.5 31.2-63.2 41.6a343.3 343.3 0 0 1-50.3 4.6c-22.4.8-29.7 1.5-34.4 12.4a16.6 16.6 0 0 0 1 16.6c6.8 9.4 24.8 13.6 49.4 11.5 17.8-1.5 32.8-3.6 45-5.3 17.7-2.5 25-3.4 29-1.8a6 6 0 0 1 4.2 6c-1.1 12-40.4 21-57.3 24.3-12.5 2-25.1 2.8-37.8 2.3-23.4-.3-36.8.2-40.3 13.9a17.2 17.2 0 0 0 2.8 15.9c7.4 9.3 25.8 14.3 50.5 13.6 33.5-.8 59.7-15 75.4-23.6 10-5.5 14.7-8 18.6-6a5.6 5.6 0 0 1 3.2 5.5c-.7 10.3-36 37.2-76.3 50l-12.6 3.3c-19.1 4.9-30 8.3-29 23.3a17 17 0 0 0 9 13.9c13.8 8.1 39.5 6.5 62.6-4 18.6-8.7 35-25.9 46.8-38.6 10.1-10.9 16.2-17.3 21.9-17.3Z"/><path fill="#431426" d="M819 1533.3h-.7a4.2 4.2 0 0 1-2.8-1.7 4.3 4.3 0 0 1-.7-3.3c2.2-12.2-8.9-22.9-9-23a4.3 4.3 0 0 1 5.9-6.3c.6.6 14.6 14 11.5 30.9a4.3 4.3 0 0 1-4.1 3.4ZM904.4 1582.4c-56.2 0-69.8-35.6-70.4-37.2a4.3 4.3 0 0 1 5.8-5c1 .4 1.8 1.1 2.3 2.1.5 1.5 13.4 34 68 31.5a4.3 4.3 0 0 1 3.1 1.2 4.3 4.3 0 0 1 .3 6 4.3 4.3 0 0 1-3 1.4h-6.1ZM788.9 1593.5a4.3 4.3 0 0 1-4-2.7 4.3 4.3 0 0 1 1.1-4.8c2.5-2 4.5-4.8 5.7-7.8a4.3 4.3 0 1 1 8.5 1.5c-1 5.9-7.2 11.6-8.4 12.7-.8.8-1.8 1.1-3 1.1ZM832.2 1679.4c-.7 0-1.4-.2-2-.6a4.3 4.3 0 0 1-1.8-5.7c1.8-3.3 3-7 3.3-10.9a4.2 4.2 0 0 1 1.2-3 4.4 4.4 0 0 1 3.1-1.2 4.4 4.4 0 0 1 3 1.3 4.2 4.2 0 0 1 1.3 3 36.6 36.6 0 0 1-4.3 15c-.4.6-1 1.2-1.6 1.5-.7.4-1.4.6-2.2.6ZM803 1641.4a4.2 4.2 0 0 1-4.3-4.5c0-.7.2-1.4.7-2.1 2.5-4 4.3-8.5 5.4-13.1a4.4 4.4 0 1 1 8.6 1.5 51.9 51.9 0 0 1-6.7 16.2 4.3 4.3 0 0 1-3.7 2ZM951 1535.2a4.2 4.2 0 0 1-4-2.9 168.4 168.4 0 0 0-20.3-40.2 4.3 4.3 0 0 1 4.9-5.4 4.2 4.2 0 0 1 2.8 1.8 172.7 172.7 0 0 1 20.6 41 4.3 4.3 0 0 1-2.5 5.5l-1.5.2Z"/><path fill="#FFFAF4" d="M1430 1133.3c-11-45.2-39-71-66.5-64.3a37 37 0 0 0-10.4 4.3c-20.2 12.3-28.6 44.3-19 83.4 9.7 39 31.7 63.6 55.3 65.2 3.8.3 7.5 0 11.2-1 27.5-6.7 40.5-42.3 29.4-87.6Z"/><path fill="#431426" d="M1392 1226.3h-2.8c-26.2-1.8-49.4-28.6-59.1-68.5-9.7-39.8-1.5-74.5 20.9-88 3.6-2.2 7.5-3.9 11.6-4.8 14.9-3.7 30.3 1.2 43.4 13.7 13 12.5 22.7 31 28.2 53.7 5.6 23 5.5 43.8-.3 60.7-5.8 16.9-17.2 28.6-32.2 32.1-3.2.8-6.4 1.1-9.7 1.1Zm-19.7-154a32.8 32.8 0 0 0-16.9 4.7c-19.2 11.7-25.8 42.5-17.2 78.7 8.6 36 29 60.4 51.4 62 3.3.2 6.7-.1 9.9-1 12.1-2.8 21.2-12 26-26.5 5.3-15.1 5.3-35 .2-55.9-5-20.9-14.3-38.5-25.8-49.5a40.2 40.2 0 0 0-27.6-12.6Z"/><path fill="#431426" d="m1404.3 1124.8-33.5.8 23-23c-11-17.7-25.5-28.3-40.7-29.3-20.2 12.3-28.6 44.3-19 83.4 9.7 39 31.7 63.6 55.3 65.2 20.2-12.3 28.5-44.3 19-83.4-1.2-4.6-2.5-9.2-4.1-13.7Z"/><path fill="#431426" d="M1336.4 1092.5a4.2 4.2 0 0 1-3.4-1.8l-12.2-16.3a4.3 4.3 0 0 1-1-3.2c0-.6.2-1.2.5-1.7a4.3 4.3 0 0 1 6.1-1.4c.5.3 1 .7 1.3 1.2l12 16.3c.5.6.8 1.4.9 2.2a4.3 4.3 0 0 1-2 4c-.7.4-1.5.7-2.3.7h.1ZM1389.8 1074.3h-.6a4.3 4.3 0 0 1-3.6-5l3.2-20a4.3 4.3 0 1 1 8.6 1.4l-3.2 20c-.2 1.1-.7 2-1.5 2.7-.8.6-1.8 1-2.9 1ZM1360.9 1073.3a4.3 4.3 0 0 1-4.2-3.2l-4.8-18.3a4.3 4.3 0 0 1 1.5-4.7 4.3 4.3 0 0 1 6.8 2.5l4.8 18.3c.3 1.1.2 2.3-.4 3.3a4.3 4.3 0 0 1-3.7 2.1Z"/><path fill="#FFFAF4" d="M1659.7 1047.3c-11-45.2-39-71-66.5-64.3a37 37 0 0 0-10.4 4.3c-20.2 12.3-28.6 44.4-19 83.4 9.7 39 31.5 63.6 55.3 65.2 3.7.3 7.5 0 11.2-1 27.5-6.6 40.4-42.2 29.4-87.6Z"/><path fill="#431426" d="M1621.7 1140.3h-2.9c-26.1-1.8-49.3-28.6-59-68.5-9.8-39.8-1.6-74.4 20.9-88 3.6-2.2 7.5-3.8 11.6-4.8 30.7-7.5 60.1 20.2 71.6 67.4 11.4 47.2-1.9 85.4-32.5 92.9-3.2.7-6.4 1-9.7 1Zm-19.9-154c-5.9 0-11.7 1.6-16.7 4.7-19.2 11.7-25.8 42.6-17.2 78.7 8.6 36.1 29 60.4 51.4 62 3.3.2 6.6 0 9.9-.9 25.3-6.2 36.3-40.9 26.2-82.5-9-37.4-30.9-62-53.6-62Z"/><path fill="#431426" d="m1634 1038.9-33.5.7 23-23c-11-17.7-25.5-28.2-40.7-29.3-20.2 12.3-28.6 44.3-19 83.4 9.7 39 31.5 63.6 55.3 65.2 20.2-12.3 28.6-44.3 19-83.3-1.2-4.7-2.5-9.2-4.1-13.7Z"/><path fill="#431426" d="M1566 1006.5a4.3 4.3 0 0 1-3.4-1.8l-12-16.2a4.3 4.3 0 1 1 6.8-5.2l12.1 16.3a4.3 4.3 0 0 1 .4 4.5 4.2 4.2 0 0 1-3.8 2.4ZM1619.5 988.4h-.7a4.3 4.3 0 0 1-3.5-5l3.2-20a4.3 4.3 0 0 1 8.5-.3c.2.5.2 1.1.1 1.7l-3.2 20a4.3 4.3 0 0 1-4.4 3.6ZM1590.4 987.3a4.3 4.3 0 0 1-4.1-3.2l-4.9-18.3c-.1-.6-.2-1.2-.1-1.7a4.3 4.3 0 0 1 8.4-.5l4.8 18.4c.3 1 .2 2.2-.4 3.2a4.3 4.3 0 0 1-3.7 2.1ZM1496 1216a4.7 4.7 0 0 1-2.5-.8 4.5 4.5 0 0 1-1.6-4.5c1-4 10.6-39.6 28.7-46.2 19-7 40.6 25.5 43 29.2.3.5.5 1 .6 1.6.2.6.2 1.2 0 1.8 0 .5-.3 1-.6 1.6l-1.2 1.2a4.3 4.3 0 0 1-3.4.5 4.3 4.3 0 0 1-2.7-2c-5-8-22.1-29.8-32.8-25.8-11.7 4.3-20.8 30.5-23.2 40.1a4.4 4.4 0 0 1-4.2 3.3Z"/><path fill="#BE6956" d="M1660.3 1258.8a85.6 85.6 0 0 1-58.3 105.4l-63.8 18.4a85 85 0 0 1-105.4-58.3l-2.1-6.9a41.3 41.3 0 0 1 37.6-52.7l28.8-1.5h.2l6.6-.3a147.2 147.2 0 0 0 63.3-18.2l5.7-3.3h.2l25.2-14a41.2 41.2 0 0 1 59.9 24.6l2 6.8Z"/><path fill="#431426" d="M1514.6 1390.3a90 90 0 0 1-86-64.7l-2-6.9a45.8 45.8 0 0 1 41.6-58.3l35.5-1.8a137.4 137.4 0 0 0 61.3-17.7l5.8-3.2.3-.1 25-14a45.5 45.5 0 0 1 66.2 27.2l2 6.8a89.5 89.5 0 0 1-61.2 110.7l-63.9 18.4a89.3 89.3 0 0 1-24.6 3.6Zm103.7-164a37.6 37.6 0 0 0-18 4.8l-25 14h-.3l-5.8 3.2a150.7 150.7 0 0 1-65.1 19l-6.7.4-29 1.5a37 37 0 0 0-33.7 47.2l2 6.9a80.9 80.9 0 0 0 100.2 55.4l63.8-18.4a80.8 80.8 0 0 0 55.4-100l-2-7a37.4 37.4 0 0 0-35.7-27Z"/><path fill="#FFFAF4" d="M1519.3 1261.3c1.5 18-7.2 34-21.9 38.2-17.2 5-36.3-8.4-42.5-29.9l-.5-1.7c4.4-1.9 9.1-3 14-3.2l28.7-1.4h.2l6.6-.3a142 142 0 0 0 15.4-1.7ZM1613.2 1224.8c6.2 21.5-2.9 43-20 48-15 4.3-31.2-5-39.3-21.5 4.5-2 9-4.2 13.3-6.6l5.8-3.3h.1l25.2-14a41 41 0 0 1 14.3-4.9l.6 2.3Z"/><path fill="#431426" d="M1490 1304.9a35.3 35.3 0 0 1-20.5-6.9 50 50 0 0 1-18.7-27.2l-.5-1.8a4.3 4.3 0 0 1 2.5-5c4.9-2.1 10-3.3 15.3-3.6l35.6-1.8c5-.2 10-.8 15-1.6a4.3 4.3 0 0 1 4.9 4c1.7 20.4-8.6 38-25 42.7-2.8.8-5.7 1.2-8.6 1.2Zm-30.3-34.4a41 41 0 0 0 14.8 20.5 25.2 25.2 0 0 0 21.8 4.4c11.2-3.2 18.5-15 18.9-29.2-3.7.5-7.3.8-11 1l-6.7.3-29 1.5c-3 .2-6 .7-8.8 1.5ZM1585.6 1278.1c-14 0-27.8-9.3-35.6-25-.2-.5-.4-1-.4-1.6a4.2 4.2 0 0 1 2.6-4.2c4.4-1.9 8.7-4 12.9-6.3l5.7-3.3.3-.1 25-14a45.9 45.9 0 0 1 15.7-5.4 4.3 4.3 0 0 1 4.7 3l.7 2.4c6.9 23.8-3.4 47.7-22.9 53.3-2.8.8-5.7 1.3-8.7 1.2Zm-25.7-24.8c7.7 12.2 20.6 18.6 32 15.4 14.5-4.3 22.2-22.5 17.5-41.3a37 37 0 0 0-9 3.7l-25.2 14h-.3l-5.7 3.2c-3 1.8-6 3.5-9.3 5Z"/><path fill="#FF89A4" d="M1496 1384s1.3-36.4 23.5-55.2c22.1-18.9 48.1-6.5 48.1-6.5s22.3-30.5 56.2-21.7c39 10.1 73.5 64 58.2 147.2-15.2 83.2-67.7 136.1-138.1 112-61.5-21.1-15.6-98.8-10.3-127.5 8.5-46.3-37.5-48.3-37.5-48.3Z"/><path fill="#431426" d="M1577.2 1569.9c-11.8-.1-23.5-2.2-34.7-6.1a48.1 48.1 0 0 1-29.6-24.3c-12-25 .3-59.7 9.3-85 2.9-7.5 5.3-15.1 7.2-23 2.3-12.5.5-22.5-5.3-29.9-9.8-12.3-28-13.3-28.2-13.3a4.3 4.3 0 0 1-4.1-4.5c0-1.5 1.5-38.5 24.9-58.3a50 50 0 0 1 49.5-8.3c6.7-7.7 28.1-28.7 58.7-20.7 41.3 10.7 76.8 67.7 61.4 152.1-9.5 51.6-32.4 90.5-64.5 109.2-13.5 8-29 12.1-44.6 12Zm-76.5-189.8c7 1.2 21 4.8 30 16 7.5 9.5 9.9 21.9 7.1 37a182 182 0 0 1-7.5 24.3c-8.6 24-20 56.7-9.7 78.3a40.1 40.1 0 0 0 24.7 20c26.4 9.1 50.7 7.3 72.2-5.2 29.4-17.2 51.5-55 60.3-103.4 14.6-79.3-17.5-132.5-55-142.3-30.7-8-51 19-51.6 20-.6.9-1.5 1.5-2.4 1.7-1 .3-2 .2-3-.3-.9-.4-23.7-10.9-43.5 5.8-16.4 14-20.6 38.5-21.6 48.1Z"/><path fill="#431426" d="M1604.8 1496.2c-.7 0-1.4-.2-2-.5-1-.5-1.7-1.4-2-2.5-.4-1-.3-2.2.2-3.2 20-37.7 25.5-72.2 16-102.5-13.3-41.8-51-61-51.3-61.3a4.3 4.3 0 0 1-1-7.2c.4-.4.9-.7 1.5-.8.5-.2 1-.3 1.7-.2.5 0 1.1.3 1.6.5a120 120 0 0 1 55.6 66.5c10.4 32.5 4.8 69.2-16.5 109a4.3 4.3 0 0 1-3.8 2.2ZM1473.6 1095.5a4.3 4.3 0 0 1-4.3-5c.2-.7.5-1.5 1-2.1a55.3 55.3 0 0 1 57.7-17.2 4.3 4.3 0 0 1 2.6 5.5 4.3 4.3 0 0 1-5.5 2.6 46.7 46.7 0 0 0-48.4 14.8 4.3 4.3 0 0 1-3.1 1.4Z"/><path fill="#9CC" d="M1689.5 1209.8a184.9 184.9 0 1 1 0-369.8 184.9 184.9 0 0 1 0 369.8Zm0-341a156.2 156.2 0 1 0 0 312.4 156.2 156.2 0 0 0 0-312.5ZM1303 1316.5a184.8 184.8 0 1 1 0-369.6 184.8 184.8 0 0 1 0 369.6Zm0-341.1a156.2 156.2 0 1 0 0 312.4 156.2 156.2 0 0 0 0-312.4Z"/><path fill="#431426" d="M1689.5 1214a189 189 0 1 1 0-378 189 189 0 0 1 0 378Zm0-369.6a180.4 180.4 0 1 0 0 360.9 180.4 180.4 0 0 0 0-361Zm0 341a160.4 160.4 0 1 1 0-320.9 160.4 160.4 0 0 1 0 321Zm0-312.4a151.8 151.8 0 1 0 0 303.7 151.8 151.8 0 0 0 0-303.7Z"/><path fill="#431426" d="M1303 1320.8a189 189 0 1 1 0-378 189 189 0 0 1 0 378Zm0-369.8a180.4 180.4 0 1 0 0 360.9 180.4 180.4 0 0 0 0-360.9Zm0 341.1a160.4 160.4 0 1 1 0-320.8 160.4 160.4 0 0 1 0 320.8Zm0-312.4a151.8 151.8 0 1 0 0 303.6 151.8 151.8 0 0 0 0-303.6Z"/><path fill="#431426" d="M1183.8 1087.2a4.2 4.2 0 0 1-4-2.6 4.3 4.3 0 0 1 .9-4.7l36.2-37.4a4.3 4.3 0 0 1 7 1.3 4.2 4.2 0 0 1-.8 4.7l-36.3 37.4a4 4 0 0 1-1.3 1 4 4 0 0 1-1.7.3ZM1183.8 1116.5a4.4 4.4 0 0 1-3.2-1.3c-.7-.8-1.1-2-1.1-3 0-1.2.5-2.3 1.3-3l36.3-34c.8-.9 2-1.3 3-1.2a4.3 4.3 0 0 1 4.2 4.4c0 1.1-.5 2.2-1.3 3l-36.3 34c-.8.7-1.8 1.1-3 1.1ZM1679 932.6c-1 0-2-.4-2.8-1a4.4 4.4 0 0 1-1.4-3 4.2 4.2 0 0 1 1-3.1l23.8-26.6a4.3 4.3 0 0 1 7.7 2.5 4.3 4.3 0 0 1-1.3 3.2l-23.7 26.6a4.2 4.2 0 0 1-3.2 1.4ZM1689.5 953c-1-.1-2-.5-2.9-1.2l-1-1.4a4.2 4.2 0 0 1 0-3.3c.1-.5.4-1 .8-1.4l30.7-33.5a4.3 4.3 0 0 1 6.4 5.7l-30.8 33.6a4.3 4.3 0 0 1-3.2 1.4Z"/></svg>
