<svg xmlns="http://www.w3.org/2000/svg" width="3000" height="3000" fill="none"><path fill="#FFFAF4" d="M1350.7 2410.7a21.4 21.4 0 0 1-1-42.7c194.3-9.3 222.1-121.7 223.3-126.5a21.3 21.3 0 0 1 33-13 21.2 21.2 0 0 1 8.8 22c-.3 1.6-8.8 39.9-46.6 78.3-33.6 34.2-98.5 76.3-216.5 81.9h-1Z"/><path fill="#431426" d="M1350.7 2415a25.7 25.7 0 0 1-24.5-34.9 25.8 25.8 0 0 1 23.3-16.4c191.1-9 218.3-118.5 219.3-123.1a25.1 25.1 0 0 1 11-16.1 25.7 25.7 0 0 1 39.1 26.9c-.3 1.6-9 41-47.7 80.4-34.2 34.8-100 77.4-219.3 83.1h-1.2Zm243.1-186a17 17 0 0 0-16.7 13.5c-1.1 5-29.7 120.4-227.3 129.9a17.1 17.1 0 0 0 1.7 34.2c116.6-5.6 180.5-47 213.6-80.6 37-37.6 45-74.7 45.5-76.2a17.3 17.3 0 0 0-8.5-18.6 17.4 17.4 0 0 0-8-2.1l-.3-.2Z"/><path fill="#FFFAF4" d="M2236.7 2366.8a21.4 21.4 0 0 1-19.4-12.4c-75.3-163-174.5-202.2-175.5-202.8a21.3 21.3 0 0 1-14-19.2 21.5 21.5 0 0 1 20.6-22.2c2.8-.1 5.6.3 8.2 1.3 4.7 1.7 116.2 44.5 199.4 225a21.4 21.4 0 0 1-19.4 30.3Z"/><path fill="#431426" d="M2236.7 2371a25.7 25.7 0 0 1-23.3-14.8c-74-160.5-172.2-200.2-173.2-200.6a25.7 25.7 0 0 1 18-48c4.7 1.8 117.7 45.2 201.7 227a25.6 25.6 0 0 1-23.2 36.5Zm-187.4-256.4a17 17 0 0 0-6 33c1 .5 102 40.6 177.8 205a17.1 17.1 0 0 0 31-14.3c-82.5-178.8-192.3-221-197-222.7-1.8-.7-3.8-1-5.8-1Z"/><path fill="#9CC" d="M2366.8 2241.5a99.7 99.7 0 0 1 58.5-54.1c52.2-17.5 97.4 12 122.9 35.4l.2.2 3.2 2.8c6.7 6.4 13 13.2 18.6 20.5l.2.3s3.6 53.3-74 132.7a427.7 427.7 0 0 1-50 43.4 523.8 523.8 0 0 1-64.3 41l-.3.1a495.6 495.6 0 0 1-48.1 23c-7.5 3.3-15.3 6-23.2 8h-.8l-.4-.2c-6.8-6-13.2-12.5-19.2-19.4l-1.5-1.6-2-2.2-2.8-2.8-5.2-5.7c-2.7-2.8-5.4-5.7-8.2-9l-39.8-44.4c-26.6-29.9-37.7-41.6-49.5-56-10.6-13.2 6.7-37.8 15.4-39.6l11.6 25.3c7.8-1.1 10.5-.6 17.8-2.9 17.1-5.5 23.8-22.3 23.8-22.3s-19.2-31.6-12-52.8c7.3-21.2 23-6.7 23-6.7l30-3.6 30.3-3.6 45.8-5.8Z"/><path fill="#431426" d="M2310 2499.1h-.8c-.5 0-1-.2-1.4-.4l-.6-.3-.4-.3c-7-6.3-13.7-13-19.9-20.1l-1-1-.5-.6-2-2.1-.9-1-1.8-2-5.3-5.7-3.4-3.8-4.7-5.1a12556 12556 0 0 1-39.9-44.5c0-.2-.2-.3-.3-.4l-20.9-23.4c-12.6-14-20.3-22.6-28.5-32.5-4.8-6-5.7-14.3-2.3-23.5 4-11 13.2-21.5 20.2-22.7a4.3 4.3 0 0 1 4.7 2.4l10.3 22.3 3.5-.3c3.5-.2 7-.8 10.4-2a37 37 0 0 0 20.3-18c-4.2-7.6-17.9-34.5-11.2-54.4a18 18 0 0 1 11-12.4c7-2.4 14.2 1 17 2.7l102-12.1a103.6 103.6 0 0 1 60.2-54.3c55.6-18.7 103.5 14.7 127 36.3l.4.3 2.2 2 1 .9c6.8 6.5 13.2 13.5 19 21l.3.3c.5.7.7 1.4.8 2.2.2 2.3 2.9 56.2-75.3 136a427.6 427.6 0 0 1-50.5 43.8 519.4 519.4 0 0 1-54.7 35.4l-9.9 5.5-.4.2a511 511 0 0 1-47.9 22.8l-.7.3c-7.7 3.4-15.8 6.2-24 8.3h-1.1v.2Zm-75.9-92.5a5693 5693 0 0 0 39.5 44.2l4.7 5 3.4 3.9 5.2 5.7a50 50 0 0 1 1.9 2l.8 1 2 2.2.5.5 1 1a273.5 273.5 0 0 0 17.8 18.3c7.2-2.2 14.2-4.7 21.1-7.6l.3-.2a488 488 0 0 0 47.3-22.5l.4-.2 9.7-5.3a515.7 515.7 0 0 0 54.1-35.3c17.6-13 34.1-27.4 49.5-43 68.8-70.3 72.8-120 73-128.1a186.3 186.3 0 0 0-17.7-19l-.8-.9-2.3-2-.3-.4c-27.3-24.8-69.7-50.7-118.5-34.3a96.2 96.2 0 0 0-55.8 51.6 4.4 4.4 0 0 1-2.9 2.6h-.8l-105.9 12.5c-1 .1-2-.1-2.9-.7-1.7-1.1-7-3.8-11-2.5a10 10 0 0 0-5.7 7c-6.4 19.2 11.4 49 11.6 49.3a4.1 4.1 0 0 1 .3 3.8c-.3.7-7.7 18.8-26.4 24.8-4 1.2-8 2-12.1 2.2-1.7.2-3.7.3-6.2.7-.9.1-1.8 0-2.6-.5a4.3 4.3 0 0 1-1.9-2l-9.8-21c-5 4.2-8.8 9.7-11 15.8-1.6 4.5-2.8 10.7 1 15.2 7.9 9.8 15.5 18.2 28 32.2l21.2 23.7.3.3Zm311.1-180.8.3.2-.3-.2Zm6-6 .2.1-.2-.2Z"/><path fill="#F57162" d="m2548.3 2222.7.2.2 3.2 2.9c6.8 6.3 13 13.1 18.7 20.4l.2.3s3.5 53.3-74 132.7a427.6 427.6 0 0 1-50 43.4c-7.3-8-53.3-45.1-70.6-89.6-23.1-59.2-9-91.6-9-91.6a99.8 99.8 0 0 1 58.6-54c52-17.6 97.1 12 122.7 35.3Z"/><path fill="#431426" d="M2446.4 2427a4.3 4.3 0 0 1-3.2-1.4c-1.1-1.3-3.5-3.5-6.6-6.4-16.3-15.2-50-46.8-64.8-84.5-22.4-57.3-10.7-90.2-9-94.5v-.2a103.3 103.3 0 0 1 61.1-56.7c55.7-18.7 103.5 14.7 127.1 36.3l.3.2 2.3 2.1.9.9c6.9 6.4 13.3 13.5 19.1 21l.3.3c.4.7.7 1.4.8 2.2.1 2.2 2.8 56.2-75.4 136a427.5 427.5 0 0 1-50.5 43.8c-.7.6-1.5.9-2.4.9Zm-75.4-184.2-.2.4c0 .3-13.1 31.9 9 88.3 14 35.9 46.8 66.6 62.6 81.4l4.4 4.1c16.5-12.4 32-26 46.5-40.6 68.8-70.4 72.8-120 73-128.2a187.5 187.5 0 0 0-17.7-19l-.8-.9-2.3-2-.2-.3c-27.1-24.8-69.7-50.9-118.6-34.4a95.3 95.3 0 0 0-55.7 51.2ZM2284.7 2304c-.4 0-.9 0-1.3-.2a4.3 4.3 0 0 1-2.9-5.4c11.8-35.3 6.6-45.6 6.5-45.6a4.2 4.2 0 0 1-.6-3.2c.1-.5.3-1 .7-1.5l1.1-1.1a4.3 4.3 0 0 1 6 1.2c1.4 2 7.4 14-5.7 53a4.3 4.3 0 0 1-3.8 2.8ZM2320.5 2303.4a4.4 4.4 0 0 1-3.9-2.3 4.3 4.3 0 0 1-.3-3.3c5.3-16.6 7.7-34 7.3-51.3a4.3 4.3 0 1 1 8.5-.5c.7 18.5-2 37-7.6 54.6-.3.8-.9 1.5-1.6 2-.7.5-1.5.8-2.4.8Z"/><path fill="#F57162" d="M2383.1 2463c-44 25-70.3 32-73.1 31.8-2.9-.2-44.2-46-79.3-85.7 0 0 74.3-35.8 152.4 54Z"/><path fill="#431426" d="M2309.9 2499.1h-.2c-2.9-.2-5.3-.3-82.2-87.1a4.4 4.4 0 0 1-1-3.7c0-.7.4-1.3.8-2 .5-.5 1-.9 1.7-1.2.9-.3 86.1-33.5 156.2 54.6.4.5.7 1 .8 1.7a4.2 4.2 0 0 1-2 4.7c-41.2 23.3-68.6 33-74.1 33Zm-71.7-88c56.1 63.4 69.6 76.6 72.8 79.4 4.6-1 26-8 64.3-29.4-54.8-65.7-117.8-55.2-137.1-50Z"/><path fill="#FFFAF4" d="m2548.3 2222.7.2.2a320 320 0 0 1 21.9 23.4l.2.3s3.5 53.3-74 132.7a427.7 427.7 0 0 1-50 43.4 525.4 525.4 0 0 1-64.3 41l-.4.1a495.7 495.7 0 0 1-48 23c-7.6 3.3-15.3 6-23.2 8.1H2309.8l-.3-.3c-6.8-6-13.2-12.5-19.2-19.4a657.8 657.8 0 0 0 69.3-36.5c21.8-13 42.9-27.2 63.2-42.4 30.9-23.2 60.7-50.4 81.4-79.7 33-47.3 41-77.7 44.1-93.9Z"/><path fill="#431426" d="M2310 2499.1h-.8c-.5 0-1-.2-1.4-.4l-.6-.3-.4-.3c-7-6.3-13.7-13-19.9-20.1a4.3 4.3 0 0 1 1.5-6.9 633.4 633.4 0 0 0 68.4-35.9l.2-.2.3-.2c21.7-12.9 42.7-26.9 62.9-42 35.2-26.5 62.3-53 80.4-78.8 35.5-50.5 41.4-81.8 43.4-92a4.4 4.4 0 0 1 5-3.5c.7.1 1.4.4 2 1l.4.3c7.8 7.5 15.1 15.4 22 23.6l.6.7c.4.7.7 1.4.8 2.2.1 2.2 2.8 56.1-75.4 136a428.4 428.4 0 0 1-50.4 43.8 520 520 0 0 1-55 35.7l-9.9 5.5-.4.2a511 511 0 0 1-47.9 22.8l-.7.3c-7.7 3.4-15.8 6.2-24 8.3h-1.1v.2Zm-12.8-22.6c8.6 9.2 12.2 12.6 13.7 13.8 7.2-2 14.2-4.6 21.1-7.5l.3-.2a488 488 0 0 0 47.3-22.5l.4-.2 9.7-5.3a514.7 514.7 0 0 0 54.1-35.3c17.6-13 34.1-27.4 49.5-43 68.6-70 72.7-119.6 72.9-128.1-3.4-4-9-10.3-15.4-16.9-3.6 15.2-13 44.9-43.2 87.7-18.6 26.5-46.3 53.7-82.2 80.7a729 729 0 0 1-64.6 43 773 773 0 0 1-63.6 33.8ZM2283.5 2318.2a14.8 14.8 0 0 1-4.3-29 14.9 14.9 0 0 1 8.6 28.5c-1.4.4-2.9.6-4.3.5Zm0-21c-.7 0-1.3 0-1.8.2a6.3 6.3 0 0 0-2.7 10.4 6.3 6.3 0 0 0 10.4-2.6 6.2 6.2 0 0 0-3-7.3 6 6 0 0 0-3-.7ZM2319.4 2318.6a14.7 14.7 0 0 1-14.5-11.8 14.9 14.9 0 0 1 15.2-17.9 14.9 14.9 0 0 1 12.4 21.8 14.8 14.8 0 0 1-13 7.9Zm0-21.1c-.6 0-1.2 0-1.8.3a6.3 6.3 0 0 0 1.2 12.2 6.3 6.3 0 0 0 3.6-11.8c-1-.4-2-.7-3-.7ZM2260.4 2330.8a4.2 4.2 0 0 1-3.3-1.6l-10.7-13a4.3 4.3 0 1 1 6.6-5.3l10.7 13 .8 1.5c.1.5.2 1 .1 1.6a4.3 4.3 0 0 1-1.5 3c-.8.5-1.8.8-2.7.8Z"/><path fill="#9CC" d="M1427.9 2634c-4 6.2-8.1 12-12.3 17.7-23.9 31.7-119.6 68.3-187.2-6-26-28.7-49.8-73-65.7-119.6a419.8 419.8 0 0 1-11.7-39.8c-14.5-60.5-13.4-117.8 15-142a137 137 0 0 1 58.5-26.6l4-.9c35.8-7.5 74.1-7 98.5-5.7a367 367 0 0 1 24.7 2.2c34.4 20 40.5 60.7 38 97.8-1 14.2-14.7 12.9-23.5 39.8-2 7.1-1.6 14.7 1 21.6 0 0 33.2 4.6 60 37 36.8 44.4 20.6 93 .7 124.4Z"/><path fill="#431426" d="M1323.6 2693.6a130 130 0 0 1-98.5-45c-25.6-28.2-49.9-72.3-66.6-121-4.6-13.3-8.5-26.9-11.8-40.2-16.7-69.8-10.8-123.1 16.3-146.3 14.5-12.4 34.9-21.6 60.4-27.4l4.2-1c35.7-7.4 73.8-7.1 99.5-5.6 15.1.8 24.6 2.1 25 2.2.6 0 1.1.2 1.6.5 30 17.3 43.6 51.6 40.1 101.7-.5 8.2-4.6 12.4-9 16.8a55 55 0 0 0-14.7 24.1 29.4 29.4 0 0 0 .2 16.5c23.7 5.7 44.8 19 60.1 38 40.8 49 18.3 101.7 1.2 129l-.2.3c-3.4 5.5-7.4 11.2-12.5 18-13.6 18-48.4 37.3-89 39.2l-6.3.2Zm-25.4-378.8c-23.1-.3-46.2 1.9-68.9 6.3l-4 .9a133 133 0 0 0-56.7 25.6c-24.3 20.7-29.3 72.2-13.5 137.8a420 420 0 0 0 11.5 39.5c16.4 47.7 39.9 90.7 64.9 118a121 121 0 0 0 98 42c37.5-1.7 70.5-19.7 82.5-35.7 5-6.6 8.7-12 12-17.1l.2-.3c16-25.3 37-74.3-.4-119.4a100.7 100.7 0 0 0-57.3-35.4 4.3 4.3 0 0 1-3.4-2.6 39 39 0 0 1-1-24.5 63.7 63.7 0 0 1 16.6-27.4c4-4 6.3-6.4 6.6-11.4 3.2-46.2-8.5-77.6-35.2-93.3-2.6-.3-11.2-1.3-23.5-2a362 362 0 0 0-28.3-1h-.1Z"/><path fill="#F57162" d="M1427.9 2634c-4 6.2-8.1 12-12.3 17.7-23.9 31.7-119.6 68.3-187.2-6-26-28.7-11.6-35.9-27.6-82.3 67-95 166.4-90.8 166.4-90.8s33.2 4.6 60 37c36.8 44.3 20.6 92.8.7 124.3ZM1312.2 2424.2c-30.9 27.6-104.4 48.6-161.3 62.2-14.5-60.5-13.4-117.8 15-142a137 137 0 0 1 58.5-26.5l4.1-1c35.8-7.4 74-7 98.4-5.6 4.4 8 35 68.7-14.7 113Z"/><path fill="#431426" d="M1323.6 2693.6a130 130 0 0 1-98.5-45c-16.5-18.2-17.7-27.3-19.5-41-1.5-13.1-4.5-26-9-38.4a4.4 4.4 0 0 1 .3-3.3c49.5-98.2 169-97.5 170.3-97.5h.5c1.4.2 35.1 5.2 62.6 38.4 40.8 49 18.4 101.8 1.2 129.1l-.2.3c-3.4 5.5-7.4 11.2-12.5 18-13.6 18-48.4 37.3-88.9 39.2l-6.3.2Zm-118.3-125.3c4.3 12.3 7.2 25.2 8.7 38.2 1.8 13.5 2.7 20.2 17.5 36.5a121 121 0 0 0 98 42c37.5-1.8 70.5-19.8 82.5-35.8 5-6.5 8.7-12 12-17l.2-.3c16-25.3 37-74.4-.4-119.4a101.8 101.8 0 0 0-57-35.4c-6.1-.1-115 1.5-161.3 91l-.2.2ZM1151 2490.6a4.2 4.2 0 0 1-4.2-3.2c-16.7-69.8-10.8-123.1 16.3-146.3 14.6-12.4 34.9-21.6 60.4-27.4l4.2-1c35.7-7.4 73.8-7.1 99.5-5.6.8 0 1.5.2 2 .6.7.4 1.2 1 1.5 1.6 4 7.2 36.8 71.4-15.6 118-24.7 22-79.6 43.3-163.1 63.2l-1 .1Zm147.3-175.8c-23.1-.2-46.2 2-68.9 6.3l-4 1a133 133 0 0 0-56.7 25.6c-23.7 20.2-29 70-14.5 133.6 79.7-19.3 132-39.5 155.3-60.2 44-39.3 21-93 14.8-105.4-7.8-.6-16.6-1-26-1Z"/><path fill="#FFFAF4" d="M1427.9 2634c-4 6.2-8.1 12-12.3 17.7-23.9 31.7-119.6 68.3-187.2-6-67.5-74.2-118.9-253.2-62.5-301.4a137 137 0 0 1 58.6-26.5c69.8-10.9 85.1 120 106.5 156.9 19.6 34 111.7 98.2 96.9 159.3Z"/><path fill="#431426" d="M1323.6 2693.6a130 130 0 0 1-98.5-45c-51.2-56.4-92-170.5-87.3-244.3 1.9-29.2 10.4-50.5 25.2-63.2 14.9-12.7 34.9-21.6 60.4-27.4h.3c55-8.5 77.7 62.8 94.4 115 5.9 18.5 11 34.5 16.4 44 5.4 9.3 17.4 22 31.2 36.3 34.3 35.9 77.1 80.5 66.3 125.8l-.6 1.5c-3.4 5.5-7.4 11.2-12.5 18-13.6 18-48.4 37.3-89 39.2h-6.3Zm-98.3-371.5c-24.1 5.5-43.2 14-56.6 25.6-13.5 11.6-20.5 30.4-22.3 57.2-4.5 71.9 35.3 183.1 85.2 238.1a121 121 0 0 0 98.1 42c37.4-1.7 70.4-19.7 82.5-35.8 4.7-6.3 8.5-11.7 11.7-16.8 9.3-40.6-31.3-83.2-64.3-117.4-14.2-14.8-26.3-27.6-32.3-38-6-10.5-11.2-26.7-17.1-45.6-15.8-49.3-37.3-116.7-85-109.3Z"/><path fill="#431426" d="M1408 2664a4.3 4.3 0 0 1-3.6-1.9 4.3 4.3 0 0 1 0-4.7c19.4-29.2-22.3-73.3-59.2-112.2-17.3-18.4-33.6-35.6-41.6-49.7-5.2-9.2-10.7-25.2-17.1-43.8-14.8-43.4-35.1-102.8-67-117.3a37 37 0 0 0-30.6 0 4.2 4.2 0 0 1-3.3 0 4.2 4.2 0 0 1-2.6-4 4.2 4.2 0 0 1 2.6-4 45.5 45.5 0 0 1 37.5 0c35.2 16.1 56.2 77.6 71.5 122.5a308.6 308.6 0 0 0 16.4 42.4c7.4 13 23.4 30 40.4 48 39 41.2 83.2 88 60 122.8a4.2 4.2 0 0 1-3.4 2Z"/><path fill="#431426" d="M1164.6 2383.5a4.3 4.3 0 0 1-4.2-3.7 4.3 4.3 0 0 1 3-4.7l61.8-17.7c.5-.2 1.1-.3 1.7-.2a4.3 4.3 0 0 1 3.7 3 4.2 4.2 0 0 1-.4 3.4 4.2 4.2 0 0 1-2.7 2l-61.7 17.8h-1.2ZM1161.1 2441.3a4.3 4.3 0 0 1-1.2-8.4l88.6-25.6a4.3 4.3 0 1 1 2.4 8.2l-88.6 25.6a4 4 0 0 1-1.2.2ZM1177.1 2491.3a4.3 4.3 0 0 1-1.3-8.4l89-28.6a4.3 4.3 0 0 1 3.4.1 4.3 4.3 0 0 1-.8 8l-89 28.7-1.3.2ZM1192.6 2548.1a4.3 4.3 0 0 1-3.8-6.2c.5-.8 1.2-1.5 2-2l93-42.3a4.3 4.3 0 0 1 5.6 2.1 4.3 4.3 0 0 1-2 5.7l-93 42.3c-.6.3-1.2.4-1.8.4ZM1218.3 2601.7c-1 0-1.9-.3-2.6-.8a4.3 4.3 0 0 1 .4-7l99-59.4a4.3 4.3 0 0 1 5.7 1.4c.3.4.5 1 .6 1.5a4.3 4.3 0 0 1-2.1 4.3l-99 59.3a4 4 0 0 1-2 .7ZM1259.7 2649.5a4.5 4.5 0 0 1-3.4-1.7 4.3 4.3 0 0 1 .9-6l91-69c.8-.6 2-.9 3.1-.7 1.1.1 2.1.7 2.8 1.6a4.2 4.2 0 0 1-.8 6l-91 68.8c-.7.6-1.6 1-2.6 1ZM1315.7 2676.7c-.9 0-1.7-.3-2.4-.8a4.3 4.3 0 0 1-.4-6.7l65.3-57a4.3 4.3 0 0 1 6 .4 4.3 4.3 0 0 1-.3 6l-65.3 57c-.8.7-1.8 1-2.9 1Z"/><path fill="#FFEAB9" d="M2041.4 1318.3a24.2 24.2 0 0 1-.6-47.7c153.3-28.7 193.2-210.1 193.7-212a24.2 24.2 0 0 1 47.4 10c-9.4 38.9-24.5 76.2-45 110.7-45.2 76.4-109.9 124.5-187.2 139a24 24 0 0 1-8.3 0Z"/><path fill="#431426" d="M2045.1 1323a28.5 28.5 0 0 1-5.2-56.5c150.3-28.2 189.9-207 190.2-208.7a28.5 28.5 0 1 1 55.8 11.6 404.7 404.7 0 0 1-45.6 112c-45.8 77.5-111.6 126.3-190 141-1.7.3-3.5.5-5.2.5Zm213-279.2a20 20 0 0 0-19.6 15.8c-.4 2-41 186.1-197 215.4a20 20 0 0 0 .4 39c2.3.4 4.6.4 7 0 76-14.2 139.7-61.6 184.2-137 20.2-34 35.2-70.9 44.4-109.4a19.9 19.9 0 0 0-19.4-24v.2Z"/><path fill="#9CC" d="m2401.9 617 209.9 395.3-71.8 38.1a37.2 37.2 0 1 0-65.7 34.9l-71.8 38.1-210-395.3 71.9-38.1a37.2 37.2 0 0 0 65.7-34.9l71.8-38.1Z"/><path fill="#431426" d="M2402.5 1127.7c-.4 0-.8 0-1.2-.2-1.1-.3-2-1-2.6-2L2188.8 730a4.3 4.3 0 0 1 1.8-5.7l71.8-38.1a4.3 4.3 0 0 1 5.7 1.8 33 33 0 0 0 58-31 4.3 4.3 0 0 1 1.8-5.7l72-38a4.3 4.3 0 0 1 5.7 1.7l210 395.2c.2.5.4 1 .4 1.6a4.4 4.4 0 0 1-2.3 4.2l-71.7 38.1c-1 .5-2.2.6-3.3.3a4 4 0 0 1-2.5-2.1 33 33 0 1 0-58.1 31c.5.9.6 2 .3 3.1-.4 1-1.1 2-2 2.5l-71.9 38.1a4 4 0 0 1-2 .6Zm-204.1-397.8 206 387.8 64.3-34.2a41.4 41.4 0 0 1 72.9-38.7l64.4-34.2-205.8-387.8-64.4 34.1a41.4 41.4 0 0 1-72.9 38.7l-64.5 34.3Z"/><path fill="#431426" d="M2481.6 853.7a4.3 4.3 0 0 1-3.8-2.3l-88.3-166-.5-1.6a4.4 4.4 0 0 1 1-3.1 4.3 4.3 0 0 1 7 .7l88.4 166a4.3 4.3 0 0 1-1.8 5.7c-.6.4-1.3.6-2 .6ZM2549.6 981.7a4.3 4.3 0 0 1-3.8-2.2l-51.6-97a4.3 4.3 0 0 1 5-6.2c1.1.4 2 1.1 2.6 2.1l51.5 97a4.2 4.2 0 0 1-1.8 5.8c-.6.3-1.2.5-2 .5ZM2514.2 1000.7a4.3 4.3 0 0 1-3.8-2.3l-103.2-194.2a4.3 4.3 0 0 1-.4-3.3 4.2 4.2 0 0 1 2.1-2.5 4.3 4.3 0 0 1 4.8.5c.4.3.7.8 1 1.3l103 194a4.3 4.3 0 0 1-1.7 5.8c-.5.4-1.2.6-1.8.7ZM2392 770.8a4.3 4.3 0 0 1-3.8-2.3l-34.2-64.2c-.6-1-.7-2.2-.3-3.3a4.3 4.3 0 0 1 7.8-.7l34.2 64.2a4.3 4.3 0 0 1-1.8 5.7c-.6.3-1.3.5-2 .6ZM2430.6 1041.3c-.8 0-1.5-.2-2.2-.6-.7-.5-1.2-1-1.6-1.7l-26.6-50.4a4.3 4.3 0 0 1 .3-4.9 4.3 4.3 0 0 1 7.3 1l26.6 50.2a4.2 4.2 0 0 1-1.8 5.7c-.6.4-1.3.6-2 .7ZM2385.7 956.7a4.3 4.3 0 0 1-3.8-2.3l-26.8-50.5a4.3 4.3 0 0 1 1.8-5.8 4.3 4.3 0 0 1 5.8 1.8l26.8 50.4a4.3 4.3 0 0 1-1.8 5.7c-.6.4-1.3.6-2 .7Z"/><path fill="#FFFAF4" d="M2215.1 1028.4s-21.5-58.8-16.3-91.5c5.5-35 27.7-66 30.7-84 3-17.9-4.8-57.4 11.3-58.6 16.2-1.2 34.8 12.5 37 45.5 2 26.4 2.1 53.2 2.1 53.2l75.3 141.7s-28 23-46.1 21.3c0 0 28.8 34.7 9 46.6-19.8 12-47.3-26.9-64-32.3-16.9-5.4-65.6 5-65.5-19 .2-24 26.5-22.9 26.5-22.9Z"/><path fill="#431426" d="M2310 1109.3c-12.6 0-25.7-11-37.5-21-7.5-6.3-14.6-12.3-19.7-14-4.7-1.4-13-1.6-21.8-1.7-20.8-.3-46.7-.7-46.6-21.3a25.6 25.6 0 0 1 7.6-19c4.8-4.3 10.9-7 17.3-7.8-5.2-15.4-19.1-60.3-14.7-88.2 3.3-21.1 12.6-40.9 20-56.8 5-11 9.5-20.4 10.6-27.2.8-6.8 1-13.6.7-20.3-.3-19.2-.6-40.9 14.6-42a33 33 0 0 1 24.2 8.6c7 6 15.9 18.2 17.5 41 1.7 23.3 2 47.1 2 52.4l74.9 140.8a4.3 4.3 0 0 1-1.1 5.3c-1 .9-22.4 18.2-40.8 21.7 5.7 8.2 13.7 22.4 11.8 34a18 18 0 0 1-8.7 12.7 20 20 0 0 1-10.4 2.8Zm-95.3-76.6c-1.7 0-11 .3-16.9 5.7a17.2 17.2 0 0 0-4.8 12.8c0 11.4 16.5 12.4 38.2 12.7 9.4.2 18.3.3 24.2 2.2a79.6 79.6 0 0 1 22.6 15.5c13 11 27.8 23.4 38 17.3a9.4 9.4 0 0 0 4.6-6.8c1.8-10.7-10-27.8-14.7-33.6a4.2 4.2 0 0 1-.5-4.7 4.3 4.3 0 0 1 4.2-2.3c11.9 1.3 31.1-11.2 40.3-18.2L2276.3 895c-.3-.6-.5-1.3-.5-2 0-.3-.1-26.9-2-52.8-1.5-20-8.8-30.2-14.6-35.2a24.7 24.7 0 0 0-18-6.4c-7.1.6-6.9 19.5-6.7 33.3.3 7.3 0 14.6-.8 21.9-1.3 8-6 18-11.4 29.4a209.8 209.8 0 0 0-19.3 54.5c-4.9 31.3 16 88.8 16.2 89.3a4.4 4.4 0 0 1-.6 4 4.3 4.3 0 0 1-3.6 1.8h-.3Z"/><path fill="#431426" d="m2293.2 991-1.6-.4a4.3 4.3 0 0 1-2.4-5.6s5.7-16.2-6.8-46.4c-4.3-10.4-6.3-41.9-6.6-45.4a4.2 4.2 0 0 1 1-3.1 4.3 4.3 0 0 1 7.6 2.5c.5 9.3 2.8 35 6 42.7 14.2 33.9 7 52.2 6.7 53a4.2 4.2 0 0 1-4 2.6ZM2226.3 1045.3c-1 0-2-.5-2.9-1.2-4.3-4-8.2-8.5-11.7-13.3l-.7-1.6a4.3 4.3 0 0 1 7.8-3.2c3.2 4.3 6.8 8.3 10.6 12a4.3 4.3 0 0 1-3.1 7.3ZM2309 1060.2h-.4l-9.7-1a4.3 4.3 0 0 1-3.3-6.4 4.3 4.3 0 0 1 4.2-2.2l9.8 1a4.3 4.3 0 0 1 4 4.6 4.3 4.3 0 0 1-4.5 4Z"/><path fill="#FFFAF4" d="m993.2 931 47.1 128 20.2 54.9 399.7 1086.6s22.5 26.2 92.2 38.6a499 499 0 0 0 123.9 5c49.5-3.7 98.7-11 147-22a970.4 970.4 0 0 0 134.8-39 543.5 543.5 0 0 0 109.7-54.4c63-42 76.9-77.5 76.9-77.5l-89.3-1154.4-15-194.2L993.1 931Z"/><path fill="#431426" d="M1632.3 2249.8c-27 .2-54-2-80.7-6.5-70.3-12.6-93.7-38.9-94.7-39.9l-.8-1.3-467-1269.4a4.2 4.2 0 0 1 3-5.7l1047.3-228.6a4.2 4.2 0 0 1 5.1 3.9l15 194.2 89.3 1154.3c0 .7 0 1.3-.3 1.9-.5 1.5-14.8 37.4-78.4 79.6a553 553 0 0 1-110.4 54.8 974.9 974.9 0 0 1-135.4 39.2c-48.6 10.9-98 18.2-147.7 21.9-15.3 1-30.1 1.6-44.3 1.6Zm-168.5-51.6c3.6 3.6 27.6 25.7 89.3 36.7 35.4 6.3 76.7 8 122.9 4.9 49.3-3.7 98.2-11 146.5-21.9a967.1 967.1 0 0 0 134.2-38.8 537 537 0 0 0 108.7-54c55.8-37.1 72.3-69.3 74.8-74.8L2051.1 897l-14.6-189.3L998.9 934.2l465 1264Z"/><path fill="#F57162" d="M1958.1 2183.2a544 544 0 0 0 109.7-54.5l-1.2-6-118.2-1154.5-12.4-103.1-184 84.7 18 82.7L1958 2183.2ZM1349 1032.2l19.2 88 308 1123.8c49.6-3.6 98.8-11 147.2-21.9l-248.5-1138.4-20-91-206 39.5ZM1040.2 1059l20.1 54.9 399.8 1086.6s22.6 26.2 92.3 38.6l.3-4.2L1179.2 1136l-26.2-74.8-112.8-2.3Z"/><path fill="#431426" d="M1958.2 2187.4a4.2 4.2 0 0 1-4.2-3.6l-188.3-1150.6-18-82.6a4.2 4.2 0 0 1 2.4-4.8l184.1-84.6a4.3 4.3 0 0 1 5.3 1.4c.4.6.7 1.2.7 2l12.5 103 118 1154.4 1.3 5.7a4.2 4.2 0 0 1-1.9 4.4 553 553 0 0 1-112 55.3ZM1756.8 952.3l17.4 79.4 187.4 1145.6a543 543 0 0 0 101.5-50.6l-.6-3.1v-.4L1944.2 968.7l-11.8-97.3-175.6 80.9ZM1676.3 2248.2c-1 0-1.9-.3-2.6-.9a4.2 4.2 0 0 1-1.5-2.2L1364 1121.3l-19.2-88.3a4.2 4.2 0 0 1 1.8-4.5c.5-.3 1-.5 1.6-.6l206.1-39.4a4.3 4.3 0 0 1 5 3.3l20 91 248.4 1138.4a4.2 4.2 0 0 1-3.3 5c-48.7 11-98 18.3-147.8 22h-.3ZM1354 1035.6l18.3 83.7 307.2 1120.4c46.7-3.7 93-10.6 138.8-20.7l-247.5-1134.3-19-86.9-197.8 37.8ZM1552.4 2243.4h-.8c-70.3-12.6-93.7-39-94.7-40a5 5 0 0 1-.8-1.3l-420-1141.6c-.2-.6-.3-1.3-.1-2a4.2 4.2 0 0 1 2.3-3.3c.6-.3 1.3-.5 2-.4l112.8 2.2a4.2 4.2 0 0 1 4 2.9l26 74.7 373.7 1098.8c.2.5.2 1.1.2 1.7l-.4 4.2c0 .6-.2 1.2-.4 1.7-.3.5-.7 1-1.2 1.4a4 4 0 0 1-2.6 1Zm-88.6-45.2c3.5 3.5 26.3 24.4 84.1 35.7l-372.8-1096.5-25.2-71.9-103.6-2.1 18.2 49 399.3 1085.8Z"/><path fill="#F57162" d="m993.2 931 67.3 182.9c76.9 30.6 280.5 20.8 514.6-30.3 234.9-51.2 424-126.9 480.4-186.8l-15-194.2L993.2 931Z"/><path fill="#431426" d="M1196.2 1135.6c-59.8 0-107.5-5.7-137.4-17.8a4.4 4.4 0 0 1-2.5-2.5l-67.2-182.7a4.3 4.3 0 0 1 3-5.7l1047.3-228.6a4.2 4.2 0 0 1 5.2 3.9l15 194.2a4.4 4.4 0 0 1-1.4 3.5c-58.9 62.2-252.6 137.7-482.4 188-143.5 31.3-278.8 47.7-379.6 47.7Zm-132.5-25c80.1 30.6 284.6 18.1 510.3-31.1C1800.8 1030 1992 956 2051 895.2l-14.5-187.4L998.9 934.2l64.8 176.4Z"/><path fill="#FFFAF4" d="M1541.1 928.6c289.2-63 512.7-164.3 499.2-226-13.4-61.8-258.8-60.7-548 2.5-289.2 63-512.7 164.3-499.2 226 13.5 61.7 258.8 60.6 548-2.5Z"/><path fill="#431426" d="M1541.1 928.6c289.2-63 512.7-164.3 499.2-226-13.4-61.8-258.8-60.7-548 2.5-289.2 63-512.7 164.3-499.2 226 13.5 61.7 258.8 60.6 548-2.5Z" opacity=".1"/><path fill="#431426" d="M1159.4 981c-74 0-161.7-8.6-170.5-49-9-41 70.4-86.5 138.6-117.3 94.5-42.8 223.8-83.3 364-114 140-30.7 274.4-47.6 378.2-48 74.8-.4 166 7.9 174.8 49 8.8 41-70.4 86.4-138.5 117.3-94.6 42.7-223.8 83.2-364 113.9-140.1 30.7-274.5 47.7-378.3 48.2l-4.3-.2ZM1874 661.1h-4.3c-103.2.5-236.9 17.5-376.5 48-139.5 30.4-268.2 70.7-362.2 113.2-91 41.2-139.6 80.5-133.7 107.8 5.8 27.2 66.5 42.5 166.4 42.2 103.2-.5 237-17.5 376.5-48 139.6-30.5 268.2-70.7 362.3-113.2 90.9-41.2 139.5-80.5 133.7-107.8-6-27.2-65-42.2-162.2-42.2Z"/><path fill="#431426" d="M1800 860.7a4.3 4.3 0 0 1-4.2-3.6 4.3 4.3 0 0 1 2.8-4.8c152.4-53.5 245.6-112 237.6-148.8a4.4 4.4 0 0 1 .5-3.3 4.3 4.3 0 0 1 4.4-2 4.3 4.3 0 0 1 2.8 1.9c.3.5.5 1 .6 1.6 9.3 42.7-81.5 102-243 158.7l-1.5.3ZM1377.8 962.8a4.3 4.3 0 0 1-4.6-4 4.3 4.3 0 0 1 4-4.5 2407 2407 0 0 0 244-49 4.3 4.3 0 0 1 4.7 1.5c.4.4.6 1 .8 1.5a4.3 4.3 0 0 1-3.4 5.3 2438.3 2438.3 0 0 1-245 49l-.5.2ZM1061.6 973.8h-.8c-43.3-8-67.6-22-71.9-41.7a4.3 4.3 0 0 1 5-5.2 4.3 4.3 0 0 1 3.4 3.3c3.4 16 26 28 65 35.1a4.3 4.3 0 0 1-.7 8.6v-.1Z"/><path fill="#FFFAF4" d="M1989.6 704.5s98.2 4.8 96.3-66.4c-2-71.2-40.5-104-76-100.1 0 0-36.7-113.6-131.1-82.8-94.5 30.8-88.5 114.5-88.5 114.5s-78.2 36-50.8 122.3c20 62.7 71.5 49.1 71.5 49.1s41.1 52.5 111.3 34c70.1-18.6 67.3-70.6 67.3-70.6Z"/><path fill="#431426" d="M1893 783.3c-46.5 0-76.3-29.4-83.5-37.4-11.4 1.8-55.7 4.8-74-52.5-25.4-79.8 37-118.7 50.4-126.1 0-15.3 5.1-87.9 91.5-116 26-8.6 50.2-7.2 72 3.9 39.4 20.1 58.6 65.8 63.2 78.4 16-.6 31.5 5.1 43.3 15.9 21 18.3 33 49.7 34.2 88.6a58.8 58.8 0 0 1-17.3 45.4c-24 23.5-65.5 25.5-79 25.5-1.3 13.7-10 54.3-70.3 70.3-10 2.7-20.2 4-30.5 4Zm-82-46.4a4.3 4.3 0 0 1 3.5 1.7 103.8 103.8 0 0 0 106.7 32.4c65.7-17.3 64.2-64.2 64.1-66.2a4.4 4.4 0 0 1 2.7-4.2l1.8-.3c.5 0 51.4 2.2 77-23a50.3 50.3 0 0 0 14.8-39c-1-36.4-12-65.7-31.2-82.4a52.5 52.5 0 0 0-40.1-13.6 4.3 4.3 0 0 1-4.6-2.8c-.1-.6-18.3-55.3-60-76.6a83.1 83.1 0 0 0-65.6-3.5c-90.1 29.5-85.7 109.4-85.6 110.2 0 .9-.2 1.8-.6 2.5-.5.8-1.1 1.4-1.9 1.7-3 1.4-74.3 35.5-48.4 117 18.4 57.9 64.4 46.9 66.3 46.3l1.2-.2Z"/><path fill="#431426" d="M1813.5 612.6c-1.4 0-2.8-.2-4.2-.6-16.1-4.9-22.6-37.7-23.3-41.4a4.3 4.3 0 0 1 4.6-5c4 .4 39 4.2 44.7 19.7 2.3 6 0 12.5-6.4 19.3-5 5.3-10.2 8-15.4 8Zm-17.8-37.7c2.8 11.8 8.8 26.8 16 29 3.1.8 6.9-.9 11-5.2 4.2-4.4 5.7-7.7 4.6-10.4-2.4-6.6-18.3-11.4-31.5-13.4h-.1ZM1985.4 566.5a12.8 12.8 0 0 1-11-6.5 12.2 12.2 0 0 1-1.4-12.7c5.7-11.4 31.3-13.2 36.6-13.5a4.3 4.3 0 0 1 3.8 2 4.2 4.2 0 0 1 0 4.3c-2.3 4.3-14.8 25.9-27.6 26.4h-.4Zm16.2-23.3c-9.2 1.3-19 4-21 7.9-.2.4-.8 1.5 1 4.2 1.7 2.6 3.4 2.8 4 2.8 4.5-.3 11-7.4 15.9-14.9h.1ZM1811 745.5a4 4 0 0 1-1.6-.4 4.3 4.3 0 0 1-2.6-3.5c-.3-4-3.5-39.6 10.3-49.7 3.1-2.3 8.5-4.3 16.6-.8 8.1 3.5 10.2 8.7 10.6 12.5 1.9 16.8-27.3 38.6-30.7 41-.7.6-1.6.9-2.5.9Zm14.5-47.8c-1.2 0-2.4.4-3.4 1.1-6.1 4.5-7.6 21-7.3 34 10.3-8.5 21.8-20.8 21-28.2 0-.9-.4-3.5-5.5-5.7a12 12 0 0 0-4.8-1.2ZM1989.6 708.9h-.1c-1.2 0-27.6-1.2-47.7-16.3a4.2 4.2 0 0 1-1.6-4.5c.1-.5.4-1 .7-1.5a4.3 4.3 0 0 1 6-.8 86.7 86.7 0 0 0 42.7 14.5 4.3 4.3 0 0 1 3 7.4c-.9.8-2 1.2-3.1 1.2ZM1987 665.3a4.3 4.3 0 0 1-.7-8.6c1-.2 24.2-5.2 20-38.1-4.5-33.4-46.6-28.2-48.5-28a4.3 4.3 0 0 1-4.8-3.7c-.2-1.1.1-2.3.8-3.2.7-.9 1.8-1.5 2.9-1.6 1-.2 26.6-3.4 43.7 9.6a37.1 37.1 0 0 1 14.3 25.7c5.4 41-26.5 47.5-26.8 47.6l-.9.3ZM1888.8 688.3c-9.2 0-20.6-3.3-27-14.9-5-9.2-5.8-17.7-2.8-25.4 5.7-13.9 22.8-19.2 23.4-19.4a4.3 4.3 0 0 1 2.5 8.1c-.2 0-13.9 4.5-18 14.6-2 5.2-1.3 11.4 2.4 18 7.9 14.6 26.2 9.7 27 9.5a4.3 4.3 0 0 1 5 6.2 4.2 4.2 0 0 1-2.6 2c-3.2.8-6.5 1.3-9.9 1.3ZM1928.2 551.1a4.2 4.2 0 0 1-3.3-1.5c-.8-1-1-2-1-3.2.1-1.1.7-2.1 1.5-2.9a12 12 0 0 0 3.7-8c.3-5-2.3-10.6-7.7-16.7-6.2-6.8-12.9-10.1-20-9.8-15 .7-27.8 17.8-27.9 18a4.3 4.3 0 0 1-6.9-5c.6-.9 15.2-20.5 34.4-21.5 9.8-.5 18.8 3.7 26.8 12.6 7 8 10.4 15.7 9.8 23.2a20.9 20.9 0 0 1-6.7 13.8c-.8.7-1.7 1-2.7 1Z"/><path fill="#FFFAF4" d="M1800 856.4a2091.4 2091.4 0 0 1-177.8 53.1 174.5 174.5 0 0 1-17.9-17.8s-55.3 53.5-121-23.2c-65.5-76.7 39-129 39-129s-13.4-45.4 38.4-88c51.8-42.7 98.7 24.3 98.7 24.3s42.7-40.1 78.2-5.5c35.4 34.6-.7 86-.7 86s65.4 43.2 63.1 100.1Z"/><path fill="#431426" d="M1557 914.2h-3.5c-25.4-1.3-50-15.7-73.4-42.8-18.6-21.7-25.8-43.8-21.4-65.5 7.6-37.6 47.4-62 58.8-68.3-2.2-11.8-5.2-51.5 40.5-89.2 14.5-11.9 30-16.8 46.2-14.6 27.5 3.7 48.4 27 55.9 36.2 11.6-9 48.6-33.4 80.5-2.4 31.8 31 9.7 75.1 2.1 88 13.8 10 63.6 49.7 61.6 101.3 0 .9-.3 1.7-.8 2.4s-1.3 1.2-2 1.5a2083.8 2083.8 0 0 1-178.2 53.2 4.2 4.2 0 0 1-3.9-1c-5.4-4.7-10.6-9.7-15.5-15a77.5 77.5 0 0 1-47 16.2Zm39.9-272.7a52 52 0 0 0-33.5 13.2c-49 40.4-37 83.1-37 83.6a4.3 4.3 0 0 1-2.2 5c-.5.2-49.2 25.1-57.1 64-3.8 19.1 2.8 38.8 19.5 58.4 21.7 25.4 44.4 38.7 67.3 39.9a69 69 0 0 0 47.5-16.9 4.4 4.4 0 0 1 3.2-1.2 4.2 4.2 0 0 1 3 1.6c5 5.6 10.2 10.9 15.7 15.8a2088.8 2088.8 0 0 0 172.5-51.5c0-52.5-60.6-93-61.2-93.4a4.4 4.4 0 0 1-1.9-2.8 4.4 4.4 0 0 1 .7-3.2c1.4-2 33.7-49 1.2-80.6-32.5-31.6-70.7 4-72.3 5.6a4.3 4.3 0 0 1-6.4-.7c-.3-.3-22.8-32.3-52.9-36.3-2-.3-4.1-.5-6.2-.5Z"/><path fill="#431426" d="M1604.3 896a4.4 4.4 0 0 1-4-2.8c-2.3-6-13.2-36.5-3.3-47.4 2.5-2.7 7-5.4 15.3-3 9 2.4 14.4 7 16 13.6 3.6 16-18.6 36.2-21.1 38.4-.8.8-1.8 1.2-2.9 1.2Zm2.2-45.6a4 4 0 0 0-3.1 1.2c-4 4.4-1.1 20 2.8 32.4 7.4-7.8 15.4-18.8 13.8-25.7-.8-3.3-4.1-5.7-9.9-7.3-1.2-.4-2.4-.5-3.6-.5ZM1692.8 857c-7.4.2-14.6-2.3-20.2-7.2-14-12.2-12.9-35.8-12.8-36.8 0-.5.2-1 .4-1.6a4.2 4.2 0 0 1 2.5-2.2 4.3 4.3 0 0 1 5.6 4.3c0 .2-.9 20.4 10 30 5.2 4.5 12.6 6 22 4.2 13.6-2.6 22.7-7.8 27-15.4a26 26 0 0 0 1.1-20 4.3 4.3 0 0 1 5.7-5.6c1 .5 1.8 1.3 2.3 2.4a34.2 34.2 0 0 1-1.6 27.2c-5.5 10-16.6 16.7-33 19.8-3 .5-6 .8-9 .9ZM1597.5 777c-.5 0-1 0-1.4-.2-2-.7-48.5-17.5-42.8-49.2a29 29 0 0 1 12.4-20.2c12.6-8.3 29.3-4.6 30-4.4a4.3 4.3 0 0 1 3.2 3.4v1.7a4.3 4.3 0 0 1-5.2 3.2s-13.9-3-23.3 3.2a20.5 20.5 0 0 0-8.6 14.5c-4.3 24.6 36.8 39.5 37.3 39.7.9.3 1.7 1 2.2 1.8a4.3 4.3 0 0 1-3.7 6.5h-.1ZM1658.5 742.4a4.3 4.3 0 0 1-3.4-1.8c-30.7-42.2 1.3-68 1.7-68.2a4.3 4.3 0 0 1 6 .8 4.2 4.2 0 0 1 .8 3.1 4.3 4.3 0 0 1-1.6 2.9c-1.1.9-25.6 21 0 56.4a4.2 4.2 0 0 1-1 6c-.7.5-1.5.8-2.5.8Z"/><path fill="#FFFAF4" d="M1578.6 633.8s30.5 59.2 77.8 50c47.2-9.3 64.1-69.2 64.1-69.2s91.5-31 65.3-89.8c-26.2-58.9-78.5-42.2-78.5-42.2s-20.4-88-78.6-83.6c-58.1 4.4-74 73.5-74 73.5s-101.9-.3-104 91.1c-2.2 91.5 127.9 70.2 127.9 70.2Z"/><path fill="#431426" d="M1646.2 689c-38.3 0-63.7-39.6-70-50.5-14.2 1.8-75 7.8-108.2-21.2-14.9-13-22.2-31.1-21.6-53.8 2-85 87-94.2 105-95.2 4.1-14 24-69.5 77.1-73.5 54.3-4.1 76.9 64.7 82 82.7 13.7-2.6 56.4-6 79.3 45.6a50.6 50.6 0 0 1 .8 42.4c-13.7 31.3-56.4 48.6-66.5 52.4-3.6 11.2-22.2 61.4-66.8 70-3.7.8-7.4 1.2-11 1.1Zm-67.6-59.5a4.3 4.3 0 0 1 3.8 2.3c.2.6 29.6 56.3 73.2 47.8 44-8.6 60.7-65.5 60.9-66.2a4.3 4.3 0 0 1 2.8-2.9c.5-.1 49.8-17 63.5-48.4a42.3 42.3 0 0 0-.8-35.4c-24.4-54.8-71.2-40.5-73.3-40a4.2 4.2 0 0 1-3.4-.3 4.1 4.1 0 0 1-2-2.8c-.3-.9-20.3-84.3-74.1-80.3-54.5 4-70.2 69.4-70.4 70a4.3 4.3 0 0 1-4.1 3.4c-4.5 0-97.7 1-99.7 87-.5 19.9 5.7 35.8 18.7 47 34.1 29.8 103.6 19 104.3 18.9h.6Z"/><path fill="#431426" d="M1693 519.6c-3.5-.1-6.9-1.6-9.4-4.2-7-6.2-7.6-12-6.7-15.8 2.8-13.1 26.5-20.3 29.2-21a4.3 4.3 0 0 1 5.4 4.4c-.4 5.2-3 31.3-14.6 35.9-1.2.5-2.5.7-3.8.7Zm9.2-30.7c-7.8 3.1-16 8-17 12.6-.5 2.2.9 4.7 4 7.5 1.4 1.2 3.2 2.5 4.5 2 3.8-1.6 7-12.3 8.5-22ZM1603.3 500a4.3 4.3 0 0 1-3.3-1.6 54.2 54.2 0 0 0-45-21.7 4.3 4.3 0 0 1-.9-8.5c1.3 0 30.2-2.9 52.5 24.8a4.3 4.3 0 0 1-.6 6c-.8.6-1.7 1-2.7 1ZM1578.5 638a4.1 4.1 0 0 1-3-1.3c-.6-.6-14-15.3-1-50.5a4.3 4.3 0 0 1 8-.2c.4 1 .5 2.2 0 3.2-11 29.7-.9 41.6-.8 41.7a4.2 4.2 0 0 1 .8 4.6 4.2 4.2 0 0 1-4 2.6ZM1631 618.8h-1a4.2 4.2 0 0 1-3.3-5c.4-1.8 9-44.6 43.3-45.7 11.9-.3 21.1 2.6 27.5 8.7 5 5 8 11.6 8.2 18.6a4.3 4.3 0 0 1-8.5 0c-.4-4.7-2.4-9.2-5.7-12.5-4.6-4.5-11.8-6.5-21.2-6.3-27.5.9-35 38.5-35.2 38.9a4.3 4.3 0 0 1-4.2 3.3ZM1524.2 580a4.3 4.3 0 0 1-3.3-1.6c-.5-.7-13.5-16.6-10.9-32.7a27.4 27.4 0 0 1 13.6-19.2c28.6-18 44.8.7 45 .9.7.9 1 2 1 3.1a4.3 4.3 0 0 1-7.5 2.4c-.5-.5-11.8-13-34 .9a19 19 0 0 0-9.6 13.2c-1.7 10.3 6 22.2 9 26 .5.5.8 1.3 1 2.1a4.3 4.3 0 0 1-2 4.2c-.7.4-1.5.6-2.3.6Z"/><path fill="#FFFAF4" d="M1377.8 958.5c-102 15-191.9 20.7-259.2 17.1-19.1-.9-38.2-3-57-6.2 16.6-31.7 51.9-26.5 51.9-26.5s-9.4-63.3 43.8-75.9c53.2-12.5 62.6 37.6 62.6 37.6s15.7-34.2 63.4-21.4c47.7 12.8 32.8 54.1 32.8 54.1s46.3-6.4 61.7 21.2Z"/><path fill="#431426" d="M1159.9 981c-14.6 0-28.4-.4-41.6-1-19.2-1-38.4-3-57.5-6.3a4.3 4.3 0 0 1-3-6.2 55.3 55.3 0 0 1 51-29c-1-16 .4-64.4 47.5-75.5 17.5-4.1 32.4-2.2 44.4 5.7a55.5 55.5 0 0 1 20.6 26.4c8.5-10.1 27.6-25.3 63-15.8 16.2 4.4 27.4 12.4 33.4 23.8 4.5 9.2 5.9 19.7 3.9 29.8 13.8-.9 46.6 0 59.8 23.7a4.3 4.3 0 0 1-1.2 5.5c-.6.4-1.2.7-2 .8a1565 1565 0 0 1-218.3 18Zm-91.4-14.7a470 470 0 0 0 50.3 5c66.7 3.6 153.5-2 251.5-16-16.6-18.5-53.3-13.6-53.7-13.5a4.3 4.3 0 0 1-4-1.6 4.2 4.2 0 0 1-.6-4.1c0-.2 5.3-15.6-1.9-29.3-4.8-9.2-14.2-15.7-28-19.4-43.5-11.7-57.8 17.8-58.4 19a4.2 4.2 0 0 1-4.4 2.5 4.3 4.3 0 0 1-3.7-3.4c0-.2-3.9-19.7-19.6-29.9-10-6.4-22.6-7.9-37.7-4.3-48.8 11.4-41 68.6-40.6 71a4.2 4.2 0 0 1-1.2 3.7 4.1 4.1 0 0 1-3.7 1.2c-1.2-.1-28.6-3.7-44.3 19.1Z"/><path fill="#431426" d="M1219.2 945h-1.6a13 13 0 0 1-11.6-7c-5.5-11.3 7.6-31.6 10.3-35.6a4.3 4.3 0 0 1 3.8-1.9 4.3 4.3 0 0 1 3.5 2.3c2.3 4.3 13.3 26.6 6.4 37a12 12 0 0 1-10.8 5.2Zm0-31.2c-4.1 7.6-7.5 16.6-5.7 20.5.2.4.9 1.8 4.6 2.1 3.7.3 4.3-1 4.6-1.3 2.4-3.5 0-13-3.4-21.3h-.1ZM1118.6 980l-1.5-.3a4.2 4.2 0 0 1-2.6-5.5 24.1 24.1 0 0 1 16.4-14.9c31.3-10.5 39.3 5.5 39.6 6.1a4.3 4.3 0 0 1 .3 3.4l-.9 1.5a4.3 4.3 0 0 1-7.1-1.2s-5.6-9.6-29.2-1.7a16 16 0 0 0-11 9.6 4.3 4.3 0 0 1-4 3Z"/><path fill="#FFFAF4" d="M1419.4 670s64-9 73 35c8.8 44-14.3 64.1-14.3 64.1s16.2 40-2 57.6c-18.3 17.6-31.8 12.2-31.8 12.2s-18.3 73-77.8 54.1c-59.4-18.9-57-49.3-57-49.3s-70.7 41.8-98.4-9.2c-27.7-51 10.2-69.2 10.2-69.2s-86.6-110.9 40.5-154.5c127.1-43.6 157.6 59.1 157.6 59.1Z"/><path fill="#431426" d="M1385.6 900.4c-6.8 0-13.7-1.2-20.2-3.3-45.3-14.4-56.5-35.8-59.2-46.7-12.2 6-41.8 18.7-67.6 11.6a49.8 49.8 0 0 1-31.1-25.5c-10.3-19-13.2-36-8.6-50.4 3-9 8.6-16.6 16.3-22-9.1-13-36-56.2-23.9-97.2 8-27 31.4-47.2 69.2-60.2 43.6-15 81-14.7 111 .8 33.3 17 47 47.5 51 57.8 24.2-2.4 66.8 2.8 74 38.9 7.7 38.2-7.5 59.5-13.4 66 3.5 9.6 13.4 42.8-4 59.6-13.8 13.3-25.6 14.6-31.7 14-3.2 10.2-13.7 37.3-36.4 50a51.5 51.5 0 0 1-25.4 6.6Zm-76-61a4.3 4.3 0 0 1 3.9 2.3c.3.7.5 1.5.4 2.3 0 .2-.9 27.4 54.1 45a47.6 47.6 0 0 0 39-2.6c24.3-13.6 33.3-48.2 33.3-48.4a4.3 4.3 0 0 1 4-3.2l1.8.3c.3.2 11.3 4 27.2-11.4 15.8-15.3 1.1-52.6 1-53-.3-.7-.4-1.6-.2-2.5.2-.9.7-1.6 1.3-2.2.9-.8 21-19.3 12.8-60-8-39.6-67.6-31.9-68.2-31.8a4.2 4.2 0 0 1-4.6-3c0-.4-11.6-37.4-47.9-56.1-27.8-14.2-62.9-14.4-104.2-.2-35 12-56.5 30.3-63.7 54.5-13 43.6 24.8 92.8 25.1 93.3a4.2 4.2 0 0 1-1.5 6.4 35.5 35.5 0 0 0-16.1 19.8c-3.9 12.2-1.2 26.8 7.9 43.6a41.4 41.4 0 0 0 25.8 21.3c29.2 8 66.3-13.6 66.7-13.8.7-.4 1.4-.6 2.2-.6Z"/><path fill="#431426" d="M1387 716.5a15 15 0 0 1-11.3-5.4 14.6 14.6 0 0 1-4.2-14.2c4.5-17.1 42.3-29.7 46.6-31a4.2 4.2 0 0 1 4.5 1.1 4.2 4.2 0 0 1 .8 4.5c-1.6 4.3-16.4 41.4-33.7 44.8-1 .2-1.8.2-2.7.2Zm24.6-39.3c-13.7 5.5-29.8 14.1-31.8 21.8a8.1 8.1 0 0 0 2.2 6.2 8.2 8.2 0 0 0 6 2.7c7.8-1.6 17.4-17.2 23.6-30.7ZM1309.7 848a4.1 4.1 0 0 1-3.8-2.3 4.2 4.2 0 0 1 1.7-5.7c1.2-.7 29.7-17.4 20-56.7-.4-1.1-.2-2.3.4-3.3a4.3 4.3 0 0 1 5.8-1.5c1 .6 1.7 1.6 2 2.7 11.4 45.9-23.6 66-24 66.3-.6.3-1.4.5-2.1.4ZM1268.7 732.3a4.1 4.1 0 0 1-3.3-1.5c-.2-.2-19-22.8 4.9-49 7.3-8 15.4-12 24-11.8 14 .2 23.9 11.4 24.3 12 .7.8 1 2 1 3a4.3 4.3 0 0 1-4.6 4c-1.2 0-2.2-.6-3-1.5 0 0-7.8-8.9-17.9-9-6 0-12 3-17.5 9.1-18.7 20.4-5.3 37-4.7 37.7a4.3 4.3 0 0 1-3.3 7ZM1405.2 821.8a4.3 4.3 0 0 1-4.5-5.5c.2-.5.4-1 .8-1.4a4.3 4.3 0 0 1 2.9-1.6 13.8 13.8 0 0 0 10.7-14.9c-.4-10.6-18.3-17.6-25.1-19.4a4.3 4.3 0 1 1 2.1-8.3c1.3.4 30.8 8.2 31.6 27.4a22.3 22.3 0 0 1-17.6 23.6l-.9.1ZM1478.2 773.4a4.3 4.3 0 0 1-3.7-2.2c0-.1-9-15.5-20.5-15a4.3 4.3 0 0 1-3-1.2 4.2 4.2 0 0 1-1.4-3 4.2 4.2 0 0 1 1.2-3c.7-.9 1.8-1.4 3-1.4 16.4-.6 27.7 18.6 28.1 19.4.3.5.5 1 .6 1.6a4.3 4.3 0 0 1-1 3.2c-.3.4-.7.8-1.2 1-.6.4-1.3.6-2 .6Z"/><path fill="#FFFAF4" d="M1333.7 386.7s74 12.2 63.7 77.3c-10.3 65.1-48.5 56.3-48.5 56.3s-11.3 57-79.7 48.7c-68.4-8.3-62.7-46-62.7-46s-84.2 46.7-111.8-59.7c-27.5-106.5 70.5-102.6 70.5-102.6s32.1-66.6 104.1-45.1c72 21.4 64.4 71.1 64.4 71.1Z"/><path fill="#431426" d="M1282.4 574c-4.6 0-9.2-.2-13.7-.8-28.3-3.5-48-12.3-58.7-26.2-4-5-6.6-11-7.6-17.4-11.6 5-38.1 13.5-63.8 2.5-22.8-9.8-39-32.6-48.1-67.8-9.2-35.1-6-62.1 9.3-81 19.7-24.4 53-26.8 62.7-27 7-12 41.5-64.8 107.9-44.8 62.7 18.6 67.8 59 67.8 71.9 15.4 3.7 72.8 21.7 63.4 81.4-4.1 26.3-13.3 44.3-27 53.6a37.4 37.4 0 0 1-22.6 6.6c-3.9 12-19.8 49-69.6 49Zm-76-55.3c.9 0 1.7.2 2.4.7.7.5 1.2 1 1.5 1.8.3.7.4 1.5.3 2.3a27 27 0 0 0 6.3 18.5c9.2 11.7 27.4 19.6 52.8 22.8 63.5 7.8 74.5-43.1 75-45.3a4.3 4.3 0 0 1 5.1-3.3c7.1 1 14.3-.8 20.1-5 11.4-7.9 19.6-24.4 23.3-47.8 9.4-60-57.3-72-60.2-72.4-1-.2-2-.8-2.7-1.7-.7-1-1-2-.8-3.1.3-2 5.7-46.5-61.5-66.6-67.8-20.2-98.8 42.3-99.1 43a4.3 4.3 0 0 1-4 2.4c-.4 0-38.5-1.2-58.5 23.7-13.4 16.7-16 41.5-7.7 73.5 8.3 32.1 23 53.4 43.3 62.1 29.5 12.7 62-4.9 62.3-5 .7-.4 1.4-.6 2.1-.6Z"/><path fill="#431426" d="M1170 406.1c-2.1 0-4.2-.6-5.9-1.8-10.6-7.5-5.1-36-3.2-44.6a4.3 4.3 0 0 1 6.3-2.8c2.4 1.4 23.5 14 23.8 29 0 6.4-3.5 12-10.7 16.5a20 20 0 0 1-10.3 3.7Zm-2-38.4c-2.3 13.4-2.5 27.1 1 29.6 1 .7 3.7 0 6.8-2 6.7-4.3 6.6-8 6.6-9.2-.1-6.5-8.2-13.9-14.4-18.4ZM1171.1 464.5a4.3 4.3 0 0 1-4.1-3.5 42.3 42.3 0 0 1 7-30c7.7-10.7 20.4-17.5 37.8-20.3 18.7-2.8 31.4.9 40 6.4 2.7-2 5.8-3.7 9.2-4.7 21.5-7 41-6 52.3 2.8 7.3 5.7 10.7 14.7 9.8 25.5a4.3 4.3 0 0 1-4.6 4 4.3 4.3 0 0 1-3.7-3 4 4 0 0 1-.2-1.7c.6-8-1.6-14-6.7-18-8.8-7-25.8-7.6-44.3-1.5-1.7.5-3.4 1.2-4.9 2.1 3.1 3.1 5.8 6.8 7.7 10.8 5 10.4 4.5 21.5-1.3 26.8a9.2 9.2 0 0 1-10.7 1.4c-7.4-3.6-13.2-15.7-12.5-26.4.3-4.2 1.6-8.2 3.8-11.8-7.1-4-17.5-6.7-32.7-4.3-15 2.4-25.8 8-32 16.8a34.2 34.2 0 0 0-5.8 23.4c.2 1.1 0 2.3-.7 3.2-.6 1-1.6 1.6-2.7 1.8l-.7.2Zm81.6-35.7a16 16 0 0 0-2 7c-.6 8.5 4.1 16.6 7.6 18.2.8.4 1 .2 1.2 0 2.5-2.2 2.9-9.3-.6-16.8-1.6-3.1-3.7-6-6.2-8.4ZM1206.4 527.2a4.3 4.3 0 0 1-2.8-7.4c3.7-3.6 14-14.4 15.6-21.5a4.3 4.3 0 0 1 7.7-1.2c.6 1 .8 2 .6 3.1-2.5 11-16.5 24.4-18 25.8-.9.8-2 1.2-3.1 1.2Z"/><path fill="#FFFAF4" d="M955.8 605s27.7-72.1 93-55.7c65.4 16.4 52 89.7 52 89.7s66.2 24 64.4 89c-1.8 65-51 54.1-51 54.1s13 107.5-71 92.4c-84-15.2-50-88.1-50-88.1s-112.5 26.8-121.4-74c-9-100.9 84-107.4 84-107.4Z"/><path fill="#431426" d="M1058.6 880.2c-5.5 0-10.9-.5-16.2-1.6-27-4.8-45.1-16-54.1-33.3-10.3-19.8-5.5-42-1.9-53.3-16.6 2.6-57 6-86.3-15.2-19.2-13.8-30.1-35.4-32.7-64.2-2.9-32.4 4.2-58.8 21-78.4 22.4-26.2 55-32 64.5-33.2 5.7-12.8 35.9-71.2 97-55.9 60 15 57.3 76 55.5 91.2 13.6 6 65.7 33 64 91.8-.5 23.3-7.2 40.1-19.7 49.9a45.8 45.8 0 0 1-30.8 9.1c1 15 1.2 57-22.5 79.3a53.3 53.3 0 0 1-37.8 13.8Zm-65.6-98a4.3 4.3 0 0 1 4 6c-.2.3-13.4 29.6-1.2 53.2 7.7 14.7 24 24.5 48 28.8 20 3.7 35.7.2 46.7-10.1 25.4-23.9 19.5-77 19.4-77.5a4.3 4.3 0 0 1 5.2-4.6c.1 0 16.5 3.4 29.4-6.7 10.3-8.2 15.8-22.8 16.4-43.4 1.7-61.1-61-84.6-61.6-84.8a4.3 4.3 0 0 1-2.9-4.8c.5-2.9 11.9-69.7-48.8-84.9-60.6-15.1-87 50.4-88 53.2a4.2 4.2 0 0 1-3.7 2.7c-.4 0-37.7 2.8-61.3 30.5-15.2 17.9-21.5 42-18.9 72 2.3 26.3 12.1 45.6 29.1 58 34.2 24.6 86.6 12.6 87.1 12.4a6 6 0 0 1 1.3 0h-.2Z"/><path fill="#431426" d="M1114.2 786.4c-.9 0-1.8-.3-2.5-.8-2.8-2-26.6-19.3-25.6-34.9.3-3.9 2.2-9.4 10-13.4s12.6-2.3 15.4-.2c11.8 8.5 7.8 39.5 6.9 45.6-.1.7-.4 1.4-.9 2-.4.5-1 1-1.6 1.2-.6.3-1.1.5-1.7.5Zm-9.6-43c-1.6.2-3.2.7-4.5 1.5-5.2 2.6-5.4 5.5-5.4 6.4-.5 6.5 8.1 16 16.1 22.8 1-12.2.4-26.8-4.2-30-.6-.5-1.3-.7-2-.6ZM971 715.7c-.6 0-1.2-.2-1.8-.4-.6-.3-15.7-7.3-17.5-22.2-1.4-12.5 7.2-26.2 25.7-40.5a4.3 4.3 0 1 1 5.2 6.8c-15.7 12.2-23.4 23.5-22.3 32.7 1.2 10.2 12.4 15.4 12.5 15.4a4.3 4.3 0 0 1-1.7 8.2h-.1ZM953 638a4.3 4.3 0 0 1-4.1-3.3 49.8 49.8 0 0 1 3.1-31.6 4.3 4.3 0 1 1 7.6 4 42.2 42.2 0 0 0-2.3 25.8 4.3 4.3 0 0 1-4.2 5.2ZM1022 722c-.8 0-1.6-.2-2.3-.6a4.3 4.3 0 0 1-1.3-5.9c.6-1 15.6-23.6 37.6-27.1a38.9 38.9 0 0 1 32.5 10.7 4.2 4.2 0 0 1 .5 3.4c-.2.5-.4 1-.8 1.5a4.3 4.3 0 0 1-6.2.5 31 31 0 0 0-24.6-7.7c-18.2 2.8-31.7 23.1-31.8 23.3a4.3 4.3 0 0 1-3.6 2ZM1057.1 829.8c-4.5 0-9-1.4-12.7-3.8-8.9-5.7-16.3-18.2-14.8-22.8a4.3 4.3 0 0 1 4.8-2.8 4.3 4.3 0 0 1 3.5 4.3c.8 2.9 6.6 13 15 15.8 5.7 1.9 11.8-.2 18.1-6.1a4.3 4.3 0 0 1 5.9 6.2c-7.4 7-14.1 9.2-19.8 9.2Z"/><path fill="#FFFAF4" d="M676.2 886.8s71.3 16.8 66.4-63.2c-4.8-80.1-77.4-55.9-77.4-55.9s-12.7-91.1-105.9-40.5c-93.2 50.6-7.3 140.6-7.3 140.6s-13.2 53.7 26.8 67.4c40 13.7 45.3-26 45.3-26s37.4 18.7 51-19.9l1.1-2.5Z"/><path fill="#431426" d="M594.5 942.4a52.5 52.5 0 0 1-17-3.1c-38.2-13.1-32-59.3-30-70.2-7.8-8.7-41.4-49-35-90 3.6-22.9 18.7-41.4 45-55.7 31-16.8 56.9-20.2 77.1-10 23.4 11.8 31.6 38.2 34 49 10-2.4 34.2-6.1 53.3 6.9 15.2 10.2 23.6 28.5 25.1 54 1.6 26.4-4.6 45.7-18.5 57.2-17 14.4-40.5 12.5-49.4 11.2-4.4 12-11.4 20-21.2 23.8-11.6 4.8-24 2-30.6-.3-2.3 9.3-8 17.4-15.8 22.8-5.1 3-11 4.6-17 4.4Zm15-226.2c-13.8 0-29.9 5-48 14.8-23.7 12.8-37.3 29.4-40.5 49.3-6.5 41.3 33.8 84.2 34.2 84.6a4.3 4.3 0 0 1 1 4c-.4 2-11.7 50 24.2 62.3 10.9 3.7 19.9 3.5 26.6-.6 10.8-6.7 13-21.7 13-21.9a4.2 4.2 0 0 1 6.2-3.1c.1 0 15.4 7.4 28.6 2 7.4-3 13-9.6 16.6-19.5.1-.5.4-1 .7-1.4v-.8a4.2 4.2 0 0 1 5.2-3.2c.3 0 27.9 6.3 45.5-8.7 11.7-9.8 16.9-26.6 15.5-50.1-1.4-22.8-8.6-38.8-21.4-47.5-20.7-14.2-50.1-4.6-50.4-4.5a4.5 4.5 0 0 1-3.6-.4 4.3 4.3 0 0 1-2-3c0-.4-5.2-34.8-30.3-47.4-6.6-3.3-14-5-21.3-5h.2Z"/><path fill="#431426" d="M647.2 808a22.8 22.8 0 0 1-14.2-6.4c-7-6-9.6-12-8-17.7 4.1-14.3 33.7-19.5 39.6-20.4a4.3 4.3 0 0 1 4.9 4.6c-.2 3.3-2.7 32.9-17 38.9-1.6.7-3.5 1-5.3 1Zm13.1-35c-11.7 2.5-25.4 7.5-27 13.2-.9 2.8 2.3 6.4 5.2 8.9 4.4 3.8 8 5.1 10.7 4 6-2.6 9.7-16.3 11.1-26.1ZM552 872.1c-.5 0-.9 0-1.3-.2a4.2 4.2 0 0 1-2.8-5.3c2.8-9.3 13.5-25.8 34.4-21.4a4.3 4.3 0 1 1-1.7 8.4c-18.5-3.9-24.3 14.7-24.5 15.5a4.2 4.2 0 0 1-4.1 3ZM624.1 913.6h-1a4.2 4.2 0 0 1-3.2-5c0-.3 3.3-15.6-2.8-27.7a4.3 4.3 0 0 1 7.6-3.8c7.5 14.9 3.7 32.5 3.6 33.2a4.3 4.3 0 0 1-4.2 3.3ZM580.4 808c-.7 0-1.3-.2-1.9-.5-.7-.3-16-8.2-19-23-1.8-8.7 1.1-17.7 8.7-26.8 14-16.7 32-13.5 39.6-9.4a4.2 4.2 0 0 1 1.8 5.7 4.3 4.3 0 0 1-5.7 1.8c-.6-.4-16.1-8.1-29 7.3-5.8 7-8.2 13.6-7 19.7 2.2 10.6 14.4 17 14.6 17a4.3 4.3 0 0 1-2 8.1v.1Z"/><path fill="#FFFAF4" d="M732.2 1081.5s-1.6-88.7 76.9-76c78.4 12.7 37 103 37 103s73.6-22.3 58.9 56.5c-14.8 78.8-44.2 63-60.4 77.3-16.2 14.1-32 41-58.3 32.4-26.4-8.6-33-47.1-33-47.1s-94.8 41.6-98.8-62.7c-4-104.3 77.7-83.4 77.7-83.4Z"/><path fill="#431426" d="M796.4 1280.7c-4 0-7.8-.7-11.4-2-22.8-7.4-31.9-34.1-34.8-45.4-12.2 4.4-45.2 13.8-70.4-2-18.4-11.4-28.4-33.8-29.6-66.1-1.4-36 7-61.8 25.2-76.4 18.7-15.2 42.2-13.9 52.5-12.4.7-12.4 4.5-43.8 26-62.4 14-12.1 32.9-16.4 55.9-12.7 21.6 3.5 36.7 13 44.8 28.2 13.3 25 4 58.1-1.5 73 11.4-2 31.7-3.2 45.2 9 12 10.6 15.5 29 10.8 54.3-11.4 61-32 67.9-48.5 73.4a36.5 36.5 0 0 0-13.2 6.3c-3.4 3-6.9 6.6-10.5 10.4-10.5 11.3-23.3 24.8-40.5 24.8Zm-43-57.4a4.2 4.2 0 0 1 3.5 1.8c.4.5.6 1.1.7 1.8 0 .3 6.5 36 30.1 43.8 18 5.8 30.8-7.6 43.1-20.7 3.8-4 7.4-7.7 11.1-11a44.7 44.7 0 0 1 16-7.9c15.2-5 32.5-10.8 43-66.9 4-22.2 1.3-37.9-8.2-46.4-15.6-14-45-5.4-45.3-5.3a4.2 4.2 0 0 1-4.4-1.3 4.3 4.3 0 0 1-.7-4.6c.3-.4 20.2-44.4 4.8-73.1-6.7-12.7-19.7-20.7-38.6-23.8-20.4-3.3-36.8.3-48.9 10.8-23.6 20.5-23.2 60.6-23.2 61a4.4 4.4 0 0 1-1.6 3.4 4.3 4.3 0 0 1-3.7.8c-.3 0-29.4-7.2-50.3 9.8-15.9 12.8-23.2 36.2-22 69.3 1.2 29.4 9.8 49.3 25.7 59.2 27 17 66.9-.2 67.3-.3a4 4 0 0 1 1.6-.4Z"/><path fill="#431426" d="M740 1121.7c-2.7 0-5.3-.9-7.4-2.5-10.6-8-5.7-33.6-4.6-38.6a4.4 4.4 0 0 1 2.3-2.8 4.2 4.2 0 0 1 3.7 0c4.5 2 27 13.2 27.2 26.6.2 5.7-3.5 10.6-10.9 14.4a22.7 22.7 0 0 1-10.3 2.9Zm-4.7-33.7c-1.3 9.6-1.3 21.5 2.5 24.4 2 1.6 5.7 0 8.5-1.3 2.9-1.3 6.4-3.8 6.3-6.6 0-5-9-11.9-17.3-16.5ZM813.5 1229.9c-1.1 0-2.2-.4-3-1.1a4.3 4.3 0 0 1 2.6-7.5c11.4-1 26.5-9 30.8-19 2.4-5.7 1.2-11.7-3.6-17.7-15.9-20-53-1-53.4-.8a4.2 4.2 0 0 1-5.6-2 4.3 4.3 0 0 1 1.6-5.6c1.8-1 43.8-22.3 64 3 8.6 10.9 7.4 20.4 4.9 26.4-5.7 13.5-23.8 22.8-37.9 24.2h-.4ZM821 1126a4.3 4.3 0 0 1 0-8.5c12.3 0 21.8-11.6 21.9-11.7a4.3 4.3 0 0 1 5.8-.5 4.3 4.3 0 0 1 .9 5.8c-.5.7-12.1 15-28.6 15ZM753.4 1231.8c-.9 0-1.8-.3-2.5-.8a4.3 4.3 0 0 1 .2-7c.2 0 10.9-7.2 11.2-16.9a4.2 4.2 0 0 1 2.8-3.8c.6-.2 1.1-.3 1.7-.3a4.3 4.3 0 0 1 4.1 4.5c-.6 14.2-14.6 23.3-15.2 23.7-.6.4-1.4.6-2.3.6Z"/><path fill="#FFFAF4" d="M537.3 1390.2s14.6-136.3-115.8-72.4c-80.7 39.5 12 116.4 12 116.4s-50 39-12 87.3c37.9 48.3 82.9 0 82.9 0s17.5 29 44.5 19c26.9-10.2 19.7-61.3 19.7-61.3s65.8-45.6 31.9-89c-34-43.4-63.2 0-63.2 0Z"/><path fill="#431426" d="M459.8 1547.2h-2c-14.9-.6-28.3-8.5-39.9-23a61.6 61.6 0 0 1-14.7-46.5 75.3 75.3 0 0 1 23.7-43.5c-11.8-10.7-46.5-45.3-42.6-78.7 2-17 13.9-31.1 35.1-41.5 41.2-20.2 73-22.8 94.3-8 24.8 17.3 28.2 53.4 28.2 72.4 7-6.8 16-10.9 25.6-11.7 12.7-.5 24.8 6.6 36 20.9a45.6 45.6 0 0 1 10.2 36.1c-4.2 28.2-32.7 51.5-40.8 57.5 1.1 11 3.6 53.3-22.8 63.3-21 7.9-38.2-5.5-46.6-16.4-7 6.4-23.8 19.1-43.7 19.1Zm21.3-242.2c-15.8 0-35 5.5-57.7 16.6-18.5 9-28.7 20.8-30.4 34.9-4.1 34.7 42.7 74 43.3 74.4a4.4 4.4 0 0 1 1.5 3.4 4.2 4.2 0 0 1-1.6 3.3c-2 1.5-46.1 37-11.4 81.3 9.9 12.6 21 19.2 33.3 20 23 1 42.9-20 43.1-20a4.4 4.4 0 0 1 3.6-1.4c.6.1 1.3.3 1.8.7.6.3 1 .8 1.4 1.4.6 1 16 25.9 39.3 17 23.2-8.7 17-56 17-56.5a4.3 4.3 0 0 1 1.8-4.1c.4-.3 35.1-24.8 39.4-53.4a37.4 37.4 0 0 0-8.5-29.5c-9.5-12-19.3-18-29-17.6-15.8.6-27.2 17-27.3 17.3a4.3 4.3 0 0 1-7.8-2.8c0-.6 5.6-56-24-76.8a47.2 47.2 0 0 0-27.8-8.2Z"/><path fill="#431426" d="M534.7 1420.9a4.1 4.1 0 0 1-3.7-2.2c-6.4-11.4 1.7-28.5 2.6-30.4a4.2 4.2 0 0 1 4.1-2.4 4.1 4.1 0 0 1 3 1.5 4.3 4.3 0 0 1 .6 4.7c-2 4-6.5 16-2.9 22.5a4.3 4.3 0 0 1-1.6 5.6c-.6.4-1.4.7-2.1.7ZM451.5 1440.7c-6.4-.1-12.7-.9-19-2.3a4.3 4.3 0 0 1-3.1-5c.1-.8.5-1.5 1-2 3.4-4 21.6-24 34.1-21 3.1.8 7.2 3.2 9 10.4a14.2 14.2 0 0 1-3.1 14.3c-4.4 4.2-11.8 5.6-19 5.6Zm-9.4-9.3c8.8 1.2 18.7 1.1 22.1-2.3.9-.8 1.8-2.4.9-6.2-.6-2.5-1.5-3.8-2.7-4.1-4.2-1-13.1 5.7-20.3 12.6ZM504.4 1525.8a4.2 4.2 0 0 1-4.1-3.2 4.2 4.2 0 0 1 .4-3.3 42 42 0 0 0 3.4-30.6 4.3 4.3 0 0 1 4.6-5.8 4.2 4.2 0 0 1 3 1.8 49.8 49.8 0 0 1-3.6 39 4.2 4.2 0 0 1-3.7 2ZM428.8 1382.8a4.2 4.2 0 0 1-3.9-2.5c0-.3-11.6-26.6 18.9-41.5 24-11.7 44.7 7.4 52.3 19.2a4.3 4.3 0 0 1-7.2 4.6c-.8-1.2-18.1-27.4-41.4-16-22.5 10.9-15.7 28.3-14.8 30.2a4.3 4.3 0 0 1-4 6Z"/><path fill="#FFFAF4" d="M560.9 1778.8s57.3-73.8 109.3-24.6c51.9 49.2-11 95.4-11 95.4s28.7 52.2-12.3 86.3c-41 34.1-86-8.9-86-8.9s-112.8 69.8-109.3-70.3c2.7-108.6 109.3-77.9 109.3-77.9Z"/><path fill="#431426" d="M612.4 1953.3c-24.3 0-45-15.3-52-21-11 6.1-52.3 27-82.4 9.7-21.5-12.4-31.8-41.1-30.7-85.5.8-33 11.1-57 30.6-71.2 29.6-21.6 70.4-13.8 81.4-11.3 7.2-8.6 34.5-38.3 67.5-40.8a59.2 59.2 0 0 1 46.3 17.9c15.5 14.7 22.8 30.7 21.8 47.5-1.6 26-22.6 45.7-30.4 52.2 5.7 12.4 22.3 57.4-14.8 88.3a57 57 0 0 1-37.3 14.2Zm-51.5-30.6c1 0 2 .5 2.8 1.2 1.8 1.7 42.9 40 80.4 8.7 37.6-31.2 12.4-79 11.4-81a4.3 4.3 0 0 1 1.2-5.4c.3-.2 28-21 29.7-48.2.8-14.2-5.7-27.8-19.2-40.7a51.2 51.2 0 0 0-39.7-15.6c-34 2.6-63 39.3-63.2 39.7a4.3 4.3 0 0 1-4.6 1.5c-.5 0-46.5-13-76.7 9.3-17.1 12.6-26.4 34.4-27.1 64.6-1 41 7.8 67.1 26.4 77.8 29.9 17 75.9-11 76.3-11.2.7-.4 1.5-.7 2.3-.7Z"/><path fill="#431426" d="M564 1825.7c-10.6 0-21.2-4.3-23.6-13-4.7-16.4 15.3-35 17.6-37a4.3 4.3 0 0 1 4.2-.9c1 .4 24.5 8 26.8 30.3 1 10-5.7 17.7-18 20a37 37 0 0 1-7 .6Zm-2.2-42c-5.7 5.8-15.7 18.1-13.2 26.7 1.4 5 11.6 8 20.8 6.3 3.6-.7 12-3.2 11.1-10.8-1.3-13.2-13.5-19.9-18.7-22.1ZM561.8 1891.8c-2.7 0-5.4-.3-8-.9a32.9 32.9 0 0 1-27.6-35c.6-10 4.3-10.4 5.5-10.5a4.3 4.3 0 0 1 4.3 2.3 4.3 4.3 0 0 1-.7 4.8 26.1 26.1 0 0 0 2 16.9c3.3 6.7 9.4 11.1 18.4 13.1 6.6 1.6 11.9.8 15.8-2.4 8.9-7 9-23.3 9-23.4a4.3 4.3 0 0 1 4.3-4.3c1.2 0 2.3.5 3 1.3.8.8 1.3 1.9 1.3 3 0 .8-.2 20.5-12.2 30a23.5 23.5 0 0 1-15.1 5.1ZM560.9 1931.3a4.3 4.3 0 0 1-4.3-5c.2-.8.5-1.5 1.1-2.2 3.5-3.8 9.1-11.8 9.1-16.8a4.3 4.3 0 0 1 4.3-4.3c1.1 0 2.2.5 3 1.3.8.8 1.3 1.8 1.3 3 0 9.9-10.2 21.3-11.4 22.8a4.3 4.3 0 0 1-3.1 1.2ZM659.2 1853.9a4.4 4.4 0 0 1-3.4-1.7 15.5 15.5 0 0 0-15.8-4.8 4.3 4.3 0 0 1-5-3.3 4.3 4.3 0 0 1 3.3-5 24 24 0 0 1 24.4 8 4.3 4.3 0 0 1-1.2 6.2c-.7.4-1.5.6-2.3.6Z"/><path fill="#F57162" d="M1531 1505.5s-2.1 12.3-47.8 13.2c-52.3 1 11.4 150.7 71.3 126.6 23.4-9.4 7.2-33.3 33.3-44.4l-56.8-95.4Z"/><path fill="#431426" d="M1541.2 1652.2c-13.6 0-28-7-41.5-20.5-28.5-28.5-47-79.6-37.5-103.2a21.6 21.6 0 0 1 21-14.2c37.8-.7 43.3-9.3 43.6-10a4.3 4.3 0 0 1 5.2-3.3c1 .3 2 1 2.6 1.9.6 1 .8 2.1.6 3.2-.7 3.7-6.3 15.9-51.9 16.7a13.2 13.2 0 0 0-13.2 8.8c-8.3 20.6 9.7 68 35.7 94 11.4 11.4 28.6 23.2 47 15.7 9.5-3.7 11-10 13-18 2.2-8.8 5-19.9 20.4-26.3.5-.3 1-.4 1.6-.4a4.4 4.4 0 0 1 3 1.3c.4.4.8.8 1 1.4a4.2 4.2 0 0 1 0 3.2 4.2 4.2 0 0 1-2.3 2.4c-11.4 4.8-13.3 12-15.4 20.5-2.1 8.5-4.6 18.4-18 23.9-4.8 1.9-9.8 2.9-14.9 2.9Z"/><path fill="#FFEAB9" d="M1560.8 1838.4c-47 0-98-10.3-125.4-48.9-24.5-34.4-41.3-91.7 17.4-169.3 21.4-27.5 46.4-52 74.3-72.7a24.3 24.3 0 0 1 28.1 39.5c-1.7 1.2-134.8 97.8-80.4 174.5 30.9 43.4 139.7 26.1 175.5 16.6a24.3 24.3 0 0 1 12.4 46.8 429.2 429.2 0 0 1-101.9 13.5Z"/><path fill="#431426" d="M1560.9 1842.7c-61.7 0-105.1-17.1-129-50.7-25.3-35.6-42.7-94.8 17.5-174.4 21.6-27.8 47-52.5 75.3-73.5a28.5 28.5 0 0 1 33 46.4c-1.3 1-131.4 95.4-79.4 168.5 27.2 38.3 126.9 26.7 170.9 15a28.5 28.5 0 0 1 14.6 55 433.8 433.8 0 0 1-103 13.7Zm-19.8-295.3c-4 0-8 1.3-11.4 3.7a377 377 0 0 0-73.3 71.7c-57.2 75.5-41 131-17.5 164.3 22.2 31.3 63.3 47 122 47 34-.4 67.9-4.8 100.8-13.3a20 20 0 0 0-10.2-38.5c-39.1 10.3-147.7 27.3-180-18.3-57-80 80-179.5 81.3-180.4a20 20 0 0 0-8.3-36c-1.1-.2-2.3-.3-3.4-.2Z"/><path fill="#F57162" d="M1536.4 1621c-14.8-93.3-45-69.9-45-58.8l61.7-56.7 45.4 80.6-62.1 34.9Z"/><path fill="#431426" d="M1536.4 1625.3a4.3 4.3 0 0 1-4.3-3.7c-7.9-50-20.8-66.8-29.5-66a8 8 0 0 0-6.9 6.6 4.3 4.3 0 0 1-7.3 3 4.2 4.2 0 0 1-1.2-3 16.6 16.6 0 0 1 14.7-15.3c10-.9 28.3 7.5 38.7 73.3a4.3 4.3 0 0 1-.8 3.2 4.3 4.3 0 0 1-2.8 1.7l-.6.2Z"/><path fill="#FFFAF4" d="M1624.6 1754s43.9-41.5 107.1-38c63.3 3.3 54.8 38 54.8 38s29.9 14.8 12.8 41.6a29.3 29.3 0 0 1 7.3 27.5c-4.6 18.7-16 21.8-16 21.8s22 27.7-29.5 43.9c-38.2 12-65 13.5-63.2-16 0 0-47.2.5-65-12.1 0 0-21 34-36.2 14.6-15.1-19.4 4.6-55 5.7-69 2-25.6-23.3-28.7-8.2-43 15.1-14.4 30.4-9.4 30.4-9.4Z"/><path fill="#431426" d="M1721.5 1901.4c-6.8.4-13.6-1.5-19.2-5.4-5.5-4.1-8.3-10.5-8.6-19-11.4-.2-42.5-1.6-59.3-10.6-4.5 6.3-14.7 18.5-26 19a17 17 0 0 1-15-7.5c-11.3-14.5-6-31.6-.8-48 2.8-7.7 4.7-15.8 5.7-24 1-11.7-3.7-17.7-7.7-23-4-5.4-9.7-12.8.8-22.8a36.6 36.6 0 0 1 32-10.9 160 160 0 0 1 108.6-37.6c26.3 1.4 44.2 8.3 53.2 20.4a29.8 29.8 0 0 1 6 19.6 38 38 0 0 1 16.6 20.7 29.8 29.8 0 0 1-3.1 22.8 33.5 33.5 0 0 1 6.2 29c-3.5 14-10.6 20.4-15 23 1.6 7.3.8 14.9-2.2 21.6-5 10.7-15.4 18.8-31 24a135.2 135.2 0 0 1-41.2 8.7Zm-23.5-33a4.5 4.5 0 0 1 3.1 1.3 4.5 4.5 0 0 1 1.2 3.3c-.5 7.9 1.2 13.2 5.2 16.3 7.8 6 25.6 4.5 52.3-4.6 13.4-4.5 22.1-11 26-19.4 2.7-5.9 3-12.6 1-18.8-.3-.5-.4-1.1-.4-1.7 0-.6.1-1.2.4-1.8a4.4 4.4 0 0 1 2.7-2.2c.3 0 9-3 12.9-18.7a25 25 0 0 0-6-23.4 4.3 4.3 0 0 1-.8-5.4 23 23 0 0 0 3.9-18.6c-2.9-10.7-14.9-16.9-15-17.1a4.2 4.2 0 0 1-2.2-4.8 20.7 20.7 0 0 0-4.3-16c-7.3-9.7-23.5-15.5-46.7-16.7-60.5-3.3-103.5 36.4-104 36.8-.5.5-1.2.9-2 1-.7.2-1.5.2-2.2 0-.6-.2-13-4-26 8.3-5 4.7-4.3 5.7 0 11.4a38.6 38.6 0 0 1 9.7 29.1c-1 8.8-3.1 17.5-6.1 25.9-4.9 15.6-9.1 29.2-.5 40.2a9.2 9.2 0 0 0 7.7 4.3c8.5-.5 18.6-14 21.5-18.6a4.3 4.3 0 0 1 2.8-2 4.2 4.2 0 0 1 3.4.8c13.6 9.7 49.6 11.4 62.3 11.4v-.2Z"/><path fill="#431426" d="M1786.5 1758.3c-.7 0-1.5-.2-2.2-.6-.2 0-16.4-9.8-34.6-8.2a4.3 4.3 0 0 1-3.7-7c.8-.9 1.8-1.5 3-1.5 13.9-.8 27.7 2.4 39.8 9.4a4.3 4.3 0 0 1-.1 7.4c-.7.3-1.4.5-2.2.5ZM1799.3 1799.9c-1 0-2-.4-2.9-1a73.3 73.3 0 0 0-44.6-15.9 4.3 4.3 0 0 1-4.2-4.3 4.2 4.2 0 0 1 4.3-4.2c18.3.1 36 6.5 50.2 18a4.2 4.2 0 0 1 1.1 4.7 4.3 4.3 0 0 1-4 2.7ZM1790.7 1849.2a4.1 4.1 0 0 1-4-3c-.4-1.1-8.4-25.7-39.6-25.7a4.3 4.3 0 0 1 0-8.5c37.7 0 47.6 31.3 47.7 31.6a4.3 4.3 0 0 1-2.8 5.3c-.4.2-.8.3-1.3.3ZM1698 1877h-.2a4.3 4.3 0 0 1-3.8-2.7c-.2-.6-.3-1.1-.3-1.7 0-.8 1.1-19.7 38.1-21.7a4.3 4.3 0 0 1 4.5 4 4.2 4.2 0 0 1-1 3 4.2 4.2 0 0 1-3 1.5c-28.5 1.6-30 13.4-30 13.5a4.3 4.3 0 0 1-4.3 4.1ZM1633 1864.8a4.2 4.2 0 0 1-3.7-2.3c-.4-.7-.5-1.5-.5-2.2 0-.8.4-1.6.8-2.2 2.7-4 4.8-8.5 6.2-13.1a4.3 4.3 0 0 1 8.2 2.4 57.4 57.4 0 0 1-7.5 15.7 4.3 4.3 0 0 1-3.4 1.7Z"/><path fill="#BE6956" d="M1985.7 1506.7c3.4 12.8 4.6 26 3.6 39.1-2.8 37.3-23.4 68.4-54.8 76.3-31.3 8-64.5-9-84.8-40.4-7.1-11-12.5-23.2-15.7-36-11.4-44 2.6-87 31.6-106.6 12-8 26.3-11.8 40.7-10.6 35 2.8 68.1 34 79.4 78.2Z"/><path fill="#431426" d="M1918.9 1628.4c-27.2 0-54.5-16.3-72.8-44.4a126 126 0 0 1-16.2-37.3c-11.4-44.6 2.3-90.3 33.3-111.3a67 67 0 0 1 43.5-11.3c37.5 3 71.7 36.6 83.2 81.4a125 125 0 0 1 3.7 40.6c-3 40.4-25.7 71.8-58 80-5.5 1.5-11 2.2-16.7 2.3Zm-18-196a59 59 0 0 0-32.9 10.1c-28.1 19-40.4 61-29.8 102 3.1 12.4 8.3 24.1 15.2 34.8 20 30.9 51.4 46 80.1 38.7 28.7-7.4 49-35.8 51.6-72.5 1-12.7-.3-25.5-3.5-37.8-10.7-41.4-41.8-72.3-75.8-75.1l-5-.2h.1Z"/><path fill="#FF89A4" d="M1907.3 1467.8c4.5 3.4 7.8 8.3 9.1 13.9 3.4 13.2-4 26.3-16.4 26.5a20.7 20.7 0 0 1-18.4-13.3 24.9 24.9 0 0 1 .5-21.3 14.9 14.9 0 0 0-1.7-15.9l-14.8-18.8c12-8 26.3-11.8 40.7-10.6l-5 24.4a15.1 15.1 0 0 0 6 15.1ZM1989.3 1545.8c-2.8 37.3-23.4 68.4-54.8 76.3-31.3 8-64.5-9-84.8-40.4 0 0 4.9-29.8 25.5-40.4 20.6-10.6 39.4 4.4 39.4 4.4s5.5-16 26.6-21.7c28-7.8 48.1 21.8 48.1 21.8Z"/><path fill="#431426" d="M1899.7 1512.6a25 25 0 0 1-22-16 29.3 29.3 0 0 1 .6-25 10.6 10.6 0 0 0-1.2-11.1l-14.8-18.9a4.3 4.3 0 0 1 1-6.1 67 67 0 0 1 43.3-11.4 4.3 4.3 0 0 1 3.8 3.3v1.8l-5 24.4a11 11 0 0 0 4.3 10.8c5.4 4 9.3 9.7 10.9 16.2a28 28 0 0 1-4.2 23.6 20.7 20.7 0 0 1-16.3 8.3l-.4.1Zm-27.8-72.5 12 15a19 19 0 0 1 2 20.6 20.7 20.7 0 0 0-.4 17.6 16.7 16.7 0 0 0 14.5 10.8 12 12 0 0 0 9.5-5 19 19 0 0 0 2.9-16.3 20.2 20.2 0 0 0-7.5-11.4 19.5 19.5 0 0 1-7.7-19.4l4-19.5a61.6 61.6 0 0 0-29.3 7.6ZM1918.9 1628.4c-27.2 0-54.5-16.3-72.8-44.4-.5-1-.7-2-.6-3 .2-1.3 5.5-32.1 27.7-43.6a41.2 41.2 0 0 1 40 2c6-9.8 15.7-16.9 27-19.6 30.5-8.4 51.9 22.3 52.8 23.6.6.9.8 1.9.8 2.9-3 40.4-25.8 71.8-58.1 80.1-5.5 1.4-11.1 2-16.8 2Zm-64.7-47.6c20 29.8 51 44.4 79.3 37.2 28.2-7.3 48.4-35 51.4-71-4-5-21-25-42.7-19-18.4 5-23.4 18.5-23.6 19a4.3 4.3 0 0 1-4.8 2.8c-.7-.1-1.3-.4-1.8-.8-.7-.5-17.1-13.2-34.9-4-15.8 8.3-21.5 29.7-22.9 35.8Z"/><path fill="#431426" d="M1905 1579.5h-.5a4.3 4.3 0 0 1-3.8-4.7 93 93 0 0 1 10.2-31.3 4.3 4.3 0 0 1 5.7-1.7 4.3 4.3 0 0 1 1.6 5.7 86.6 86.6 0 0 0-9.1 28 4.2 4.2 0 0 1-4.2 4ZM1855.4 1411.2a4.3 4.3 0 0 1-1.9-8c1-.5 23.9-12.2 17.4-31.4-2-5.8-4.6-9-7.9-9.6-8.1-1.4-20.4 11.6-24.1 16.2-.4.5-.8.9-1.3 1.2a4.2 4.2 0 0 1-4.8-.3 4.1 4.1 0 0 1-1.6-3 4.3 4.3 0 0 1 1-3.2c1.8-2.2 17.7-21.9 32.3-19.3 6.6 1.1 11.4 6.3 14.5 15.3 7.1 21.1-11.1 36.5-21.7 41.7-.6.3-1.3.5-2 .4Z"/><path fill="#FFFAF4" d="M1806.7 1346.1c13 39.9 5.7 78.5-15.7 92.3a32.5 32.5 0 0 1-7.6 3.6c-27 8.8-60.7-20-75-64-14.3-44-4-87 23.2-95.9 23.4-7.6 51.6 12.7 68.2 46.7 2.7 5.6 5 11.4 7 17.3Z"/><path fill="#431426" d="M1773.5 1447.9c-26.8 0-56-28-69.2-68.4-15-46.3-3.3-91.7 26-101.2 25.3-8.2 55.4 11.9 73.3 48.8 2.8 5.8 5.2 11.8 7.2 17.9 13.3 41.2 6 82.1-17.5 97.2a35.6 35.6 0 0 1-19.8 5.7Zm-31.8-163c-3 0-6 .5-8.8 1.4-24.8 8-34.1 48.6-20.5 90.5 12 37 37.8 62.6 60.7 62.6a29.3 29.3 0 0 0 15.6-4.5c20-12.8 26-50.3 14-87.4-2-5.7-4.2-11.3-6.8-16.7-13.7-28.2-35.2-46-54.2-46v.1Z"/><path fill="#431426" d="M1806.7 1346.1c13 39.9 5.7 78.5-15.7 92.3-20 .6-42.3-21-52.4-52.2-2.5-7.5-4-15.2-4.8-23l21-9.6-20-13.8c3.2-15 10.8-26.2 22.2-30 14-4.4 30 3.4 42.8 19 2.7 5.6 5 11.4 7 17.3ZM1660.3 1234.7h-.4a4.3 4.3 0 0 1-3.8-4.7c0-.4 4.7-41.4 45.6-43 .5-.1 1 0 1.6.2l1.5.8a4.3 4.3 0 0 1-2.8 7.5c-33.5 1.3-37.4 34-37.5 35.3a4.3 4.3 0 0 1-4.2 3.9ZM1936 1162.2a4.3 4.3 0 0 1-3.9-2.5c-14.2-30.3-45.8-21.3-47.1-20.9a4.3 4.3 0 0 1-5-6.1c.5-1 1.4-1.8 2.5-2 .4 0 39.9-11.7 57.3 25.5a4.4 4.4 0 0 1 .2 3.3 4.3 4.3 0 0 1-2.2 2.5c-.6.2-1.2.3-1.8.2ZM1697 1523.8c-.8 0-1.7-.2-2.4-.7a54 54 0 0 1-23.2-53 53.6 53.6 0 0 1 81.5-37.1 4.3 4.3 0 0 1-4.6 7.3 45.1 45.1 0 0 0-49 75.7 4.2 4.2 0 0 1 1.9 4.4 4.3 4.3 0 0 1-2.2 3c-.6.3-1.3.4-2 .4Z"/><path fill="#431426" d="M1717 1454.7a5.4 5.4 0 1 0 0-10.8 5.4 5.4 0 0 0 0 10.8ZM1695.8 1483.2a5.4 5.4 0 1 0 0-10.7 5.4 5.4 0 0 0 0 10.7ZM1723.3 1481.7a5.4 5.4 0 1 0 0-10.8 5.4 5.4 0 0 0 0 10.8Z"/><path fill="#FFFAF4" d="M1970.2 1296c12.9 39.8 5.7 78.5-15.7 92.2a31.9 31.9 0 0 1-7.6 3.6c-27.1 8.8-60.7-20-75-64-14.4-44-4-87 23.2-95.8 23.4-7.6 51.6 12.6 68.1 46.7 2.7 5.6 5 11.3 7 17.3Z"/><path fill="#431426" d="M1936.8 1397.7c-26.7 0-56-28-69.1-68.5-15-46.4-3.4-91.8 26-101.3 25.2-8.2 55.3 12 73.3 49 2.8 5.7 5.2 11.6 7.1 17.7 13.4 41.3 6 82.2-17.4 97.2-6 3.9-12.9 5.9-20 5.9h.1Zm-31.7-163c-3 0-6 .4-8.8 1.3-24.9 8.1-34 48.7-20.5 90.5 12 37 37.7 62.7 60.7 62.7a29.4 29.4 0 0 0 15.5-4.5c20-12.8 26-50.4 14-87.4-1.8-5.7-4.1-11.3-6.7-16.7-13.6-28.1-35.3-46-54.2-46Z"/><path fill="#431426" d="M1970.2 1296c12.9 39.8 5.7 78.5-15.7 92.2-20 .7-42.3-20.9-52.5-52.2-2.4-7.4-4-15.2-4.7-23l21-9.5-20-13.9c3-15 10.8-26.1 22.2-29.8 14-4.6 30 3.3 42.7 18.9 2.7 5.6 5 11.3 7 17.3Z"/><path fill="#431426" d="M2063.4 1408a4 4 0 0 1-1.5-.3 4.3 4.3 0 0 1-2.5-5.5 45.1 45.1 0 0 0-84.1-32.5c-.3.5-.6 1-1 1.3a4.2 4.2 0 0 1-4.6 1 4.2 4.2 0 0 1-2.3-2.3c-.3-.5-.4-1-.4-1.6 0-.6.1-1.1.3-1.7a53.7 53.7 0 0 1 100.1 38.8c-.3.8-.8 1.5-1.6 2-.7.5-1.5.8-2.4.8Z"/><path fill="#431426" d="M2006 1363.8a5.4 5.4 0 1 0 0-10.8 5.4 5.4 0 0 0 0 10.8ZM2039.9 1374.5a5.4 5.4 0 1 0 0-10.8 5.4 5.4 0 0 0 0 10.8ZM2016.7 1389.3a5.4 5.4 0 1 0 0-10.7 5.4 5.4 0 0 0 0 10.7ZM1475.8 2194.3a3.3 3.3 0 1 0 0-6.6 3.3 3.3 0 0 0 0 6.6Z"/><path fill="#431426" d="M1461.3 2127.1a3.3 3.3 0 1 0 0-6.6 3.3 3.3 0 0 0 0 6.6Z" opacity=".1"/><path fill="#431426" d="M1527.9 2195.1a3.3 3.3 0 1 0 0-6.6 3.3 3.3 0 0 0 0 6.6Z"/><path fill="#431426" d="M1475.2 2150.9a3.3 3.3 0 1 0 0-6.6 3.3 3.3 0 0 0 0 6.6ZM1477 2072a3.3 3.3 0 1 0 0-6.5 3.3 3.3 0 0 0 0 6.6ZM1462.5 2004.8a3.3 3.3 0 1 0 0-6.6 3.3 3.3 0 0 0 0 6.6ZM1529.1 2072.9a3.3 3.3 0 1 0 0-6.6 3.3 3.3 0 0 0 0 6.6ZM1465 2028.6a3.3 3.3 0 1 0 0-6.6 3.3 3.3 0 0 0 0 6.6ZM1443.7 2123a3.3 3.3 0 1 0 0-6.6 3.3 3.3 0 0 0 0 6.6ZM1429.2 2055.8a3.3 3.3 0 1 0 0-6.7 3.3 3.3 0 0 0 0 6.7Z" opacity=".1"/><path fill="#431426" d="M1495.8 2123.8a3.3 3.3 0 1 0 0-6.6 3.3 3.3 0 0 0 0 6.6ZM1443.2 2079.6a3.3 3.3 0 1 0 0-6.6 3.3 3.3 0 0 0 0 6.6Z"/><path fill="#431426" d="M1596 1900.4a3.3 3.3 0 1 0 0-6.7 3.3 3.3 0 0 0 0 6.7ZM1581.4 1833.1a3.3 3.3 0 1 0 0-6.6 3.3 3.3 0 0 0 0 6.6Z" opacity=".1"/><path fill="#431426" d="M1648 1901.2a3.3 3.3 0 1 0 0-6.6 3.3 3.3 0 0 0 0 6.6Z"/><path fill="#431426" d="M1595.4 1857a3.3 3.3 0 1 0 0-6.7 3.3 3.3 0 0 0 0 6.7Z" opacity=".1"/><path fill="#431426" d="M1880.7 1713a3.3 3.3 0 1 0 0-6.5 3.3 3.3 0 0 0 0 6.6Z"/><path fill="#431426" d="M1866.2 1645.9a3.3 3.3 0 1 0 0-6.6 3.3 3.3 0 0 0 0 6.6ZM1932.8 1713.9a3.3 3.3 0 1 0 0-6.6 3.3 3.3 0 0 0 0 6.6ZM1880.1 1669.7a3.3 3.3 0 1 0 0-6.7 3.3 3.3 0 0 0 0 6.7ZM1839 1875.6a3.3 3.3 0 1 0 0-6.6 3.3 3.3 0 0 0 0 6.6Z" opacity=".1"/><path fill="#431426" d="M1824.4 1808.4a3.3 3.3 0 1 0 0-6.7 3.3 3.3 0 0 0 0 6.7ZM1891 1876.4a3.3 3.3 0 1 0 0-6.6 3.3 3.3 0 0 0 0 6.6Z"/><path fill="#431426" d="M1838.3 1832.2a3.3 3.3 0 1 0 0-6.6 3.3 3.3 0 0 0 0 6.6ZM1905.5 2039.7a3.3 3.3 0 1 0 0-6.7 3.3 3.3 0 0 0 0 6.7ZM1891 1972.4a3.3 3.3 0 1 0 0-6.6 3.3 3.3 0 0 0 0 6.6ZM1957.6 2040.5a3.3 3.3 0 1 0 0-6.6 3.3 3.3 0 0 0 0 6.5ZM1904.9 1996.2a3.3 3.3 0 1 0 0-6.6 3.3 3.3 0 0 0 0 6.6Z" opacity=".1"/><path fill="#431426" d="M1210.6 1511.9a3.3 3.3 0 1 0 0-6.6 3.3 3.3 0 0 0 0 6.6Z"/><path fill="#431426" d="M1196 1444.7a3.3 3.3 0 1 0 0-6.6 3.3 3.3 0 0 0 0 6.6Z" opacity=".1"/><path fill="#431426" d="M1262.7 1512.7a3.3 3.3 0 1 0 0-6.6 3.3 3.3 0 0 0 0 6.6ZM1210 1468.5a3.3 3.3 0 1 0 0-6.7 3.3 3.3 0 0 0 0 6.7Z"/><path fill="#431426" d="M1380.8 1335.5a3.3 3.3 0 1 0 0-6.6 3.3 3.3 0 0 0 0 6.6Z" opacity=".1"/><path fill="#431426" d="M1366.3 1268.2a3.3 3.3 0 1 0 0-6.6 3.3 3.3 0 0 0 0 6.6Z"/><path fill="#431426" d="M1433 1336.3a3.3 3.3 0 1 0 0-6.6 3.3 3.3 0 0 0 0 6.6ZM1380.2 1292a3.3 3.3 0 1 0 0-6.6 3.3 3.3 0 0 0 0 6.6ZM1509.3 1397.4a3.3 3.3 0 1 0 0-6.6 3.3 3.3 0 0 0 0 6.6ZM1494.8 1330.2a3.3 3.3 0 1 0 0-6.7 3.3 3.3 0 0 0 0 6.7Z" opacity=".1"/><path fill="#431426" d="M1561.4 1398.2a3.3 3.3 0 1 0 0-6.6 3.3 3.3 0 0 0 0 6.6Z"/><path fill="#431426" d="M1508.7 1354a3.3 3.3 0 1 0 0-6.7 3.3 3.3 0 0 0 0 6.6ZM1735.2 1174.5a3.3 3.3 0 1 0 0-6.6 3.3 3.3 0 0 0 0 6.6ZM1720.7 1107.3a3.3 3.3 0 1 0 0-6.6 3.3 3.3 0 0 0 0 6.6ZM1787.3 1175.3a3.3 3.3 0 1 0 0-6.6 3.3 3.3 0 0 0 0 6.6ZM1734.7 1131a3.3 3.3 0 1 0 0-6.5 3.3 3.3 0 0 0 0 6.6Z" opacity=".1"/><path fill="#431426" d="M1247.7 837.1a3.3 3.3 0 1 0 0-6.6 3.3 3.3 0 0 0 0 6.6Z"/><path fill="#431426" d="M1233.2 769.9a3.3 3.3 0 1 0 0-6.6 3.3 3.3 0 0 0 0 6.6Z" opacity=".1"/><path fill="#431426" d="M1299.8 838a3.3 3.3 0 1 0 0-6.7 3.3 3.3 0 0 0 0 6.6Z"/><path fill="#431426" d="M1247.1 793.7a3.3 3.3 0 1 0 0-6.6 3.3 3.3 0 0 0 0 6.6Z" opacity=".1"/><path fill="#431426" d="M1379.3 761.3a3.3 3.3 0 1 0 0-6.6 3.3 3.3 0 0 0 0 6.6Z"/><path fill="#431426" d="M1364.8 694a3.3 3.3 0 1 0 0-6.6 3.3 3.3 0 0 0 0 6.6Z" opacity=".1"/><path fill="#431426" d="M1431.3 762a3.3 3.3 0 1 0 0-6.5 3.3 3.3 0 0 0 0 6.6Z"/><path fill="#431426" d="M1378.7 717.9a3.3 3.3 0 1 0 0-6.6 3.3 3.3 0 0 0 0 6.6Z" opacity=".1"/><path fill="#431426" d="M1845.1 620.5a3.3 3.3 0 1 0 0-6.7 3.3 3.3 0 0 0 0 6.7Z"/><path fill="#431426" d="M1830.6 553.2a3.3 3.3 0 1 0 0-6.6 3.3 3.3 0 0 0 0 6.6Z" opacity=".1"/><path fill="#431426" d="M1897.2 621.2a3.3 3.3 0 1 0 0-6.6 3.3 3.3 0 0 0 0 6.6Z"/><path fill="#431426" d="M1844.5 577a3.3 3.3 0 1 0 0-6.6 3.3 3.3 0 0 0 0 6.6Z" opacity=".1"/><path fill="#431426" d="M1012.8 848.7a3.3 3.3 0 1 0 0-6.6 3.3 3.3 0 0 0 0 6.6Z"/><path fill="#431426" d="M998.3 781.5a3.3 3.3 0 1 0 0-6.6 3.3 3.3 0 0 0 0 6.6Z" opacity=".1"/><path fill="#431426" d="M1064.9 849.5a3.3 3.3 0 1 0 0-6.6 3.3 3.3 0 0 0 0 6.6Z"/><path fill="#431426" d="M1012.2 805.3a3.3 3.3 0 1 0 0-6.6 3.3 3.3 0 0 0 0 6.6Z" opacity=".1"/><path fill="#431426" d="M1151 494a3.3 3.3 0 1 0 .1-6.6 3.3 3.3 0 0 0 0 6.6Z"/><path fill="#431426" d="M1136.6 426.7a3.3 3.3 0 1 0 0-6.6 3.3 3.3 0 0 0 0 6.6Z" opacity=".1"/><path fill="#431426" d="M1203.2 494.8a3.3 3.3 0 1 0 0-6.6 3.3 3.3 0 0 0 0 6.6Z"/><path fill="#431426" d="M1150.5 450.5a3.3 3.3 0 1 0 0-6.6 3.3 3.3 0 0 0 0 6.6Z" opacity=".1"/><path fill="#431426" d="M1634 818.7a3.3 3.3 0 1 0 0-6.7 3.3 3.3 0 0 0 0 6.7Z"/><path fill="#431426" d="M1619.4 751.4a3.3 3.3 0 1 0 0-6.6 3.3 3.3 0 0 0 0 6.6Z" opacity=".1"/><path fill="#431426" d="M1686 819.5a3.3 3.3 0 1 0 0-6.7 3.3 3.3 0 0 0 0 6.7Z"/><path fill="#431426" d="M1633.3 775.2a3.3 3.3 0 1 0 0-6.6 3.3 3.3 0 0 0 0 6.6Z" opacity=".1"/><path fill="#431426" d="M606.3 862a3.3 3.3 0 1 0 0-6.5 3.3 3.3 0 0 0 0 6.6ZM591.8 794.8a3.3 3.3 0 1 0 0-6.6 3.3 3.3 0 0 0 0 6.6Z"/><path fill="#431426" d="M658.4 862.9a3.3 3.3 0 1 0 0-6.6 3.3 3.3 0 0 0 0 6.6Z" opacity=".1"/><path fill="#431426" d="M605.7 818.7a3.3 3.3 0 1 0 0-6.7 3.3 3.3 0 0 0 0 6.7Z"/><path fill="#431426" d="M762 1187.5a3.3 3.3 0 1 0 0-6.6 3.3 3.3 0 0 0 0 6.6Z" opacity=".1"/><path fill="#431426" d="M747.4 1120.3a3.3 3.3 0 1 0 0-6.6 3.3 3.3 0 0 0 0 6.6Z"/><path fill="#431426" d="M814 1188.3a3.3 3.3 0 1 0 0-6.6 3.3 3.3 0 0 0 0 6.6ZM761.3 1144.1a3.3 3.3 0 1 0 0-6.6 3.3 3.3 0 0 0 0 6.6Z" opacity=".1"/><path fill="#431426" d="M491.1 1477.9a3.3 3.3 0 1 0 0-6.6 3.3 3.3 0 0 0 0 6.6Z"/><path fill="#431426" d="M476.7 1410.6a3.3 3.3 0 1 0 0-6.6 3.3 3.3 0 0 0 0 6.6ZM543.2 1478.7a3.3 3.3 0 1 0 0-6.6 3.3 3.3 0 0 0 0 6.6Z" opacity=".1"/><path fill="#431426" d="M490.6 1434.5a3.3 3.3 0 1 0 0-6.7 3.3 3.3 0 0 0 0 6.7Z"/><path fill="#431426" d="M2265.2 811a3.3 3.3 0 1 0 0-6.7 3.3 3.3 0 0 0 0 6.6Z" opacity=".1"/><path fill="#431426" d="M2250.7 743.7a3.3 3.3 0 1 0 0-6.6 3.3 3.3 0 0 0 0 6.6ZM2317.3 811.7a3.3 3.3 0 1 0 0-6.6 3.3 3.3 0 0 0 0 6.6Z"/><path fill="#431426" d="M2264.6 767.5a3.3 3.3 0 1 0 0-6.6 3.3 3.3 0 0 0 0 6.6Z" opacity=".1"/><path fill="#431426" d="M2355.9 864.2a3.3 3.3 0 1 0 0-6.6 3.3 3.3 0 0 0 0 6.6Z"/><path fill="#431426" d="M2341.4 797a3.3 3.3 0 1 0 0-6.6 3.3 3.3 0 0 0 0 6.6Z" opacity=".1"/><path fill="#431426" d="M2408 865a3.3 3.3 0 1 0 0-6.6 3.3 3.3 0 0 0 0 6.6Z"/><path fill="#431426" d="M2355.3 820.8a3.3 3.3 0 1 0 0-6.6 3.3 3.3 0 0 0 0 6.6Z" opacity=".1"/><path fill="#431426" d="M2307.6 947a3.3 3.3 0 1 0 0-6.6 3.3 3.3 0 0 0 0 6.7Z"/><path fill="#431426" d="M2293 879.8a3.3 3.3 0 1 0 0-6.6 3.3 3.3 0 0 0 0 6.6Z" opacity=".1"/><path fill="#431426" d="M2359.7 947.9a3.3 3.3 0 1 0 0-6.7 3.3 3.3 0 0 0 0 6.6Z"/><path fill="#431426" d="M2307 903.6a3.3 3.3 0 1 0 0-6.6 3.3 3.3 0 0 0 0 6.6Z" opacity=".1"/></svg>