<svg xmlns="http://www.w3.org/2000/svg" width="3000" height="3000" fill="none"><path fill="#FFEAB9" d="M1595 2329c-17 27-56 45-119 54l-10 1a681 681 0 0 1-100 2 25 25 0 0 1-12-33 25 25 0 0 1 23-14c61 2 159-8 176-36 18-30-3-150-23-226l-1-2c9-1 17-2 26 0 9 1 18 3 27 7 14 55 44 194 13 247Z"/><path fill="#431426" d="M1390 2392h-15a29 29 0 0 1 2-58c62 2 157-8 172-33 16-26 0-136-23-222l-1-3a4 4 0 0 1 3-5 124 124 0 0 1 57 7l1 2c14 58 45 197 12 251-17 29-57 47-122 56a473 473 0 0 1-86 5Zm-14-49a20 20 0 0 0-1 40 677 677 0 0 0 100-5c62-8 100-25 116-52 31-51-1-195-13-241a117 117 0 0 0-43-6c19 71 41 193 21 227-19 32-129 39-179 37h-1Z"/><path fill="#FFEAB9" d="m1884 2423 3-2a25 25 0 0 0 10-33 2447 2447 0 0 1-169-409 24 24 0 0 0-41 4 25 25 0 0 0-2 19c3 10 71 233 169 410a25 25 0 0 0 30 11Z"/><path fill="#431426" d="M1875 2429a29 29 0 0 1-25-15c-98-177-166-401-169-411a29 29 0 1 1 55-16c1 2 70 227 165 399a29 29 0 0 1-26 43Zm-166-454a20 20 0 0 0-13 4 20 20 0 0 0-8 14l1 8c3 9 72 233 169 408a20 20 0 1 0 35-19c-95-172-164-399-165-401a20 20 0 0 0-19-14Z"/><path fill="#F57162" d="M1400 2431c-43 6-43 50-43 50s94 89 9 172c-33 33-84 42-122 39-25-2-44-9-49-17-28-45-37-107-36-167l1-13 1-16c5-71 24-133 37-147 6-6 21-12 41-17a598 598 0 0 1 124-17c27-1 47 1 51 7 12 20-9 34-9 34s-29-3-34 16c-4 16 6 20 6 20s60-1 67 13-1 38-44 43Z"/><path fill="#431426" d="m1257 2697-14-1c-26-2-46-9-52-18-32-52-37-121-36-170v-14a478 478 0 0 1 40-165c6-7 20-13 42-19a599 599 0 0 1 126-17c48-1 53 7 55 10 11 18-2 34-11 39l-3 1s-25-2-28 13c-3 10 0 14 2 15 16 0 63 0 70 15a28 28 0 0 1-1 26c-5 9-17 20-46 24-34 4-39 35-39 43 8 8 44 47 44 96 0 29-12 57-37 81-31 30-76 41-112 41Zm115-395h-22a798 798 0 0 0-110 17c-27 7-36 13-39 16a330 330 0 0 0-37 160l-1 13c-1 48 5 115 36 165 3 6 19 13 45 15 36 2 86-6 119-38 23-23 35-48 34-75 0-50-42-91-43-91a4 4 0 0 1-1-3c0-1 1-48 47-54 19-2 33-9 39-20a19 19 0 0 0 1-17c-3-7-35-11-63-10l-2-1c-1 0-13-5-8-25s30-20 37-20c3-3 15-13 7-27-2-2-12-5-39-5Z"/><path fill="#431426" d="m1357 2485-3-1s-25-23-81-16h-2a4 4 0 0 1-2-7l3-1c60-8 87 17 88 18a4 4 0 0 1 1 4 4 4 0 0 1-4 3Z"/><path fill="#431426" d="M1311 2467a4 4 0 0 1-3-2 4 4 0 0 1-1-3c9-72 68-91 68-91l3 1a4 4 0 0 1 2 5l-2 2c-3 1-54 18-62 84a4 4 0 0 1-5 4Z"/><path fill="#FFD073" d="M1363 2298v1c-2 19-11 32-27 39l-23 9c-19 7-20 8-20 17v8c0 23 1 43-35 63-12 7-13 13-14 23-1 9-3 22-15 33-7 6-22 15-69 17h-1l1-13v-16c40-2 49-9 50-10 4-3 4-7 6-15 1-12 3-30 28-44 21-12 21-17 20-38v-8c0-31 20-38 40-44l21-9a16 16 0 0 0 9-12l15-1h14Z"/><path fill="#431426" d="M1159 2513a4 4 0 0 1-3-2 4 4 0 0 1-1-3v-14a506 506 0 0 1 2-18l3-1c39-2 47-9 47-9 3-2 3-4 4-12 2-12 4-32 30-47 19-11 19-15 19-35v-8c0-33 22-41 42-48l21-8a11 11 0 0 0 7-10 4 4 0 0 1 3-3 618 618 0 0 1 33 0 4 4 0 0 1 1 3v2c-2 20-12 34-29 42l-23 9c-18 6-18 6-18 13v8c1 23 1 45-37 67-10 6-10 10-12 20-1 9-3 23-16 35-7 7-23 16-72 19h-1Zm5-29a474 474 0 0 0-1 20c49-3 60-13 63-16 11-10 13-22 14-31 1-10 2-17 16-25 33-20 33-38 33-60v-8c0-13 3-15 23-21v-1c7-2 14-4 22-8a41 41 0 0 0 24-32l-8 1h-13a19 19 0 0 1-11 12l-21 9c-20 7-36 13-36 40v8c0 22-1 29-23 42a48 48 0 0 0-26 41c-1 7-2 13-7 18-2 2-12 8-49 11Z"/><path fill="#FFFAF4" d="M1244 2692c-25-2-44-9-49-17-69-109-23-317 3-343 6-6 21-12 41-17 0 0-38 60-38 192 0 142 43 185 43 185Z"/><path fill="#431426" d="M1243 2696c-26-2-46-9-52-18-71-113-22-323 4-349a100 100 0 0 1 45-18 4 4 0 0 1 2 6c0 1-37 61-37 191 0 137 41 181 42 181a4 4 0 0 1-2 7h-2Zm-13-374c-19 5-26 10-29 13-24 25-70 231-2 338 3 5 15 11 35 14-12-18-37-70-37-179 0-105 23-165 33-186Z"/><path fill="#431426" d="M1187 2356a4 4 0 0 1-5-4 4 4 0 0 1 4-4l38-5a4 4 0 0 1 3 1l1 1 1 2a4 4 0 0 1-1 3 4 4 0 0 1-3 2l-38 4ZM1176 2392l-3-1a4 4 0 0 1 3-7l37-4 4 1a4 4 0 0 1-3 8l-38 3ZM1167 2431a4 4 0 0 1-4-5 4 4 0 0 1 4-4l39-3a4 4 0 1 1 1 9l-40 3ZM1162 2471a4 4 0 0 1-5-4 4 4 0 0 1 4-5l41-4a4 4 0 0 1 1 9l-41 4ZM1159 2508a4 4 0 0 1-4-4 4 4 0 0 1 4-4l40-2a4 4 0 0 1 3 8 4 4 0 0 1-3 1l-40 1ZM1201 2550h-40a4 4 0 0 1 0-9h40a4 4 0 1 1 0 9ZM1204 2589h-41a4 4 0 0 1-4-4 4 4 0 0 1 4-4h41a4 4 0 0 1 5 4 4 4 0 0 1-5 4ZM1211 2624h-38a4 4 0 0 1-4-5 4 4 0 0 1 4-4h38a4 4 0 0 1 0 9ZM1182 2653a4 4 0 0 1-4-4 4 4 0 0 1 4-5l38-2a4 4 0 0 1 4 4 4 4 0 0 1-4 4l-37 3h-1ZM1229 2676h-34a4 4 0 0 1 0-9h34a4 4 0 0 1 4 5 4 4 0 0 1-4 4ZM1370 2451l-3-1-43-30-1-3a4 4 0 0 1 3-5h4l42 31a4 4 0 0 1-2 8Z"/><path fill="#F57162" d="m2235 2470-1 2c-6 7-12 14-19 19a296 296 0 0 1-54 36 491 491 0 0 1-71 31l-4 2-3 1h-1l-1 1-2 1h-3a540 540 0 0 1-35 11l-4 1c-57 16-108 23-121 19h-1c-6-3-14-10-22-20l-7-9-2-3a601 601 0 0 1-56-96l-5-13c-11-25-16-45-12-50 13-18 35-4 35-4 1 3 14 28 27 25 13-2 16-9 17-11v-1s-24-56-13-67c11-12 36-14 56 24 21 38 62 22 62 22s48-120 157-71a162 162 0 0 1 82 104l1 3a110 110 0 0 1 2 9c3 16 3 29-2 34Z"/><path fill="#431426" d="M1923 2599a29 29 0 0 1-10-1c-6-3-14-10-24-22l-6-8-2-2v-1a605 605 0 0 1-57-98l-6-13c-18-44-13-52-11-54 13-17 32-11 41-5l1 1v1c5 9 16 24 23 23 10-2 13-6 13-8-6-15-23-59-11-71a28 28 0 0 1 24-8c10 1 25 8 39 34 16 30 47 23 55 20 4-10 27-58 73-76 27-11 57-10 89 4 44 20 72 66 83 103l2 5v2a83 83 0 0 1 1 5l1 5c2 10 4 29-3 38l-1 2a197 197 0 0 1-43 36l-2 1a500 500 0 0 1-101 50l-4 2h-1l-1 1h-3l-2 1-1 1h-1l-14 4a1251 1251 0 0 1-141 28Zm-6-9-2 4 2-4Zm0 0c2 0 8 1 27-2a1225 1225 0 0 0 132-29l1-1h2l1-1h2l1-1h2l4-2a679 679 0 0 0 99-49h1a337 337 0 0 0 23-17c7-5 13-11 18-18l2-2c3-3 4-14 1-31l-1-5-1-4v-2l-2-5c-10-35-37-79-78-97-30-13-58-15-83-5-46 19-69 73-69 74l-1 1-1 1c-1 0-45 17-67-24-10-17-22-27-33-29a19 19 0 0 0-17 6c-5 5 3 37 14 62v2a6 6 0 0 1 0 2c-1 4-5 13-21 15-14 2-27-19-31-27-3-2-18-10-28 3-1 2-1 15 13 46a613 613 0 0 0 60 109l1 1 2 1 6 9c11 13 17 17 21 19Z"/><path fill="#431426" d="M2011 2480a4 4 0 0 1-4-2c-29-53-17-88-16-89l2-2h4a4 4 0 0 1 2 5c0 1-11 32 15 82a4 4 0 0 1-1 6h-2Z"/><path fill="#431426" d="M1964 2449a104 104 0 0 1-78-36 4 4 0 0 1 1-5l3-1c2 0 3 1 3 2 2 2 36 44 101 27h3l2 3v3l-3 2c-10 3-21 5-32 5ZM2063 2572a4 4 0 0 1-3-1l-1-1-1-1c-13-29-21-33-21-33h-14c-11 3-31 8-55-10-17-14-20-13-38-5l-8 3c-31 12-47-6-61-21-3-5-9-11-15-16a12 12 0 0 0-11-4h-2l-2-2-7-14-6-13a4 4 0 0 1 0-3 4 4 0 0 1 3-3h2c19-5 36-1 49 11l17 19c12 14 12 14 19 11l2-1 5-2c22-9 42-17 77 10 9 7 12 6 22 4 9-2 23-6 39 2 6 3 11 7 15 12a180 180 0 0 1 26 44 4 4 0 0 1-3 4l-4 1-2 1-1 1h-2l-2 1-1 1h-1l-14 5h-1Zm-31-46 9 2c2 1 10 7 24 34l10-3h1l1-1h2l1-1h2l2-1c-5-13-13-25-22-35v-1l-13-10c-13-6-24-3-33-1-10 2-17 4-30-6-30-24-46-17-67-8l-5 2-3 1c-11 4-14 1-28-14l-16-18a41 41 0 0 0-38-11 214 214 0 0 0 8 20 19 19 0 0 1 16 5l15 17c14 16 25 29 51 19l7-3c21-8 28-10 48 6s36 12 47 9h2l9-2Z"/><path fill="#FFFAF4" d="M2239 2454v6a23 23 0 0 1-2 9l-1 1a158 158 0 0 1-21 21 248 248 0 0 1-24 18 370 370 0 0 1-66 35l-35 14-4 2-3 1h-1l-1 1h-1l-2 1h-1a593 593 0 0 1-36 11l-4 1c-57 16-108 23-121 19h-1c-6-3-14-10-22-21l-7-8-2-3h2a483 483 0 0 0 176-44l3-1 9-3 3-1c118-48 152-88 156-93v-1l2 5v2a115 115 0 0 1 1 5l3 17v6Z"/><path fill="#431426" d="m1923 2599-9-1c-8-2-17-11-31-30l-2-2v-1l-1-3a4 4 0 0 1 2-4h3a512 512 0 0 0 176-44l3-1 8-3 3-1c120-48 151-88 154-92h1l1-2h2a4 4 0 0 1 4 3l2 5v2a108 108 0 0 1 2 10c2 8 3 16 2 25v1a34 34 0 0 1-2 8v1a13 13 0 0 1-3 3c-5 7-11 13-17 18l-4 3-23 18h-2a410 410 0 0 1-100 50l-5 2h-1l-3 1-2 1-1 1h-3l-13 5-22 6-4 1a647 647 0 0 1-115 20Zm-31-33c6 8 17 21 24 23a630 630 0 0 0 120-19h4l21-7 14-4h1l1-1h1l2-1 3-1h2l4-2a553 553 0 0 0 99-49l1-1a261 261 0 0 0 43-36l1-1v-2l1-1a23 23 0 0 0 0-5 79 79 0 0 0-1-22l-1-4v-1l-1-4c-13 14-53 49-153 89l-3 1-9 4-2 1-41 14c-68 22-113 28-131 29Z"/><path fill="#431426" d="M1936 2598a4 4 0 0 1-4-3l-18-33a4 4 0 0 1 0-4 4 4 0 0 1 2-2 4 4 0 0 1 3-1 4 4 0 0 1 3 3l18 33a4 4 0 0 1 0 5 4 4 0 0 1-4 2ZM1972 2592a4 4 0 0 1-3-2l-18-36a4 4 0 1 1 7-4l18 36a4 4 0 0 1 1 4 4 4 0 0 1-5 2ZM2011 2586l-2-1-2-2-19-39a4 4 0 0 1 0-3 4 4 0 0 1 4-3h2a4 4 0 0 1 2 2l19 40a4 4 0 0 1 0 4 4 4 0 0 1-4 2ZM2050 2576a4 4 0 0 1-4-3l-20-40a4 4 0 0 1 2-6 4 4 0 0 1 6 2l20 40a4 4 0 0 1 0 5 4 4 0 0 1-4 2ZM2086 2564a4 4 0 0 1-4-3l-18-41a4 4 0 0 1 0-4 4 4 0 0 1 2-2 4 4 0 0 1 6 2l18 42v4l-3 2h-1ZM2125 2549a4 4 0 0 1-4-3l-18-45v-3a4 4 0 0 1 6-2l2 2 18 45a4 4 0 0 1 0 4l-2 1-2 1ZM2160 2531a4 4 0 0 1-4-3v-1l-18-42a4 4 0 0 1 0-3 4 4 0 0 1 7-2l1 2 18 42 1 1v1a4 4 0 0 1-3 5h-2ZM2191 2513a4 4 0 0 1-4-3l-17-42v-4a4 4 0 0 1 8 0l17 43a4 4 0 0 1-1 4 4 4 0 0 1-3 2ZM2214 2493a4 4 0 0 1-4-2l-18-38v-3a4 4 0 0 1 8 0l18 37a4 4 0 0 1 0 3 4 4 0 0 1-2 3h-2ZM2232 2476l-2-1-2-2-14-36a4 4 0 0 1 2-5 4 4 0 0 1 6 2l14 36a4 4 0 0 1-1 5l-1 1h-2ZM1946 2447h-1a4 4 0 0 1-3-5l13-51a4 4 0 0 1 2-3 4 4 0 0 1 3-1 4 4 0 0 1 3 2 4 4 0 0 1 0 4l-13 51a4 4 0 0 1-4 3Z"/><path fill="#FFEAB9" d="M1760 993a25 25 0 0 1-8-48c72-24 121-82 148-170 12-43 18-87 18-132a25 25 0 0 1 49-2c1 49-6 99-20 146-30 104-92 175-179 205l-8 1Z"/><path fill="#431426" d="M1760 997a29 29 0 0 1-9-56c70-24 119-80 145-168 12-42 18-86 18-130a29 29 0 0 1 58-2c0 50-7 100-21 148-30 105-94 177-182 207l-9 1Zm183-375h-1a20 20 0 0 0-20 21c1 45-5 90-18 133-27 90-77 148-151 173a20 20 0 1 0 13 39c86-30 147-99 177-202 14-47 20-96 20-145a20 20 0 0 0-20-19Z"/><path fill="#FFFAF4" d="M1892 623s-33 7-25 37 54 1 77 9c22 8 45 17 56 0 12-17-6-46-6-46s34-31 41-49c7-17 10-43 10-43s12-1 7-37c-10-62-48-45-48-45s-11-36-47-17c0 0-25-37-48-4-1-13 0-27 2-40 4-18 20-73-15-80s-42 73-39 139c0 0-30 4-36 38-6 33 28 59 35 79 6 20 8 52 36 59Z"/><path fill="#431426" d="M1981 683c-11 0-23-4-35-8l-4-2c-8-2-19 0-31 2-20 4-42 8-48-14a31 31 0 0 1 3-26c3-5 8-9 14-12-16-10-21-30-25-46l-3-12c-2-6-8-14-13-22-12-16-26-35-22-59a48 48 0 0 1 35-40c-1-31-2-113 25-135a23 23 0 0 1 20-5 29 29 0 0 1 19 12c12 19 4 51 0 69l-1 4c-2 9-2 19-2 28 5-5 11-7 17-7 13 0 24 11 28 16 11-5 21-5 29-2 11 4 17 14 20 20 8-2 16-1 23 2 13 7 22 23 26 48 3 18 2 30-3 37l-4 3c-1 7-4 27-10 42s-31 40-40 48c5 9 16 32 5 48a26 26 0 0 1-23 11Zm-48-19c4-1 8 0 12 1l4 2c24 8 39 12 48 0 10-15-6-41-7-41a4 4 0 0 1 1-6c1 0 34-31 40-47 7-17 10-42 10-42 0-2 1-4 4-4 1-1 7-5 3-32-4-21-11-36-21-41a24 24 0 0 0-21-1 4 4 0 0 1-5-1l-1-1s-4-14-16-19c-7-3-15-2-25 4a4 4 0 0 1-6-2s-11-16-23-16c-6 0-12 5-17 12a4 4 0 0 1-4 2 4 4 0 0 1-4-3c-1-14-1-28 2-41l1-5c3-15 11-47 1-62a20 20 0 0 0-21-9l-6 3c-19 17-23 79-21 132a4 4 0 0 1-4 4c-1 0-27 4-32 34-3 20 10 38 21 53 6 9 12 17 14 24l3 13c5 18 10 38 30 44a4 4 0 0 1 2 7l-2 2s-14 2-20 12a22 22 0 0 0-2 19c4 13 17 12 39 8 8-2 15-3 23-3Z"/><path fill="#431426" d="M1915 541c-8 0-22-4-37-28a4 4 0 0 1 2-6 4 4 0 0 1 6 2c10 16 21 24 30 23 7 0 12-5 16-13a39 39 0 0 0-8-39 89 89 0 0 0-67-29 4 4 0 0 1-4-7l3-1c2 0 45-3 74 31a47 47 0 0 1 10 48c-5 11-13 18-23 19h-2Z"/><path fill="#431426" d="M1959 540h-1c-14-1-25-17-26-18a4 4 0 0 1-1-3 4 4 0 0 1 2-3 4 4 0 0 1 6 1c3 4 11 14 19 15 5 0 9-2 12-7 16-18-7-72-17-91a4 4 0 0 1 2-6 4 4 0 0 1 6 2c1 3 39 74 16 101a23 23 0 0 1-18 9ZM1915 468a4 4 0 0 1-4-4 95 95 0 0 0-4-13l1-1a4 4 0 0 1 6-2 4 4 0 0 1 2 2 97 97 0 0 1 3 14 4 4 0 0 1-3 4h-1ZM1909 440a4 4 0 0 1-4-5v-7a4 4 0 0 1 4-4 4 4 0 0 1 5 4v7a4 4 0 0 1-3 4l-2 1Z"/><path fill="#431426" d="M1992 545c-8 0-16-6-22-15a4 4 0 0 1 2-6 4 4 0 0 1 6 2c4 8 11 11 18 9s15-10 15-24a295 295 0 0 0-10-64 4 4 0 0 1 8 1c0 2 11 39 11 63 0 18-11 30-22 33l-6 1Z"/><path fill="#431426" d="M2037 537c-4 0-7 0-10-2-8-4-13-13-16-27v-2l1-1a4 4 0 0 1 2-2 4 4 0 0 1 4 1l1 1 1 2c2 10 5 17 11 20a16 16 0 0 0 12 0 4 4 0 0 1 6 2v4l-2 2-10 2ZM1909 632h-1l-17-4a4 4 0 1 1 2-9l17 4a4 4 0 1 1-1 9ZM1987 634a4 4 0 0 1-3-2 4 4 0 0 1-1-3 4 4 0 0 1 2-3l6-6a4 4 0 0 1 6 7l-7 5c0 1-1 2-3 2Z"/><path fill="#BE6956" d="m2017 1897-767 328-94-31L796 705l772-332 90 33 84 348-19 8 10 40 19-7 81 337-22 10 9 38 2-1 20-10 82 343-22 9 10 38 2-1 19-9 84 348Z"/><path fill="#431426" d="m2017 1897-767 328-94-31L796 705l772-332 90 33 84 348-19 8 10 40 19-7 81 337-22 10 9 38 2-1 20-10 82 343-22 9 10 38 2-1 19-9 84 348Z" opacity=".1"/><path fill="#431426" d="M1250 2229h-1l-94-31a4 4 0 0 1-3-3L792 706a4 4 0 0 1 2-5l773-332h3l90 33a4 4 0 0 1 2 3l84 348a4 4 0 0 1-2 5l-16 7 8 31 14-5a4 4 0 0 1 4 0 4 4 0 0 1 2 3l81 337a4 4 0 0 1-2 5l-19 8 7 30 17-9a4 4 0 0 1 4 0 4 4 0 0 1 2 3l83 343a4 4 0 0 1-3 5l-18 7 7 30 17-8a4 4 0 0 1 6 3l83 348a4 4 0 0 1-2 5l-767 328h-2Zm-90-39 90 30 762-326-82-339-17 7a4 4 0 0 1-3 0 4 4 0 0 1-3-2l-9-38 1-3 2-2 18-8-80-334-17 9a4 4 0 0 1-4 0 4 4 0 0 1-2-3l-10-38a4 4 0 0 1 3-6l19-7-79-330-15 6a4 4 0 0 1-3-1l-1-1-1-2-10-39 1-3 2-2 15-6-83-343-85-31-768 329 359 1483Z"/><path fill="#BE6956" d="m2017 1897-767 328-87-347-18-5-10-39 18 5-84-338-17-6-11-41 18 7-85-337-19-8-10-41 19 8-85-342 779-335 84 348-19 8 10 40 19-7 81 337-22 10 11 37 20-10 82 343-22 9 12 37 19-9 84 348Z"/><path fill="#431426" d="M1153 1843a4 4 0 0 1-4-3l-84-338a4 4 0 0 1 0-3l1-1a4 4 0 0 1 5 0l2 2 85 338a4 4 0 0 1-5 5ZM1059 1466l-3-1-1-3-85-337a4 4 0 1 1 9-2l84 337v3l-3 2-1 1Z"/><path fill="#431426" d="M1250 2229h-1l-94-31a4 4 0 0 1-3-3L792 706a4 4 0 0 1 6-5l82 37a4 4 0 0 1 3 2l85 342a4 4 0 0 1-8 2l-85-339-73-33 358 1478 84 28-85-339a4 4 0 1 1 8-2l87 347a4 4 0 0 1-1 3 4 4 0 0 1-3 2Z"/><path fill="#431426" d="m1250 2229-2-1a4 4 0 0 1-2-2l-87-347a4 4 0 1 1 9-2l85 342 759-325-82-339-15 6a4 4 0 0 1-5-1v-1l-12-37a4 4 0 0 1 3-5l18-8-80-334-15 8a4 4 0 0 1-4 0 4 4 0 0 1-3-2l-10-38a4 4 0 0 1 2-5l19-8-79-330-15 6a4 4 0 0 1-3-1l-1-1-1-2-10-39 1-3 2-2 15-6-82-340-228 98a4 4 0 0 1-5 0 4 4 0 0 1 1-8l233-100a4 4 0 0 1 6 1v2l84 348a4 4 0 0 1-2 5l-15 7 7 31 14-6a4 4 0 0 1 4 1 4 4 0 0 1 2 3l81 337a4 4 0 0 1-2 5l-19 8 8 29 16-8a4 4 0 0 1 4 0 4 4 0 0 1 2 3l83 343a4 4 0 0 1-3 5l-18 7 8 29 16-7a4 4 0 0 1 5 1l1 2 84 348a4 4 0 0 1-3 5l-767 328h-2ZM1154 627a4 4 0 0 1-2-8l235-101a4 4 0 0 1 4 8l-235 101h-2ZM964 1087a4 4 0 0 1-4-3l-86-341a4 4 0 0 1 3-5l242-104a4 4 0 0 1 5 2 4 4 0 0 1-1 5l-1 1-238 102 84 338a4 4 0 0 1-3 5h-1ZM1059 1466l-3-1-1-3-85-337a4 4 0 1 1 9-2l84 337v3l-3 2-1 1ZM1153 1843a4 4 0 0 1-4-3l-84-338a4 4 0 0 1 0-3l1-1a4 4 0 0 1 5 0l2 2 85 338a4 4 0 0 1-5 5Z"/><path fill="#431426" d="m1102 629 35-14 17 8 86 344 234-99-85-346-17-8 37-16 16 9 85 344 213-89 10 40-212 91 81 337 209-88 11 37-210 92 82 337 209-87 11 37-211 89 85 348-33 14-87-344-232 97 86 347-37 15-87-344-235 98-18-5-10-39 18 5 238-100-85-337-235 100-19-7-11-41 18 7 237-99-84-338-238 100-19-8-10-41 19 8 238-101-82-344-18-9Z" opacity=".1"/><path fill="#431426" d="m1485 2129-2-1a4 4 0 0 1-2-3l-86-339-230 96h-3l-18-5a4 4 0 0 1-3-3l-11-39a4 4 0 0 1 3-5h3l17 4 233-97-83-329-230 98h-4l-19-7a4 4 0 0 1-3-3l-10-40a4 4 0 0 1 1-5 4 4 0 0 1 4 0l17 6 232-98-82-329-233 98a4 4 0 0 1-3 0l-20-8a4 4 0 0 1-2-3l-10-41a4 4 0 0 1 4-5h2l17 7 233-99-81-338-15-8a4 4 0 0 1 0-8l34-14a4 4 0 0 1 4 0l17 8a4 4 0 0 1 2 3l85 339 226-96-84-340-14-7a4 4 0 0 1-3-4 4 4 0 0 1 3-4l36-16a4 4 0 0 1 4 0l16 9 1 1 1 1 84 340 209-87a4 4 0 0 1 5 2l1 1 9 40v3l-2 2-209 90 80 328 203-86 2-1a4 4 0 0 1 3 2l1 2 11 37a4 4 0 0 1-3 6l-206 89 80 329 204-85a4 4 0 0 1 5 1l1 1 11 37a4 4 0 0 1-3 6l-207 88 85 344a4 4 0 0 1-3 5l-33 14a4 4 0 0 1-5-1l-1-2-86-339-224 94 85 343a4 4 0 0 1-3 5l-36 15-2 1Zm-87-353 2 1 2 1 1 1 85 339 29-12-86-343a4 4 0 0 1 3-5l232-97h2l2 1a4 4 0 0 1 2 2l86 339 25-11-84-344 1-2 2-3 206-88-8-29-205 86h-3a4 4 0 0 1-3-3l-81-337 1-3 2-2 205-90-8-30-204 87a4 4 0 0 1-4 0 4 4 0 0 1-2-3l-81-337a4 4 0 0 1 2-5l209-90-8-31-208 87a4 4 0 0 1-4 0 4 4 0 0 1-2-3l-85-343-12-6-26 11 8 4a4 4 0 0 1 2 3l85 346a4 4 0 0 1-2 5l-235 99a4 4 0 0 1-3 0 4 4 0 0 1-2-3l-86-342-13-6-24 9 9 5a4 4 0 0 1 2 3l82 344a4 4 0 0 1-3 5l-237 101h-4l-11-5 8 31 15 6 237-99a5 5 0 0 1 3 0 4 4 0 0 1 3 3l84 338a4 4 0 0 1-3 5l-237 99h-4l-10-4 8 31 16 5 234-99a4 4 0 0 1 3 0 4 4 0 0 1 2 3l85 337a4 4 0 0 1-2 5l-238 100h-2l-12-3 8 30 14 4 234-98h1Z"/><path fill="#431426" d="M1334 1349h-2l-1-1-1-2-84-335a4 4 0 0 1 2-5l233-100a4 4 0 0 1 4 0 4 4 0 0 1 2 2l86 335-1 3-2 3-234 100h-2Zm-79-337 82 327 226-97-83-327-225 97ZM1428 1727h-2a4 4 0 0 1-2-3l-83-338a4 4 0 0 1 3-5l230-96a4 4 0 0 1 4 0l2 1v2l82 333a4 4 0 0 1-3 5l-229 101h-2Zm-77-339 80 329 221-98-79-324-222 93ZM1284 2178a4 4 0 1 0 0-7 4 4 0 0 0 0 7Z"/><path fill="#431426" d="M1227 2209a4 4 0 1 0 0-7 4 4 0 0 0 0 7Z" opacity=".1"/><path fill="#431426" d="M1209 2184a4 4 0 1 0 0-7 4 4 0 0 0 0 7Z"/><path fill="#431426" d="M1383 2125a4 4 0 1 0 0-8 4 4 0 0 0 0 8ZM1326 2155a4 4 0 1 0 0-7 4 4 0 0 0 0 7Z" opacity=".1"/><path fill="#431426" d="M1308 2131a4 4 0 1 0 0-8 4 4 0 0 0 0 8ZM1127 1655a4 4 0 1 0 0-7 4 4 0 0 0 0 7Z"/><path fill="#431426" d="M1070 1686a4 4 0 1 0 0-8 4 4 0 0 0 0 8Z" opacity=".1"/><path fill="#431426" d="M1052 1661a4 4 0 1 0 0-7 4 4 0 0 0 0 7Z"/><path fill="#431426" d="M998 1344a4 4 0 1 0 0-8 4 4 0 0 0 0 8Z" opacity=".1"/><path fill="#431426" d="M962 1290a4 4 0 1 0 0-8 4 4 0 0 0 0 8Z"/><path fill="#431426" d="M985 1270a4 4 0 1 0 0-8 4 4 0 0 0 0 8Z" opacity=".1"/><path fill="#431426" d="M1667 512a4 4 0 1 0 0-8 4 4 0 0 0 0 8Z"/><path fill="#431426" d="M1620 467a4 4 0 1 0 0-7 4 4 0 0 0 0 7Z" opacity=".1"/><path fill="#431426" d="M1637 442a4 4 0 1 0 0-7 4 4 0 0 0 0 7ZM1646 576a4 4 0 1 0 0-8 4 4 0 0 0 0 8Z"/><path fill="#431426" d="M1618 517a4 4 0 1 0 0-7 4 4 0 0 0 0 7Z" opacity=".1"/><path fill="#431426" d="M1643 500a4 4 0 1 0 0-7 4 4 0 0 0 0 7ZM1163 2087a4 4 0 1 0 0-8 4 4 0 0 0 0 8Z"/><path fill="#431426" d="M1156 2022a4 4 0 1 0 0-7 4 4 0 0 0 0 7Z" opacity=".1"/><path fill="#431426" d="M1185 2015a4 4 0 1 0 0-8 4 4 0 0 0 0 8Z"/><path fill="#431426" d="M1140 2077a4 4 0 1 0 0-8 4 4 0 0 0 0 8Z" opacity=".1"/><path fill="#431426" d="M1183 2125a4 4 0 1 0 0-7 4 4 0 0 0 0 7Z"/><path fill="#431426" d="M1163 2148a4 4 0 1 0 0-7 4 4 0 0 0 0 7Z" opacity=".1"/><path fill="#431426" d="M1081 1626a4 4 0 1 0 0-8 4 4 0 0 0 0 8ZM1033 1582a4 4 0 1 0 0-7 4 4 0 0 0 0 7Z"/><path fill="#431426" d="M1050 1557a4 4 0 1 0 0-7 4 4 0 0 0 0 7ZM1489 2041a4 4 0 1 0 0-7 4 4 0 0 0 0 7ZM1414 2047a4 4 0 1 0 0-7 4 4 0 0 0 0 7ZM1588 1988a4 4 0 1 0 0-8 4 4 0 0 0 0 8ZM1513 1994a4 4 0 1 0 0-8 4 4 0 0 0 0 8ZM1275 1549a4 4 0 1 0 0-8 4 4 0 0 0 0 8ZM1203 1207a4 4 0 0 0 0-8 4 4 0 0 0 0 8ZM1167 1153a4 4 0 1 0 0-8 4 4 0 0 0 0 8ZM1190 1133a4 4 0 1 0 0-8 4 4 0 0 0 0 8ZM1872 374a4 4 0 1 0 0-7 4 4 0 0 0 0 7ZM1390 1878a4 4 0 1 0 0-8 4 4 0 0 0 0 8Z" opacity=".1"/><path fill="#431426" d="M1473 1206a4 4 0 0 1-4-2 4 4 0 0 1 0-3 4 4 0 0 1 1-3c17-12 21-36 19-52-1-10-4-15-5-16l-1 1c-14 18-49 17-51 17a4 4 0 0 1-4-3v-2a4 4 0 0 1 2-3 4 4 0 0 1 3-1s32 1 43-13a9 9 0 0 1 10-4c6 1 9 11 11 17 4 21-1 51-21 66l-3 1ZM1476 1264c-15 0-31-9-42-25a7 7 0 0 0-5-3c-8-1-18 8-21 12l-3 1a4 4 0 0 1-3-7c1-2 15-16 27-15a16 16 0 0 1 12 7c10 15 24 22 38 21s27-11 35-28l3-2a4 4 0 0 1 5 6c-10 20-25 32-43 33h-3ZM1372 1067a12 12 0 0 1-11-18c9-18 37-48 75-36a12 12 0 0 1-7 24c-29-9-46 23-46 23a12 12 0 0 1-11 7Z"/><path fill="#FFD073" d="M1391 1131a163 163 0 1 1-326 0 163 163 0 0 1 326 0Z"/><path fill="#FFFAF4" d="M1278 1090a12 12 0 0 1 2 13l-90 187c-8-2-16-4-24-8l79-161-59 22a12 12 0 0 1-15-18l97-152 24 8-80 126 53-21a12 12 0 0 1 13 4Z"/><path fill="#431426" d="M1228 1299a166 166 0 0 1-63-13 167 167 0 1 1 63 13Zm0-326a159 159 0 1 0 1 317 159 159 0 0 0-1-317Z"/><path fill="#FFD073" d="M1748 963a163 163 0 1 1-326 0 163 163 0 0 1 326 0Z"/><path fill="#FFFAF4" d="M1635 921a12 12 0 0 1 2 14l-90 186-24-7 78-162-58 22a12 12 0 0 1-15-18l96-151c9 2 17 4 24 8l-79 125 52-20a12 12 0 0 1 14 3Z"/><path fill="#431426" d="M1585 1130a166 166 0 0 1-151-95 167 167 0 1 1 151 95Zm0-326a158 158 0 1 0 0 316 158 158 0 0 0 0-316Z"/><path fill="#BE6956" d="M930 1209s-2 13-51 14c-55 1 12 160 76 134 25-10 7-35 35-47l-60-101Z"/><path fill="#431426" d="M930 1209s-2 13-51 14c-55 1 12 160 76 134 25-10 7-35 35-47l-60-101Z" opacity=".1"/><path fill="#431426" d="M941 1365c-15 0-30-8-44-22-30-30-50-84-40-109a23 23 0 0 1 22-15c40-1 46-10 47-11a4 4 0 0 1 5-3 4 4 0 0 1 3 5c-1 4-7 17-55 18a14 14 0 0 0-14 9c-9 22 10 72 38 100 12 12 30 24 50 16 10-4 12-10 14-19s5-21 21-28a4 4 0 0 1 4 8c-13 6-15 13-17 22s-5 20-19 25c-5 2-10 4-15 4Z"/><path fill="#FFEAB9" d="m985 1604-5-1c-137-30-208-75-218-139-16-104 142-198 161-209a25 25 0 1 1 24 43c-38 22-146 99-136 158 6 40 70 75 179 99a25 25 0 0 1-5 49Z"/><path fill="#431426" d="m985 1608-6-1c-138-30-211-77-221-143-17-106 144-202 162-213a29 29 0 0 1 33 2 29 29 0 0 1-4 48c-47 28-142 102-134 154 6 39 69 73 176 96a29 29 0 0 1 12 50c-5 5-11 7-18 7Zm-50-352c-4 0-7 1-10 3-18 10-174 104-159 204 10 62 80 107 215 136h4a20 20 0 0 0 5-40c-112-24-177-61-184-102-9-62 97-139 139-163a20 20 0 0 0-5-37l-5-1Z"/><path fill="#BE6956" d="M938 1320c-15-95-46-71-46-59l63-58 46 82-63 35Z"/><path fill="#431426" d="M938 1320c-15-95-46-71-46-59l63-58 46 82-63 35Z" opacity=".1"/><path fill="#431426" d="M938 1324a4 4 0 0 1-5-3c-8-51-21-68-30-67a8 8 0 0 0-7 6 4 4 0 0 1-4 5 4 4 0 0 1-3-1 4 4 0 0 1-1-3 17 17 0 0 1 15-16c10-1 28 8 39 74a4 4 0 0 1-4 5Z"/><path fill="#FFFAF4" d="M981 1619s48 95 128 106c80 10 114-31 102-63 0 0 50-34 37-62-8-15-26-7-26-7s43-42 22-71c-14-20-48 19-48 19s28-36 5-52c-24-17-45 38-87 40-41 2-48-17-37-46s9-46-8-51c-29-9-41 20-42 44-2 24-2 56-26 59 0 0-4-34-25-21-20 13-2 36-9 52s-32 40-21 55c18 25 35-2 35-2Z"/><path fill="#431426" d="m1133 1731-25-2c-70-9-115-81-127-102-4 4-10 9-18 9s-14-4-20-12c-10-13 1-30 11-44l9-16c2-5 1-11 0-18-2-12-4-26 11-35 8-5 14-4 17-2 8 3 12 14 13 21 14-5 16-24 18-49v-5c1-10 4-34 20-45 8-5 17-7 28-3a24 24 0 0 1 15 12c5 9 4 24-4 45-6 14-6 24-2 30 5 7 17 10 35 9s33-13 46-24c15-13 28-25 44-14a24 24 0 0 1 10 17c1 6 0 12-2 18 7-5 15-9 22-9a17 17 0 0 1 14 8c16 23-2 52-15 66a20 20 0 0 1 18 12c14 27-25 58-36 66a43 43 0 0 1-8 39c-14 18-41 28-74 28Zm-152-117h1l2 1 1 2c1 1 48 94 125 104 59 7 83-14 90-24a34 34 0 0 0 7-34 4 4 0 0 1 1-5c13-9 46-36 36-56-6-11-19-6-20-5h-3a4 4 0 0 1-2-7c0-1 40-40 22-65a8 8 0 0 0-7-4c-11-1-29 16-35 23a4 4 0 0 1-6 0l-1-2 1-4s15-19 13-34a15 15 0 0 0-7-11c-9-6-18 0-33 13-13 12-30 26-52 27-21 1-34-3-41-13-7-9-7-22 0-39s9-30 5-38a15 15 0 0 0-10-7c-8-3-15-2-21 2-8 6-15 20-16 38v5c-2 23-4 55-30 58h-1a4 4 0 0 1-3-2v-2c-1-4-4-16-9-19-1 0-4-1-9 2-10 6-9 14-7 26 1 8 2 16-1 24l-10 17c-8 12-17 25-11 34 4 5 9 9 13 8 8 0 15-11 15-11a4 4 0 0 1 3-2Z"/><path fill="#431426" d="M981 1623a4 4 0 0 1-3-2c-1-1-6-13-1-32a4 4 0 0 1 2-3 4 4 0 0 1 4 0 4 4 0 0 1 3 3v2c-5 16-1 26-1 26a4 4 0 0 1-2 5l-2 1ZM993 1545a4 4 0 0 1-3-1 4 4 0 0 1 0-5c2-3 5-6 9-8a4 4 0 0 1 3 0h2a4 4 0 0 1-1 8l-6 4a4 4 0 0 1-4 2ZM1135 1685a217 217 0 0 1-24-2l-2-1v-1l-1-2 1-2 1-1 1-1h2a145 145 0 0 0 97-17 4 4 0 0 1 3 0 4 4 0 0 1 2 4 4 4 0 0 1-2 3c-1 1-28 20-78 20ZM1122 1641a4 4 0 0 1-4-7l3-1c67-13 98-43 98-43a4 4 0 0 1 7 1 4 4 0 0 1-1 5 204 204 0 0 1-103 45ZM1110 1594a4 4 0 0 1-3-7l3-1c56-9 82-47 82-47a4 4 0 0 1 6-2 4 4 0 0 1 2 6c-1 2-29 42-89 51h-1Z"/></svg>
