<svg xmlns="http://www.w3.org/2000/svg" width="3000" height="3000" fill="none"><path fill="#FFEAB9" d="M1572.5 2229.1c-4.4 0-8.6-1.4-12.1-4-2.2-1.6-52.5-39.3-103.8-87-73.1-67.6-108.6-118.8-108.6-156 0-93 132.7-146.4 138.4-148.6a20.3 20.3 0 1 1 15 37.8c-31.4 12.5-112.8 56.6-112.8 110.9 0 44.1 114.7 149.6 196 210.4a20.3 20.3 0 0 1-12.1 36.6Z"/><path fill="#431426" d="M1572.5 2233.2c-5.3 0-10.4-1.7-14.6-4.9-2-1.5-52.6-39.4-104-87.2-74-68.6-110-120.6-110-159 0-95.8 135.4-150.2 141-152.4a24.4 24.4 0 1 1 18 45.3c-30.7 12.2-110.2 55-110.2 107.1 0 38.3 100.9 137.4 194.4 207.2a24.3 24.3 0 0 1-14.6 43.9ZM1494 1836c-2 0-4 .4-6 1.1-5.5 2.2-135.9 54.6-135.9 144.9 0 36 35.2 86 107.4 153 51 47.6 101.3 85.2 103.4 86.7a16.2 16.2 0 0 0 19.4-26c-76.4-57-197.6-165.6-197.6-213.7 0-56.6 83.2-102 115.2-114.6a16.2 16.2 0 0 0-6-31.4Z"/><path fill="#FF89A4" d="M1611.3 2356.3h-342.5c3.3-32.5 16.3-99.2 60.6-120a94.8 94.8 0 0 1 75.8-1.3l29.8-22.4 5.2-3.9 23.2-17.5 22.8-17.2s-31.1-23.8-15.1-23.4c21.3.5 61.9 56.8 61.9 56.8s15.7 7.2 31-.2c6.5-3.2 14.2-12 14.9-19l-16-13.5c7.1-4.5 16-20 32.6 2.9 10.5 14.3 12 45.1 13.4 83.1l.5 14.3c0 2 0 4 .3 6l.3 10.1v6.8c.3 8 .5 37.4.7 44.7l.1 5.1c.2 1.7 0 2.7.2 4.2l.3 4.4Z"/><path fill="#431426" d="M1611.3 2360.4h-342.5a4 4 0 0 1-3.9-2.8c-.1-.5-.2-1.1-.1-1.7 3-29.6 15.1-100.8 62.9-123.3a98.2 98.2 0 0 1 77-2.2l74.9-56.4c-12.9-10.4-18.5-18.2-16.8-23 .7-2.1 2.7-4.6 8.3-4.4 22 .5 61.2 48.7 67.6 56.6a25.3 25.3 0 0 0 23.5.5c5.6-3 10-7.8 12.2-13.7l-15.8-12.3a4 4 0 0 1 .3-6.6l2-1.4c7.5-5 23-15.5 38 5.4 10.8 15.2 12.6 44.8 14.1 85v.4l.5 14.3c0 2 0 4 .3 6v.3c0 3.3.2 6.6.3 9.8l.2 6.8c.2 4.9.3 17.5.5 28.5l.2 16.3.1 5.1c.2 1.6 0 2.9.2 4.2v4.4a4 4 0 0 1-1.2 3 4 4 0 0 1-2.8 1.2Zm-338-8.1h333.9V2347.7c0-1.6 0-3.2-.2-4.9 0-3 0-9.4-.2-16.5l-.4-28.4-.3-6.8-.3-9.8v-.3l-.2-6-.5-13.8v-.6c-1.4-37.6-3.2-67.5-12.6-80.8-9.5-13.4-17.2-9.7-24.2-5.2l13.3 10.3a4 4 0 0 1 1.5 3.6c-.8 9.1-9.5 18.7-17.1 22.4a33.3 33.3 0 0 1-32-1.4c-.4-.3-.8-.5-1-.9-11.7-14.7-45.1-52.8-61.3-54 5.1 6 10.9 11.5 17.2 16.1a4 4 0 0 1 1.6 3.3 4 4 0 0 1-1.6 3.2l-81 61a4 4 0 0 1-2 .9 4 4 0 0 1-2.2-.4 91.6 91.6 0 0 0-72.3 1.2c-42.8 20-55 86.3-58 112.4Z"/><path fill="#FFFAF4" d="M1467.8 2356.3h-199c3.3-32.4 16.3-99.2 60.6-120a94.6 94.6 0 0 1 75.8-1.3s31 13 54.2 68.8c4 9.8 6.7 42 8.4 52.5Z"/><path fill="#431426" d="M1467.8 2360.4h-199a4 4 0 0 1-3.9-2.8c-.1-.5-.2-1.1-.1-1.7 3-29.6 15.1-100.8 62.9-123.3a98.1 98.1 0 0 1 79.1-1.3c5 1.6 39.8 15 56.4 71.4 4.6 14.2 7.3 29 7.9 44 0 3 .3 6 .7 9a4 4 0 0 1 0 1.7 4 4 0 0 1-4 3Zm-194.5-8.1h190c0-1.7-.3-3.4-.4-5.2-.5-14.3-3-28.5-7.5-42.1-16.2-54.9-51-66-51.4-66l-1-.4a91.5 91.5 0 0 0-72 1.3c-42.4 20-54.5 86.3-57.7 112.4ZM1499.9 2225c-.7 0-1.3-.1-2-.4-34.4-18.2-38.2-30.4-38.6-32.7a4 4 0 0 1 3.3-4.6c1-.2 2 0 3 .6a4 4 0 0 1 1.7 2.4c.2.5 3.9 10.9 34.5 27.1a4 4 0 0 1 2 4.6 4 4 0 0 1-1.4 2.2c-.7.6-1.6.9-2.5.9ZM1475 2248.2c-.8 0-1.4-.2-2-.5a153.9 153.9 0 0 1-41.1-32.5 4 4 0 0 1-1-3 4 4 0 0 1 4.4-3.7c.5 0 1 .2 1.5.4.5.3 1 .6 1.3 1a148.5 148.5 0 0 0 38.8 30.6 4 4 0 0 1 1.6 5.4 4.2 4.2 0 0 1-3.6 2.3Z"/><path fill="#FFFAF4" d="M1611.3 2356.3h-65c3.1-10.4 7-41 11.4-49a101.5 101.5 0 0 1 51-46.6h.2l.5 14.3c0 2 0 4 .2 6 0 3.3.3 6.7.4 10v6.8c.3 8 .5 37.4.7 44.8l.1 5 .1 4.3c.2 1.4.4 3 .4 4.4Z"/><path fill="#431426" d="M1611.3 2360.4h-65.7a4 4 0 0 1-4-3.4c-2.2-13.3 1.7-29.8 12.5-51.4a101 101 0 0 1 52.6-48.5l.5-.2.4-.2a4 4 0 0 1 3.7.6c.5.4 1 .9 1.3 1.5.2.5.4 1 .4 1.6l.5 14.3c0 2 0 4 .3 6v.3c0 3.3.2 6.6.3 9.8l.2 6.9c.2 4.8.3 17.4.5 28.5l.2 16.2.1 5.1c.2 1.6 0 2.9.2 4.2v4.5a4 4 0 0 1-1.2 2.9c-.3.4-.8.7-1.3 1-.4.2-1 .3-1.5.3Zm-62-8.1h57.9V2347.7c0-1.6 0-3.2-.2-4.9 0-3 0-9.4-.2-16.5l-.4-28.4-.3-6.8-.3-9.8v-.3l-.2-6-.3-8.4a92.6 92.6 0 0 0-43.8 42.6c-9.1 18.2-13 32-12.2 43ZM1503.1 2236.9a14 14 0 1 1 0-28.2 14 14 0 0 1 0 28.2Zm0-20a6 6 0 0 0-5.6 4 5.8 5.8 0 0 0 .4 4.6 5.9 5.9 0 0 0 5.7 3.2 5.8 5.8 0 0 0 4-2.1 5.8 5.8 0 0 0 1.5-4.3 6 6 0 0 0-2.1-4 5.7 5.7 0 0 0-3.9-1.5ZM1478.7 2260.7a14.1 14.1 0 0 1-9.4-24.8 14.2 14.2 0 0 1 14.5-2.4 14.1 14.1 0 0 1-5.1 27.2Zm0-20a5.8 5.8 0 0 0-4.5 2c-.5.7-1 1.4-1.2 2a6 6 0 0 0 .4 4.6 6 6 0 0 0 3.5 3 6 6 0 0 0 4.5-.4 6 6 0 0 0-2.7-11.3ZM1534.3 2227.5h-.5c-.5 0-1-.2-1.5-.4a4 4 0 0 1-2-2.4l-.1-1.6 1.7-17.4a4 4 0 0 1 1.4-2.7 4.2 4.2 0 0 1 3-1 4.2 4.2 0 0 1 2.8 1.5l.7 1.4c.2.5.3 1 .2 1.6l-1.7 17.4a4 4 0 0 1-4 3.7Z"/><path fill="#FFFAF4" d="M1611.3 2356.3h-342.5v37h342.5v-37Z"/><path fill="#431426" d="M1611.3 2397.4h-342.5a4 4 0 0 1-4-4v-37a4 4 0 0 1 4-4.1h342.5a4 4 0 0 1 4 4v37a4 4 0 0 1-4 4Zm-338.4-8.1h334.4v-28.9h-334.4v28.9Z"/><path fill="#431426" d="M1611.3 2378.9h-17.6a4 4 0 0 1 0-8.1h17.6a4 4 0 0 1 0 8.1Zm-44.7 0h-27a4 4 0 0 1 0-8.1h27a4.1 4.1 0 0 1 4.1 4 4 4 0 0 1-4 4.1Zm-54.1 0h-27a4 4 0 0 1-3-7 4 4 0 0 1 3-1.1h27a4 4 0 0 1 0 8.1Zm-54.2 0h-27a4 4 0 0 1 0-8.1h27a4 4 0 0 1 0 8.1Zm-54.1 0h-27a4 4 0 0 1 0-8.1h27a4 4 0 0 1 2.9 7 4 4 0 0 1-3 1.1Zm-54.2 0h-27a4.1 4.1 0 0 1-4.1-4 4 4 0 0 1 4-4.1h27.1a4 4 0 0 1 0 8.1Zm-54.1 0h-27.1a4 4 0 0 1-2.9-7 4 4 0 0 1 2.9-1.1h27a4 4 0 0 1 0 8.1Z"/><path fill="#FFEAB9" d="M971.6 1232.5a23 23 0 0 1-9.8-43.9c260.4-122.4 473.2-100.1 482.2-99.1a23 23 0 0 1-5.2 45.8c-2.5-.3-209.7-21.5-457.5 95a23 23 0 0 1-9.7 2.2Z"/><path fill="#431426" d="M971.6 1236.5a27 27 0 0 1-11.5-51.5c261.6-123 475.5-100.5 484.4-99.5a27.2 27.2 0 0 1 21.6 40.5 27.1 27.1 0 0 1-27.8 13.3c-2-.3-208.5-21.4-455.3 94.8a27.1 27.1 0 0 1-11.4 2.4Zm420.7-145.2c-79.3 0-241.5 13-428.8 101a19 19 0 1 0 16.2 34.3c248.8-117 457.6-95.7 459.6-95.4a19 19 0 0 0 4.3-37.5c-17-1.7-34.2-2.5-51.3-2.4Z"/><path fill="#9CC" d="m2355 832.4-67.8 248.1-216.8 793.6-367.8 95.5-466.1-219.4 207-816.9 64-252.4 290-217.1L1830 369 2232.3 479l-32.5 101 155.1 252.4Z"/><path fill="#431426" d="M1702.6 1973.7c-.6 0-1.2-.2-1.7-.4l-466.1-219.5a4 4 0 0 1-2.2-4.6l271-1069.3a4 4 0 0 1 1.5-2.2L1794 461.3l32.2-93.5a4 4 0 0 1 4.9-2.7L2233.4 475a4 4 0 0 1 2.7 5.1l-32 99.2 154.2 250.9a4 4 0 0 1 .5 3.1l-284.4 1041.9a4.2 4.2 0 0 1-3 2.9l-367.8 95.6h-1Zm-461.3-225.8 461.7 217.4 364.1-94.5L2350.6 833l-154.4-251a4 4 0 0 1-.4-3.3l31.3-97-394.5-107.6-31.3 91a4 4 0 0 1-1.5 2l-288.7 216.2L1241.3 1748Z"/><path fill="#431426" d="M1702.6 1973.7h-1a4.1 4.1 0 0 1-3-5l300.6-1123.9c.1-.5.4-1 .7-1.4l193-261-396.7-114.6a4 4 0 1 1 2.3-7.8L2200.9 576a4 4 0 0 1 2.7 2.6 4 4 0 0 1-.6 3.8l-196.1 265.3-300.4 1122.9a4 4 0 0 1-4 3Z"/><path fill="#431426" d="M2003.2 850a4 4 0 0 1-1.3-.2l-495.7-165a4 4 0 1 1 2.7-7.7l494.9 164.7 351-13.5a4 4 0 0 1 .3 8.1L2003.4 850h-.2Z"/><path fill="#431426" d="m2199.8 580-196.6 265.8-300.6 1123.8 367.8-95.5L2355 832.4 2199.8 580Z" opacity=".1"/><path fill="#FFFAF4" d="M2283.8 1092.8 2070.4 1874l-367.8 95.5-466.1-219.4 207-816.9s48.1-19.7 64-15.3c22 6 43.6 56.5 65.3 63.3 21.8 6.8 68.1-23.2 89.2-15 19.6 7.8 31.7 59.3 51.4 67 22 8.8 71.6-24 93.8-15.4 21.2 8 34.6 65.4 56.6 71.2 22 5.9 61-36 83.2-33.3 22.3 2.7 50.4 50.5 72.6 51.4 24 1 59-49.2 83.1-48.4 16.9.6 39 37.4 55.8 38 23.2.7 52.6-39.6 75.8-39.2 14.4.3 49.5 35.2 49.5 35.2Z"/><path fill="#431426" d="M1702.6 1973.7c-.6 0-1.2-.2-1.7-.4l-466.1-219.5a4 4 0 0 1-2.2-4.6l207-816.9a4 4 0 0 1 .9-1.6 4 4 0 0 1 1.5-1c5-2.1 49.9-20.2 66.6-15.6 12.4 3.4 23.5 18 35.2 33.3 10.2 13.3 20.7 27.1 30.2 30 9.5 3 25.4-2.4 41-7.6 18.7-6.1 36.3-12 48.4-7.2 11.2 4.4 19.2 19.5 27.8 35.4 7.4 14 15.1 28.3 23.5 31.7 9.8 3.8 27.3-2.1 44.3-7.9 19-6.4 37-12.4 49.5-7.7 11.7 4.6 20.3 20.3 29.4 37 8.4 15.6 17.2 31.6 26.8 34.2 9.7 2.5 25-7 40-16.3 15.8-9.6 30.6-18.7 42.8-17.3 12 1.4 24.6 13.7 37.7 26.7 12.2 12 24.7 24.4 34.5 24.8 10.5.6 25-11.6 38.9-23.2 15.8-13.2 30.7-25.7 44.2-25.2 10 .4 20 10 30.5 20 8.6 8.3 18.3 17.7 25.2 17.9 10.3.4 23.1-9.4 35.5-18.8 13.6-10 27.3-20.5 40.3-20.3 15.6.3 48.7 32.5 52.3 36.3.5.5.9 1.1 1 1.8.3.7.3 1.4 0 2.1l-213.2 781.4a4 4 0 0 1-3 2.8l-367.8 95.7h-1Zm-461.3-225.8 461.7 217.4 364.1-94.5 212.2-776.8c-13.6-13-36.1-32.2-45-32.3-10.2-.2-23 9.4-35.3 18.7-13.5 10.3-27.6 20.8-40.6 20.4-10-.3-20-9.9-30.6-20-8.6-8.2-18.3-17.6-25.2-17.9-10.2-.3-24.7 11.7-38.6 23.3-15.9 13.2-30.8 25.8-44.5 25.1-13-.6-26-13.5-39.8-27-11.6-11.5-23.6-23.3-33-24.4-9.5-1-23.7 7.7-37.5 16.2-17.2 10.6-33.5 20.6-46.4 17.1-13-3.4-22.2-20.3-31.9-38-8.1-14.8-16.2-29.9-25.1-33.4-9.7-3.7-27.1 2.2-44 7.9-19.3 6.4-37.4 12.5-49.9 7.6-11.2-4.4-19.2-19.5-27.7-35.3-7.5-14-15.2-28.4-23.7-31.7-9.3-3.7-26.3 1.9-42.7 7.3-17.7 5.9-34.3 11.4-46 7.7-11.8-3.7-22.8-17.8-34.3-32.8-10.4-13.7-21.2-27.8-31-30.5-11.4-3-45.1 8.8-59.5 14.5L1241.3 1748Z"/><path fill="#431426" d="M2038.8 1850.2a2.4 2.4 0 1 0 0-4.7 2.4 2.4 0 0 0 0 4.7ZM2047.9 1614.4a2.4 2.4 0 1 0 0-4.8 2.4 2.4 0 0 0 0 4.8ZM2097.6 1653.4a2.4 2.4 0 1 0 0-4.8 2.4 2.4 0 0 0 0 4.8ZM2014.3 1808.6a2.4 2.4 0 1 0 0-4.7 2.4 2.4 0 0 0 0 4.7ZM2192.4 1272.6a2.4 2.4 0 1 0 0-4.8 2.4 2.4 0 0 0 0 4.8ZM2132.8 1180.8a2.4 2.4 0 1 0 0-4.8 2.4 2.4 0 0 0 0 4.8ZM2241.4 1063.8c1.3 0 2.3-1 2.3-2.4a2.4 2.4 0 1 0-2.3 2.4ZM2279.6 924.6a2.4 2.4 0 1 0 0-4.8 2.4 2.4 0 0 0 0 4.8ZM2327 878a2.4 2.4 0 1 0 0-4.8 2.4 2.4 0 0 0 0 4.7ZM2208.5 963.6a2.4 2.4 0 1 0 0-4.8 2.4 2.4 0 0 0 0 4.8ZM2259 1035.5a2.4 2.4 0 1 0 0-4.8 2.4 2.4 0 0 0 0 4.8ZM2188.6 711.2a2.4 2.4 0 1 0 0-4.7 2.4 2.4 0 1 0 0 4.7ZM2249.8 736.5a2.4 2.4 0 1 0 0-4.8 2.4 2.4 0 0 0 0 4.8ZM2307.9 800a2.4 2.4 0 1 0 0-4.8 2.4 2.4 0 0 0 0 4.8ZM2293.4 854.3a2.4 2.4 0 1 0 0-4.8 2.4 2.4 0 0 0 0 4.8ZM1702.6 1973.7h-1a4 4 0 0 1-1.5-.8 4 4 0 0 1-1.5-2.7v-1.5l300.6-1123.9a4 4 0 0 1 5-2.9 4 4 0 0 1 2.9 5l-300.6 1123.9a4 4 0 0 1-3.9 2.9ZM649.6 1419.5a4 4 0 0 1-3.7-2.5c-9-22-1.8-28.4 15.9-44l4.6-4c15.9-14.1 9.8-39.3 3.3-66-1.3-5.3-2.7-10.7-3.9-16.3-8.4-39.5 41.7-85 43.8-87a4 4 0 0 1 5.2-.2 4 4 0 0 1 1.2 5c-.2.5-20.2 42.2-19.1 75 .4 11.5 8 21 15.2 30.4 9.2 11.6 18.7 23.6 13.6 39.1-7.8 23.8-9.7 42.7 6.2 57.4a4.1 4.1 0 0 1 1.7 2.9 4 4 0 0 1-7.1 3c-20.2-18.6-16-42.6-8.5-65.8 3.7-11.3-3.7-20.7-12.3-31.6-7.7-9.8-16.5-21-17-35a169 169 0 0 1 11.6-58.7c-13.7 16-31.3 41.7-26.6 63.8l3.8 16.2c6.8 27.8 13.8 56.5-5.7 73.9l-4.7 4.1c-17.4 15.3-20.6 18-13.7 34.7a4 4 0 0 1-2.2 5.4c-.5.2-1 .2-1.6.2Z"/><path fill="#431426" d="m799.6 1379.6-1-.1a4 4 0 0 1-3-5c6.4-24.4-10.8-36.1-32.5-51-16.2-11.2-35-23.8-45.6-44.5-13-25-9.3-74.5-9.1-76.5a4 4 0 0 1 4.3-3.8 4 4 0 0 1 3.7 4.4c0 .5-3.7 49.3 8.1 72.2 9.8 18.8 26.7 30.3 43 41.5 22.5 15.4 43.7 29.8 36 59.8a4.1 4.1 0 0 1-4 3Z"/><path fill="#0BBFA4" d="M1800.8 2394.6h-644v45.6h644v-45.6ZM1061.3 1356.3h-27v328.9h27v-328.9Z"/><path fill="#431426" d="M1061.3 1689.3h-27a4 4 0 0 1-4-4v-329a4 4 0 0 1 4-4h27a4 4 0 0 1 4 4v328.9c0 .5 0 1-.2 1.5s-.5 1-.9 1.4a4 4 0 0 1-3 1.2Zm-22.9-8h18.8v-321h-18.8v321Z"/><path fill="#96C" d="M1074.6 1603.4H1021v829.1h53.6v-829Z"/><path fill="#431426" d="M1074.7 2436.7H1021a4 4 0 0 1-2.9-1.2 4 4 0 0 1-1.2-3v-829a4 4 0 0 1 4-4h53.8a4 4 0 0 1 4 4v829a4 4 0 0 1-2.5 3.8 4 4 0 0 1-1.5.3Zm-49.6-8.2h45.5v-821h-45.5v821ZM1800.8 2444.2h-644a4 4 0 0 1-4.2-4v-45.6a4 4 0 0 1 4.1-4h644.1a4 4 0 0 1 4 4v45.6a4 4 0 0 1-4 4Zm-640-8h636v-37.4h-636v37.3Z"/><path fill="#96C" d="m1907 2394.6-17-51.5 369.2-120a8 8 0 0 1 9.8 4.7 8.1 8.1 0 0 1-3.8 10.3l-358.1 156.5Z"/><path fill="#431426" d="M1907 2398.8c-.5 0-1-.2-1.6-.4a4.3 4.3 0 0 1-2.2-2.4l-17-51.5a4 4 0 0 1 1.3-4.4c.4-.3.9-.6 1.4-.7l369-120a12.1 12.1 0 0 1 15 7 12.3 12.3 0 0 1-5.8 15.5l-358.3 156.5c-.5.2-1.1.3-1.7.3Zm-11.8-53 14.3 43.4 354.1-154.8c.5-.2.9-.5 1.2-.9a3.7 3.7 0 0 0 .6-4.2c-.1-.5-.4-1-.8-1.3a3.8 3.8 0 0 0-4.2-1l-365.2 118.9Z"/><path fill="#96C" d="M1933.3 2368.3h-47.9v66.5h48v-66.5Z"/><path fill="#431426" d="M1933.3 2438.8h-47.9a4 4 0 0 1-4-4v-66.5a4.1 4.1 0 0 1 4-4h48c1 0 2 .3 2.8 1.1a4 4 0 0 1 1.2 2.9v66.5a4 4 0 0 1-4 4Zm-43.8-8h39.8v-58.5h-39.8v58.4Z"/><path fill="#431426" d="M1909.3 2630.5a108.5 108.5 0 1 0 0-217 108.5 108.5 0 0 0 0 217Z"/><path fill="#431426" d="M1909.4 2634.6a112.6 112.6 0 1 1 0-225.3 112.6 112.6 0 0 1 0 225.3Zm0-217.1a104.4 104.4 0 1 0 0 208.8 104.4 104.4 0 0 0 0-208.8Z"/><path fill="#96C" d="M2085.7 2519.2h-54.1a122 122 0 0 0-209.3-87.5 122.3 122.3 0 0 0-35.1 87.5H1733a176.3 176.3 0 0 1 352.7 0Z"/><path fill="#431426" d="M2085.7 2523.3h-54.1a4.1 4.1 0 0 1-4.1-4 118 118 0 1 0-236.3 0 4 4 0 0 1-4 4H1733a4 4 0 0 1-4-4 180.4 180.4 0 0 1 360.8 0 4 4 0 0 1-4.1 4Zm-50.2-8.1h46a172.3 172.3 0 0 0-344.4 0h46a126.2 126.2 0 0 1 252.4 0Z"/><path fill="#FFFAF4" d="M1909.3 2599.3a77.3 77.3 0 1 0 0-154.7 77.3 77.3 0 0 0 0 154.7Z"/><path fill="#431426" d="M1909.4 2603.3a81.4 81.4 0 1 1-.3-162.8 81.4 81.4 0 0 1 .3 162.8Zm0-154.6a73.3 73.3 0 1 0-.3 146.6 73.3 73.3 0 0 0 .3-146.6Z"/><path fill="#431426" d="M1909.3 2541.3a19.3 19.3 0 1 0 0-38.7 19.3 19.3 0 0 0 0 38.7ZM1043.4 2630.5a108.5 108.5 0 1 0 0-217 108.5 108.5 0 0 0 0 217Z"/><path fill="#431426" d="M1043.5 2634.6a112.7 112.7 0 1 1 0-225.4 112.7 112.7 0 0 1 0 225.4Zm0-217.1a104.4 104.4 0 1 0-.2 208.9 104.4 104.4 0 0 0 .2-209Z"/><path fill="#96C" d="M1222.3 2522H1168a124.5 124.5 0 0 0-211.8-89.2l-37.9-38.7a178.7 178.7 0 0 1 303.8 127.8Z"/><path fill="#431426" d="M1222.3 2526H1168a4 4 0 0 1-2.9-1.2 4.1 4.1 0 0 1-1.2-2.9 120.6 120.6 0 0 0-205-86.2 4 4 0 0 1-5.7 0l-37.9-38.8a4 4 0 0 1-.9-4.4c.2-.5.5-1 .9-1.3a182.9 182.9 0 0 1 311 130.7c0 1.1-.5 2.2-1.3 3a4 4 0 0 1-2.8 1.1Zm-50.2-8.1h46A174.7 174.7 0 0 0 924.2 2394l32.1 33a128.8 128.8 0 0 1 215.8 90.8Z"/><path fill="#FFFAF4" d="M1043.4 2599.3a77.3 77.3 0 1 0 0-154.7 77.3 77.3 0 0 0 0 154.7Z"/><path fill="#431426" d="M1043.4 2603.3a81.4 81.4 0 1 1 0-162.8 81.4 81.4 0 0 1 0 162.8Zm0-154.6a73.3 73.3 0 1 0 0 146.6 73.3 73.3 0 0 0 0-146.6Z"/><path fill="#431426" d="M1043.4 2541.3a19.3 19.3 0 1 0 0-38.7 19.3 19.3 0 0 0 0 38.7Z"/><path fill="#0BBFA4" d="M1375.1 1534.3c-2 0-4.1-.5-6-1.5l-632.5-314a13.6 13.6 0 0 1 12-24.4l632.6 314a13.5 13.5 0 0 1-6 25.7v.2Z"/><path fill="#431426" d="M1375.1 1538.3c-2.7 0-5.4-.6-7.8-1.8l-632.5-314.1a17.6 17.6 0 0 1-8-23.6 17.6 17.6 0 0 1 23.8-7.7l632.4 314.1a17.6 17.6 0 0 1-7.8 33.4v-.3Zm-632.4-341.1a9.5 9.5 0 0 0-4.2 18l632.4 314a9.5 9.5 0 0 0 8.5-17l-632.5-314c-1.3-.6-2.8-1-4.2-1Z"/><path fill="#A1EB9D" d="M1375.1 1547.8a27 27 0 0 1-12-2.8l-183.3-91a27.1 27.1 0 0 1 24-48.5l183.4 91a27 27 0 0 1-12 51.4ZM908.7 1316.3a27 27 0 0 1-12-2.8L718 1224.8a27 27 0 1 1 24-48.5l178.5 88.6a27 27 0 0 1-12 51.5v-.1Z"/><path fill="#431426" d="M1375.1 1551.9a31 31 0 0 1-13.8-3.3l-183.3-91a31.1 31.1 0 1 1 27.7-55.8l183.3 91a31.2 31.2 0 0 1-13.9 59ZM1192 1406.7a22.8 22.8 0 0 0-18.2 9 23 23 0 0 0 8 34.6l183.3 91a23.1 23.1 0 0 0 30.8-10.3 23.2 23.2 0 0 0-3.2-25.4c-2-2.3-4.4-4.1-7.1-5.5l-183.5-91a22.8 22.8 0 0 0-10.1-2.4ZM908.7 1320.3a31 31 0 0 1-13.9-3.2l-178.5-88.7a31.1 31.1 0 1 1 27.7-55.7l178.5 88.6a31.2 31.2 0 0 1-13.8 59Zm-178.5-142.7a23.3 23.3 0 0 0-18.2 9 23 23 0 0 0 8 34.6l178.4 88.6a22.7 22.7 0 0 0 24.6-2.5 23 23 0 0 0-4.1-38.7L740.4 1180a23 23 0 0 0-10.2-2.4ZM1074.7 1665.5H1021a4 4 0 0 1-2.9-1.2 4 4 0 0 1-1.2-2.8 4 4 0 0 1 4-4h53.8a4 4 0 0 1 0 8Z"/><path fill="#431426" d="m1463 1718.3-1.5-.3a4 4 0 0 1-1.3-.9 4 4 0 0 1-1.3-3c0-.5.1-1 .4-1.5 8-20.1-2-36.3-19.3-54.4-11.3-11.8-8-26.8-4.7-41.2 2.6-11.5 5.2-23.5.6-34-13.3-30-49.4-59-49.8-59.2a4 4 0 0 1 3.7-7.1c2.7.8 67.7 20 77.2 59.3a528 528 0 0 1 3.6 16.5c5.7 26.8 11.1 52 31.6 58l5.9 1.6c22.6 6.4 32 9 33.3 32.7a4 4 0 0 1-6.7 3.3 4 4 0 0 1-1.4-2.8c-1-18-5-19-27.4-25.4l-6-1.7c-25.2-7.1-31.3-36-37.2-64l-3.6-16.3c-5.4-22-32.4-37.5-51.7-46 12 11.7 27.7 29.3 36 47.8 5.6 12.9 2.6 26.7 0 39-3 13.5-5.7 25.1 2.6 33.8 16.9 17.6 31.1 37.4 21 63a4.1 4.1 0 0 1-4 2.8Z"/><path fill="#431426" d="M1385 1718.3c-.6 0-1.2-.2-1.7-.4a4 4 0 0 1-1.4-1c-20-23.7-7.2-45.9 6.4-69.4 9.9-17.2 20.1-35 20.8-56.1.8-25.9-23.7-68.2-24-68.6-.2-.5-.4-1-.4-1.5a4 4 0 0 1 2-4.1 4 4 0 0 1 3.1-.4 4 4 0 0 1 2.5 2c1 1.8 25.9 44.8 25 73-.8 23.1-12 42.6-21.9 59.8-13.2 22.8-23.5 40.8-7.2 60a4 4 0 0 1-.5 5.8 4 4 0 0 1-2.7.9Z"/><path fill="#FFEAB9" d="M2129.3 2306.9a23 23 0 0 1-26.2 17.4l-1.4-.3c-181.4-42.5-253-150.3-281-233.2a393 393 0 0 1-19.2-147l47.3-12.2c-5.2 48.7.1 98 15.5 144.4 33.1 98.2 108.7 164.5 224.8 197.2a504 504 0 0 0 23 6 23 23 0 0 1 17.3 27.7Z"/><path fill="#431426" d="M2107 2328.7c-1.6 0-3.1-.1-4.6-.4-.7 0-1.2-.2-1.6-.3-183.4-43-255.7-152-284-236a398.7 398.7 0 0 1-19.3-148.3 4 4 0 0 1 3-3.7l47.3-12.3a4 4 0 0 1 3.7 1 4.1 4.1 0 0 1 1.4 3.5c-5.2 48 0 96.7 15.3 142.6 32.5 96.8 107.3 162.3 222 194.6 7 2 14.4 3.9 22.8 5.8a27 27 0 0 1-6 53.5Zm-301.6-381.6c-2.4 48.3 4 96.5 19.1 142.4 27.7 82 98.5 188.5 278.1 230.7l1 .2a19 19 0 0 0 7.7-37.1c-8.6-2-16.2-4-23.2-6-117.5-33-194.1-100.3-227.6-199.8a348.6 348.6 0 0 1-16.3-140.3l-38.8 10Z"/><path fill="#FF89A4" d="M2080.2 2454a94.8 94.8 0 0 0-27 70.8c3 52.3 45 81.6 74.7 95.9h.3l3.7 1.7c8 3.7 16.2 6.8 24.7 9.3h.2s51-15.8 93.5-112.5a404.4 404.4 0 0 0 20.6-59.6 490.4 490.4 0 0 0 13.3-71.2v-.4a482.8 482.8 0 0 0 3.2-50.5 147.7 147.7 0 0 0-1-23.6v-.2l-.3-.2-.4-.3c-2.3-1.5-14-5.2-26.6-10l-2-.8-2.7-1-3.6-1.3-6.9-2.8-10.8-4a5095 5095 0 0 0-53.3-19.2c-35.8-12.9-50-18.5-67-23.8-15.4-4.7-30.5 12.5-29 20.9l26 8c1.7 7.3 3.3 9.5 3.8 16.8 1.2 17-11.3 28.9-11.3 28.9s-65-19.8-73.4-.2c-6.3 14.7 24.8 31 24.8 31l7.5 27.7 7.6 28 11.4 42.6Z"/><path fill="#431426" d="M2156.8 2636a5 5 0 0 1-1 0l-.5-.3c-8.6-2.4-17-5.6-25-9.3l-1-.5-2.8-1.3-.4-.2c-27.2-13.1-73.7-43.3-77-99.2a98.4 98.4 0 0 1 26.6-72.3l-25.5-94c-7.1-4.1-32-19.4-25-35.5 8.8-20.5 60.2-7.3 75.8-2.7a34.8 34.8 0 0 0 8.5-24c-.2-3.3-.9-6.7-2-9.9l-1-3.8-23.8-7.5c-.7-.2-1.3-.7-1.8-1.2-.4-.6-.8-1.2-.9-2-1-5.4 2.7-13 9.2-18.9 7.6-6.8 16.7-9.2 24.9-6.6a792 792 0 0 1 38.8 13.5l28 10.2h.4c20.3 7.2 38.2 13.7 53.4 19.3l6.3 2.4 4.4 1.6 7 2.7 2.4 1 1.2.4 2.5 1 .7.2 1.4.6 14 5c4.6 1.5 9 3.2 13.4 5.4l.4.3.5.4 1 1 .4 1 .1.5a139.8 139.8 0 0 1 1.2 25.1c-.1 16.9-1.2 33.7-3.1 50.4v.4l-1.3 10.6c-2.8 20.7-6.9 41.1-12.2 61.2a410.8 410.8 0 0 1-20.8 60c-42.8 97.3-93.9 114.1-96 114.8a4 4 0 0 1-1.4.1Zm-105.6-315.6c-9.5 0-16.7 1.8-18.6 6.2-3.6 8.5 13.9 21.1 23 26a3.9 3.9 0 0 1 2 2.5l26.5 97.8v.7a4.1 4.1 0 0 1-1.3 3.4c-.3.2-28.2 26.5-25.8 67.7 2.8 49 41 77.3 72.5 92.4l.4.2 2.6 1.1 1 .5a171 171 0 0 0 23 8.7c7.4-2.9 52.2-23.8 90-109.8 8.3-19 15.1-38.7 20.4-58.8a486.1 486.1 0 0 0 13.2-70.7h4l-3.7-.4c1.9-16.5 2.9-33 3-49.7v-.4c.2-7.1 0-14.2-.7-21.3-2-.9-6.7-2.5-10.8-4l-14.3-5.2-1.3-.6-.7-.2-2.7-1-1-.4-2.5-1-6.9-2.6-4.4-1.7-6.3-2.3-53-19.2h-.4c-11.4-4-20.6-7.5-28.4-10.3-16.8-6.1-27-9.8-38.4-13.4-7.8-2.4-14.6 2.8-17.2 5-2.9 2.4-5 5.6-6.3 9.2l23 7a4 4 0 0 1 2.7 3c.5 2.3 1 4 1.5 5.7 1.3 3.7 2 7.7 2.3 11.7a43.5 43.5 0 0 1-12.5 32 4.2 4.2 0 0 1-4 1 189.4 189.4 0 0 0-49.8-8.8Z"/><path fill="#FFFAF4" d="M2127.9 2620.8h.3l3.7 1.7a171 171 0 0 0 24.7 9.2h.2s51-15.7 93.5-112.4a404.2 404.2 0 0 0 20.6-59.6c-9.6-3.5-61.3-31-106.7-30.5-60.4.6-84 24.6-84 24.6a94.7 94.7 0 0 0-27 70.8c3 52.6 45 81.9 74.7 96.2Z"/><path fill="#431426" d="M2156.8 2636a5 5 0 0 1-1 0l-.5-.3c-8.6-2.4-17-5.6-25-9.3l-1-.5-2.8-1.3h-.3c-27.4-13.2-73.8-43.6-77-99.3a98 98 0 0 1 28.4-74l.1-.2c3.2-3 28-24.9 86.7-25.5 38.9-.4 82.1 19.2 100.6 27.5l7.6 3.3c.9.4 1.6 1 2 1.9.5.8.6 1.8.4 2.7a412 412 0 0 1-20.8 60c-42.8 97.3-93.9 114.1-96 114.8a4 4 0 0 1-1.4.1Zm-27-19 .4.2 2.5 1.1 1 .5a173 173 0 0 0 23.1 8.7c7.3-3 52.2-23.8 90-109.8 7.8-18 14.3-36.5 19.4-55.4l-4.6-2.1c-17.8-8.1-59.3-26.8-96.2-26.8h-1c-58 .6-81 23.2-81.3 23.4a91.6 91.6 0 0 0-26 67.7c3 49.1 41 77.3 72.5 92.5h.2ZM2062.2 2388l-1.8-.2a4 4 0 0 1-1.4-7.2 4 4 0 0 1 2.8-.8c.6 0 11.7.4 38-22 .8-.6 1.8-1 3-.9a4 4 0 0 1 3.6 4.4c0 1-.6 2-1.4 2.8-25 21.3-38 23.8-42.8 23.8ZM2070.5 2422.2c-1 0-2-.4-2.7-1a4 4 0 0 1-.9-5.2 4 4 0 0 1 2.3-1.8 148 148 0 0 0 42.8-24.6 4 4 0 0 1 5.2 6.3 154 154 0 0 1-46.7 26.3Z"/><path fill="#FFFAF4" d="M2284.1 2389.8c6.5-47.7 3.3-73.3 2.1-75.8-1.2-2.5-59-22.6-106.4-39.5 0 0-2.6 78.2 104.3 115.3Z"/><path fill="#431426" d="m2283 2393-1-.1c-102.5-30.6-106.2-117.4-106.3-118.3a4.2 4.2 0 0 1 1.9-3.5 4 4 0 0 1 3.6-.4l23.8 8.4c80 28.5 83.5 30.3 84.9 33.2 2 4.2 3.3 32-2.8 77.2a4 4 0 0 1-.5 1.7 4 4 0 0 1-3.5 1.9Zm-98.6-112.6c2.7 19.2 17 77.9 95.3 103.3 5.2-40.9 3.8-62.3 3-67.2-7.3-3.7-47.6-18-80.4-29.8l-17.9-6.3Z"/><path fill="#FFFAF4" d="M2127.9 2620.8h.3c9.2 4.1 18.7 7.8 28.4 11h.2s51-15.8 93.5-112.5a404.2 404.2 0 0 0 20.6-59.6 491 491 0 0 0 13.3-71.2v-.4a483 483 0 0 0 3.2-50.5 147.7 147.7 0 0 0-1-23.6v-.2l-.3-.3-.4-.2c-2.3-1.5-14-5.2-26.6-10a622.3 622.3 0 0 1-7.7 74.4 688 688 0 0 1-14.8 71c-9.5 35.5-22.9 71.3-41.5 100.1-30 45.7-54 63.4-67.2 72Z"/><path fill="#431426" d="M2156.8 2636a5 5 0 0 1-1 0l-.5-.3c-6-2-17.5-6-28.8-11l-.5-.3a4 4 0 0 1-.3-7c8.4-5.4 34-21.7 66-71 16.2-25 30-58.3 41-98.8a683.8 683.8 0 0 0 14.6-70.8v-.3c4-24 6.4-48.4 7.5-72.8a4.1 4.1 0 0 1 1.7-3.3 4.1 4.1 0 0 1 3.7-.5l14 5.1c4.7 1.4 9.1 3.2 13.4 5.3l.5.3.5.5c.3.3.7.6.9 1l.4 1 .2.5a139.9 139.9 0 0 1 1.2 25 485 485 0 0 1-3.1 50.5v.4l-1.3 10.6a496.9 496.9 0 0 1-12 61 410.8 410.8 0 0 1-20.7 60c-42.8 97.2-93.9 114-96 114.7a4 4 0 0 1-1.4.1Zm-20.4-16c8 3.3 15.7 6 20.3 7.6 7.6-3 52.3-24.2 90-109.8a400 400 0 0 0 20.3-58.9 488.2 488.2 0 0 0 13.2-70.6h4.1l-4-.4c2-16.5 3-33 3.2-49.7v-.4c.1-7-.1-14.2-.8-21.3-2-.9-6.7-2.5-10.8-4l-9-3.2a701.2 701.2 0 0 1-7.5 69.1c-3.7 24-8.6 47.8-14.8 71.2-11.2 41.3-25.3 75.3-42 101.2-27.3 41.7-50.1 60.6-62.2 69.2ZM2105.3 2372.7a14.1 14.1 0 0 1-14-12.8 14.1 14.1 0 1 1 15.4 12.8h-1.4Zm-6-13.5a5.9 5.9 0 0 0 4.2 5.2c.8.2 1.6.3 2.3.2a5.9 5.9 0 0 0 5.4-5.3 6 6 0 0 0-6.4-6.5 6 6 0 0 0-5.5 6.4ZM2118.3 2404.2a14 14 0 0 1-14-12.8 14.1 14.1 0 0 1 15.4-15.3 14 14 0 0 1-1.4 28Zm0-20h-.6a6 6 0 0 0-4 9.6 6 6 0 0 0 9.2 0 6 6 0 0 0 .6-6.5 5.8 5.8 0 0 0-5.2-3v-.2ZM2117.5 2334l-1.2-.1-15.3-4.8a4 4 0 0 1-1.4-.7 4 4 0 0 1-.6-5.9 4 4 0 0 1 1.2-1 4 4 0 0 1 3.2-.2l15.3 4.8a4 4 0 0 1-1.2 8Z"/><path fill="#431426" d="M2146.8 2629.2a4 4 0 0 1-3.8-5.7c.4-.8 1-1.5 1.8-2 3.5-1.9 9.8-6.3 19.8-16.4a4 4 0 0 1 3-1.4 4 4 0 0 1 3.7 5.7 106 106 0 0 1-22.6 19.2 4 4 0 0 1-2 .6Zm38.8-37.3c-1 0-2-.3-2.7-1a4.1 4.1 0 0 1-.5-5.7c5.4-6.3 10.8-13.3 16.8-21l1.2-1a4 4 0 0 1 5.3 6c-6 7.7-11.7 14.9-17 21.3a4 4 0 0 1-3 1.4Zm32.7-43a4 4 0 0 1-3.5-6.3 214.2 214.2 0 0 0 13.4-24.8l1.4-1a4 4 0 0 1 5.1 5.7c-3.8 8.4-8.1 16.6-13 24.4a4 4 0 0 1-3.3 2h-.1Zm22.9-49.1c-.5 0-1 0-1.3-.2a4 4 0 0 1-2.5-5.2 393 393 0 0 0 8.1-25.6c.3-1 1-1.9 2-2.4a4 4 0 0 1 5.8 4.7c-2.7 9.1-5.4 17.9-8.4 26-.2.8-.7 1.5-1.4 2a4 4 0 0 1-2.3.7Zm15.1-52h-.9c-1-.3-2-1-2.5-1.9a4 4 0 0 1-.5-3c2-8.5 3.8-17.3 5.6-26.4a4 4 0 0 1 1.7-2.6 4 4 0 0 1 3.1-.7 4.2 4.2 0 0 1 3.3 3.2v1.7c-1.8 9.1-3.7 18.1-5.7 26.6a4 4 0 0 1-4 3Zm10.5-53.3h-.6a4.2 4.2 0 0 1-2.7-1.6 4 4 0 0 1-.7-3c1.4-8.7 2.7-17.7 3.8-26.7a4 4 0 0 1 4.5-3.6 4 4 0 0 1 3.5 4.6c-1.1 9-2.4 18.1-3.8 27a4 4 0 0 1-4 3.3Zm6.8-53.8h-.4a4 4 0 0 1-3.5-2.8c-.2-.6-.2-1-.2-1.6a608 608 0 0 0 2-27c.1-1 .6-2 1.4-2.8a4 4 0 0 1 5.7.3 4 4 0 0 1 1 3s-.4 10.6-2 27.2a4 4 0 0 1-4.2 3.7h.2Z"/><path fill="#FFFAF4" d="M1015.3 1257.1c13.2-26.5-23.5-36.3-34.2-58.5-9.8-20.5-24.8-47.8-40.6-41.8a32.2 32.2 0 0 0-15.4 12.5s-73.2-43-140.8-5.8c-61.6 34-62.8 104.7-22.6 111.5 0 0 1.5 41.7 47.8 29.8 0 0 10.2 27.8 45.2 11.3 0 0 23 34.9 48.3-.6 0 0-16.3-19 5.5-37.6s27.3 11.1 27.3 11.1l42.9 20s17.4-20.4 15.7-46.9c-.2.1 13.4 9.8 20.9-5Z"/><path fill="#431426" d="M879 1335.6h-.4c-12-.2-21.2-9.5-25.2-14.3-11.8 4.9-22.2 5.5-31 2a31.4 31.4 0 0 1-15.1-13.6c-14.5 3-26.3 1.4-35-5.2a39.5 39.5 0 0 1-14.4-26c-14.2-3.7-24.1-15.3-26.9-31.6-4.4-25.8 9.9-64 51.5-86.9 61.4-33.8 126.2-4 141.5 4 4-4.8 9.2-8.5 15.1-10.8 18.5-7 34.1 19.8 45.7 44 3.5 7.3 10.7 13.5 17.6 19.6 12.3 10.8 26.3 22.9 16.5 42.4a16.3 16.3 0 0 1-20.4 9.7 77.8 77.8 0 0 1-16.7 43 4.1 4.1 0 0 1-4.8 1.1l-43-20a4.2 4.2 0 0 1-2.2-2.9c-.6-3-3.3-11.9-8.4-13.6-3.8-1.4-8.8 1.9-12.2 4.9-18 15.5-6.5 30.2-5.1 31.8a4 4 0 0 1 .2 5c-8.3 11.5-17.5 17.4-27.3 17.4Zm-24.3-23.4a4 4 0 0 1 3.4 1.8c0 .1 9 13.3 20.6 13.5h.3c6.4 0 12.7-4 19-11.9-4.1-6.5-11.7-23.8 7.8-40.6 7.4-6.4 14.2-8.5 20.3-6.4 8.4 3 12 13.2 13.1 17.7l38.2 17.8a68 68 0 0 0 12.8-41.6 4 4 0 0 1 2.1-3.8 4 4 0 0 1 4.4.3c2.6 1.8 5.7 2.5 8.9 2.1a10 10 0 0 0 6-5.8c6.6-13.2-1.3-21-14.6-32.6a73.5 73.5 0 0 1-19.6-22.3c-5.4-11.1-21.7-45-35.5-39.8-5.4 2.1-10 5.9-13.3 10.7-.2.5-.6.9-1 1.2a4 4 0 0 1-4.5.3c-.7-.4-72.1-41.3-136.9-5.7-37.9 21-51.1 55.3-47.2 78.4 2.4 14.1 10.8 23.5 23.3 25.6a4 4 0 0 1 3.4 3.8c0 .2.7 15.1 11.4 23 7.3 5.5 17.9 6.5 31.3 3.1a4.1 4.1 0 0 1 4.8 2.6c2.5 5.4 6.9 9.7 12.4 12 7.4 3 16.6 2 27.4-3.1.6-.2 1.1-.3 1.7-.3Z"/><path fill="#431426" d="M761.7 1279.1a4 4 0 0 1-4-3.5c0-.6-7.5-61.2 48.4-79.6a4.1 4.1 0 0 1 3.1.3 4 4 0 0 1 2 2.5 4 4 0 0 1-2.7 5c-49.4 16.3-43.3 68.6-43 70.8a4 4 0 0 1-3.4 4.6h-.4ZM807.4 1307.7c-.8 0-1.6-.3-2.3-.7a4 4 0 0 1-1.5-2c-.2-.6-19.3-57.8 31.7-87.3l1.5-.5a4 4 0 0 1 3 .8 4.1 4.1 0 0 1 1.5 2.7 4.1 4.1 0 0 1-.8 3 4 4 0 0 1-1.2 1c-45 26.2-28.7 75.5-28 77.6a4 4 0 0 1-3.9 5.4ZM854.7 1320.3a4.1 4.1 0 0 1-3.7-2.3c-.2-.5-23-49.3 11.6-83.4a4 4 0 0 1 5.6.1 4 4 0 0 1 0 5.7c-30.3 30-10 73.7-9.8 74.1a4 4 0 0 1-3.7 5.8Z"/><path fill="#FFFAF4" d="M963.6 1331.5s-25.2 22.7-42 13.1c-20.1-11.6 2-32.9 2-32.9l40 19.8Z"/><path fill="#431426" d="M931 1351c-4 0-8-1-11.3-2.9a19 19 0 0 1-10.4-14c-1.6-12.5 11-24.8 11.5-25.3.6-.6 1.4-1 2.2-1.1a4 4 0 0 1 2.5.4l40 19.8a4.1 4.1 0 0 1 2.1 3.1 4 4 0 0 1-1.3 3.6c-.9.8-18.6 16.4-35.4 16.4Zm-6.4-34.3c-3.3 3.8-8 10.6-7.3 16.2a11 11 0 0 0 6.4 8.2c9.4 5.4 23.9-2.5 32.5-8.8l-31.6-15.6ZM948.6 1197.3a4.1 4.1 0 0 1-3.7-2.4c-3.8-8.1-17.2-19-22-22.3a4 4 0 0 1 3.2-7.3c.5.1 1 .3 1.4.7.8.5 19.3 13.8 24.8 25.5a4 4 0 0 1-2 5.4c-.6.3-1.1.4-1.7.4Z"/><path fill="#FFFAF4" d="M1979.2 1378s-11.3-5-36.5 32c-29 42.4-117.5-90.5-65.6-126.5 20.3-14.2 31.3 12 54.3-3.5l47.8 98Z"/><path fill="#431426" d="M1928.4 1422.3c-1.7 0-3.3-.1-5-.5-24.3-4.9-56.3-47.5-64.3-86.1-5.2-25.2.4-44.9 15.8-55.6 11.6-8.1 21-4.8 29.2-2 8.2 3 15 5.3 25.2-1.5 1-.6 2-.8 3-.5 1 .2 2 .8 2.5 1.7a4 4 0 0 1-1 5.5c-13.5 9.1-24 5.4-32.4 2.5-7.6-2.7-13.6-4.8-21.9 1-16.1 11.2-15.7 31.8-12.5 47.2 7.4 35.2 36.6 75.6 58 79.9a13.1 13.1 0 0 0 14.2-6.2c25.2-36.8 38.1-35 41.5-33.5a4 4 0 0 1-2.9 7.6c-.8 0-10.8-.3-31.9 30.5a21 21 0 0 1-17.5 10Z"/><path fill="#FFEAB9" d="M1469.6 1453.3a23 23 0 1 1 0-46c318.8-1.5 432.6-88 433.7-89a22.9 22.9 0 0 1 25.4-2.2 23 23 0 0 1 3.4 38.1c-5 4-124.6 97.5-462.3 99h-.2Z"/><path fill="#431426" d="M1469.7 1457.3h-.1a27 27 0 1 1-.1-54.1c315.9-1.5 430-87.2 431.2-88a27 27 0 0 1 33.8 42.2c-5 4-125.6 98.3-464.8 100Zm447.9-140c-4.3 0-8.5 1.5-11.9 4.2-1.1.9-115.9 88.3-436.2 89.8a19 19 0 0 0 0 38c336.4-1.6 455-94.3 459.8-98.3a19 19 0 0 0-11.7-33.7Z"/><path fill="#FFFAF4" d="M1890.2 1314.8c66.5 60.4 32 72.3 23.2 66.4l77.3-19.5-40.5-78.1-60 31.2Z"/><path fill="#431426" d="M1918.6 1386.6c-2.6 0-5.2-.7-7.4-2a4 4 0 0 1-1-5.6 4 4 0 0 1 5.5-1.2 7.6 7.6 0 0 0 8.9-2c5.1-6.5-1.5-25.6-37.1-58a4 4 0 0 1-1.4-2.8c0-.5 0-1 .3-1.6.2-.5.4-1 .8-1.3a4 4 0 0 1 5.7-.3c46.8 42.6 44 61.5 38.2 68.9a15.7 15.7 0 0 1-12.5 5.9Z"/><path fill="#FFFAF4" d="M1407.5 1389.5s-65.8-46-147.6-22.8c-68.9 19.5-107.4 120.2-45 141.6 0 0 2.5 29.8 43.4 22.2 0 0 19.6 35.4 51.4 17.3 0 0 37 40.3 55.8-1.7 0 0-25.8-14.5-6.2-38 19.6-23.3 38.7-1.8 38.7-1.8 16 1.7 32-2 45.7-10.5 21.4-14 20.7-24 20.7-24s15.2 15.7 31.5 8c29.5-13.9-12.9-41.1-24.5-61.4-7-12-23.1-38.1-44.2-38.1a26 26 0 0 0-19.7 9.2Z"/><path fill="#431426" d="M1342.1 1569.3c-14.3 0-27.8-11.5-33-16.5-8 4.3-17.4 5.3-26.3 3a50.6 50.6 0 0 1-26.4-20.9c-14.4 2.2-25.8 0-34-6.1a30.6 30.6 0 0 1-11-17.5c-21-8.1-32.5-26.3-32-50.1 1-36.8 31.6-84.9 79.4-98.4 74-21 134.2 12.7 148 21.5 5.6-5.2 12.9-8.1 20.4-8.1 24.6 0 42 30.2 47.7 40.1a119 119 0 0 0 14.8 18.1c11 12 22.5 24.4 20.3 35.7-1.1 5.4-5.2 10-12.3 13.4-12.8 6-24.7 0-31.1-4.6-2.5 5-8.1 12-20.6 20.2-14.5 9-31.5 13-48.5 11.3a4 4 0 0 1-2.4-1.3s-7.3-7.8-16.3-7.6c-5.6 0-11.1 3.2-16.2 9.3-5.1 6.2-7.1 11.8-6.2 17.1 1.6 9 11.1 14.5 11.3 14.6a4 4 0 0 1 1.7 5.2c-5.7 12.5-13.6 19.7-23.2 21.2-1.4.3-2.7.4-4 .4Zm-32.2-25.5a4 4 0 0 1 3 1.3c.1.1 17 18.3 32 15.9 6.1-1 11.4-5.5 15.6-13.6a30.5 30.5 0 0 1-12-17.8c-1.5-7.8 1.2-15.8 7.9-23.8s14.3-12.2 22.4-12.3h.4c7.8.4 15.2 3.7 20.8 9.2a69.1 69.1 0 0 0 41.5-10.2c18.5-12.1 19-20.3 19-20.4a4 4 0 0 1 2.4-4 4 4 0 0 1 4.5 1s13.4 13.6 26.9 7.2c4.6-2.2 7.2-4.7 7.8-7.5 1.4-7.3-9-18.6-18.3-28.6-6-6-11.2-12.6-15.8-19.7-13.8-23.9-27.5-36-40.7-36a21.8 21.8 0 0 0-16.5 7.6 4.1 4.1 0 0 1-5.5.9c-.6-.5-65.3-44.6-144.2-22.3-42.8 12.1-72.5 56.9-73.4 90.8-.6 21.3 9.6 36.5 28.7 43.1a4 4 0 0 1 2.7 3.5c.9 5.7 3.9 10.9 8.4 14.5 6.9 5.1 17 6.5 30.3 4 .8-.1 1.7 0 2.5.3.7.4 1.4 1 1.8 1.7 0 0 8.7 15.5 23 19.5a29.3 29.3 0 0 0 22.9-3.7 4 4 0 0 1 1.9-.7Z"/><path fill="#431426" d="M1215 1512.4a4 4 0 0 1-4-3.5c0-.7-11-74.6 47.5-96.3a4 4 0 0 1 5.5 2.4 4 4 0 0 1-.3 3.3 4 4 0 0 1-2.5 2c-52.3 19.3-42.7 84.6-42.3 87.4v1.5a4 4 0 0 1-3.4 3.1h-.5ZM1258.4 1534.5a4 4 0 0 1-4-3.1c-.1-.7-14.9-68 36-91.8a4 4 0 1 1 3.4 7.3c-44.8 21-31.5 82-31.5 82.7a4 4 0 0 1-1.6 4.2 4 4 0 0 1-1.4.6l-.9.1ZM1309.9 1551.9a4.2 4.2 0 0 1-3.7-2.3c-.5-1-12.8-26.5-4.2-51.3a56.2 56.2 0 0 1 32.2-32.6c.6 0 1.1 0 1.6.3a4 4 0 0 1 2.5 5.1 4 4 0 0 1-2 2.4 48.2 48.2 0 0 0-26.6 27.4c-7.5 21.6 3.7 44.9 3.8 45.1a4 4 0 0 1-1.8 5.4c-.6.3-1.2.5-1.8.5ZM1435 1415.9a4 4 0 0 1-3.6-2c-6.3-10.9-25.5-20.6-25.7-20.7a4 4 0 1 1 3.6-7.3c.9.5 21.7 10.8 29.1 23.9.5.9.6 2 .4 3a4 4 0 0 1-1.8 2.4 4 4 0 0 1-2 .7Z"/><path fill="#FFFAF4" d="M1780.5 1188a131.8 131.8 0 0 0-27.3-18.1 161.3 161.3 0 0 0-60-15.9c-6.5-.5-12.7-.6-18.3-.5a419.7 419.7 0 0 1 44-138.1 54.1 54.1 0 0 1 100.2 11 54 54 0 0 1-4.2 38.3c-29.8 58.1-34 105.3-34.4 123.2Z"/><path fill="#431426" d="M1780.5 1192c-1 0-2-.3-2.7-1-8.1-6.9-17-12.8-26.5-17.5a156.1 156.1 0 0 0-58.5-15.4 190 190 0 0 0-17.9-.6c-.6 0-1.2-.1-1.7-.3l-1.4-1c-.4-.5-.7-1-.8-1.5-.2-.6-.3-1.2-.2-1.7 4-32 15-82 44.4-139.4a58.2 58.2 0 0 1 107.8 11.7c3.7 13.9 2 28.6-4.5 41.3-29.5 57.6-33.6 104-34 121.4a4 4 0 0 1-4 4Zm-101-42.6c4.9 0 9.5.2 14 .6 21.3 1.4 42.2 6.9 61.5 16.3 7.6 3.8 15 8.3 21.8 13.5a308 308 0 0 1 34.5-116.9 49.8 49.8 0 1 0-88.8-45.5 418.1 418.1 0 0 0-43 132Z"/><path fill="#431426" d="M1788.4 1066.2a94.9 94.9 0 0 0-5.2 8.8l-38 19 28.1 2a320.2 320.2 0 0 0-20.1 73.9 161.3 161.3 0 0 0-60-15.9c13-77.5 43.1-121 44.6-123.2a30.9 30.9 0 0 1 50.6 35.2v.2Z"/><path fill="#FFFAF4" d="M1583 1126.5a131.6 131.6 0 0 0-27.4-18 161.3 161.3 0 0 0-60-15.9c-6.5-.5-12.6-.6-18.3-.6a419 419 0 0 1 44-138 54 54 0 1 1 96 49.3c-29.7 58.1-34 105.3-34.4 123.2Z"/><path fill="#431426" d="M1583 1130.5c-1 0-2-.3-2.8-1-8-6.8-17-12.7-26.5-17.4a156.5 156.5 0 0 0-58.5-15.4 190 190 0 0 0-17.9-.6 4.4 4.4 0 0 1-3-1.4 4 4 0 0 1-1-3.2c4-31.8 14.9-82 44.3-139.3a58.2 58.2 0 0 1 107.8 11.7 58 58 0 0 1-4.6 41.2c-29.5 57.6-33.6 104.1-34 121.5a4 4 0 0 1-2.4 3.6l-1.5.3Zm-101-42.5c4.8 0 9.5.2 14 .6 21.3 1.3 42.2 6.9 61.4 16.2 7.7 3.8 15 8.4 21.8 13.5 1.5-22 8.2-65.1 34.5-116.8A49.8 49.8 0 1 0 1525 956a419.4 419.4 0 0 0-43 132Z"/><path fill="#431426" d="M1590.8 1004.7a96.5 96.5 0 0 0-5.1 8.8l-38.1 19 28.2 2a321.4 321.4 0 0 0-20.2 74 161.3 161.3 0 0 0-60-15.9c13.1-77.5 43.2-121 44.7-123.2a30.8 30.8 0 0 1 50.5 35.3ZM1801.3 1214.3a4 4 0 0 1-3.3-1.6c-40.9-55.2-105.4-57.6-140.2-54.2a4 4 0 0 1-.8-8c36.5-3.7 104.2-1 147.5 57.4a4.2 4.2 0 0 1 .8 3 4 4 0 0 1-1.6 2.6 4 4 0 0 1-2.4.8Z"/><path fill="#431426" d="M1592.1 1139.2a4.1 4.1 0 0 1-2.9-1.2c-57.1-59.2-146.9-38.3-147.8-38a4.1 4.1 0 0 1-3.2-.3c-.5-.3-.9-.6-1.2-1a4 4 0 0 1 2.5-6.5c1-.2 95.2-22.4 155.5 40.3a4 4 0 0 1 0 5.7c-.8.7-1.8 1-2.9 1ZM1886.9 952h-.5a4 4 0 0 1-3.4-3c-.2-.5-.2-1-.2-1.6 2.2-16.8-7.6-35.2-24.7-46.6-17.1-11.5-37.8-13.4-52.6-5a4 4 0 0 1-3 .5 4 4 0 0 1-2.9-5 4 4 0 0 1 2-2.5c17.3-10 41.3-7.9 61 5.3 19.7 13 30.8 34.4 28.3 54.3a4 4 0 0 1-4 3.6ZM1646.8 854.6a4 4 0 0 1-4-3c-4.6-16.3-20.6-29.4-40.9-33.2-20.3-3.8-40 2.4-50.3 16a4 4 0 0 1-6.5-5c12.2-16 35-23.4 58.3-19 23.3 4.6 41.8 19.8 47.3 39.1.3 1 .2 2.2-.3 3-.5 1-1.4 1.7-2.4 2-.4.1-.8.2-1.2.1Z"/><path fill="#FFFAF4" d="M1611.6 1129.7s-21.7-58.2-56.9-35.9c-35.2 22.3-15.5 67.5 8.6 73.5l48.3-37.6Z"/><path fill="#431426" d="M1563.3 1171.4h-1c-14.5-3.6-27.2-19.3-30.1-37.2a42.1 42.1 0 0 1 20.5-43.7 30.8 30.8 0 0 1 27.2-4.2c22.5 7.5 35 40.6 35.5 42a4 4 0 0 1-2.4 5.5 4 4 0 0 1-3.2-.2 4 4 0 0 1-2-2.5c0-.3-11.7-31-30.5-37.2-6.6-2.3-13.3-1.1-20.3 3.3a34 34 0 0 0-16.8 35.7c2.4 14.5 12.7 27.7 24.1 30.5a4 4 0 0 1 3.6 4.6 4 4 0 0 1-4.6 3.5v-.1ZM1570.4 1268.8c-1.1 0-2.1-.5-2.9-1.2-.7-.7-17.5-17.1-38.3-10-19 6.6-33.2 6.1-42.2-1.4-9.5-8-12.5-23.4-9-45.8 5.1-31.7 21.3-39.8 30.4-41.8 16.3-3.5 35.6 6.2 47.2 23.5 13.5 20.4 32.5 14.4 32.6 14.3a4 4 0 0 1 2.6 7.7c-.3 0-25 8-42-17.4-9.8-14.7-25.6-23-38.6-20.1-12.4 2.7-21 15.1-24 35-3.2 19.5-1.1 32.4 6 38.3 6.7 5.6 18.2 5.6 34.3 0 25.8-8.8 46 11 46.8 11.9.5.6 1 1.3 1 2a4.1 4.1 0 0 1-1.7 4.2c-.6.5-1.4.7-2.2.7Z"/><path fill="#431426" d="M1526 1216.8c2.1-13-2.5-24.7-10.4-26-7.8-1.2-16 8.3-18 21.3-2.2 13 2.4 24.6 10.3 25.9 7.8 1.3 16-8.2 18-21.3Z"/></svg>
