<svg xmlns="http://www.w3.org/2000/svg" width="3000" height="3000" fill="none"><path fill="#FFEAB9" d="M1077 1998c-32 10-59 45-82 107a532 532 0 0 0-30 109 25 25 0 0 0 50 0c13-61 46-158 78-168 35-11 150 39 221 77l2 1c4-8 6-16 6-25 2-12 2-12 1-19-52-27-186-101-246-82Z"/><path fill="#431426" d="M990 2239h-6a30 30 0 0 1-23-36 701 701 0 0 1 29-100c25-63 53-99 86-109 58-19 180 46 238 76l11 6a4 4 0 0 1 2 3v20c-1 10-3 19-7 27a4 4 0 0 1-6 2l-2-1c-81-44-188-86-218-76-29 9-62 101-75 164a30 30 0 0 1-29 24Zm89-237c-31 10-57 44-80 104a854 854 0 0 0-29 99 21 21 0 1 0 41 9c10-51 43-160 80-172 38-12 156 40 223 76l4-19v-7l1-9-9-5c-57-30-177-93-232-76h1Z"/><path fill="#FFD073" d="M781 2527c38 40 92 46 132 34 26-8 44-30 54-56l13-32 36-95 7-19c16-48 37-121-24-155-52-30-107-1-107-1s-27-41-91-55a137 137 0 0 0-125 35 120 120 0 0 0-37 100c9 80 79 180 142 244Z"/><path fill="#431426" d="M875 2571a134 134 0 0 1-97-40c-60-62-134-164-143-248l-1-2c-3-37 11-74 39-101a142 142 0 0 1 129-37c55 13 83 44 91 54 13-6 61-24 109 3 66 38 38 120 25 160l-7 19a10932 10932 0 0 1-48 127c-13 31-32 52-58 59-12 4-26 6-39 6Zm-91-47c40 41 94 43 128 33 28-9 44-34 51-54a3381 3381 0 0 0 49-127l7-19c20-60 31-119-22-150-46-26-95-4-102-1l-3 2-2-1-1-1c-1-1-28-40-88-54a133 133 0 0 0-122 34 116 116 0 0 0-36 94v2c10 82 82 182 141 242Z"/><path fill="#FFFAF4" d="M781 2527c38 40 92 46 132 34 26-8 44-30 54-56l13-32-1-3c-17-69-56-179-127-254-74-79-174-34-176-33a120 120 0 0 0-37 100c9 80 79 180 142 244Z"/><path fill="#431426" d="M875 2571a134 134 0 0 1-97-40c-60-62-134-164-143-248l-1-2a124 124 0 0 1 40-102c4-2 106-47 181 34 83 88 119 217 128 256l1 2a4 4 0 0 1 0 3l-12 32c-13 31-32 52-58 59-12 4-26 6-39 6Zm-91-47c40 41 94 43 128 33 28-9 44-34 51-54l12-30v-1l-1-1c-8-37-43-165-125-252-69-73-161-36-171-32a115 115 0 0 0-35 93v2c10 82 82 182 141 242Z"/><path fill="#431426" d="M875 2571a134 134 0 0 1-97-40c-60-62-134-164-143-248l-1-2c0-8 0-34 19-55 18-18 46-27 83-26 99 2 152 119 181 182l10 20c16 32 42 86 27 126-6 16-19 29-39 37h-1c-12 4-26 6-39 6Zm-91-47c40 41 93 43 127 33 18-7 29-18 35-33 13-35-12-87-28-118l-9-20c-28-61-80-175-174-177-34-1-60 7-75 23a65 65 0 0 0-17 48v2c10 82 82 182 141 242Z"/><path fill="#9CC" d="M943 2362v1l2 3 7 19v1c10 25 24 71 28 87l35-95c1 0-30-38-72-16Z"/><path fill="#431426" d="M980 2477h-1l-2-1-2-2a851 851 0 0 0-35-106l-1-4a4 4 0 0 1 0-3 4 4 0 0 1 2-3c45-24 78 17 78 17a5 5 0 0 1 1 4 10932 10932 0 0 1-38 97l-2 1Zm-23-93c7 19 18 52 24 74l30-79c-7-7-30-29-62-15l8 20ZM925 2285a5 5 0 0 1-5-4 208 208 0 0 0-32-77 4 4 0 0 1 8-4 214 214 0 0 1 33 81 4 4 0 0 1-4 4ZM675 2220h-1a5 5 0 0 1-3-1 4 4 0 0 1-1-3l1-33a5 5 0 0 1 3-4 4 4 0 0 1 4 0 4 4 0 0 1 2 2v2l-1 33a4 4 0 0 1-4 4ZM723 2209a5 5 0 0 1-3-1 5 5 0 0 1-2-4l1-34a4 4 0 0 1 1-3 4 4 0 0 1 3-1h2a4 4 0 0 1 3 5l-1 34a4 4 0 0 1-4 4ZM774 2216h-1a4 4 0 0 1-4-5l9-38 2-3a4 4 0 0 1 6 5l-8 38a4 4 0 0 1-4 3ZM815 2240a4 4 0 0 1-4-6l16-39a5 5 0 0 1 2-2 4 4 0 0 1 6 6l-16 38a4 4 0 0 1-4 3ZM850 2277a5 5 0 0 1-4-4v-2l18-39a4 4 0 0 1 8-1 4 4 0 0 1 0 5l-17 39a4 4 0 0 1-5 2ZM880 2319h-2a5 5 0 0 1-2-6l18-39 3-2a4 4 0 0 1 6 6l-19 39a5 5 0 0 1-4 2ZM901 2363h-2a5 5 0 0 1-2-6l23-39 2-2a4 4 0 0 1 6 7l-23 38-1 2h-3Z"/><path fill="#431426" d="m922 2409-2-1a4 4 0 0 1-1-6l22-38a4 4 0 0 1 7-1 4 4 0 0 1 1 5l-23 38a5 5 0 0 1-4 3ZM943 2454h-2a4 4 0 0 1-2-6l20-37a4 4 0 0 1 2-2h2a4 4 0 0 1 4 3 4 4 0 0 1-1 4l-19 36a5 5 0 0 1-4 2ZM954 2505a4 4 0 0 1-4-6l22-45 1-2a4 4 0 0 1 6 1 5 5 0 0 1 1 3v2l-22 45a4 4 0 0 1-4 2ZM664 2262l-3-1a4 4 0 0 1 3-8l120-21a5 5 0 1 1 1 9l-120 21h-1ZM677 2318a5 5 0 0 1-5-4 4 4 0 0 1 4-5l155-27a5 5 0 0 1 4 3 5 5 0 0 1-3 6l-154 27h-1ZM690 2370a4 4 0 1 1-1-9l170-30a5 5 0 1 1 2 9l-171 30ZM719 2419l-4-1a4 4 0 0 1 3-8l169-28a5 5 0 0 1 4 7l-2 1-170 29ZM752 2468a4 4 0 1 1-1-9l154-27a5 5 0 1 1 1 9l-153 27h-1ZM784 2512a5 5 0 0 1-5-4 4 4 0 0 1 4-5l136-24h4l1 3a4 4 0 0 1-3 5l-136 25h-1ZM824 2551a5 5 0 0 1-5-4 4 4 0 0 1 4-4l107-19a5 5 0 0 1 5 4 5 5 0 0 1-4 5l-106 18h-1Z"/><path fill="#FFFAF4" d="M951 1828s23 36 59 36c29 0 40-9 40-9s49 6 53-24c3-23-9-25-9-25l-143 22Z"/><path fill="#431426" d="M1010 1869c-38 0-62-37-63-39a4 4 0 0 1 1-6l2-1 143-21h1c1 0 17 2 13 29a27 27 0 0 1-10 19c-14 11-39 10-46 9-4 3-16 10-41 10Zm-51-38c8 10 26 29 51 29 27 0 37-8 37-9h2l2-1h24c14-3 22-10 23-20 2-13-2-18-5-19l-134 20Z"/><path fill="#431426" d="M1050 1859h-2l-2-2a4 4 0 0 1 2-6 32 32 0 0 0 11-39 4 4 0 0 1 8-3 41 41 0 0 1-14 50h-3Z"/><path fill="#FFFAF4" d="M878 1840c17 13 36 24 57 30 30 10 42-3 42-3s49 6 53-24c2-23-10-25-10-25l-142 22Z"/><path fill="#431426" d="m952 1877-18-3c-22-5-42-16-59-31a4 4 0 0 1 0-6l2-1 143-22h1c1 0 16 2 13 30a27 27 0 0 1-10 18c-15 12-40 10-46 10-8 3-17 5-26 5Zm-64-34c15 10 31 18 48 23 13 3 27 2 39-3h2l24-1c15-3 23-9 24-19 2-14-2-19-5-20l-132 20Z"/><path fill="#431426" d="M977 1871h-3a4 4 0 0 1-1-6l2-2a32 32 0 0 0 11-38 5 5 0 0 1 6-6l2 2a41 41 0 0 1-15 50h-2Z"/><path fill="#FFEAB9" d="M1032 1803a24 24 0 0 1-24-22c-7-83 18-160 74-222 25-28 54-52 87-69a24 24 0 0 1 21 43c-28 15-53 35-74 59-46 52-67 115-61 185a24 24 0 0 1-21 26h-2Z"/><path fill="#431426" d="M1032 1808a29 29 0 0 1-29-26c-7-85 19-163 76-226 25-29 55-52 88-70a28 28 0 0 1 25 51c-27 15-52 34-72 58-46 51-66 112-60 182a28 28 0 0 1-26 31h-2Zm148-316c-3 0-6 0-9 2-32 17-61 40-86 68-54 61-80 136-73 219a19 19 0 0 0 20 17h1a19 19 0 0 0 18-20c-6-72 15-136 62-189 21-24 47-45 75-60a19 19 0 0 0-8-37Z"/><path fill="#FFFAF4" d="m1924 631 25 296 10 117 5 64 2 21 25 292 5 64 1 17 22 249 25 298s-88 118-372 167c-267 46-407-33-407-33l-61-234-15-55-14-55-195-745-75-288 1019-175Z"/><path fill="#431426" d="M1512 2235c-162 0-248-47-249-48a4 4 0 0 1-2-3l-90-344L901 807a5 5 0 0 1 0-4 5 5 0 0 1 3-2l1019-174a4 4 0 0 1 5 4l67 789v1l53 628-1 3c-1 1-23 31-80 66-53 33-147 77-295 102-53 10-106 15-160 15Zm-243-55c16 9 155 74 402 32 263-45 358-151 368-164l-53-627-66-785L911 809l358 1371Z"/><path fill="#FF89A4" d="M1974 607s-120 160-539 232c-413 71-585-39-585-39l30-138 1019-175 75 120Z"/><path fill="#431426" d="M1164 862c-75 0-134-7-178-14a439 439 0 0 1-140-46l-1-3 30-143a4 4 0 0 1 4-3l1017-178a4 4 0 0 1 4 2l78 128a4 4 0 0 1 0 5c-2 2-32 40-115 87-75 43-211 103-428 140-106 19-197 25-271 25Zm-309-64c11 6 54 27 134 41 85 15 232 26 444-11 215-37 350-96 425-138 70-40 103-74 110-83l-74-123L883 661l-28 137Z"/><path fill="#FF89A4" d="M1899 487c3 17-9 35-34 53-71 55-246 114-455 150-210 36-394 39-480 11-29-10-47-23-50-39-11-64 209-155 490-203s518-36 529 28Z"/><path fill="#431426" d="M1124 727c-87 0-155-9-195-22-32-10-50-24-53-42-7-43 71-85 138-113 93-38 219-72 355-96 136-23 267-33 367-28 72 4 160 18 167 60 3 18-8 38-35 58-66 50-233 118-457 157-108 18-206 26-287 26Zm556-293c-90 0-198 10-309 29-136 23-262 57-354 96-89 36-137 74-132 102 2 14 18 26 47 36 77 25 255 33 478-5 222-38 387-106 452-155 24-18 35-35 33-49-5-28-63-48-159-53l-56-1Z"/><path fill="#431426" d="M1124 727a688 688 0 0 1-198-24l-2-8c-7-38 65-76 127-101 86-34 202-65 327-87 233-40 480-41 491 26l1 8a5 5 0 0 1-2 3c-66 50-233 118-457 157-108 18-206 26-287 26Zm-190-30c78 25 255 33 476-5s385-105 451-154l-1-3c-8-48-203-67-480-19-125 21-241 52-325 87-82 33-126 66-122 91l1 3Z"/><path fill="#0BBFA4" d="m1949 927 10 117 5 64 2 21 25 292 5 64 1 17 22 249c-3 3-102 136-395 189-183 33-315 2-383-23-18-6-35-14-52-23l-14-55-195-745s134 100 505 34c380-67 464-201 464-201Z"/><path fill="#431426" d="M1470 1959a676 676 0 0 1-283-61l-1-1-1-2-14-55-195-745a4 4 0 0 1 2-5 5 5 0 0 1 5 0s34 25 112 41c72 15 199 26 389-8 195-34 310-86 372-124a285 285 0 0 0 91-76 4 4 0 0 1 6 4l70 824-1 3c-4 6-105 138-397 190-51 10-103 15-155 15Zm-277-68c16 9 33 16 50 22 63 23 196 56 380 23 277-50 379-171 391-186l-69-811c-11 13-36 38-83 67-63 39-179 91-376 126-193 35-320 23-394 8-56-12-89-28-104-37l191 735 14 53ZM1431 818a4 4 0 0 1-5-4l-16-95a4 4 0 0 1 1-3 4 4 0 0 1 3-2 4 4 0 0 1 5 4l16 94a5 5 0 0 1-4 6ZM1236 844a4 4 0 0 1-4-5l-3-96a5 5 0 0 1 7-3 4 4 0 0 1 2 3l3 96-1 2a4 4 0 0 1-2 2l-2 1ZM1058 841h-1a4 4 0 0 1-4-5l13-93 1-1a4 4 0 0 1 3-2 5 5 0 0 1 5 5l-13 93a4 4 0 0 1-4 3ZM922 814h-1a4 4 0 0 1-4-6l22-85a4 4 0 0 1 9 2l-22 85a4 4 0 0 1-4 4ZM1621 776a5 5 0 0 1-4-3l-29-91a4 4 0 0 1 3-6 4 4 0 0 1 5 3l29 92a4 4 0 0 1-4 5ZM1788 715a5 5 0 0 1-4-3l-43-83v-2a4 4 0 0 1 2-4 4 4 0 0 1 6 2l43 83 1 3c-1 2-1 3-3 3l-2 1ZM1907 643a5 5 0 0 1-3-2l-49-73a4 4 0 0 1-1-3 4 4 0 0 1 2-3 4 4 0 0 1 6 1l49 73a5 5 0 0 1-4 7ZM1127 724a4 4 0 0 1-5-4l-8-52a4 4 0 0 1 0-4 5 5 0 0 1 4-1l109-3a5 5 0 0 1 4 4l9 50a5 5 0 0 1-2 4 5 5 0 0 1-5 0 5 5 0 0 1-2-3l-8-46-100 3 8 47a5 5 0 0 1-3 5h-1Z"/><path fill="#431426" d="m1275 713-3-1-2-2-14-59-79 2-58 18a4 4 0 1 1-2-8l58-18h1l84-3a4 4 0 0 1 4 3l15 63v2a5 5 0 0 1-2 2l-1 1h-1Z"/><path fill="#431426" d="M1227 669a4 4 0 0 1-2-8l33-19a4 4 0 0 1 3 0 4 4 0 0 1 1 8l-33 19h-2Z"/><g fill="#431426" opacity=".1"><path d="M1158 1321c-7 0-13-1-19-4a113 113 0 0 1-64-76c-4-16 0-29 9-36 8-8 22-9 37-3a113 113 0 0 1 65 76c3 15 0 28-9 36-5 5-12 7-19 7Zm-55-114c-5 0-10 1-14 5-6 5-8 15-6 28a104 104 0 0 0 60 69c12 4 22 4 28-2 7-5 9-15 6-28-3-15-11-29-21-41a95 95 0 0 0-38-28l-15-3Z"/><path d="M1174 1315h-2l-1-1-88-103a4 4 0 0 1 1-6 4 4 0 0 1 6 0l88 103a4 4 0 0 1-4 7Z"/></g><g fill="#431426" opacity=".1"><path d="m1429 1534-18-3c-16-7-30-17-41-31-27-30-33-67-15-82 9-8 22-9 37-3 17 7 31 17 42 30 26 31 32 67 14 83-5 4-12 6-19 6Zm-55-114c-5 0-9 2-13 5-14 12-7 43 15 69 10 13 23 22 38 28 12 5 22 4 29-1 13-12 6-44-16-70a95 95 0 0 0-38-28c-4-2-9-3-15-3Z"/><path d="m1445 1529-1-1-2-1-88-103v-1a4 4 0 0 1 1-5 5 5 0 0 1 6 1l88 102a4 4 0 0 1-4 8Z"/></g><g fill="#431426" opacity=".1"><path d="M1198 1633c-6 0-12-2-18-4-16-6-30-17-41-30-27-31-33-67-15-82 18-16 53-4 79 27 11 13 20 28 23 45 4 16 0 29-8 37-6 4-13 7-20 7Zm-55-114c-4 0-9 1-13 4-14 12-7 44 15 70 10 12 23 22 38 28 12 4 22 4 29-2 6-5 8-15 6-28-4-15-11-30-22-41-16-20-37-31-53-31Z"/><path d="M1215 1627a5 5 0 0 1-4-2l-87-102a5 5 0 1 1 6-6l88 103 1 1a5 5 0 0 1 0 4l-1 1-3 1Z"/></g><g fill="#431426" opacity=".1"><path d="M1469 1282c-18 0-41-12-60-34-11-13-19-29-23-45-3-16 0-29 9-37 18-16 52-4 79 27 11 13 19 29 23 46 3 16 0 29-9 36-5 5-12 7-19 7Zm-55-114c-5 0-10 1-14 5-6 5-8 15-5 28 3 15 11 29 21 41 22 26 53 38 66 26 7-5 9-15 6-28-3-15-11-29-21-41-17-19-38-31-53-31Z"/><path d="M1485 1276a5 5 0 0 1-3-1l-88-103a4 4 0 0 1 7-6l88 103a4 4 0 0 1-4 7Z"/></g><g fill="#431426" opacity=".1"><path d="M1437 1837c-18 0-40-13-59-34-11-13-20-29-23-46-4-16 0-29 8-36 18-16 53-4 79 27 27 31 33 67 15 82-5 5-12 7-20 7Zm-54-114c-5 0-10 1-14 4-6 6-8 16-6 29 4 15 11 29 22 41 22 26 52 38 66 26 14-11 7-43-15-69-17-19-38-31-53-31Z"/><path d="M1454 1831h-2l-1-1-88-103a4 4 0 0 1-1-5l1-1 2-1h2a5 5 0 0 1 3 1l88 103a5 5 0 0 1 0 5 5 5 0 0 1-4 2Z"/></g><g fill="#431426" opacity=".1"><path d="M1706 1560c-18 0-41-12-59-34-26-31-33-67-15-82 18-16 53-4 79 27 12 13 20 29 24 46 3 15 0 29-9 36-6 5-13 7-20 7Zm-54-114c-5 0-10 1-14 5-14 11-6 43 16 69s52 38 66 26c6-5 8-15 6-28-4-15-11-29-22-41-16-19-37-31-52-31Z"/><path d="M1723 1554h-2l-2-1-87-103a4 4 0 0 1 7-6l87 103a4 4 0 0 1 1 4 4 4 0 0 1-4 3Z"/></g><g fill="#431426" opacity=".1"><path d="M1699 1851c-6 0-12-2-18-4-16-6-30-17-41-30-26-31-33-67-15-82 18-16 53-4 79 27 12 13 20 28 24 45 3 16 0 29-9 37-6 5-13 7-20 7Zm-54-114c-5 0-10 1-14 4-14 12-6 44 16 70 10 12 23 22 37 28 13 4 23 4 29-2 6-5 9-15 6-28-4-15-11-30-22-41-16-20-37-31-52-31Z"/><path d="M1716 1845a4 4 0 0 1-3-1l-88-103a5 5 0 0 1-1-3 4 4 0 0 1 1-3 4 4 0 0 1 7 0l87 103a5 5 0 0 1 1 4 5 5 0 0 1-4 3Z"/></g><g fill="#431426" opacity=".1"><path d="M1761 1290c-18 0-40-12-59-34-11-13-20-28-24-45-3-16 0-29 9-37 18-15 53-3 79 28 12 13 20 28 24 45 3 16 0 29-9 37-6 4-13 7-20 6Zm-54-113c-5-1-10 1-14 4-6 6-8 16-6 28 4 16 11 30 22 42 22 26 52 38 66 26 6-5 9-15 6-28-4-16-11-30-22-42-16-19-37-30-52-30Z"/><path d="M1778 1285a4 4 0 0 1-3-2l-88-102a5 5 0 0 1 7-6l87 102a4 4 0 0 1 0 7l-3 1Z"/></g><g fill="#431426" opacity=".1"><path d="M1937 1770c-7 0-13-1-19-4-16-6-30-17-41-30-26-31-33-67-15-82 9-8 23-9 38-3 16 6 30 17 41 30 27 31 33 67 15 82-5 5-12 7-19 7Zm-55-114c-5 0-10 2-14 5-13 11-6 43 16 69 10 13 23 22 38 28 12 5 22 4 28-1 14-12 7-44-15-70a95 95 0 0 0-38-28l-15-3Z"/><path d="M1953 1764h-2l-1-1-88-103a5 5 0 0 1 4-7l3 1 88 103a4 4 0 0 1 0 5l-1 2h-3Z"/></g><path fill="#431426" d="m1241 1922-1-1a330 330 0 0 1-55-26l-14-55v-2a5 5 0 0 1 3-3h2c16 5 32 16 46 32a101 101 0 0 1 24 52 4 4 0 0 1-5 3Zm-48-31c14 7 28 14 43 19a107 107 0 0 0-54-64l11 45Z" opacity=".1"/><g fill="#431426" opacity=".1"><path d="M1990 1508c-18 0-41-13-59-34-26-31-33-67-15-82 18-16 52-4 78 26l1 2 7 82a4 4 0 0 1-4 5l-8 1Zm-54-114c-5 0-10 1-14 5-14 11-7 43 16 69 17 20 39 32 55 31l-7-76c-16-18-36-29-50-29Z"/><path d="M1996 1490a4 4 0 0 1-3-2l-77-90a5 5 0 0 1 6-6l77 90 1 2v3l-1 2-3 1Z"/></g><g fill="#431426" opacity=".1"><path d="M1961 1134c-18 0-41-13-59-34-27-30-33-66-15-82 17-14 49-4 75 23l1 3 7 85-1 3-2 2h-6Zm-54-114c-5 0-10 2-14 5-14 12-7 44 16 70 16 19 36 31 52 30l-7-79c-15-16-34-26-47-26Z"/><path d="m1964 1113-2-1-1-1-74-86a5 5 0 1 1 6-6l75 86a4 4 0 0 1-1 7l-3 1Z"/></g><path fill="#431426" d="M2001 1997a5 5 0 1 0 0-10 5 5 0 0 0 0 10Z" opacity=".1"/><path fill="#431426" d="M2012 2061a3 3 0 1 0 0-6 3 3 0 0 0 0 6Z"/><path fill="#431426" d="M1935 2011c2 0 4-2 4-5a4 4 0 1 0-4 5ZM1889 1903a4 4 0 1 0 0-8 4 4 0 0 0 0 8Z" opacity=".1"/><path fill="#431426" d="M1987 1817a3 3 0 1 0 0-5 3 3 0 0 0 0 5Z"/><path fill="#431426" d="M1861 1437a3 3 0 1 0 0-6 3 3 0 0 0 0 6Z" opacity=".1"/><path fill="#431426" d="M1898 1415a3 3 0 1 0 0-6 3 3 0 0 0 0 6Z"/><path fill="#431426" d="M1921 1249a5 5 0 1 0 0-10 5 5 0 0 0 0 10Z" opacity=".1"/><path fill="#431426" d="M1958 1199a3 3 0 1 0 0-5 3 3 0 0 0 0 5Z"/><path fill="#431426" d="M1956 1378a4 4 0 1 0 0-9 4 4 0 0 0 0 9ZM1983 1622a5 5 0 1 0 0-10 5 5 0 0 0 0 10Z" opacity=".1"/><path fill="#431426" d="M1988 1549a5 5 0 1 0 0-9 5 5 0 0 0 0 9Z"/><path fill="#431426" d="M1923 926a5 5 0 1 0 0-9 5 5 0 0 0 0 9ZM1935 895a5 5 0 1 0 0-11 5 5 0 0 0 0 11Z" opacity=".1"/><path fill="#431426" d="M1880 804a4 4 0 1 0 0-8 4 4 0 0 0 0 8ZM1905 717a4 4 0 1 0 0-9 4 4 0 0 0 0 9ZM1826 585a2 2 0 1 0 0-5 2 2 0 0 0 0 5Z"/><path fill="#431426" d="M1891 582a5 5 0 1 0 0-9 5 5 0 0 0 0 9Z" opacity=".1"/><path fill="#431426" d="M1941 594a2 2 0 1 0 0-4 2 2 0 0 0 0 4Z"/><path fill="#431426" d="M1761 512a4 4 0 1 0 0-9 4 4 0 0 0 0 9ZM1699 557a4 4 0 1 0 0-8 4 4 0 0 0 0 8Z" opacity=".1"/><path fill="#431426" d="M1784 563a3 3 0 1 0 0-6 3 3 0 0 0 0 6ZM1189 1857a5 5 0 1 0 0-9 5 5 0 0 0 0 9Z"/><path fill="#431426" d="M1263 2009a7 7 0 1 0 0-13 7 7 0 0 0 0 13ZM1252 2085a6 6 0 1 0 0-11 6 6 0 0 0 0 11Z" opacity=".1"/><path fill="#431426" d="M1278 2173a5 5 0 1 0 0-9 5 5 0 0 0 0 9Z"/><path fill="#431426" d="M1034 1238a6 6 0 1 0 0-11 6 6 0 0 0 0 11ZM1083 1149a4 4 0 1 0 0-9 4 4 0 0 0 0 9ZM1811 1895a5 5 0 1 0 0-10 5 5 0 0 0 0 10ZM1744 1909a4 4 0 1 0 0-9 4 4 0 0 0 0 9ZM1898 1619a5 5 0 1 0 0-11 5 5 0 0 0 0 11ZM1832 1632a4 4 0 1 0 0-9 4 4 0 0 0 0 9ZM1875 1208a5 5 0 1 0 0-11 5 5 0 0 0 0 11ZM1808 1221a4 4 0 1 0 0-9 4 4 0 0 0 0 9Z" opacity=".1"/><path fill="#FFD073" d="M2401 2201a888 888 0 0 1 52 143c5 18 9 37 11 55a212 212 0 0 1 0 56c-5 34-23 64-49 85a144 144 0 0 1-98 31c-8 0-16-2-23-5-44-14-81-58-87-111v-5a122 122 0 0 1 2-33c2-12 6-23 12-34l1-4h-5a746 746 0 0 1-85-45c-9-9-16-18-22-29-6-18-8-37-5-56 10-55 101-91 131-103l2-1 31-10 1-1 4-1 3-1 8-2 5-1 3-1 3-1 4-1h3l3-1h3l2-1c18-3 33-3 43 1 8 2 27 33 47 76Z"/><path fill="#431426" d="M2326 2576h-9l-24-5a137 137 0 0 1-88-155c2-11 6-21 12-31v-1l-1-1h-1c-3-1-20-8-39-18-24-11-39-21-47-28-9-9-17-19-23-30-8-17-10-37-6-59 11-50 89-88 135-106l1-1h1l31-11h1l7-2 8-2 5-1 3-1 2-1h1l4-1h4l3-1h3l2-1c20-3 35-3 45 1 14 5 44 67 50 79a899 899 0 0 1 52 143c5 19 9 37 11 56a216 216 0 0 1 0 58c-5 34-23 65-50 87h-1a147 147 0 0 1-92 32Zm-108-201a9 9 0 0 1 7 6l1 4-1 3a96 96 0 0 0-12 35c-2 9-2 17-2 26l1 5c5 50 40 94 83 108 8 3 15 4 23 5a140 140 0 0 0 95-30 129 129 0 0 0 47-87c2-17 2-34 0-50a435 435 0 0 0-26-105c-10-31-23-62-37-92-22-48-40-73-45-74-8-3-22-3-40 0h-4l-1 1h-4l-2 1-4 1h-3l-3 1-5 2-8 2h-1l-2 1-4 1-32 11h-2c-43 18-119 53-128 100-4 20-3 38 5 53 5 10 12 20 21 27 7 7 22 16 45 27l38 18Z"/><path fill="#431426" d="m2221 2390-2-1a4 4 0 0 1-1-6c1-3 44-61 104-64l3 1 2 4a4 4 0 0 1-5 4c-56 3-97 59-97 60l-2 1-2 1Z"/><path fill="#FFFAF4" d="M2294 2566c8 3 15 5 23 5 58 4 134-34 147-116 18-106-89-323-110-330-10-4-25-4-43-1 2 3 115 174 113 312-2 117-130 130-130 130Z"/><path fill="#431426" d="M2327 2576h-10l-24-5a4 4 0 0 1-3-5l1-3 3-1c21-3 43-10 62-21 41-23 62-58 63-105 2-136-107-302-112-309a4 4 0 0 1 3-7c20-4 35-3 45 0 15 5 49 72 73 131 19 50 51 143 41 205-13 77-81 120-142 120Zm-11-9h2c50 3 128-29 142-112 10-61-21-152-41-201-30-76-60-123-67-125-7-3-19-3-33-2 20 32 111 183 109 309-1 90-75 121-112 131Z"/><path fill="#431426" d="M2336 2170a4 4 0 0 1-1-9l43-8h2a5 5 0 0 1 3 2 5 5 0 0 1-3 7l-43 8h-1ZM2361 2214a5 5 0 0 1-4-7l3-2 40-8a5 5 0 0 1 4 1l1 1a4 4 0 0 1 1 3 4 4 0 0 1-4 4l-40 8h-1ZM2381 2260a4 4 0 0 1-5-4 5 5 0 0 1 4-5l39-9h4a4 4 0 0 1-2 8l-39 9-1 1ZM2400 2308a4 4 0 0 1-4-1 4 4 0 0 1 3-8l38-10a5 5 0 0 1 6 3 4 4 0 0 1-3 6l-39 9-1 1ZM2415 2355a4 4 0 0 1-1-9l39-6a5 5 0 1 1 1 9l-38 6h-1ZM2425 2407l-3-2a4 4 0 0 1 3-7l39-3 3 1a4 4 0 0 1 0 6c0 1-1 2-3 2l-39 3ZM2422 2459a4 4 0 0 1-3-7l3-2 42-4a5 5 0 0 1 4 1l1 2a5 5 0 0 1 0 3 4 4 0 0 1-4 3l-42 4h-1ZM2405 2506l-3-1a5 5 0 0 1 0-6l3-2 43-1a4 4 0 0 1 2 8l-2 1-43 1ZM2415 2544l-45-1a4 4 0 0 1-4-5l1-3 3-1 46 1 3 2a4 4 0 0 1 0 6l-3 1h-1ZM2371 2568l-46-4-3-2a5 5 0 0 1 1-6l3-1 46 4a5 5 0 0 1 4 5 5 5 0 0 1-5 4Z"/><path fill="#9CC" d="M2238 2145s29 110 137 97c0 0-14-33-29-59-17-31-35-59-35-59l-34 8-39 13Z"/><path fill="#431426" d="M2358 2248c-96 0-124-100-125-101a5 5 0 0 1 3-6 357 357 0 0 1 77-21l2 2s18 28 34 58a783 783 0 0 1 30 64 4 4 0 0 1-4 3l-17 1Zm-115-100c6 19 37 97 125 90a760 760 0 0 0-59-109 310 310 0 0 0-66 19Z"/><path fill="#9CC" d="m2308 2272-10 21c-10 18-22 36-36 51l-6 7-16 14-11 7-1 1-11 6a746 746 0 0 1-36-19l7-2c11-5 21-12 30-21l15-16c14-19 25-41 32-63l1-2c11-27 51-13 42 16Z"/><path fill="#431426" d="m2217 2384-1-1h-1l-39-18a4 4 0 0 1-2-4 5 5 0 0 1 3-4l3-1 6-2c11-5 21-12 29-20l15-16c12-16 22-36 31-62l1-1a27 27 0 0 1 50 18l-10 22a248 248 0 0 1-43 59 169 169 0 0 1-28 22l-1 1a144 144 0 0 1-13 7Zm-27-22 27 12 8-5h1l11-8 16-14 6-6c13-15 25-32 35-50l10-21a18 18 0 0 0-34-12l-1 1a212 212 0 0 1-48 82c-9 9-20 16-31 21Z"/><path fill="#431426" d="M2285 2283a14 14 0 1 1 11-20 14 14 0 0 1-5 18l-6 2Zm0-18h-3l-1 1-1 2a5 5 0 0 0 3 6 5 5 0 0 0 6-4 5 5 0 0 0-4-5Z"/><path fill="#FFFAF4" d="M1861 2029s76 19 65 53c-11 33-96 105-141 70-22-18 14-26-9-63l85-60Z"/><path fill="#431426" d="M1814 2166c-11 0-22-3-31-11-14-10-10-19-7-28 3-8 7-18-4-35a4 4 0 0 1 8-5c13 21 8 34 4 43-3 8-4 12 4 18 12 10 27 11 46 6 40-12 81-53 88-74a16 16 0 0 0-2-13c-10-18-47-30-61-34l-1-1-2-1a4 4 0 0 1 0-3 4 4 0 0 1 6-4c2 1 52 14 66 38a25 25 0 0 1 2 21c-8 26-53 67-93 79-8 3-15 4-23 4Z"/><path fill="#FFEAB9" d="M1922 2341c28 18 73 16 135-5l10-3c29-11 58-23 85-38a25 25 0 0 0-24-45c-55 30-150 66-178 48-31-20-67-140-82-219l-1-2c-9 2-17 6-24 11-8 5-15 11-22 18 13 58 48 201 101 235Z"/><path fill="#431426" d="M1972 2358c-21 0-38-5-52-13-55-35-90-178-103-238a4 4 0 0 1 1-3c7-8 14-14 23-20 7-5 16-9 25-12a4 4 0 0 1 5 4l1 2c18 91 53 199 80 216 25 17 118-17 174-48a30 30 0 1 1 29 53c-28 15-57 27-87 38l-10 4c-34 11-62 17-86 17Zm-47-21c27 17 70 16 131-5l9-4c29-10 58-23 85-37a21 21 0 0 0-20-37c-45 25-150 69-183 48-33-22-69-145-84-220l-17 10c-7 4-14 10-20 16 11 48 46 196 99 229Z"/><path fill="#431426" d="M1811 2126h-1a4 4 0 0 1-3-5c0-1 4-17 34-37 17-11 31-15 40-10 11 5 13 17 13 18a4 4 0 0 1-8 4l-1-3s-1-8-8-11c-4-2-13-2-31 10-26 17-31 31-31 31a4 4 0 0 1-4 3Z"/><path fill="#9CC" d="m533 1582 395-56 212 253 230-27 12 35-613 79-15-33-221-251Z"/><path fill="#431426" d="M769 1871a5 5 0 0 1-4-3l-15-33-220-250a5 5 0 0 1-1-4 4 4 0 0 1 4-3l394-56h2l2 1 211 252 228-27 3 1 2 2 11 34a4 4 0 0 1 0 4 4 4 0 0 1-3 2l-614 80Zm-227-286 215 245 1 1 13 30 605-78-9-26-226 27a4 4 0 0 1-4-2l-211-251-384 54Z"/><path fill="#431426" d="M754 1837a4 4 0 0 1-3-1 4 4 0 0 1 1-7l1-1 387-53a4 4 0 0 1 4 3l12 37v3a4 4 0 0 1-6 2l-2-2-11-34-382 53h-1Z"/><path fill="#FFD073" d="M859 1730c18-15 17-46-2-68-20-22-49-28-67-13-18 16-17 46 2 68 19 23 49 28 67 13Z"/><path fill="#431426" d="m835 1743-10-1a68 68 0 0 1-52-61 41 41 0 0 1 51-44c14 3 27 11 36 22 10 11 15 25 16 40a43 43 0 0 1-14 35c-8 6-17 9-27 9Zm-21-98c-8 0-15 3-21 8a34 34 0 0 0-11 28 59 59 0 0 0 45 52 32 32 0 0 0 40-34c-1-13-5-24-14-34-8-10-19-16-31-19l-8-1Z"/><path fill="#431426" d="M1064 1756a5 5 0 1 0 0-10 5 5 0 0 0 0 10ZM1041 1713a3 3 0 1 0 0-5 3 3 0 0 0 0 5ZM1002 1763a5 5 0 1 0 0-11 5 5 0 0 0 0 11Z" opacity=".1"/><path fill="#431426" d="M1046 1745a3 3 0 1 0 0-6 3 3 0 0 0 0 6ZM1103 1768a4 4 0 1 0 0-8 4 4 0 0 0 0 8ZM1059 1779a3 3 0 1 0 0-6 3 3 0 0 0 0 6Z"/><path fill="#0BBFA4" d="M1808 1603s-13 2-13 48c-1 53-152-10-128-70 9-24 34-8 44-34l97 56Z"/><path fill="#431426" d="M1769 1675c-26 0-64-16-88-39-19-19-25-39-18-57 5-14 15-16 24-18 8-3 15-4 20-16a5 5 0 1 1 9 4c-7 15-18 18-27 20-8 2-14 4-18 13-7 19 5 36 17 47 26 26 73 44 94 35a13 13 0 0 0 9-13c0-46 12-52 16-52a4 4 0 0 1 2 8c-1 1-9 6-10 44a22 22 0 0 1-14 22l-16 2Z"/><path fill="#FFEAB9" d="M1452 1803a24 24 0 0 1-3-47c230-26 274-174 274-175a24 24 0 1 1 46 13c-1 2-14 47-60 95a402 402 0 0 1-257 114Z"/><path fill="#431426" d="M1452 1808a28 28 0 0 1-3-57c225-25 269-170 270-172a28 28 0 0 1 54 16c0 2-14 48-61 97a407 407 0 0 1-260 116Zm294-240a20 20 0 0 0-19 14c0 1-45 152-277 178a19 19 0 1 0 4 39c134-15 211-70 252-113 45-47 58-92 59-93a19 19 0 0 0-14-24l-5-1Z"/><path fill="#0BBFA4" d="M1694 1600c98 14 74 46 62 46l59-65-85-47-36 66Z"/><path fill="#431426" d="M1756 1651a4 4 0 1 1 0-9 8 8 0 0 0 7-8c1-9-17-22-69-30l-2-1a5 5 0 0 1-2-2v-2a4 4 0 0 1 3-4h2c69 10 78 29 77 40a17 17 0 0 1-16 16Z"/><path fill="#FFFAF4" d="M1428 1729s-6-14 20-21c25-6 24 36 35 58 12 22 27 47 10 59-16 12-37-12-37-12s-32 43-99 57c-66 14-178-6-157-40 0 0-27-11-19-30 10-29 40-2 90-6 50-3 88-8 92-19s-9-18-59-22c-50-3-36-51 2-44 37 8 47 8 65 11 17 3 47-2 57 9Z"/><path fill="#431426" d="M1308 1878c-47 0-98-10-112-29a18 18 0 0 1-2-17c-11-6-24-18-18-34 9-21 26-18 45-13 16 4 33 6 50 5 23-2 84-6 88-17a3 3 0 0 0 0-3c-2-3-12-9-55-12-24-2-32-12-35-18a23 23 0 0 1 4-24c7-10 20-14 34-11 28 6 40 7 52 9l13 2 18 1c12 0 25 0 34 4l1-3c4-7 11-11 22-14 22-5 28 17 33 37 2 8 4 15 8 23l3 6c11 21 23 46 5 59-15 11-32-2-40-9-9 11-42 42-98 54-16 3-33 5-50 4Zm-109-88c-7 0-11 3-14 11-6 15 16 25 17 25a4 4 0 0 1 2 3 5 5 0 0 1 0 4 9 9 0 0 0 0 11c15 21 97 33 152 21 64-13 96-54 96-55a5 5 0 0 1 6-1l1 1c1 0 19 21 32 11 11-8 3-24-9-47l-3-6-8-25c-6-23-10-33-22-30-8 2-14 5-16 9l-1 6a4 4 0 0 1-7 4c-6-6-22-6-35-6l-20-1-12-2-53-9c-10-2-20 1-25 7a14 14 0 0 0-3 15c4 7 13 12 27 13 38 2 56 7 62 16a12 12 0 0 1 1 11c-4 12-28 18-96 23-21 1-38-2-51-5l-21-4Z"/><path fill="#431426" d="M1448 1770a4 4 0 0 1-4-3c-4-13-10-25-19-34a4 4 0 1 1 6-7c10 11 18 24 21 39a5 5 0 0 1-3 5h-1ZM1276 1845a302 302 0 0 1-80-13 4 4 0 0 1 2-6h3c1 0 54 16 108 8a5 5 0 0 1 3 8l-2 1-34 2Z"/><path fill="#FFFAF4" d="M1482 1501c-8-3-17-5-26-6a136 136 0 0 0-67 11c-9-40-11-81-7-122a45 45 0 1 1 90 10c-5 54 5 93 10 107Z"/><path fill="#431426" d="M1389 1510a5 5 0 0 1-4-3c-10-41-12-82-7-123a50 50 0 0 1 90-24c7 10 10 22 9 34a241 241 0 0 0 10 108 4 4 0 0 1-6 3c-8-3-17-5-26-6a130 130 0 0 0-64 11h-2Zm39-162a41 41 0 0 0-41 36c-5 39-3 78 5 115l10-3a139 139 0 0 1 73-2c-5-18-12-54-7-101a41 41 0 0 0-41-45h1Z"/><path fill="#431426" d="m1452 1403-1 8-24 27 22-7c0 21 2 43 6 64-17-2-35 0-51 6-13-65-3-108-2-110a26 26 0 0 1 50 12Z"/><path fill="#431426" d="M1361 1524a4 4 0 0 1-4-3 4 4 0 0 1 2-5c1-1 78-53 149-8a5 5 0 0 1 1 7l-3 2-3-1c-66-42-138 7-139 7l-3 1Z"/><path fill="#FFFAF4" d="m1235 1509-27-6a136 136 0 0 0-66 10c-10-40-12-81-7-121a45 45 0 1 1 90 10c-6 54 5 93 10 107Z"/><path fill="#431426" d="m1142 1518-3-1-2-3c-9-40-11-82-7-123a50 50 0 0 1 90-23c8 10 11 22 9 34a241 241 0 0 0 10 108 4 4 0 0 1-6 3c-8-3-17-5-25-6a130 130 0 0 0-65 10l-1 1Zm38-162a41 41 0 0 0-41 36c-4 39-2 77 6 115a165 165 0 0 1 63-9l20 4c-5-19-13-54-7-101a41 41 0 0 0-41-45Z"/><path fill="#431426" d="m1205 1411-2 8-24 26 23-6c-1 21 1 43 6 64-17-2-35 0-52 5-13-65-2-108-1-110a26 26 0 0 1 50 13Z"/><path fill="#431426" d="M1114 1532a4 4 0 0 1-4-2 4 4 0 0 1 0-5l1-1c1-1 78-53 149-8a5 5 0 0 1 2 3v2a4 4 0 0 1-7 3c-65-42-138 6-139 7l-2 1ZM1308 1533h-1c-9-1-27-8-31-28-2-10 0-17 6-23 15-14 48-8 50-8a5 5 0 0 1 3 5l-1 3-4 1c-8-2-32-4-42 5-3 4-4 9-3 15 3 19 23 22 23 22a5 5 0 0 1 5 5 5 5 0 0 1-5 4v-1ZM1301 1682l-11-2c-22-7-22-33-22-48v-4c0-3-4-8-7-13-8-10-19-24-5-41 25-29 73-1 75 1a5 5 0 0 1 2 2 4 4 0 0 1-7 5s-43-25-63-3c-9 11-4 19 5 31 4 6 9 11 9 18v4c0 14 0 35 16 40 24 7 46-25 46-25l3-2h3l2 3v4c-1 1-20 30-46 30Z"/><path fill="#431426" d="M1324 1646s-10-58-33-50c-22 9-8 36 29 49l4 1ZM1494 1285a4 4 0 0 1-4-3c-4-14-16-25-33-29-16-3-33 1-42 12a4 4 0 0 1-6 0 4 4 0 0 1 0-6c11-13 30-19 50-14 20 4 35 18 40 35a4 4 0 0 1-4 5h-1ZM1120 1292a5 5 0 0 1-3-1l-1-1a4 4 0 0 1-1-3c5-17 21-30 41-34 20-3 40 3 50 17a4 4 0 0 1-7 6c-9-11-25-17-41-14-17 3-30 14-34 27a4 4 0 0 1-4 3Z"/></svg>