<svg xmlns="http://www.w3.org/2000/svg" width="3000" height="3000" fill="none"><path fill="#9CC" d="M1490 2539c-2 5-15 28-38 51-35 34-81 55-130 57-111 6-152-35-154-40-1-2-3-28-2-47 1-28 7-68 27-96 34-50 78-50 78-50l58-95s-25-47 41-50c63-3 121 38 90 72a2948 2948 0 0 0 27 156c2 16 4 39 3 42Z"/><path fill="#431426" d="M1302 2652c-96 0-135-36-138-43-2-4-3-35-2-50 0-23 5-66 27-98 31-44 69-50 79-51l56-92c-3-5-8-21 0-34 7-12 23-19 46-20 44-1 88 17 100 43 5 12 3 24-6 35l12 66 16 89c2 13 3 39 2 43-2 7-15 30-39 53a203 203 0 0 1-153 59Zm-130-47c5 8 49 43 149 38 48-3 94-23 128-57 22-22 34-43 36-49 1-13 0-26-2-39-3-20-8-50-16-88l-12-69v-2l1-1c8-9 10-18 6-27-9-19-47-39-92-38-20 1-33 6-38 16-7 12 1 28 1 28a4 4 0 0 1 0 4l-59 96a5 5 0 0 1-4 2s-41 1-74 47c-20 30-25 72-26 94 0 15 0 30 2 45Z"/><path fill="#F57162" d="M1490 2539c-2 5-15 28-38 51-4-8-7-30-10-44-21-91 30-137 30-137 5 30 12 64 15 88 2 16 4 39 3 42Z"/><path fill="#431426" d="M1452 2594h-1a5 5 0 0 1-3-2c-3-6-5-18-8-30l-3-14v-1c-21-92 30-139 32-141a5 5 0 0 1 4-1 5 5 0 0 1 3 3l16 89c2 13 3 39 2 43-2 7-15 30-39 53l-3 1Zm-6-48 3 14 5 21c19-20 29-39 31-44 0-13 0-26-2-39l-14-79c-12 15-39 58-23 126v1ZM1390 2481l-3-1-1-1c-27-59-115-60-116-60a4 4 0 0 1-4-5 4 4 0 0 1 4-4c4 0 95 1 124 65a5 5 0 0 1 0 3 5 5 0 0 1-2 3h-2Z"/><path fill="#FFFAF4" d="M1490 2539c-2 5-15 28-38 51-35 34-81 55-130 57-111 6-152-35-154-40-1-2-3-28-2-47 35 20 99 46 164 38 45-5 84-27 112-51 17-15 32-32 45-50 2 16 4 39 3 42Z"/><path fill="#431426" d="M1302 2652c-96 0-135-36-138-43a266 266 0 0 1-2-52 4 4 0 0 1 4-2l2 1c25 14 90 46 162 37 49-6 86-30 109-50a321 321 0 0 0 47-50 4 4 0 0 1 5 1l1 3c2 13 4 39 2 43-2 7-15 30-39 53a203 203 0 0 1-153 59Zm-130-47c5 8 49 43 149 38 48-3 94-23 128-57 22-22 34-43 36-49 1-9 0-19-1-28-12 15-25 28-39 41-24 20-62 46-114 52-69 9-131-19-161-35l2 38ZM1346 2338h-1c-9-3-16-9-20-17l-1-2a5 5 0 0 1 2-3l1-1a4 4 0 0 1 4-1 5 5 0 0 1 2 3c3 6 9 10 15 13a4 4 0 0 1 3 5l-2 2-3 1ZM1437 2354l-4-2a4 4 0 0 1 0-6l4-1c14 0 19-7 19-7a5 5 0 0 1 6-1 4 4 0 0 1 2 6c-1 1-8 11-27 11Z"/><path fill="#F57162" d="M1358 2413c-57-10-65-35-65-35l20-34s16 24 57 30c43 7 71-11 75 12 5 33-51 33-87 27Z"/><path fill="#431426" d="M1395 2420c-13 0-25-1-37-3-59-10-69-37-70-38a5 5 0 0 1 1-3l20-34a4 4 0 0 1 4-2 4 4 0 0 1 4 2s15 22 54 28c14 2 28 2 42 0 18-1 34-2 36 15a24 24 0 0 1-6 22c-10 11-30 13-48 13Zm-36-12c30 5 65 5 77-7a15 15 0 0 0 5-14c-2-9-7-9-27-8-15 2-30 2-45 0-31-5-48-19-55-27l-16 26c3 6 17 23 61 30Z"/><path fill="#FFEAB9" d="M1395 2322h-4a26 26 0 0 1-23-27c19-203-9-446-9-449a25 25 0 1 1 50-6c1 10 29 251 10 459a25 25 0 0 1-24 23Z"/><path fill="#431426" d="M1393 2327h-2a30 30 0 0 1-27-33c18-201-10-445-10-447a30 30 0 0 1 60-7c1 10 29 251 9 460a30 30 0 0 1-28 27h-2Zm-9-505h-3a21 21 0 0 0-18 24c0 2 28 246 9 449a21 21 0 1 0 42 4c20-208-8-448-9-458a21 21 0 0 0-21-19ZM1422 2401a7 7 0 1 0 0-15 7 7 0 0 0 0 15ZM1367 2402a7 7 0 1 0 0-15 7 7 0 0 0 0 15ZM1319 2384a7 7 0 1 0 0-14 7 7 0 0 0 0 14ZM1298 2629l-24-1a5 5 0 0 1-4-5 5 5 0 0 1 5-4h35a5 5 0 0 1 4 8l-3 1-13 1Zm48-5a5 5 0 0 1-4-8l3-1a215 215 0 0 0 36-10 5 5 0 0 1 3 1l1 1v2a5 5 0 0 1-1 3l-2 1a228 228 0 0 1-36 11Zm-107-3h-1a269 269 0 0 1-37-13 5 5 0 0 1 6-6 258 258 0 0 0 36 12l1 4a5 5 0 0 1-5 4v-1Zm174-23-3-1-1-2a5 5 0 0 1 2-5 223 223 0 0 0 30-22h2a5 5 0 0 1 3 2 4 4 0 0 1 0 5l-1 1a231 231 0 0 1-32 22Zm-240-4h-3l-6-5a5 5 0 0 1 5-7l6 4 2 2a5 5 0 0 1-1 5l-3 1Zm295-42a5 5 0 0 1-4-2 4 4 0 0 1 0-4l1-1a177 177 0 0 0 22-30l1-1a4 4 0 0 1 5 2 4 4 0 0 1 1 3l-1 2a181 181 0 0 1-23 31h-2Z"/><path fill="#9CC" d="m1931 2525-3 41s-39 41-156 37a500 500 0 0 1-222-63c-1-1 0-25 1-42l9-93 9-78a26 26 0 0 1-5-31c9-18 28-35 93-29s46 52 46 52l84 73a105 105 0 0 1 84 7c53 30 61 90 60 126Z"/><path fill="#431426" d="M1789 2607h-17a498 498 0 0 1-225-65c-3-3 0-44 0-44a4185 4185 0 0 1 18-170 29 29 0 0 1-5-34c10-18 29-36 97-32 23 2 39 9 47 22 8 12 6 27 4 33l80 70a109 109 0 0 1 85 8c56 31 63 95 62 130a668 668 0 0 1-4 44c-1 2-38 38-142 38Zm-235-70a491 491 0 0 0 218 61c103 4 145-28 152-34l2-39c1-33-5-93-57-122-40-22-79-7-80-6h-2l-2-1-85-74a4 4 0 0 1-1-5s6-16-2-28c-7-10-20-16-40-17-63-4-80 11-89 27a21 21 0 0 0 4 25l2 1v3l-9 78a3473 3473 0 0 0-11 131Z"/><path fill="#431426" d="M1719 2467a5 5 0 0 1-3-1l-1-1a4 4 0 0 1 0-4 115 115 0 0 1 73-73 4 4 0 0 1 4 3 4 4 0 0 1-3 6c-1 0-46 13-65 67a4 4 0 0 1-5 3ZM1686 2340l-3-1a5 5 0 0 1-1-6l2-2c6-3 11-8 15-14l2-2a5 5 0 0 1 6 4v2c-4 8-11 15-20 19h-1ZM1591 2344h-1c-10-2-18-7-24-14l-1-2a5 5 0 0 1 1-5 5 5 0 0 1 7 1c5 6 11 10 18 11l4 2a5 5 0 0 1-1 6l-3 1Z"/><path fill="#F57162" d="M1627 2574c-51-17-75-32-77-35-2-2 5-79 11-134 0 0 80 45 66 169Z"/><path fill="#431426" d="M1627 2577h-2c-48-16-75-31-78-35-2-1-3-3 1-50a3284 3284 0 0 1 11-91 5 5 0 0 1 4 0 171 171 0 0 1 67 174l-1 1-2 1Zm-73-40c4 3 25 15 69 29 12-89-40-138-59-153l-10 124Z"/><path fill="#FFFAF4" d="m1931 2520-3 46s-39 41-156 37a500 500 0 0 1-222-63c-1-1 0-25 1-42 18 8 166 68 276 54 60-8 89-23 104-32Z"/><path fill="#431426" d="M1789 2607h-17a498 498 0 0 1-225-65c-3-3 0-44 0-44a5 5 0 0 1 4-5l2 1c25 11 169 67 273 54 65-9 93-26 102-32a5 5 0 0 1 7 4 990 990 0 0 1-4 49c-1 2-38 38-142 38Zm-235-70a491 491 0 0 0 218 61c103 4 145-28 152-34l2-36c-14 8-44 22-99 29-99 12-235-36-271-52l-2 32Z"/><path fill="#FFEAB9" d="M1632 2322h4a25 25 0 0 0 24-27 2546 2546 0 0 1 23-458 25 25 0 0 0-50 3c-2 10-37 250-24 458a26 26 0 0 0 23 24Z"/><path fill="#431426" d="M1634 2327h-2a30 30 0 0 1-28-28c-13-209 23-450 24-460a30 30 0 0 1 60 9c-1 3-36 245-24 447a30 30 0 0 1-28 32h-2Zm24-504a21 21 0 0 0-21 18c-1 10-37 249-24 457a21 21 0 0 0 20 20h3a21 21 0 0 0 19-22 2550 2550 0 0 1 23-457 21 21 0 0 0-17-16h-3Z"/><path fill="#F57162" d="M1692 2407c55-17 62-44 62-44l-29-25s-9 21-49 32c-42 12-73-2-73 21-1 34 54 26 89 16Z"/><path fill="#431426" d="M1639 2420c-12 0-24-2-31-8a24 24 0 0 1-10-21c1-18 16-19 34-19 14-1 29-3 42-6 38-11 47-30 47-30l1-1 2-1a5 5 0 0 1 4 1l28 24a4 4 0 0 1 2 5c0 1-8 30-65 47-6 2-31 9-54 9Zm87-75c-5 7-19 21-49 29-15 4-30 6-45 6-20 1-25 2-25 11a15 15 0 0 0 6 14c14 10 49 6 78-3 42-13 54-31 57-38l-22-19Z"/><path fill="#431426" d="M1627 2402a7 7 0 1 0 0-15 7 7 0 0 0 0 15ZM1681 2395a7 7 0 1 0 0-15 7 7 0 0 0 0 15ZM1725 2374a7 7 0 1 0 0-15 7 7 0 0 0 0 15ZM1771 2583l-14-1a4 4 0 1 1 0-9l14 1h2a413 413 0 0 0 23 0 4 4 0 0 1-3 8l-20 1h-2Zm58-4a4 4 0 0 1-5-4l1-4 3-1a394 394 0 0 0 39-6l1 1a4 4 0 0 1-3 7l-35 7h-1Zm-108-1a479 479 0 0 1-39-9v-1a4 4 0 0 1 5-5 416 416 0 0 0 38 8l1 3a4 4 0 0 1-5 5v-1Zm178-15a4 4 0 0 1-1-9 209 209 0 0 0 33-13l2 2a4 4 0 0 1 0 6 171 171 0 0 1-34 14Zm-248-1h-1a744 744 0 0 1-37-14 5 5 0 0 1 2-6h4a723 723 0 0 0 36 13l1 3a4 4 0 0 1-5 4Zm-67-24-2-1-33-14-3-3a4 4 0 0 1 3-5h4a611 611 0 0 0 35 16 5 5 0 0 1-1 6l-3 1Z"/><path fill="#BE6956" d="M2144 694c-88 102-105 72-117 111-8 27 93 993-20 1064-130 82-606 109-861 102-67-1-119-5-146-11-125-29-179-89-187-302-9-213-20-765-37-808-17-42-197-3-188-205 8-201 256-239 356-239 62 0 101 5 145 6h1c31 0 62-2 93-6 104-12 239 3 369 15 127 11 342-103 450-60s230 230 142 333Z"/><path fill="#431426" d="m1223 1977-77-1c-70-2-120-6-147-12-70-16-112-41-140-83-31-46-47-115-51-223l-7-222c-8-233-17-553-30-584-4-11-24-16-47-22-58-16-147-40-141-185 4-89 53-156 147-199 71-32 157-44 213-44a1528 1528 0 0 1 146 5c31 1 62-1 93-5 94-11 214 0 331 11l40 3c55 5 129-14 201-34 92-24 188-49 249-25 74 29 148 119 170 205 13 53 4 100-26 135-49 57-77 74-93 83-13 8-18 11-22 26-2 6 2 65 7 138 10 142 25 356 26 546 2 232-16 358-55 383-74 46-251 72-386 85-145 14-291 19-401 19ZM944 411c-14 0-342 3-352 235-5 137 76 159 135 175 26 7 47 13 53 28 13 32 22 340 30 587l7 222c9 219 67 270 184 297 26 6 77 10 145 12 281 7 736-25 859-102 85-54 43-661 25-920-6-93-9-135-7-141 6-19 13-24 26-32 16-9 43-25 92-81 35-41 32-92 23-127-20-82-94-171-164-199-59-23-153 2-243 26-73 19-148 39-205 34l-40-3c-116-11-236-22-329-11a670 670 0 0 1-150 3c-26-2-54-3-89-3Z"/><path fill="#FFEAB9" d="M2144 694c-88 102-105 72-117 111-8 27 93 993-20 1064-130 82-606 109-861 102-125-28-178-100-187-313-8-213-26-779-43-822s-190-4-182-206c9-202 256-218 356-218 31 0 62-2 93-6 104-12 239 3 369 15 127 11 342-103 450-60s230 230 142 333Z"/><path fill="#431426" d="m1223 1977-77-1h-1c-68-16-111-43-140-89-30-49-46-120-50-229l-5-140c-9-242-24-646-38-680-4-11-22-16-45-23-57-16-143-41-137-185 8-194 229-222 360-222 30 0 61-2 92-6 94-11 214 0 331 11l40 3c55 5 130-14 201-34 93-24 188-49 249-25 74 29 149 119 170 205 13 54 4 100-26 135-49 57-77 74-93 83-13 8-18 11-22 26-2 6 2 65 7 139 10 141 25 355 26 545 2 233-16 358-55 383-74 46-251 72-386 85-145 14-291 19-401 19Zm-76-10c281 7 735-25 858-102 85-54 43-661 25-920-6-93-9-135-7-141 6-19 13-24 26-32 16-9 43-25 92-81 35-41 32-92 23-127-20-82-94-171-164-199-59-23-153 2-243 26-73 19-148 39-205 34l-40-3c-116-11-236-22-329-11-31 4-62 6-93 5-128 0-343 28-351 214-6 138 73 160 130 176 26 8 46 13 52 28 14 36 28 426 38 683l5 141c8 201 54 280 183 309Z"/><path fill="#FFD073" d="M1937 910v-11c3-49 13-91-9-126-24-37-109-82-119-110-11-29-22-72-48-87-26-16-72-2-100-20-28-17-80-52-115-52s-100 50-137 50-167-9-195 6c-29 16-60 97-115 118-37 14-22 95-37 128-15 32-39 56-24 89 15 32 21 78 7 107-16 33-33 43-33 72 0 53 19 70 21 119 2 41-19 65-21 91-3 43 38 42 33 94-4 52-30 133-6 162 24 28 25 41 36 86 11 46-18 77-16 116s88 134 83 158c-4 24-24 108-4 130 19 22 65 48 93 26 28-21 24-30 57-41 32-11 34-37 63-54 28-18 33-18 75-11 42 6 50 19 73-2 23-22 53-50 101-46s152 4 176-22 96-41 106-69c11-28 3-76 16-106 13-31 15-44 15-76 0-33 54-63 50-107-5-43-24-80-13-124 11-43 13-82 13-123 0-42-37-139-26-167 11-29 37-44 26-76-11-33-31-85-26-122Z"/><path fill="#431426" d="M1206 2069c-27 0-57-20-72-36-18-21-5-91 2-124l2-10c2-10-18-40-36-66-23-34-46-69-48-91-1-17 5-33 9-49a118 118 0 0 0 4-80c-8-34-11-46-31-71-19-21-11-69-3-115l8-49c2-25-7-37-17-49-9-11-18-23-17-45 1-12 5-22 10-34 6-16 13-34 11-57-1-18-4-36-10-53-5-18-11-37-11-66 0-20 8-32 18-46l16-28c14-28 7-73-7-103-13-27-1-49 12-71l12-22c5-11 6-30 8-49 2-35 5-72 31-81 32-12 57-47 77-75 13-19 25-36 38-43 23-12 107-9 162-7l35 1c18 0 44-13 68-26 26-12 51-24 69-24 33 0 78 28 109 47l8 5c14 9 33 10 51 10 17 1 36 2 49 10 23 13 35 46 44 73l6 16c5 13 30 32 54 51 26 20 53 40 65 59 19 29 16 63 12 101l-2 28v3l-1 8c-4 33 13 80 23 111l3 8c8 24-2 40-12 55-6 8-10 16-14 24-6 15 4 55 13 91 7 29 13 57 14 75 0 49-4 86-14 125-7 27-1 52 5 78 4 15 7 29 8 44 3 26-14 47-28 66-11 14-22 28-22 41 0 32-2 46-15 77-7 16-8 36-8 56-1 19-2 37-7 51-7 17-32 29-58 41-20 9-40 19-50 29-27 30-141 27-179 24-46-5-76 24-98 44-18 17-29 15-49 9l-28-6c-41-6-45-6-72 11-12 7-19 16-26 24-9 12-18 24-38 30-20 7-25 12-33 21l-22 20c-8 6-18 9-28 9Zm92-1513c-36 0-70 2-82 8-10 6-22 22-35 40-21 29-46 65-81 78-20 8-23 41-25 73-2 21-3 40-9 53l-12 22c-13 22-23 40-12 63 14 31 23 78 7 111l-17 29c-9 14-16 24-16 41 0 28 5 45 11 63s9 37 10 55c2 26-6 45-12 61-4 11-8 21-9 31-1 19 7 29 15 39 10 13 21 27 19 55l-8 51c-7 41-15 89 0 107 22 26 26 41 34 75l3 14c6 27 0 49-7 70-5 16-9 31-9 47 2 19 25 54 46 86 25 37 40 60 38 73l-2 9c-6 27-20 99-4 117 20 22 63 44 87 26 8-6 15-12 21-19 9-9 15-16 37-23 17-6 25-16 34-27 8-10 15-19 28-27 30-18 36-18 79-12l29 7c18 5 25 6 40-8 23-21 54-51 105-46 57 5 151 2 172-21 11-12 32-22 52-31 23-11 48-23 53-37 5-12 6-30 7-48 0-20 1-42 9-58 13-31 14-43 14-74 0-17 12-31 24-47 14-18 29-37 26-59-1-15-4-29-8-43-6-27-12-53-5-83 10-38 14-74 14-122 0-17-7-46-14-73-10-40-19-79-12-96 3-9 8-18 14-26 10-15 19-27 12-47l-3-8c-12-34-28-81-24-116l1-6v-4l2-28c3-37 6-69-11-95-11-18-37-38-62-57-27-20-52-39-58-55l-6-16c-9-25-20-57-40-68-11-7-28-8-45-9-19-1-39-1-55-11l-8-5c-28-18-74-46-104-46-16 0-41 12-65 24-26 12-52 26-72 26l-35-1-76-2Z"/><path fill="#431426" d="M1190 774c-30 0-64-18-66-19a5 5 0 0 1-2-6 5 5 0 0 1 6-2c1 0 56 29 82 13 9-6 18-14 25-23 8-9 15-17 28-19 19-3 37-18 40-25a4 4 0 1 1 8 3c-3 10-24 28-46 31-10 1-15 7-23 16s-17 18-28 25c-7 4-16 6-24 6ZM1509 830c-16 0-36-23-38-26a5 5 0 0 1 0-7 5 5 0 0 1 6 0l1 1c8 10 26 28 35 22l12-10c7-7 15-14 26-14 14 0 21 0 26-11a5 5 0 0 1 8 3c-7 17-20 17-34 17-8 0-13 5-20 12l-13 10-9 3ZM1798 988c-5 0-9-1-12-4-16-15-30-19-48-15-17 3-30-4-41-22a5 5 0 0 1 2-6 4 4 0 0 1 6 2c9 14 18 20 31 17 21-5 37 0 56 17a9 9 0 0 0 9 2c17-3 41-32 43-36a5 5 0 0 1 3-3 5 5 0 0 1 5 3l1 2-1 2c-3 6-29 37-50 41h-4Z"/><path fill="#431426" d="M1187 1235a32 32 0 0 1-26-14 5 5 0 0 1 7-5 23 23 0 0 0 20 10 15 15 0 0 0 14-9c12-26 33-34 62-23a5 5 0 0 1 3 2 5 5 0 0 1 0 4 5 5 0 0 1-3 2 5 5 0 0 1-3 1c-25-10-41-4-51 18a24 24 0 0 1-21 14h-2ZM1579 665l-12-3a32 32 0 0 1-16-27l1-3 4-1a5 5 0 0 1 3 1 5 5 0 0 1 1 3 24 24 0 0 0 12 19 15 15 0 0 0 16-1l9-6c10-8 15-11 42-4a5 5 0 0 1 2 7 5 5 0 0 1-3 1h-2c-23-5-25-3-33 3l-10 7c-4 3-9 4-14 4ZM1206 1660c-16 0-34-8-40-17a4 4 0 0 1 2-6l3-1 3 3c4 6 20 13 34 12 5 0 12-2 15-8l2-6c8-17 12-20 43-14h2a5 5 0 0 1 0 8 5 5 0 0 1-4 1c-26-5-27-4-32 9l-3 6c-4 8-12 12-23 13h-2ZM1621 1875a32 32 0 0 1-27-14v-1a4 4 0 0 1 8-3 23 23 0 0 0 20 9 15 15 0 0 0 14-9c6-14 13-15 25-17a151 151 0 0 0 27-7 4 4 0 0 1 3 2 5 5 0 0 1 2 3l-1 2-1 1-1 1-27 7c-11 2-14 2-19 12a24 24 0 0 1-21 14h-2ZM1675 1409h-2c-11-2-18-13-22-23a5 5 0 0 1 3-6 5 5 0 0 1 5 3c5 10 10 16 15 17 3 0 8-2 12-7 11-13 15-16 20-20l12-9 3-1 3 2a4 4 0 0 1 0 6l-13 10c-5 3-8 6-18 17-6 7-12 11-18 11Z" opacity=".1"/><path fill="#431426" d="M1708 1675h-1c-8 0-16-6-23-17a4 4 0 0 1 8-5c5 8 11 13 16 13a12 12 0 0 0 9-5c8-9 20-15 32-16a39 39 0 0 1 29 11 25 25 0 0 0 20 7 38 38 0 0 0 26-16v-1a137 137 0 0 1 38-38h1a5 5 0 0 1 4 3v2a4 4 0 0 1-1 3c-22 17-25 21-35 35v1a47 47 0 0 1-32 20 34 34 0 0 1-27-9 30 30 0 0 0-23-9c-9 1-19 6-25 13a21 21 0 0 1-16 8ZM1302 1831h-3c-14-2-36-22-45-37a4 4 0 0 1 8-5c8 14 28 31 39 33a4 4 0 0 0 3-1l3-4c8-8 19-20 43-20a70 70 0 0 0 49-25 4 4 0 0 1 7 2v3c-4 8-29 29-56 29-20 0-29 9-36 18l-4 3a11 11 0 0 1-8 4ZM1203 1997h-2c-8-2-11-11-14-21-1-4-3-9-6-13v-4l2-2 3-1 3 2 6 15c2 6 5 14 8 15 1 0 3 0 10-7 6-6 11-13 15-21 5-10 9-17 29-22 27-6 46-36 46-36a4 4 0 0 1 7 0l1 1a5 5 0 0 1 0 4c-1 1-21 32-52 40-17 4-19 9-23 18-5 8-10 16-16 22-4 5-10 10-17 10Z"/><path fill="#431426" d="M2044 524c-9 0-17-9-17-20s8-20 17-20 16 9 16 20-7 20-16 20Zm0-31c-4 0-8 5-8 11s4 11 8 11 7-5 7-11-3-11-7-11ZM1692 526a24 24 0 0 1-19-11c-7-11-6-24 2-30a17 17 0 0 1 15-2c6 2 10 6 14 10 7 11 6 24-3 30l-9 3Zm-7-35-5 2c-4 3-4 10 0 17 4 6 12 8 16 5s5-10 0-17c-2-3-5-5-8-6l-3-1ZM1983 804a14 14 0 0 1-11-7c-2-2-3-6-3-9a11 11 0 0 1 9-10h5l8 6c4 7 3 15-2 18l-6 2Zm-3-17h-1a2 2 0 0 0-1 2l1 3c2 3 4 3 5 3v-6l-3-2h-1ZM1995 1092l-6-1c-5-2-10-5-13-10-7-11-6-24 2-30a17 17 0 0 1 16-2c5 2 10 6 13 10 7 11 6 24-3 30-2 2-6 3-9 3Zm-7-35-4 2c-5 3-5 11-1 17 2 3 5 5 9 6a9 9 0 0 0 7 0c5-3 5-11 1-17-2-4-5-6-9-7l-3-1ZM1951 1670a16 16 0 0 1-12-7c-5-7-4-16 2-20 5-4 14-2 19 5s4 16-2 20l-7 2Zm-4-20h-1c-2 1-2 5 0 8s5 4 7 3c1-1 2-5-1-8a7 7 0 0 0-5-3ZM1969 1860a24 24 0 0 1-19-11c-7-11-6-24 3-30a17 17 0 0 1 15-2c5 2 10 6 13 10 7 11 6 24-2 30-3 2-6 3-10 3Zm-7-35-4 2c-5 3-5 10 0 17 4 6 11 8 15 5 5-3 5-10 1-17-2-3-5-5-9-6l-3-1ZM1604 1941l-3-1c-4-1-6-3-8-6s-3-6-3-10a11 11 0 0 1 9-10h5c4 1 6 3 8 6 5 7 4 15-1 19l-7 2Zm-3-18h-1l-1 1v1l1 4 3 2 1 1 1-1c2 0 2-3 0-6a7 7 0 0 0-4-3v1ZM1126 1815l-6-1c-5-1-10-5-13-10-7-10-6-23 2-29a17 17 0 0 1 16-2c5 2 10 5 13 10 7 10 6 24-3 29-2 2-6 3-9 3Zm-7-34-4 1c-5 3-5 11-1 17 3 3 5 6 9 7a8 8 0 0 0 7-1c5-3 5-11 1-17-2-3-5-5-9-6l-3-1ZM1000 1613a14 14 0 0 1-11-6c-4-6-4-14 2-18 5-4 13-2 17 5 2 2 3 6 3 9a11 11 0 0 1-5 8c-2 2-4 2-6 2Zm-3-17h-1v6c2 2 4 3 5 2l1-1v-1l-1-3a5 5 0 0 0-4-3ZM1014 1799a18 18 0 0 1-14-8c-5-8-4-17 3-22 6-4 15-2 20 6 6 8 5 17-2 22l-7 2Zm-4-23-2 1c-3 1-2 6 0 9s6 5 8 3c3-1 2-6 0-9a9 9 0 0 0-6-4ZM1063 1318a24 24 0 0 1-19-11c-8-10-6-24 2-29a17 17 0 0 1 15-2c6 1 10 5 14 10 7 10 6 23-3 29l-9 3Zm-8-34-4 1c-4 3-4 11 0 17s11 9 16 6c4-3 4-11 0-17-2-3-5-6-8-7h-4ZM985 1113a18 18 0 0 1-14-8c-6-7-5-17 2-22 6-4 16-1 21 6 2 3 3 8 3 12a13 13 0 0 1-5 10l-7 2Zm-5-23-2 1c-2 1-2 6 0 9s6 5 9 4a4 4 0 0 0 1-4c0-2 0-4-2-6a9 9 0 0 0-6-4ZM1016 808c-4 0-7-1-10-3-8-6-9-19-2-29 7-11 19-15 28-9s10 19 3 30c-3 4-8 8-13 10l-6 1Zm7-34a15 15 0 0 0-12 7c-4 6-4 14 0 17a8 8 0 0 0 8 0c3-1 6-3 8-6 4-6 4-14 0-17-1-1-3-2-4-1ZM864 536a18 18 0 0 1-14-8c-2-3-4-7-3-11a13 13 0 0 1 17-12c4 1 7 4 9 7 3 4 4 8 4 12a13 13 0 0 1-6 10c-2 2-4 2-7 2Zm-5-23-2 1a5 5 0 0 0-1 3l1 6c3 4 7 5 9 4a4 4 0 0 0 2-4l-2-6c-1-1-3-3-5-3l-2-1ZM850 707h-2a15 15 0 0 1-10-7c-3-4-4-9-3-13 1-11 9-18 17-18 9 1 15 10 14 21-1 4-3 9-6 12a15 15 0 0 1-10 5Zm1-29c-4 0-7 4-7 9-1 3 0 6 1 8a5 5 0 0 0 9 1c2-2 3-5 3-7 0-6-2-10-6-11ZM1182 500h-2a15 15 0 0 1-10-7c-3-4-4-8-3-13 1-10 9-18 17-17 9 1 15 10 14 20-1 5-2 9-6 13a15 15 0 0 1-10 4Zm1-28c-3 0-7 4-7 9-1 2 0 5 1 7a6 6 0 0 0 4 3 6 6 0 0 0 5-2c2-2 3-4 3-7 1-5-2-10-6-10ZM1510 493h-1a10 10 0 0 1-7-5l-2-8a11 11 0 0 1 12-11 10 10 0 0 1 7 5l2 8a11 11 0 0 1-11 11Zm1-15-2 3 1 2v1s2-1 2-3l-1-3ZM1874 674h-1c-9-1-15-10-14-20 1-5 3-9 6-13a15 15 0 0 1 12-4c8 0 15 10 14 20s-9 17-17 17Zm2-29-5 2-3 8c0 5 2 10 6 10s7-4 8-9c0-5-2-10-6-10v-1ZM1936 459h-1a9 9 0 0 1-7-4c-1-2-2-5-1-7a9 9 0 0 1 6-9 9 9 0 0 1 12 11c0 2-1 5-3 7a9 9 0 0 1-6 2Zm0-12v3-3ZM2072 680h-1a10 10 0 0 1-7-5c-2-2-2-5-2-8a10 10 0 0 1 7-10 10 10 0 0 1 13 12c0 3-1 6-3 8a10 10 0 0 1-7 3Zm0-14-1 1v1a3 3 0 0 0 1 3l1-1v-1a3 3 0 0 0-1-3ZM900 1800l-6-1c-5-2-10-5-13-10-7-11-6-24 2-30 9-6 22-2 29 8 7 11 6 24-3 30-2 2-6 3-9 3Zm-7-35-4 2c-5 3-5 11-1 17 2 3 5 5 9 6a9 9 0 0 0 7 0c5-3 5-11 1-17a15 15 0 0 0-12-8ZM907 1536a18 18 0 0 1-14-8c-5-7-4-17 2-21 6-5 16-2 21 5 2 4 4 8 3 12a13 13 0 0 1-5 10l-7 2Zm-5-23-2 1c-2 1-2 6 0 9 3 4 7 5 9 4a4 4 0 0 0 2-4l-2-6a9 9 0 0 0-7-4ZM837 1302h-6a27 27 0 0 1-18-26 17 17 0 0 1 22-16c6 2 10 5 13 10 4 5 5 10 5 16a17 17 0 0 1-7 14l-9 2Zm-8-34-4 1a8 8 0 0 0-3 7 18 18 0 0 0 11 17 8 8 0 0 0 11-8c0-3-1-7-3-10s-5-5-8-6l-4-1ZM878 1000l-4-1c-4-1-7-4-10-7-2-3-3-8-3-12a13 13 0 0 1 17-11 19 19 0 0 1 13 18 13 13 0 0 1-6 11l-7 2Zm-5-23h-2a4 4 0 0 0-1 4 10 10 0 0 0 7 10 4 4 0 0 0 5-4l-2-6-5-4h-2ZM693 773a18 18 0 0 1-14-8c-3-4-4-8-4-12a13 13 0 0 1 17-12c4 2 8 4 10 8 2 3 4 7 3 11a13 13 0 0 1-5 11l-7 2Zm-5-23h-2a4 4 0 0 0-2 4l2 6c3 3 7 5 9 3a4 4 0 0 0 1-3l-1-6-5-4h-2ZM652 582a24 24 0 0 1-18-11c-8-10-6-23 2-29s21-3 28 8c7 10 6 23-2 29-3 2-6 3-10 3Zm-7-34-4 1c-4 3-4 11 0 17s11 8 16 5c4-3 4-10 0-16a15 15 0 0 0-12-7Z" opacity=".1"/><path fill="#431426" d="M965 1928a4 4 0 1 0 0-7 4 4 0 0 0 0 7ZM908 1871a4 4 0 1 0 0-7 4 4 0 0 0 0 7ZM926 1774a4 4 0 1 0 0-8 4 4 0 0 0 0 8ZM1115 1810a4 4 0 1 0 0-8 4 4 0 0 0 0 8ZM837 1493a4 4 0 1 0 0-8 4 4 0 0 0 0 8ZM820 1024a4 4 0 1 0 0-8 4 4 0 0 0 0 8ZM867 953a4 4 0 1 0 0-8 4 4 0 0 0 0 8ZM805 973a4 4 0 1 0 0-8 4 4 0 0 0 0 8ZM795 918a4 4 0 1 0 0-7 4 4 0 0 0 0 7ZM840 835a4 4 0 1 0 0-8 4 4 0 0 0 0 8ZM809 817a4 4 0 1 0 0-8 4 4 0 0 0 0 8ZM617 597a4 4 0 1 0 0-7 4 4 0 0 0 0 7ZM612 625a4 4 0 1 0 0-8 4 4 0 0 0 0 8ZM620 667a4 4 0 1 0 0-7 4 4 0 0 0 0 7ZM1886 1659a4 4 0 1 0 0-7 4 4 0 0 0 0 7ZM1893 1595a4 4 0 1 0 0-7 4 4 0 0 0 0 7ZM1918 1592a4 4 0 1 0 0-8 4 4 0 0 0 0 8ZM1897 1680a4 4 0 1 0 0-7 4 4 0 0 0 0 7ZM2037 711a4 4 0 1 0 0-7 4 4 0 0 0 0 7ZM2087 740a4 4 0 1 0 0-7 4 4 0 0 0 0 7ZM1978 810a4 4 0 1 0 0-7 4 4 0 0 0 0 7Z"/><path fill="#BE6956" d="M1347 1326c22 22 57 47 130 45 54-2 94-6 139-43 48-38 44-89 12-109-17-11-45-4-74 6-23 7-47 15-70 16-28 2-50-7-70-15-25-9-46-16-72-1-42 24-16 80 5 101Z"/><path fill="#431426" d="M1469 1376c-70 0-104-25-126-47a97 97 0 0 1-27-72 47 47 0 0 1 24-36c28-17 52-7 75 1l2 1c20 8 41 15 67 14 20-1 41-8 62-15l7-2c31-9 59-17 78-5a56 56 0 0 1 25 45c2 25-12 51-37 72-47 38-89 42-142 43l-8 1Zm-97-155a53 53 0 0 0-41 20c-3 5-6 11-6 17-3 24 12 52 25 64 23 23 55 46 126 44 54-1 93-5 137-41 23-19 36-43 35-65a47 47 0 0 0-22-37c-16-10-41-3-71 6l-6 2c-21 7-43 14-64 15h-1c-28 1-50-7-70-15h-2c-13-5-26-10-40-10Z"/><path fill="#FF89A4" d="M1457 1315s-29-29-83 8c-62 41-69 134-54 190 38 151 111 173 183 190 130 31 216-85 158-146-57-58-119-19-141-101-10-36 12-69 42-97 10-9-5-35-31-48-30-15-74 4-74 4Z"/><path fill="#431426" d="M1545 1713c-14 0-29-2-43-5-80-19-149-47-187-194-13-54-10-151 57-195 48-33 77-16 85-9 11-4 48-17 76-3 19 10 34 27 36 41a16 16 0 0 1-4 15c-35 33-49 63-41 91 12 45 36 52 66 61 23 6 49 14 74 39 23 24 26 60 7 92-20 35-66 67-126 67Zm-120-404c-12 0-28 4-49 17-61 42-64 136-52 186 37 142 100 168 180 187 77 18 137-17 159-57 17-30 15-60-6-81-23-24-47-31-70-38-30-9-58-17-72-66-8-33 6-66 44-101a7 7 0 0 0 1-6c-1-10-13-26-31-35-28-14-70 4-71 4a5 5 0 0 1-5-1s-10-9-28-9Z"/><path fill="#431426" d="M1573 1639h-1c-80-22-210-79-186-221 14-82 66-106 69-107a4 4 0 0 1 6 2 4 4 0 0 1-1 5l-2 1c0 1-50 23-64 101-22 134 103 190 180 211l3 1a4 4 0 0 1-1 6l-3 1Z"/><path fill="#FFFAF4" d="M1521 1284a35 35 0 0 0 34-37l-1-22c-23 7-47 15-70 16l1 9a35 35 0 0 0 36 34Z"/><path fill="#FFFAF4" d="M1451 1286a35 35 0 0 0 34-36l-1-9c-28 2-50-7-70-15l1 26a35 35 0 0 0 36 34Z"/><path fill="#431426" d="M1520 1288a40 40 0 0 1-40-38v-8a5 5 0 0 1 4-5c20-1 41-8 62-15l7-2h2a4 4 0 0 1 4 4v23a40 40 0 0 1-38 41h-1Zm-31-42v4a31 31 0 0 0 61-2v-17h-1c-20 6-40 13-60 15Z"/><path fill="#431426" d="M1450 1291a40 40 0 0 1-40-38l-1-26a4 4 0 0 1 2-4 4 4 0 0 1 4-1l2 1c20 8 41 15 67 14a4 4 0 0 1 5 4v9a40 40 0 0 1-38 41h-1Zm-32-58 1 19a30 30 0 0 0 32 30 31 31 0 0 0 29-32v-4c-24 1-44-6-62-13Z"/><path fill="#FFD073" d="M1447 1411s34-8 37 4c4 13-6 30 0 42 7 11 22 30 15 42-6 12-3 23 9 34s31 42 12 52c-19 11-30 2-48 16s-40 15-53 0-25-30-39-32c-15-2-29-16-26-25s-10-30-1-42c10-12 16-56 16-56l47-27c10-4 20-7 31-8Z"/><path fill="#431426" d="M1443 1616a36 36 0 0 1-27-12l-3-4c-12-13-22-25-34-27a40 40 0 0 1-27-16 17 17 0 0 1-3-14c1-3 0-8-1-13-3-9-5-22 2-31a177 177 0 0 0 15-55l2-1 47-28c10-4 21-7 32-9 7-1 38-7 43 8 2 7 1 14-1 21-1 7-2 15 0 20l4 6c8 12 18 28 12 41-6 10-4 18 7 28 10 9 23 29 21 44a20 20 0 0 1-10 15c-7 5-16 7-24 7-8 1-17 3-23 9-9 7-20 11-32 11Zm-70-167c-1 10-7 45-16 56-5 6-2 15 0 23 1 7 3 12 1 17a9 9 0 0 0 2 7 30 30 0 0 0 20 12c15 2 27 16 39 30l4 4c11 13 30 13 46 0 8-7 18-10 28-10 7-1 14-3 20-6a11 11 0 0 0 6-9c2-11-10-29-18-37-14-12-17-25-9-38 4-8-5-23-12-32l-3-7c-5-8-3-17-2-25 1-7 3-13 1-17-1-5-18-5-32-2h-1c-10 2-20 4-29 8l-45 26Z"/><path fill="#431426" d="m1440 1584-3-1-2-3c0-3-2-15 3-21a9 9 0 0 1 7-3l7 1c4 1 4 1 5-2a4 4 0 0 1 4-3 4 4 0 0 1 4 7c-4 9-10 8-15 7l-5-1c-1 1-2 7-1 14a4 4 0 0 1-4 5ZM1419 1501h-1l-3-2v-4s4-14 15-16h3a5 5 0 0 1 2 6l-3 2c-5 1-8 8-8 11a5 5 0 0 1-5 3ZM1463 1197c-16 0-30-9-38-27-10-22-8-49 5-60 20-17 31-6 46 9l12 12c6 5 12 8 16 6 6-1 10-9 11-12l3-3a5 5 0 0 1 6 2v4s-5 15-17 18c-8 2-16-1-25-8l-13-13c-16-15-20-19-33-8-10 8-11 31-3 49 4 10 15 25 35 22a5 5 0 1 1 2 9h-7ZM1608 1132a44 44 0 0 1-44-44v-21a5 5 0 1 1 9 0v21a35 35 0 1 0 70 0v-21a4 4 0 0 1 5-5 4 4 0 0 1 4 5v21a44 44 0 0 1-44 44ZM1335 1139a44 44 0 0 1-44-44v-21a5 5 0 0 1 7-3l2 3v21a35 35 0 1 0 70 0v-21a5 5 0 0 1 8-3l1 3v21a44 44 0 0 1-44 44ZM1268 978a4 4 0 0 1-4-7c22-46 71-36 72-36a4 4 0 0 1 3 2 5 5 0 0 1 0 4l-1 1a5 5 0 0 1-3 2h-1c-2 0-43-9-62 31a5 5 0 0 1-4 3ZM1675 978a5 5 0 0 1-4-3c-20-40-60-31-62-31a5 5 0 0 1-5-6l3-2c1 0 49-11 72 36a5 5 0 0 1-1 4 4 4 0 0 1-3 2Z"/><path fill="#BE6956" d="M876 1165s-5 13-52 3c-55-10-22 160 45 148 27-5 15-33 45-39l-38-112Z"/><path fill="#431426" d="M863 1321c-18 0-34-11-47-32-24-36-31-93-16-115a23 23 0 0 1 25-10c39 8 47 0 47-1a4 4 0 0 1 9 4c-2 4-11 15-58 6a14 14 0 0 0-16 6c-13 19-5 73 16 106 9 14 25 30 45 27 11-2 14-8 18-16 4-9 10-20 27-23a5 5 0 0 1 5 2 4 4 0 0 1 0 5l-2 1-1 1c-13 2-17 9-21 18-4 8-9 18-24 20l-7 1Z"/><path fill="#FFEAB9" d="m892 1468-7-2c-132-40-192-83-191-134 1-35 32-66 95-93a582 582 0 0 1 93-29 26 26 0 0 1 22 30 25 25 0 0 1-20 21c-65 16-138 50-139 73 0 1 1 36 155 84a25 25 0 0 1-8 50Z"/><path fill="#431426" d="m892 1472-8-1c-134-42-196-85-194-139 1-37 33-69 98-97a594 594 0 0 1 95-29 30 30 0 0 1 25 35 30 30 0 0 1-23 24c-68 17-135 51-135 69 0 0 3 34 151 79a30 30 0 0 1-8 59h-1Zm-14-257-5 1c-28 7-55 16-82 27-61 26-91 56-92 90-2 48 58 89 187 129l6 1a21 21 0 0 0 7-41c-152-47-159-82-158-88 0-28 83-63 142-78a21 21 0 0 0-5-41Z"/><path fill="#BE6956" d="M855 1285c5-99-31-82-33-70l76-45 18 92-61 23Z"/><path fill="#431426" d="M855 1290h-1a5 5 0 0 1-4-5c3-53-6-74-16-75a8 8 0 0 0-8 6 4 4 0 0 1-9-2 17 17 0 0 1 19-13c10 2 27 14 23 84a5 5 0 0 1-4 5Z"/><path fill="#9CC" d="m821 1525 324-70s18-72 114-96c63-16 123 1 133 50 12 57-51 104-113 111-83 10-127-35-127-35l-318 103s-20 7-28-26 15-37 15-37Z"/><path fill="#431426" d="M829 1593c-3 0-7 0-10-2-8-4-14-14-17-28-4-13-3-24 3-31 3-6 9-10 16-11l320-70c5-13 29-74 117-96 41-11 81-7 108 9a67 67 0 0 1 30 44c5 21-1 42-14 61-21 29-62 51-103 56-75 9-119-26-128-35l-316 103h-6Zm-7-63c-4 1-8 3-10 7-4 5-4 13-2 24 3 11 8 19 13 22 3 1 6 2 9 1l318-103a5 5 0 0 1 5 1c1 0 44 43 123 34 39-5 77-25 97-53 12-16 16-35 13-53a57 57 0 0 0-27-38c-24-15-62-18-101-9-92 24-111 93-111 93l-1 2-2 2-324 70Z"/><path fill="#431426" d="m1182 1434-2-1a5 5 0 0 1-2-6c12-21 68-53 121-53 38-1 66 14 82 43l1 3a4 4 0 0 1-6 3l-2-2c-19-32-51-39-74-38-49 0-104 29-114 48l-1 2-3 1Z"/><path fill="#FFFAF4" d="M914 1562s22-6 12-35c-8-24-56-12-56-12l-36 8s-18-11-6-41c0 0-30-3-32-24-1-21 55-32 66-40 24-16 71-81 86-16 0 0 58-43 97-17 0 0 38 6 54-4s31-31 42-28c10 3 31 34 4 61s-41 31-41 31 32 35 24 74c-8 38-46 38-46 38s-10 32-51 25c0 0-26 41-66 19 0 0-55 33-91-26l40-13Z"/><path fill="#431426" d="M930 1615c-19 0-42-8-60-37a5 5 0 0 1 2-7l41-13c4-2 7-5 9-8 3-6 3-13 0-21-5-17-38-13-51-10l-36 8-3-1c-1 0-19-11-10-41-9-2-29-9-30-27s27-28 50-36l18-7 18-16c17-16 37-34 54-29 8 3 15 11 19 25 15-10 61-36 96-14 11 2 38 4 50-4l15-12c11-10 21-19 30-16 7 2 16 12 20 25 2 9 3 27-14 43-17 18-30 26-36 30 8 11 28 40 21 73-8 35-38 41-48 42-4 8-17 30-52 25-7 9-32 37-68 19-11 6-23 9-35 9Zm-49-37c33 48 80 20 82 19a5 5 0 0 1 4 0c36 20 59-16 60-17l2-2h2c37 6 46-21 46-22a4 4 0 0 1 4-3c2 0 36-1 43-35 7-36-23-69-23-69a5 5 0 0 1-1-5 4 4 0 0 1 3-3s13-4 39-30c13-13 13-26 11-34-3-11-10-18-14-19-4-2-13 7-21 13l-16 14c-17 11-56 5-57 5l-2-1c-36-24-92 17-93 17a5 5 0 0 1-4 1 5 5 0 0 1-3-3c-3-15-8-23-14-25-12-4-30 13-45 27l-19 16c-6 4-13 7-20 9-17 6-45 15-44 27 1 16 28 19 28 19l2 1 1 1a5 5 0 0 1 1 4c-9 22-1 32 2 35l34-8c2 0 53-12 62 16 3 11 3 20-1 28-3 6-8 10-14 13l-35 11Z"/><path fill="#431426" d="M830 1486h-3l-3-2a4 4 0 0 1 5-7l15-1a4 4 0 0 1 4 0 4 4 0 0 1-2 9l-16 1ZM928 1423a4 4 0 0 1-4-2 5 5 0 0 1 1-5 92 92 0 0 1 22-18 5 5 0 0 1 3 1l1 1a5 5 0 0 1-1 6 85 85 0 0 0-20 17h-2ZM1081 1562h-1a5 5 0 0 1-3-6c17-56-14-79-15-80a5 5 0 0 1-1-6l3-2 3 1c2 1 38 27 19 90l-2 2-3 1ZM1031 1587a4 4 0 0 1-5-6c22-49-6-83-7-85a5 5 0 1 1 7-6c1 2 33 40 9 94a4 4 0 0 1-4 3ZM965 1606a5 5 0 0 1-4-3 5 5 0 0 1 1-5 72 72 0 0 0 7-84 5 5 0 0 1 8-4 82 82 0 0 1-10 95l-2 1ZM1104 1450a5 5 0 0 1-3-2c-32-43-58-59-58-59a4 4 0 0 1 4-8c1 1 28 17 61 62a5 5 0 0 1-1 6l-3 1Z"/><path fill="#FFD073" d="M1394 1394c-17 7-9 24-23 30s-30 0-41 14c-10 14 0 42-19 44-20 1-51-5-60 17-10 22-8 57 22 49s34-27 52-23c17 3 31 10 39 2 7-8 1-29 13-34 11-4 28 0 28-22-1-21 18-40 11-52s-6-32-22-25Z"/><path fill="#431426" d="M1265 1554a21 21 0 0 1-17-7c-10-12-8-34-1-49 8-20 32-20 51-20h12c8-1 9-6 10-19 1-8 2-17 7-23 8-11 18-12 28-13 5 0 10-1 14-3 5-2 6-5 8-11s4-14 15-19a16 16 0 0 1 13-1c6 3 8 10 11 17l4 11c5 8 1 18-4 28-3 8-7 17-7 26 0 20-13 23-22 25l-9 2c-4 1-4 7-5 14s-2 14-6 18c-8 8-19 5-31 2l-12-3c-7-1-11 2-19 7-9 8-20 13-31 16l-9 2Zm29-67c-17 0-33 1-39 14s-7 31 0 40c3 4 9 5 17 3 10-3 20-8 28-15 8-6 14-11 25-9l13 3c11 3 19 5 22 1 2-2 3-8 4-13 1-8 2-18 11-21 3-2 6-3 10-3 9-2 15-3 15-16 0-11 4-21 8-29 3-9 6-16 4-21l-5-12c-2-5-3-10-6-11-2-1-4 0-6 1-7 3-8 7-10 13s-4 13-12 17l-18 3c-8 1-16 2-21 9-4 5-4 12-5 19-1 11-3 26-18 27h-17Z"/><path fill="#431426" d="m1334 1496-3-2-1-3c2-10 11-11 20-12l8-1c5-1 6-3 6-12l1-11c3-16 26-16 27-16a4 4 0 0 1 4 5 4 4 0 0 1-4 4c-1 0-17 0-18 9l-1 9c0 8-1 18-13 20l-9 2c-9 1-12 2-12 4a4 4 0 0 1-5 4ZM1264 1531a4 4 0 0 1-5-4 18 18 0 0 1 17-18 5 5 0 0 1 5 4l-1 3-3 2c-8 1-9 8-9 9a5 5 0 0 1-4 4Z"/><path fill="#FFFAF4" d="m2055 1110 307 160a62 62 0 0 1 33 48c4 34-2 94-50 187-46 87-95 127-126 145a63 63 0 0 1-60 2l-304-159a79 79 0 0 1-39-95 23 23 0 0 0-11-27l-71-38 120-231 72 37a24 24 0 0 0 28-6 79 79 0 0 1 101-23Z"/><path fill="#431426" d="M2188 1663c-11 0-22-2-31-7l-304-159a83 83 0 0 1-41-101 18 18 0 0 0-9-21l-71-38a5 5 0 0 1-2-6l120-231a5 5 0 0 1 6-2l72 37a19 19 0 0 0 23-5 84 84 0 0 1 106-24l307 160a67 67 0 0 1 35 52c4 34-1 94-51 189-45 88-94 129-127 147-10 6-22 9-33 9Zm-448-332 67 36a27 27 0 0 1 14 32 75 75 0 0 0 36 90l304 159a58 58 0 0 0 56-2c31-18 79-57 124-144 48-92 53-151 50-184a58 58 0 0 0-31-44l-307-160a75 75 0 0 0-95 21 28 28 0 0 1-34 8l-68-35-116 223Z"/><path fill="#FFFAF4" d="M1828 1235c33-64 45-123 26-133-18-9-60 34-93 98-33 63-45 123-27 132 19 10 61-34 94-97Z"/><path fill="#431426" d="M1740 1338c-3 0-5 0-8-2-12-6-14-29-5-63 7-26 17-51 30-75 27-53 61-93 84-101a19 19 0 0 1 15 1c16 8 15 41-2 87-6 18-14 35-22 52-27 50-59 90-82 99h-1l-9 2Zm109-233-5 1c-21 6-53 46-79 96-13 23-22 48-30 73-9 34-5 50 1 53a12 12 0 0 0 10 0c21-8 53-48 78-95 8-17 16-33 22-51 16-46 15-72 6-76l-3-1Z"/><path fill="#F57162" d="M2284 1229s8 75-64 211c-72 135-141 170-141 170l-206-107s69-35 142-170c72-136 63-211 63-211l206 107Z"/><path fill="#431426" d="M2079 1614h-2l-206-107a4 4 0 0 1-2-4 5 5 0 0 1 2-4c1-1 69-36 140-168 70-133 63-208 63-209a5 5 0 0 1 4-5l2 1 205 107a4 4 0 0 1 3 3c0 4 8 78-64 214-72 135-141 171-144 172h-1Zm-196-111 196 102c11-7 73-48 137-168 64-119 64-192 63-205l-196-102c0 22-5 93-64 205a441 441 0 0 1-136 168ZM1842 1264l-3-1a5 5 0 0 1-2-4l1-2a266 266 0 0 0 43-125l3-2 2 1 1 1 1 1v2a269 269 0 0 1-44 128l-2 1ZM1792 1354a4 4 0 0 1-2-8c0-1 39-22 76-98a4 4 0 1 1 8 4c-38 79-79 101-80 102h-2ZM1751 1280h-1a5 5 0 0 1-3-6s22-71 67-128a5 5 0 0 1 3-1 5 5 0 0 1 4 7c-44 55-65 124-65 125a4 4 0 0 1-5 3Z"/><path fill="#FFD073" d="M2109 1411c12 1 22-12 43-13 20-1 38 11 37 26 0 15-7 34-30 35-26 1-35-14-47-14-12 1-20 13-37 13-21 0-39-13-40-30 0-16 17-34 38-31 13 1 30 14 36 14Z"/><path fill="#431426" d="M2157 1464c-11-1-22-4-32-10l-12-4c-5 1-10 2-14 5-6 4-14 8-24 8-24-1-43-16-44-34a35 35 0 0 1 12-27 39 39 0 0 1 31-10c8 1 17 6 24 10l12 5c4 0 8-2 13-5 9-5 19-8 29-9a44 44 0 0 1 33 11 27 27 0 0 1 9 20c0 19-10 39-35 40h-2Zm-44-23c6 0 11 3 16 5 9 6 19 9 30 9 23-1 26-22 26-31a18 18 0 0 0-6-13 35 35 0 0 0-26-9c-9 1-18 4-26 8-6 3-11 6-18 6-4 0-9-3-15-6-7-4-15-8-21-9a30 30 0 0 0-31 17l-2 10c0 14 16 26 35 26 8 0 14-3 20-7 5-3 11-5 17-6h1Z"/><path fill="#431426" d="m2173 1433-123-1-4-2a4 4 0 0 1 0-6l4-1 123 1a4 4 0 0 1 5 5 4 4 0 0 1-5 4Z"/><path fill="#FFD073" d="M2128 1344c6 11 22 12 34 30 11 17 9 38-4 45-13 8-33 12-46-8-14-21-5-37-12-47s-21-11-30-26c-10-18-8-40 6-49s38-3 46 17c6 12 3 32 6 38Z"/><path fill="#431426" d="M2137 1430a33 33 0 0 1-28-16c-7-11-10-22-10-35 0-5 0-9-2-13l-11-8c-7-4-14-8-19-17-12-21-9-45 6-55a35 35 0 0 1 29-4 39 39 0 0 1 25 22c3 7 3 17 4 26l1 12c2 4 6 6 11 10 9 5 17 12 23 20a44 44 0 0 1 7 34 26 26 0 0 1-13 17c-7 5-15 7-23 7Zm-46-140c-4 0-9 1-13 3-11 7-13 27-4 43 4 7 10 10 16 14 6 3 10 7 14 11 4 6 4 12 4 18 0 11 3 21 8 30 12 19 32 11 40 7a18 18 0 0 0 8-12 35 35 0 0 0-6-27c-5-7-12-14-20-18-5-4-11-7-14-13-2-3-2-9-2-16-1-8-1-17-4-23a30 30 0 0 0-27-17Z"/><path fill="#431426" d="m2146 1413-3-1-1-2-62-107v-3a5 5 0 0 1 4-4 4 4 0 0 1 4 3l61 107a4 4 0 0 1-1 6l-2 1Z"/><path fill="#FFD073" d="M1850 1184c-6 17-14 34-22 51-27 51-59 89-80 97 0 2-8 63 3 96 12 33-24 54-54 37-29-17 0-46 8-78 8-33-14-69 0-86 8-10 22-20 26-27 3-6 4-20 8-24 8-10 34-16 50-23s12-19 21-27c7-8 40-16 40-16Z"/><path fill="#431426" d="M1719 1476c-8-1-17-3-24-7-24-14-14-35-5-56 5-9 8-18 11-27 3-15 1-31-2-44-3-17-6-33 3-44l13-14c5-3 9-7 12-12v-7c0-7-1-18 7-25 6-5 18-8 29-10l24-7c8-3 10-8 12-14l7-13c9-8 39-16 43-17a5 5 0 0 1 5 2 5 5 0 0 1 0 4c-6 18-14 35-22 52-26 49-57 87-80 98-2 13-6 64 3 92 6 15 2 30-9 39-8 6-17 10-27 10Zm124-286c-12 4-26 9-30 13-2 2-4 5-5 9-2 6-5 14-17 19-8 4-17 6-26 8-10 2-20 4-25 8s-4 11-4 17c0 5 1 9-1 12-4 6-8 11-14 15l-12 13c-6 7-4 21-1 36s6 32 2 48l-11 29c-11 23-16 35 0 44 14 8 31 7 41-2 9-7 11-18 7-29a277 277 0 0 1-3-101l2-1c21-9 53-48 78-96 7-13 13-27 19-42Z"/><path fill="#431426" d="M1717 1451h-1a13 13 0 0 1-8-7c-4-9 1-21 1-23a5 5 0 0 1 6-2 5 5 0 0 1 3 6c-2 4-4 11-2 15a4 4 0 0 0 3 2l2 2a4 4 0 0 1-1 6l-3 1ZM1759 1288h-1a5 5 0 0 1-4-5c1-7 3-18 16-22 4-1 4-2 5-3 1-3 4-6 7-7a5 5 0 0 1 3-1 4 4 0 0 1 2 8l-5 4c-1 3-3 5-9 7-7 2-9 7-10 15l-1 3-3 1ZM1812 1226a5 5 0 0 1-3-1l-1-2a4 4 0 0 1 0-3c1-5 7-12 15-12l2 1a4 4 0 0 1 2 3 5 5 0 0 1-5 5c-3 0-6 6-6 6l-2 2-2 1ZM1720 1327h-1a5 5 0 0 1-4-5c1-2 5-19 16-19a5 5 0 1 1 0 9c-2 0-6 7-7 12a4 4 0 0 1-4 3Z"/><path fill="#FFEAB9" d="m2346 1385-5 1a26 26 0 0 1-25-21c-17-87-51-146-101-173l-6-3-120-62c35-7 94-11 150 20 64 35 107 105 127 208a25 25 0 0 1-20 30Z"/><path fill="#431426" d="M2341 1390a30 30 0 0 1-30-24c-16-86-49-143-98-170l-6-3-120-62-2-2a5 5 0 0 1 3-6c39-8 97-11 153 20 65 36 109 107 129 211a30 30 0 0 1-29 36Zm-130-205 6 3c51 28 86 87 103 176a21 21 0 0 0 25 17 21 21 0 0 0 16-25c-19-102-61-171-124-205-48-26-98-27-134-22l108 56Z"/><path fill="#FFFAF4" d="M2388 1396s28 89 9 150c-20 60-63 70-63 70s-61 55-94 10c0 0-58 15-68-26 0 0-59-14-33-55 13-21 39 9 70-22 26-27 18-41 18-41s-28 17-55 11c-23-6-45-17-31-43 14-25 87-13 97-27s7-48 22-55c0 0-19-18-8-39 12-27 64 18 87 19 22 2 63-18 72 8 8 25-23 40-23 40Z"/><path fill="#431426" d="M2273 1648a46 46 0 0 1-22-5c-5-3-10-7-13-12-9 2-34 6-52-5-9-5-15-13-17-22-8-3-32-11-39-28-4-10-2-21 5-33 7-11 18-11 29-10 12 1 26 3 42-13 15-16 18-26 18-32-10 5-31 13-52 9-23-4-32-14-36-21-4-8-4-18 1-28 8-17 37-19 63-21 14-1 31-2 34-7s5-14 7-22c2-12 5-24 12-31-7-8-13-24-5-40a18 18 0 0 1 10-10c13-4 32 5 50 14 11 6 23 12 31 13l24-3c20-3 45-8 52 13s-10 37-22 44c5 17 25 94 8 149-19 57-58 71-65 73-6 5-34 28-63 28Zm-33-26a4 4 0 0 1 3 1 35 35 0 0 0 26 16c29 3 61-26 62-27l2-1c1 0 41-10 59-67a301 301 0 0 0-9-150l3-3c1 0 27-13 20-34-4-13-19-11-42-7-8 2-17 3-26 3-9-1-21-7-34-14-16-8-34-17-43-14a9 9 0 0 0-5 6c-9 18 6 33 7 34a4 4 0 0 1 0 6l-1 1c-7 3-10 16-12 28-2 9-4 19-9 25-5 8-21 9-41 11-22 1-49 3-55 16a22 22 0 0 0-1 20c4 8 14 13 29 16 25 5 52-10 52-10a4 4 0 0 1 6 1c1 2 9 18-19 47-18 19-36 17-49 16-11-1-16-1-21 6-5 9-7 17-4 24 7 17 35 24 35 24a4 4 0 0 1 4 3 29 29 0 0 0 13 19c19 11 48 4 48 4h2Z"/><path fill="#431426" d="M2260 1373a4 4 0 0 1-4-4 5 5 0 0 1 2-5s15-7 28-4l2 1a5 5 0 0 1 2 3 4 4 0 0 1-4 5h-2c-10-3-22 3-22 3l-2 1ZM2380 1405a4 4 0 0 1-3-8l8-5a4 4 0 0 1 5 0l1 1a5 5 0 0 1 1 4 5 5 0 0 1-2 2l-8 5-2 1ZM2173 1605h-1a4 4 0 0 1-4-5 4 4 0 0 1 5-4c2 0 55 1 83-73l1-2a5 5 0 0 1 5-1l1 1a4 4 0 0 1 2 3l-1 2c-28 76-85 79-91 79ZM2240 1631a5 5 0 0 1-5-4 5 5 0 0 1 4-5c2-1 54-13 67-83v-2a5 5 0 0 1 3-2h2a5 5 0 0 1 3 2 4 4 0 0 1 1 3c-14 77-74 90-74 90l-1 1ZM2334 1620a5 5 0 0 1-4-2l-1-2a4 4 0 0 1 1-3s23-26 25-74a5 5 0 0 1 6-4l1 1 1 2 1 2c-2 51-26 78-27 79a5 5 0 0 1-3 1Z"/></svg>
