<svg xmlns="http://www.w3.org/2000/svg" width="3000" height="3000" fill="none"><path fill="#FFEAB9" d="M1988.5 1832.6c32.1 10.3 59.4 45.4 83.2 107.4a712.8 712.8 0 0 1 29.5 100.5 25.5 25.5 0 0 1-50 10.2c-12.7-62.3-46.3-159.3-78.2-169.4-35.5-11.3-151.9 38.5-223.1 77.5l-2 1c-3.8-8-6-16.7-6.5-25.5-1.2-12.4-1.7-12-.7-19.2 52.6-27.4 187-101.8 247.8-82.5Z"/><path fill="#431426" d="M2076 2075.7a30 30 0 0 1-29.3-24c-13-63.7-46.3-156.8-75.1-166-30.7-9.8-137.9 32.4-219.5 77.1l-2.3 1.2a4.5 4.5 0 0 1-5.8-2c-4-8.6-6.4-17.8-7-27.2l-.7-6.3a42 42 0 0 1 0-14 4.6 4.6 0 0 1 2.4-3.3l10.7-5.6c59-31.2 181.7-95.9 240.5-77.2 33.5 10.7 61.7 46.6 86 110l3.7 9.9a715.6 715.6 0 0 1 26 91.3 29.9 29.9 0 0 1-12.7 30.9 30 30 0 0 1-16.8 5.2Zm-115.7-200.5c4.8-.1 9.5.5 14 1.8 37.3 11.8 70.8 121.5 81.2 172.8a21.1 21.1 0 0 0 41.4-8.4 704.9 704.9 0 0 0-29.3-99.7c-23.3-60.7-49.6-95-80.4-104.8-55.2-17.5-175.6 46-233.5 76.6l-8.7 4.5c-.3 3.2-.2 6.4.4 9.5l.6 6.3c.6 6.8 2 13.4 4.2 19.8 60.5-33 162.3-78.4 210.1-78.4Z"/><path fill="#FFD073" d="M2287.3 2366.4a133.4 133.4 0 0 1-133.2 34c-26.4-8.1-44.4-30.2-55-57-3.8-9.5-8-20.6-12.5-32.3-13-33.6-27.6-72.8-36.1-95.6l-7.1-19.1c-58.5-20-50.2-112.4 23.5-156.6 70.2-42 104.8-4.4 107.8-.8l.3.3s27.9-41.2 91.5-56a137.8 137.8 0 0 1 126.7 35.8 120.5 120.5 0 0 1 37.2 100.5c-9.2 81.3-79.3 181.3-143.2 246.8Z"/><path fill="#431426" d="M2192.3 2410.4c-13.4 0-26.7-1.8-39.5-5.7-25.5-7.8-45.6-28.5-58-59.8l-12.4-32.2a10779 10779 0 0 1-36.1-95.6l-6.4-17.2a60.8 60.8 0 0 1-39-52.8c-3.7-34.1 14.6-81.8 63.6-111.2 62.8-37.6 98.7-14 110-3.6a166 166 0 0 1 91-53.4 143 143 0 0 1 130.7 36.7l.2.2a125.6 125.6 0 0 1 38.7 102c0 1.5-.3 2.4-.3 2.4-9.6 84.5-83.8 187.2-144.4 249.4a135.2 135.2 0 0 1-98 40.8Zm-64.1-386c-15.4 0-34.9 4.8-59 19.3-45.6 27.3-62.7 71.2-59.4 102.4 2.5 22.8 14.9 39.1 35 46a4.7 4.7 0 0 1 2.9 2.7s2.6 7.4 7 19.1a9164.3 9164.3 0 0 0 48.6 127.7c7.9 20 23.4 45.7 52.2 54.5a128.8 128.8 0 0 0 128.6-32.8c59.5-61.2 132.5-161.8 141.9-244.2l.2-2c3.4-35.2-9.4-68.8-35.9-94.7l-.2-.2a133.8 133.8 0 0 0-122.5-34.5c-61 14.2-88.6 53.7-88.8 54a4.5 4.5 0 0 1-5.7 1.5c-.7-.2-1.3-.7-1.7-1.3a57 57 0 0 0-43.2-17.5Z"/><path fill="#FFFAF4" d="M2287.3 2366.4a133.4 133.4 0 0 1-133.2 34c-26.4-8.1-44.4-30.2-55-57-3.8-9.5-8-20.6-12.5-32.3l1.2-2.4c16.3-69.4 56.4-180.9 127.7-256.7 74.8-79.5 175.2-34.1 177.7-33 25.8 25 41.1 60 37.4 98.3 0 1.4-.2 2.2-.2 2.2-9.2 81.4-79.3 181.4-143.2 247Z"/><path fill="#431426" d="M2192.3 2410.4c-13.4 0-26.7-1.8-39.5-5.7-25.5-7.8-45.6-28.5-58-59.8l-12.4-32.2a4.6 4.6 0 0 1 .1-3.6l1-2c9-38.7 45.1-169.1 128.7-258.2 76-81 178.6-36 182.9-34l.8.5.5.4a125.6 125.6 0 0 1 38.8 102c0 1.5-.3 2.5-.3 2.5-9.7 84.4-83.8 187-144.4 249.3a135.3 135.3 0 0 1-98.2 40.8Zm-100.8-99.2 11.8 30.3c7.9 20 23.3 45.6 52.2 54.5a128.8 128.8 0 0 0 128.5-32.8c59.6-61.2 132.6-161.9 142-244.3l.2-2a115 115 0 0 0-35.5-94.2c-9.7-4.2-102.5-41.5-172 32.3-82.5 87.8-117.7 217-126.5 254.6 0 .3-.2.7-.4 1l-.3.6Z"/><path fill="#431426" d="M2192.3 2410.4c-13.4 0-26.7-1.8-39.5-5.7h-.4c-20-8.3-33.5-21-39.9-38-15-39.4 12-94 28-126.6a932 932 0 0 0 9.4-20c29.1-63.5 83.3-181.8 183-183.9 37.7-.8 65.6 8.1 83 26.4a74.8 74.8 0 0 1 19.3 55.2c0 1.7-.3 2.6-.3 2.6-9.7 84.4-83.8 187.1-144.4 249.3a135.2 135.2 0 0 1-98.2 40.7Zm-36.6-14.2c34.4 10.4 88.5 8 128.3-32.9 59.6-61.2 132.6-161.8 142-244.2l.2-2c.4-6.8.6-30.3-16.7-48.4-15.7-16.4-41.4-24.3-76.3-23.6-94.1 2-146.8 116.9-175.1 178.6-3.6 7.8-6.7 14.6-9.5 20.3-15.4 31.3-41.2 83.6-27.6 119.4 5.5 14.7 16.8 25.4 34.7 32.8Z"/><path fill="#0BBFA4" d="M2123.7 2199.4v.2l-.2.6-1.4 3.4-7.8 19.5v.3c-9.9 25.5-24 71.5-27.6 87.7-12.9-33.7-27.5-72.8-36-95.6-.2 0 30.2-38.5 73-16.1Z"/><path fill="#431426" d="M2086.6 2315.6a4.5 4.5 0 0 1-4.2-3 10779 10779 0 0 1-36.1-95.6c-.3-.8-.4-1.5-.2-2.3 0-.8.4-1.5.9-2 .3-.5 33.2-41.3 78.8-17.4a4.5 4.5 0 0 1 2 5.8l-.1.4-.2.4-1.3 3.3-7.8 19.4v.3a847 847 0 0 0-27.3 87 4.6 4.6 0 0 1-4 3.6h-.5Zm-31-99.2a8062 8062 0 0 0 30.1 79.7c6-21.5 16.6-54.7 24.3-74.4 3.3-8.5 6-15.5 7.8-19.6v-.3c-32.2-14.6-55.9 7.7-62.1 14.6Z"/><path fill="#0BBFA4" d="m2174.8 2039-13.9 24.3s-9.2 2.3-34.1 13.7c-86.9 39.8-83.4 119.3-83.4 119.3-58.4-19.9-50.1-112.3 23.5-156.5 70.2-42.1 104.8-4.5 107.9-.8Z"/><path fill="#431426" d="M2043.4 2200.9a60.6 60.6 0 0 1-42.5-53.8c-3.7-34.1 14.6-81.8 63.7-111.2 73-43.8 109.7-4.5 113.6 0a4.4 4.4 0 0 1 .5 5.1l-13.8 24.3a4.4 4.4 0 0 1-2.9 2.1s-9.3 2.5-33.3 13.5c-83 38-80.9 112-80.8 115 0 .7 0 1.3-.3 1.9a4.6 4.6 0 0 1-4.2 2.9v.2Zm84.8-176.5c-15.3 0-34.9 4.8-59 19.3-45.6 27.3-62.7 71.2-59.4 102.4a51.7 51.7 0 0 0 29.3 43.7c1.5-20.6 12-83.2 85.8-116.9 10.7-5.2 21.8-9.6 33-13.5l11.3-19.8a58.5 58.5 0 0 0-41-15.2Z"/><path fill="#431426" d="M2142.4 2121.9h-1a4.5 4.5 0 0 1-3.4-5.4c5.6-28.6 17-55.8 33.4-79.9a4.7 4.7 0 0 1 3-2 4.5 4.5 0 0 1 5 5.8 210.5 210.5 0 0 0-32.7 78 4.5 4.5 0 0 1-4.3 3.5ZM2394.5 2056.6a4.5 4.5 0 0 1-4.5-4.3l-1.2-33a4.5 4.5 0 0 1 8.6-2.1l.4 1.7 1.2 33c0 .6 0 1.2-.3 1.8a4.5 4.5 0 0 1-4 3h-.2ZM2345.8 2045.2a4.6 4.6 0 0 1-3.1-1.3c-.5-.4-.8-.9-1-1.4-.3-.5-.4-1.1-.4-1.7l-.4-34.3a4.5 4.5 0 0 1 9 0l.4 34.3a4.5 4.5 0 0 1-2.7 4.2l-1.7.4v-.2ZM2294.5 2052.5a4.5 4.5 0 0 1-4.4-3.5l-8.3-38.2c-.2-.6-.2-1.2-.1-1.8a4.4 4.4 0 0 1 1.8-3 4.5 4.5 0 0 1 7 2.8l8.4 38.3a4.5 4.5 0 0 1-3.4 5.3c-.3.1-.7.2-1 .1ZM2252.8 2076.9a4.5 4.5 0 0 1-4.2-2.8l-16.2-39.1a4.5 4.5 0 0 1 8.3-3.5l16.2 39.1c.3.6.4 1.2.4 1.8a4.5 4.5 0 0 1-2.8 4.2l-1.7.3ZM2217.2 2114.2a4.6 4.6 0 0 1-4.2-2.6l-18-39a4.4 4.4 0 0 1-.1-3.5c.2-.6.5-1 .9-1.5a4.6 4.6 0 0 1 4.9-1.2 4.4 4.4 0 0 1 2.5 2.4l18 39a4.5 4.5 0 0 1-1.9 5.9c-.7.4-1.4.5-2.2.5ZM2187 2156.5a4.5 4.5 0 0 1-4-2.6l-18.3-39.1a4.5 4.5 0 0 1 2.2-6 4.5 4.5 0 0 1 6 2.1l18.3 39.1a4.4 4.4 0 0 1 .2 3.5c-.2.6-.6 1-1 1.5a4.5 4.5 0 0 1-3.3 1.5ZM2165.8 2201a4.5 4.5 0 0 1-4-2.3l-22.4-39a4.4 4.4 0 0 1 .1-5.2 4.5 4.5 0 0 1 6.5-.8c.5.4.9 1 1.2 1.5l22.5 39a4.6 4.6 0 0 1-1.7 6.2c-.6.4-1.4.6-2.2.6ZM2144.6 2246.5a4.5 4.5 0 0 1-4-2.2l-22.5-38.5a4.5 4.5 0 0 1-.5-3.4 4.5 4.5 0 0 1 2.1-2.7 4.5 4.5 0 0 1 6.2 1.6l22.6 38.4c.4.7.6 1.5.6 2.3a4.5 4.5 0 0 1-2.3 3.9c-.7.4-1.5.6-2.2.6ZM2124 2292.4a4.6 4.6 0 0 1-4-2.3l-20-36.4a4.5 4.5 0 0 1 2-6 4.5 4.5 0 0 1 6 1.7l19.9 36.4c.5 1 .7 2.2.3 3.3-.3 1.2-1 2.1-2 2.7-.7.4-1.5.6-2.2.6ZM2112.6 2344.1a4.4 4.4 0 0 1-4-2.6l-21.8-45.5c-.4-1-.4-2.2 0-3.3a4.5 4.5 0 0 1 8.2-.6l21.7 45.5a4.5 4.5 0 0 1-4 6.5ZM2404.9 2098.9h-.8l-121.2-21.5a4.6 4.6 0 0 1-3-2 4.6 4.6 0 0 1 1.2-6.3 4.6 4.6 0 0 1 3.4-.7l121.2 21.5c1.2 0 2.3.7 3 1.6a4.5 4.5 0 0 1-.5 6.3c-1 .8-2.1 1.2-3.3 1.1ZM2392.1 2155h-.7l-155.7-26.6a4.5 4.5 0 0 1-3.7-3.5 4.6 4.6 0 0 1 .6-3.5 4.6 4.6 0 0 1 2.8-2h1.8l155.7 26.7a4.5 4.5 0 0 1 4.1 4.9 4.5 4.5 0 0 1-4.9 4ZM2379.2 2207.3h-.8l-171.5-30a4.6 4.6 0 0 1 1.5-9l171.6 30a4.5 4.5 0 0 1-.8 9ZM2350.1 2257.1h-.8l-170.5-28.9a4.5 4.5 0 0 1-3-1.8 4.6 4.6 0 0 1-.8-3.5 4.6 4.6 0 0 1 5.3-3.7l170.5 29c1.3 0 2.4.6 3.1 1.5a4.5 4.5 0 0 1-.5 6.4c-1 .8-2.1 1.1-3.3 1ZM2316.3 2306.3h-.8l-154.9-27.4a4.5 4.5 0 0 1 1.6-8.9l155 27.4a4.5 4.5 0 1 1-.8 9v-.1ZM2284.4 2350.8h-.8l-137.4-24.7a4.4 4.4 0 0 1-3.6-3.5v-1.8a4.5 4.5 0 0 1 5.2-3.6l137.4 24.8a4.6 4.6 0 0 1 4.1 4.8 4.5 4.5 0 0 1-4.9 4.2v-.2ZM2243.8 2390.6h-.8l-107.5-18.2a4.6 4.6 0 0 1-3.7-3.5v-1.8a4.6 4.6 0 0 1 3.5-3.7h1.7l107.5 18.2a4.6 4.6 0 0 1 4.1 4.9 4.5 4.5 0 0 1-4.8 4.1Z"/><path fill="#FFEAB9" d="M1956.2 1170.5c-103.8-319.9-392.6-524.4-694.6-518.7a650.7 650.7 0 0 0-189.4 31.8c-9 3-17.8 6-26.6 9.2l-4.1 1.6a643 643 0 0 0-32.8 13.4l-5.6 2.5-15 7.2-6.2 3c-8.8 4.4-17.4 9-26 13.7-3 1.6-5.7 3.3-8.6 5l-5 3-5.3 3-9 5.5-4.2 2.7c-6.3 4-12.5 8-18.6 12.2l-5.5 3.9-5.6 4-5.5 3.9-5.4 4-5.1 3.8-.6.5a327.2 327.2 0 0 0-15.7 12.3l-4.2 3.5a640.4 640.4 0 0 0-31.3 27.5l-3.3 3a671.6 671.6 0 0 0-51.4 54.6l-.8 1c-6.5 7.8-12.9 15.7-19 23.8l-4 5.3c-1.3 1.8-3 3.8-4.3 5.8-1.3 2-2.8 3.7-4.1 5.6a697 697 0 0 0-47.8 76.5l-3.1 6a414.3 414.3 0 0 0-3.6 6.8l-2.7 5.2-3 6-3 6A720.7 720.7 0 0 0 631 1156l-2 7.4-2.3 8.8v.2l-2.2 9-2 9-2 9-1.3 6-1.4 7.2a438 438 0 0 0-3.8 21.5l-.9 5.2-.7 4.8c-1.3 8.3-2.4 16.6-3.3 25l-.6 5-.5 4.7-.7 7-.6 7-1 14c0 1.4-.2 2.7-.3 4l-.3 5.4c0 2.3-.2 4.5-.3 6.8a484 484 0 0 0-.3 8.5c-.2 8.3-.4 16.5-.4 24.8 0 7.2 0 14.5.3 21.8 0 4 .3 7.8.4 11.7v.9l.5 8.5v1.8l.2 3.2.7 10.2v1.6l.8 9.5c0 .7 0 1.5.2 2.3l1 10.7v.2a567 567 0 0 0 2.8 22.4c1.3 9.2 2.7 18.4 4.3 27.6l1.4 7.4a712.8 712.8 0 0 0 6.1 30.1l1.6 7a824.7 824.7 0 0 0 12 45l2 6.8 1.2 3.7 1.2 3.7 1.3 4.4 3.6 10.7 3 9 2 5.4a591.7 591.7 0 0 0 8.9 23.5 763 763 0 0 0 51 104.9c.5 1 1 2 1.7 3l5.3 9c5.1 8.3 10.3 16.5 15.7 24.6l5 7.6 9 12.8 6 8.4 6 8.3 5.3 7 7.3 9.3a721.6 721.6 0 0 0 19.6 23.7l6.2 7.1 5.9 6.6a1150.8 1150.8 0 0 0 18.4 19.5l7.4 7.5 5.8 5.8c6.6 6.4 13.2 12.7 20 18.9l4.4 4 6.3 5.5c1.6 1.4 3.2 3 4.9 4.2 3.7 3.3 7.5 6.4 11.3 9.5l5.6 4.6c7.8 6.4 15.8 12.6 23.8 18.5l6 4.4c2 1.4 4.4 3.3 6.7 4.8l6.7 4.8 13.6 9.2 2.4 1.6 5.2 3.4 5.3 3.3c4.9 3 9.8 6.2 14.8 9l.4.3 2.6 1.6 3 1.7 1.6.9 1.4.8 4 2.4 5.3 3a744 744 0 0 0 23.8 12.8l5.5 2.7a682 682 0 0 0 39.1 18l6 2.6c14.2 6 28.6 11.5 43.1 16.3l5.8 2 6 2 8.3 2.5 4 1.3 6.3 1.8 1.6.5 6.2 1.7 2 .6 9 2.3 7.7 2 5 1.2 11.6 2.7 7.4 1.5 4.5 1a634.7 634.7 0 0 0 59.6 9.2l11.3 1.2 4.3.3c6.2.6 12.5 1 18.7 1.4h6.1l6.3.2 7.5.3h25.3c6.6 0 13.2-.2 19.7-.5l3.9-.2 6.4-.3 3-.2 3.2-.2h2.3l4-.3 6.2-.6h.3l4.7-.4H1388.7l11.4-1.2 6.3-.8c4.1-.5 8.3-1 12.5-1.7.8 0 1.6-.2 2.3-.4l3-.4 1.1-.2 6.6-1 5.3-1 7.1-1.2h.3l2-.4c2.5-.4 5-1 7.4-1.5l3-.5 8.2-1.8 4.4-1 2.2-.5 1-.2 3-.8 2.4-.5 4-1 3.7-1 9.7-2.5 7-2 4.7-1.3c6.2-1.8 12.5-3.7 18.7-5.7 363.1-117.7 555.6-526.6 430.2-913.2Zm-690-22.7c2-1.8 4.2-3.5 6.3-5 4.7.3 9.2 1 13.8 1.7a194.6 194.6 0 0 1 45.2 13.3 227 227 0 0 1 41.2 23c47.1 33 85.6 85.5 104.4 149.4 24.7 84.2 10 172-35.7 231.9a199.6 199.6 0 0 1-36.5 36.8c-4-.3-7.8-.9-11.7-1.5-90.7-14.3-172.8-93.1-197.7-204.9-17.8-79.2-1.5-154.1 36.5-207.4a199.5 199.5 0 0 1 34.2-37.3Z"/><path fill="#431426" d="M1956.2 1170.5c-103.8-319.9-392.6-524.4-694.6-518.7a650.7 650.7 0 0 0-189.4 31.8c-9 3-17.8 6-26.6 9.2l-4.1 1.6a643 643 0 0 0-32.8 13.4l-5.6 2.5-15 7.2-6.2 3c-8.8 4.4-17.4 9-26 13.7-3 1.6-5.7 3.3-8.6 5l-5 3-5.3 3-9 5.5-4.2 2.7c-6.3 4-12.5 8-18.6 12.2l-5.5 3.9-5.6 4-5.5 3.9-5.4 4-5.1 3.8-.6.5a327.2 327.2 0 0 0-15.7 12.3l-4.2 3.5a640.4 640.4 0 0 0-31.3 27.5l-3.3 3a671.6 671.6 0 0 0-51.4 54.6l-.8 1c-6.5 7.8-12.9 15.7-19 23.8l-4 5.3c-1.3 1.8-3 3.8-4.3 5.8-1.3 2-2.8 3.7-4.1 5.6a697 697 0 0 0-47.8 76.5l-3.1 6a414.3 414.3 0 0 0-3.6 6.8l-2.7 5.2-3 6-3 6A720.7 720.7 0 0 0 631 1156l-2 7.4-2.3 8.8v.2l-2.2 9-2 9-2 9-1.3 6-1.4 7.2a438 438 0 0 0-3.8 21.5l-.9 5.2-.7 4.8c-1.3 8.3-2.4 16.6-3.3 25l-.6 5-.5 4.7-.7 7-.6 7-1 14c0 1.4-.2 2.7-.3 4l-.3 5.4c0 2.3-.2 4.5-.3 6.8a484 484 0 0 0-.3 8.5c-.2 8.3-.4 16.5-.4 24.8 0 7.2 0 14.5.3 21.8 0 4 .3 7.8.4 11.7v.9l.5 8.5v1.8l.2 3.2.7 10.2v1.6l.8 9.5c0 .7 0 1.5.2 2.3l1 10.7v.2a567 567 0 0 0 2.8 22.4c1.3 9.2 2.7 18.4 4.3 27.6l1.4 7.4a712.8 712.8 0 0 0 6.1 30.1l1.6 7a824.7 824.7 0 0 0 12 45l2 6.8 1.2 3.7 1.2 3.7 1.3 4.4 3.6 10.7 3 9 2 5.4a591.7 591.7 0 0 0 8.9 23.5 763 763 0 0 0 51 104.9c.5 1 1 2 1.7 3l5.3 9c5.1 8.3 10.3 16.5 15.7 24.6l5 7.6 9 12.8 6 8.4 6 8.3 5.3 7 7.3 9.3a721.6 721.6 0 0 0 19.6 23.7l6.2 7.1 5.9 6.6a1150.8 1150.8 0 0 0 18.4 19.5l7.4 7.5 5.8 5.8c6.6 6.4 13.2 12.7 20 18.9l4.4 4 6.3 5.5c1.6 1.4 3.2 3 4.9 4.2 3.7 3.3 7.5 6.4 11.3 9.5l5.6 4.6c7.8 6.4 15.8 12.6 23.8 18.5l6 4.4c2 1.4 4.4 3.3 6.7 4.8l6.7 4.8 13.6 9.2 2.4 1.6 5.2 3.4 5.3 3.3c4.9 3 9.8 6.2 14.8 9l.4.3 2.6 1.6 3 1.7 1.6.9 1.4.8 4 2.4 5.3 3a744 744 0 0 0 23.8 12.8l5.5 2.7a682 682 0 0 0 39.1 18l6 2.6c14.2 6 28.6 11.5 43.1 16.3l5.8 2 6 2 8.3 2.5 4 1.3 6.3 1.8 1.6.5 6.2 1.7 2 .6 9 2.3 7.7 2 5 1.2 11.6 2.7 7.4 1.5 4.5 1a634.7 634.7 0 0 0 59.6 9.2l11.3 1.2 4.3.3c6.2.6 12.5 1 18.7 1.4h6.1l6.3.2 7.5.3h25.3c6.6 0 13.2-.2 19.7-.5l3.9-.2 6.4-.3 3-.2 3.2-.2h2.3l4-.3 6.2-.6h.3l4.7-.4H1388.7l11.4-1.2 6.3-.8c4.1-.5 8.3-1 12.5-1.7.8 0 1.6-.2 2.3-.4l3-.4 1.1-.2 6.6-1 5.3-1 7.1-1.2h.3l2-.4c2.5-.4 5-1 7.4-1.5l3-.5 8.2-1.8 4.4-1 2.2-.5 1-.2 3-.8 2.4-.5 4-1 3.7-1 9.7-2.5 7-2 4.7-1.3c6.2-1.8 12.5-3.7 18.7-5.7 363.1-117.7 555.6-526.6 430.2-913.2Zm-690-22.7c2-1.8 4.2-3.5 6.3-5 4.7.3 9.2 1 13.8 1.7a194.6 194.6 0 0 1 45.2 13.3 227 227 0 0 1 41.2 23c47.1 33 85.6 85.5 104.4 149.4 24.7 84.2 10 172-35.7 231.9a199.6 199.6 0 0 1-36.5 36.8c-4-.3-7.8-.9-11.7-1.5-90.7-14.3-172.8-93.1-197.7-204.9-17.8-79.2-1.5-154.1 36.5-207.4a199.5 199.5 0 0 1 34.2-37.3Z" opacity=".1"/><path fill="#FF89A4" d="M1956.2 1170.5c-103.8-319.9-392.6-524.4-694.6-518.7a650.7 650.7 0 0 0-189.4 31.8c-3.7 1.6-126.8 54.5-116.3 65s-75.8 42.6-78.2 64c-2.4 21.2 4.7 68.6-19 73.3-23.6 4.7-112.3 30.8-108.8 59.2 3.5 28.4 43.8 45 23.7 75.7-20.2 30.6-71 35.5-69.9 66.1 1.2 30.6 37.8 53.3 10.5 75.9-27.3 22.6-64 28.4-65.1 60.4-1.2 31.9 59.2 1.1 54.4 35.5-4.7 34.3-88.7 45-84.1 63.9 4.5 18.8 86.3 5.3 86.3 39.9s-69.7 74.7-60.1 110.2c9.6 35.5 42.6 14.7 65.1 70.1 22.5 55.4-15.4 80.2 3.5 104 18.9 23.7 63.9 18.9 69.8 48.5 5.9 29.5-29.6 74.5-20.1 95.8 9.4 21.3 66.3 10.7 72.1 29.6 5.9 19-11.8 63.9 15.4 79.3 27.2 15.4 112.4-16.6 133.7 7 21.3 23.7-26 80.6 16.6 99.5 42.6 19 68.6-19 106.5 0 37.8 19 11.8 53.3 40.2 68.6 28.4 15.4 59.2-30.7 83.4-4.7 22.4 24 22.7 39.6 57.8 44.3h4l6.2.3 7.6.3 7.7.1h17.6c6.5 0 13.1-.2 19.7-.5l3.8-.2 6.4-.3 3-.2 3.3-.2h2.2l4-.3 6.3-.5h.3l4.6-.4H1389l11.4-1.3 6.3-.8c4.2-.5 8.4-1 12.6-1.7l2.3-.3 3-.5 1-.1 6.7-1 5.2-1 7.1-1.3h.4l2-.4 7.3-1.5 3-.5 8.2-1.8 4.4-1 2.2-.5 1.1-.2 3-.7 2.4-.6 4-1 3.7-1c3.2-.7 6.5-1.6 9.7-2.5l7-2 4.6-1.3c6.3-1.8 12.5-3.7 18.8-5.7 362.8-118.1 555.3-527 429.9-913.6Zm-563 426.8c-90.7-14.3-172.8-93.1-197.7-204.9-17.8-79.3-1.5-154.2 36.5-207.4a199.8 199.8 0 0 1 40.5-42.3 194.6 194.6 0 0 1 59 15 227 227 0 0 1 41.2 23.1c47.1 33 85.6 85.5 104.4 149.4 24.7 84.2 10 172-35.7 231.9a199.6 199.6 0 0 1-36.5 36.8l-11.7-1.7v.1Z"/><path fill="#431426" d="m834.4 1152-1.1-.1a4.5 4.5 0 0 1-3.2-5.6 760.9 760.9 0 0 1 61.4-155.5 4.5 4.5 0 0 1 8 4.3 748.5 748.5 0 0 0-60.6 153.6 4.5 4.5 0 0 1-4.5 3.3ZM940.7 925.8c-.9 0-1.8-.3-2.5-.8a4.5 4.5 0 0 1-1.3-6.2l9-13.4a4.5 4.5 0 0 1 8.2 1.7c.2 1.2 0 2.4-.7 3.4l-9 13.2a4.5 4.5 0 0 1-3.7 2Z"/><path fill="#431426" d="M1325.3 2120.2H1315c-2.5 0-5 0-7.7-.2l-7.5-.2-9.6-.5h-1.5c-27.2-3.8-35.1-14.2-46-28.6-4.4-5.9-9-11.6-14-17-10.3-11-21-7-38 .7-13.6 6.1-29 13.1-44.3 4.9-15.2-8.3-17-21.7-18.5-33.6-1.8-13.3-3.4-25.9-21.6-35-17.1-8.6-31.3-4.5-47.7 0-16.3 4.5-35.6 10.2-58.6 0-27.7-12.3-21.8-39.5-17.1-61.3 3.4-15.8 6.6-30.7-1-39-10-11.2-40.7-7.6-67.8-4.5-26.3 3-51 6-64.8-1.8-20.5-11.6-18.6-37.1-17.1-57.6.7-9.6 1.4-18.7-.4-24.2-2-6.6-16.2-8.6-30-10.6-17.8-2.6-36.2-5.3-42.1-18.5-5.5-12.5 1.4-30.1 8.7-48.5 6.8-17.2 13.8-35 11.1-48.3-2.8-14.2-16.6-19.3-32.5-25.2-13.4-5-27.3-10-36.4-21.4-10-12.5-6.5-25-2.5-39.5 4.5-16.3 10-36.5-1.7-65.5-11.8-29-25.9-35.6-38.5-41.8-11.3-5.5-22-10.7-26.8-28.8-5.7-21.4 13-43 31.2-63.8 14.3-16.4 29-33.4 29-47.8 0-15-20.5-19-47.5-22.8-19.3-2.7-36-5-38.7-16-3-12.1 13.5-19.3 34.3-28.5 21-9.1 47.3-20.6 49.6-37.1a11.2 11.2 0 0 0-1.5-8.8c-3.3-4-12.3-4.4-21-4.8-13.9-.5-32.8-1.3-32.1-21.4 1-24.3 19.7-34.9 39.6-46.2 9.6-5 18.6-10.9 27.1-17.5 13.3-11 9-20.5-.3-37.9-5.4-10-11.5-21.3-12-34.2-.8-20 16.5-30 34.8-40.5 13.5-7.8 27.5-15.8 35.8-28.4 10-15.3 3.3-25.6-8.4-41.1-7.1-9.5-14.5-19.3-16-31.6-4.7-37.6 111.2-64 112.5-64.2 14.4-3 14.5-29.2 14.6-50.4 0-7 0-13.8.7-19 1.4-12.4 20.2-24.2 48.7-40.8 11.6-6.8 27.4-16 30-20.2a6.5 6.5 0 0 1-1.1-5.3c.7-3.5 2-10.9 60.1-39 27-13.2 54.1-25 59.3-27.1h.5c61.7-20 126-30.8 190.8-32 148.8-2.7 299.5 46.4 424.4 138.3a765.5 765.5 0 0 1 274.5 383.6c51.8 159.6 51.8 326 0 481-50.2 150.5-148 279.3-275.5 362.6a655 655 0 0 1-175.9 81l-4.7 1.3h-.3l-6.7 2-9.8 2.5-3.8 1-4 1-2.4.5-3 .7-1 .2-1.2.2-5.5 1.2-8.2 1.7-3 .6-7.3 1.5-2 .4h-.4l-12.4 2.2-6.7 1h-1l-3 .5-2.2.4-12.6 1.7-6.3.8h-.3a705.5 705.5 0 0 1-12.3 1.2h-1.9l-4.4.4h-.3l-6.3.5h-.1l-3.8.3h-2.3l-3.3.2-13.4.7-19.8.6-7.6.6Zm-6.5-9h13.7c6.5 0 12.9-.3 19.8-.6l13.2-.6 3.2-.3h2.2l4-.3h.3l6-.4h.3l4.6-.5h2.5c3.9-.3 7.6-.7 11.4-1.2h.2l6-.7a894 894 0 0 0 12.5-1.8l2.3-.3c1 0 2-.3 3-.4l1-.2 6.6-1 12-2.2h.8l1.8-.4 7.3-1.4 2.7-.6 8.2-1.7 6.5-1.5 1.3-.3 2.8-.7 2.2-.5 4-1 3.8-1 9.7-2.5 6.6-1.8h.4l4.5-1.3 18.7-5.8a648.3 648.3 0 0 0 154.9-74.1c263.5-173.2 375.3-515.9 272-834.3-100.2-309.1-384-521.2-690.1-515.7a647.8 647.8 0 0 0-188 31.6c-60.2 25.8-107.9 50.7-113.7 59 .9 1.4 1.2 3.1 1 4.9-1 7.3-12.6 14.4-34.7 27.3-17.2 10-43.3 25.2-44.3 34-.5 4.8-.5 11.3-.6 18 0 24.5-.2 54.9-21.9 59.2-30 6-108.2 31.9-105.2 54.1 1.3 9.9 7.9 18.7 14.3 27.3 10.6 14 22.7 30 8.7 51.4-9.4 14.5-25 23.4-38.8 31.4-16.6 9.5-30.9 17.7-30.3 32.3a72 72 0 0 0 11 30.3c8.2 15.4 17.6 32.8-2 49-8.9 7-18.4 13.2-28.4 18.5-19.2 10.9-34.3 19.4-35 38.6-.4 10.1 6.8 11.5 23.4 12 10.6.5 21.6.9 27.5 8a19.6 19.6 0 0 1 3.4 15.8c-3 21.5-30.5 33.5-54.8 44.2-12.9 5.6-30.5 13.3-29.3 18 1.2 4.7 18 7.4 31.3 9.3 24.6 3.4 55.3 7.7 55.3 31.7 0 17.7-15.2 35.2-31.3 53.7-16.6 19-33.7 38.8-29.3 55.5 3.8 14.2 11.5 18 22 23 13.4 6.6 30.1 14.8 43 46.6 12.8 31.8 6.6 54.6 2 71.3-3.7 13.6-6.2 22.6.9 31.4 7.5 9.4 20.2 14.1 32.4 18.6 17 6.3 34.5 12.8 38.3 31.9 3.2 16-4.3 35-11.6 53.3-6.3 16-12.8 32.6-9 41.6 3.9 9 20.5 11 35.2 13.2 17.2 2.5 33.5 4.9 37.2 16.9a82 82 0 0 1 .8 27.5c-1.5 19-3 40.4 12.5 49.2 11.2 6.3 35.6 3.4 59.3.7 32.1-3.8 62.4-7.3 75.6 7.3 10.7 11.8 6.8 29.8 3 47-5.6 26.1-7.6 42.6 12 51.2 20 9 35.8 4.4 52.5-.4 16.8-4.8 34-9.6 54.2.5 22.4 11.2 24.6 28.2 26.4 42 1.6 11.5 2.8 20.7 14 26.7 11 6 23.4.6 36.3-5.2 15.5-7 33-15 48 1.3 5.2 5.7 10.1 11.6 14.7 17.8 10.3 13.7 16.6 22 40.4 25.2h.5l9.4.4 7.4.2c2.6 0 5.1 0 7.7.2h3.5l.2.5Z"/><path fill="#431426" d="M980 2025.3c-.8 0-1.6-.3-2.3-.6l-7.5-4.5a1026.3 1026.3 0 0 1-28-17.6l-13.7-9.2-6.8-4.9c-2.2-1.6-4.5-3.1-6.7-4.8l-6-4.3c-8.2-6-16.2-12.2-24-18.7-2-1.5-3.8-3-5.7-4.7-3.8-3-7.6-6.3-11.4-9.5-1.6-1.4-3.3-3-5-4.3-1.6-1.4-4-3.7-6.2-5.5l-1-1-3.4-3-20.2-19-1.4-1.5-4.4-4.4-2-1.9-5.5-5.6-9.9-10.4-.3-.4c-3-3-5.6-6-8.3-9l-6-6.6-6.2-7.2-6.3-7.4-.4-.4-6.5-8-6.4-7.8-7.4-9.5-5.3-7-6.2-8.4-6-8.4c-3-4.1-6-8.5-9-13-1.4-2-3-4.2-4.3-6.3l-.7-1.2a842.5 842.5 0 0 1-15.8-24.9l-5.4-9a34 34 0 0 1-1-1.9l-.8-1.1-5.5-9.8-.2-.3-6-10.8-5.3-9.8a793.2 793.2 0 0 1-43.3-98.5l-1.5-4.3-.4-1.1-3-9-3.6-10.5-1.2-3.9-.2-.8-1.2-3.8-1.2-3.6-2-6.6-1.2-4.3a661.4 661.4 0 0 1-7.6-27.8l-1.4-5.8-1.9-7.6-1.6-7a717.5 717.5 0 0 1-7.5-37.5c-1.6-9.4-3-18.8-4.3-28l-1.4-10.2-1.4-12v-.3a675 675 0 0 1-1-10.9l-.3-2.8-.8-9v-1.5l-.7-10.3-.2-3.3v-2.1c0-2.6-.3-5.4-.4-8.3v-1l-.4-11.6a704.5 704.5 0 0 1 0-46.9v-.7l.3-7.8c0-2.2.2-4.3.3-6.5v-.4l.3-5.4.3-4.2 1-14 .7-7 .7-7c0-1.5.3-3 .4-4.7l.6-5.2c1-9 2.1-17.2 3.3-25l.8-5 .8-5.2 1.3-7.2c.2-1.8.6-3.5.9-5.2a320 320 0 0 1 4.4-22.3l2-9 2-9a1019.4 1019.4 0 0 1 4.5-18.1l2-7.4a989 989 0 0 1 7.9-26.5 743 743 0 0 1 15.3-43.6l3.2-8.2a715 715 0 0 1 22.3-49.9l3-6 6-11.6c0-.2.2-.4.4-.6l3-5.9c3.5-6.6 6.9-12.6 10.2-18.4l6.6-11.1a704.8 704.8 0 0 1 35.4-53.1l4.3-6 4-5.1a686.4 686.4 0 0 1 28-34.3l9-10.2c11-12.2 22.7-24 34.7-35.4l3.3-3.2c3.4-3.1 6.7-6.3 10.2-9.3a708 708 0 0 1 21.3-18.4l1.7-1.4 2.6-2.2a386.6 386.6 0 0 1 15.7-12.4l3 3.4-2.7-3.6.4-.3 5-3.8 5.6-4 1.7-1.3 3.8-2.8 5.6-3.9 5.6-3.9c6.3-4.3 12.5-8.4 18.7-12.3l4.2-2.6 9-5.6 5.3-3.2 5-3 8.7-4.9a609 609 0 0 1 26.2-13.8l6.3-3a615 615 0 0 1 15.1-7.2l2.9-1.2 2.7-1.3c11-4.9 22.2-9.4 33-13.6l4.2-1.5a655.3 655.3 0 0 1 217.6-41.3 4.5 4.5 0 0 1 .1 9 647.5 647.5 0 0 0-188.1 31.5c-9.5 3-18 6-26.4 9.2l-4.1 1.6c-10.8 4-21.8 8.6-32.6 13.4l-2.8 1.2-2.7 1.2-15 7-6.2 3.1c-8.6 4.3-17.3 9-25.8 13.7l-8.6 4.8-4.9 3c-1.6 1.1-3.5 2.1-5.2 3l-8.9 5.5-4.2 2.6c-6 3.8-12.3 8-18.4 12.2l-5.6 3.8-5.5 3.9-3.6 2.6-1.9 1.4-5.3 3.9-5 3.8-3-3.3 2.7 3.5-.4.3-5 3.8-10.5 8.4-2.5 2-1.7 1.5a522.7 522.7 0 0 0-21 18.1c-3.4 3-6.8 6.2-10 9.3l-3.4 3a694.7 694.7 0 0 0-43 45l-8.7 10.1a762.5 762.5 0 0 0-19 23.7l-3.9 5.2c-1.2 1.8-3 3.9-4.3 5.8l-4 5.6a676.6 676.6 0 0 0-47.5 76l-3 6-.3.4-6 11.6-3 6-3 6a683 683 0 0 0-37.3 94.5l-4.7 15.6-1.1 4-1.9 6.5-2 7.4a422.9 422.9 0 0 0-2.2 9l-2.2 8.8-2 9-2 9-1.2 6-1.5 7a354.5 354.5 0 0 0-3.7 21.4l-.9 5.2-.7 4.8c-1.2 7.8-2.3 15.9-3.3 24.8l-.6 5.1-.5 4.5-.7 7-.6 7-1 14-.3 4c0 1.8-.2 3.6-.3 5.3v.4l-.3 6.3c0 2.7-.2 5.3-.3 8v.4a705.8 705.8 0 0 0 0 46.4c0 4 .2 7.8.3 11.7v.6c0 3 .3 5.8.5 8.6v1.7l.2 3.4.7 10.1v1.5l.7 9 .3 2.8 1 10.5v.4a390.6 390.6 0 0 0 2.8 22.1c1.2 9 2.7 18.3 4.3 27.5l1.3 7.3a586.4 586.4 0 0 0 7.7 36.9l1.8 7.3 1.4 6 2 8a698.2 698.2 0 0 0 6.7 23.5l2 6.7 1.2 3.7 1.1 3.6.3 1 1.1 3.4 3.6 10.6 3 9 .4 1.2 1.5 4.2a855.6 855.6 0 0 0 19.6 49 802.7 802.7 0 0 0 40 78.7l.7 1.2 1 1.8 5.4 9c4.9 8 10 16.3 15.6 24.6l.7 1.1a484.4 484.4 0 0 0 13 19l6.1 8.5 6 8.2 5.3 7 7.2 9.2 6.4 8a741 741 0 0 0 6.5 7.8l.3.4 6.3 7.3c2.1 2.4 4 4.8 6.2 7 2 2.4 3.8 4.5 5.8 6.6l8.3 9a755 755 0 0 0 15.4 16l1.9 2 4.3 4.2 1.5 1.5c6.7 6.6 13.4 13 19.9 18.8l3.2 3 1.2 1c2 1.8 4 3.7 6.1 5.4 1.7 1.5 3.3 3 5 4.2 3.6 3.3 7.4 6.5 11.1 9.5l5.6 4.6c7.8 6.3 15.7 12.5 23.7 18.4 2 1.5 4 3 6 4.3l6.7 4.8 6.7 4.8 13.5 9a401.2 401.2 0 0 0 27.5 17.3l7.4 4.5a4.5 4.5 0 0 1-2.2 8.4l.2-.5ZM1325.3 2120.2h-17.9l-7.5-.3c-2.2 0-4.3-.1-6.4-.3h-6.3c-5.9-.3-12.2-.7-18.7-1.3l-4.2-.4a674.4 674.4 0 0 1-71.5-10.5l-4.5-.9-7.4-1.6c-4-.9-7.9-1.7-11.8-2.7l-5-1.2-1.5-.4-6.2-1.5-9-2.4-10-2.8-6.2-1.9a598 598 0 0 1-12.5-3.8 4.5 4.5 0 1 1 2.8-8.6l12.3 3.8 6 1.8 10 2.8 8.8 2.3 6 1.6 1.4.3 5 1.3 11.6 2.6 7.3 1.6 4.5.9a629.8 629.8 0 0 0 59.2 9.2l11.3 1.2 4.2.3c6.4.6 12.6 1 18.5 1.3h6.2l6 .3 7.5.2h25.2c6.2 0 12.6-.2 19.5-.5l13.2-.6 3.2-.3h2.3l3.9-.3h.4l5.8-.4h.7l4.6-.4h2.6l11.3-1.3h.2l6-.7a894 894 0 0 0 12.5-1.8l2.3-.3c1 0 2-.3 3-.4l1-.2 6.5-1 12.3-2.2h.5l2-.4 7.2-1.4 2.8-.6 8.2-1.7 5.4-1.3 1-.2 1.4-.3 2.5-.6h.3l2.2-.5 4-1 3.8-1 9.6-2.5 7-2 4.4-1.2c6.4-1.9 12.7-3.8 18.8-5.8a4.6 4.6 0 0 1 5.5 2.3c.3.6.5 1.3.5 2a4.5 4.5 0 0 1-3.2 4.3c-6.2 2-12.6 4-18.8 5.8l-4.7 1.4-7 2-9.9 2.5-3.7 1-4 1-2.4.5-3 .7-1 .3-1.4.3-5.4 1.2-8.2 1.8-3 .5-7.4 1.5c-.6 0-1.2.2-1.8.4h-.5l-12.4 2.2-6.7 1h-1l-3 .5-2.2.4-12.7 1.7-6.3.8h-.3a705.5 705.5 0 0 1-12.3 1.2h-1.8l-4.4.4h-.4l-6.2.5h-.3l-3.9.3h-2.2l-3.3.3-13.4.6-19.8.6h-7.6Z"/><path fill="#431426" d="M1558.6 1536.9a193.4 193.4 0 0 1-30.6 28 179 179 0 0 1-123 33.8 190.3 190.3 0 0 0 36.6-36.9c45.6-59.9 60.4-147.6 35.6-231.9a276.5 276.5 0 0 0-104.4-149.3 227 227 0 0 0-58.4-29.5 194.6 194.6 0 0 0-41.7-8.7 177.4 177.4 0 0 1 86.8-35.5c17.7-2.2 35.6-1.7 53.2 1.3 15.5 2.6 30.6 7 45.1 13.3a226.8 226.8 0 0 1 41.2 23.3c47 33 85.5 85.4 104.3 149.3 26.3 89.5 8 183-44.7 242.8Z" opacity=".1"/><path fill="#431426" d="M1422.6 1604a192.3 192.3 0 0 1-30.2-2.3c-96.2-15.3-177-99-201.4-208.4-17.2-76.9-3.6-153.8 37.2-211a204.5 204.5 0 0 1 41.6-43.3 182.3 182.3 0 0 1 143.5-35.2c15.8 2.7 31.3 7.3 46.1 13.6s29 14.2 42.1 23.4a281 281 0 0 1 106.1 151.9c26.6 90.3 9 185-45.6 247.1a184.3 184.3 0 0 1-139.4 64.2Zm-41-493.8a173.4 173.4 0 0 0-112.3 40.9 195.5 195.5 0 0 0-33.6 36.4c-39.4 55.1-52.4 129.4-35.8 203.8 23.7 105.8 101.7 186.8 194 201.4a179.4 179.4 0 0 0 89.8-8.9 174.8 174.8 0 0 0 41.7-22.5c11-8 21-17.2 30-27.4 52.7-59.8 69.4-151.2 43.7-238.6-18-61-54.3-113.2-102.6-147a224 224 0 0 0-40.4-22.6 199 199 0 0 0-44.1-13c-10-1.7-20.3-2.5-30.5-2.5Z"/><path fill="#431426" d="M1404.9 1603.2h-.4a234 234 0 0 1-12-1.5c-96.2-15.3-177-99-201.5-208.4-17.1-76.9-3.6-153.8 37.3-211a204.5 204.5 0 0 1 41.5-43.3c.9-.7 2-1 3-1a199.5 199.5 0 0 1 60.3 15.5c14.8 6.3 28.9 14.2 42 23.5a281 281 0 0 1 106.2 151.8c24.6 83.8 10.6 174.2-36.4 235.9-3 3.8-6 7.6-9.2 11.2l-1 1-1.7 2a197 197 0 0 1-25.5 23.4c-.8.5-1.7.9-2.6.9Zm-131-456-4.8 3.9a195.5 195.5 0 0 0-33.4 36.4c-39.4 55.1-52.5 129.4-35.8 203.8 23.6 105.8 101.6 186.8 194 201.4 3.5.5 6.6 1 9.6 1.3 8.3-6.4 16-13.5 23-21.2l1.8-1.9.9-1c3-3.4 6-7 8.8-10.7 45.3-59.4 58.7-146.8 34.8-227.9-18-61-54.3-113.1-102.6-147a224 224 0 0 0-57.2-28.8c-9-2.9-18-5.1-27.3-6.7l-11.8-1.6Z"/><path fill="#FFFAF4" d="m1359.3 1107 4.5 17c4.2 16.3-4.2 31.2-19 33.4-14.7 2.1-30.7-9.6-35-26.4l-2.3-9.4c16.4-7.5 33.9-12.4 51.8-14.6Z"/><path fill="#FFFAF4" d="m1412.6 1108.3 2.4 9c4.3 15.9-3.5 30.4-17.5 32.5-14.1 2-29.5-9.5-33.7-25.8l-4.5-17c17.7-2.1 35.7-1.7 53.3 1.3ZM1314.3 1151.3a21 21 0 0 1-17.5 22.4c-12.8 1.9-26.1-8-29.6-22l-1-4a177 177 0 0 1 41.2-26l2.4 9.3 3.7 14.3c.5 2 .7 4 .8 6ZM1258.8 1205.6c-11.6 2-23.5-6.7-26.5-19.2l-.3-1.5a199.6 199.6 0 0 1 34.2-37.1l1 4 7 28.4c3 12-4 23.6-15.4 25.4ZM1457.7 1121.6l1 3.7c3.6 12.8-2.4 24.5-13.4 26.1-11 1.6-23-7.5-26.6-20.6l-6-22.5c15.5 2.7 30.6 7.1 45 13.3ZM1482 1575.5l3.3 12.6a178.9 178.9 0 0 1-48.1 10.9l-1.6-6.3c-4.2-16.4 3-33.4 16-38 13-4.6 26 4.9 30.4 20.8Z"/><path fill="#FFFAF4" d="m1526.4 1559 1.6 6a180.1 180.1 0 0 1-42.7 23.1l-3.3-12.6c-4.2-16 2.5-32.4 15-36.8 12.5-4.4 25.2 4.7 29.4 20.3ZM1437 1599a181.8 181.8 0 0 1-43.8-1.8c-2.7-13.3 3.5-26.8 14.2-30.6 8.5-3 17.3 1 22.4 9.2a27 27 0 0 1 3.4 8l2.2 8.8 1.6 6.3Z"/><path fill="#FFFAF4" d="M1558.6 1536.9a191.6 191.6 0 0 1-30.6 28l-3.9-14.3c-3.4-12.7 1.8-25.8 11.4-29.2 9.7-3.4 19.5 3.7 23.1 15.5Z"/><path fill="#431426" d="M1437 1603.5a4.5 4.5 0 0 1-4.3-3.5l-1.6-6.2c-4.8-18.5 3.7-38 18.8-43.3a24.5 24.5 0 0 1 20 1.6 34.7 34.7 0 0 1 16.4 22.2l3.3 12.6c.3 1.1.2 2.3-.3 3.2-.5 1-1.4 1.8-2.4 2.2-16 6-32.6 9.7-49.5 11.1h-.4Zm21-45.4a15 15 0 0 0-5 .9c-10.9 3.8-16.8 18.4-13.2 32.6l.7 2.5c13.4-1.4 26.7-4.4 39.4-8.9l-2.3-8.6a25.5 25.5 0 0 0-12-16.5c-2.3-1.3-5-2-7.6-2Z"/><path fill="#431426" d="M1485.3 1592.6a4.7 4.7 0 0 1-3.5-1.6c-.5-.5-.7-1.1-.9-1.7l-3.3-12.6c-4.8-18 3.2-37 17.8-42.1a23.4 23.4 0 0 1 19 1.5 34.3 34.3 0 0 1 16.3 21.9l1.6 6c.3.9.3 1.8 0 2.7-.4.8-1 1.6-1.6 2.1a184.3 184.3 0 0 1-43.8 23.7c-.6.1-1 .2-1.6.1Zm17.7-50.4a14 14 0 0 0-4.6.8c-10 3.5-15.6 18-12 31.4l2 7.7c12.1-5 23.7-11.4 34.4-19l-.8-3a25.5 25.5 0 0 0-12-16.2 15 15 0 0 0-7-1.8ZM1422.6 1604a192.3 192.3 0 0 1-30.2-2.3 4.6 4.6 0 0 1-3.7-3.6c-3.2-15.5 4.3-31.3 17.1-35.8 10.3-3.6 21.4 1 27.7 11.2 1.8 2.8 3.2 6 4 9.3l3.8 15a4.5 4.5 0 0 1-4 5.6c-4.7.4-9.7.6-14.7.6Zm-25.4-10.8a176.3 176.3 0 0 0 34.1 1.6l-2.5-9.8c-.6-2.4-1.5-4.7-2.8-6.7-4.2-6.8-10.8-9.6-17-7.5-7.8 2.8-12.7 12.4-11.8 22.4Z"/><path fill="#431426" d="m1528 1569.5-1.5-.3a4.5 4.5 0 0 1-3-3l-3.7-14.4c-4-14.9 2.4-30.4 14.2-34.5a19.4 19.4 0 0 1 15.2 1 28.4 28.4 0 0 1 13.7 17.2c.3.8.3 1.6.1 2.3-.1.8-.5 1.5-1 2a197.7 197.7 0 0 1-31.3 28.8c-.8.6-1.8.9-2.7.9Zm12.3-44.3c-1.2 0-2.3.2-3.3.5-7.4 2.6-11.3 13.5-8.5 23.7l2.1 8a187 187 0 0 0 22.9-21.5c-1.6-4-4.5-7.4-8.3-9.5a11 11 0 0 0-5-1.2Z"/><path fill="#FFFAF4" d="m1499 1144.8.3 1.3c3 10.9-1.7 21-11 22.5-9.1 1.4-19.3-6.3-22.5-17.5l-8.1-29.4c14.5 6.3 28.4 14 41.3 23Z"/><path fill="#431426" d="M1341.3 1162.2c-16 0-31.4-12.7-35.8-30.1l-2.4-9.5a4.6 4.6 0 0 1 2.5-5.2 181.2 181.2 0 0 1 53.2-15c1-.2 2.2.1 3 .7 1 .6 1.6 1.5 1.9 2.6l4.4 17a33.7 33.7 0 0 1-3.8 27 27 27 0 0 1-18.8 12c-1.4.3-2.8.4-4.2.5Zm-28.5-38 1.4 5.8c3.7 14.5 17.1 24.8 30 23a17.9 17.9 0 0 0 12.7-8 24.8 24.8 0 0 0 2.6-19.9l-3.4-13a172 172 0 0 0-43.3 12Z"/><path fill="#431426" d="M1394.1 1154.5c-15.2 0-30.2-12.4-34.7-29.4l-4.4-17a4.6 4.6 0 0 1 2-5c.5-.3 1.1-.5 1.8-.5a189 189 0 0 1 54.5 1.3 4.5 4.5 0 0 1 3.6 3.2l2.4 9a33.1 33.1 0 0 1-3.4 26.8 26.1 26.1 0 0 1-21.8 11.6Zm-29.1-43.6 3 12c3.7 14 16.8 24.1 28.7 22.5a16.4 16.4 0 0 0 11.5-7.4 24 24 0 0 0 2.3-19.4l-1.6-6.2a179.9 179.9 0 0 0-43.9-1.5ZM1293.6 1178.4c-13.8 0-27-10.7-30.7-25.6l-1-4.1a4.4 4.4 0 0 1 1.4-4.5l6.5-5.2c11-8.5 23-15.8 35.8-21.5a4.4 4.4 0 0 1 5.4 1.2c.4.5.7 1.1.8 1.8l6 23.8c.6 2.3 1 4.6 1 6.9a25.6 25.6 0 0 1-21.3 27 28 28 0 0 1-3.9.2Zm-22.3-29.1.3 1.4c3 11.8 14 20.1 24.6 18.5a16.5 16.5 0 0 0 13.5-17.8c0-1.6-.2-3.2-.6-4.8l-4.7-18.5c-10.3 5-20 11-29 18-1.5 1-2.8 2.1-4.1 3.2Z"/><path fill="#431426" d="M1255.7 1210.4a29.6 29.6 0 0 1-27.8-23l-.3-1.5a4.7 4.7 0 0 1 .7-3.7c10-14 21.8-26.9 35-38a4.6 4.6 0 0 1 4.3-.9 4.5 4.5 0 0 1 3 3.2l8 32.5a26.9 26.9 0 0 1-3.4 21 23.2 23.2 0 0 1-19.5 10.4Zm-18.9-24.6c2.7 9.9 12.3 16.9 21.3 15.4a13.9 13.9 0 0 0 9.6-6 18 18 0 0 0 2-14l-6-25.2c-10 9-19 19-26.9 29.8ZM1442.7 1156c-12.3 0-24.6-10-28.4-24l-6-22.5a4.4 4.4 0 0 1 2.9-5.4c.7-.3 1.5-.3 2.2-.2 15.9 2.7 31.3 7.3 46.1 13.6a4.4 4.4 0 0 1 2.6 3l1 3.7a27.7 27.7 0 0 1-2.7 22.5 20.5 20.5 0 0 1-17.7 9.4Zm-24-42 4.2 15.6c3 10.7 12.8 18.6 21.6 17.3a11.4 11.4 0 0 0 8.2-5.3 18.7 18.7 0 0 0 1.6-15l-.5-1.6a196 196 0 0 0-35-11h-.1Z"/><path fill="#431426" d="M1486 1173.1c-10.5 0-21-8.8-24.5-20.9l-8.2-29.4c-.2-.8-.1-1.6.1-2.4a4.5 4.5 0 0 1 6-3c14.8 6.4 28.9 14.3 42 23.5.9.6 1.5 1.5 1.8 2.5l.3 1.3a24.8 24.8 0 0 1-2.2 20 17.8 17.8 0 0 1-15.2 8.4Zm-21.4-43.4 5.6 20.1c2.4 8.9 10.5 15.4 17.4 14.2a8.9 8.9 0 0 0 6-4 15.7 15.7 0 0 0 1.4-12.6 228 228 0 0 0-30.4-17.7Z"/><path fill="#FF89A4" d="M736.2 1487.1s-74.4-27-84.2 7.1c-9.7 34.2 20.3 142.8 77.5 138.3 29-2.3 3.8-29.6 43.2-47l-36.5-98.4Z"/><path fill="#431426" d="M726 1637c-16.4 0-32-8.5-45.4-25-26.8-32.8-40.6-92.9-33-119a25.2 25.2 0 0 1 13.3-16c25-12.7 74.7 5.1 76.8 6a4.6 4.6 0 0 1 2.5 2.3 4.5 4.5 0 0 1 .2 3.5 4.5 4.5 0 0 1-2.3 2.5 4.5 4.5 0 0 1-3.4.2c-.5-.2-48.1-17.3-69.7-6.3a16.2 16.2 0 0 0-8.8 10.4c-6 21 4.7 78.2 31.4 111 12.6 15.4 26.5 22.6 41.4 21.5 10.4-.9 11.3-4.6 13.3-13 2.4-10 5.6-23.6 28.5-33.6a4.5 4.5 0 0 1 6 2.3 4.6 4.6 0 0 1-.9 5c-.4.4-.9.8-1.4 1-18.8 8.2-21 18.5-23.4 27.5-2.3 9-4.4 18.5-21.3 19.8H726Z"/><path fill="#FFEAB9" d="M1052.4 1558.3c-7 9.2-174.5 226.8-330.2 245.6a188 188 0 0 1-21.8 1.3c-35.4.3-69.7-11.9-97-34.4a85.2 85.2 0 0 1-33.9-69.1c1.1-81.6 113-169.3 125.7-179 1.3-1 2.7-1.9 4.1-2.6 5.7 3.6 12 11.5 17.9 26.4 2.5 6.2 4.5 12.5 6.1 19a451 451 0 0 0-64.9 62.9c-21.3 25.5-37.5 52.5-37.8 74-.1 11.5 4.4 20.4 14.8 28.8 23 18.6 49.5 25.8 80.6 22 134.3-16.3 294.2-223.7 295.8-226a25.6 25.6 0 0 1 40.6 31Z"/><path fill="#431426" d="M700.4 1809.7c-36.4.3-71.8-12.2-99.9-35.4a90 90 0 0 1-35.5-72.8c1.1-84 114.5-172.7 127.5-182.6 1.5-1.1 3.1-2.1 4.8-3a4.6 4.6 0 0 1 4.4.3c7.4 4.6 14 14.2 19.7 28.5 2.6 6.3 4.7 12.9 6.3 19.6a4.5 4.5 0 0 1-1.6 4.6A447.6 447.6 0 0 0 662 1631c-23.8 28.6-36.5 53.3-36.8 71.2 0 10.2 3.8 17.7 13.2 25.3a98 98 0 0 0 77.2 21c131.7-15.8 291.1-222 292.7-224a30 30 0 1 1 47.8 36.4c-7.1 9.3-175.9 228.4-333.3 247.3-7.4.9-14.8 1.4-22.3 1.4Zm-1.4-284.4-1.1.8c-12.5 9.6-122.8 95.9-123.9 175.5a81.2 81.2 0 0 0 32.2 65.7 146.5 146.5 0 0 0 94.2 33.4c7.1 0 14.2-.5 21.2-1.3 153.7-18.5 320.2-234.7 327.2-243.9a21 21 0 0 0-33.4-25.5c-1.6 2.1-161.3 211-298.9 227.6-32.4 4-59.8-3.6-83.9-23-11.4-9.3-16.6-19.6-16.5-32.4.3-25.3 21.3-55.8 38.9-76.9 19-22.5 40.2-43.2 63.2-61.7a140 140 0 0 0-5.2-15.6 59.6 59.6 0 0 0-13.8-22.7h-.2Z"/><path fill="#431426" d="M724.7 1597.4a4.4 4.4 0 0 1-4.2-6s4.3-13.9-7.5-43.4c-8-20.1-15.9-25.4-21-26.2-6.9-1.1-12.3 5-12.3 5.1a4.5 4.5 0 0 1-6.4.6 4.5 4.5 0 0 1-.6-6.4c.4-.4 8.7-10.1 20.6-8.2 10.8 1.7 20.2 12.4 28 31.8 13.2 33 7.8 49 7.6 49.7a4.5 4.5 0 0 1-4.2 3Z"/><path fill="#FFFAF4" d="M973.2 1529.2s-13.8 2.5-18 20c-4.4 17.4 25.4 33 39.2 53.7 13.8 20.7 35 39.8 51.8 30.5 16.8-9.4 10-30.5 10-30.5s64.5-25.2 80-63c17.5-42.6 29.8-206.6 13-243.4-16.9-36.8-40.6-25.6-40.6-25.6s-24.5-45.6-52.8-44.3c-28.3 1.2-32.7 22.3-32.7 22.3s-35-20.6-51.8 0c-16.8 20.7 14.1 74.4 14.1 74.4s-19.7 5.6-16.6 25.6c3.1 20 22.6 44.9 23.5 68 .8 23-37 69.7-19.1 112.3Z"/><path fill="#431426" d="M1036.7 1640.4c-16.7 0-34-16.7-46.1-35a127.3 127.3 0 0 0-19-20.8c-12.5-12-24.3-23-21-36.5a30.9 30.9 0 0 1 16.7-21.6c-9.5-28 2-56.5 11.4-79.6 5-12.2 9.3-22.7 9-29.9-.4-12-6.5-25-12.3-37.5-5-10.5-9.6-20.5-11-30A26.4 26.4 0 0 1 979 1321c-7.6-14.3-27-55.5-11.2-75 15.2-18.7 41.9-8.8 52.8-3.5 4.1-8.7 14.5-19.6 35-20.5 26.3-1.2 48.6 32.5 55.1 43.4a29 29 0 0 1 16.6 1c10.5 3.9 19.2 13.3 26 28 17.4 38.2 5.1 197.6-10.8 241.8-16 44.8-66.1 64.6-81 69.7 1.7 9.4.4 23.9-13.1 31.4-3.6 2-7.6 3-11.7 3.1ZM974 1533.6c-.5 0-11 2.5-14.6 16.7-2 8.3 7.9 17.8 18.4 27.8 7.6 6.7 14.4 14.2 20.3 22.3 12.2 18.4 31.5 37 45.9 29 13.4-7.4 8-25 7.8-25.1a4.5 4.5 0 0 1 .3-3.5 4.5 4.5 0 0 1 2.8-2.2c.5-.2 62-18 79-65.4 15.1-42 27.4-199.2 11-234.9-14.6-32-33.7-23.7-34.5-23.4a4.6 4.6 0 0 1-5.9-2c-.2-.4-23.6-43-48.6-42-24.3 1-28.3 18-28.5 18.8a4.6 4.6 0 0 1-6.7 3c-.3-.2-31.8-18.4-46-1-12.2 15 6.4 55 14.5 69.1a4.5 4.5 0 0 1-1 5.7c-.4.4-1 .8-1.7 1-1.7.4-15.8 5-13.4 20.5a113 113 0 0 0 10.3 27.5c6.2 13.4 12.7 27.1 13.2 41 .3 9-4.3 20.5-9.7 33.6-9.2 22.8-20.7 51.1-9.8 77.2a4.5 4.5 0 0 1-3.3 6.1l.2.2Z"/><path fill="#431426" d="M1069.3 1435.7a4.4 4.4 0 0 1-3.8-2.2c-7.3-11.8-10.7-20.4-17.6-65.1-2.3-15.4-8.7-26.7-18.8-33.6-18-12.4-42.5-7.2-42.8-7.1a4.5 4.5 0 0 1-5.3-3.5 4.5 4.5 0 0 1 3.4-5.3c1.1-.3 28.5-6 49.8 8.5a55.8 55.8 0 0 1 22.6 39.6c6.7 43 9.8 51 16.4 61.8.3.5.5 1 .6 1.7a4.5 4.5 0 0 1-4.5 5.2ZM1096.3 1397c-.6 0-1.2-.1-1.7-.3-.6-.3-1.1-.6-1.5-1-11.2-11.7-13.3-21.1-18.3-43.5-1.7-7.6-3.8-17.1-6.8-29-11-44-47.2-70.2-47.6-70.6a4.5 4.5 0 0 1-1.8-3v-1.7c.2-.6.4-1.1.8-1.6a4.4 4.4 0 0 1 3-1.8h1.7c.6.2 1.1.4 1.6.8 1.6 1 39.3 28.5 51.1 75.8 3 12 5.1 21.5 6.8 29.2 4.9 21.9 6.5 29.3 16 39a4.6 4.6 0 0 1 1.3 3.3 4.4 4.4 0 0 1-4.6 4.4ZM1125.2 1387.6a4.5 4.5 0 0 1-4.4-3.3c-.1-.7-4.4-17-6.4-48.8-2.8-43.3-10-62.9-10-63.2a4.5 4.5 0 1 1 8.4-3.2c.3.9 7.7 20.8 10.6 65.7.7 15.8 2.7 31.5 6.1 47a4.6 4.6 0 0 1-3.2 5.6l-1.1.2ZM993.5 1555.3c-.7 0-1.3-.2-2-.5a48 48 0 0 1-22.6-24 4.5 4.5 0 0 1 2.6-5.9 4.5 4.5 0 0 1 5.9 2.7 39 39 0 0 0 18 19 4.5 4.5 0 0 1-2 8.6h.1Z"/><path fill="#FFEAB9" d="M2081 1226.5c-11.4 44.7-36 76.2-72.8 93.6a172 172 0 0 1-73.9 15c-69.9 0-137.3-30.8-141.3-32.6l21.6-46.5c29.6 13.6 118 43.3 171.8 17.8 22.7-10.8 37.5-30.5 45-60.1a41.9 41.9 0 0 0-5.3-34.7c-16-25.8-54.6-45.5-88.4-58.1-9-21.4-20.9-46.8-28.3-62.5 31.7 8 124.3 35.6 160.1 93.7a94 94 0 0 1 11.5 74.4Z"/><path fill="#431426" d="M1934.3 1339.6c-71.2 0-140.1-31.7-143-33-.6-.3-1-.7-1.5-1.1l-1-1.5-.2-1.8c0-.6.2-1.2.5-1.7l21.4-46.4a4.6 4.6 0 0 1 2.6-2.3 4.5 4.5 0 0 1 3.5.2c29 13.3 115.6 42.6 167.9 17.8 21.5-10.2 35.5-29 42.7-57.3a37.5 37.5 0 0 0-4.9-31.1c-12.4-20.2-43-40.2-86-56.3a4.6 4.6 0 0 1-2.6-2.5 1926 1926 0 0 0-28.3-62.3 4.4 4.4 0 0 1 .6-4.8 4.5 4.5 0 0 1 4.6-1.5c37 9.3 126.8 37.3 162.9 95.7a98.7 98.7 0 0 1 12 77.8c-11.8 46-37.2 78.6-75.2 96.7a176.6 176.6 0 0 1-76 15.4Zm-135.2-39.4c15.9 6.9 74.7 30.3 135.2 30.3 27.5 0 51.7-4.8 72-14.4 35.5-16.9 59.3-47.4 70.4-90.8a89.4 89.4 0 0 0-11-70.8c-32-51.8-112.5-79.3-148-89.2 6.6 14 15.8 34.2 23.5 52 31.5 12.1 71.8 32 88.8 59.4a46.3 46.3 0 0 1 6 38.2c-8 31-23.5 51.7-47.6 63-53 25.3-138-1.4-171.3-16l-18 38.3Z"/><path fill="#FFFAF4" d="M1814.4 1226.8s13.1-4.6 25.6 8.4c12.4 13-5.8 41.2-7.5 66.1-1.6 25-10.5 52-29.8 52.2-19.2.2-23.8-21.5-23.8-21.5s-68.5 10.2-100.7-15c-36.4-28.4-128.5-164.7-132.3-205-3.7-40.3 22.5-42.4 22.5-42.4s-1.3-51.7 23.8-64.6c25.2-13 39.5 3.2 39.5 3.2s20.1-35.3 45.1-25.8c25 9.6 24.7 71.6 24.7 71.6s20-5 27 14c7.2 18.8 2.8 50.2 13.5 70.6 10.7 20.5 66.8 42.2 72.4 88.2Z"/><path fill="#431426" d="M1802.5 1358.2c-15.3 0-23.4-11.8-26.7-20.7-15.4 3-68.7 10.6-104.9-20.3-35.7-30.5-125.5-162.8-129.2-204.4-1.5-16.2 1.4-28.7 8.6-37.2 3.6-4.3 8.4-7.5 13.8-9.2.3-12.6 2.8-53 26.4-65 18-9.4 32.6-5 40.5.4 6.8-10 25-31.8 47.5-23.2 23.5 9 27.1 54.5 27.5 70.7a26.4 26.4 0 0 1 27 17.4c3.3 9 4.3 20 5.3 31.6 1 13.8 2.3 28 7.9 38.6 3.2 6.3 12.2 13.4 22.6 21.5 19.6 15.4 43.7 34.4 49.4 63.4a31 31 0 0 1 25.2 10.5c9.6 10 4.9 25.6 0 42-3 9-5 18.2-6 27.5-1.8 27-11.7 56-34.3 56.4h-.6Zm-23.5-30.6a4.5 4.5 0 0 1 3.7 2c.3.5.6 1.1.7 1.7 0 .8 4 18 19 18h.3c16.5-.1 24-25.9 25.4-48 1-10 3.3-20 6.6-29.5 4.1-13.9 8-27 2-33.3-10.3-10.8-20.7-7.2-20.8-7.2a4.5 4.5 0 0 1-6-3.7c-3.4-28-27.5-46.9-46.8-62.1-11.2-8.8-20.8-16.3-25-24.4-6.4-12.2-7.7-27.4-9-42-1-11-1.8-21.4-4.8-29.1-5.7-15-21-11.4-21.8-11.2-.7.2-1.4.2-2 0a4.6 4.6 0 0 1-3.6-4.4c0-16.4-3.8-60.4-21.8-67.3-21-8.1-39.2 23.4-39.4 23.7a4.5 4.5 0 0 1-7.3.8c-.5-.6-12.5-13.3-34-2.2-22.4 11.5-21.5 60.1-21.5 60.5 0 1.2-.3 2.3-1.1 3.2-.8.9-1.8 1.4-3 1.5-.8 0-21.5 2.4-18.4 37.4 3.6 39.1 92.2 169.5 126.3 198.4 38.2 32.6 100.5 17.6 101.1 17.5a4 4 0 0 1 1.2-.4v.1Z"/><path fill="#431426" d="m1682.3 1194-1.8-.3a4.5 4.5 0 0 1-2.6-4.3c.4-12.5-1-21-16.5-61.8a55.9 55.9 0 0 1 0-45.6c11.2-23.3 37.8-31.8 39-32.1 1.1-.3 2.3-.2 3.3.4a4.5 4.5 0 0 1-.6 8.2c-.4 0-24 7.8-33.6 27.5-5.3 11-5.2 24 .3 38.4 16.3 42 17.6 51.4 17.2 65.3a4.6 4.6 0 0 1-3 4c-.6.3-1.2.4-1.8.3ZM1639.6 1173.9a4.6 4.6 0 0 1-4.4-5.6c3.3-13.3 1.1-20.5-5.5-42-2.4-7.4-5.3-16.8-8.6-28.6-13.2-47 6-89.4 6.7-91.2.5-1.1 1.4-2 2.5-2.4a4.5 4.5 0 0 1 5.7 6.1c-.2.4-18.5 41.4-6.2 85 3.3 11.7 6 21 8.5 28.5 6.8 22 9.6 31 5.7 46.8a4.5 4.5 0 0 1-4.4 3.4ZM1610 1180a4.5 4.5 0 0 1-4.4-3.3 283.4 283.4 0 0 0-18-44c-19.8-40.3-23.3-61.3-23.4-62.2a4.6 4.6 0 0 1 7.2-4.3c1 .7 1.6 1.7 1.8 3 0 .1 3.5 20.7 22.6 59.6 14 28.6 18.4 44.9 18.6 45.6.2.5.2 1.1.1 1.7a4.5 4.5 0 0 1-3.3 3.8l-1.3.1ZM1807.4 1260.2c-.9 0-1.8-.3-2.5-.8-1-.7-1.7-1.7-1.9-2.9-.2-1.2 0-2.4.7-3.4 5-7.5 7.2-16.6 6.3-25.6v-1.7a4.5 4.5 0 0 1 2-2.9 4.7 4.7 0 0 1 3.5-.5 4.7 4.7 0 0 1 2.9 2c.3.5.5 1.1.6 1.7a47.9 47.9 0 0 1-7.7 32.1c-.5.6-1 1.1-1.7 1.5-.7.3-1.4.5-2.2.5Z"/><path fill="#FFD073" d="M884.3 2482.7c21 50 10.1 106.9-21.4 141a97.5 97.5 0 0 1-18.2 15.5c-48.9 32.3-134.1 36.1-186.4-29.7-67.4-84.8-80.5-328.5-65.6-345.5 7-8.1 20.4-15.2 37.4-21.2 64.4-22.9 181.2-30.6 208.3-20.2 46.8 18 71.8 92.1 54.9 134.1-17 42-59.4 67.1-59.4 67.1s34.2 20.2 50.4 58.9Z"/><path fill="#431426" d="M767.2 2666.3a141.4 141.4 0 0 1-112.4-54c-39.6-49.9-57.5-147-64.6-200.4-8.5-63.4-11.3-139.1-.9-151 7.2-8.2 20.2-15.7 38.8-22.3l.5-.2c63.6-22.6 182-31.4 211.4-20.1 21 8.1 40 28.2 51.6 55 12.9 29.5 15 62.1 5.8 85-13.8 34-42.8 56.8-55.3 65.5a138.8 138.8 0 0 1 46.3 57c21 50.2 12 108.8-22.2 145.9-5.7 6.2-12 11.6-19 16.3a146.3 146.3 0 0 1-80 23.3ZM632 2246.8l-.5.2c-17.1 6-29.4 13-35.5 20-4.8 5.4-8 61.1 3 143.8 7 52.5 24.6 147.8 62.8 196 53.1 66.8 137.4 57 180.3 28.7a93.1 93.1 0 0 0 17.4-14.9c31.5-34 39.9-90.2 20.5-136.2a130.9 130.9 0 0 0-48.5-56.7 4.4 4.4 0 0 1-2.2-3.9 4.5 4.5 0 0 1 2.2-3.9c.4-.2 41.2-24.6 57.5-65 8.4-20.6 6.2-50.5-5.7-77.9-10.7-24.7-27.7-43-46.6-50.2-24.9-9.6-139.5-3-204.7 20Z"/><path fill="#431426" d="M718.7 2428.3a4.5 4.5 0 0 1-4.1-6.4c.4-1 1.2-1.7 2-2.2 54.4-27.2 116.4-1.2 119 0a4.5 4.5 0 1 1-3.5 8.3c-.6-.2-60.9-25.4-111.4 0-.7.3-1.3.4-2 .3Z"/><path fill="#FFFAF4" d="M862.9 2623.7a97.5 97.5 0 0 1-18.2 15.5c-48.9 32.3-134.1 36.1-186.4-29.7-67.4-84.8-80.5-328.5-65.6-345.5 7-8.1 20.4-15.2 37.4-21.2-.2 3.1-15.5 209 54.4 329.7 59.3 102.5 178.4 51.2 178.4 51.2Z"/><path fill="#431426" d="M767.2 2666.3a141.4 141.4 0 0 1-112.4-54c-39.6-49.9-57.5-147-64.6-200.4-8.5-63.4-11.3-139.1-.9-151 7.2-8.3 20.4-15.8 39.3-22.5a4.5 4.5 0 0 1 6 4.6c-.6 8.5-14.7 208.8 53.8 327.1 23.7 41 59.8 61.8 107.3 61.8h.2c22.3-.2 44.4-4.4 65.3-12.5a4.6 4.6 0 0 1 5.4 1.6 4.5 4.5 0 0 1-.4 5.6c-5.6 6.2-12 11.7-19 16.3a146.2 146.2 0 0 1-80 23.4Zm-142-416.9a77.1 77.1 0 0 0-29.1 17.5c-4.8 5.5-8 61.2 3 143.9 7 52.5 24.6 147.8 62.8 196 53.1 66.8 137.4 57 180.3 28.7l1.4-1c-37.9 9.7-117.6 18.5-163-59.8-63.6-109.7-57.5-287.3-55.4-325.3Z"/><path fill="#431426" d="M587.2 2310a4.5 4.5 0 0 1-1.5-8.8l41.3-14.5a4.5 4.5 0 0 1 5.8 2.8 4.5 4.5 0 0 1-2.8 5.7l-41.3 14.6-1.5.2ZM588.9 2359.5a4.5 4.5 0 0 1-4.5-3.8 4.5 4.5 0 0 1 3-5l39.6-12.8a4.5 4.5 0 0 1 2.8 8.5l-39.5 12.8-1.4.3ZM594.1 2408.3a4.5 4.5 0 0 1-4.5-3.9 4.5 4.5 0 0 1 3.2-5l39.5-11.6c1.1-.4 2.4-.2 3.4.3a4.5 4.5 0 0 1-.9 8.3l-39.4 11.7a5 5 0 0 1-1.3.2ZM601.5 2459a4.5 4.5 0 0 1-3.7-7c.6-.9 1.5-1.5 2.5-1.8l38.7-10.6a4.4 4.4 0 0 1 3.6.3 4.5 4.5 0 0 1 1.7 6.3 4.5 4.5 0 0 1-2.9 2l-38.7 10.7-1.2.1ZM613.1 2510.9a4.5 4.5 0 0 1-1.5-8.8l37.4-13a4.6 4.6 0 0 1 5.8 2.7 4.5 4.5 0 0 1-2.8 5.8l-37.4 13-1.5.3ZM630.8 2564.4a4.5 4.5 0 0 1-2-8.5l36.2-16.6c1-.5 2.2-.5 3.3 0a4.5 4.5 0 0 1 2.7 5.6c-.4 1.1-1.2 2-2.3 2.5l-36 16.7c-.6.2-1.3.4-2 .3ZM655.5 2610.3a4.5 4.5 0 0 1-1.8-8.7l39.4-17.5a4.5 4.5 0 1 1 3.7 8.3l-39.4 17.5c-.6.2-1.3.4-2 .4ZM695 2645.6a4.5 4.5 0 0 1-4.5-3.5 4.5 4.5 0 0 1 2.4-5l38.2-19.4a4.5 4.5 0 0 1 6.2 5.4c-.3 1-1 2-2 2.6l-38.3 19.5c-.6.3-1.3.4-2 .4ZM742.9 2664.3a4.5 4.5 0 0 1-4.4-3.3 4.5 4.5 0 0 1 2-5l39.1-23.6a4.5 4.5 0 0 1 6.4 1.5 4.6 4.6 0 0 1-.4 5.1c-.4.5-.8.9-1.4 1.2l-39 23.5c-.7.4-1.5.6-2.3.6ZM793.4 2663.9a4.5 4.5 0 0 1-3.7-2 4.4 4.4 0 0 1-.1-5c.3-.5.7-1 1.2-1.3l37.8-26.4a4.5 4.5 0 0 1 5-.1 4.6 4.6 0 0 1 2 2.8 4.5 4.5 0 0 1-1.9 4.7L796 2663c-.8.5-1.7.8-2.6.8Z"/><path fill="#0BBFA4" d="M705.5 2225.2s27.7 110.7-73.3 152.8c0 0-3.6-35.8-3.6-67 0-34.9 1.5-68.2 1.5-68.2 11.3-4 22.9-7.4 34.6-10 13.4-3.3 27-5.8 40.8-7.6Z"/><path fill="#431426" d="M632.2 2382.5c-1.2 0-2.2-.4-3-1.2a4.5 4.5 0 0 1-1.5-2.9c0-.3-3.7-36.4-3.7-67.3 0-34.7 1.6-68.2 1.6-68.5a4.5 4.5 0 0 1 2.9-4 281 281 0 0 1 35.2-10.1c13.6-3.4 27.5-5.9 41.5-7.6a4.5 4.5 0 0 1 4.8 3.4c.3 1.1 27.4 115-76 158-.6.2-1.2.3-1.8.2Zm2.3-136.5c-.4 9-1.4 36.6-1.4 65 0 23 2 48.8 3 60.2 80.7-37.5 69.6-121.7 65.9-141.3-5.7.8-17.6 2.8-36.3 7a316 316 0 0 0-31.2 9Z"/><path fill="#0BBFA4" d="M850.7 2388.3c39-7 63.5-53 54.6-102.7-9-49.8-47.8-84.5-86.9-77.5-39 7-63.5 53-54.6 102.8 9 49.7 47.8 84.4 86.9 77.4Z"/><path fill="#431426" d="M840.6 2393.8c-37.6 0-72.7-34.5-81.1-82.1-9.3-52.2 16.8-100.6 58.2-108 20.3-3.6 41.1 3 58.6 18.5a109.4 109.4 0 0 1 33.3 62.6c9.3 52.1-16.8 100.6-58.3 108-3.5.6-7 1-10.6 1Zm-12.2-182a52 52 0 0 0-9.3.9c-36.4 6.4-59.3 50.3-50.8 97.4 8.5 47.1 45 80.3 81.6 73.8 36.5-6.6 59.4-50.3 51-97.5-3.5-22-14.3-42.3-30.6-57.5a62.7 62.7 0 0 0-41.9-17Z"/><path fill="#FF89A4" d="M1029.5 1972.6s-66.6 43-45.3 71.4c21.2 28.5 126 70.1 157 21.9 15.6-24.5-21.4-21-11.4-62.9l-100.3-30.4Z"/><path fill="#431426" d="M1091.8 2092.5c-42 0-95.4-24.6-111.2-45.8a25 25 0 0 1-4.6-20.3c5-27.6 49.2-56.4 51.1-57.6a4.5 4.5 0 0 1 6.2 1.4 4.5 4.5 0 0 1-1.3 6.2c-.4.3-42.8 27.9-47.1 51.7a16.3 16.3 0 0 0 3 13.3c13.1 17.5 65.1 43.5 107.3 42 20-.7 34.2-7.4 42.1-20 5.7-8.8 3.2-11.8-2.2-18.3-6.5-8-15.5-18.8-9.7-43 .3-1.3 1-2.3 2-2.9a4.5 4.5 0 0 1 6.3 1.5c.6 1 .8 2.2.5 3.4-4.7 19.9 2 28 7.8 35.2 6 7.2 12 14.7 3 29-9.6 15-26.7 23.3-49.4 24-1.4.2-2.7.2-3.8.2Z"/><path fill="#FFEAB9" d="M1071.4 2290.6c-21 26.3-63.7 39-130.1 39h-10.5a708 708 0 0 1-94-8.4 25.4 25.4 0 0 1-21.1-19.4 25.5 25.5 0 0 1 29.7-31c62.7 10.6 165.3 14 186.1-12 23.3-29 18.5-155.5 7.7-236l-.2-2.2a69 69 0 0 1 26.2 3c9.4 2.5 18.5 6 27 10.6 6.8 58.6 19 206.6-20.8 256.4Z"/><path fill="#431426" d="M941.3 2334.3h-10.6c-31.7-.7-63.3-3.6-94.5-8.5a30 30 0 1 1 10-59.3c64 10.8 162.9 13 181.8-10.5 20-25.2 19.2-140.3 6.7-232.6l-.2-2.6a4.5 4.5 0 0 1 4-4.7 74 74 0 0 1 27.9 3.2c9.7 2.5 19 6.2 28 11 .5.3 1 .8 1.5 1.4.4.6.6 1.3.7 2 7 61.1 19.1 208.8-21.7 259.8-22 27.4-65.7 40.8-133.6 40.8ZM841 2275a21 21 0 0 0-3.4 41.8c30.9 4.8 62 7.6 93.2 8.3h10.5c65 0 106.4-12.2 126.6-37.4 39-49 25.6-201.4 20-250.9-7.7-3.8-15.8-6.8-24-9-6.5-2-13.2-3-20-3.2 10 76.1 16.2 205.3-9 236.8-24.4 30.5-138.8 22.5-190.4 13.8l-3.5-.2Z"/><path fill="#431426" d="M1106.8 2050.1c-.8 0-1.5-.2-2.2-.5-.6-.4-1.2-.9-1.6-1.5 0 0-8.4-11.8-39-20.2-21.1-5.8-29.9-2.7-33.6.8-5 4.8-3.4 12.8-3.4 13a4.5 4.5 0 0 1-8.8 1.9c0-.5-2.8-13 5.9-21.3 8-7.6 22-8.6 42.2-3 34.5 9.4 43.9 23.4 44.3 24a4.5 4.5 0 0 1-1.4 6.2c-.7.5-1.5.7-2.4.6ZM840.4 2419.9H839a12.3 12.3 0 1 1 1.5 0Zm0-18.5a6.2 6.2 0 0 0-.7 12.4 6.3 6.3 0 0 0 7-5.4 6.2 6.2 0 0 0-5.5-7h-.8ZM769 2388.8h-1.5A12.3 12.3 0 1 1 781 2378a12.2 12.2 0 0 1-12.1 10.7Zm0-18.5a6.2 6.2 0 1 0 6.2 7 6.2 6.2 0 0 0-5.4-6.8l-.8-.2Z"/><path fill="#431426" d="M838.5 2412h-.4c-48-3.7-70.4-30.2-71.3-31.3a4.6 4.6 0 0 1-1.2-3.3 4.5 4.5 0 0 1 3.2-4 4.4 4.4 0 0 1 3.5.4c.6.3 1 .7 1.4 1.2.2.2 21.2 24.6 65.1 28a4.6 4.6 0 0 1 3.2 1.5 4.6 4.6 0 0 1 1.2 3.3 4.5 4.5 0 0 1-4.7 4.3Z"/><path fill="#FFD073" d="M1172.6 666.3s-1 45-118.6 87.7c-61.8 22.3-100.4 22.4-122.5 18a56.1 56.1 0 0 1-24.9-9.7l.3-10.2 1.9-58 .8-27.5 2.1-67.3 1-30.2 2-67 1.2-36.3 2.7-86.3 28 31.8 19.2 21.6 28.9 32.5 19.3 21.8 37.8 42.8 18.7 21 46.7 52.7 17.9 20.1 37.5 42.5Z"/><path fill="#0BBFA4" d="M965.8 432.8c-11 27-28.6 50.8-51 69.3l1-36.3a140.2 140.2 0 0 0 30.9-54.5l19.1 21.5ZM1014 487.2l-.9 2.3c-13.4 32.6-41.6 75.9-101.4 109.8l1-30.2c50.2-32.6 72.3-72.7 82-103.7l19.3 21.8ZM1070.5 551c-3 7-6.8 14.2-11.1 21.5-22.6 39-66.7 89.7-150.6 121.6l.8-27.5c57.1-23.5 99.9-59 127.2-105.7 5.8-9.9 10.8-20.2 15-31l18.7 21.1ZM1135 624c-4.5 7.8-9.6 16-15.5 24.2-27 37.9-74.5 84.3-155.3 113.5a417.1 417.1 0 0 1-32.8 10.4 56.1 56.1 0 0 1-24.8-9.7l.3-10.3c84.5-19 148.7-58.5 191.2-117.5a253 253 0 0 0 19.1-31L1135 624Z"/><path fill="#431426" d="M914.7 506.6a4.5 4.5 0 0 1-4.5-4.6l1.1-36.3c0-1.1.5-2.2 1.2-3a136 136 0 0 0 29.8-52.9 4.5 4.5 0 0 1 7.7-1.7l19.2 21.6a4.5 4.5 0 0 1 .8 4.6 182 182 0 0 1-52.3 71.1c-.8.8-1.9 1.2-3 1.2Zm5.6-39-.7 24a171 171 0 0 0 41-57.9l-12-13.6c-6.3 17.5-15.9 33.6-28.3 47.5ZM911.7 603.8a4.6 4.6 0 0 1-4.5-4.6l1-30.3a4.5 4.5 0 0 1 2-3.6c50.5-32.7 71.5-73.1 80.2-101.2a4.5 4.5 0 0 1 7.7-1.7l19.2 21.8c.6.6 1 1.4 1.1 2.2.2.8 0 1.6-.2 2.3l-1 2.5c-13 31.7-41.5 77-103.3 112-.6.4-1.4.6-2.2.6Zm5.4-32.2-.6 19.7c54.5-33 80.2-74 92.3-103.2l-12.3-13.9a196.6 196.6 0 0 1-79.4 97.4ZM908.8 698.6a4.5 4.5 0 0 1-4.5-4.6l.8-27.5a4.5 4.5 0 0 1 2.8-4c56.2-23.2 98.2-58.1 125-103.8 5.7-9.8 10.6-20 14.7-30.4a4.7 4.7 0 0 1 3.4-2.8 4.5 4.5 0 0 1 4.2 1.5l18.6 21c.6.7 1 1.5 1.1 2.4.2.8 0 1.7-.3 2.5-3.4 7.5-7.2 14.8-11.3 22-22 38.1-66.6 90.6-153 123.4l-1.5.3Zm5.2-29-.5 17.8c79.8-32 121.2-81.2 142-117.2 3.4-6 6.7-12 9.6-18.5l-11.8-13.4a229 229 0 0 1-12.6 24.9c-27.4 46.7-70 82.6-126.7 106.4ZM931.5 776.6h-1c-18.5-3.6-26.5-10.4-27-10.7a4.6 4.6 0 0 1-1.5-3.6l.3-10.3a4.5 4.5 0 0 1 3.5-4.2c83.4-18.8 146.8-57.7 188.6-115.8a256 256 0 0 0 18.7-30.2 4.5 4.5 0 0 1 5.6-2.1c.7.2 1.3.7 1.8 1.2l17.9 20.2a4.6 4.6 0 0 1 .5 5.2 306.9 306.9 0 0 1-15.8 24.6c-25.5 35.8-73.5 84.8-157.4 115.2a423 423 0 0 1-34.2 10.5ZM911.2 760c6.2 3.6 13 6 20.1 7.3 10.4-2.8 21-6.2 31.4-10 81.8-29.5 128.4-77 153.3-111.9 4.8-6.7 9.4-13.7 13.7-21l-11.5-12.9c-4.9 8.9-10.3 17.4-16.3 25.6-42.5 59-106.5 99-190.4 118.5l-.3 4.4Z"/><path fill="#431426" d="M956.3 778.8c-8.7 0-17.3-.7-25.7-2.3-18.6-3.6-26.6-10.4-27-10.7a4.6 4.6 0 0 1-1.6-3.5l12-383a4.5 4.5 0 0 1 3-4 4.5 4.5 0 0 1 5 1.2l253.9 286.8c.7.8 1.1 1.9 1.1 3 0 2-2.4 48.8-121.5 91.9-43.7 15.8-76.1 20.6-99.2 20.6ZM911.2 760a63.1 63.1 0 0 0 21 7.5c21 4.1 58.7 4.3 120.3-17.9 101-36.5 113.8-74 115.3-82L922.8 391 911.2 760Z"/><path fill="#431426" d="M918.6 384c-1.1 0-2.2-.4-3-1.2l-34.3-31.6a4.5 4.5 0 0 1 6-6.6l30.3 28 23.7-37.1a4.5 4.5 0 1 1 7.6 4.9L922.3 382a4.6 4.6 0 0 1-3.3 2h-.4Z"/><path fill="#431426" d="M876.3 387a4.5 4.5 0 0 1-4.3-6 4.5 4.5 0 0 1 4-3l37.5-2.7-5.1-37.2a4.5 4.5 0 1 1 9-1.2l5.7 42a4.5 4.5 0 0 1-4.1 5l-42.3 3.1h-.4Z"/><path fill="#0BBFA4" d="M1019.6 818.5a15.9 15.9 0 0 0-24 20.8l57.6 66a15.9 15.9 0 0 0 24-20.7l-57.6-66.1Z"/><path fill="#FFD073" d="M1554.4 1635.8a15.9 15.9 0 1 0-30.2 9.7l26.9 83.4a15.9 15.9 0 0 0 30.2-9.8l-27-83.3Z"/><path fill="#0BBFA4" d="M1204.5 1704.6a15.9 15.9 0 0 0 0-31.8H1117a15.9 15.9 0 1 0 0 31.8h87.6Z"/><path fill="#FFD073" d="M952.5 1216.4a15.9 15.9 0 1 0-15.9-27.5l-75.9 43.8a15.9 15.9 0 1 0 16 27.5l75.8-43.8ZM1462 1903.5a15.9 15.9 0 0 0-15.8-27.4l-76 43.8a15.9 15.9 0 0 0 16 27.5l75.8-43.9Z"/><path fill="#0BBFA4" d="M1734.7 1433.7a15.9 15.9 0 1 0 21.4-23.5l-64.7-59a15.9 15.9 0 0 0-21.4 23.4l64.7 59ZM1712.5 881.2a15.9 15.9 0 0 0 10.2-30l-83-28.3a15.9 15.9 0 1 0-10.2 30.1l83 28.2Z"/><path fill="#FFD073" d="M1342.6 695.6a15.9 15.9 0 1 0-20.8-24l-66.1 57.5a15.9 15.9 0 0 0 20.8 24l66.1-57.5Z"/><path fill="#0BBFA4" d="M717.9 1363a15.9 15.9 0 1 0 31.2-5.6l-15.4-86.3a15.9 15.9 0 0 0-31.2 5.6l15.4 86.3ZM1865.7 1655.2a15.9 15.9 0 0 0-30.2 9.8l27 83.3a15.8 15.8 0 1 0 30.1-9.7l-26.9-83.4Z"/><path fill="#431426" d="M1065.2 915.3a20.4 20.4 0 0 1-15.4-7l-57.5-66.1a20.4 20.4 0 0 1 30.7-26.8l57.5 66.2a20.4 20.4 0 0 1-2 28.7c-3.7 3.2-8.4 5-13.3 5Zm-57.6-97.8a11.3 11.3 0 0 0-10.3 6.6c-1 2-1.2 4.2-1 6.4.4 2.1 1.3 4.1 2.8 5.8l57.5 66.1a11.3 11.3 0 0 0 16 1.1 11.4 11.4 0 0 0 1.1-16l-57.5-66.1a11.5 11.5 0 0 0-8.6-4ZM1566.2 1744.5a20.3 20.3 0 0 1-19.4-14.1l-27-83.4a20.4 20.4 0 0 1 38.7-12.5l27 83.3a20.4 20.4 0 0 1-19.3 26.7Zm-27-115.2c-1.1 0-2.3.2-3.4.6a11.4 11.4 0 0 0-7.4 14.3l27 83.4a11.3 11.3 0 0 0 14.4 7.3 11.4 11.4 0 0 0 7.3-14.3l-27-83.4a11.5 11.5 0 0 0-10.8-7.9ZM1204.5 1709H1117a20.4 20.4 0 0 1 0-40.7h87.6a20.4 20.4 0 0 1 0 40.8Zm-87.5-31.7a11.4 11.4 0 1 0 0 22.8h87.6a11.4 11.4 0 0 0 0-22.8H1117ZM868.7 1266.8a20.4 20.4 0 0 1-17.7-10.2 20.4 20.4 0 0 1 7.5-27.7l75.8-43.8a20.4 20.4 0 1 1 20.4 35.3l-75.8 43.7c-3.1 1.8-6.6 2.7-10.2 2.7Zm-9.9-14.7a11.4 11.4 0 0 0 15.6 4.2l75.8-43.8a11.3 11.3 0 0 0 1.3-18.9 11.4 11.4 0 0 0-12.6-.8l-75.9 43.8a11.4 11.4 0 0 0-4.2 15.5ZM1378.3 1954a20.4 20.4 0 0 1-17.7-10.2 20.4 20.4 0 0 1 7.4-27.8l76-43.8a20.4 20.4 0 0 1 20.3 35.3l-75.9 43.8c-3 1.7-6.6 2.7-10.1 2.7Zm-9.9-14.7a11.4 11.4 0 0 0 11.3 5.6c1.5-.2 3-.7 4.2-1.5l76-43.8a11.3 11.3 0 0 0-2.8-20.8c-3-.8-6-.4-8.6 1.2l-76 43.8a11.4 11.4 0 0 0-5.6 11.3c.2 1.5.7 2.9 1.4 4.2h.1ZM1745.2 1442.3c-5 0-10-1.9-13.7-5.3l-64.7-59a20.4 20.4 0 0 1 27.5-30.2l64.7 59.1a20.3 20.3 0 0 1-12.8 35.4h-1Zm-64.7-90.8h-.5a11.4 11.4 0 0 0-7 19.6l64.7 59.2a11.5 11.5 0 0 0 8.2 3 11.3 11.3 0 0 0 7.9-3.7 11.3 11.3 0 0 0-.8-16l-64.7-59.1c-2-2-4.8-3.1-7.6-3.2l-.2.2ZM1717.5 886.4c-2.2 0-4.4-.3-6.5-1l-83-28.2a20.5 20.5 0 0 1-13.8-18 20.4 20.4 0 0 1 26.9-20.6l83 28.2a20.4 20.4 0 0 1-6.6 39.6Zm-93.7-52.2a11.4 11.4 0 0 0 7.1 14.4l83 28.2a11.4 11.4 0 1 0 7.3-21.5l-83-28.2a11.4 11.4 0 0 0-14.4 7.1ZM1266.1 761.5a20.4 20.4 0 0 1-13.4-35.8l66.2-57.5a20.5 20.5 0 0 1 28.8 1.9 20.3 20.3 0 0 1-2 28.9l-66.2 57.5c-3.7 3.2-8.5 5-13.4 5Zm66.2-89.3c-2.8 0-5.4 1-7.5 2.8l-66.1 57.5a11.4 11.4 0 0 0 11 19.4c1.5-.5 2.8-1.3 3.9-2.2l66.1-57.5a11.4 11.4 0 0 0-6.6-20h-.8ZM733.5 1380.5a20.4 20.4 0 0 1-20-16.7l-15.5-86.3a20.4 20.4 0 0 1 31.7-20.3c4.5 3 7.5 7.8 8.4 13.1l15.5 86.3a20.4 20.4 0 0 1-20 24Zm-17.4-117.8a11.4 11.4 0 0 0-9.2 13.2l15.4 86.3a11.3 11.3 0 0 0 22.4-4l-15.5-86.3a11.4 11.4 0 0 0-13.2-9.2ZM1877.5 1764a20.4 20.4 0 0 1-19.4-14.2l-27-83.3a20.4 20.4 0 1 1 38.9-12.6l27 83.4a20.3 20.3 0 0 1-19.5 26.7Zm-27-115.2a11.5 11.5 0 0 0-7.4 2.8 11.4 11.4 0 0 0-3.5 12.1l27 83.4a11.3 11.3 0 0 0 14.3 7.3 11.4 11.4 0 0 0 7.4-14.3l-27-83.4a11.4 11.4 0 0 0-10.9-7.9ZM1313.8 1082.7c-5.3 0-10.5-.6-15.6-1.7a4.5 4.5 0 0 1-3.5-5.4c.3-1.1 1-2.2 2-2.8 1-.6 2.3-.9 3.4-.6 20 4.4 40.6-1.4 51.4-14.3 8.8-10.5 10-24 3.7-39.4-4.7-11.1-11.5-18-20.3-20.2-20.7-5.3-46.5 15-46.7 15.3-.5.4-1 .6-1.6.8a4.5 4.5 0 0 1-4-7.9c1.1-1 29.5-23.3 54.5-17 11.7 3 20.6 11.6 26.4 25.5 7.7 18.3 6 35.6-5 48.7a57.4 57.4 0 0 1-44.7 19ZM1031.1 1171.8c-.8 0-1.5-.2-2.2-.6a4.5 4.5 0 0 1-1.5-6.5c.4-.5.8-.9 1.3-1.2 102.5-65 184-38 187.4-36.8l1.5 1a4.6 4.6 0 0 1 1.5 3 4.5 4.5 0 0 1-1.1 3.3c-.4.5-1 .8-1.5 1.1a4.4 4.4 0 0 1-3.4.2c-.8-.3-81-26.7-179.6 35.8-.8.5-1.6.7-2.4.7ZM1426.6 1059.3a4.6 4.6 0 0 1-3.8-2 4.5 4.5 0 0 1-.3-4.3c1.4-3.3 35.7-82 152.5-114.8a4.5 4.5 0 1 1 2.5 8.7c-112.5 31.6-146.4 108.8-146.8 109.6a4.5 4.5 0 0 1-4.1 2.8Z"/><path fill="#FFFAF4" d="M1179.7 1125.2a218.8 218.8 0 0 0-74 8.3 137.7 137.7 0 0 1-30.7-57c-14-50-1.7-97.2 27.4-105.3a33 33 0 0 1 8.4-1.2c27-.3 57 31.8 69.6 77.1 8.2 29.5 7.3 58-.7 78Z"/><path fill="#431426" d="M1105.6 1138a4.4 4.4 0 0 1-3.3-1.4 142.5 142.5 0 0 1-31.6-58.8c-14.9-53.3-1.5-102 30.5-110.9a38 38 0 0 1 9.5-1.4c29.8-.2 61 33.5 74 80.4 8.3 29.6 8 59-.9 81a4.5 4.5 0 0 1-4.4 2.8 215.4 215.4 0 0 0-72.7 8.3h-1Zm5.6-163.4h-.2c-2.5 0-4.9.4-7.2 1-26.7 7.5-37.6 52.2-24.3 99.7a135 135 0 0 0 27.7 53.2 223 223 0 0 1 69.5-8c6.9-19.6 6.7-46.2-.5-72.1-11.9-42.2-39.7-73.8-65-73.8Z"/><path fill="#431426" d="M1179.7 1125.2c-15.6-1-31.2-.1-46.6 2.3a144.6 144.6 0 0 1-26-45.7l27.5-25-36.4-7c-7.2-37.3-2.2-69.4 12.6-79.7 27-.4 57 31.8 69.6 77 8.2 29.5 7.3 58-.7 78ZM1059.6 976.4h-.7a4.5 4.5 0 0 1-3.8-5c3-22.3 16.5-39.4 34.9-44.5 18.4-5.2 38.7 2.5 52.9 20a4.6 4.6 0 0 1-.7 6.3 4.5 4.5 0 0 1-6.3-.7c-12-14.6-28.6-21-43.5-17-15 4.2-25.8 18.4-28.4 37a4.5 4.5 0 0 1-4.4 4Z"/><path fill="#FFFAF4" d="M1498 977.5a229 229 0 0 0-51 45.6c-24-6.9-47.8-36.3-58.8-75.5-14-50-1.7-97.2 27.4-105.2 2.8-.8 5.6-1.2 8.4-1.2 27-.4 57 31.8 69.6 77 5.7 19.3 7.2 39.5 4.4 59.3Z"/><path fill="#431426" d="M1447 1027.5c-.4 0-.9 0-1.3-.2-25.8-7.4-50.7-39-61.7-78.6-15-53.2-1.5-101.9 30.5-110.8 3.1-.9 6.3-1.3 9.6-1.4 29.7-.4 60.8 33.4 74 80.4a145 145 0 0 1 4.4 61.3c-.1.6-.4 1.2-.7 1.7-.3.5-.8 1-1.3 1.3a225.3 225.3 0 0 0-50 44.6 4.4 4.4 0 0 1-3.5 1.7Zm-22.4-182h-.4a27 27 0 0 0-7.3 1c-26.7 7.5-37.5 52.3-24.2 99.8 9.8 35.2 30.8 63.4 52.8 71.5a235.4 235.4 0 0 1 48.4-43c2.2-18.6.7-37.5-4.5-55.5-11.7-42-39.6-73.7-64.8-73.7Z"/><path fill="#431426" d="M1498 977.5a229 229 0 0 0-39 32.1c-14.3-9-28.7-29.9-38.6-56.8l27.4-25-36.2-7c-7.3-37.3-2.2-69.4 12.6-79.7 27-.4 57 31.8 69.6 77 5.6 19.3 7 39.5 4.2 59.4ZM1372.9 847.4h-.7a4.5 4.5 0 0 1-3.8-5c3-22.3 16.5-39.4 34.9-44.5 18.4-5.2 38.7 2.5 52.8 19.9a4.5 4.5 0 0 1-7 5.7c-12-14.6-28.5-21-43.4-17-15 4.1-25.8 18.4-28.4 37a4.5 4.5 0 0 1-4.4 4ZM952.3 1948.1a3.5 3.5 0 1 0 0-7 3.5 3.5 0 0 0 0 7ZM827.6 1884a3.5 3.5 0 1 0 0-7 3.5 3.5 0 0 0 0 7ZM719.5 1735.6a3.5 3.5 0 1 0 0-7.1 3.5 3.5 0 0 0 0 7ZM632.4 1489.8a3.5 3.5 0 1 0 0-7 3.5 3.5 0 0 0 0 7ZM662 1399.6a3.5 3.5 0 1 0 0-7.1 3.5 3.5 0 0 0 0 7.1ZM631.5 1390.7a3.5 3.5 0 1 0 0-7.1 3.5 3.5 0 0 0 0 7ZM674.7 1257.3a3.5 3.5 0 1 0 0-7.1 3.5 3.5 0 0 0 0 7.1ZM1502.5 1365.2a3.6 3.6 0 1 0 0-7.2 3.6 3.6 0 0 0 0 7.2ZM1586.8 1426.6a3.5 3.5 0 1 0 0-7.1 3.5 3.5 0 0 0 0 7ZM1536.3 1493a3.5 3.5 0 1 0 0-7 3.5 3.5 0 0 0 0 7ZM1549 1293.3a3.6 3.6 0 1 0 0-7.1 3.6 3.6 0 0 0 0 7ZM1458.5 1242.8a3.5 3.5 0 1 0 0-7.1 3.5 3.5 0 0 0 0 7ZM1535.8 1357.4a3.6 3.6 0 1 0 0-7 3.6 3.6 0 0 0 0 7ZM1498.6 1478.9a3.5 3.5 0 1 0 0-7.1 3.5 3.5 0 0 0 0 7.1ZM1467.2 1192.1a3.6 3.6 0 1 0 0-7 3.6 3.6 0 0 0 0 7ZM1531 1191.4a3.6 3.6 0 1 0 0-7.1 3.6 3.6 0 0 0 0 7ZM1391.7 1167.2a3.5 3.5 0 1 0 0-7 3.5 3.5 0 0 0 0 7ZM666.6 1088a3.5 3.5 0 1 0 0-7 3.5 3.5 0 0 0 0 7ZM839.4 931.6a3.5 3.5 0 1 0 0-7 3.5 3.5 0 0 0 0 7ZM984.8 705.3a3.5 3.5 0 1 0 0-7.1 3.5 3.5 0 0 0 0 7ZM927.7 730.2a3.5 3.5 0 1 0 0-7.1 3.5 3.5 0 0 0 0 7ZM946.7 761.7a3.5 3.5 0 1 0 0-7 3.5 3.5 0 0 0 0 7Z"/></svg>
