<svg xmlns="http://www.w3.org/2000/svg" width="3000" height="3000" fill="none"><path fill="#FFFAF4" d="m1607.4 1882.9-51.4 531.5c-.4 4.2-2 8.2-4.8 11.5l-1.3 1.6-111.5 133.4a36.5 36.5 0 0 1-60.6-39.3c2.3-4.5 5.4-8.5 9.2-11.8l127.5-107.9 50.6-523c3.7-27.8 43.8-24.5 42.3 4Z"/><path fill="#431426" d="M1410.5 2578.1a40.7 40.7 0 0 1-26.2-71.6l126-106.8 50.5-521.2a25.2 25.2 0 0 1 27.8-23 25.1 25.1 0 0 1 23 27.7v.2l-51.5 531.4c-.5 5-2.5 9.8-5.7 13.7l-1.3 1.6-111.5 133.5a40.3 40.3 0 0 1-31.1 14.5Zm175.6-714a16.4 16.4 0 0 0-16.8 15.4l-50.5 522.7a4.2 4.2 0 0 1-1.5 2.9L1389.8 2513a32.2 32.2 0 0 0 0 49 32 32 0 0 0 45.2-4l112.8-135c2.2-2.6 3.5-5.7 3.8-9l51.4-531.4a16.6 16.6 0 0 0-15.3-18.5h-1.6Z"/><path fill="#FF89A4" d="M1556 2414.4s51.8 19.8 65 85.3c8.3 43.6 14.2 87.8 17.7 132l-45 2.6-12.8-64.3-27.7 66.8s-213.9 16.6-230.4 1.4c-16.5-15.2 4.1-77.6 64.2-128.4 0 0-20.6 24.2 8.6 31.3 41.1 10 160.4-126.7 160.4-126.7Z"/><path fill="#431426" d="M1387.6 2648.9c-34.2 0-61.6-2-67.7-7.6-4.7-4.3-7-11.4-6.9-20.4.5-26.6 23-73.7 71.2-114.6a4.3 4.3 0 0 1 5.9.2c.7.8 1.2 1.8 1.2 2.9 0 1-.3 2.1-1 3-2.2 2.6-7.5 10.7-5.7 16.4 1.1 3.6 5.2 6.3 12 8 1.2.3 2.5.4 3.9.4 34.6 0 120.7-89.7 152.2-125.8a4.3 4.3 0 0 1 4.7-1.2c2.3.9 54.2 21.5 67.6 88.5 8.4 43.9 14.4 88.1 17.9 132.7a4.4 4.4 0 0 1-4 4.5l-45 2.5a4.3 4.3 0 0 1-4.4-3.4l-10-50.5-22.3 53.8a4.1 4.1 0 0 1-3.6 2.6c-23 2-105.3 8-166 8Zm-12-123c-35 34.4-53.6 72.6-54 95.1-.1 6.6 1.3 11.5 4 14 9.9 9 122.6 5.5 224.7-2.3l26.7-64.4c.3-.8 1-1.5 1.7-2a4.3 4.3 0 0 1 6.4 2.8l12 60.7 37-2c-3.6-42.7-9.4-85.2-17.4-127.3a113.8 113.8 0 0 0-59.6-80.9c-19.5 22.2-122 135.5-162.5 125.7-9.9-2.5-16-7-18.1-13.7-.6-1.8-1-3.8-.9-5.7Z"/><path fill="#FF89A4" d="m1471.1 2438.5-45.1 38.2s35.5-14 67 3.2c31.3 17 59.3 73 85.5 43.2 23.2-26.5-36.7-72.8-60.4-80a134.5 134.5 0 0 0-47-4.6Z"/><path fill="#431426" d="M1562.2 2536c-14.4 0-27.7-13.4-42-27.6-9.5-9.5-19.4-19.3-29.3-24.8-29.2-15.9-63-3-63.3-2.8-1 .3-2 .4-3 0a4.3 4.3 0 0 1-2.8-4.7c.2-1 .7-2 1.4-2.6l45.2-38.2a4 4 0 0 1 2.3-1c16.4-1.3 32.9.3 48.7 4.9 19.1 5.7 59.8 35 67.4 61.5a25.8 25.8 0 0 1-5 25.3 26.1 26.1 0 0 1-18.8 10h-.8Zm-104.7-69c13-.2 26 3 37.5 9a152 152 0 0 1 31.4 26.3c13.1 13 25.6 25.4 36.3 25a17.6 17.6 0 0 0 12.6-7 17.3 17.3 0 0 0 3.2-17.3c-6.6-23-45-50.6-61.6-55.7-14.3-4-29.2-5.5-44-4.6l-30 25.5c4.8-.8 9.7-1.2 14.6-1.2Z"/><path fill="#431426" d="M1555 2514.2a13.3 13.3 0 1 1-.2-26.7 13.3 13.3 0 0 1 .1 26.7Zm0-18.1a4.7 4.7 0 0 0-4.8 5.7c.2.9.7 1.7 1.3 2.4a4.8 4.8 0 1 0 3.4-8.1Z"/><path fill="#FFFAF4" d="M1959 2170.3c37.2-5.2 71.8-18 106.4-31 14.7-5.8 29-11.7 43.7-18.1l178.3 36a38.5 38.5 0 0 0 36.6-63.6 38.5 38.5 0 0 0-28.4-13l-186.9-2.7c-3.8-.5-7.6.1-11 1.8a794.5 794.5 0 0 1-120.4 43.9c-13 2.8-27.7 6.7-40.1 4.3-5.4-2.6-10.3-6-14.6-10.1-23.5-21.9-43.6-51.3-61.9-78.7a1319 1319 0 0 1-53.5-89c-14.4-24.4-50-5.3-37.4 20.2 26.4 47.4 54 93.2 86.7 136.7a319 319 0 0 0 37.7 42.4c9 7.8 17 14.3 29.3 18.7 11.5 4 24 3.4 35.4 2.2Z"/><path fill="#431426" d="M1944 2175.5c-7.5.1-15-1-22-3.3a91.4 91.4 0 0 1-30.8-19.5 319.9 319.9 0 0 1-38.3-43 1164.4 1164.4 0 0 1-87-137.2c-7.9-15.9 0-29 10.3-34.7a25.2 25.2 0 0 1 34.4 10.2 1339 1339 0 0 0 53.4 88.8c19.4 29 38.7 56.8 61.2 77.8 3.8 3.7 8.1 6.8 12.8 9.1 10.3 2 22.3-.8 34-3.4l4.2-1a790 790 0 0 0 119.3-43.4c4-2 8.7-2.8 13.3-2.3l186.8 2.7a43 43 0 1 1-9.2 85l-177-35.7c-14 6.2-28 12-42.6 17.6-32.4 12.2-69 26-107.5 31.3-5 .6-10.2 1-15.3 1Zm-155.3-232.4c-3 0-6 .7-8.6 2.2a16.4 16.4 0 0 0-6.8 23.1c31.6 56.5 58 98.5 86.3 136 11.1 15 23.6 29 37.2 41.8a83 83 0 0 0 28 17.9 76.8 76.8 0 0 0 33.5 1.9c37.5-5.2 73.6-18.8 105.5-30.8 15-5.8 29.1-11.7 43.4-18 .8-.3 1.7-.4 2.6-.2l178.6 36a34.4 34.4 0 1 0 7.4-68.1l-187-2.7a16.7 16.7 0 0 0-9.2 1.4 795.9 795.9 0 0 1-121 44.1l-4.4 1c-12 2.7-25.8 5.7-37.8 3.4l-.6-.2c-6-2.7-11.3-6.4-16-11-23.3-21.6-43-49.9-62.6-79.4-18.4-28-36.5-58-53.8-89.4a16.5 16.5 0 0 0-14.7-9Z"/><path fill="#FF89A4" d="M2097.7 2079.7s-23.6-37 27-163.1l42.8 11.8-4.3 54.5 47.5-37.3s71.2 16.3 122.4 60.2c51.3 43.9 84.2 96.4 77.7 117.5-6.5 21-73 53-160.5 26.3 0 0 37.7 3.5 36.5-22.9-1-22.4-76.2-47.3-189.2-47Z"/><path fill="#431426" d="M2316 2164c-22.7-.1-45.2-3.5-66.9-10.2a4.3 4.3 0 0 1-3-5 4.3 4.3 0 0 1 4.6-3.4c.2 0 19 1.6 27.6-6.7a14.4 14.4 0 0 0 4.2-11.8c-.8-18-70.6-43-182.6-43h-2.3a4.3 4.3 0 0 1-3.8-2.3c-.9-1.8-21.8-45 27-166.7a4.3 4.3 0 0 1 5.1-2.6l42.8 12a4.3 4.3 0 0 1 3.1 4.4l-3.5 44.7 39.9-31.2a4.3 4.3 0 0 1 3.6-.8c2.9.7 72.8 17 124.2 61 51.5 44.1 86.4 98 79 122.1-5.7 18.2-44.6 39.5-99 39.5Zm-42.4-12.9c76.7 15.8 128.4-14 133-29.1 5.6-17.8-24.5-68.8-76.3-113-45.1-38.7-106.8-55.8-118.6-58.7l-45.8 36a4.3 4.3 0 0 1-6.4-1.3c-.4-.8-.6-1.6-.5-2.5l4-50.9-35.7-9.9c-39.2 99.3-30 143.5-26.7 153.7 104 0 189.1 23 190.5 51.2a23 23 0 0 1-7 18.3c-3 2.8-6.6 5-10.5 6.2Z"/><path fill="#FF89A4" d="m2148.4 2129.1 52.2 10.5s-24.7-11.4-30.8-44.6c-6-33.1 18.3-86.6-19-88.1-33-1.3-31.4 69.9-22.6 91.4 8.9 21.6 20.3 30.8 20.3 30.8Z"/><path fill="#431426" d="M2200.6 2144h-.8l-52.2-10.6a4 4 0 0 1-1.8-.8 83.7 83.7 0 0 1-21.7-32.5c-7.1-17.5-9.8-64.6 5.1-86a26.2 26.2 0 0 1 40.4-3.5c9 10.4 7.1 28.5 5.2 47.7-1.3 12.6-2.7 25.6-.7 36a57.3 57.3 0 0 0 28.3 41.5 4.3 4.3 0 0 1 2.4 4.9c-.2 1-.7 1.8-1.5 2.4-.8.6-1.7 1-2.7 1v-.2Zm-50.2-18.9 33 6.7a69.7 69.7 0 0 1-17.8-36c-2.1-11.7-.7-25.3.6-38.5 1.7-16.5 3.5-33.6-3.1-41.2a16.3 16.3 0 0 0-12.5-4.8 16 16 0 0 0-14.3 7.7c-13 18.5-10.4 62.7-4.2 77.8a81.3 81.3 0 0 0 18.3 28.3Z"/><path fill="#431426" d="M2148.5 2050h-1.4a12.9 12.9 0 0 1-10.9-16.4 12.8 12.8 0 1 1 12.3 16.5Zm-2.7-16a4.2 4.2 0 0 0-.6 6c.7.8 1.7 1.4 2.8 1.5 1.1 0 2.2-.3 3.1-1 .9-.6 1.4-1.7 1.5-2.8a4.2 4.2 0 0 0-6.8-3.7Z"/><path fill="#FFFAF4" d="M1920.2 415a24.3 24.3 0 0 0 13 46.9c8.1-1.7 204.2-38.9 284.7 257.5 57.6 211.7-119.6 372.3-121.5 373.9a24.3 24.3 0 1 0 32.4 36.4c2-1.8 51.3-46 92.7-119.7 55.5-98.6 70.6-203.5 43.4-303.3-48-177-137.3-247.3-203.8-275-73.6-31-135.7-18-138.3-17.3l-2.6.6Z"/><path fill="#431426" d="M2112.8 1140.3h-1.8a28.7 28.7 0 0 1-17.4-50.2c1.8-1.6 177-160.5 120.3-369.6-79.4-292.5-271.6-256.2-279.8-254.5a28.6 28.6 0 0 1-12.1-56c2.6-.5 66-13.8 140.9 17.6 67.3 28.2 157.8 99.3 206.3 278 27.4 100.9 12.2 206.9-43.8 306.5-42 74.5-91.7 119-93.7 120.8-5.2 4.7-12 7.3-19 7.4Zm-151.6-684.8c60 0 197 27.3 261 263 58.2 214.3-121 376.6-122.8 378.2a20.1 20.1 0 0 0-2 28.6 20.2 20.2 0 0 0 21.9 5.6 20 20 0 0 0 6.7-4.2c2-1.8 50.7-45.4 91.9-118.6 55-97.6 69.8-201.4 43-300-47.6-175.3-135.8-244.9-201.4-272.3-72.4-30.3-133.2-17.5-135.7-17l-2.3.6a20 20 0 0 0 10.8 38.6c9.5-1.8 19.2-2.8 29-2.8v.3Z"/><path fill="#FFFAF4" d="M1913.3 385.6s-48-40.7-122.6-27.6c-85.1 15-103.7 48.4-97.7 70 0 0-68.9 39.7-31.9 75.7 0 0-23 18.2-9 41.7 11.8 20.1 36.3 8.6 36.3 8.6s-8 27.5 16.1 35.6c19.9 6.6 44-25 56-65.2 12-40.4 69.1-18.2 58.4 3.1-10.7 21.3-45.5 34.4-42.7 60.2 2.7 25.8 41.5 48.7 57.5 7.7s13.9-53 37-57.6c23.1-4.4 50-6.9 56.4-39.8 0 0 22.9 19.4 36 10.4 26.1-17.8-6.5-47.7-8.8-67.1-2.3-19.5 15-49 2.2-64.5-12.7-15.5-43.2 8.8-43.2 8.8Z"/><path fill="#431426" d="m1807.5 622-3.6-.1a39.4 39.4 0 0 1-32-33.8c-1.9-18 11.5-29.8 24.2-41.3 7.8-7 15.1-13.6 19-21.2a8.1 8.1 0 0 0-1.3-9c-4.7-6.4-17.1-12-29.3-9.9-6.9 1.2-16 5.5-20 19-9.6 32-25.8 57.2-42.4 65.8a23.8 23.8 0 0 1-19 2.2c-17.9-6-21.3-21.7-20.3-33.3-10.7 2.6-25.7 1.8-34.5-12.9-10.9-18.5-1.8-35.4 6.7-44.1a33.5 33.5 0 0 1-9-26.8c3.2-24.4 32.8-45 42.1-50.8-1.4-9 .7-18.4 5.7-26 9.5-15 33.8-35.2 96-46.1 66.6-11.7 112 18 123.5 26.4 8.3-6 33.5-21.9 46.4-6.1 9 11 5.5 26.8 2 42.1-2 9.1-4 17.7-3.2 24.6.6 5.4 4.3 12.3 8.2 19.7 8.7 16.5 19.6 37.2-1.3 51.5-11.4 8-27.5-.8-35.9-6.5-8.5 27.5-33 32-53 35.7l-5 1c-15.6 2.8-17.7 8.9-25.3 31.1-2.2 6.4-5 14.3-8.6 23.7-8.4 21.6-22 25.2-30.1 25.2Zm-17.6-124.3c12.1 0 24.6 5.3 30.9 13.7a16.6 16.6 0 0 1 2 18.1 87 87 0 0 1-21 23.7c-11.7 10.5-22.8 20.5-21.3 34a31 31 0 0 0 24.5 26.1c10.5 1.4 19.2-5.5 24.7-19.5 3.6-9.2 6.2-16.7 8.6-23.4 7.8-22.6 11.5-32.9 31.7-36.8l5.1-1c21.8-4 42.5-7.8 47.9-35.4a4.3 4.3 0 0 1 5-3.4c.8.1 1.5.4 2 1 5.3 4.4 22.4 15.8 30.9 10 13.6-9.2 8.6-21.4-1.5-40.3-4.3-8.1-8.3-15.7-9.1-22.8-1-8.3 1.2-18 3.4-27.4 2.8-13.3 6-27-.3-34.8-9.8-11.9-37 9.3-37.3 9.5a4.3 4.3 0 0 1-5.5 0c-.4-.4-47.5-39.3-119-26.6-62.4 10.9-83.2 31-90.3 42.1a27.3 27.3 0 0 0-4 22.4 4.3 4.3 0 0 1-2 4.9c-.4.2-37.5 21.9-40.5 46-1 8.2 2 15.7 9.4 23a4.2 4.2 0 0 1-.4 6.2c-.8.7-19.7 16.4-8 36.3 9.7 16.4 30 7.3 30.9 7a4.3 4.3 0 0 1 4.6.6 4.4 4.4 0 0 1 1.3 4.4c-.3 1-6.6 23.7 13.3 30.3a15.4 15.4 0 0 0 12.3-1.6c14.4-7.4 29.3-31.3 38.1-60.8a33.4 33.4 0 0 1 33.6-25.5Z"/><path fill="#431426" d="M1690.1 582.3a4.3 4.3 0 0 1-3.8-2.3c-6.3-12.2-2.1-26.5-2-27.1a4.2 4.2 0 0 1 2-2.6 4.3 4.3 0 0 1 6 1.7 4.3 4.3 0 0 1 .3 3.3s-3.3 11.7 1.4 20.7c.2.5.4 1 .4 1.6a4.4 4.4 0 0 1-1 3.1c-.4.4-.8.8-1.3 1a4 4 0 0 1-2 .6ZM1713 444.4c-6.1.3-12.2-1.4-17.4-4.9a17.2 17.2 0 0 1-6.9-11 4.3 4.3 0 0 1 3.8-4.9 4.3 4.3 0 0 1 4.8 3.8c.6 2.2 1.9 4.1 3.8 5.4 4.2 3 11.4 3.8 21 2.2 11.7-2 21.1-7.5 31-13.2 12.4-7.2 25.5-14.6 42.6-14.3a4.3 4.3 0 0 1 4.3 4.3 4.3 4.3 0 0 1-4.3 4.3h-.5c-14.7 0-25.8 6.4-37.7 13.3-10.2 5.9-20.7 12-34 14.3-3.4.5-7 .8-10.4.7ZM1673.5 512.3c-10.4 0-15-5-15.7-6-.7-.8-1-2-.9-3a4.3 4.3 0 0 1 4.6-3.8c1.1 0 2.1.6 2.9 1.4.3.4 10.8 10.4 42.5-10.4a285.2 285.2 0 0 0 35.8-28.1c11.2-10 19.3-17.2 31.5-20.4a4.3 4.3 0 0 1 5 3 4.3 4.3 0 0 1-2.9 5.3c-10 2.6-17.1 8.9-27.8 18.5a292.1 292.1 0 0 1-36.8 28.8c-17.5 11.5-29.8 14.7-38.2 14.7Z"/><path fill="#431426" d="M1688.4 558.4a4.3 4.3 0 0 1-1-8.5c.2 0 12.5-3.6 27-21.4l7.2-9c14.3-17.9 30.5-38.1 46.2-53.1a4.3 4.3 0 1 1 6 6.2c-15.4 14.6-31.4 34.6-45.5 52.2l-7.3 9c-16.5 20.4-30.9 24.3-31.5 24.5h-1ZM1927 502.3h-.8a4.3 4.3 0 0 1-3.4-3.4v-1.7a94 94 0 0 0 2.3-25.5 4.4 4.4 0 0 1 3.6-5 4.3 4.3 0 0 1 5 3.6c1.6 9.4-2 26.7-2.3 28.6a4.3 4.3 0 0 1-4.3 3.4ZM1921.3 397c-1 0-2-.4-2.8-1l-8-7.1a4.3 4.3 0 1 1 5.7-6.5l8 7c.8.8 1.4 1.8 1.4 3a4.3 4.3 0 0 1-4.3 4.6Z"/><path fill="#FF89A4" d="m1884.4 701.2-161.3 126.2-111.2 14.3-68.8-92.6 42-93 105-78a24 24 0 0 0 14.4 11.6c18.6 6.3 41-21.4 53.7-58.3l126.2 169.8Z"/><path fill="#431426" d="M1612 846a4.3 4.3 0 0 1-3.5-1.7l-68.8-92.6a4.2 4.2 0 0 1-.5-4.4l42.1-93c.3-.8.8-1.4 1.4-1.8l105-78a4.4 4.4 0 0 1 3.4-.7 4.4 4.4 0 0 1 2.9 2.2 19.6 19.6 0 0 0 12 9.6c14.7 5 35.8-19.6 48.2-55.7a4.3 4.3 0 0 1 7.5-1.2l126 170a4.3 4.3 0 0 1-.7 5.9l-161.2 126.2c-.6.5-1.4.8-2.1 1L1612.5 846h-.6Zm-64-97.4 66 88.6 107.5-13.8 157-123-118.8-160c-12.6 32-34.4 60.7-56.4 53.4a29 29 0 0 1-14.2-9.6l-100.3 74.5-40.7 90Z"/><path fill="#A1EB9D" d="M1691.7 765.5s68.3-16 72.6-73.6c3.8-51.8-36-81-36-81s-45.8 30.2-53.3 67.5c-7.6 37.3 16.7 87 16.7 87Z"/><path fill="#431426" d="M1691.7 769.8a4.3 4.3 0 0 1-4-2.4c-1-2.1-24.6-51.6-17-89.8 7.7-38.3 53.3-69 55.3-70.3a4.3 4.3 0 0 1 5 .2c1.6 1.2 41.5 31.2 37.5 84.8-4.4 60-75.1 77.4-75.8 77.4a4 4 0 0 1-1 0Zm36.5-153.6c-9.6 7-43 33-49 63-6 30.2 9.8 69.7 14.9 81.2 13.4-4.1 62.4-22.3 65.9-68.8a92.7 92.7 0 0 0-31.8-75.4Z"/><path fill="#431426" d="M1664.4 797.7a4.3 4.3 0 0 1-4-2.8 4.3 4.3 0 0 1 1.1-4.7c64.6-55.7 63.6-154.8 63.6-155.8a4.2 4.2 0 0 1 1.2-3 4.3 4.3 0 0 1 3-1.4 4.3 4.3 0 0 1 4.3 4.3c0 4.2 1.1 104-66.5 162.4-.8.6-1.7 1-2.7 1Z"/><path fill="#FFEAB9" d="M666.1 1765.6a210.8 210.8 0 0 1-23.7-125.7c7-60.5 38.3-115.9 88-155.8a251.5 251.5 0 0 1 174.8-55.3 226.3 226.3 0 0 1 157.8 76.8c81.1 94 64 237.2-38.1 319.5-102.2 82-251.4 72.4-332.6-21.6a214.5 214.5 0 0 1-26.2-38Zm365-191.1c-5.3-10-11.8-19.3-19.2-27.9a166.8 166.8 0 0 0-116.3-56.8c-45.5-3-90.5 11.1-126 39.8a169 169 0 0 0-63.3 112.3 154.7 154.7 0 0 0 37 120.5c59.5 69 168.2 76.6 242.2 17.2 64.7-52 82-138.2 45.7-205.1Z"/><path fill="#431426" d="M866.8 1885c-67.2 0-132.7-26.7-177.7-78.8a215.2 215.2 0 0 1-51-166.8c7.1-61.7 39-118 89.5-158.6a255.7 255.7 0 0 1 177.6-56.3c63.8 4.3 120.8 32 160.8 78.3a214.6 214.6 0 0 1 51.4 161.2 237.4 237.4 0 0 1-90 164.3 257 257 0 0 1-160.6 56.7Zm-197-121.5a211 211 0 0 0 25.9 37.3c79.7 92.2 226.2 101.6 326.6 21a229.3 229.3 0 0 0 86.9-158.5 206.2 206.2 0 0 0-49.4-154.7 221.9 221.9 0 0 0-154.7-75.4 247 247 0 0 0-171.8 54.5 230.5 230.5 0 0 0-86.4 152.9 206.7 206.7 0 0 0 23.2 123.2l-.2-.3Zm202 60.3a173 173 0 0 1-131.7-58.5 159.2 159.2 0 0 1-38-123.9 173.4 173.4 0 0 1 64.9-115.2 185.7 185.7 0 0 1 129-40.7 171 171 0 0 1 119.1 58.3c7.7 8.8 14.3 18.4 19.8 28.7 37.9 69.8 18.3 158.2-46.6 210.4-33 26.5-74.2 41-116.6 41Zm11.6-330a177 177 0 0 0-111 39 164.8 164.8 0 0 0-61.7 109.5 150.6 150.6 0 0 0 35.9 117.2c58 67.2 164 74.5 236.3 16.5 61.6-49.5 80.2-133.5 44.5-199.6a154 154 0 0 0-18.8-27 162.7 162.7 0 0 0-125.2-55.7Z"/><path fill="#FFEAB9" d="M2097.6 921.1c75.3 366.2 3 760.1-174.1 986.6 0 0-137.2 88.8-286.1 119.5-163.8 33.6-310.1 3-310.1 3-252.2-138.1-474-471.5-549.3-837.7L2097.6 921Z"/><path fill="#431426" d="M1475.7 2047.2a817.2 817.2 0 0 1-150.5-13.1c-255.2-140-476.8-477.8-551.5-840.8a4.2 4.2 0 0 1 .7-3.2 4.4 4.4 0 0 1 2.7-1.8l1319.6-271.5a4.3 4.3 0 0 1 5.1 3.3c74.5 363 4.3 760.9-175 990.1l-1 1c-1.4.9-139.6 89.6-287.6 120-53.5 10.8-108 16.1-162.5 16Zm-147-21c10.6 2 152.2 28.7 307.8-3.3 141.5-29 274-112 284-118.4 176.8-226.6 246.4-619.1 173.7-978.3L783 1195.8c75 358.8 293.9 692 545.8 830.4Z"/><path fill="#FFEAB9" d="M1471.2 1219.4c364.4-75 644.8-208.5 626.4-298.2-18.5-89.8-328.9-101.8-693.3-26.9-364.4 75-644.8 208.5-626.4 298.2 18.5 89.8 328.9 101.8 693.3 26.9Z"/><path fill="#431426" d="M1041.4 1272.8c-16 0-31.6-.3-46.7-.8-133.1-5.2-211.6-33-221-78.6-9.3-45.5 51.6-102.2 172-159.4 118.5-56.5 281.1-107.6 457.7-144 176.6-36.3 346.2-53.5 477.5-48.4 133 5.2 211.5 33.1 221 78.6 9.3 45.6-51.7 102.2-172 159.5-118.6 56.4-281.2 107.5-457.8 143.8-156.3 32.2-307 49.3-430.7 49.3Zm792.7-423.4c-123 0-273.2 17.2-428.9 49.1-175.9 36.2-337.8 87-455.8 143.3-114.6 54.5-175.6 109.2-167.2 149.9 8.3 40.6 86 66.8 212.8 71.6 130.6 5 299.4-12.1 475.3-48.3 176-36.1 337.8-87 455.8-143.2 114.6-54.6 175.7-109.2 167.3-150-8.4-40.6-86-66.8-212.9-71.6-15-.5-30.5-.8-46.4-.8Z"/><path fill="#431426" d="M1025.8 1233.8c-63 0-114.6-5.1-149.5-15.8-30.5-9.4-47.7-22.7-51.2-39.6-9.4-45.9 83.1-96.1 162.2-130.2 110.2-47.5 260.3-92 422.9-125.4 162-33.4 317.1-51.6 436.9-51.6h1.2c86.2 0 191 9.8 200.5 55.6 3.5 17-7 36-31.5 56.6-79.3 67.3-301.9 147.3-553.6 199-163.8 33.6-320.7 51.4-437.9 51.4Zm821.4-354.1c-119.2 0-273.7 18.3-435.2 51.6-327 67.1-592 179.5-578.5 245.3 3 13.7 18 24.8 45.3 33.2 98.2 30 332.4 15.6 583-35.9 250.7-51.5 471.5-130.7 549.9-197 21.7-18.4 31.5-34.7 28.6-48.3-6.3-30.9-76.3-48.7-192-48.7l-1.1-.2Z"/><path fill="#BE6956" d="m2022 969.3-7.5 10.8c-77.1 65.3-292 144.6-551.8 198-259.8 53.5-488.6 65.3-585.1 35.8 0 0 167.6-63.4 223.9-92.4 56.3-29 37.7-33.9 131.6-42.7 94-8.8 123-7.8 181.7-32.1 58.8-24.4 62.2-47.3 139-38.4 76.8 8.8 121.3 23.4 181.5 5.7 60.2-17.6 123-61.3 167-49.7 43.8 11.6 119.7 5 119.7 5Z"/><path fill="#431426" d="M1025.8 1233.8c-63 0-114.6-5.1-149.5-15.8a4.3 4.3 0 0 1-3-4 4.3 4.3 0 0 1 2.8-4.1c1.7-.7 168-63.6 223.5-92.2 14-7.2 23.4-13 31-17.5 23-14.2 30.8-19 102.2-25.7 14.7-1.4 27.8-2.5 39.7-3.5 63-5.5 91.7-8 140.8-28.3a353 353 0 0 0 39.6-20c27.3-15.2 45.3-25.2 101.4-18.8 17.9 2 33.7 4.4 49 6.6 49.6 7.3 85.5 12.6 130.8-.7 20.6-6 41.7-15.2 62-24.1 39.7-17.2 77.1-33.7 107.2-25.7 42.7 11.3 117.5 5 118.3 4.9a4.3 4.3 0 0 1 4 2.1c.5.7.7 1.5.6 2.3 0 .9-.3 1.6-.8 2.3l-7.4 10.8-.8.8c-79.3 67.3-301.9 147.3-553.6 199-163.7 33.8-320.6 51.6-437.8 51.6Zm-134.4-20.6c104.6 25.4 330 10.1 570.5-39.3 250-51.4 470.6-130.4 549.3-196.7l2-2.9c-21.5 1.4-76.5 3.7-112-5.7-27.3-7.2-63.4 8.6-101.6 25.2-20.6 9-42 18.3-63 24.5-47.1 13.8-85.7 8.2-134.5 1-15.2-2.2-31-4.5-48.7-6.6-53.3-6.1-69.4 2.9-96.2 17.8a360.8 360.8 0 0 1-40.6 20.3c-50.2 20.8-79.4 23.3-143.2 28.9-11.9 1-25 2.1-39.6 3.5-69.4 6.5-76.2 10.7-98.7 24.4-7.6 4.7-17.1 10.5-31.5 18-47.2 24-172.4 72.4-212.2 87.6Z"/><path fill="#431426" d="M1369.4 1151.3c-1 0-2-.3-2.7-.9a4.3 4.3 0 0 1-1.6-2.9 4.3 4.3 0 0 1 1-3.1c15-18.7 45-29.7 84-31 8.2-.3 16.3 0 24.4.7 14.8 1.2 23.7 1.9 53.8-11.8 11.4-5.2 22-12 31.5-19.9 15.5-12 26.6-20.8 62-10.6 34.5 10.1 70.6-4.2 99.7-15.7 20.7-8.2 37-14.7 48.7-10.9a4.4 4.4 0 0 1 2.5 2.2c.2.5.4 1 .4 1.6a4.2 4.2 0 0 1-1 3.1 4.4 4.4 0 0 1-3 1.5c-.5 0-1 0-1.6-.2-8.6-2.9-24.4 3.4-42.8 10.7-30.2 12-67.9 27-105.3 16-31-9-39.2-2.6-54.1 9a152.8 152.8 0 0 1-33.2 21c-32.2 14.6-42.5 13.8-58 12.6-7.9-.7-15.7-1-23.5-.7-36.6 1.2-64.2 11.1-77.7 27.8a4.4 4.4 0 0 1-3.5 1.6ZM1087.2 1194.4c-.8 0-1.6-.3-2.3-.7a4.3 4.3 0 0 1-2-4.3c.2-.8.5-1.5 1-2.2 3-3.2 5.2-6.1 7.5-9 10.3-13 17.8-22.5 43.7-17.9 5.8 1 11.6 2.5 17.2 4.1 11 3.2 12.7 3.7 29.7-8 13.5-9.1 15.6-10.2 21.8-8.9 3.3.7 8.6 2 26.4-1.3a4.4 4.4 0 0 1 3.2.7 4.3 4.3 0 0 1 1.8 4.5 4.4 4.4 0 0 1-3.5 3.3c-19.3 3.6-25.8 2.2-29.7 1.3-2.6-.5-2.9-.6-15.1 7.7-19.6 13.3-23.9 12.8-37 9.1-5.3-1.6-10.7-2.9-16.2-3.9-20.8-3.7-25.4 2-35.4 14.8-2.3 2.8-4.8 6-7.7 9.3a4.2 4.2 0 0 1-3.4 1.4Z"/><path fill="#FFFAF4" d="m1103.8 755.6 130-36.4 74.8 58.4 20.6 100.4-135.9 45.3-69-43.4-20.5-124.3Z"/><path fill="#431426" d="M1193.3 927.6c-.8 0-1.6-.2-2.3-.7l-69-43.4a4.3 4.3 0 0 1-2-2.9l-20.4-124.3a4.3 4.3 0 0 1 3-4.8l130-36.4a4.3 4.3 0 0 1 3.8.8l74.8 58.4c.8.6 1.4 1.5 1.6 2.5l20.6 100.3a4.3 4.3 0 0 1-2.8 5l-136 45.3-1.3.2Zm-65.1-50.3 65.7 41.3 130.4-43.5-19.6-95-71.9-56.2-124.1 34.8 19.5 118.6Z"/><path fill="#431426" d="M1124.3 884.2a4.3 4.3 0 0 1-1.3-8.5l134.2-40.4-27.6-115c-.2-.6-.3-1.2-.2-1.8a4.5 4.5 0 0 1 1.7-3 4.3 4.3 0 0 1 6.8 2.7l28.7 119a4.3 4.3 0 0 1-2.9 5.1l-138 41.7-1.4.2Z"/><path fill="#431426" d="M1329.2 882.4c-.8 0-1.5-.2-2.2-.6l-66.9-39.8a4.2 4.2 0 0 1-1.5-5.8 4.3 4.3 0 0 1 5.9-1.5l67 39.6a4.3 4.3 0 0 1 1.9 4.8 4.3 4.3 0 0 1-4.2 3.1v.2Z"/><path fill="#431426" d="M1217.5 751.4h-11.7V763h11.7v-11.6ZM1142 768.6h-11.6v11.6h11.6v-11.6ZM1164.3 835.6h-11.6v11.6h11.6v-11.6ZM1190 793.7h-11.5v11.6h11.6v-11.6ZM1238.6 815.5H1227V827h11.6v-11.6ZM1142 805.3h-11.6v11.6h11.6v-11.6ZM1184.3 754.3h-11.6V766h11.6v-11.6ZM1205.8 829.8h-11.5v11.6h11.5v-11.6ZM1272.7 768.6l-8.2-8.2-8.2 8.2 8.2 8.2 8.2-8.2ZM1304.6 791.4l-8.2-8.2-8.2 8.2 8.2 8.2 8.2-8.2ZM1283.6 811.1l-8.2-8.2-8.3 8.2 8.3 8.2 8.2-8.2ZM1312.4 841.4l-8.2-8.2-8.2 8.2 8.2 8.2 8.2-8.2ZM1192.5 879.9l-8.2-8.2-8.2 8.2 8.2 8.2 8.2-8.2ZM1268.6 864.3l-8.2-8.2-8.2 8.2 8.2 8.2 8.2-8.2ZM1227 897.7l-8.2-8.2-8.2 8.2 8.2 8.2 8.2-8.2ZM1295.9 878l-8.2-8.2-8.2 8.2 8.2 8.2 8.2-8.2ZM1238.6 874l-8.2-8.1-8.2 8.2 8.2 8.2 8.2-8.2Z" opacity=".1"/><path fill="#FFFAF4" d="m1232 1052.5 100-90.4 93.1 19 64.8 79-103.1 102.7-81.2-8.1-73.6-102.2Z"/><path fill="#431426" d="M1386.8 1167.1h-.5l-81.1-8.2a4.2 4.2 0 0 1-3-1.7l-73.7-102.2a4.3 4.3 0 0 1 .6-5.7l100.3-90.4a4.3 4.3 0 0 1 3.7-1l92.9 19c1 .2 1.8.8 2.5 1.5l64.8 79a4.3 4.3 0 0 1-.3 5.8L1390 1166c-.9.8-2 1.2-3.1 1.2Zm-78.8-16.5 77.2 7.7 99-98.5-61.5-74.9-89.3-18.2-95.7 86.4 70.3 97.5Z"/><path fill="#431426" d="M1305.7 1159c-1 0-1.7-.3-2.4-.8a4.3 4.3 0 0 1-1.8-4.5c.2-.8.7-1.6 1.3-2.2l102-96-75.9-90.7a4.3 4.3 0 0 1 6.6-5.5l78.6 93.8c.7.9 1 2 1 3 0 1.2-.6 2.2-1.4 3l-105.2 98.7c-.8.7-1.8 1.1-2.8 1.1Z"/><path fill="#431426" d="M1490 1064.4h-.3l-79.3-4.2c-.5 0-1-.2-1.6-.4a4.4 4.4 0 0 1-2.4-4.1c0-.6.1-1.2.4-1.7a4.3 4.3 0 0 1 4-2.4l79.4 4.2a4.3 4.3 0 0 1 4.2 4.4 4.3 4.3 0 0 1-4.4 4.2Z"/><path fill="#431426" d="m1331.8 998.2-10.4 5.2 5.2 10.4 10.4-5.2-5.2-10.4ZM1271.9 1047.3l-10.4 5.1 5.2 10.4 10.4-5.1-5.2-10.4ZM1321.7 1097.3l-10.4 5.2 5.2 10.4 10.3-5.2-5.1-10.4ZM1326.2 1048.3l-10.4 5.2 5.2 10.4 10.3-5.2-5.1-10.4ZM1379.3 1046.2l-10.4 5.1 5.2 10.4 10.4-5.1-5.2-10.4ZM1288.2 1080.1l-10.4 5.2 5.2 10.4 10.4-5.2-5.2-10.4ZM1303.4 1015.6l-10.4 5.2 5.2 10.4 10.4-5.2-5.2-10.4ZM1356.4 1073.6l-10.4 5.2 5.1 10.4 10.4-5.2-5.1-10.4ZM1388.9 989l-11-3.7-3.7 11 11 3.7 3.7-11ZM1427.5 995.2l-11-3.7-3.6 11 11 3.7 3.6-11ZM1417.5 1022.2l-11-3.7-3.7 11 11 3.7 3.7-11ZM1456.8 1036.5l-11-3.7-3.7 11 11 3.7 3.7-11ZM1366.6 1124.3l-11-3.7-3.7 11 11 3.7 3.7-11ZM1427.8 1076.5l-11-3.7-3.6 11 11 3.7 3.6-11ZM1405.5 1125l-11-3.8-3.8 11 11 3.7 3.8-11ZM1458.3 1076.6l-11-3.7-3.7 11 11 3.7 3.7-11ZM1405.3 1098.6l-11-3.7-3.7 11 11 3.7 3.7-11ZM1012.3 1460.5c-.4 0-1 0-1.3-.2a4.3 4.3 0 0 1-2.8-5.4l30-91.2a4.3 4.3 0 1 1 8.2 2.7l-30 91.1c-.3.9-.8 1.6-1.5 2.2-.8.5-1.7.8-2.6.8ZM1042.3 1504.8a4.3 4.3 0 0 1-4-5.5l23-81.2a4.4 4.4 0 0 1 2-2.5 4.3 4.3 0 0 1 6.3 3.2l-.1 1.7-23 81.2c-.2 1-.8 1.7-1.5 2.3-.8.5-1.7.8-2.7.8ZM1915.2 1844.8a4.3 4.3 0 0 1-3.8-6.2c23.8-44.8 38.1-98.5 38.2-99 .4-1.1 1-2 2-2.6a4.3 4.3 0 0 1 5.8 1.5c.6 1 .8 2.1.5 3.2 0 .5-14.7 55.3-38.9 101a4.3 4.3 0 0 1-3.8 2.1ZM1873.8 1864a4.3 4.3 0 0 1-3.8-6.3 341.5 341.5 0 0 0 30.2-75.5c.3-.5.7-1 1.2-1.2a4.2 4.2 0 0 1 3.4-.6c.5.1 1 .4 1.5.7a4.3 4.3 0 0 1 1.6 4.7c-7 26.5-17.2 52-30.4 76-.3.7-.9 1.2-1.5 1.6-.7.4-1.5.6-2.2.6Z" opacity=".1"/><path fill="#431426" d="M1355.6 2005.4a4 4 0 1 0 0-8 4 4 0 0 0 0 8ZM1121.7 1818.4a4 4 0 1 0 0-8 4 4 0 0 0 0 8ZM1141.6 1876.1a4 4 0 1 0 0-8 4 4 0 0 0 0 8ZM1303.6 1981.7a4 4 0 1 0 0-8 4 4 0 0 0 0 8ZM1437.6 1945a4 4 0 1 0 0-8 4 4 0 0 0 0 8ZM1009.7 1511.9a4 4 0 1 0 0-8 4 4 0 0 0 0 8ZM1121 1423.9a4 4 0 1 0 0-8 4 4 0 0 0 0 8ZM1335.6 1175.5a4 4 0 1 0 0-8 4 4 0 0 0 0 8Z"/><path fill="#FFEAB9" d="M906 1411s-7.3-10.6-50.4 8.7c-49.4 21.9-55-146.2 11.5-149.9 26-1.3 21.3 28.2 50.6 27l-11.6 114.3Z"/><path fill="#431426" d="M847 1425.9a22 22 0 0 1-15.3-6.5c-19.2-18-24.1-73.8-10-112.9 9.3-25.4 25.3-40 45-41 15-.8 21.5 7.3 27.3 14.3 5.8 7 10.5 13 23.4 12.6a4.3 4.3 0 0 1 .4 8.6c-17.2.6-24.6-8.5-30.5-15.8-5.4-6.6-9.6-11.8-20-11.3-20.7 1.2-31.7 20-37.3 35.5-13 35.6-9.1 88 7.7 103.6a13.8 13.8 0 0 0 16.3 2.5c43-19 53.6-10.2 55.8-7a4.3 4.3 0 0 1-4 6.7 4.3 4.3 0 0 1-2.9-1.5c-.6-.5-9.4-6.3-45.4 9.7a25.9 25.9 0 0 1-10.5 2.5Z"/><path fill="#FFFAF4" d="M857.3 1363h-.2c-2.3 0-58-.8-118.5-37.2-55.1-33.2-125.2-103.2-146.1-249-16-111.2 30-211 133.3-288.5a571.4 571.4 0 0 1 158.3-82.5 24.4 24.4 0 1 1 14.3 46.6A530.4 530.4 0 0 0 754 828c-88.7 67-126.9 148.3-113.4 241.9 34.4 238.6 209.6 244.2 217 244.3a24.3 24.3 0 0 1-.3 48.7v.1Z"/><path fill="#431426" d="M857.3 1367.3h-.2c-2.4 0-59.3-.9-120.7-37.8-56-33.6-127-104.6-148.2-252-16.3-112.8 30.4-214 135-292.6a576 576 0 0 1 159.5-83 28.7 28.7 0 0 1 16.8 54.7 527.7 527.7 0 0 0-143 75c-87.3 65.9-124.9 146.1-111.7 237.8 33.9 235 205.5 240.5 212.8 240.7a28.6 28.6 0 1 1-.4 57.3h.1Zm33.8-658.2c-2 0-3.9.3-5.8.9a565.9 565.9 0 0 0-156.9 81.8C626.5 868.3 581 966.6 596.8 1076.3c20.7 144 89.8 213.2 144.1 245.9a249.9 249.9 0 0 0 116.4 36.5l.1 4.3v-4.3a20 20 0 0 0 .2-40c-7.6 0-186.2-5.8-221.1-248-13.7-95.3 25-178 115-246A533.2 533.2 0 0 1 897 748.3a20 20 0 0 0-6-39.2Z"/><path fill="#FFEAB9" d="M858.5 1301.6c26.2 91.3-11.5 82.8-16 72.6l80.4 25.5 7-92.8-71.4-5.3Z"/><path fill="#431426" d="M853.2 1384.6a16.5 16.5 0 0 1-14.6-8.6 4.3 4.3 0 0 1 5.4-6 4.3 4.3 0 0 1 2.4 2.4 8 8 0 0 0 9.2 3.2c8.2-3 12.8-24-1.2-72.8a4.3 4.3 0 0 1 8.2-2.4c18.5 64.3 5.4 79.8-4 83.2a15 15 0 0 1-5.4 1Z"/><path fill="#FFFAF4" d="M921.4 774.7s6.8 16.4 37.2 24.4c18 4.6 38.5-6.3 80.4 18.6 41.9 25 75.3 2.3 69.6-19.8-5.7-22-24.3-14.1-43.6-23.7s-21.9-30.8-21.9-30.8a61 61 0 0 1 53.9-31c38.5 0 59.1 31 74.9 13.7 35.3-38.5-51.6-64.8-51.6-64.8 27.3-8 58.8.5 65.4-15 6.7-15.6.2-30-34-41.3-34.2-11.4-74.1 1.6-74.1 1.6 23.6-24.4 73.4-11.8 78.6-39 5.3-27.1-35.9-32.4-65.6-30.6-29.8 1.8-61.4 25.4-61.4 25.4s31.6-50 9.7-57.8c-49-17.7-85.8 89.3-94.6 105-8.7 15.9-32.7 22.1-51.6 38.6a77 77 0 0 0-24.5 37.7s-10.1-11.4-27-2.3c-17 9-17.6 22.6-9.7 32.8 8 10.2 36.6 16 40.8 30 4 14-6.8 57.7 20.9 60 27.7 2.3 28.2-31.7 28.2-31.7Z"/><path fill="#431426" d="M1074.7 833a74.2 74.2 0 0 1-37.8-11.5c-28.2-16.8-46.1-16.7-60.7-16.7a71 71 0 0 1-52.1-19.2 37 37 0 0 1-10.2 18.6 27 27 0 0 1-21.2 6.6c-24-2-23.8-29.1-23.7-47.1.2-5.4 0-10.7-1-16-1.8-6.3-12-11.4-21-15.9-7.8-4-15-7.6-19-12.6a24.6 24.6 0 0 1-5.4-20.3c1.2-5.3 5-12.9 16.4-19 11.5-6.1 20.8-4.2 26.8-1 5.1-13 13.3-24.7 24-33.9 8-6.5 16.5-12.2 25.5-17.2 11.1-6.4 20.7-12 25.2-20 1.3-2.2 3.2-6.7 5.8-12.4 14.5-33.2 48.7-111 94-94.6a15 15 0 0 1 9.5 9.6c3.7 10.7-2.6 27.3-8.6 39.4a118.7 118.7 0 0 1 49-16.8c11.5-.7 50.3-1.6 65 15.3a22.8 22.8 0 0 1 5.2 20.5c-3.4 17.3-21.6 21-39.2 24.6a214 214 0 0 0-16.7 3.8c16.3-2.1 32.8-.8 48.5 4 21.4 7 33.9 15.6 38.2 26.1a24.7 24.7 0 0 1-1.7 21.2c-5.8 11.3-20 12-36.5 13-5.3.3-11 .6-16.9 1.4 16.8 6.9 42.6 20.2 47.6 38.6 2.6 9.4-.3 18.8-8.6 27.9-10.6 11.6-23.2 5.7-36.6-.8a92.5 92.5 0 0 0-41.4-11.7 56.9 56.9 0 0 0-49.4 27.5c1 4.4 5 19 19.3 26.2 5.8 2.7 12 4.5 18.3 5.3 11.5 2.1 23.2 4.3 27.5 21.3 2.6 10-1.6 20.7-11 27.8-8 5.5-17.5 8.3-27.1 8ZM978.2 796c14.5 0 34.2.7 63 18 24.8 14.7 45.3 11.2 55.4 3.7 6.7-5 9.6-12 7.9-18.8-3-11.7-9.7-13-20.8-15-7.1-1-14-3-20.6-6-21-10.5-24-33.1-24.2-34 0-1 0-1.8.4-2.5A64.6 64.6 0 0 1 1097 708c18.8 0 33.4 7 45.1 12.5 13.7 6.5 20.6 9.4 26.7 2.9 6-6.5 8.5-13.4 6.7-19.8-5.2-18.8-42.5-33.8-56.5-38a4.3 4.3 0 0 1-3-4.1c0-1 .2-1.9.8-2.6.5-.8 1.3-1.3 2.2-1.6 11-2.8 22.2-4.3 33.5-4.6 13.8-.8 25.8-1.4 29.3-8.3a16.4 16.4 0 0 0 1.4-14c-3.3-8-14.3-15.1-33-21.3-32.3-10.7-71 1.6-71.4 1.8a4.3 4.3 0 0 1-4.4-7.1c11.9-12.4 29.5-16 45-19 18.8-3.9 30.3-6.7 32.5-17.9a14.6 14.6 0 0 0-3.2-13.2c-9.7-11-36.3-13.6-58-12.3-28.1 1.6-58.7 24.3-59 24.5a4.3 4.3 0 0 1-5.5-.2 4.3 4.3 0 0 1-.7-5.5c5.7-9.2 20-35.6 16-47.2a6.4 6.4 0 0 0-4.2-4.3c-37.7-13.5-69.7 59-83.3 90-2.7 6.2-4.6 10.6-6 13.2-5.8 10.2-16.8 16.6-28.5 23.4-8.6 4.7-16.7 10-24.2 16.3a74 74 0 0 0-23.1 35.3 4.3 4.3 0 0 1-7.4 2c-.3-.4-8.2-8.6-21.9-1.4-6.7 3.6-10.9 8.2-12 13.2a16.2 16.2 0 0 0 3.8 13.2c2.8 3.5 9.5 7 16 10.2 11.1 5.6 22.5 11.3 25.5 21.2 1.2 6 1.6 12.3 1.2 18.4 0 21.1 1 37.3 16 38.6a18.5 18.5 0 0 0 14.6-4.4c8.6-7.7 9-23 9-23.1a4.3 4.3 0 0 1 8.2-1.6c0 .3 6.9 14.7 34.4 21.8 5.4 1.1 11 1.5 16.4 1.3l2.2-.2Z"/><path fill="#431426" d="M1008 609.2a4 4 0 0 1-.9 0 4.3 4.3 0 0 1-3.4-5 104.4 104.4 0 0 1 22.3-44.6 4.3 4.3 0 0 1 4.7-1.2 4.3 4.3 0 0 1 2.6 5.5l-.8 1.4c0 .2-16 18.3-20.3 40.5a4.3 4.3 0 0 1-4.2 3.4ZM1047 634.7a4.3 4.3 0 0 1-3.5-7c15.2-18.5 37.9-30 38.8-30.6a4.3 4.3 0 0 1 5.8 2 4.3 4.3 0 0 1-2 5.7c-.2 0-22 11.3-36 28.3a4.3 4.3 0 0 1-3.1 1.6ZM1065.7 680.3a4.3 4.3 0 0 1-1.5-8.4c18-6.6 36.6-11.6 55.5-14.8a4.3 4.3 0 1 1 1.3 8.6c-18.3 3.2-36.3 8-53.8 14.3l-1.5.3ZM1043.3 747.7a4.3 4.3 0 0 1-4.2-3c0-.4-10.3-34-31.5-35.5a4.3 4.3 0 0 1-4-4.7 4.3 4.3 0 0 1 4.7-4c27 2.2 38.6 40.2 39 41.7.2.6.3 1.1.2 1.7a4.3 4.3 0 0 1-4.3 3.8ZM868.1 701.2a4.3 4.3 0 0 1-4-2.9 20.3 20.3 0 0 1 0-14.3 4.3 4.3 0 0 1 7.8 3.5 12 12 0 0 0 .1 8 4.3 4.3 0 0 1-2.7 5.4l-1.2.3Z"/><path fill="#FFFAF4" d="M1456.5 1481.7c13 58.5 48.3 92.5 83.9 84.6 4.7-1 9.3-2.8 13.5-5.3 26.3-15.3 37.9-56.3 26.6-106.8-11.2-50.5-39-82.8-69.3-85.5-4.9-.4-9.8-.1-14.5 1-35.6 7.9-53.2 53.6-40.2 112Z"/><path fill="#431426" d="M1530.2 1571.8a61.6 61.6 0 0 1-43.3-19.8c-16.1-16-28-40.1-34.6-69.3-6.5-29.3-5.7-56 2-77.4 7.8-21.3 22.6-35.6 41.5-39.8a50 50 0 0 1 15.8-1c33.1 2.9 61.8 37.8 73.2 88.8 11.3 51 0 94.8-28.7 111.5a51.4 51.4 0 0 1-26 7Zm-23.4-199c-3 0-6.1.4-9.2 1-15.8 3.6-28.4 15.8-35.2 34.5-7.1 19.5-7.7 45.3-1.7 72.5 6 27.3 17.5 50.5 32.3 65.1 14 14 30.5 19.8 46.4 16.3 4.3-1 8.5-2.6 12.3-4.8 25.5-14.8 35.2-55 24.7-102.2-10.6-47.3-36.3-79.6-65.6-82.1-1.3-.2-2.6-.3-4-.3Z"/><path fill="#431426" d="M1489.4 1493.3h43.2l-30.4 28.9c13.7 23.2 32.1 37.2 51.6 39 26.3-15.4 38-56.4 26.7-107-11.3-50.5-39-82.7-69.4-85.4-26.3 15.3-37.9 56.3-26.6 106.8 1.3 6 3 11.9 4.9 17.7ZM1496.7 1374c-1 0-2-.4-2.7-1a4.3 4.3 0 0 1-1.5-2.4l-6.5-29.4a4.3 4.3 0 0 1 3.2-5.2 4.3 4.3 0 0 1 5.1 3.3l6.6 29.4a4.3 4.3 0 0 1-3.3 5.2h-.9Z"/><path fill="#431426" d="m1525 1374-1.5-.3a4.2 4.2 0 0 1-2.8-3.8c0-.6 0-1.2.2-1.7l10-28.5a4.3 4.3 0 0 1 8.3 1.2c0 .6 0 1.1-.3 1.7l-9.8 28.5a4.2 4.2 0 0 1-4.1 2.8ZM1549.7 1388.6c-.8 0-1.6-.2-2.3-.7a4.2 4.2 0 0 1-2-4.2c.2-.8.6-1.6 1.1-2.2l19.8-22.7a4.3 4.3 0 0 1 6.1-.4 4.2 4.2 0 0 1 1.5 3c0 .5 0 1.1-.3 1.6-.1.6-.4 1-.8 1.5l-19.8 22.8c-.4.4-1 .7-1.5 1l-1.8.3ZM1469.2 1389.4a4.3 4.3 0 0 1-3-1.3l-21.1-21.6c-.4-.5-.8-1-1-1.5a4.4 4.4 0 0 1 0-3.3 4.3 4.3 0 0 1 4.1-2.6 4.2 4.2 0 0 1 3 1.4l21 21.6a4.3 4.3 0 0 1 0 6c-.3.4-.8.8-1.3 1-.5.2-1.1.3-1.7.3ZM1453 1413.2c-.6 0-1.2-.2-1.7-.4l-27.6-12.2a4.3 4.3 0 0 1-2.2-5.7c.4-1 1.3-1.8 2.3-2.3 1.1-.4 2.3-.3 3.3.1l27.6 12.2a4.3 4.3 0 0 1-1.7 8.3Z"/><path fill="#FFFAF4" d="M1651.7 1436.2c13 58.5 48.3 92.4 84 84.5 4.6-1 9.2-2.8 13.4-5.2 26.3-15.3 38-56.3 26.7-106.9-11.3-50.5-39-82.8-69.4-85.4a47 47 0 0 0-14.5.9c-35.6 7.9-53.1 53.6-40.2 112Z"/><path fill="#431426" d="M1725 1526.2c-34.3 0-65.3-34.7-77.4-89.1-13.4-60.4 4.4-108.6 43.4-117.2a49.9 49.9 0 0 1 15.8-1c33.1 2.8 61.8 37.8 73.2 88.8 11.3 51 0 94.8-28.7 111.5a51 51 0 0 1-26.2 7Zm-69-90.8c12 54.4 45.2 88.8 78.7 81.3a42 42 0 0 0 12.2-4.8c25.5-14.8 35.2-55 24.7-102.2-10.5-47.3-36.2-79.7-65.6-82.3-4.4-.4-8.8-.1-13.2.9-33.4 7.4-49 52.4-36.8 107Z"/><path fill="#431426" d="M1684.6 1447.7h43.2l-30.3 28.9c13.6 23.2 32 37.2 51.5 39 26.4-15.4 38-56.3 26.7-107-11.2-50.5-39-82.7-69.4-85.4-26.3 15.3-37.8 56.3-26.6 106.8 1.4 6.2 3 12 4.9 17.7ZM1692 1328.4a4.3 4.3 0 0 1-4.3-3.4l-6.5-29.4a4.3 4.3 0 0 1 6.5-4.6 4.3 4.3 0 0 1 1.9 2.7l6.5 29.5a4.3 4.3 0 0 1-3.3 5l-.9.2Z"/><path fill="#431426" d="M1720.2 1328.3c-.5 0-1 0-1.4-.2a4.3 4.3 0 0 1-2.7-5.5l10-28.5a4.3 4.3 0 0 1 2.1-2.4c.5-.3 1.1-.4 1.7-.5a4.3 4.3 0 0 1 3 1.1 4.3 4.3 0 0 1 1.3 4.7l-10 28.5a4.3 4.3 0 0 1-4 2.8ZM1745 1343c-1.1 0-2.1-.3-3-1l-1-1.3a4.2 4.2 0 0 1-.2-3.3c.2-.6.5-1 .9-1.5l19.8-22.7a4.5 4.5 0 0 1 3-1.5 4.5 4.5 0 0 1 3.1 1.1 4.5 4.5 0 0 1 1.5 3 4.4 4.4 0 0 1-1.1 3.1l-19.9 22.8a4.2 4.2 0 0 1-3.2 1.3ZM1664.5 1343.7a4.4 4.4 0 0 1-3.1-1.3l-21-21.6c-.9-.8-1.3-2-1.2-3a4.3 4.3 0 0 1 4.3-4.2c1 0 2.2.4 3 1.2l21 21.6a4.2 4.2 0 0 1 1.3 3 4.2 4.2 0 0 1-1.3 3 4.2 4.2 0 0 1-3 1.3ZM1648.2 1367.6c-.6 0-1.2-.2-1.7-.4l-27.6-12c-1-.5-1.9-1.4-2.3-2.4a4.3 4.3 0 0 1 2.5-5.6c1-.4 2.2-.4 3.3 0l27.6 12.3c.9.4 1.6 1 2 2a4.3 4.3 0 0 1-3.8 6.2v-.1ZM1604 1577.7a4.3 4.3 0 0 1-4.3-3.5c0-.4-7-40.1 29-53.4 28.6-10.5 50.8 13.5 58.5 27.6a4.3 4.3 0 0 1-.2 5c-.4.4-.8.8-1.4 1.1-.5.3-1 .5-1.6.5-.6 0-1.2 0-1.8-.2l-1.5-.9c-.4-.4-.8-.8-1-1.4-.9-1.5-19.2-34.3-48.1-23.6-29 10.8-23.7 42.4-23.4 43.8v1.6a4.4 4.4 0 0 1-2 2.8 4.3 4.3 0 0 1-2.3.6Z"/><path fill="#BE6956" d="M1755.2 1741.3c-2.6 32-16 60.2-50.3 71-38 12.1-65.9-10-86-41.7-31.1-49.4-43-121.8-43-121.8 7.7 2.6 15.5 4.6 23.4 6 20 4 40.5 4 60.5 0a94 94 0 0 0 52.7-31.5c5.3-6.2 9.8-13 13.5-20.4 0 0 34.3 76.7 29.2 138.4Z"/><path fill="#431426" d="M1684 1820c-25.7 0-48.8-15.8-68.7-47-31.3-49.7-43-120.4-43.5-123.5a4.3 4.3 0 0 1 1.5-4 4.2 4.2 0 0 1 4.3-.7 155 155 0 0 0 22.7 5.7 150 150 0 0 0 58.7 0 89.8 89.8 0 0 0 63-49.5c.4-.8 1-1.4 1.7-1.8.7-.4 1.5-.6 2.3-.6a4.4 4.4 0 0 1 3.8 2.6c1.5 3.1 34.7 78.4 29.6 140.4-3.2 39.3-21.2 64.4-53.3 74.7a72.3 72.3 0 0 1-22 3.7Zm-102.3-165c3.8 19.2 16.2 74 41 113.3 23 36.3 50.1 49.7 81 39.9 28.4-9.1 44.3-31.7 47.2-67.2 4-48.4-17-107-25.4-128.2a98 98 0 0 1-64.5 46.1 158.3 158.3 0 0 1-62.2 0c-7-1.2-13-2.7-17-3.8Z"/><path fill="#FF89A4" d="M1755.2 1741.3c-2.6 32-16 60.2-50.3 71-38 12.1-65.9-10-86-41.7 0 0 24-55.3 67-24 .2 0 32-49.5 69.3-5.3Z"/><path fill="#431426" d="M1684 1820c-25.7 0-48.8-15.8-68.7-47a4.3 4.3 0 0 1-.3-4c.5-1.3 12.7-28.7 35.8-35a42 42 0 0 1 34.1 6.7c5.3-6.8 18.3-20.8 35.7-22 13.2-.8 25.8 5.8 37.8 19.8a4.1 4.1 0 0 1 1 3.1c-3.1 39.4-21.1 64.5-53.2 74.9a72.5 72.5 0 0 1-22.1 3.5Zm-60-49.7c22.5 34.8 49.3 47.5 79.5 37.9 28-9 43.9-31 47.2-65.5-9.7-10.9-19.5-16-29.5-15.4-18.2 1.2-31.5 21.4-31.6 21.6a4.2 4.2 0 0 1-2.9 1.9 4 4 0 0 1-3.3-.7c-10.6-7.8-20.8-10.4-30.3-7.8-15.8 4.3-26 22-29.1 28Z"/><path fill="#431426" d="M1676.6 1778.7h-1l-1.5-.7a4.5 4.5 0 0 1-1.8-2.8l.1-1.7c2-10.1 5.3-19.9 10-29a4.3 4.3 0 0 1 7.5 4.2c-4.3 8.4-7.3 17.3-9 26.5-.3 1-.8 1.9-1.6 2.5-.8.6-1.7 1-2.7 1Z"/><path fill="#FFFAF4" d="M1641.1 1699.4a29.3 29.3 0 0 1-35.6-21.2l-6-23.4c20 4 40.6 4 60.5 0l1.6 6.3.7 2.8a29.3 29.3 0 0 1-21.2 35.5ZM1697.2 1682.1a29.2 29.2 0 0 1-35.5-21l-1.6-6.4a94 94 0 0 0 52.4-31.4l5.9 23.2a29.3 29.3 0 0 1-21.2 35.6Z"/><path fill="#431426" d="M1633.9 1704.7a33.7 33.7 0 0 1-32.6-25.4l-5.9-23.4a4.3 4.3 0 0 1 1-4 4.2 4.2 0 0 1 4-1.3c19.3 3.9 39.3 3.9 58.7 0a4.3 4.3 0 0 1 5 3.1l1.6 6v.4l.7 2.9a33.7 33.7 0 0 1-24.3 40.8 33 33 0 0 1-8.2 1Zm-28.6-44.5 4.4 17.1a25 25 0 1 0 48.4-12.4l-.7-2.6v-.3l-.6-2.3c-17 3-34.4 3.1-51.5.4Z"/><path fill="#431426" d="M1690 1687.3a33.7 33.7 0 0 1-32.5-25v-.3l-1.6-6.3a4.4 4.4 0 0 1 .5-3.3c.3-.5.7-.9 1.2-1.2.5-.4 1-.6 1.6-.7a89.8 89.8 0 0 0 50.2-30 4.2 4.2 0 0 1 4.2-1.3c.8.1 1.5.5 2 1 .6.6 1 1.3 1.2 2l5.8 23.3a33.7 33.7 0 0 1-32.5 41.8Zm-24.3-27.7v.4a25 25 0 0 0 45.7 6.5 25 25 0 0 0 2.8-19l-4-15.4a98 98 0 0 1-45 25.8l.5 1.7ZM1509.3 1687.8c-1.1 0-2.2-.4-3-1.1a4.3 4.3 0 0 1-.2-6.1c.8-.8 1.8-1.3 3-1.4 27.6-1.5 47.1-9.9 58.1-25 16-21.8 8.6-51 8.5-51.3a4.3 4.3 0 0 1 1.5-4.5c.5-.4 1-.6 1.5-.8a4.3 4.3 0 0 1 5.3 3c.3 1.4 8.6 33.4-9.8 58.7-12.5 17.2-34.4 26.9-64.6 28.6h-.3ZM1768.4 1620.7c-10 .1-20-2.2-28.8-6.9-27.6-14.6-34.4-47-34.6-48.3v-1.7a4.3 4.3 0 0 1 8.4 0c0 .3 6.3 29.8 30.2 42.5 16.6 8.6 37.8 7.6 63.2-3.2.6-.3 1.1-.4 1.7-.4.6 0 1.2 0 1.7.3a4.3 4.3 0 0 1 2.8 4c0 .5-.2 1.1-.4 1.7a4.3 4.3 0 0 1-2.4 2.3 108 108 0 0 1-41.8 9.7Z"/><path fill="#431426" d="M1755.7 1596.2a6 6 0 1 0 0-12 6 6 0 0 0 0 12ZM1743.2 1570.7a6 6 0 1 0 0-12 6 6 0 0 0 0 12ZM1780 1585.5a6 6 0 1 0 0-12 6 6 0 0 0 0 12ZM1552.3 1651a6 6 0 1 0 0-12.2 6 6 0 0 0 0 12.1ZM1524.6 1657.1a6 6 0 1 0 0-12 6 6 0 0 0 0 12ZM1547.6 1624.8a6 6 0 1 0 0-12.1 6 6 0 0 0 0 12ZM1561.8 1092c-1 0-1.8-.2-2.5-.7a4.3 4.3 0 0 1-1.6-2c-33.8-100.6-28-176.2-17.2-222 11.8-49.7 31.5-75.4 32.3-76.5a4.3 4.3 0 1 1 6.7 5.3c-.7 1-76.8 102.3-13.5 290.4a4.3 4.3 0 0 1-.3 3.2 4.1 4.1 0 0 1-4 2.4Z"/></svg>