<?xml version="1.0" encoding="UTF-8" standalone="no"?>
<!DOCTYPE svg PUBLIC "-//W3C//DTD SVG 1.1//EN" "http://www.w3.org/Graphics/SVG/1.1/DTD/svg11.dtd">
<svg width="100%" height="100%" viewBox="0 0 2244 1598" version="1.1" xmlns="http://www.w3.org/2000/svg" xmlns:xlink="http://www.w3.org/1999/xlink" xml:space="preserve" xmlns:serif="http://www.serif.com/" style="fill-rule:evenodd;clip-rule:evenodd;stroke-linejoin:round;stroke-miterlimit:2;">
    <path d="M2086.47,1592.8l-1929.35,0c-84.184,0 -152.428,-68.246 -152.428,-152.428l-0,-1283.25c-0,-84.184 68.244,-152.431 152.428,-152.431l1929.35,-0c84.181,-0 152.425,68.247 152.425,152.431l-0,1283.25c-0,84.182 -68.244,152.428 -152.425,152.428" style="fill:#f6b9b9;fill-rule:nonzero;"/>
    <path d="M157.116,9.375c-81.466,0 -147.741,66.275 -147.741,147.741l-0,1283.25c-0,81.465 66.275,147.744 147.741,147.744l1929.35,-0c81.462,-0 147.737,-66.279 147.737,-147.744l0,-1283.25c0,-81.466 -66.275,-147.741 -147.737,-147.741l-1929.35,0Zm1929.35,1588.11l-1929.35,-0c-86.635,-0 -157.116,-70.485 -157.116,-157.119l-0,-1283.25c-0,-86.635 70.481,-157.116 157.116,-157.116l1929.35,0c86.634,0 157.112,70.481 157.112,157.116l0,1283.25c0,86.634 -70.478,157.119 -157.112,157.119" style="fill:#3f100e;fill-rule:nonzero;"/>
    <path d="M1555.52,899.129l100.478,-56.778c0,-0 13.507,18.975 47.544,15.172l26.041,36.593c5.15,7.235 15.19,8.928 22.425,3.775c7.237,-5.147 8.928,-15.187 3.781,-22.422l-29.897,-42.018l39.513,12.609c12.6,4.022 25.843,-4.05 28.043,-17.097c2.11,-12.515 -6.909,-24.169 -19.556,-25.269l-44.719,-3.884l59.01,-31.787c10.465,-5.635 13.622,-19.166 6.728,-28.85c-6.325,-8.891 -18.66,-10.969 -27.553,-4.644l-44.441,31.622l33.463,-62.935c5.25,-9.872 1.25,-22.125 -8.813,-26.993c-9.45,-4.572 -20.825,-0.938 -25.869,8.268l-28.893,52.728c7.581,-17.906 4.878,-37.021 1.2,-50.05c-2.613,-9.253 -11.85,-14.959 -21.325,-13.334c-9.797,1.678 -16.61,10.669 -15.579,20.556l4.25,40.71c-18.09,22.4 -11.053,51.418 -11.053,51.418l-129.89,56.047l35.112,56.563Z" style="fill:#ed5728;fill-rule:nonzero;"/>
    <path d="M1520.41,847.255c-1.815,0 -3.543,-1.059 -4.306,-2.828c-1.025,-2.378 0.072,-5.138 2.444,-6.163l126.472,-54.571c-1.313,-8.9 -2.709,-31.138 11.475,-49.982l-4.056,-38.834c-1.282,-12.3 7.259,-23.572 19.45,-25.663c11.915,-2.053 23.365,5.129 26.628,16.682c3.709,13.134 6.519,32.437 -0.528,50.993c4.19,8.125 15.49,36.7 -15.357,63.654c-1.959,1.706 -4.909,1.503 -6.615,-0.444c-1.703,-1.95 -1.503,-4.913 0.447,-6.616c29.925,-26.147 13.156,-52.565 12.431,-53.678c-0.856,-1.306 -1.016,-2.972 -0.406,-4.412c7.072,-16.7 4.45,-34.75 1.006,-46.95c-1.956,-6.922 -8.847,-11.232 -16.025,-9.988c-7.334,1.259 -12.478,8.044 -11.706,15.45l4.253,40.709c0.128,1.235 -0.238,2.469 -1.016,3.432c-16.362,20.259 -10.209,47.109 -10.147,47.378c0.528,2.212 -0.606,4.497 -2.697,5.4l-129.89,56.047c-0.61,0.262 -1.238,0.384 -1.856,0.384" style="fill:#3f100e;fill-rule:nonzero;"/>
    <path d="M1742.73,905.565c-1.159,-0 -2.328,-0.097 -3.497,-0.294c-5.469,-0.922 -10.253,-3.919 -13.472,-8.441l-24.468,-34.384c-26.125,2.1 -40.585,-8.566 -46.266,-14.163l-97.2,54.925c-2.256,1.272 -5.116,0.475 -6.388,-1.771c-1.274,-2.257 -0.478,-5.116 1.772,-6.388l100.482,-56.778c2.093,-1.184 4.734,-0.594 6.125,1.359c0.481,0.657 12.581,16.653 43.203,13.235c1.706,-0.203 3.353,0.553 4.34,1.937l26.041,36.594c1.766,2.481 4.391,4.125 7.391,4.628c2.997,0.519 6.022,-0.184 8.497,-1.95c2.481,-1.766 4.125,-4.391 4.631,-7.391c0.506,-3 -0.188,-6.018 -1.953,-8.5l-29.894,-42.012c-1.172,-1.644 -1.156,-3.853 0.028,-5.481c1.194,-1.632 3.297,-2.316 5.212,-1.703l39.516,12.606c4.709,1.503 9.834,0.887 14.053,-1.685c4.225,-2.571 7.119,-6.846 7.941,-11.725c0.8,-4.746 -0.381,-9.459 -3.325,-13.265c-2.95,-3.81 -7.216,-6.135 -12.013,-6.553l-44.718,-3.885c-2.063,-0.178 -3.766,-1.693 -4.185,-3.722c-0.419,-2.028 0.544,-4.093 2.369,-5.075l59.009,-31.787c3.803,-2.047 6.55,-5.634 7.528,-9.844c0.985,-4.209 0.11,-8.64 -2.396,-12.162c-4.813,-6.769 -14.244,-8.36 -21.019,-3.541l-44.438,31.622c-1.772,1.262 -4.178,1.137 -5.809,-0.297c-1.638,-1.434 -2.069,-3.803 -1.047,-5.722l33.463,-62.937c1.934,-3.641 2.293,-7.8 1.015,-11.719c-1.278,-3.916 -4.025,-7.059 -7.731,-8.856c-7.209,-3.482 -15.872,-0.719 -19.719,6.303l-28.894,52.731c-1.243,2.272 -4.1,3.103 -6.362,1.856c-2.272,-1.243 -3.103,-4.09 -1.859,-6.362l28.893,-52.728c6.247,-11.403 20.307,-15.91 32.022,-10.238c6.025,2.916 10.488,8.025 12.563,14.385c2.078,6.362 1.49,13.121 -1.653,19.031l-24.138,45.403l28.259,-20.113c10.985,-7.812 26.279,-5.234 34.094,5.747c4.063,5.71 5.481,12.903 3.888,19.728c-1.594,6.825 -6.047,12.644 -12.216,15.969l-45.197,24.347l29.091,2.528c7.325,0.635 14.109,4.335 18.612,10.153c4.5,5.816 6.382,13.31 5.16,20.56c-1.275,7.562 -5.763,14.184 -12.307,18.175c-6.54,3.987 -14.481,4.94 -21.784,2.609l-26.119,-8.331l21.744,30.556c3.219,4.522 4.481,10.022 3.559,15.494c-0.921,5.469 -3.918,10.253 -8.44,13.472c-3.553,2.528 -7.719,3.85 -11.994,3.85" style="fill:#3f100e;fill-rule:nonzero;"/>
    <path d="M1178.63,1075.43l95.028,-560.597l281.291,-0l-0,340.819l205.262,-0l0,219.778l-110.234,-0l-38.013,-63.15l-142.543,-0l-87.428,63.15l-203.363,-0Z" style="fill:#ed5728;fill-rule:nonzero;"/>
    <path d="M1649.98,1075.43l-38.012,-63.15l-142.544,-0l-87.428,63.15l-72.222,-0l159.65,-127.263l180.556,0l62.719,127.263l-62.719,-0Z" style="fill:#e57244;fill-rule:nonzero;"/>
    <rect x="1444.3" y="562.071" width="110.656" height="293.578" style="fill:#79d1ef;"/>
    <path d="M1420.65,855.647l-40.71,0l-70.162,-119.081l-0,-174.497l110.872,0l-0,293.578Z" style="fill:#79d1ef;fill-rule:nonzero;"/>
    <path d="M1727.95,1031.58c-5.822,-0 -11.119,-3.381 -13.569,-8.666l-52.681,-113.687c-7.244,-15.628 4.168,-33.497 21.393,-33.497l46.757,-0c7.209,-0 13.053,5.847 13.053,13.056l-0,127.841c-0,8.256 -6.691,14.953 -14.953,14.953" style="fill:#f2d8e5;fill-rule:nonzero;"/>
    <path d="M1683.1,880.418c-6.482,0 -12.435,3.26 -15.925,8.722c-3.488,5.463 -3.941,12.235 -1.216,18.116l52.681,113.687c1.675,3.616 5.332,5.95 9.316,5.95c5.659,0 10.266,-4.606 10.266,-10.265l-0,-127.841c-0,-4.615 -3.757,-8.369 -8.366,-8.369l-46.756,0Zm44.856,155.85c-7.622,0 -14.616,-4.468 -17.825,-11.384l-52.681,-113.684c-4.078,-8.8 -3.394,-18.935 1.825,-27.103c5.222,-8.172 14.125,-13.054 23.825,-13.054l46.756,0c9.781,0 17.741,7.96 17.741,17.744l-0,127.841c-0,10.831 -8.813,19.64 -19.641,19.64" style="fill:#3f100e;fill-rule:nonzero;"/>
    <path d="M475.416,1075.43l625.928,-0l162.184,-667.032l-818.522,0l30.41,667.032Z" style="fill:#f2d8e5;fill-rule:nonzero;"/>
    <path d="M1652.63,1070.74l102.9,0l-0,-210.403l-200.578,0c-2.588,0 -4.688,-2.1 -4.688,-4.687l0,-336.132l-272.64,0l-93.441,551.222l196.297,0l86.2,-62.262c0.797,-0.575 1.759,-0.888 2.744,-0.888l142.543,0c1.647,0 3.169,0.86 4.016,2.272l36.647,60.878Zm107.587,9.375l-110.237,0c-1.644,0 -3.166,-0.859 -4.016,-2.272l-36.643,-60.878l-138.382,0l-86.2,62.263c-0.793,0.575 -1.756,0.887 -2.743,0.887l-203.363,0c-1.378,0 -2.691,-0.606 -3.578,-1.662c-0.891,-1.053 -1.272,-2.447 -1.041,-3.81l95.028,-560.597c0.382,-2.253 2.335,-3.903 4.619,-3.903l281.291,0c2.587,0 4.687,2.097 4.687,4.688l0,336.131l200.578,0c2.588,0 4.688,2.1 4.688,4.688l-0,219.778c-0,2.587 -2.1,4.687 -4.688,4.687" style="fill:#3f100e;fill-rule:nonzero;"/>
    <path d="M1652.63,1070.74l52.537,0l-58.1,-117.887l-176.006,-0l-147.887,117.887l57.306,0l86.2,-62.262c0.797,-0.575 1.759,-0.888 2.744,-0.888l142.543,0c1.647,0 3.169,0.86 4.016,2.272l36.647,60.878Zm60.072,9.375l-62.722,0c-1.644,0 -3.166,-0.859 -4.016,-2.272l-36.643,-60.878l-138.382,0l-86.2,62.263c-0.793,0.575 -1.756,0.887 -2.743,0.887l-72.222,0c-1.994,0 -3.766,-1.259 -4.425,-3.14c-0.657,-1.879 -0.053,-3.969 1.506,-5.213l159.647,-127.259c0.831,-0.663 1.859,-1.025 2.922,-1.025l180.556,-0c1.787,-0 3.416,1.015 4.206,2.615l62.719,127.263c0.716,1.453 0.634,3.175 -0.225,4.547c-0.853,1.375 -2.359,2.212 -3.978,2.212" style="fill:#3f100e;fill-rule:nonzero;"/>
    <path d="M1448.98,850.961l101.281,0l0,-284.203l-101.281,0l-0,284.203Zm105.968,9.375l-110.656,0c-2.587,0 -4.687,-2.1 -4.687,-4.687l-0,-293.578c-0,-2.591 2.1,-4.688 4.687,-4.688l110.656,0c2.588,0 4.688,2.097 4.688,4.688l-0,293.578c-0,2.587 -2.1,4.687 -4.688,4.687" style="fill:#3f100e;fill-rule:nonzero;"/>
    <path d="M1382.62,850.96l33.343,-0l0,-284.203l-101.496,-0l-0,168.528l68.153,115.675Zm38.031,9.375l-40.709,-0c-1.663,-0 -3.197,-0.878 -4.038,-2.307l-70.162,-119.084c-0.425,-0.722 -0.65,-1.544 -0.65,-2.378l-0,-174.497c-0,-2.587 2.1,-4.687 4.687,-4.687l110.872,-0c2.587,-0 4.687,2.1 4.687,4.687l0,293.578c0,2.588 -2.1,4.688 -4.687,4.688" style="fill:#3f100e;fill-rule:nonzero;"/>
    <path d="M479.894,1070.74l617.766,0l159.906,-657.656l-807.656,-0l29.984,657.656Zm621.45,9.375l-625.928,0c-2.506,0 -4.569,-1.972 -4.684,-4.475l-30.41,-667.028c-0.059,-1.281 0.41,-2.528 1.294,-3.453c0.884,-0.925 2.109,-1.45 3.387,-1.45l818.525,-0c1.438,-0 2.797,0.662 3.688,1.794c0.887,1.128 1.209,2.606 0.869,4.003l-162.185,667.028c-0.512,2.1 -2.393,3.581 -4.556,3.581" style="fill:#3f100e;fill-rule:nonzero;"/>
    <path d="M1760.22,1122.72l-1284.8,-0l-0,33.981l410.612,-0l-7.312,52.5l161.612,-0l25.591,-52.5l694.3,-0l-0,-33.981Z" style="fill:#3f100e;fill-rule:nonzero;"/>
    <path d="M884.099,1204.51l153.3,-0l24.303,-49.866c0.785,-1.612 2.422,-2.634 4.216,-2.634l689.613,-0l-0,-24.606l-1275.43,-0l0,24.606l405.925,-0c1.357,-0 2.644,0.587 3.535,1.612c0.89,1.022 1.294,2.382 1.109,3.722l-6.572,47.166Zm156.228,9.375l-161.612,-0c-1.356,-0 -2.647,-0.585 -3.534,-1.613c-0.894,-1.022 -1.297,-2.378 -1.11,-3.722l6.572,-47.165l-405.228,-0c-2.588,-0 -4.688,-2.1 -4.688,-4.688l0,-33.981c0,-2.587 2.1,-4.687 4.688,-4.687l1284.8,-0c2.588,-0 4.688,2.1 4.688,4.687l-0,33.981c-0,2.588 -2.1,4.688 -4.688,4.688l-691.372,-0l-24.306,49.865c-0.784,1.613 -2.419,2.635 -4.213,2.635" style="fill:#3f100e;fill-rule:nonzero;"/>
    <path d="M1612.34,1236.08c-35.738,61.9 -108.038,87.06 -161.491,56.197c-53.45,-30.859 -67.813,-106.053 -32.075,-167.953c35.734,-61.897 108.038,-87.059 161.487,-56.197c53.457,30.86 67.819,106.057 32.079,167.953" style="fill:#3f100e;fill-rule:nonzero;"/>
    <path d="M1570.15,1211.72c-20.159,34.919 -60.947,49.113 -91.1,31.706c-30.156,-17.412 -38.259,-59.831 -18.097,-94.75c20.16,-34.918 60.95,-49.112 91.103,-31.7c30.15,17.407 38.254,59.825 18.094,94.744" style="fill:#f2d8e5;fill-rule:nonzero;"/>
    <path d="M1534.66,1191.23c-7.053,12.218 -21.325,17.184 -31.875,11.093c-10.55,-6.09 -13.384,-20.934 -6.334,-33.153c7.056,-12.218 21.328,-17.184 31.878,-11.09c10.553,6.09 13.387,20.934 6.331,33.15" style="fill:#e57244;fill-rule:nonzero;"/>
    <path d="M1530.38,1059.6c-11.813,0 -23.928,2.082 -35.972,6.272c-29.438,10.244 -54.86,31.835 -71.581,60.8c-34.388,59.56 -20.769,132.031 30.362,161.55c24.653,14.238 54.303,16.475 83.506,6.319c29.435,-10.247 54.86,-31.838 71.581,-60.8c16.722,-28.963 22.71,-61.775 16.863,-92.394c-5.797,-30.365 -22.569,-54.925 -47.225,-69.159c-14.488,-8.363 -30.703,-12.588 -47.534,-12.588m-29.682,250.594c-18.447,0 -36.256,-4.647 -52.197,-13.853c-55.606,-32.103 -70.765,-110.319 -33.793,-174.356c17.847,-30.913 45.056,-53.985 76.622,-64.969c31.803,-11.069 64.225,-8.566 91.271,7.056c27.05,15.616 45.429,42.435 51.747,75.519c6.269,32.828 -0.109,67.928 -17.956,98.837c-17.847,30.91 -45.056,53.982 -76.619,64.969c-13.059,4.544 -26.225,6.797 -39.075,6.797" style="fill:#3f100e;fill-rule:nonzero;"/>
    <path d="M1523.91,1114.21c-6.441,0 -13.047,1.132 -19.616,3.422c-16.143,5.619 -30.096,17.475 -39.287,33.388c-18.834,32.625 -11.484,72.253 16.384,88.347c27.869,16.081 65.86,2.631 84.697,-29.991c9.188,-15.916 12.481,-33.925 9.275,-50.716c-3.159,-16.534 -12.269,-29.9 -25.653,-37.625c-7.856,-4.537 -16.656,-6.825 -25.8,-6.825m-16.803,141.31c-10.547,-0 -20.959,-2.581 -30.403,-8.038c-32.347,-18.672 -41.235,-64.05 -19.813,-101.15c10.313,-17.862 26.053,-31.2 44.322,-37.556c18.513,-6.437 37.403,-4.969 53.185,4.141c15.781,9.109 26.496,24.731 30.171,43.984c3.632,19 -0.05,39.3 -10.362,57.163c-15.166,26.265 -41.522,41.456 -67.1,41.456" style="fill:#3f100e;fill-rule:nonzero;"/>
    <path d="M1518.46,1160.16c-6.735,-0 -13.816,4.187 -17.954,11.356c-5.75,9.956 -3.678,21.956 4.616,26.747c3.903,2.25 8.65,2.59 13.366,0.953c4.959,-1.728 9.259,-5.397 12.109,-10.331c2.85,-4.935 3.875,-10.491 2.894,-15.647c-0.938,-4.903 -3.606,-8.847 -7.513,-11.1c-2.325,-1.344 -4.897,-1.978 -7.518,-1.978m-5.847,49.465c-4.291,0 -8.444,-1.09 -12.178,-3.243c-12.769,-7.372 -16.382,-25.119 -8.047,-39.554c8.334,-14.434 25.512,-20.181 38.278,-12.809c6.303,3.638 10.575,9.838 12.031,17.459c1.406,7.366 -0.006,15.213 -3.984,22.094c-3.972,6.888 -10.06,12.035 -17.144,14.497c-2.988,1.041 -6.006,1.556 -8.956,1.556" style="fill:#3f100e;fill-rule:nonzero;"/>
    <path d="M970.057,1236.08c-35.738,61.9 -108.038,87.06 -161.491,56.197c-53.453,-30.859 -67.813,-106.053 -32.078,-167.953c35.737,-61.897 108.04,-87.059 161.49,-56.197c53.454,30.86 67.816,106.057 32.079,167.953" style="fill:#3f100e;fill-rule:nonzero;"/>
    <path d="M927.871,1211.72c-20.16,34.919 -60.947,49.113 -91.1,31.706c-30.153,-17.412 -38.257,-59.831 -18.097,-94.75c20.159,-34.918 60.95,-49.112 91.1,-31.7c30.156,17.407 38.256,59.825 18.097,94.744" style="fill:#f2d8e5;fill-rule:nonzero;"/>
    <path d="M892.377,1191.23c-7.053,12.218 -21.325,17.184 -31.878,11.093c-10.55,-6.09 -13.384,-20.934 -6.331,-33.153c7.056,-12.218 21.328,-17.184 31.878,-11.09c10.55,6.09 13.384,20.934 6.331,33.15" style="fill:#e57244;fill-rule:nonzero;"/>
    <path d="M888.102,1059.6c-11.813,0 -23.929,2.082 -35.969,6.272c-29.441,10.244 -54.863,31.835 -71.585,60.8c-34.387,59.56 -20.768,132.031 30.36,161.55c24.653,14.238 54.312,16.481 83.506,6.319c29.438,-10.247 54.863,-31.838 71.584,-60.8c16.722,-28.963 22.71,-61.775 16.863,-92.394c-5.8,-30.365 -22.572,-54.925 -47.225,-69.159c-14.484,-8.363 -30.703,-12.588 -47.534,-12.588m-29.682,250.594c-18.447,0 -36.256,-4.647 -52.2,-13.853c-55.603,-32.103 -70.762,-110.319 -33.79,-174.356c17.847,-30.913 45.056,-53.985 76.618,-64.969c31.816,-11.069 64.225,-8.563 91.275,7.056c27.05,15.616 45.429,42.435 51.747,75.519c6.269,32.828 -0.109,67.928 -17.956,98.837c-17.844,30.91 -45.056,53.982 -76.619,64.969c-13.059,4.544 -26.222,6.797 -39.075,6.797" style="fill:#3f100e;fill-rule:nonzero;"/>
    <path d="M881.632,1114.21c-6.438,0 -13.044,1.132 -19.613,3.422c-16.146,5.619 -30.096,17.475 -39.287,33.388c-18.834,32.625 -11.484,72.253 16.381,88.347c27.872,16.084 65.866,2.631 84.7,-29.991c9.185,-15.916 12.481,-33.925 9.272,-50.716c-3.156,-16.534 -12.266,-29.9 -25.653,-37.625c-7.853,-4.537 -16.656,-6.825 -25.8,-6.825m-16.8,141.31c-10.55,-0 -20.959,-2.581 -30.406,-8.038c-32.344,-18.672 -41.232,-64.05 -19.81,-101.15c10.31,-17.862 26.053,-31.2 44.319,-37.556c18.522,-6.437 37.406,-4.969 53.184,4.141c15.782,9.109 26.497,24.731 30.175,43.984c3.629,19 -0.05,39.3 -10.365,57.163c-15.163,26.265 -41.522,41.456 -67.097,41.456" style="fill:#3f100e;fill-rule:nonzero;"/>
    <path d="M876.191,1160.16c-1.916,-0 -3.888,0.34 -5.857,1.025c-4.956,1.728 -9.256,5.397 -12.106,10.331c-2.85,4.934 -3.875,10.491 -2.891,15.65c0.935,4.903 3.6,8.844 7.507,11.097c8.293,4.794 19.725,0.587 25.475,-9.378c2.847,-4.935 3.875,-10.491 2.89,-15.647c-0.937,-4.903 -3.603,-8.847 -7.509,-11.1c-2.275,-1.313 -4.838,-1.978 -7.509,-1.978m-5.888,49.437c-4.206,0 -8.369,-1.034 -12.147,-3.215c-6.3,-3.638 -10.572,-9.838 -12.028,-17.46c-1.406,-7.365 0.006,-15.212 3.981,-22.094c3.975,-6.884 10.063,-12.034 17.147,-14.496c7.328,-2.554 14.831,-1.95 21.131,1.687c6.304,3.638 10.575,9.841 12.029,17.459c1.409,7.366 -0.007,15.213 -3.979,22.094c-5.868,10.166 -16.121,16.025 -26.134,16.025" style="fill:#3f100e;fill-rule:nonzero;"/>
    <path d="M729.316,1236.08c-35.738,61.9 -108.041,87.06 -161.491,56.197c-53.453,-30.859 -67.816,-106.053 -32.078,-167.953c35.737,-61.897 108.037,-87.059 161.49,-56.197c53.454,30.86 67.816,106.057 32.079,167.953" style="fill:#3f100e;fill-rule:nonzero;"/>
    <path d="M687.13,1211.72c-20.16,34.919 -60.947,49.113 -91.1,31.706c-30.157,-17.412 -38.257,-59.831 -18.097,-94.75c20.159,-34.918 60.947,-49.112 91.1,-31.7c30.153,17.407 38.256,59.825 18.097,94.744" style="fill:#f2d8e5;fill-rule:nonzero;"/>
    <path d="M651.635,1191.23c-7.053,12.218 -21.325,17.184 -31.875,11.093c-10.553,-6.09 -13.388,-20.934 -6.335,-33.153c7.057,-12.218 21.328,-17.184 31.878,-11.09c10.55,6.09 13.385,20.934 6.332,33.15" style="fill:#e57244;fill-rule:nonzero;"/>
    <path d="M647.359,1059.6c-11.812,0 -23.928,2.082 -35.969,6.272c-29.44,10.244 -54.862,31.835 -71.584,60.8c-16.722,28.963 -22.709,61.775 -16.863,92.391c5.797,30.365 22.572,54.925 47.225,69.159c24.65,14.235 54.307,16.478 83.504,6.319c29.44,-10.247 54.862,-31.838 71.584,-60.8c16.722,-28.963 22.709,-61.775 16.862,-92.394c-5.8,-30.365 -22.568,-54.925 -47.225,-69.159c-14.484,-8.363 -30.7,-12.588 -47.534,-12.588m-29.681,250.594c-18.447,0 -36.253,-4.647 -52.197,-13.853c-27.05,-15.616 -45.428,-42.434 -51.747,-75.516c-6.269,-32.828 0.106,-67.931 17.953,-98.84c17.847,-30.913 45.056,-53.985 76.622,-64.969c31.813,-11.069 64.222,-8.563 91.272,7.056c27.05,15.616 45.428,42.435 51.747,75.519c6.269,32.828 -0.106,67.928 -17.953,98.837l-4.06,-2.343l4.06,2.343c-17.847,30.91 -45.06,53.982 -76.622,64.969c-13.06,4.544 -26.222,6.797 -39.075,6.797" style="fill:#3f100e;fill-rule:nonzero;"/>
    <path d="M640.891,1114.21c-6.441,0 -13.044,1.132 -19.616,3.422c-16.143,5.616 -30.093,17.475 -39.284,33.388c-18.834,32.625 -11.484,72.256 16.381,88.347c27.872,16.084 65.866,2.631 84.7,-29.991c9.185,-15.916 12.481,-33.925 9.272,-50.716c-3.156,-16.534 -12.269,-29.9 -25.653,-37.625c-7.856,-4.537 -16.656,-6.825 -25.8,-6.825m-16.8,141.31c-10.55,-0 -20.963,-2.581 -30.406,-8.038c-32.344,-18.672 -41.232,-64.05 -19.81,-101.15c10.31,-17.862 26.053,-31.2 44.319,-37.556c18.516,-6.444 37.403,-4.972 53.184,4.141c15.782,9.109 26.497,24.731 30.175,43.984c3.629,19 -0.05,39.3 -10.365,57.163c-15.163,26.265 -41.522,41.456 -67.097,41.456" style="fill:#3f100e;fill-rule:nonzero;"/>
    <path d="M635.438,1160.16c-6.735,-0 -13.813,4.187 -17.954,11.356c-2.846,4.934 -3.875,10.491 -2.887,15.65c0.934,4.9 3.6,8.844 7.506,11.097c3.903,2.25 8.647,2.587 13.366,0.953c4.956,-1.728 9.256,-5.397 12.106,-10.331c2.85,-4.935 3.878,-10.491 2.891,-15.647c-0.935,-4.906 -3.6,-8.847 -7.507,-11.1c-2.325,-1.344 -4.897,-1.978 -7.522,-1.978m-5.846,49.465c-4.291,0 -8.444,-1.09 -12.175,-3.243c-6.304,-3.638 -10.572,-9.838 -12.029,-17.46c-1.406,-7.365 0.007,-15.212 3.982,-22.094c8.334,-14.437 25.503,-20.184 38.278,-12.809c6.3,3.638 10.575,9.841 12.028,17.459c1.406,7.366 -0.006,15.213 -3.981,22.094c-3.975,6.888 -10.063,12.035 -17.144,14.497c-2.988,1.041 -6.006,1.556 -8.959,1.556" style="fill:#3f100e;fill-rule:nonzero;"/>
    <path d="M1529.92,708.858c-0,-76.863 21.031,-139.169 46.981,-139.169c25.947,-0 46.978,62.306 46.978,139.169c0,76.862 -21.031,139.168 -46.978,139.168c-25.95,0 -46.981,-62.306 -46.981,-139.168" style="fill:#fff;fill-rule:nonzero;"/>
    <path d="M1553.41,829.364c14.038,-24.066 23.491,-69.003 23.491,-120.506c-0,-4.741 -0.106,-9.403 -0.263,-14.022l-23.228,14.022l20.553,-48.338c-3.822,-30.543 -11.15,-56.05 -20.553,-72.168c-14.037,24.068 -23.49,69.003 -23.49,120.506c-0,51.503 9.453,96.44 23.49,120.506" style="fill:#0f547f;fill-rule:nonzero;"/>
    <path d="M1576.9,574.376c-10.082,-0 -20.838,14.047 -28.782,37.572c-8.712,25.815 -13.512,60.231 -13.512,96.909c-0,36.678 4.8,71.094 13.512,96.91c7.944,23.528 18.7,37.571 28.782,37.571c10.078,0 20.837,-14.043 28.778,-37.571c8.712,-25.816 13.512,-60.232 13.512,-96.91c0,-36.678 -4.8,-71.094 -13.512,-96.909c-7.941,-23.525 -18.7,-37.572 -28.778,-37.572m-0,278.337c-29.457,0 -51.669,-61.843 -51.669,-143.856c0,-82.009 22.213,-143.856 51.669,-143.856c32.34,-0 51.665,73.144 51.665,143.856c0,70.716 -19.325,143.856 -51.665,143.856" style="fill:#3f100e;fill-rule:nonzero;"/>
    <path d="M1435.96,708.858c0,-76.863 21.035,-139.169 46.981,-139.169c25.947,-0 46.979,62.306 46.979,139.169c-0,76.862 -21.032,139.168 -46.979,139.168c-25.946,0 -46.981,-62.306 -46.981,-139.168" style="fill:#fff;fill-rule:nonzero;"/>
    <path d="M1459.45,829.364c14.037,-24.066 23.493,-69.003 23.493,-120.506c0,-4.741 -0.109,-9.403 -0.262,-14.022l-23.231,14.022l20.556,-48.338c-3.825,-30.543 -11.153,-56.05 -20.556,-72.168c-14.038,24.068 -23.491,69.003 -23.491,120.506c0,51.503 9.453,96.44 23.491,120.506" style="fill:#0f547f;fill-rule:nonzero;"/>
    <path d="M1482.94,574.376c-10.078,-0 -20.837,14.047 -28.778,37.572c-8.716,25.819 -13.516,60.234 -13.516,96.909c0,36.678 4.8,71.094 13.516,96.91c7.941,23.528 18.7,37.571 28.778,37.571c10.078,0 20.838,-14.043 28.778,-37.571c8.713,-25.816 13.513,-60.232 13.513,-96.91c-0,-36.678 -4.8,-71.094 -13.513,-96.909c-7.94,-23.525 -18.7,-37.572 -28.778,-37.572m0,278.337c-32.344,0 -51.669,-73.14 -51.669,-143.856c0,-70.712 19.325,-143.856 51.669,-143.856c32.341,-0 51.666,73.144 51.666,143.856c-0,70.716 -19.325,143.856 -51.666,143.856" style="fill:#3f100e;fill-rule:nonzero;"/>
    <path d="M1742.91,950.658l-64.178,-0c-2.588,-0 -4.688,-2.1 -4.688,-4.688c0.001,-2.587 2.101,-4.687 4.688,-4.687l64.178,-0c2.588,-0 4.688,2.1 4.688,4.687c-0,2.588 -2.1,4.688 -4.688,4.688" style="fill:#3f100e;fill-rule:nonzero;"/>
    <path d="M1680.37,954.195c-2.587,-0 -4.687,-2.1 -4.687,-4.688l-0,-73.775c-0,-2.59 2.1,-4.687 4.687,-4.687c2.588,-0 4.688,2.097 4.688,4.687l-0,73.775c-0,2.588 -2.1,4.688 -4.688,4.688" style="fill:#3f100e;fill-rule:nonzero;"/>
    <path d="M1703.92,1005.02c-2.587,-0 -4.687,-2.1 -4.687,-4.688l-0,-124.606c-0,-2.588 2.1,-4.688 4.687,-4.688c2.588,0 4.688,2.1 4.688,4.688l-0,124.606c-0,2.588 -2.1,4.688 -4.688,4.688" style="fill:#3f100e;fill-rule:nonzero;"/>
    <path d="M1727.48,1036.27c-2.588,0 -4.688,-2.1 -4.688,-4.687l0,-155.85c0,-2.588 2.1,-4.688 4.688,-4.688c2.587,0 4.687,2.1 4.687,4.688l0,155.85c0,2.587 -2.1,4.687 -4.687,4.687" style="fill:#3f100e;fill-rule:nonzero;"/>
    <path d="M864.847,930.953l-52.409,-43.794l-52.41,43.787l-25.203,-53.49l-72.537,28.175l5.406,-55.966l-82.866,8.756l35.285,-50.881l-82.006,-11.844l60.4,-38.925l-70.066,-30.847l77.353,-21.709l-48.666,-45.684l83.863,-1.563l-20.691,-54.35l79.047,18.794l10.075,-55.675l63.553,36.612l39.482,-49.481l39.478,49.485l63.559,-36.607l10.069,55.678l79.047,-18.784l-20.697,54.347l83.862,1.572l-48.668,45.681l77.35,21.716l-70.069,30.84l60.394,38.928l-82.007,11.838l35.282,50.884l-82.866,-8.765l5.4,55.965l-72.534,-28.181l-25.21,53.488Z" style="fill:#34b0d1;fill-rule:nonzero;"/>
    <path d="M812.448,643.936c-84.381,-0 -153.031,43.95 -153.031,97.975c0,54.022 68.65,97.975 153.031,97.975c84.382,-0 153.032,-43.953 153.032,-97.975c-0,-54.025 -68.65,-97.975 -153.032,-97.975m0,205.325c-89.55,-0 -162.406,-48.159 -162.406,-107.35c0,-59.194 72.856,-107.35 162.406,-107.35c89.55,-0 162.407,48.156 162.407,107.35c-0,59.191 -72.857,107.35 -162.407,107.35" style="fill:#3f100e;fill-rule:nonzero;"/>
    <path d="M812.448,644.373c-45.806,20.571 -74.171,57.793 -74.171,97.537c-0,39.744 28.365,76.966 74.171,97.538c45.807,-20.572 74.172,-57.794 74.172,-97.538c0,-39.744 -28.365,-76.966 -74.172,-97.537m0,204.887c-0.637,0 -1.271,-0.128 -1.868,-0.387c-50.382,-21.904 -81.678,-62.891 -81.678,-106.963c-0,-44.075 31.296,-85.059 81.678,-106.959c1.193,-0.519 2.543,-0.519 3.737,-0c50.381,21.9 81.678,62.884 81.678,106.959c0,44.072 -31.297,85.059 -81.678,106.963c-0.597,0.259 -1.231,0.387 -1.869,0.387" style="fill:#3f100e;fill-rule:nonzero;"/>
    <path d="M812.448,701.14c-40.993,-0 -80.459,-10.538 -111.128,-29.672c-2.197,-1.369 -2.865,-4.26 -1.493,-6.456c1.368,-2.197 4.262,-2.869 6.456,-1.497c29.2,18.218 66.903,28.25 106.165,28.25c39.304,-0 77.035,-10.05 106.247,-28.3c2.191,-1.372 5.088,-0.7 6.457,1.49c1.371,2.197 0.706,5.088 -1.491,6.46c-30.678,19.168 -70.178,29.725 -111.213,29.725" style="fill:#3f100e;fill-rule:nonzero;"/>
    <path d="M921.09,821.014c-0.847,0 -1.703,-0.228 -2.475,-0.712c-29.197,-18.216 -66.9,-28.247 -106.166,-28.247c-39.266,0 -76.969,10.031 -106.166,28.247c-2.193,1.378 -5.087,0.703 -6.456,-1.494c-1.372,-2.197 -0.703,-5.087 1.494,-6.456c30.666,-19.134 70.131,-29.672 111.128,-29.672c40.997,0 80.463,10.538 111.125,29.672c2.2,1.369 2.866,4.259 1.497,6.456c-0.888,1.425 -2.419,2.206 -3.981,2.206" style="fill:#3f100e;fill-rule:nonzero;"/>
    <path d="M812.448,849.26c-2.59,0 -4.687,-2.1 -4.687,-4.687l-0,-205.325c-0,-2.588 2.097,-4.688 4.687,-4.688c2.591,0 4.688,2.1 4.688,4.688l-0,205.325c-0,2.587 -2.097,4.687 -4.688,4.687" style="fill:#3f100e;fill-rule:nonzero;"/>
    <path d="M970.167,746.597l-315.438,0c-2.591,0 -4.687,-2.097 -4.687,-4.687c-0,-2.591 2.096,-4.688 4.687,-4.688l315.438,0c2.59,0 4.687,2.097 4.687,4.688c0,2.59 -2.097,4.687 -4.687,4.687" style="fill:#3f100e;fill-rule:nonzero;"/>
    <path d="M1274.66,938.408l-100.479,-56.781c0,-0 -13.503,18.975 -47.543,15.171l-26.041,36.594c-5.15,7.238 -15.191,8.928 -22.425,3.778c-7.234,-5.147 -8.928,-15.187 -3.778,-22.422l29.897,-42.018l-39.516,12.609c-12.6,4.019 -25.844,-4.053 -28.04,-17.097c-2.11,-12.519 6.909,-24.169 19.553,-25.269l44.718,-3.884l-59.009,-31.787c-10.462,-5.638 -13.619,-19.169 -6.728,-28.854c6.325,-8.89 18.662,-10.968 27.553,-4.64l44.444,31.622l-33.466,-62.938c-5.25,-9.869 -1.247,-22.122 8.816,-26.994c9.45,-4.571 20.825,-0.934 25.869,8.269l28.893,52.728c-7.584,-17.906 -4.878,-37.022 -1.2,-50.05c2.61,-9.253 11.847,-14.956 21.322,-13.334c9.797,1.681 16.61,10.672 15.578,20.556l-4.247,40.713c18.088,22.397 11.05,51.415 11.05,51.415l129.891,56.047l-35.112,56.566Z" style="fill:#ed5728;fill-rule:nonzero;"/>
    <path d="M1309.77,886.531c-0.619,-0 -1.247,-0.122 -1.856,-0.384l-129.891,-56.047c-2.097,-0.903 -3.234,-3.188 -2.697,-5.41c0.063,-0.259 6.216,-27.109 -10.143,-47.365c-0.778,-0.966 -1.144,-2.2 -1.016,-3.432l4.25,-40.712c0.772,-7.403 -4.372,-14.191 -11.709,-15.45c-7.16,-1.238 -14.066,3.066 -16.019,9.991c-3.444,12.2 -6.066,30.253 1.006,46.946c0.616,1.45 0.46,3.116 -0.415,4.432c-0.716,1.093 -17.488,27.512 12.44,53.662c1.947,1.703 2.15,4.666 0.447,6.616c-1.706,1.947 -4.659,2.147 -6.616,0.447c-30.85,-26.96 -19.546,-55.535 -15.356,-63.66c-7.05,-18.55 -4.24,-37.853 -0.528,-50.993c3.259,-11.55 14.706,-18.725 26.622,-16.682c12.194,2.091 20.734,13.366 19.453,25.666l-4.053,38.831c14.184,18.847 12.784,41.085 11.472,49.985l126.472,54.568c2.372,1.025 3.468,3.785 2.443,6.163c-0.762,1.769 -2.49,2.828 -4.306,2.828" style="fill:#3f100e;fill-rule:nonzero;"/>
    <path d="M1087.45,944.844c-4.278,0 -8.441,-1.322 -11.997,-3.85c-4.519,-3.219 -7.515,-8.003 -8.437,-13.472c-0.922,-5.472 0.34,-10.975 3.559,-15.494l21.744,-30.556l-26.119,8.331c-7.306,2.332 -15.244,1.375 -21.787,-2.612c-6.544,-3.994 -11.029,-10.616 -12.3,-18.172c-1.222,-7.253 0.656,-14.747 5.159,-20.566c4.5,-5.812 11.284,-9.515 18.609,-10.15l29.091,-2.525l-45.2,-24.35c-6.169,-3.325 -10.622,-9.146 -12.213,-15.971c-1.59,-6.825 -0.175,-14.016 3.888,-19.725c7.819,-10.982 23.112,-13.56 34.094,-5.744l28.262,20.109l-24.144,-45.403c-3.14,-5.909 -3.728,-12.669 -1.65,-19.028c2.079,-6.363 6.541,-11.472 12.563,-14.384c11.7,-5.669 25.772,-1.172 32.022,10.234l28.894,52.728c1.246,2.272 0.412,5.119 -1.857,6.363c-2.265,1.243 -5.118,0.415 -6.362,-1.857l-28.894,-52.728c-3.847,-7.025 -12.509,-9.784 -19.719,-6.303c-3.709,1.794 -6.456,4.941 -7.734,8.856c-1.281,3.919 -0.919,8.078 1.016,11.716l33.465,62.937c1.019,1.919 0.588,4.288 -1.047,5.722c-1.631,1.438 -4.04,1.56 -5.809,0.297l-44.441,-31.622c-6.772,-4.818 -16.203,-3.225 -21.018,3.544c-2.507,3.519 -3.382,7.95 -2.4,12.159c0.981,4.21 3.728,7.797 7.531,9.847l59.009,31.785c1.825,0.984 2.788,3.047 2.369,5.078c-0.419,2.028 -2.122,3.54 -4.184,3.719l-44.719,3.887c-4.797,0.416 -9.063,2.741 -12.009,6.547c-2.944,3.809 -4.129,8.525 -3.329,13.272c0.822,4.875 3.713,9.147 7.935,11.722c4.225,2.575 9.347,3.19 14.062,1.687l39.513,-12.606c1.922,-0.613 4.019,0.075 5.209,1.7c1.191,1.631 1.203,3.841 0.035,5.484l-29.897,42.016c-1.766,2.478 -2.46,5.497 -1.953,8.497c0.506,3.003 2.149,5.625 4.628,7.387c2.481,1.766 5.493,2.453 8.5,1.953c3,-0.506 5.625,-2.15 7.39,-4.628l26.038,-36.597c0.987,-1.381 2.609,-2.137 4.343,-1.937c30.591,3.419 42.719,-12.578 43.222,-13.256c1.403,-1.916 4.044,-2.507 6.107,-1.338l100.478,56.781c2.253,1.272 3.05,4.132 1.772,6.388c-1.275,2.25 -4.138,3.044 -6.388,1.772l-97.197,-54.928c-5.678,5.597 -20.103,16.253 -46.268,14.162l-24.469,34.388c-3.216,4.518 -8,7.515 -13.469,8.437c-1.169,0.2 -2.337,0.297 -3.497,0.297" style="fill:#3f100e;fill-rule:nonzero;"/>
    <path d="M1646.18,1098.31l138.74,-0l0,95.028l-72.221,-0l-66.519,-95.028Z" style="fill:#f2d8e5;fill-rule:nonzero;"/>
    <path d="M1715.14,1188.65l65.094,-0l-0,-85.653l-125.053,-0l59.959,85.653Zm69.781,9.375l-72.222,-0c-1.531,-0 -2.962,-0.747 -3.84,-2l-66.519,-95.028c-1.003,-1.431 -1.125,-3.3 -0.316,-4.853c0.804,-1.55 2.407,-2.522 4.157,-2.522l138.74,-0c2.588,-0 4.688,2.1 4.688,4.687l-0,95.028c-0,2.588 -2.1,4.688 -4.688,4.688" style="fill:#3f100e;fill-rule:nonzero;"/>
    <path d="M366.086,1410.21l-27.862,-23.285l-27.866,23.282l-13.4,-28.441l-38.562,14.978l2.872,-29.753l-44.057,4.656l18.76,-27.05l-43.597,-6.3l32.109,-20.694l-37.25,-16.4l41.125,-11.54l-25.875,-24.291l44.591,-0.828l-11.003,-28.897l42.025,9.991l5.359,-29.6l33.788,19.465l20.99,-26.306l20.991,26.31l33.79,-19.463l5.354,29.6l42.025,-9.984l-11.004,28.893l44.585,0.835l-25.875,24.287l41.125,11.544l-37.253,16.397l32.109,20.697l-43.597,6.294l18.756,27.053l-44.059,-4.66l2.872,29.753l-38.563,-14.984l-13.403,28.441Z" style="fill:#e57244;fill-rule:nonzero;"/>
    <path d="M1812.78,552.867l-27.865,-23.284l-27.866,23.281l-13.397,-28.441l-38.565,14.982l2.871,-29.757l-44.056,4.657l18.76,-27.053l-43.597,-6.297l32.112,-20.694l-37.25,-16.4l41.125,-11.541l-25.875,-24.29l44.588,-0.832l-11,-28.893l42.025,9.99l5.356,-29.6l33.787,19.466l20.994,-26.309l20.988,26.312l33.79,-19.462l5.353,29.6l42.025,-9.985l-11,28.894l44.585,0.834l-25.875,24.288l41.122,11.547l-37.253,16.393l32.112,20.697l-43.6,6.294l18.756,27.053l-44.056,-4.659l2.872,29.753l-38.566,-14.981l-13.4,28.437Z" style="fill:#e57244;fill-rule:nonzero;"/>
    <path d="M2077.92,180.367c-21.894,-0 -39.706,17.812 -39.706,39.706c-0,21.894 17.812,39.706 39.706,39.706c21.894,0 39.706,-17.812 39.706,-39.706c0,-21.894 -17.812,-39.706 -39.706,-39.706m-0,88.787c-27.063,0 -49.081,-22.019 -49.081,-49.081c-0,-27.066 22.018,-49.081 49.081,-49.081c27.062,-0 49.081,22.015 49.081,49.081c0,27.062 -22.019,49.081 -49.081,49.081" style="fill:#3f100e;fill-rule:nonzero;"/>
    <path d="M1863.68,1314.39l-1335.24,-0c-2.591,-0 -4.688,-2.1 -4.688,-4.688c0,-2.587 2.097,-4.687 4.688,-4.687l1335.24,-0c2.588,-0 4.688,2.1 4.688,4.687c-0,2.588 -2.1,4.688 -4.688,4.688" style="fill:#3f100e;fill-rule:nonzero;"/>
    <path d="M357.416,165.538l0,80.452c-3.509,3.052 -8.201,5.608 -14.076,7.668c-5.875,2.059 -13.008,3.089 -21.4,3.089c-8.393,0 -15.526,-1.869 -21.401,-5.607c-6.637,-4.044 -9.956,-9.766 -9.956,-17.166l-0,-73.7l-26.665,-0c-5.493,-7.859 -8.24,-16.442 -8.24,-25.749c0,-6.333 1.011,-11.845 3.033,-16.537c2.022,-4.692 4.52,-8.335 7.496,-10.929l118.332,-0c2.212,3.433 4.043,7.591 5.493,12.474c1.449,4.883 2.174,9.727 2.174,14.534c0,9.002 -1.983,15.621 -5.951,19.855c-3.967,4.235 -9.307,6.352 -16.021,6.352l-33.532,-0c-0.228,0.534 -0.343,1.106 -0.343,1.716c0,1.374 0.801,2.289 2.403,2.747c1.679,0.534 5.265,0.801 10.758,0.801l7.896,0Z" style="fill:#ee4d6f;fill-rule:nonzero;"/>
    <path d="M460.642,173.32c0.305,0.229 1.183,0.343 2.632,0.343c1.45,0 2.556,-0.572 3.319,-1.716c0.763,-1.145 1.144,-3.014 1.144,-5.608l0,-4.12c0,-2.746 -0.324,-4.711 -0.972,-5.893c-0.649,-1.183 -1.717,-1.774 -3.205,-1.774c-1.488,-0 -2.498,0.152 -3.032,0.457c0.076,0.382 0.114,1.03 0.114,1.946l-0,16.365Zm59.051,26.093l19.799,20.256c-1.374,11.901 -5.131,21.057 -11.273,27.465c-6.141,6.409 -14.629,9.613 -25.463,9.613c-8.163,0 -15.259,-1.945 -21.286,-5.836c-7.705,-4.883 -13.466,-12.665 -17.28,-23.346l-4.12,-11.215c-3.205,-0.077 -7.248,-0.496 -12.131,-1.259c-0.61,0.61 -0.916,1.45 -0.916,2.518c0,2.06 3.09,3.28 9.27,3.662l6.523,16.479l0,9.728c-8.773,6.18 -20.027,9.269 -33.76,9.269c-9.842,0 -17.7,-2.021 -23.575,-6.065c-5.874,-4.044 -8.812,-9.918 -8.812,-17.624l0,-108.719c0,-3.357 3.09,-6.618 9.27,-9.784c6.18,-3.167 14.267,-5.722 24.262,-7.668c9.994,-1.945 19.989,-2.918 29.983,-2.918c22.888,-0 40.779,4.692 53.673,14.076c13.58,9.842 20.37,23.689 20.37,41.542c0,10.223 -2.88,18.978 -8.64,26.264c-5.76,7.286 -13.027,12.341 -21.801,15.164c0,2.441 1.469,3.662 4.406,3.662c2.937,-0 6.771,-1.755 11.501,-5.264Z" style="fill:#ee4d6f;fill-rule:nonzero;"/>
    <path d="M641.344,104.999c9.155,-0 17.09,2.479 23.804,7.438c6.714,4.96 10.071,12.017 10.071,21.172l-0,63.629c-0,19.379 -5.913,34.313 -17.739,44.804c-11.825,10.49 -28.171,15.735 -49.038,15.735c-20.866,0 -37.098,-5.149 -48.694,-15.449c-11.826,-10.3 -17.739,-25.33 -17.739,-45.09l0,-81.596c9.003,-7.172 19.417,-10.758 31.243,-10.758c9.918,0 17.776,2.613 23.575,7.84c5.798,5.226 8.697,13.141 8.697,23.746l0,66.719c0.839,0.61 1.812,0.916 2.918,0.916c1.107,-0 1.908,-0.286 2.404,-0.859c0.496,-0.572 0.744,-1.659 0.744,-3.261l-0,-63.629c-0,-4.807 -0.229,-8.622 -0.687,-11.445c-0.458,-2.822 -1.373,-5.645 -2.747,-8.468c9.156,-7.63 20.218,-11.444 33.188,-11.444Z" style="fill:#ee4d6f;fill-rule:nonzero;"/>
    <path d="M756.701,209.14c0.763,0 1.449,-0.191 2.06,-0.572l-0,-10.414c5.188,-3.51 12.455,-6.371 21.801,-8.583c9.346,-2.213 18.444,-3.319 27.294,-3.319c4.043,4.12 7.419,10.28 10.128,18.482c2.708,8.202 4.139,15.621 4.291,22.259c-1.526,3.052 -4.101,6.332 -7.725,9.842c-3.623,3.509 -7.991,6.752 -13.103,9.727c-12.665,7.477 -27.199,11.215 -43.602,11.215c-23.499,0 -42,-6.828 -55.504,-20.485c-13.962,-13.809 -20.943,-32.939 -20.943,-57.392c0,-24.452 7.63,-43.659 22.889,-57.621c6.714,-6.256 14.534,-10.967 23.46,-14.133c8.926,-3.166 18.311,-4.749 28.153,-4.749c19.226,-0 34.98,4.654 47.264,13.961c12.283,9.308 18.425,20.79 18.425,34.447c-0,10.3 -3.167,17.91 -9.499,22.831c-6.332,4.921 -14.915,7.382 -25.749,7.382c-5.951,-0 -11.94,-1.469 -17.967,-4.406c-6.028,-2.938 -9.613,-5.703 -10.758,-8.297c0,-6.257 0.115,-11.177 0.343,-14.763c-0.152,-0.077 -0.419,-0.115 -0.801,-0.115l-0.801,0c-1.144,0 -2.041,0.325 -2.689,0.973c-0.649,0.649 -1.221,2.003 -1.717,4.063c-0.496,2.06 -0.744,7.667 -0.744,16.822c0,21.897 1.832,32.845 5.494,32.845Z" style="fill:#ee4d6f;fill-rule:nonzero;"/>
    <path d="M895.632,128.802l-0,5.15c-3.052,6.333 -5.379,11.273 -6.981,14.82c-1.602,3.548 -2.403,5.97 -2.403,7.267c-0,2.213 1.259,3.319 3.776,3.319l22.545,-49.438c5.264,-3.433 12.455,-5.15 21.572,-5.15c9.117,-0 16.957,2.518 23.518,7.553c7.171,5.646 10.757,13.351 10.757,23.117c0,8.164 -2.784,16.193 -8.354,24.09c-5.569,7.896 -12.855,14.744 -21.858,20.542c-4.196,-2.365 -7.973,-3.548 -11.33,-3.548c-3.357,0 -5.035,1.641 -5.035,4.921c3.509,0.687 6.695,1.66 9.556,2.919c2.861,1.258 6.237,3.681 10.128,7.267l30.441,28.038c-2.213,24.719 -14.572,37.078 -37.079,37.078c-8.316,0 -15.449,-2.136 -21.4,-6.408c-7.019,-4.959 -12.513,-12.512 -16.48,-22.66l-10.643,-26.55l-0.572,0c-2.518,0 -3.777,1.068 -3.777,3.204c0,1.374 1.069,4.693 3.205,9.957c2.136,5.722 5.34,13.351 9.613,22.888l-0,8.812c-8.011,7.172 -19.646,10.757 -34.905,10.757c-8.239,0 -15.297,-1.869 -21.171,-5.607c-6.638,-4.044 -9.957,-9.804 -9.957,-17.281l0,-118.103c7.859,-7.171 19.799,-10.757 35.82,-10.757c8.316,-0 15.374,1.755 21.172,5.264c6.561,4.196 9.842,10.376 9.842,18.539Z" style="fill:#ee4d6f;fill-rule:nonzero;"/>
    <path d="M1052.19,184.821c0,5.455 -0.782,10.338 -2.346,14.649c-1.564,4.31 -3.986,8.754 -7.267,13.332l-61.111,0c-6.333,-8.697 -9.499,-18.005 -9.499,-27.923c-0,-5.494 0.801,-10.472 2.403,-14.935c1.602,-4.463 3.968,-9.022 7.096,-13.676l61.111,0c3.357,4.883 5.798,9.499 7.324,13.848c1.526,4.348 2.289,9.25 2.289,14.705Z" style="fill:#ee4d6f;fill-rule:nonzero;"/>
    <path d="M1118.56,213.031c2.517,-0.458 3.776,-1.736 3.776,-3.834c0,-2.098 -0.667,-4.463 -2.002,-7.095c-1.336,-2.632 -3.3,-5.131 -5.894,-7.496c-6.79,-6.103 -15.984,-9.155 -27.58,-9.155c-5.722,-0 -11.063,0.953 -16.022,2.861c-5.264,-2.671 -9.461,-6.905 -12.589,-12.703c-3.128,-5.799 -4.692,-12.055 -4.692,-18.768c0,-17.548 7.325,-31.09 21.973,-40.627c12.589,-8.163 28.114,-12.245 46.577,-12.245c13.733,-0 25.292,1.468 34.676,4.406c9.384,2.937 17.052,6.695 23.003,11.272c1.754,5.036 2.632,10.262 2.632,15.679c-0,5.416 -0.725,10.337 -2.175,14.763c-1.449,4.425 -3.547,7.972 -6.294,10.643c-2.594,-1.908 -7.286,-3.853 -14.076,-5.837c-6.79,-1.984 -12.97,-2.975 -18.539,-2.975c-5.57,-0 -9.289,0.343 -11.158,1.03c-1.87,0.686 -2.804,1.754 -2.804,3.204c-0,0.687 0.114,1.335 0.343,1.945c2.67,-0.686 6.104,-1.03 10.3,-1.03c14.877,0 27.008,3.51 36.392,10.529c11.063,8.392 16.594,20.981 16.594,37.765c-0,14.801 -5.989,27.085 -17.967,36.85c-12.97,10.453 -30.403,15.679 -52.3,15.679c-12.054,-0 -22.507,-0.897 -31.357,-2.69c-8.85,-1.792 -17.471,-4.94 -25.863,-9.441c-5.722,-8.316 -8.583,-16.765 -8.583,-25.349c-0,-8.583 2.937,-15.697 8.812,-21.343c5.874,-5.646 13.103,-8.468 21.686,-8.468c8.583,-0 15.602,1.754 21.057,5.264c5.455,3.509 9.48,9.231 12.074,17.166Z" style="fill:#ee4d6f;fill-rule:nonzero;"/>
    <path d="M1336.34,133.38l-0,113.754c-8.545,6.409 -19.493,9.613 -32.845,9.613c-10.299,0 -18.463,-2.098 -24.49,-6.294c-6.332,-4.272 -9.499,-10.452 -9.499,-18.539l0,-22.66l8.126,0c3.128,0 5.092,-0.4 5.893,-1.201c0.801,-0.801 1.202,-2.117 1.202,-3.948l-35.934,-0c-0,1.831 0.343,3.147 1.03,3.948c0.686,0.801 2.326,1.201 4.92,1.201l8.698,0l-0,37.88c-5.875,3.815 -11.444,6.371 -16.708,7.668c-5.265,1.297 -10.643,1.945 -16.137,1.945c-10.299,0 -18.463,-2.098 -24.49,-6.294c-6.332,-4.272 -9.498,-10.452 -9.498,-18.539l-0,-113.869c3.967,-4.196 8.869,-7.42 14.705,-9.67c5.837,-2.251 11.921,-3.376 18.253,-3.376c9.232,-0 17.052,2.289 23.461,6.866c6.943,5.188 10.414,12.36 10.414,21.515l-0,20.371l14.534,-0c-0,-1.984 -0.362,-3.338 -1.087,-4.063c-0.725,-0.725 -1.888,-1.087 -3.491,-1.087l-3.891,-0l0,-30.556c3.968,-4.196 8.87,-7.42 14.706,-9.67c5.837,-2.251 11.921,-3.376 18.253,-3.376c9.232,-0 17.052,2.289 23.461,6.866c6.942,5.188 10.414,12.36 10.414,21.515Z" style="fill:#ee4d6f;fill-rule:nonzero;"/>
    <path d="M1414.74,179.5c0.61,0.61 1.564,0.915 2.861,0.915c1.297,0 2.403,-0.267 3.319,-0.801c-1.984,-11.596 -3.319,-18.463 -4.006,-20.599c-0.839,-2.213 -2.098,-3.319 -3.776,-3.319c-0.763,0 -1.679,0.229 -2.747,0.687l4.349,23.117Zm-22.659,34.332c-0.763,1.068 -1.145,2.06 -1.145,2.976c0,2.212 2.079,4.062 6.237,5.55c4.158,1.488 9.213,2.422 15.164,2.804c0.991,10.986 2.06,17.242 3.204,18.768c-1.45,2.823 -5.455,5.665 -12.016,8.526c-6.562,2.861 -13.962,4.291 -22.202,4.291c-10.91,0 -20.256,-2.346 -28.038,-7.038c-7.782,-4.692 -11.673,-10.738 -11.673,-18.139c0,-1.983 0.191,-3.738 0.572,-5.264l24.376,-108.948c6.104,-3.891 13.39,-6.942 21.858,-9.155c8.469,-2.212 17.281,-3.319 26.436,-3.319c13.123,0 24.338,2.213 33.646,6.638c10.605,5.035 17.052,12.321 19.34,21.858l26.093,107.918c-7.935,10.3 -20.866,15.449 -38.795,15.449c-8.698,0 -16.06,-1.564 -22.088,-4.692c-6.027,-3.128 -9.536,-7.591 -10.528,-13.389l-2.518,-13.962c4.578,-0.076 9.003,-0.954 13.275,-2.632c4.273,-1.679 6.409,-3.433 6.409,-5.264c0,-1.221 -0.496,-2.213 -1.488,-2.976c-2.899,2.06 -6.447,3.624 -10.643,4.692c-4.196,1.068 -8.087,1.602 -11.673,1.602c-10.299,0 -18.234,-2.098 -23.803,-6.294Z" style="fill:#ee4d6f;fill-rule:nonzero;"/>
    <path d="M1561.45,173.32c0.305,0.229 1.183,0.343 2.632,0.343c1.45,0 2.556,-0.572 3.319,-1.716c0.763,-1.145 1.144,-3.014 1.144,-5.608l0,-4.12c0,-2.746 -0.324,-4.711 -0.972,-5.893c-0.649,-1.183 -1.717,-1.774 -3.205,-1.774c-1.487,-0 -2.498,0.152 -3.032,0.457c0.076,0.382 0.114,1.03 0.114,1.946l0,16.365Zm59.052,26.093l19.798,20.256c-1.373,11.901 -5.131,21.057 -11.272,27.465c-6.142,6.409 -14.63,9.613 -25.464,9.613c-8.163,0 -15.258,-1.945 -21.286,-5.836c-7.705,-4.883 -13.465,-12.665 -17.28,-23.346l-4.12,-11.215c-3.204,-0.077 -7.248,-0.496 -12.131,-1.259c-0.61,0.61 -0.915,1.45 -0.915,2.518c-0,2.06 3.09,3.28 9.269,3.662l6.524,16.479l-0,9.728c-8.774,6.18 -20.028,9.269 -33.761,9.269c-9.841,0 -17.7,-2.021 -23.574,-6.065c-5.875,-4.044 -8.812,-9.918 -8.812,-17.624l-0,-108.719c-0,-3.357 3.09,-6.618 9.269,-9.784c6.18,-3.167 14.267,-5.722 24.262,-7.668c9.994,-1.945 19.989,-2.918 29.983,-2.918c22.889,-0 40.779,4.692 53.673,14.076c13.58,9.842 20.371,23.689 20.371,41.542c-0,10.223 -2.88,18.978 -8.641,26.264c-5.76,7.286 -13.027,12.341 -21.801,15.164c0,2.441 1.469,3.662 4.406,3.662c2.938,-0 6.771,-1.755 11.502,-5.264Z" style="fill:#ee4d6f;fill-rule:nonzero;"/>
    <path d="M1711.37,127.773l-0,118.217c-3.51,3.052 -8.202,5.608 -14.076,7.668c-5.875,2.059 -13.009,3.089 -21.401,3.089c-8.392,0 -15.526,-1.869 -21.4,-5.607c-6.638,-4.044 -9.957,-9.766 -9.957,-17.166l0,-118.218c3.51,-3.052 8.202,-5.607 14.076,-7.667c5.875,-2.06 12.97,-3.09 21.286,-3.09c8.317,-0 15.526,1.831 21.63,5.493c6.561,4.196 9.842,9.956 9.842,17.281Z" style="fill:#ee4d6f;fill-rule:nonzero;"/>
    <path d="M1719.84,233.516l0,-114.67c0,-3.967 3.186,-7.267 9.556,-9.899c6.371,-2.632 13.867,-3.948 22.488,-3.948c4.883,-0 9.479,0.591 13.79,1.774c4.311,1.182 7.61,2.689 9.899,4.52c3.128,3.967 5.989,8.011 8.583,12.131c2.594,4.12 8.431,13.733 17.51,28.839c0.839,-0 1.602,-0.267 2.288,-0.801c0.687,-0.534 1.03,-1.354 1.03,-2.461c0,-1.106 -0.953,-3.261 -2.861,-6.466l-12.359,-21.286l-0,-6.294c3.891,-3.204 8.621,-5.684 14.19,-7.439c5.57,-1.754 11.33,-2.632 17.281,-2.632c9.689,0 17.509,1.755 23.46,5.265c6.943,4.196 10.415,10.757 10.415,19.683l-0,108.376c-0,6.561 -3.129,11.33 -9.385,14.305c-5.34,2.67 -12.474,4.006 -21.4,4.006c-4.959,-0 -9.785,-0.535 -14.477,-1.603c-4.692,-1.068 -8.373,-2.441 -11.043,-4.119c-5.417,-6.943 -10.796,-14.725 -16.137,-23.346l-11.673,-19.455c-2.212,0.305 -3.318,1.487 -3.318,3.547c-0,1.297 1.106,3.777 3.318,7.439l14.306,23.117l-0,6.065c-8.851,5.722 -18.826,8.583 -29.927,8.583c-11.1,0 -19.798,-2.021 -26.092,-6.065c-6.294,-4.044 -9.442,-9.766 -9.442,-17.166Z" style="fill:#ee4d6f;fill-rule:nonzero;"/>
    <path d="M1937.96,159.358l67.863,0c4.349,6.333 6.523,14.019 6.523,23.06c0,9.041 -1.869,16.384 -5.607,22.03l-4.692,-0l-0,34.332c-15.03,13.046 -34.867,19.57 -59.51,19.57c-15.03,-0 -28.381,-2.671 -40.054,-8.011c-12.741,-5.722 -22.621,-14.076 -29.64,-25.063c-7.706,-12.054 -11.559,-26.855 -11.559,-44.403c0,-24.948 7.477,-44.25 22.431,-57.907c14.19,-13.046 33.417,-19.569 57.678,-19.569c11.978,-0 23.289,1.793 33.932,5.378c10.643,3.586 19.054,8.049 25.234,13.39c-0,4.578 -0.553,10.185 -1.659,16.823c-1.107,6.637 -2.499,11.711 -4.178,15.22l-60.31,0c-2.441,2.594 -4.749,6.333 -6.924,11.216c-2.174,4.882 -3.261,10.49 -3.261,16.822c-0,8.698 2.174,15.526 6.523,20.485c3.815,4.502 8.697,6.752 14.648,6.752c2.442,0 3.663,-0.839 3.663,-2.517l-0,-2.633l-1.259,0c-5.036,0 -9.213,-1.964 -12.532,-5.893c-3.318,-3.929 -4.978,-9.556 -4.978,-16.88c0,-9.156 2.556,-16.556 7.668,-22.202Z" style="fill:#ee4d6f;fill-rule:nonzero;"/>
    <path d="M2034.44,411.089c-0,0.763 0.19,1.45 0.572,2.06l10.414,0c3.51,5.188 6.371,12.455 8.583,21.801c2.213,9.346 3.319,18.444 3.319,27.294c-4.12,4.044 -10.281,7.42 -18.482,10.128c-8.202,2.709 -15.622,4.139 -22.259,4.292c-3.052,-1.526 -6.333,-4.101 -9.842,-7.725c-3.51,-3.624 -6.752,-7.992 -9.728,-13.103c-7.476,-12.665 -11.215,-27.199 -11.215,-43.602c0,-23.499 6.829,-42 20.485,-55.504c13.809,-13.962 32.94,-20.943 57.392,-20.943c24.453,0 43.66,7.629 57.621,22.888c6.256,6.714 10.968,14.534 14.134,23.461c3.166,8.926 4.749,18.31 4.749,28.152c0,19.226 -4.654,34.981 -13.962,47.264c-9.308,12.284 -20.79,18.425 -34.446,18.425c-10.3,0 -17.91,-3.166 -22.831,-9.498c-4.921,-6.333 -7.382,-14.916 -7.382,-25.75c0,-5.951 1.469,-11.94 4.406,-17.967c2.937,-6.027 5.703,-9.613 8.297,-10.757c6.256,-0 11.177,0.114 14.763,0.343c0.076,-0.153 0.114,-0.42 0.114,-0.801l0,-0.801c0,-1.145 -0.324,-2.041 -0.972,-2.689c-0.649,-0.649 -2.003,-1.221 -4.063,-1.717c-2.06,-0.496 -7.668,-0.744 -16.823,-0.744c-21.896,0 -32.844,1.831 -32.844,5.493Z" style="fill:#ee4d6f;fill-rule:nonzero;"/>
    <path d="M2067.86,558.375c7.63,-0 12.875,-0.344 15.736,-1.03c2.861,-0.687 4.292,-1.946 4.292,-3.777c-0,-1.144 -0.382,-2.174 -1.145,-3.09c-1.373,0.153 -3.204,0.382 -5.493,0.687c-2.289,0.305 -7.172,0.458 -14.648,0.458l-7.439,-0c-5.188,-0 -8.965,-0.115 -11.33,-0.344c-2.365,-0.229 -4.387,-0.419 -6.065,-0.572c-0.916,-0.076 -1.831,-0.152 -2.747,-0.229c-0.763,0.916 -1.144,1.946 -1.144,3.09c-0,1.831 1.43,3.09 4.291,3.777c2.861,0.686 8.107,1.03 15.736,1.03l9.956,-0Zm-82.626,-4.578c0,-13.58 2.804,-26.035 8.411,-37.365c5.608,-11.33 14.191,-20.466 25.75,-27.409c11.558,-6.942 25.997,-10.414 43.316,-10.414c25.1,0 44.708,7.553 58.822,22.66c12.436,13.427 18.654,30.708 18.654,51.841c0,22.965 -7.114,41.142 -21.343,54.531c-14.229,13.39 -32.94,20.085 -56.133,20.085c-25.788,-0 -45.472,-7.172 -59.052,-21.515c-12.283,-13.046 -18.425,-30.518 -18.425,-52.414Z" style="fill:#ee4d6f;fill-rule:nonzero;"/>
    <path d="M1986.83,759.218c0,-10.452 1.717,-18.653 5.15,-24.604c3.586,-6.409 8.659,-9.88 15.221,-10.414l10.757,-1.03c1.679,7.019 6.027,12.931 13.046,17.738c1.984,1.297 3.701,1.945 5.15,1.945c1.984,0 2.976,-0.991 2.976,-2.975l-0,-0.343c-0.077,-0.077 -0.115,-0.229 -0.115,-0.458c-11.215,-5.341 -16.823,-14 -16.823,-25.978c0,-6.104 1.336,-11.311 4.006,-15.621c2.67,-4.311 7.286,-8.259 13.847,-11.845l0,-0.687c0,-2.06 -0.877,-3.09 -2.632,-3.09c-1.221,0 -2.594,0.458 -4.12,1.374c-5.111,3.051 -9.117,6.866 -12.016,11.444c-2.441,3.586 -3.891,7.362 -4.349,11.329l-21.629,-0.915c-2.976,-4.578 -5.131,-9.403 -6.466,-14.477c-1.335,-5.073 -2.003,-12.283 -2.003,-21.629c0,-9.346 1.831,-17.681 5.493,-25.006c4.502,-9.002 10.758,-13.504 18.769,-13.504c9.994,0 34.675,1.984 74.043,5.951c20.523,2.137 34.866,3.853 43.03,5.15c7.019,7.858 10.528,19.455 10.528,34.79c0,11.139 -2.06,20.371 -6.179,27.695l-21.058,6.294l-16.822,-4.005c-1.145,-0.305 -2.251,-0.458 -3.319,-0.458c-2.67,0 -4.044,1.526 -4.12,4.578l45.204,10.872c1.679,3.128 3.147,7.209 4.406,12.245c1.259,5.035 1.888,10.528 1.888,16.479c0,11.139 -1.888,19.398 -5.664,24.777c-3.777,5.378 -10.128,8.564 -19.055,9.555c-1.678,0.229 -4.463,0.573 -8.354,1.03c-59.662,6.943 -94.795,10.415 -105.4,10.415c-8.927,-8.469 -13.39,-20.676 -13.39,-36.622Z" style="fill:#ee4d6f;fill-rule:nonzero;"/>
    <path d="M2065.68,865.42c-0.229,0.305 -0.343,1.182 -0.343,2.632c-0,1.449 0.572,2.556 1.716,3.319c1.145,0.763 3.014,1.144 5.608,1.144l8.697,-0c2.747,-0 4.712,-0.324 5.894,-0.973c1.183,-0.648 1.774,-1.716 1.774,-3.204c-0,-1.488 -0.153,-2.499 -0.458,-3.033c-0.381,0.076 -1.03,0.115 -1.945,0.115l-20.943,-0Zm-51.727,2.861l-17.51,-0c-2.823,-3.357 -5.13,-8.087 -6.923,-14.191c-1.793,-6.104 -2.69,-12.474 -2.69,-19.112c0,-9.46 1.831,-17.204 5.493,-23.231c4.197,-6.867 10.262,-10.3 18.197,-10.3l108.718,0c2.442,0 4.883,1.66 7.325,4.978c2.441,3.319 4.654,7.916 6.637,13.79c4.273,12.589 6.409,26.97 6.409,43.145c-0,22.354 -5.57,40.168 -16.708,53.444c-11.139,13.275 -26.112,19.912 -44.919,19.912c-18.806,0 -33.435,-5.989 -43.888,-17.967c-9.918,-11.52 -14.877,-27.504 -14.877,-47.951c0,-4.654 0.553,-9.632 1.659,-14.934c1.107,-5.303 2.079,-8.869 2.919,-10.7c-0.611,-0.611 -1.45,-0.916 -2.518,-0.916c-3.891,0 -6.332,8.011 -7.324,24.033Z" style="fill:#ee4d6f;fill-rule:nonzero;"/>
    <path d="M2064.08,1003.44c-0.61,0.611 -0.916,1.564 -0.916,2.861c0,1.297 0.267,2.404 0.801,3.319c11.597,-1.983 18.464,-3.319 20.6,-4.005c2.212,-0.839 3.319,-2.098 3.319,-3.777c-0,-0.763 -0.229,-1.678 -0.687,-2.746l-23.117,4.348Zm-34.332,-22.659c-1.069,-0.763 -2.06,-1.144 -2.976,-1.144c-2.212,-0 -4.063,2.079 -5.55,6.237c-1.488,4.158 -2.423,9.212 -2.804,15.163c-10.986,0.992 -17.242,2.06 -18.768,3.204c-2.823,-1.449 -5.665,-5.455 -8.526,-12.016c-2.861,-6.561 -4.292,-13.962 -4.292,-22.201c0,-10.91 2.346,-20.256 7.038,-28.038c4.692,-7.782 10.739,-11.673 18.139,-11.673c1.984,-0 3.739,0.19 5.265,0.572l108.947,24.376c3.891,6.103 6.943,13.389 9.156,21.858c2.212,8.469 3.318,17.281 3.318,26.436c0,13.122 -2.212,24.338 -6.637,33.645c-5.036,10.605 -12.322,17.052 -21.858,19.341l-107.918,26.093c-10.3,-7.935 -15.45,-20.867 -15.45,-38.796c0,-8.697 1.564,-16.06 4.692,-22.087c3.128,-6.027 7.592,-9.537 13.39,-10.529l13.962,-2.517c0.076,4.577 0.953,9.002 2.632,13.275c1.678,4.272 3.433,6.409 5.264,6.409c1.221,-0 2.213,-0.496 2.976,-1.488c-2.06,-2.899 -3.624,-6.447 -4.692,-10.643c-1.069,-4.196 -1.603,-8.087 -1.603,-11.673c0,-10.3 2.098,-18.234 6.295,-23.804Z" style="fill:#ee4d6f;fill-rule:nonzero;"/>
    <path d="M2010.06,1086.18l114.67,0c3.967,0 7.267,3.185 9.899,9.556c2.632,6.371 3.948,13.866 3.948,22.488c-0,4.882 -0.591,9.479 -1.774,13.79c-1.182,4.31 -2.689,7.61 -4.52,9.899c-3.968,3.128 -8.011,5.989 -12.131,8.583c-4.12,2.594 -13.733,8.43 -28.839,17.509c-0,0.84 0.267,1.603 0.801,2.289c0.534,0.687 1.354,1.03 2.46,1.03c1.107,0 3.262,-0.953 6.466,-2.861l21.286,-12.359l6.295,-0c3.204,3.891 5.683,8.621 7.438,14.19c1.755,5.57 2.632,11.33 2.632,17.281c0,9.689 -1.754,17.509 -5.264,23.46c-4.196,6.943 -10.757,10.414 -19.684,10.414l-108.375,0c-6.562,0 -11.33,-3.128 -14.305,-9.384c-2.671,-5.34 -4.006,-12.474 -4.006,-21.4c0,-4.959 0.534,-9.785 1.602,-14.477c1.068,-4.692 2.442,-8.373 4.12,-11.044c6.943,-5.416 14.725,-10.795 23.346,-16.136l19.455,-11.673c-0.305,-2.212 -1.488,-3.319 -3.548,-3.319c-1.297,0 -3.776,1.107 -7.438,3.319l-23.117,14.305l-6.066,0c-5.722,-8.85 -8.583,-18.825 -8.583,-29.926c0,-11.101 2.022,-19.798 6.066,-26.092c4.043,-6.295 9.765,-9.442 17.166,-9.442Z" style="fill:#ee4d6f;fill-rule:nonzero;"/>
    <path d="M2023.68,1275.69c0,2.137 1.183,3.205 3.548,3.205c11.215,-16.861 24.986,-29.736 41.313,-38.624c16.327,-8.888 34.332,-13.867 54.016,-14.935c5.112,3.434 9.041,8.564 11.788,15.393c2.746,6.828 4.119,13.866 4.119,21.114c0,9.537 -1.869,17.738 -5.607,24.605c-11.521,4.272 -22.507,7.782 -32.959,10.528c-16.48,-3.738 -24.719,-5.607 -24.719,-5.607c-1.145,-0.305 -2.213,-0.458 -3.205,-0.458c-2.594,-0 -3.891,1.373 -3.891,4.12c2.899,0.915 11.673,3.052 26.322,6.409c3.738,0.839 8.945,1.964 15.621,3.376c6.676,1.411 14.553,3.223 23.632,5.435c3.357,7.02 5.035,15.03 5.035,24.033c0,10.91 -2.651,19.608 -7.953,26.093c-5.303,6.485 -12.951,9.727 -22.946,9.727c-14.648,0 -28.915,-4.12 -42.801,-12.36c-10.986,-6.485 -21.247,-15.068 -30.784,-25.749l-37.766,0c-3.891,-6.332 -6.466,-12.016 -7.724,-17.051c-1.259,-5.036 -1.889,-10.338 -1.889,-15.908c0,-10.528 1.984,-18.806 5.951,-24.833c3.967,-6.028 9.88,-9.041 17.739,-9.041l20.141,-0c-1.373,1.373 -2.88,3.128 -4.52,5.264c-1.641,2.136 -2.461,3.891 -2.461,5.264Z" style="fill:#ee4d6f;fill-rule:nonzero;"/>
    <path d="M291.813,1348.95l-0,-50.354l-16.892,5.264l0,-12.589l16.892,-5.218l16.891,-0l0,62.897l-16.891,-0Z" style="fill:#3f100e;fill-rule:nonzero;"/>
    <path d="M352.009,1337.88c4.272,-0 7.942,-0.382 11.009,-1.145c3.067,-0.763 5.607,-1.823 7.622,-3.181c2.014,-1.358 3.524,-2.945 4.531,-4.761c1.007,-1.816 1.572,-3.776 1.694,-5.882c-1.587,0.763 -3.258,1.488 -5.012,2.174c-1.755,0.687 -3.632,1.297 -5.631,1.831c-1.999,0.534 -4.15,0.954 -6.454,1.259c-2.304,0.305 -4.799,0.458 -7.485,0.458c-4.059,-0 -7.828,-0.404 -11.307,-1.213c-3.479,-0.809 -6.5,-2.06 -9.063,-3.754c-2.564,-1.693 -4.578,-3.868 -6.043,-6.523c-1.465,-2.655 -2.197,-5.829 -2.197,-9.521c-0,-4.12 0.854,-7.637 2.563,-10.552c1.709,-2.914 4.059,-5.31 7.05,-7.187c2.991,-1.877 6.516,-3.25 10.574,-4.12c4.059,-0.869 8.454,-1.304 13.184,-1.304c5.432,-0 10.399,0.671 14.9,2.014c4.502,1.343 8.37,3.357 11.604,6.042c3.235,2.686 5.738,6.051 7.508,10.094c1.77,4.044 2.655,8.782 2.655,14.214c-0,4.638 -0.794,9.01 -2.381,13.115c-1.586,4.104 -4.051,7.69 -7.392,10.757c-3.342,3.067 -7.599,5.493 -12.772,7.278c-5.173,1.786 -11.345,2.678 -18.517,2.678c-2.044,0 -4.15,-0.076 -6.317,-0.228c-2.166,-0.153 -4.28,-0.359 -6.34,-0.618c-2.06,-0.26 -4.02,-0.565 -5.882,-0.916c-1.862,-0.351 -3.494,-0.71 -4.898,-1.076l-0,-14.053c1.007,0.397 2.235,0.839 3.685,1.327c1.45,0.489 3.128,0.939 5.035,1.351c1.908,0.412 4.029,0.755 6.363,1.03c2.335,0.274 4.906,0.412 7.714,0.412Zm24.536,-28.839c-0.336,-1.282 -1.03,-2.594 -2.083,-3.937c-1.053,-1.343 -2.426,-2.571 -4.12,-3.685c-1.694,-1.114 -3.685,-2.029 -5.974,-2.747c-2.289,-0.717 -4.822,-1.075 -7.599,-1.075c-2.258,-0 -4.364,0.175 -6.317,0.526c-1.953,0.351 -3.654,0.893 -5.104,1.625c-1.449,0.733 -2.594,1.656 -3.433,2.77c-0.839,1.113 -1.259,2.433 -1.259,3.959c0,1.648 0.336,3.052 1.007,4.212c0.671,1.159 1.648,2.098 2.93,2.815c1.282,0.717 2.861,1.243 4.738,1.579c1.876,0.336 4.02,0.504 6.431,0.504c1.984,-0 3.96,-0.183 5.928,-0.55c1.969,-0.366 3.853,-0.846 5.654,-1.442c1.8,-0.595 3.486,-1.289 5.058,-2.082c1.572,-0.794 2.953,-1.618 4.143,-2.472Z" style="fill:#3f100e;fill-rule:nonzero;"/>
    <path d="M1749.45,478.471c4.272,-0 7.942,-0.382 11.009,-1.145c3.067,-0.763 5.608,-1.823 7.622,-3.181c2.014,-1.358 3.525,-2.945 4.532,-4.761c1.007,-1.816 1.571,-3.777 1.693,-5.882c-1.586,0.763 -3.257,1.487 -5.012,2.174c-1.755,0.687 -3.632,1.297 -5.631,1.831c-1.998,0.534 -4.15,0.954 -6.454,1.259c-2.304,0.305 -4.799,0.458 -7.484,0.458c-4.059,-0 -7.828,-0.405 -11.307,-1.213c-3.479,-0.809 -6.5,-2.06 -9.064,-3.754c-2.563,-1.694 -4.578,-3.868 -6.042,-6.523c-1.465,-2.655 -2.198,-5.829 -2.198,-9.522c0,-4.119 0.855,-7.637 2.564,-10.551c1.709,-2.915 4.059,-5.31 7.049,-7.187c2.991,-1.877 6.516,-3.25 10.575,-4.12c4.059,-0.87 8.453,-1.304 13.183,-1.304c5.432,-0 10.399,0.671 14.9,2.014c4.502,1.342 8.37,3.357 11.605,6.042c3.235,2.686 5.737,6.05 7.507,10.094c1.77,4.043 2.655,8.781 2.655,14.213c0,4.639 -0.793,9.011 -2.38,13.115c-1.587,4.105 -4.051,7.691 -7.393,10.758c-3.342,3.067 -7.599,5.493 -12.772,7.278c-5.172,1.786 -11.345,2.678 -18.516,2.678c-2.045,0 -4.151,-0.076 -6.317,-0.229c-2.167,-0.152 -4.28,-0.358 -6.34,-0.618c-2.06,-0.259 -4.021,-0.564 -5.883,-0.915c-1.861,-0.351 -3.494,-0.71 -4.898,-1.076l0,-14.053c1.007,0.396 2.236,0.839 3.685,1.327c1.45,0.488 3.128,0.939 5.036,1.351c1.907,0.412 4.028,0.755 6.363,1.03c2.334,0.274 4.905,0.412 7.713,0.412Zm24.536,-28.84c-0.336,-1.281 -1.03,-2.594 -2.083,-3.936c-1.053,-1.343 -2.426,-2.571 -4.12,-3.685c-1.693,-1.114 -3.685,-2.03 -5.973,-2.747c-2.289,-0.717 -4.822,-1.076 -7.599,-1.076c-2.259,0 -4.364,0.176 -6.318,0.527c-1.953,0.351 -3.654,0.892 -5.104,1.625c-1.449,0.732 -2.594,1.655 -3.433,2.769c-0.839,1.114 -1.259,2.434 -1.259,3.96c0,1.648 0.336,3.052 1.007,4.211c0.672,1.16 1.648,2.098 2.93,2.816c1.282,0.717 2.861,1.243 4.738,1.579c1.877,0.336 4.021,0.503 6.432,0.503c1.983,0 3.959,-0.183 5.928,-0.549c1.968,-0.366 3.852,-0.847 5.653,-1.442c1.801,-0.595 3.487,-1.289 5.058,-2.083c1.572,-0.793 2.953,-1.617 4.143,-2.472Z" style="fill:#3f100e;fill-rule:nonzero;"/>
    <path d="M1814.4,489.548l-0,-50.354l-16.892,5.265l0,-12.589l16.892,-5.218l16.891,-0l0,62.896l-16.891,0Z" style="fill:#3f100e;fill-rule:nonzero;"/>
    <path d="M2069.13,236.592l-9.058,-0l-0,-33.545l22.705,-0c2.441,-0 4.513,0.252 6.213,0.757c1.701,0.504 3.085,1.22 4.151,2.148c1.066,0.928 1.839,2.047 2.319,3.357c0.48,1.31 0.72,2.771 0.72,4.382c0,1.417 -0.199,2.653 -0.598,3.711c-0.399,1.058 -0.936,1.966 -1.611,2.723c-0.676,0.756 -1.461,1.395 -2.356,1.916c-0.895,0.521 -1.839,0.952 -2.832,1.294l10.986,13.257l-10.596,-0l-10.156,-12.354l-9.887,0l-0,12.354Zm17.895,-22.949c0,-0.651 -0.085,-1.205 -0.256,-1.66c-0.171,-0.456 -0.468,-0.827 -0.891,-1.111c-0.424,-0.285 -0.989,-0.493 -1.697,-0.623c-0.708,-0.13 -1.591,-0.195 -2.649,-0.195l-12.402,-0l-0,7.178l12.402,-0c1.058,-0 1.941,-0.066 2.649,-0.196c0.708,-0.13 1.273,-0.338 1.697,-0.622c0.423,-0.285 0.72,-0.655 0.891,-1.111c0.171,-0.456 0.256,-1.009 0.256,-1.66Z" style="fill:#3f100e;fill-rule:nonzero;"/>
    <path d="M126.784,287.851c0.483,-0.992 1.03,-2.302 1.641,-3.929c0.61,-1.628 1.188,-3.472 1.735,-5.531c0.547,-2.06 1.005,-4.298 1.373,-6.714c0.369,-2.416 0.554,-4.896 0.554,-7.439c-0,-2.035 -0.064,-3.77 -0.191,-5.207c-0.127,-1.437 -0.293,-2.645 -0.496,-3.624c-0.203,-0.979 -0.439,-1.755 -0.706,-2.327c-0.267,-0.572 -0.54,-1.011 -0.82,-1.316c-0.28,-0.305 -0.559,-0.502 -0.839,-0.591c-0.28,-0.089 -0.534,-0.134 -0.763,-0.134c-0.763,0 -1.431,0.382 -2.003,1.145c-0.572,0.762 -1.081,1.805 -1.526,3.128c-0.445,1.322 -0.864,2.861 -1.259,4.615c-0.394,1.755 -0.801,3.618 -1.22,5.589c-0.42,1.971 -0.878,4.005 -1.374,6.103c-0.495,2.099 -1.074,4.133 -1.735,6.104c-0.661,1.971 -1.431,3.834 -2.308,5.588c-0.877,1.755 -1.901,3.294 -3.071,4.616c-1.17,1.323 -2.518,2.365 -4.044,3.128c-1.525,0.763 -3.267,1.145 -5.226,1.145c-2.517,-0 -4.679,-0.445 -6.485,-1.335c-1.805,-0.891 -3.331,-2.079 -4.577,-3.567c-1.246,-1.488 -2.245,-3.211 -2.995,-5.169c-0.75,-1.958 -1.329,-4.012 -1.735,-6.161c-0.407,-2.149 -0.674,-4.323 -0.802,-6.523c-0.127,-2.2 -0.19,-4.291 -0.19,-6.275c-0,-5.188 0.426,-9.988 1.278,-14.401c0.852,-4.412 1.913,-8.309 3.185,-11.692l12.512,0c-1.933,3.484 -3.446,7.458 -4.539,11.921c-1.094,4.463 -1.641,9.238 -1.641,14.324c0,3.001 0.159,5.449 0.477,7.344c0.318,1.894 0.725,3.376 1.221,4.444c0.496,1.068 1.036,1.793 1.621,2.174c0.585,0.382 1.144,0.572 1.679,0.572c0.839,0 1.57,-0.381 2.193,-1.144c0.623,-0.763 1.17,-1.806 1.64,-3.128c0.471,-1.322 0.903,-2.861 1.297,-4.616c0.394,-1.755 0.789,-3.617 1.183,-5.588c0.394,-1.971 0.82,-3.999 1.278,-6.085c0.458,-2.085 0.998,-4.113 1.621,-6.084c0.623,-1.971 1.348,-3.834 2.174,-5.589c0.827,-1.754 1.806,-3.293 2.938,-4.616c1.131,-1.322 2.441,-2.365 3.929,-3.128c1.488,-0.762 3.211,-1.144 5.169,-1.144c2.314,0 4.31,0.407 5.989,1.221c1.678,0.814 3.109,1.913 4.291,3.299c1.183,1.386 2.143,2.989 2.88,4.807c0.738,1.818 1.31,3.732 1.717,5.741c0.407,2.009 0.687,4.044 0.839,6.104c0.153,2.06 0.229,4.018 0.229,5.874c0,2.035 -0.102,4.126 -0.305,6.275c-0.203,2.149 -0.49,4.267 -0.858,6.352c-0.369,2.085 -0.795,4.101 -1.278,6.046c-0.483,1.946 -0.992,3.745 -1.526,5.398l-12.131,-0Z" style="fill:#ee4d6f;fill-rule:nonzero;"/>
    <path d="M115.302,375.758c-4.501,0 -8.475,-0.826 -11.921,-2.479c-3.446,-1.653 -6.326,-4.018 -8.64,-7.096c-2.315,-3.077 -4.063,-6.809 -5.245,-11.196c-1.183,-4.387 -1.774,-9.314 -1.774,-14.782c-0,-5.467 0.591,-10.407 1.774,-14.82c1.182,-4.412 2.93,-8.169 5.245,-11.272c2.314,-3.103 5.194,-5.493 8.64,-7.172c3.446,-1.678 7.42,-2.517 11.921,-2.517c4.501,-0 8.475,0.839 11.921,2.517c3.446,1.679 6.326,4.069 8.64,7.172c2.314,3.103 4.063,6.86 5.245,11.272c1.183,4.413 1.774,9.353 1.774,14.82c0,5.468 -0.591,10.395 -1.774,14.782c-1.182,4.387 -2.931,8.119 -5.245,11.196c-2.314,3.078 -5.194,5.443 -8.64,7.096c-3.446,1.653 -7.42,2.479 -11.921,2.479Zm-0,-14.305c1.958,0 3.91,-0.311 5.856,-0.934c1.945,-0.623 3.693,-1.73 5.245,-3.319c1.551,-1.59 2.81,-3.758 3.776,-6.504c0.967,-2.747 1.45,-6.244 1.45,-10.491c-0,-2.848 -0.223,-5.353 -0.668,-7.515c-0.445,-2.161 -1.061,-4.03 -1.85,-5.607c-0.788,-1.577 -1.71,-2.899 -2.766,-3.967c-1.055,-1.069 -2.187,-1.92 -3.395,-2.556c-1.208,-0.636 -2.466,-1.087 -3.776,-1.354c-1.31,-0.268 -2.6,-0.401 -3.872,-0.401c-1.297,-0 -2.607,0.133 -3.929,0.401c-1.323,0.267 -2.588,0.718 -3.796,1.354c-1.208,0.636 -2.333,1.487 -3.376,2.556c-1.043,1.068 -1.952,2.39 -2.727,3.967c-0.776,1.577 -1.386,3.446 -1.831,5.607c-0.445,2.162 -0.668,4.667 -0.668,7.515c0,4.247 0.483,7.744 1.45,10.491c0.966,2.746 2.225,4.914 3.776,6.504c1.551,1.589 3.3,2.696 5.245,3.319c1.946,0.623 3.898,0.934 5.856,0.934Z" style="fill:#ee4d6f;fill-rule:nonzero;"/>
    <path d="M89.133,390.996l52.414,-0l0,14.152l-40.932,0l0,38.262l-11.482,-0l0,-52.414Z" style="fill:#ee4d6f;fill-rule:nonzero;"/>
    <path d="M106.795,518.958c-2.619,-0 -5.086,-0.649 -7.4,-1.946c-2.315,-1.297 -4.336,-3.242 -6.066,-5.836c-1.729,-2.594 -3.096,-5.831 -4.101,-9.709c-1.004,-3.878 -1.506,-8.411 -1.506,-13.599c-0,-5.188 0.502,-9.734 1.506,-13.638c1.005,-3.903 2.372,-7.152 4.101,-9.746c1.73,-2.594 3.751,-4.54 6.066,-5.837c2.314,-1.297 4.781,-1.945 7.4,-1.945l34.752,-0l0,14.114l-29.678,0c-1.755,0 -3.414,0.223 -4.978,0.668c-1.564,0.445 -2.931,1.284 -4.101,2.517c-1.17,1.234 -2.098,2.963 -2.785,5.188c-0.687,2.226 -1.03,5.118 -1.03,8.679c0,3.535 0.343,6.408 1.03,8.621c0.687,2.213 1.615,3.935 2.785,5.169c1.17,1.233 2.537,2.066 4.101,2.499c1.564,0.432 3.223,0.648 4.978,0.648l29.678,0l0,14.153l-34.752,-0Z" style="fill:#ee4d6f;fill-rule:nonzero;"/>
    <path d="M130.141,566.696l-41.008,0l0,-14.152l41.008,-0l0,-22.24l11.406,-0l0,58.67l-11.406,0l0,-22.278Z" style="fill:#ee4d6f;fill-rule:nonzero;"/>
    <path d="M89.133,600.664l52.414,-0l0,14.152l-52.414,0l0,-14.152Z" style="fill:#ee4d6f;fill-rule:nonzero;"/>
    <path d="M115.302,701.389c-4.501,-0 -8.475,-0.827 -11.921,-2.48c-3.446,-1.653 -6.326,-4.018 -8.64,-7.095c-2.315,-3.078 -4.063,-6.81 -5.245,-11.196c-1.183,-4.387 -1.774,-9.315 -1.774,-14.782c-0,-5.468 0.591,-10.408 1.774,-14.821c1.182,-4.412 2.93,-8.169 5.245,-11.272c2.314,-3.103 5.194,-5.493 8.64,-7.172c3.446,-1.678 7.42,-2.517 11.921,-2.517c4.501,-0 8.475,0.839 11.921,2.517c3.446,1.679 6.326,4.069 8.64,7.172c2.314,3.103 4.063,6.86 5.245,11.272c1.183,4.413 1.774,9.353 1.774,14.821c0,5.467 -0.591,10.395 -1.774,14.782c-1.182,4.386 -2.931,8.118 -5.245,11.196c-2.314,3.077 -5.194,5.442 -8.64,7.095c-3.446,1.653 -7.42,2.48 -11.921,2.48Zm-0,-14.306c1.958,0 3.91,-0.311 5.856,-0.934c1.945,-0.623 3.693,-1.729 5.245,-3.319c1.551,-1.589 2.81,-3.757 3.776,-6.504c0.967,-2.747 1.45,-6.243 1.45,-10.49c-0,-2.849 -0.223,-5.354 -0.668,-7.515c-0.445,-2.162 -1.061,-4.031 -1.85,-5.608c-0.788,-1.577 -1.71,-2.899 -2.766,-3.967c-1.055,-1.068 -2.187,-1.92 -3.395,-2.556c-1.208,-0.636 -2.466,-1.087 -3.776,-1.354c-1.31,-0.267 -2.6,-0.401 -3.872,-0.401c-1.297,0 -2.607,0.134 -3.929,0.401c-1.323,0.267 -2.588,0.718 -3.796,1.354c-1.208,0.636 -2.333,1.488 -3.376,2.556c-1.043,1.068 -1.952,2.39 -2.727,3.967c-0.776,1.577 -1.386,3.446 -1.831,5.608c-0.445,2.161 -0.668,4.666 -0.668,7.515c0,4.247 0.483,7.743 1.45,10.49c0.966,2.747 2.225,4.915 3.776,6.504c1.551,1.59 3.3,2.696 5.245,3.319c1.946,0.623 3.898,0.934 5.856,0.934Z" style="fill:#ee4d6f;fill-rule:nonzero;"/>
    <path d="M89.133,766.141l36.011,-35.362l-36.011,-0l0,-14.153l52.414,0l0,15.373l-36.163,35.401l36.163,-0l0,14.076l-52.414,-0l0,-15.335Z" style="fill:#ee4d6f;fill-rule:nonzero;"/>
    <path d="M130.37,849.264l-9.117,-0l-0,34.065l-11.177,0l-0,-34.065l-20.943,-0l0,-14.153l52.414,0l0,50.087l-11.177,0l0,-35.934Z" style="fill:#ee4d6f;fill-rule:nonzero;"/>
    <path d="M115.302,967.46c-4.501,0 -8.475,-0.826 -11.921,-2.48c-3.446,-1.653 -6.326,-4.018 -8.64,-7.095c-2.315,-3.077 -4.063,-6.809 -5.245,-11.196c-1.183,-4.387 -1.774,-9.314 -1.774,-14.782c-0,-5.468 0.591,-10.408 1.774,-14.82c1.182,-4.412 2.93,-8.17 5.245,-11.272c2.314,-3.103 5.194,-5.494 8.64,-7.172c3.446,-1.679 7.42,-2.518 11.921,-2.518c4.501,0 8.475,0.839 11.921,2.518c3.446,1.678 6.326,4.069 8.64,7.172c2.314,3.102 4.063,6.86 5.245,11.272c1.183,4.412 1.774,9.352 1.774,14.82c0,5.468 -0.591,10.395 -1.774,14.782c-1.182,4.387 -2.931,8.119 -5.245,11.196c-2.314,3.077 -5.194,5.442 -8.64,7.095c-3.446,1.654 -7.42,2.48 -11.921,2.48Zm-0,-14.305c1.958,-0 3.91,-0.312 5.856,-0.935c1.945,-0.623 3.693,-1.729 5.245,-3.318c1.551,-1.59 2.81,-3.758 3.776,-6.505c0.967,-2.746 1.45,-6.243 1.45,-10.49c-0,-2.848 -0.223,-5.353 -0.668,-7.515c-0.445,-2.162 -1.061,-4.031 -1.85,-5.607c-0.788,-1.577 -1.71,-2.9 -2.766,-3.968c-1.055,-1.068 -2.187,-1.92 -3.395,-2.556c-1.208,-0.635 -2.466,-1.087 -3.776,-1.354c-1.31,-0.267 -2.6,-0.4 -3.872,-0.4c-1.297,-0 -2.607,0.133 -3.929,0.4c-1.323,0.267 -2.588,0.719 -3.796,1.354c-1.208,0.636 -2.333,1.488 -3.376,2.556c-1.043,1.068 -1.952,2.391 -2.727,3.968c-0.776,1.576 -1.386,3.445 -1.831,5.607c-0.445,2.162 -0.668,4.667 -0.668,7.515c0,4.247 0.483,7.744 1.45,10.49c0.966,2.747 2.225,4.915 3.776,6.505c1.551,1.589 3.3,2.695 5.245,3.318c1.946,0.623 3.898,0.935 5.856,0.935Z" style="fill:#ee4d6f;fill-rule:nonzero;"/>
    <path d="M89.133,996.85l0,-14.153l52.414,0l0,35.477c0,3.815 -0.394,7.051 -1.182,9.709c-0.789,2.657 -1.908,4.819 -3.357,6.485c-1.45,1.665 -3.198,2.873 -5.246,3.624c-2.047,0.75 -4.329,1.125 -6.847,1.125c-2.213,-0 -4.145,-0.312 -5.798,-0.935c-1.653,-0.623 -3.071,-1.462 -4.254,-2.517c-1.182,-1.056 -2.18,-2.283 -2.994,-3.682c-0.814,-1.398 -1.488,-2.873 -2.022,-4.425l-20.714,17.166l0,-16.555l19.302,-15.869l0,-15.45l-19.302,0Zm35.858,27.962c1.018,-0 1.882,-0.134 2.594,-0.401c0.712,-0.267 1.291,-0.731 1.736,-1.392c0.445,-0.661 0.769,-1.545 0.973,-2.651c0.203,-1.107 0.305,-2.486 0.305,-4.139l-0,-19.379l-11.215,0l-0,19.379c-0,1.653 0.101,3.032 0.305,4.139c0.203,1.106 0.528,1.99 0.973,2.651c0.445,0.661 1.023,1.125 1.735,1.392c0.712,0.267 1.577,0.401 2.594,0.401Z" style="fill:#ee4d6f;fill-rule:nonzero;"/>
    <path d="M110.534,1124.99l-21.401,-0l0,-14.115l21.401,0l31.013,-25.406l0,15.869l-21.095,16.633l21.095,16.555l0,15.869l-31.013,-25.405Z" style="fill:#ee4d6f;fill-rule:nonzero;"/>
    <path d="M115.302,1228.8c-4.501,0 -8.475,-0.826 -11.921,-2.479c-3.446,-1.653 -6.326,-4.018 -8.64,-7.096c-2.315,-3.077 -4.063,-6.809 -5.245,-11.196c-1.183,-4.387 -1.774,-9.314 -1.774,-14.782c-0,-5.467 0.591,-10.407 1.774,-14.82c1.182,-4.412 2.93,-8.17 5.245,-11.272c2.314,-3.103 5.194,-5.493 8.64,-7.172c3.446,-1.678 7.42,-2.518 11.921,-2.518c4.501,0 8.475,0.84 11.921,2.518c3.446,1.679 6.326,4.069 8.64,7.172c2.314,3.102 4.063,6.86 5.245,11.272c1.183,4.413 1.774,9.353 1.774,14.82c0,5.468 -0.591,10.395 -1.774,14.782c-1.182,4.387 -2.931,8.119 -5.245,11.196c-2.314,3.078 -5.194,5.443 -8.64,7.096c-3.446,1.653 -7.42,2.479 -11.921,2.479Zm-0,-14.305c1.958,0 3.91,-0.311 5.856,-0.934c1.945,-0.623 3.693,-1.73 5.245,-3.319c1.551,-1.59 2.81,-3.758 3.776,-6.504c0.967,-2.747 1.45,-6.244 1.45,-10.491c-0,-2.848 -0.223,-5.353 -0.668,-7.515c-0.445,-2.161 -1.061,-4.03 -1.85,-5.607c-0.788,-1.577 -1.71,-2.899 -2.766,-3.968c-1.055,-1.068 -2.187,-1.92 -3.395,-2.555c-1.208,-0.636 -2.466,-1.088 -3.776,-1.355c-1.31,-0.267 -2.6,-0.4 -3.872,-0.4c-1.297,-0 -2.607,0.133 -3.929,0.4c-1.323,0.267 -2.588,0.719 -3.796,1.355c-1.208,0.635 -2.333,1.487 -3.376,2.555c-1.043,1.069 -1.952,2.391 -2.727,3.968c-0.776,1.577 -1.386,3.446 -1.831,5.607c-0.445,2.162 -0.668,4.667 -0.668,7.515c0,4.247 0.483,7.744 1.45,10.491c0.966,2.746 2.225,4.914 3.776,6.504c1.551,1.589 3.3,2.696 5.245,3.319c1.946,0.623 3.898,0.934 5.856,0.934Z" style="fill:#ee4d6f;fill-rule:nonzero;"/>
    <path d="M106.795,1305.91c-2.619,0 -5.086,-0.648 -7.4,-1.945c-2.315,-1.297 -4.336,-3.243 -6.066,-5.837c-1.729,-2.594 -3.096,-5.83 -4.101,-9.708c-1.004,-3.879 -1.506,-8.412 -1.506,-13.6c-0,-5.188 0.502,-9.734 1.506,-13.637c1.005,-3.904 2.372,-7.153 4.101,-9.747c1.73,-2.594 3.751,-4.539 6.066,-5.836c2.314,-1.297 4.781,-1.946 7.4,-1.946l34.752,0l0,14.115l-29.678,-0c-1.755,-0 -3.414,0.222 -4.978,0.667c-1.564,0.445 -2.931,1.284 -4.101,2.518c-1.17,1.233 -2.098,2.963 -2.785,5.188c-0.687,2.225 -1.03,5.118 -1.03,8.678c0,3.535 0.343,6.409 1.03,8.622c0.687,2.212 1.615,3.935 2.785,5.168c1.17,1.234 2.537,2.067 4.101,2.499c1.564,0.432 3.223,0.649 4.978,0.649l29.678,-0l0,14.152l-34.752,0Z" style="fill:#ee4d6f;fill-rule:nonzero;"/>
    <path d="M89.133,1338.43l0,-14.152l52.414,-0l0,35.476c0,3.815 -0.394,7.051 -1.182,9.709c-0.789,2.657 -1.908,4.819 -3.357,6.485c-1.45,1.665 -3.198,2.873 -5.246,3.624c-2.047,0.75 -4.329,1.125 -6.847,1.125c-2.213,-0 -4.145,-0.312 -5.798,-0.935c-1.653,-0.623 -3.071,-1.462 -4.254,-2.517c-1.182,-1.056 -2.18,-2.283 -2.994,-3.682c-0.814,-1.398 -1.488,-2.873 -2.022,-4.425l-20.714,17.167l0,-16.556l19.302,-15.869l0,-15.45l-19.302,0Zm35.858,27.962c1.018,-0 1.882,-0.134 2.594,-0.401c0.712,-0.267 1.291,-0.731 1.736,-1.392c0.445,-0.661 0.769,-1.545 0.973,-2.651c0.203,-1.107 0.305,-2.486 0.305,-4.139l-0,-19.379l-11.215,0l-0,19.379c-0,1.653 0.101,3.032 0.305,4.139c0.203,1.106 0.528,1.99 0.973,2.651c0.445,0.661 1.023,1.125 1.735,1.392c0.712,0.267 1.577,0.401 2.594,0.401Z" style="fill:#ee4d6f;fill-rule:nonzero;"/>
    <path d="M149.331,1473.55c-0,2.62 -0.382,5.029 -1.145,7.229c-0.763,2.2 -1.99,4.095 -3.681,5.684c-1.691,1.59 -3.885,2.829 -6.58,3.72c-2.696,0.89 -5.977,1.335 -9.842,1.335l-23.499,-0l0,16.555l-14.152,0l-0,-52.414l37.651,0c3.865,0 7.146,0.439 9.842,1.317c2.695,0.877 4.889,2.11 6.58,3.7c1.691,1.589 2.918,3.478 3.681,5.665c0.763,2.187 1.145,4.59 1.145,7.209Zm-14.306,0.229c0,-1.22 -0.171,-2.269 -0.515,-3.147c-0.343,-0.877 -0.909,-1.596 -1.697,-2.155c-0.788,-0.56 -1.818,-0.973 -3.09,-1.24c-1.272,-0.267 -2.836,-0.4 -4.692,-0.4l-20.447,-0l0,13.504l20.447,-0c1.856,-0 3.42,-0.108 4.692,-0.325c1.272,-0.216 2.302,-0.585 3.09,-1.106c0.788,-0.521 1.354,-1.202 1.697,-2.041c0.344,-0.839 0.515,-1.869 0.515,-3.09Z" style="fill:#ee4d6f;fill-rule:nonzero;"/>
    <path d="M202.829,1498.15l-29.22,0l-4.921,9.918l-15.793,0l27.428,-52.414l15.792,0l27.428,52.414l-15.793,0l-4.921,-9.918Zm-24.147,-10.223l19.15,-0l-9.537,-19.303l-9.613,19.303Z" style="fill:#ee4d6f;fill-rule:nonzero;"/>
    <path d="M291.462,1504.49c-1.831,0.763 -3.675,1.449 -5.532,2.06c-1.856,0.61 -3.776,1.138 -5.76,1.583c-1.984,0.445 -4.075,0.782 -6.275,1.011c-2.2,0.228 -4.559,0.343 -7.076,0.343c-5.341,-0 -10.256,-0.572 -14.744,-1.717c-4.489,-1.144 -8.354,-2.867 -11.597,-5.169c-3.242,-2.301 -5.766,-5.175 -7.572,-8.621c-1.806,-3.446 -2.708,-7.47 -2.708,-12.073c-0,-4.603 0.902,-8.628 2.708,-12.074c1.806,-3.446 4.33,-6.32 7.572,-8.621c3.243,-2.302 7.108,-4.025 11.597,-5.169c4.488,-1.144 9.403,-1.717 14.744,-1.717c2.517,0 4.876,0.115 7.076,0.344c2.2,0.229 4.291,0.566 6.275,1.011c1.984,0.445 3.904,0.972 5.76,1.583c1.857,0.61 3.701,1.297 5.532,2.06l-0,12.741c-1.45,-0.789 -2.976,-1.571 -4.578,-2.346c-1.602,-0.776 -3.37,-1.475 -5.302,-2.098c-1.933,-0.623 -4.057,-1.132 -6.371,-1.526c-2.314,-0.394 -4.921,-0.592 -7.82,-0.592c-4.451,0 -8.145,0.458 -11.082,1.374c-2.937,0.915 -5.283,2.136 -7.038,3.662c-1.755,1.526 -2.988,3.274 -3.7,5.245c-0.712,1.971 -1.068,4.012 -1.068,6.123c-0,1.398 0.152,2.778 0.457,4.139c0.306,1.36 0.814,2.644 1.526,3.852c0.712,1.208 1.641,2.321 2.785,3.338c1.144,1.018 2.569,1.895 4.272,2.632c1.704,0.738 3.694,1.316 5.97,1.736c2.277,0.42 4.902,0.63 7.878,0.63c2.899,-0 5.506,-0.185 7.82,-0.554c2.314,-0.368 4.438,-0.858 6.371,-1.468c1.932,-0.611 3.7,-1.304 5.302,-2.079c1.602,-0.776 3.128,-1.571 4.578,-2.384l-0,12.741Z" style="fill:#ee4d6f;fill-rule:nonzero;"/>
    <path d="M321.233,1475.65l28.992,-19.99l18.959,0l-35.286,25.139l37.651,27.275l-20.638,0l-29.678,-21.781l-0,21.781l-14.229,0l0,-52.414l14.229,0l-0,19.99Z" style="fill:#ee4d6f;fill-rule:nonzero;"/>
    <rect x="382.094" y="1455.66" width="14.153" height="52.414" style="fill:#ee4d6f;fill-rule:nonzero;"/>
    <path d="M464.508,1508.07l-35.362,-36.01l0,36.01l-14.152,0l-0,-52.414l15.373,0l35.4,36.164l0,-36.164l14.077,0l-0,52.414l-15.336,0Z" style="fill:#ee4d6f;fill-rule:nonzero;"/>
    <path d="M532.351,1454.32c5.137,0 9.911,0.439 14.324,1.316c4.412,0.878 8.462,2.003 12.15,3.376l-0,12.818c-1.45,-0.814 -3.084,-1.602 -4.902,-2.365c-1.819,-0.763 -3.796,-1.437 -5.932,-2.022c-2.136,-0.585 -4.425,-1.055 -6.867,-1.412c-2.441,-0.356 -5.01,-0.534 -7.705,-0.534c-3.357,0 -6.282,0.242 -8.774,0.725c-2.492,0.483 -4.629,1.132 -6.409,1.946c-1.78,0.814 -3.242,1.761 -4.387,2.842c-1.144,1.08 -2.047,2.231 -2.708,3.452c-0.661,1.221 -1.119,2.467 -1.373,3.738c-0.255,1.272 -0.382,2.505 -0.382,3.701c0,1.042 0.108,2.174 0.324,3.395c0.216,1.22 0.623,2.441 1.221,3.662c0.598,1.221 1.431,2.39 2.499,3.509c1.068,1.119 2.46,2.111 4.177,2.976c1.716,0.864 3.783,1.557 6.199,2.079c2.416,0.521 5.289,0.782 8.621,0.782c1.678,-0 3.141,-0.051 4.387,-0.153c1.246,-0.102 2.384,-0.241 3.414,-0.419c1.03,-0.178 1.996,-0.395 2.899,-0.649c0.903,-0.254 1.837,-0.521 2.804,-0.801l-0,-6.332l-15.869,-0l-0,-11.483l30.021,0l0,26.78c-1.882,0.635 -3.986,1.214 -6.313,1.735c-2.327,0.522 -4.73,0.967 -7.21,1.335c-2.479,0.369 -4.965,0.655 -7.457,0.859c-2.493,0.203 -4.845,0.305 -7.058,0.305c-3.433,-0 -6.726,-0.229 -9.88,-0.687c-3.153,-0.458 -6.097,-1.163 -8.831,-2.117c-2.734,-0.954 -5.226,-2.168 -7.477,-3.643c-2.25,-1.475 -4.17,-3.23 -5.76,-5.264c-1.589,-2.035 -2.823,-4.368 -3.7,-7c-0.877,-2.632 -1.316,-5.589 -1.316,-8.869c-0,-3.256 0.458,-6.206 1.373,-8.85c0.916,-2.645 2.194,-4.985 3.834,-7.02c1.64,-2.034 3.611,-3.789 5.913,-5.264c2.301,-1.475 4.832,-2.689 7.591,-3.643c2.759,-0.954 5.709,-1.659 8.85,-2.117c3.141,-0.458 6.377,-0.687 9.709,-0.687Z" style="fill:#ee4d6f;fill-rule:nonzero;"/>
    <path d="M646.296,1454.32c5.138,0 9.912,0.439 14.325,1.316c4.412,0.878 8.462,2.003 12.149,3.376l0,12.818c-1.449,-0.814 -3.083,-1.602 -4.901,-2.365c-1.819,-0.763 -3.796,-1.437 -5.932,-2.022c-2.137,-0.585 -4.425,-1.055 -6.867,-1.412c-2.441,-0.356 -5.01,-0.534 -7.705,-0.534c-3.357,0 -6.282,0.242 -8.774,0.725c-2.492,0.483 -4.629,1.132 -6.409,1.946c-1.78,0.814 -3.242,1.761 -4.387,2.842c-1.144,1.08 -2.047,2.231 -2.708,3.452c-0.661,1.221 -1.119,2.467 -1.374,3.738c-0.254,1.272 -0.381,2.505 -0.381,3.701c-0,1.042 0.108,2.174 0.324,3.395c0.216,1.22 0.623,2.441 1.221,3.662c0.598,1.221 1.43,2.39 2.499,3.509c1.068,1.119 2.46,2.111 4.177,2.976c1.716,0.864 3.783,1.557 6.199,2.079c2.416,0.521 5.289,0.782 8.621,0.782c1.678,-0 3.141,-0.051 4.387,-0.153c1.246,-0.102 2.384,-0.241 3.414,-0.419c1.03,-0.178 1.996,-0.395 2.899,-0.649c0.903,-0.254 1.837,-0.521 2.804,-0.801l-0,-6.332l-15.869,-0l-0,-11.483l30.021,0l0,26.78c-1.882,0.635 -3.986,1.214 -6.313,1.735c-2.327,0.522 -4.73,0.967 -7.21,1.335c-2.479,0.369 -4.965,0.655 -7.458,0.859c-2.492,0.203 -4.844,0.305 -7.057,0.305c-3.433,-0 -6.726,-0.229 -9.88,-0.687c-3.153,-0.458 -6.097,-1.163 -8.831,-2.117c-2.734,-0.954 -5.226,-2.168 -7.477,-3.643c-2.25,-1.475 -4.17,-3.23 -5.76,-5.264c-1.589,-2.035 -2.823,-4.368 -3.7,-7c-0.877,-2.632 -1.316,-5.589 -1.316,-8.869c-0,-3.256 0.458,-6.206 1.373,-8.85c0.916,-2.645 2.194,-4.985 3.834,-7.02c1.64,-2.034 3.611,-3.789 5.913,-5.264c2.301,-1.475 4.832,-2.689 7.591,-3.643c2.759,-0.954 5.709,-1.659 8.85,-2.117c3.141,-0.458 6.377,-0.687 9.708,-0.687Z" style="fill:#ee4d6f;fill-rule:nonzero;"/>
    <path d="M759.419,1481.9c0,4.501 -0.826,8.475 -2.48,11.921c-1.653,3.445 -4.018,6.326 -7.095,8.64c-3.077,2.314 -6.809,4.062 -11.196,5.245c-4.387,1.183 -9.314,1.774 -14.782,1.774c-5.468,-0 -10.408,-0.591 -14.82,-1.774c-4.412,-1.183 -8.17,-2.931 -11.272,-5.245c-3.103,-2.314 -5.494,-5.195 -7.172,-8.64c-1.679,-3.446 -2.518,-7.42 -2.518,-11.921c0,-4.502 0.839,-8.475 2.518,-11.921c1.678,-3.446 4.069,-6.326 7.172,-8.641c3.102,-2.314 6.86,-4.062 11.272,-5.245c4.412,-1.182 9.352,-1.774 14.82,-1.774c5.468,0 10.395,0.592 14.782,1.774c4.387,1.183 8.119,2.931 11.196,5.245c3.077,2.315 5.442,5.195 7.095,8.641c1.654,3.446 2.48,7.419 2.48,11.921Zm-14.305,-0c-0,-1.959 -0.312,-3.91 -0.935,-5.856c-0.623,-1.945 -1.729,-3.694 -3.318,-5.245c-1.59,-1.551 -3.758,-2.81 -6.505,-3.777c-2.746,-0.966 -6.243,-1.449 -10.49,-1.449c-2.848,-0 -5.353,0.222 -7.515,0.667c-2.162,0.445 -4.031,1.062 -5.608,1.85c-1.576,0.789 -2.899,1.711 -3.967,2.766c-1.068,1.055 -1.92,2.187 -2.556,3.395c-0.635,1.208 -1.087,2.467 -1.354,3.777c-0.267,1.309 -0.4,2.6 -0.4,3.872c-0,1.297 0.133,2.606 0.4,3.929c0.267,1.322 0.719,2.587 1.354,3.795c0.636,1.208 1.488,2.334 2.556,3.376c1.068,1.043 2.391,1.952 3.967,2.728c1.577,0.776 3.446,1.386 5.608,1.831c2.162,0.445 4.667,0.668 7.515,0.668c4.247,-0 7.744,-0.484 10.49,-1.45c2.747,-0.966 4.915,-2.225 6.505,-3.777c1.589,-1.551 2.695,-3.299 3.318,-5.245c0.623,-1.945 0.935,-3.897 0.935,-5.855Z" style="fill:#ee4d6f;fill-rule:nonzero;"/>
    <path d="M842.482,1481.9c-0,4.501 -0.827,8.475 -2.48,11.921c-1.653,3.445 -4.018,6.326 -7.095,8.64c-3.077,2.314 -6.809,4.062 -11.196,5.245c-4.387,1.183 -9.314,1.774 -14.782,1.774c-5.468,-0 -10.408,-0.591 -14.82,-1.774c-4.413,-1.183 -8.17,-2.931 -11.273,-5.245c-3.102,-2.314 -5.493,-5.195 -7.171,-8.64c-1.679,-3.446 -2.518,-7.42 -2.518,-11.921c-0,-4.502 0.839,-8.475 2.518,-11.921c1.678,-3.446 4.069,-6.326 7.171,-8.641c3.103,-2.314 6.86,-4.062 11.273,-5.245c4.412,-1.182 9.352,-1.774 14.82,-1.774c5.468,0 10.395,0.592 14.782,1.774c4.387,1.183 8.119,2.931 11.196,5.245c3.077,2.315 5.442,5.195 7.095,8.641c1.653,3.446 2.48,7.419 2.48,11.921Zm-14.305,-0c-0,-1.959 -0.312,-3.91 -0.935,-5.856c-0.623,-1.945 -1.729,-3.694 -3.319,-5.245c-1.589,-1.551 -3.757,-2.81 -6.504,-3.777c-2.746,-0.966 -6.243,-1.449 -10.49,-1.449c-2.849,-0 -5.354,0.222 -7.515,0.667c-2.162,0.445 -4.031,1.062 -5.608,1.85c-1.577,0.789 -2.899,1.711 -3.967,2.766c-1.068,1.055 -1.92,2.187 -2.556,3.395c-0.636,1.208 -1.087,2.467 -1.354,3.777c-0.267,1.309 -0.401,2.6 -0.401,3.872c0,1.297 0.134,2.606 0.401,3.929c0.267,1.322 0.718,2.587 1.354,3.795c0.636,1.208 1.488,2.334 2.556,3.376c1.068,1.043 2.39,1.952 3.967,2.728c1.577,0.776 3.446,1.386 5.608,1.831c2.161,0.445 4.666,0.668 7.515,0.668c4.247,-0 7.744,-0.484 10.49,-1.45c2.747,-0.966 4.915,-2.225 6.504,-3.777c1.59,-1.551 2.696,-3.299 3.319,-5.245c0.623,-1.945 0.935,-3.897 0.935,-5.855Z" style="fill:#ee4d6f;fill-rule:nonzero;"/>
    <path d="M921.921,1481.83c-0,3.357 -0.369,6.339 -1.107,8.946c-0.737,2.606 -1.774,4.876 -3.109,6.809c-1.335,1.933 -2.937,3.573 -4.806,4.921c-1.869,1.348 -3.948,2.429 -6.237,3.242c-2.289,0.814 -4.756,1.406 -7.401,1.774c-2.645,0.369 -5.404,0.553 -8.278,0.553l-33.264,0l0,-52.414l33.188,0c2.874,0 5.633,0.185 8.278,0.554c2.645,0.368 5.118,0.96 7.42,1.773c2.301,0.814 4.393,1.889 6.275,3.224c1.882,1.335 3.49,2.975 4.825,4.921c1.335,1.945 2.372,4.215 3.109,6.809c0.738,2.594 1.107,5.557 1.107,8.888Zm-14.267,0c-0,-2.517 -0.325,-4.704 -0.973,-6.561c-0.649,-1.856 -1.691,-3.389 -3.128,-4.597c-1.437,-1.208 -3.313,-2.11 -5.627,-2.708c-2.314,-0.598 -5.137,-0.897 -8.469,-0.897l-17.585,0l-0,29.602l17.585,0c3.332,0 6.155,-0.298 8.469,-0.896c2.314,-0.598 4.19,-1.513 5.627,-2.747c1.437,-1.233 2.479,-2.778 3.128,-4.634c0.648,-1.857 0.973,-4.044 0.973,-6.562Z" style="fill:#ee4d6f;fill-rule:nonzero;"/>
    <path d="M985.452,1470.42c-0.992,-0.483 -2.301,-1.03 -3.929,-1.64c-1.628,-0.61 -3.471,-1.189 -5.531,-1.736c-2.06,-0.546 -4.298,-1.004 -6.714,-1.373c-2.416,-0.369 -4.896,-0.553 -7.439,-0.553c-2.034,-0 -3.77,0.064 -5.207,0.191c-1.437,0.127 -2.645,0.292 -3.624,0.496c-0.979,0.203 -1.755,0.438 -2.327,0.705c-0.572,0.267 -1.011,0.541 -1.316,0.82c-0.305,0.28 -0.502,0.56 -0.591,0.84c-0.089,0.279 -0.134,0.534 -0.134,0.763c0,0.763 0.382,1.43 1.145,2.002c0.763,0.573 1.805,1.081 3.128,1.526c1.322,0.445 2.861,0.865 4.615,1.259c1.755,0.394 3.618,0.801 5.589,1.221c1.971,0.419 4.005,0.877 6.104,1.373c2.098,0.496 4.132,1.075 6.103,1.736c1.971,0.661 3.834,1.43 5.589,2.308c1.754,0.877 3.293,1.901 4.615,3.07c1.323,1.17 2.365,2.518 3.128,4.044c0.763,1.526 1.145,3.268 1.145,5.226c-0,2.518 -0.445,4.68 -1.335,6.485c-0.89,1.806 -2.079,3.332 -3.567,4.578c-1.488,1.246 -3.211,2.244 -5.169,2.994c-1.958,0.751 -4.012,1.329 -6.161,1.736c-2.149,0.407 -4.323,0.674 -6.523,0.801c-2.2,0.127 -4.291,0.191 -6.275,0.191c-5.188,-0 -9.988,-0.426 -14.401,-1.278c-4.412,-0.852 -8.309,-1.914 -11.692,-3.185l0,-12.513c3.485,1.933 7.458,3.446 11.921,4.54c4.464,1.094 9.238,1.64 14.325,1.64c3,0 5.448,-0.159 7.343,-0.477c1.894,-0.317 3.376,-0.724 4.444,-1.22c1.068,-0.496 1.793,-1.037 2.174,-1.622c0.382,-0.584 0.573,-1.144 0.573,-1.678c-0,-0.839 -0.382,-1.57 -1.145,-2.193c-0.763,-0.623 -1.805,-1.17 -3.128,-1.641c-1.322,-0.47 -2.861,-0.903 -4.616,-1.297c-1.754,-0.394 -3.617,-0.788 -5.588,-1.182c-1.971,-0.394 -3.999,-0.82 -6.085,-1.278c-2.085,-0.458 -4.113,-0.998 -6.084,-1.621c-1.971,-0.624 -3.834,-1.348 -5.589,-2.175c-1.754,-0.826 -3.293,-1.805 -4.615,-2.937c-1.323,-1.132 -2.366,-2.442 -3.128,-3.929c-0.763,-1.488 -1.145,-3.211 -1.145,-5.169c0,-2.314 0.407,-4.311 1.221,-5.989c0.814,-1.679 1.914,-3.109 3.3,-4.292c1.386,-1.182 2.988,-2.142 4.806,-2.88c1.818,-0.737 3.732,-1.31 5.741,-1.717c2.009,-0.406 4.044,-0.686 6.104,-0.839c2.06,-0.152 4.018,-0.229 5.874,-0.229c2.035,0 4.127,0.102 6.275,0.306c2.149,0.203 4.267,0.489 6.352,0.858c2.085,0.369 4.101,0.795 6.046,1.278c1.946,0.483 3.745,0.992 5.398,1.526l0,12.13Z" style="fill:#ee4d6f;fill-rule:nonzero;"/>
    <rect x="1038.48" y="1448.37" width="10.948" height="78.125" style="fill:#ee4d6f;fill-rule:nonzero;"/>
    <path d="M1184.65,1467.07l-0,41.008l-14.153,0l-0,-41.008l-22.24,0l0,-11.406l58.67,0l0,11.406l-22.277,0Z" style="fill:#ee4d6f;fill-rule:nonzero;"/>
    <path d="M1232.77,1508.07l-14.153,0l0,-52.414l35.477,0c3.814,0 7.051,0.395 9.708,1.183c2.658,0.788 4.819,1.907 6.485,3.357c1.666,1.45 2.874,3.198 3.624,5.245c0.75,2.047 1.125,4.33 1.125,6.848c0,2.212 -0.311,4.145 -0.934,5.798c-0.623,1.653 -1.462,3.071 -2.518,4.253c-1.055,1.183 -2.282,2.181 -3.681,2.995c-1.399,0.814 -2.874,1.488 -4.425,2.022l17.166,20.713l-16.556,0l-15.869,-19.302l-15.449,0l-0,19.302Zm27.961,-35.858c0,-1.017 -0.133,-1.882 -0.4,-2.594c-0.267,-0.712 -0.731,-1.29 -1.393,-1.735c-0.661,-0.445 -1.544,-0.77 -2.651,-0.973c-1.106,-0.204 -2.486,-0.305 -4.139,-0.305l-19.378,-0l-0,11.215l19.378,-0c1.653,-0 3.033,-0.102 4.139,-0.305c1.107,-0.204 1.99,-0.528 2.651,-0.973c0.662,-0.445 1.126,-1.024 1.393,-1.736c0.267,-0.712 0.4,-1.576 0.4,-2.594Z" style="fill:#ee4d6f;fill-rule:nonzero;"/>
    <path d="M1354.44,1490.41c0,2.62 -0.648,5.087 -1.945,7.401c-1.297,2.314 -3.243,4.336 -5.837,6.065c-2.594,1.73 -5.83,3.097 -9.708,4.101c-3.879,1.005 -8.412,1.507 -13.6,1.507c-5.188,-0 -9.734,-0.502 -13.637,-1.507c-3.904,-1.004 -7.153,-2.371 -9.747,-4.101c-2.594,-1.729 -4.539,-3.751 -5.836,-6.065c-1.297,-2.314 -1.946,-4.781 -1.946,-7.401l0,-34.752l14.115,0l-0,29.679c-0,1.755 0.222,3.414 0.667,4.978c0.445,1.564 1.284,2.931 2.518,4.101c1.233,1.17 2.963,2.098 5.188,2.785c2.225,0.686 5.118,1.03 8.678,1.03c3.535,-0 6.409,-0.344 8.622,-1.03c2.212,-0.687 3.935,-1.615 5.168,-2.785c1.234,-1.17 2.067,-2.537 2.499,-4.101c0.432,-1.564 0.649,-3.223 0.649,-4.978l-0,-29.679l14.152,0l0,34.752Z" style="fill:#ee4d6f;fill-rule:nonzero;"/>
    <path d="M1421.1,1470.42c-0.992,-0.483 -2.302,-1.03 -3.929,-1.64c-1.628,-0.61 -3.472,-1.189 -5.532,-1.736c-2.06,-0.546 -4.298,-1.004 -6.714,-1.373c-2.416,-0.369 -4.895,-0.553 -7.438,-0.553c-2.035,-0 -3.771,0.064 -5.207,0.191c-1.437,0.127 -2.645,0.292 -3.624,0.496c-0.979,0.203 -1.755,0.438 -2.327,0.705c-0.573,0.267 -1.011,0.541 -1.316,0.82c-0.306,0.28 -0.503,0.56 -0.592,0.84c-0.089,0.279 -0.133,0.534 -0.133,0.763c-0,0.763 0.381,1.43 1.144,2.002c0.763,0.573 1.806,1.081 3.128,1.526c1.323,0.445 2.861,0.865 4.616,1.259c1.755,0.394 3.618,0.801 5.589,1.221c1.971,0.419 4.005,0.877 6.103,1.373c2.098,0.496 4.133,1.075 6.104,1.736c1.971,0.661 3.833,1.43 5.588,2.308c1.755,0.877 3.294,1.901 4.616,3.07c1.322,1.17 2.365,2.518 3.128,4.044c0.763,1.526 1.144,3.268 1.144,5.226c0,2.518 -0.445,4.68 -1.335,6.485c-0.89,1.806 -2.079,3.332 -3.566,4.578c-1.488,1.246 -3.211,2.244 -5.169,2.994c-1.959,0.751 -4.012,1.329 -6.161,1.736c-2.149,0.407 -4.323,0.674 -6.523,0.801c-2.2,0.127 -4.292,0.191 -6.275,0.191c-5.188,-0 -9.989,-0.426 -14.401,-1.278c-4.412,-0.852 -8.31,-1.914 -11.692,-3.185l0,-12.513c3.484,1.933 7.458,3.446 11.921,4.54c4.463,1.094 9.238,1.64 14.324,1.64c3.001,0 5.449,-0.159 7.343,-0.477c1.895,-0.317 3.376,-0.724 4.445,-1.22c1.068,-0.496 1.792,-1.037 2.174,-1.622c0.381,-0.584 0.572,-1.144 0.572,-1.678c0,-0.839 -0.381,-1.57 -1.144,-2.193c-0.763,-0.623 -1.806,-1.17 -3.128,-1.641c-1.323,-0.47 -2.861,-0.903 -4.616,-1.297c-1.755,-0.394 -3.618,-0.788 -5.589,-1.182c-1.971,-0.394 -3.999,-0.82 -6.084,-1.278c-2.085,-0.458 -4.114,-0.998 -6.085,-1.621c-1.97,-0.624 -3.833,-1.348 -5.588,-2.175c-1.755,-0.826 -3.293,-1.805 -4.616,-2.937c-1.322,-1.132 -2.365,-2.442 -3.128,-3.929c-0.763,-1.488 -1.144,-3.211 -1.144,-5.169c-0,-2.314 0.407,-4.311 1.22,-5.989c0.814,-1.679 1.914,-3.109 3.3,-4.292c1.386,-1.182 2.988,-2.142 4.807,-2.88c1.818,-0.737 3.732,-1.31 5.741,-1.717c2.009,-0.406 4.043,-0.686 6.103,-0.839c2.06,-0.152 4.018,-0.229 5.875,-0.229c2.034,0 4.126,0.102 6.275,0.306c2.149,0.203 4.266,0.489 6.352,0.858c2.085,0.369 4.1,0.795 6.046,1.278c1.945,0.483 3.745,0.992 5.398,1.526l-0,12.13Z" style="fill:#ee4d6f;fill-rule:nonzero;"/>
    <path d="M1470.55,1467.07l-0,41.008l-14.153,0l0,-41.008l-22.239,0l-0,-11.406l58.67,0l-0,11.406l-22.278,0Z" style="fill:#ee4d6f;fill-rule:nonzero;"/>
    <path d="M1504.52,1508.07l-0,-52.414l53.062,0l-0,11.178l-38.528,-0l-0,8.659l36.544,-0l0,11.177l-36.544,-0l-0,10.223l39.062,0l0,11.177l-53.596,0Z" style="fill:#ee4d6f;fill-rule:nonzero;"/>
    <path d="M1638.32,1481.83c-0,3.357 -0.369,6.339 -1.107,8.946c-0.737,2.606 -1.773,4.876 -3.109,6.809c-1.335,1.933 -2.937,3.573 -4.806,4.921c-1.869,1.348 -3.948,2.429 -6.237,3.242c-2.289,0.814 -4.756,1.406 -7.401,1.774c-2.644,0.369 -5.404,0.553 -8.277,0.553l-33.265,0l0,-52.414l33.188,0c2.874,0 5.633,0.185 8.278,0.554c2.645,0.368 5.118,0.96 7.42,1.773c2.301,0.814 4.393,1.889 6.275,3.224c1.882,1.335 3.49,2.975 4.825,4.921c1.336,1.945 2.372,4.215 3.109,6.809c0.738,2.594 1.107,5.557 1.107,8.888Zm-14.267,0c-0,-2.517 -0.324,-4.704 -0.973,-6.561c-0.648,-1.856 -1.691,-3.389 -3.128,-4.597c-1.437,-1.208 -3.312,-2.11 -5.627,-2.708c-2.314,-0.598 -5.137,-0.897 -8.468,-0.897l-17.586,0l-0,29.602l17.586,0c3.331,0 6.154,-0.298 8.468,-0.896c2.315,-0.598 4.19,-1.513 5.627,-2.747c1.437,-1.233 2.48,-2.778 3.128,-4.634c0.649,-1.857 0.973,-4.044 0.973,-6.562Z" style="fill:#ee4d6f;fill-rule:nonzero;"/>
    <path d="M1736.74,1470.42c-0.992,-0.483 -2.302,-1.03 -3.929,-1.64c-1.628,-0.61 -3.472,-1.189 -5.532,-1.736c-2.06,-0.546 -4.298,-1.004 -6.713,-1.373c-2.416,-0.369 -4.896,-0.553 -7.439,-0.553c-2.035,-0 -3.77,0.064 -5.207,0.191c-1.437,0.127 -2.645,0.292 -3.624,0.496c-0.979,0.203 -1.755,0.438 -2.327,0.705c-0.572,0.267 -1.011,0.541 -1.316,0.82c-0.305,0.28 -0.502,0.56 -0.591,0.84c-0.089,0.279 -0.134,0.534 -0.134,0.763c0,0.763 0.381,1.43 1.144,2.002c0.763,0.573 1.806,1.081 3.128,1.526c1.323,0.445 2.861,0.865 4.616,1.259c1.755,0.394 3.618,0.801 5.589,1.221c1.971,0.419 4.005,0.877 6.103,1.373c2.098,0.496 4.133,1.075 6.104,1.736c1.971,0.661 3.834,1.43 5.588,2.308c1.755,0.877 3.294,1.901 4.616,3.07c1.323,1.17 2.365,2.518 3.128,4.044c0.763,1.526 1.145,3.268 1.145,5.226c-0,2.518 -0.445,4.68 -1.336,6.485c-0.89,1.806 -2.079,3.332 -3.566,4.578c-1.488,1.246 -3.211,2.244 -5.169,2.994c-1.958,0.751 -4.012,1.329 -6.161,1.736c-2.149,0.407 -4.323,0.674 -6.523,0.801c-2.2,0.127 -4.292,0.191 -6.275,0.191c-5.188,-0 -9.988,-0.426 -14.401,-1.278c-4.412,-0.852 -8.309,-1.914 -11.692,-3.185l0,-12.513c3.484,1.933 7.458,3.446 11.921,4.54c4.463,1.094 9.238,1.64 14.324,1.64c3.001,0 5.449,-0.159 7.344,-0.477c1.894,-0.317 3.376,-0.724 4.444,-1.22c1.068,-0.496 1.793,-1.037 2.174,-1.622c0.382,-0.584 0.572,-1.144 0.572,-1.678c0,-0.839 -0.381,-1.57 -1.144,-2.193c-0.763,-0.623 -1.806,-1.17 -3.128,-1.641c-1.323,-0.47 -2.861,-0.903 -4.616,-1.297c-1.755,-0.394 -3.618,-0.788 -5.588,-1.182c-1.971,-0.394 -4,-0.82 -6.085,-1.278c-2.085,-0.458 -4.113,-0.998 -6.084,-1.621c-1.971,-0.624 -3.834,-1.348 -5.589,-2.175c-1.755,-0.826 -3.293,-1.805 -4.616,-2.937c-1.322,-1.132 -2.365,-2.442 -3.128,-3.929c-0.763,-1.488 -1.144,-3.211 -1.144,-5.169c-0,-2.314 0.407,-4.311 1.221,-5.989c0.813,-1.679 1.913,-3.109 3.299,-4.292c1.386,-1.182 2.988,-2.142 4.807,-2.88c1.818,-0.737 3.732,-1.31 5.741,-1.717c2.009,-0.406 4.044,-0.686 6.103,-0.839c2.06,-0.152 4.019,-0.229 5.875,-0.229c2.035,0 4.126,0.102 6.275,0.306c2.149,0.203 4.266,0.489 6.352,0.858c2.085,0.369 4.101,0.795 6.046,1.278c1.946,0.483 3.745,0.992 5.398,1.526l-0,12.13Z" style="fill:#ee4d6f;fill-rule:nonzero;"/>
    <path d="M1756.82,1508.07l-0,-52.414l53.062,0l0,11.178l-38.528,-0l-0,8.659l36.545,-0l-0,11.177l-36.545,-0l-0,10.223l39.062,0l0,11.177l-53.596,0Z" style="fill:#ee4d6f;fill-rule:nonzero;"/>
    <path d="M1840.57,1508.07l-14.152,0l-0,-52.414l35.476,0c3.815,0 7.051,0.395 9.709,1.183c2.657,0.788 4.819,1.907 6.485,3.357c1.666,1.45 2.874,3.198 3.624,5.245c0.75,2.047 1.125,4.33 1.125,6.848c0,2.212 -0.311,4.145 -0.934,5.798c-0.624,1.653 -1.463,3.071 -2.518,4.253c-1.056,1.183 -2.283,2.181 -3.681,2.995c-1.399,0.814 -2.874,1.488 -4.425,2.022l17.166,20.713l-16.556,0l-15.869,-19.302l-15.45,0l0,19.302Zm27.962,-35.858c0,-1.017 -0.133,-1.882 -0.4,-2.594c-0.268,-0.712 -0.732,-1.29 -1.393,-1.735c-0.661,-0.445 -1.545,-0.77 -2.651,-0.973c-1.106,-0.204 -2.486,-0.305 -4.139,-0.305l-19.379,-0l0,11.215l19.379,-0c1.653,-0 3.033,-0.102 4.139,-0.305c1.106,-0.204 1.99,-0.528 2.651,-0.973c0.661,-0.445 1.125,-1.024 1.393,-1.736c0.267,-0.712 0.4,-1.576 0.4,-2.594Z" style="fill:#ee4d6f;fill-rule:nonzero;"/>
    <path d="M1934.58,1508.07l-16.479,0l-26.512,-52.414l15.792,0l19.074,39.444l19.035,-39.444l15.793,0l-26.703,52.414Z" style="fill:#ee4d6f;fill-rule:nonzero;"/>
    <rect x="1972.21" y="1455.66" width="14.153" height="52.414" style="fill:#ee4d6f;fill-rule:nonzero;"/>
    <path d="M2062.86,1504.49c-1.831,0.763 -3.675,1.449 -5.531,2.06c-1.857,0.61 -3.777,1.138 -5.761,1.583c-1.983,0.445 -4.075,0.782 -6.275,1.011c-2.2,0.228 -4.558,0.343 -7.076,0.343c-5.341,-0 -10.255,-0.572 -14.744,-1.717c-4.488,-1.144 -8.354,-2.867 -11.596,-5.169c-3.243,-2.301 -5.767,-5.175 -7.573,-8.621c-1.805,-3.446 -2.708,-7.47 -2.708,-12.073c-0,-4.603 0.903,-8.628 2.708,-12.074c1.806,-3.446 4.33,-6.32 7.573,-8.621c3.242,-2.302 7.108,-4.025 11.596,-5.169c4.489,-1.144 9.403,-1.717 14.744,-1.717c2.518,0 4.876,0.115 7.076,0.344c2.2,0.229 4.292,0.566 6.275,1.011c1.984,0.445 3.904,0.972 5.761,1.583c1.856,0.61 3.7,1.297 5.531,2.06l-0,12.741c-1.45,-0.789 -2.976,-1.571 -4.578,-2.346c-1.602,-0.776 -3.369,-1.475 -5.302,-2.098c-1.933,-0.623 -4.056,-1.132 -6.371,-1.526c-2.314,-0.394 -4.921,-0.592 -7.82,-0.592c-4.45,0 -8.144,0.458 -11.082,1.374c-2.937,0.915 -5.283,2.136 -7.038,3.662c-1.754,1.526 -2.988,3.274 -3.7,5.245c-0.712,1.971 -1.068,4.012 -1.068,6.123c0,1.398 0.153,2.778 0.458,4.139c0.305,1.36 0.814,2.644 1.526,3.852c0.712,1.208 1.64,2.321 2.784,3.338c1.145,1.018 2.569,1.895 4.273,2.632c1.704,0.738 3.694,1.316 5.97,1.736c2.276,0.42 4.902,0.63 7.877,0.63c2.899,-0 5.506,-0.185 7.82,-0.554c2.315,-0.368 4.438,-0.858 6.371,-1.468c1.933,-0.611 3.7,-1.304 5.302,-2.079c1.602,-0.776 3.128,-1.571 4.578,-2.384l-0,12.741Z" style="fill:#ee4d6f;fill-rule:nonzero;"/>
    <path d="M2078.41,1508.07l-0,-52.414l53.062,0l-0,11.178l-38.528,-0l-0,8.659l36.544,-0l0,11.177l-36.544,-0l-0,10.223l39.062,0l0,11.177l-53.596,0Z" style="fill:#ee4d6f;fill-rule:nonzero;"/>
</svg>
