<?xml version="1.0" encoding="UTF-8" standalone="no"?>
<!DOCTYPE svg PUBLIC "-//W3C//DTD SVG 1.1//EN" "http://www.w3.org/Graphics/SVG/1.1/DTD/svg11.dtd">
<svg width="100%" height="100%" viewBox="0 0 512 512" version="1.1" xmlns="http://www.w3.org/2000/svg" xmlns:xlink="http://www.w3.org/1999/xlink" xml:space="preserve" xmlns:serif="http://www.serif.com/" style="fill-rule:evenodd;clip-rule:evenodd;stroke-linejoin:round;stroke-miterlimit:2;">
    <path d="M512,61.44c0,-33.91 -27.53,-61.44 -61.44,-61.44l-389.12,0c-33.91,0 -61.44,27.53 -61.44,61.44l0,389.12c0,33.91 27.53,61.44 61.44,61.44l389.12,0c33.91,0 61.44,-27.53 61.44,-61.44l0,-389.12Z" style="fill:#010123;"/>
    <path d="M205.565,236.29c-5.235,0 -10.253,-0.842 -14.879,-2.379c3.136,-7.099 11.332,-13.044 14.879,-15.371c3.557,2.327 11.753,8.277 14.884,15.371c-4.626,1.537 -9.644,2.379 -14.884,2.379Zm189.386,-0.832c-12.244,0 -21.58,-3.997 -28.003,-11.994c-6.427,-7.993 -9.638,-18.668 -9.638,-32.024c0,-8.801 1.669,-16.543 5.008,-23.221c3.339,-6.678 8.021,-11.838 14.037,-15.48c6.021,-3.641 12.879,-5.462 20.569,-5.462c9.411,0 16.718,2.601 21.93,7.813c5.212,5.212 7.969,12.675 8.272,22.389c0,6.172 -0.355,10.878 -1.064,14.113l-52.209,0c0.204,10.017 2.531,18.085 6.981,24.21c4.455,6.12 10.778,9.18 18.975,9.18c4.043,0 8.271,-0.733 12.67,-2.199c4.403,-1.467 7.818,-3.212 10.244,-5.236l2.885,6.678c-2.932,3.036 -7.284,5.666 -13.053,7.894c-5.766,2.222 -11.635,3.339 -17.604,3.339Zm-310.077,-43.256c-0,-8.4 1.646,-15.99 4.933,-22.768c3.287,-6.782 8.144,-12.169 14.571,-16.165c6.423,-3.996 14.137,-5.992 23.146,-5.992c4.347,-0 8.092,0.402 11.228,1.21c3.14,0.809 6.881,1.925 11.232,3.339l-0.605,23.373l-9.866,-0l-3.339,-15.479c-0.61,-2.833 -4.455,-4.252 -11.535,-4.252c-7.084,0 -12.675,2.861 -16.77,8.579c-4.101,5.714 -6.149,13.834 -6.149,24.357c-0,11.942 2.304,21.023 6.905,27.247c4.607,6.219 10.599,9.331 17.986,9.331c4.252,0 8.272,-0.658 12.065,-1.972c3.798,-1.315 7.061,-2.885 9.79,-4.706l2.885,6.072c-2.733,2.833 -6.753,5.387 -12.065,7.667c-5.315,2.275 -10.702,3.415 -16.165,3.415c-8.295,0 -15.304,-1.873 -21.022,-5.619c-5.718,-3.741 -10.017,-8.877 -12.902,-15.404c-2.881,-6.527 -4.323,-13.938 -4.323,-22.233Zm181.067,-30.964l-10.929,-2.734l-0,-8.196l21.703,-2.729l0.459,0l3.187,2.729l-0,6.376l-0.151,3.641c3.642,-3.235 8.447,-6.172 14.415,-8.801c5.969,-2.63 11.687,-3.945 17.154,-3.945c6.371,0 11.304,1.211 14.794,3.642c3.495,2.426 5.945,6.148 7.364,11.157c1.414,5.008 2.123,11.762 2.123,20.261l-0,42.494l10.627,1.064l-0,7.591l-35.972,0l-0,-7.439l9.412,-1.216l-0,-42.645c-0,-5.974 -0.407,-10.651 -1.216,-14.042c-0.808,-3.386 -2.327,-5.917 -4.554,-7.586c-2.228,-1.67 -5.463,-2.507 -9.715,-2.507c-3.641,0 -7.538,0.913 -11.686,2.734c-4.148,1.821 -7.841,3.944 -11.076,6.375l-0,57.52l10.319,1.367l-0,7.439l-35.821,0l-0,-7.439l9.563,-1.367l-0,-63.744Zm-102.274,39.685c13.058,2.053 25.482,6.81 36.341,13.919c-4.55,3.197 -11.871,9.208 -15.224,16.638c-12.259,-6.125 -20.654,-17.485 -21.117,-30.557Zm62.684,30.557c-3.353,-7.43 -10.674,-13.436 -15.224,-16.638c10.859,-7.109 23.283,-11.866 36.341,-13.919c-0.463,13.072 -8.858,24.432 -21.117,30.557Zm-20.786,-40.196c3.022,1.939 9.45,6.489 13.228,12.212c-4.606,2.199 -9.033,4.748 -13.228,7.633c-4.19,-2.885 -8.617,-5.434 -13.224,-7.633c3.779,-5.728 10.211,-10.273 13.224,-12.212Zm-35.802,-11.729c5.411,1.254 17.622,4.947 23.255,13.616c-2.384,2.228 -4.73,4.843 -6.55,7.747c-6.007,-2.398 -12.269,-4.223 -18.691,-5.434c-0.554,-6.408 0.964,-12.628 1.986,-15.929Zm73.595,15.929c-6.422,1.211 -12.684,3.036 -18.686,5.434c-1.826,-2.904 -4.171,-5.519 -6.555,-7.747c5.633,-8.673 17.849,-12.362 23.26,-13.616c1.016,3.301 2.535,9.521 1.981,15.929Zm-50.676,-11.951c3.784,-6.196 9.88,-11.1 12.888,-13.29c3.008,2.185 9.095,7.075 12.888,13.29c-1.935,1.608 -3.718,3.448 -5.217,5.552c-3.235,-2.436 -5.779,-3.878 -6.021,-4.015c-1.016,-0.568 -2.289,-0.568 -3.306,0c-0.241,0.137 -2.785,1.579 -6.02,4.015c-1.499,-2.104 -3.278,-3.944 -5.212,-5.552Zm217.749,0.014c0.303,-2.124 0.454,-4.299 0.454,-6.527c-0.099,-6.574 -1.49,-11.762 -4.171,-15.555c-2.682,-3.793 -6.905,-5.689 -12.675,-5.689c-5.87,0 -10.547,2.123 -14.037,6.375c-3.491,4.247 -5.491,11.379 -5.997,21.396l36.426,0Zm-226.532,-25.397c3.358,1.319 10.121,4.346 15.409,9.061c-3.5,2.786 -8.343,7.213 -11.838,12.694c-4.356,-2.558 -8.901,-4.228 -12.495,-5.283c1.859,-7.098 6.564,-13.554 8.924,-16.472Zm43.351,0c2.36,2.908 7.061,9.35 8.919,16.472c-3.599,1.05 -8.144,2.72 -12.504,5.279c-3.495,-5.472 -8.329,-9.899 -11.829,-12.685c5.274,-4.701 12.056,-7.742 15.414,-9.066Zm-21.68,-12.429c2.662,1.754 7.903,5.528 11.715,10.31c-3.505,1.892 -7.392,4.408 -10.741,7.572c-0.634,-0.189 -1.315,-0.189 -1.948,0c-3.349,-3.169 -7.237,-5.685 -10.741,-7.572c3.807,-4.767 9.057,-8.551 11.715,-10.31Z" style="fill:#fff;fill-rule:nonzero;"/>
    <path d="M149.647,324.949c-0.091,0.452 -0.181,0.836 -0.271,1.152c-0.091,0.316 -0.181,0.61 -0.271,0.881c-0.091,0.271 -0.136,0.61 -0.136,1.016l0,1.558c-2.71,4.788 -6.12,8.808 -10.231,12.061c-4.11,3.252 -8.627,6.12 -13.551,8.604c-4.923,2.485 -10.05,4.743 -15.38,6.776c-5.33,2.032 -10.524,4.223 -15.583,6.572c-2.168,-0.542 -3.817,-1.446 -4.946,-2.71c-1.129,-1.265 -1.987,-2.733 -2.575,-4.404c-0.587,-1.672 -0.993,-3.524 -1.219,-5.556c-0.226,-2.033 -0.429,-4.133 -0.61,-6.301c0.271,-0.994 0.655,-1.83 1.152,-2.507c0.497,-0.678 0.745,-1.649 0.745,-2.914c0.723,-2.348 1.445,-4.652 2.168,-6.91c0.723,-2.259 1.175,-4.563 1.355,-6.911c0.271,-0.723 0.768,-1.22 1.491,-1.491c0.452,-4.336 0.474,-8.74 0.068,-13.212c-0.407,-4.472 -1.152,-8.65 -2.236,-12.534c0.09,-0.904 0.203,-1.559 0.338,-1.965c0.136,-0.407 0.113,-0.7 -0.067,-0.881c-0.091,-0.723 0.158,-1.084 0.745,-1.084l1.829,-0c0,-1.355 -0.248,-2.71 -0.745,-4.065c-0.497,-1.355 -0.971,-2.891 -1.423,-4.608c0.633,-1.355 1.039,-2.687 1.22,-3.997c0.181,-1.31 0.587,-2.462 1.219,-3.455c4.879,1.535 9.554,3.387 14.025,5.555c4.472,2.168 8.876,3.749 13.212,4.743c3.253,2.349 6.595,4.675 10.028,6.979c3.433,2.303 6.55,4.833 9.35,7.588c2.801,2.755 5.149,5.895 7.046,9.418c1.898,3.523 2.982,7.724 3.253,12.602Zm-32.116,7.453c1.897,-0.723 3.772,-1.491 5.624,-2.304c1.852,-0.813 3.568,-1.739 5.149,-2.777c1.581,-1.039 3.004,-2.236 4.269,-3.591c1.264,-1.355 2.303,-2.982 3.116,-4.879c-0.542,-1.084 -1.264,-2.055 -2.168,-2.913c-0.903,-0.858 -1.807,-1.671 -2.71,-2.439c-0.903,-0.768 -1.784,-1.559 -2.642,-2.372c-0.859,-0.813 -1.559,-1.806 -2.101,-2.981c-1.174,-0.18 -2.213,-0.519 -3.116,-1.016c-0.904,-0.497 -1.785,-0.994 -2.643,-1.491c-0.858,-0.497 -1.761,-0.971 -2.71,-1.423c-0.948,-0.451 -2.055,-0.722 -3.32,-0.813c-1.987,-0.993 -3.772,-1.716 -5.352,-2.168c-1.581,-0.451 -2.778,-1.039 -3.591,-1.761c-0.633,-0 -1.13,0.135 -1.491,0.406c0.903,3.433 1.581,6.663 2.033,9.689c0.451,3.026 0.7,6.053 0.745,9.079c0.045,3.026 -0.113,6.12 -0.474,9.282c-0.362,3.162 -0.859,6.595 -1.491,10.299c0.903,-0.09 1.739,-0.294 2.507,-0.61c0.768,-0.316 1.536,-0.655 2.304,-1.016c0.767,-0.362 1.581,-0.7 2.439,-1.016c0.858,-0.317 1.874,-0.52 3.049,-0.61c0.271,-0.542 0.655,-0.994 1.151,-1.355c0.497,-0.362 0.972,-0.768 1.423,-1.22Z" style="fill:#ffb2b2;fill-rule:nonzero;"/>
    <path d="M226.073,285.245c0.09,0.633 0.113,1.107 0.068,1.423c-0.045,0.316 -0.091,0.61 -0.136,0.881c-0.045,0.271 -0.068,0.565 -0.068,0.881c0,0.316 0.091,0.79 0.271,1.423c-1.897,3.071 -4.087,5.172 -6.572,6.301c-2.484,1.129 -5.172,1.942 -8.062,2.439c-2.891,0.497 -5.85,1.016 -8.876,1.558c-3.026,0.542 -6.03,1.717 -9.011,3.523c-1.175,-0.451 -2.236,-0.451 -3.185,0c-0.948,0.452 -2.326,0.588 -4.133,0.407c-0.542,0.542 -1.219,0.926 -2.032,1.152c-0.813,0.226 -1.627,0.474 -2.44,0.745c0.362,0.813 0.52,1.649 0.475,2.507c-0.045,0.858 0.067,1.558 0.338,2.1c3.162,0.271 6.663,0.226 10.502,-0.135c3.84,-0.362 7.611,-0.587 11.315,-0.678c0.091,0.452 0.045,0.746 -0.135,0.881c-0.181,0.136 -0.226,0.384 -0.136,0.745c0.633,0.452 1.265,1.017 1.897,1.694c0.633,0.678 1.265,1.333 1.897,1.965c0.633,0.632 1.288,1.152 1.965,1.558c0.678,0.407 1.468,0.565 2.372,0.475c0.361,0.722 0.609,1.513 0.745,2.371c0.135,0.858 0.023,1.739 -0.339,2.643c-1.445,0.993 -2.891,2.01 -4.336,3.048c-1.445,1.039 -2.959,1.965 -4.54,2.778c-1.58,0.813 -3.252,1.468 -5.013,1.965c-1.762,0.497 -3.727,0.7 -5.895,0.61l-1.016,-0c-0.226,-0 -0.52,-0.136 -0.881,-0.407c-0.723,0.452 -1.739,0.588 -3.049,0.407c-1.31,-0.181 -2.326,-0.045 -3.049,0.406c-0.994,-0.451 -2.191,-0.654 -3.591,-0.609c-1.4,0.045 -2.642,-0.113 -3.726,-0.475c-1.446,1.898 -2.756,3.93 -3.93,6.098c-1.174,2.168 -2.213,4.472 -3.117,6.911c3.072,0.452 5.624,0.633 7.656,0.542c2.033,-0.09 3.953,-0.248 5.76,-0.474c1.806,-0.226 3.658,-0.452 5.555,-0.678c1.897,-0.225 4.291,-0.293 7.182,-0.203c1.807,-0.994 3.953,-1.649 6.437,-1.965c2.484,-0.316 4.765,-0.835 6.843,-1.558c0.723,0.271 1.355,0.745 1.897,1.423c0.542,0.677 1.062,1.31 1.558,1.897c0.497,0.587 1.017,1.107 1.559,1.558c0.542,0.452 1.219,0.633 2.032,0.542c0.362,0.362 0.61,0.791 0.746,1.288c0.135,0.496 0.248,0.971 0.339,1.422c0.09,0.452 0.248,0.836 0.474,1.152c0.226,0.316 0.61,0.429 1.152,0.339c-1.355,2.981 -2.914,5.262 -4.675,6.843c-1.762,1.581 -3.772,2.778 -6.031,3.591c-2.258,0.813 -4.765,1.445 -7.52,1.897c-2.756,0.452 -5.804,0.994 -9.147,1.626c-0.813,0.181 -1.491,0.158 -2.033,-0.067c-0.542,-0.226 -1.174,-0.339 -1.897,-0.339c-2.077,0.451 -4.562,0.858 -7.453,1.219c-2.89,0.362 -5.826,0.497 -8.808,0.407c-2.981,-0.091 -5.826,-0.474 -8.537,-1.152c-2.71,-0.678 -4.923,-1.875 -6.639,-3.591c-0.723,-0.632 -1.197,-1.378 -1.423,-2.236c-0.226,-0.858 -0.836,-1.513 -1.83,-1.965c-0.09,-1.174 -0.271,-2.484 -0.542,-3.929c-0.271,-1.446 -0.542,-2.959 -0.813,-4.54c-0.271,-1.581 -0.474,-3.139 -0.609,-4.675c-0.136,-1.536 -0.068,-2.936 0.203,-4.201c0.271,-1.355 0.835,-2.574 1.694,-3.658c0.858,-1.084 1.151,-2.259 0.88,-3.524c0.452,-0.09 0.723,-0.338 0.813,-0.745c0.091,-0.406 0.452,-0.564 1.085,-0.474c0.542,-1.626 1.129,-3.162 1.761,-4.607c0.632,-1.446 1.287,-2.846 1.965,-4.201c0.678,-1.355 1.355,-2.733 2.033,-4.133c0.677,-1.4 1.332,-2.959 1.964,-4.675c-1.264,-1.175 -2.19,-2.462 -2.777,-3.862c-0.588,-1.4 -1.017,-2.801 -1.288,-4.201c-0.271,-1.4 -0.497,-2.845 -0.677,-4.336c-0.181,-1.491 -0.497,-3.004 -0.949,-4.54c0.904,-1.355 2.01,-2.461 3.32,-3.32c1.31,-0.858 2.733,-1.558 4.269,-2.1c1.535,-0.542 3.207,-0.994 5.013,-1.355c1.807,-0.361 3.704,-0.768 5.692,-1.22c3.613,-1.174 6.843,-2.077 9.688,-2.71c2.846,-0.632 5.647,-1.152 8.402,-1.558c2.755,-0.407 5.624,-0.79 8.605,-1.152c2.981,-0.361 6.369,-0.903 10.163,-1.626c0.813,0.813 1.581,1.22 2.303,1.22c0.362,-0.813 0.791,-1.062 1.288,-0.746c0.497,0.317 0.7,0.068 0.609,-0.745c0.904,1.536 2.056,2.823 3.456,3.862c1.4,1.039 2.959,1.92 4.675,2.642Z" style="fill:#ffb2b2;fill-rule:nonzero;"/>
    <path d="M267.945,337.687c-0.091,1.265 -0.384,2.462 -0.881,3.591c-0.497,1.129 -1.107,2.213 -1.829,3.252c-0.723,1.039 -1.514,2.033 -2.372,2.981c-0.858,0.949 -1.694,1.784 -2.507,2.507c0.271,1.174 0.294,2.055 0.068,2.642c-0.226,0.588 -0.293,1.468 -0.203,2.643c-1.355,3.613 -3.41,6.03 -6.166,7.25c-2.755,1.219 -5.352,0.971 -7.791,-0.746c-0.994,-0.722 -1.83,-1.648 -2.507,-2.778c-0.678,-1.129 -1.604,-1.829 -2.778,-2.1c0.271,-1.536 0.135,-3.072 -0.407,-4.607c-0.542,-1.536 -1.129,-2.349 -1.761,-2.439c-0.271,-1.898 -0.678,-3.93 -1.22,-6.098c-0.542,-2.168 -1.039,-4.359 -1.49,-6.572c-0.452,-2.214 -0.836,-4.382 -1.152,-6.505c-0.316,-2.123 -0.429,-4.088 -0.339,-5.894c0.09,-0.904 -0.068,-1.717 -0.474,-2.439c-0.407,-0.723 -0.7,-1.581 -0.881,-2.575c-0.361,-2.078 -0.474,-4.269 -0.339,-6.572c0.136,-2.304 0.203,-4.495 0.203,-6.572c0,-1.988 -0.113,-4.133 -0.338,-6.437c-0.226,-2.304 -0.43,-4.517 -0.61,-6.64c-0.181,-2.123 -0.271,-4.065 -0.271,-5.827c-0,-1.761 0.226,-3.139 0.677,-4.133c0.542,-1.084 1.288,-1.965 2.236,-2.642c0.949,-0.678 1.83,-1.423 2.643,-2.236c1.987,0.181 3.568,0.994 4.742,2.439c1.175,1.446 1.626,2.801 1.355,4.065c1.898,1.175 3.411,2.688 4.54,4.54c1.129,1.852 2.033,3.93 2.71,6.233c0.678,2.304 1.152,4.743 1.423,7.318c0.271,2.574 0.497,5.104 0.677,7.588c0.181,2.484 0.362,4.856 0.542,7.114c0.181,2.259 0.543,4.201 1.085,5.827c3.342,-4.788 6.143,-9.056 8.401,-12.805c2.258,-3.749 4.562,-7.34 6.911,-10.773c2.349,-3.433 4.969,-6.911 7.859,-10.434c2.891,-3.524 6.64,-7.498 11.248,-11.925c0.903,0.09 1.648,0.271 2.235,0.542c0.588,0.271 1.107,0.497 1.559,0.678c0.451,0.18 0.993,0.338 1.626,0.474c0.632,0.135 1.49,0.113 2.574,-0.068c0.362,0.903 0.633,1.558 0.814,1.965c0.18,0.406 0.338,0.813 0.474,1.22c0.135,0.406 0.316,0.925 0.542,1.558c0.226,0.632 0.61,1.536 1.152,2.71c0.271,0.271 0.361,0.632 0.271,1.084c-0.091,0.452 -0.158,0.881 -0.204,1.287c-0.045,0.407 -0.067,0.701 -0.067,0.881c-0,0.181 0.225,0.181 0.677,0c-0.271,1.265 -0.745,2.417 -1.423,3.456c-0.677,1.039 -0.971,2.281 -0.88,3.726c-2.078,2.71 -4.359,5.511 -6.844,8.402c-2.484,2.89 -4.968,5.872 -7.453,8.943c-2.484,3.072 -4.855,6.301 -7.114,9.689c-2.258,3.388 -4.2,6.933 -5.827,10.637c-0.451,0 -0.79,0.136 -1.016,0.407l-1.219,1.761c-0.226,0.271 -0.52,0.407 -0.881,0.407Z" style="fill:#ffb2b2;fill-rule:nonzero;"/>
    <path d="M380.958,352.051c2.078,0.18 3.591,0.497 4.54,0.948c0.948,0.452 1.603,1.017 1.965,1.694c0.361,0.678 0.496,1.423 0.406,2.236c-0.09,0.813 -0.135,1.626 -0.135,2.439c-2.349,0.994 -5.308,1.762 -8.876,2.304c-3.569,0.542 -7.476,0.948 -11.722,1.219c-4.245,0.271 -8.672,0.429 -13.279,0.475c-4.608,0.045 -9.079,0.067 -13.416,0.067l-12.06,0c-3.704,0 -6.775,0.046 -9.214,0.136c-7.498,0.452 -13.325,0.903 -17.481,1.355c-4.155,0.452 -7.001,0.903 -8.537,1.355c-2.71,-0.09 -4.855,-0.407 -6.436,-0.949c-1.581,-0.542 -2.869,-1.219 -3.862,-2.032c-0.994,-0.813 -1.852,-1.739 -2.575,-2.778c-0.723,-1.039 -1.581,-2.1 -2.575,-3.185c0.542,-0.722 0.655,-1.761 0.339,-3.116c-0.316,-1.355 -1.152,-2.349 -2.507,-2.981c1.084,-0.181 1.897,-0.723 2.439,-1.626c0.542,-0.904 0.588,-1.581 0.136,-2.033c2.258,-0.361 4.675,-0.587 7.25,-0.678c2.574,-0.09 5.126,-0.158 7.656,-0.203c2.529,-0.045 4.923,-0.181 7.182,-0.406c2.258,-0.226 4.246,-0.61 5.962,-1.152c6.956,-0 14.228,-0.023 21.817,-0.068c7.588,-0.045 14.68,-0.158 21.274,-0.339c2.349,0.452 5.127,0.723 8.334,0.813c3.207,0.091 6.369,0.294 9.486,0.61c3.116,0.316 5.962,0.881 8.537,1.694c2.574,0.813 4.358,2.213 5.352,4.201Z" style="fill:#ffb2b2;fill-rule:nonzero;"/>
</svg>
