<?xml version="1.0" encoding="UTF-8" standalone="no"?>
<!DOCTYPE svg PUBLIC "-//W3C//DTD SVG 1.1//EN" "http://www.w3.org/Graphics/SVG/1.1/DTD/svg11.dtd">
<svg width="100%" height="100%" viewBox="0 0 554 143" version="1.1" xmlns="http://www.w3.org/2000/svg" xmlns:xlink="http://www.w3.org/1999/xlink" xml:space="preserve" xmlns:serif="http://www.serif.com/" style="fill-rule:evenodd;clip-rule:evenodd;stroke-linejoin:round;stroke-miterlimit:2;">
    <path d="M321.583,118.74c-5.49,0 -10.753,-0.883 -15.605,-2.495c3.289,-7.445 11.885,-13.681 15.605,-16.121c3.731,2.44 12.327,8.681 15.611,16.121c-4.852,1.612 -10.115,2.495 -15.611,2.495Zm198.632,-0.872c-12.842,-0 -22.633,-4.192 -29.37,-12.58c-6.741,-8.383 -10.109,-19.579 -10.109,-33.587c0,-9.231 1.751,-17.351 5.253,-24.355c3.502,-7.004 8.413,-12.416 14.722,-16.236c6.315,-3.818 13.508,-5.728 21.573,-5.728c9.871,-0 17.535,2.728 23.001,8.194c5.467,5.467 8.358,13.294 8.676,23.482c-0,6.474 -0.372,11.409 -1.116,14.802l-54.758,0c0.214,10.506 2.655,18.968 7.322,25.392c4.672,6.419 11.304,9.628 19.901,9.628c4.241,0 8.675,-0.768 13.289,-2.306c4.618,-1.539 8.2,-3.369 10.744,-5.492l3.026,7.004c-3.075,3.185 -7.64,5.943 -13.69,8.28c-6.048,2.33 -12.203,3.502 -18.464,3.502Zm-325.215,-45.368c0,-8.81 1.726,-16.771 5.174,-23.88c3.447,-7.113 8.541,-12.763 15.282,-16.954c6.737,-4.191 14.827,-6.284 24.276,-6.284c4.559,-0 8.487,0.421 11.776,1.269c3.294,0.848 7.217,2.019 11.781,3.502l-0.635,24.514l-10.347,-0l-3.503,-16.235c-0.639,-2.971 -4.672,-4.459 -12.098,-4.459c-7.429,-0 -13.293,3 -17.588,8.997c-4.302,5.993 -6.45,14.51 -6.45,25.547c0,12.525 2.417,22.049 7.243,28.577c4.831,6.522 11.116,9.786 18.864,9.786c4.459,0 8.675,-0.69 12.654,-2.068c3.983,-1.379 7.405,-3.026 10.268,-4.936l3.025,6.369c-2.866,2.971 -7.082,5.65 -12.654,8.041c-5.574,2.386 -11.224,3.582 -16.954,3.582c-8.7,-0 -16.051,-1.965 -22.048,-5.894c-5.997,-3.923 -10.506,-9.31 -13.532,-16.156c-3.022,-6.845 -4.534,-14.618 -4.534,-23.318Zm189.907,-32.476l-11.463,-2.867l0,-8.596l22.763,-2.863l0.481,0l3.343,2.863l-0,6.687l-0.159,3.819c3.82,-3.393 8.86,-6.474 15.119,-9.231c6.261,-2.758 12.258,-4.138 17.992,-4.138c6.682,0 11.855,1.271 15.516,3.82c3.665,2.545 6.235,6.448 7.723,11.702c1.483,5.252 2.227,12.336 2.227,21.25l0,44.569l11.146,1.116l-0,7.961l-37.728,0l-0,-7.802l9.871,-1.275l0,-44.727c0,-6.266 -0.427,-11.171 -1.275,-14.728c-0.848,-3.551 -2.441,-6.206 -4.777,-7.956c-2.336,-1.752 -5.729,-2.63 -10.189,-2.63c-3.819,0 -7.906,0.958 -12.256,2.868c-4.351,1.91 -8.224,4.136 -11.617,6.686l-0,60.328l10.823,1.434l-0,7.802l-37.57,0l-0,-7.802l10.03,-1.434l-0,-66.856Zm-107.267,41.623c13.695,2.153 26.726,7.142 38.115,14.598c-4.772,3.353 -12.451,9.658 -15.967,17.451c-12.858,-6.424 -21.663,-18.339 -22.148,-32.049Zm65.744,32.049c-3.517,-7.793 -11.195,-14.092 -15.967,-17.451c11.389,-7.456 24.419,-12.445 38.115,-14.598c-0.486,13.71 -9.291,25.625 -22.148,32.049Zm-21.801,-42.159c3.17,2.034 9.912,6.806 13.874,12.808c-4.831,2.307 -9.474,4.98 -13.874,8.006c-4.394,-3.026 -9.037,-5.699 -13.869,-8.006c3.963,-6.007 10.709,-10.774 13.869,-12.808Zm-37.55,-12.301c5.675,1.315 18.483,5.188 24.391,14.28c-2.501,2.337 -4.961,5.08 -6.87,8.125c-6.3,-2.515 -12.868,-4.429 -19.604,-5.699c-0.581,-6.721 1.011,-13.244 2.083,-16.706Zm77.188,16.706c-6.735,1.27 -13.303,3.184 -19.598,5.699c-1.915,-3.045 -4.375,-5.788 -6.875,-8.125c5.908,-9.096 18.72,-12.965 24.396,-14.28c1.065,3.462 2.658,9.985 2.077,16.706Zm-53.15,-12.534c3.969,-6.499 10.363,-11.642 13.517,-13.939c3.155,2.292 9.539,7.42 13.518,13.939c-2.03,1.686 -3.9,3.616 -5.472,5.823c-3.393,-2.555 -6.061,-4.068 -6.315,-4.211c-1.066,-0.596 -2.401,-0.596 -3.467,-0c-0.253,0.143 -2.921,1.656 -6.314,4.211c-1.572,-2.207 -3.438,-4.137 -5.467,-5.823Zm228.38,0.014c0.318,-2.227 0.476,-4.508 0.476,-6.845c-0.104,-6.895 -1.563,-12.336 -4.375,-16.315c-2.813,-3.978 -7.242,-5.966 -13.293,-5.966c-6.157,-0 -11.062,2.226 -14.723,6.686c-3.661,4.454 -5.759,11.934 -6.289,22.44l38.204,0Zm-237.592,-26.636c3.522,1.383 10.616,4.558 16.162,9.503c-3.671,2.922 -8.751,7.565 -12.416,13.314c-4.569,-2.683 -9.336,-4.435 -13.105,-5.541c1.95,-7.445 6.884,-14.216 9.359,-17.276Zm45.468,-0c2.475,3.05 7.406,9.806 9.354,17.276c-3.774,1.101 -8.541,2.853 -13.114,5.536c-3.666,-5.739 -8.736,-10.382 -12.407,-13.304c5.532,-4.93 12.645,-8.12 16.167,-9.508Zm-22.739,-13.036c2.792,1.839 8.289,5.798 12.287,10.813c-3.676,1.984 -7.753,4.623 -11.265,7.942c-0.665,-0.198 -1.379,-0.198 -2.043,-0c-3.513,-3.324 -7.59,-5.963 -11.265,-7.942c3.992,-5 9.499,-8.968 12.286,-10.813Z" style="fill-rule:nonzero;"/>
    <path d="M142.5,28.498c0,-15.728 -12.77,-28.498 -28.498,-28.498l-85.504,0c-15.728,0 -28.498,12.77 -28.498,28.498l0,85.494c0,15.729 12.77,28.498 28.498,28.498l85.504,0c15.728,0 28.498,-12.769 28.498,-28.498l0,-85.494Z" style="fill:#ebebeb;"/>
    <clipPath id="_clip1">
        <path d="M142.5,28.498c0,-15.728 -12.77,-28.498 -28.498,-28.498l-85.504,0c-15.728,0 -28.498,12.77 -28.498,28.498l0,85.494c0,15.729 12.77,28.498 28.498,28.498l85.504,0c15.728,0 28.498,-12.769 28.498,-28.498l0,-85.494Z"/>
    </clipPath>
    <g clip-path="url(#_clip1)">
        <g>
            <g>
                <rect x="-0" y="47.497" width="47.497" height="47.497" style="fill:#0065ef;"/>
                <rect x="47.497" y="47.497" width="47.497" height="47.497" style="fill:#0065ef;fill-opacity:0.9;"/>
                <rect x="94.993" y="47.497" width="47.497" height="47.497" style="fill:#0065ef;fill-opacity:0.8;"/>
                <rect x="142.49" y="47.497" width="47.497" height="47.497" style="fill:#0065ef;fill-opacity:0.7;"/>
                <rect x="189.987" y="47.497" width="47.497" height="47.497" style="fill:#0065ef;fill-opacity:0.6;"/>
            </g>
            <g>
                <rect x="-0" y="94.993" width="47.497" height="47.497" style="fill:#00b6ef;"/>
                <rect x="47.497" y="94.993" width="47.497" height="47.497" style="fill:#00b6ef;fill-opacity:0.9;"/>
                <rect x="94.993" y="94.993" width="47.497" height="47.497" style="fill:#00b6ef;fill-opacity:0.8;"/>
                <rect x="142.49" y="94.993" width="47.497" height="47.497" style="fill:#00b6ef;fill-opacity:0.7;"/>
                <rect x="189.987" y="94.993" width="47.497" height="47.497" style="fill:#00b6ef;fill-opacity:0.6;"/>
            </g>
            <g>
                <rect x="-0" y="0" width="47.497" height="47.497" style="fill:#0008ef;"/>
                <rect x="47.497" y="0" width="47.497" height="47.497" style="fill:#0008ef;fill-opacity:0.9;"/>
                <rect x="94.993" y="0" width="47.497" height="47.497" style="fill:#0008ef;fill-opacity:0.8;"/>
                <rect x="142.49" y="0" width="47.497" height="47.497" style="fill:#0008ef;fill-opacity:0.7;"/>
                <rect x="189.987" y="0" width="47.497" height="47.497" style="fill:#0008ef;fill-opacity:0.6;"/>
            </g>
        </g>
    </g>
</svg>
