<?xml version="1.0" encoding="UTF-8" standalone="no"?>
<!DOCTYPE svg PUBLIC "-//W3C//DTD SVG 1.1//EN" "http://www.w3.org/Graphics/SVG/1.1/DTD/svg11.dtd">
<svg width="100%" height="100%" viewBox="0 0 264 123" version="1.1" xmlns="http://www.w3.org/2000/svg" xmlns:xlink="http://www.w3.org/1999/xlink" xml:space="preserve" xmlns:serif="http://www.serif.com/" style="fill-rule:evenodd;clip-rule:evenodd;stroke-linejoin:round;stroke-miterlimit:2;">
    <path d="M263.25,36.675c0,-20.241 -16.434,-36.675 -36.675,-36.675l-189.9,0c-20.241,0 -36.675,16.434 -36.675,36.675l0,48.9c0,20.241 16.434,36.675 36.675,36.675l189.9,0c20.241,0 36.675,-16.434 36.675,-36.675l0,-48.9Z"/>
    <path d="M104.961,85.066c-2.767,-0 -5.42,-0.446 -7.866,-1.258c1.658,-3.753 5.991,-6.896 7.866,-8.126c1.881,1.23 6.214,4.376 7.869,8.126c-2.445,0.812 -5.098,1.258 -7.869,1.258Zm100.123,-0.44c-6.473,-0 -11.408,-2.113 -14.804,-6.341c-3.398,-4.226 -5.095,-9.869 -5.095,-16.93c-0,-4.653 0.882,-8.746 2.647,-12.277c1.766,-3.53 4.241,-6.258 7.421,-8.183c3.183,-1.925 6.809,-2.888 10.875,-2.888c4.975,-0 8.838,1.375 11.593,4.13c2.756,2.756 4.213,6.701 4.374,11.837c-0,3.263 -0.188,5.751 -0.563,7.461l-27.601,0c0.107,5.296 1.338,9.561 3.69,12.799c2.355,3.236 5.698,4.853 10.032,4.853c2.137,0 4.372,-0.387 6.698,-1.162c2.328,-0.776 4.133,-1.698 5.416,-2.768l1.525,3.53c-1.55,1.605 -3.851,2.996 -6.901,4.174c-3.048,1.174 -6.151,1.765 -9.307,1.765Zm-163.928,-22.868c-0.001,-4.441 0.87,-8.454 2.607,-12.037c1.738,-3.586 4.306,-6.434 7.704,-8.546c3.395,-2.113 7.474,-3.168 12.236,-3.168c2.298,-0 4.278,0.212 5.936,0.64c1.66,0.427 3.638,1.017 5.938,1.765l-0.32,12.357l-5.215,-0l-1.766,-8.184c-0.322,-1.497 -2.355,-2.248 -6.098,-2.248c-3.745,0 -6.701,1.513 -8.866,4.536c-2.168,3.021 -3.25,7.313 -3.25,12.877c-0,6.313 1.218,11.114 3.65,14.404c2.436,3.288 5.603,4.933 9.509,4.933c2.248,0 4.373,-0.347 6.378,-1.042c2.008,-0.695 3.733,-1.525 5.176,-2.488l1.525,3.21c-1.445,1.498 -3.57,2.848 -6.378,4.053c-2.81,1.203 -5.658,1.806 -8.546,1.806c-4.386,-0 -8.091,-0.99 -11.114,-2.971c-3.023,-1.978 -5.296,-4.693 -6.821,-8.143c-1.523,-3.451 -2.286,-7.369 -2.286,-11.754Zm95.726,-16.37l-5.778,-1.446l-0,-4.333l11.473,-1.442l0.243,-0l1.685,1.442l-0,3.371l-0.08,1.925c1.926,-1.71 4.466,-3.263 7.621,-4.653c3.156,-1.39 6.179,-2.085 9.069,-2.085c3.368,-0 5.976,0.64 7.821,1.925c1.848,1.283 3.143,3.25 3.893,5.898c0.748,2.648 1.122,6.219 1.122,10.712l0,22.465l5.619,0.563l-0,4.013l-19.018,-0l0,-3.933l4.976,-0.643l0,-22.545c0,-3.158 -0.215,-5.631 -0.643,-7.424c-0.427,-1.79 -1.23,-3.128 -2.407,-4.01c-1.178,-0.883 -2.888,-1.325 -5.136,-1.325c-1.925,-0 -3.985,0.482 -6.178,1.445c-2.193,0.963 -4.146,2.085 -5.856,3.37l0,30.409l5.455,0.723l0,3.933l-18.937,-0l-0,-3.933l5.056,-0.723l-0,-33.699Zm-54.07,20.98c6.904,1.085 13.472,3.6 19.213,7.359c-2.406,1.69 -6.276,4.868 -8.049,8.796c-6.481,-3.238 -10.919,-9.244 -11.164,-16.155Zm33.139,16.155c-1.772,-3.928 -5.643,-7.104 -8.048,-8.796c5.741,-3.759 12.309,-6.274 19.212,-7.359c-0.244,6.911 -4.683,12.917 -11.164,16.155Zm-10.989,-21.251c1.598,1.025 4.996,3.431 6.994,6.456c-2.435,1.163 -4.776,2.511 -6.994,4.036c-2.215,-1.525 -4.555,-2.873 -6.991,-4.036c1.998,-3.028 5.399,-5.431 6.991,-6.456Zm-18.927,-6.201c2.861,0.663 9.316,2.616 12.294,7.199c-1.26,1.178 -2.5,2.56 -3.463,4.095c-3.175,-1.267 -6.486,-2.232 -9.881,-2.872c-0.293,-3.388 0.51,-6.676 1.05,-8.422Zm38.908,8.422c-3.396,0.64 -6.706,1.605 -9.879,2.872c-0.966,-1.535 -2.205,-2.917 -3.466,-4.095c2.978,-4.585 9.437,-6.536 12.297,-7.199c0.537,1.746 1.34,5.034 1.048,8.422Zm-26.791,-6.319c2,-3.275 5.223,-5.868 6.813,-7.026c1.59,1.156 4.808,3.741 6.814,7.026c-1.023,0.851 -1.966,1.823 -2.758,2.936c-1.711,-1.288 -3.056,-2.051 -3.184,-2.123c-0.537,-0.3 -1.21,-0.3 -1.747,0c-0.128,0.072 -1.473,0.835 -3.183,2.123c-0.792,-1.113 -1.733,-2.085 -2.755,-2.936Zm115.117,0.008c0.161,-1.123 0.24,-2.273 0.24,-3.451c-0.052,-3.475 -0.787,-6.218 -2.205,-8.223c-1.418,-2.005 -3.65,-3.008 -6.701,-3.008c-3.103,0 -5.576,1.123 -7.421,3.37c-1.845,2.246 -2.903,6.016 -3.17,11.312l19.257,-0Zm-119.761,-13.427c1.776,0.698 5.351,2.298 8.147,4.791c-1.851,1.472 -4.411,3.813 -6.259,6.71c-2.303,-1.352 -4.706,-2.235 -6.606,-2.792c0.983,-3.753 3.471,-7.166 4.718,-8.709Zm22.919,0c1.247,1.538 3.733,4.943 4.715,8.709c-1.903,0.555 -4.306,1.437 -6.611,2.79c-1.847,-2.893 -4.403,-5.233 -6.253,-6.706c2.788,-2.485 6.373,-4.093 8.149,-4.793Zm-11.462,-6.571c1.407,0.928 4.178,2.923 6.193,5.451c-1.853,1 -3.907,2.33 -5.678,4.003c-0.335,-0.1 -0.695,-0.1 -1.03,0c-1.77,-1.675 -3.826,-3.005 -5.678,-4.003c2.012,-2.52 4.788,-4.521 6.193,-5.451Z" style="fill:#fff;fill-rule:nonzero;"/>
</svg>
