<svg
    aria-hidden="true"
    focusable="false"
    role="img"
    viewBox="0 0 24 24"
    fill="none"
    xmlns="http://www.w3.org/2000/svg"
    style="fill: currentColor"
    width="24"
    height="24"
>
    <path d="M24,12l-5.175,0c-0,-3.763 -3.062,-6.825 -6.825,-6.825c-3.763,0 -6.825,3.062 -6.825,6.825l-5.175,0c-0,-6.617 5.383,-12 12,-12c6.617,0 12,5.383 12,12Z"/>
    <path d="M24,24l-5.175,0c-0,-3.763 -3.062,-6.825 -6.825,-6.825c-3.763,0 -6.825,3.062 -6.825,6.825l-5.175,0c-0,-6.617 5.383,-12 12,-12c6.617,0 12,5.383 12,12Z"/>
</svg>
